M48
; DRILL file {KiCad 9.0.2-9.0.2-0~ubuntu24.04.1} date 2025-06-11T12:06:32+0200
; FORMAT={-:-/ absolute / metric / decimal}
; #@! TF.CreationDate,2025-06-11T12:06:32+02:00
; #@! TF.GenerationSoftware,Kicad,Pcbnew,9.0.2-9.0.2-0~ubuntu24.04.1
; #@! TF.FileFunction,Plated,1,4,PTH
FMAT,2
METRIC
; #@! TA.AperFunction,Plated,PTH,ViaDrill
T1C0.300
; #@! TA.AperFunction,Plated,PTH,ComponentDrill
T2C1.000
; #@! TA.AperFunction,Plated,PTH,ComponentDrill
T3C1.030
; #@! TA.AperFunction,Plated,PTH,ComponentDrill
T4C1.200
; #@! TA.AperFunction,Plated,PTH,ComponentDrill
T5C1.300
; #@! TA.AperFunction,Plated,PTH,ComponentDrill
T6C1.400
; #@! TA.AperFunction,Plated,PTH,ComponentDrill
T7C1.600
; #@! TA.AperFunction,Plated,PTH,ComponentDrill
T8C2.200
; #@! TA.AperFunction,Plated,PTH,ComponentDrill
T9C3.200
%
G90
G05
T1
X35.57Y-153.23
X35.57Y-159.23
X39.31Y-149.43
X39.38Y-161.3
X45.31Y-149.43
X45.38Y-161.3
X51.31Y-149.43
X51.38Y-161.3
X57.31Y-149.43
X57.38Y-161.3
X61.58Y-193.84
X63.1Y-193.81
X63.31Y-149.43
X63.38Y-161.3
X64.87Y-193.53
X64.9Y-188.41
X64.93Y-189.77
X64.93Y-192.39
X65.69Y-205.13
X65.69Y-206.48
X69.31Y-149.43
X69.31Y-205.12
X69.34Y-206.48
X69.38Y-161.3
X75.31Y-149.43
X75.38Y-161.3
X77.45Y-191.84
X77.47Y-197.1
X77.48Y-193.2
X77.5Y-198.56
X77.8Y-194.54
X77.81Y-195.71
X79.31Y-191.83
X79.55Y-161.35
X79.55Y-167.35
X79.55Y-173.35
X79.55Y-179.35
X79.55Y-185.35
X79.57Y-188.14
X81.31Y-149.43
X85.31Y-191.83
X85.35Y-197.82
X85.57Y-188.14
X87.31Y-149.43
X88.11Y-153.75
X88.11Y-156.38
X88.16Y-151.69
X90.32Y-150.92
X90.47Y-153.77
X90.47Y-156.4
X90.52Y-151.71
X91.31Y-191.83
X91.35Y-197.82
X91.57Y-188.14
X93.31Y-149.43
X97.31Y-191.83
X97.35Y-197.82
X97.57Y-188.14
X99.31Y-149.43
X101.83Y-151.56
X102.0Y-157.96
X102.0Y-160.96
X102.0Y-163.96
X102.7Y-153.61
X103.31Y-191.83
X103.35Y-151.57
X103.44Y-155.32
X103.45Y-165.87
X103.57Y-188.14
X104.21Y-198.45
X104.9Y-158.6
X104.9Y-161.6
X104.9Y-164.6
X104.93Y-153.61
X104.96Y-155.33
X105.31Y-149.43
X106.22Y-166.98
X107.08Y-198.36
X108.18Y-185.05
X108.44Y-198.33
X108.69Y-205.08
X108.69Y-206.43
X109.86Y-190.63
X109.89Y-193.46
X109.89Y-196.87
X109.92Y-187.82
X111.01Y-182.09
X111.31Y-149.43
X111.39Y-196.8
X111.84Y-189.45
X111.87Y-192.66
X111.94Y-198.52
X112.31Y-205.07
X112.34Y-206.43
X112.71Y-187.0
X112.8Y-195.67
X113.629Y-179.392
X114.04Y-159.47
X114.06Y-157.49
X114.15Y-198.45
X114.22Y-196.95
X114.6Y-190.77
X114.76Y-194.46
X114.77Y-193.77
X115.5Y-184.09
X116.12Y-177.11
X116.24Y-195.6
X116.34Y-197.13
X116.46Y-198.44
X116.59Y-188.11
X116.67Y-159.47
X116.68Y-190.19
X116.69Y-157.49
X116.74Y-154.03
X116.79Y-151.08
X117.0Y-160.4
X117.31Y-149.43
X117.49Y-182.18
X118.15Y-162.87
X118.15Y-165.87
X118.15Y-168.47
X118.15Y-171.47
X118.15Y-174.47
X119.02Y-169.06
X119.07Y-197.16
X119.09Y-198.48
X119.16Y-156.24
X119.16Y-158.26
X119.17Y-160.86
X119.3Y-155.1
X119.34Y-154.02
X119.91Y-180.02
X121.36Y-154.02
X121.61Y-157.41
X121.61Y-159.43
X121.62Y-162.03
X122.08Y-165.71
X122.08Y-171.31
X122.08Y-174.31
X122.08Y-177.31
X122.09Y-169.03
X122.16Y-167.98
X122.59Y-188.11
X122.68Y-190.19
X123.31Y-149.43
X123.6Y-160.3
X123.6Y-161.3
X124.49Y-160.04
X124.49Y-162.06
X124.5Y-164.66
X124.68Y-153.99
X124.7Y-156.23
X125.07Y-197.16
X125.46Y-158.17
X125.6Y-162.16
X126.04Y-169.01
X126.11Y-167.96
X126.26Y-165.03
X126.46Y-160.14
X127.29Y-164.02
X128.0Y-164.83
X128.26Y-161.3
X128.43Y-162.76
X128.59Y-188.11
X128.68Y-190.19
X128.87Y-154.06
X128.89Y-156.3
X129.31Y-149.43
X130.37Y-169.02
X130.39Y-167.95
X131.07Y-197.16
X131.89Y-154.12
X132.15Y-167.07
X132.22Y-164.06
X132.27Y-160.6
X132.32Y-157.65
X133.22Y-169.14
X134.23Y-167.06
X134.3Y-164.05
X134.35Y-160.59
X134.4Y-157.64
X134.63Y-187.99
X135.31Y-149.43
X135.58Y-171.59
X135.71Y-154.13
X135.71Y-156.15
X137.0Y-169.35
X137.11Y-197.04
X137.41Y-150.86
X137.41Y-153.86
X138.25Y-174.25
X139.36Y-171.8
X140.63Y-187.99
X140.72Y-190.07
X141.03Y-177.04
X141.99Y-156.52
X141.99Y-159.52
X141.99Y-162.52
X142.03Y-174.46
X143.11Y-197.04
X143.65Y-179.66
X144.81Y-177.25
X145.4Y-167.14
X146.31Y-182.52
X146.63Y-187.99
X146.72Y-190.07
X147.43Y-179.87
X147.65Y-165.18
X148.28Y-170.03
X149.11Y-197.04
X149.21Y-185.11
X149.89Y-192.09
X150.09Y-182.73
X150.78Y-190.93
X151.0Y-168.09
X151.807Y-173.059
X152.06Y-170.24
X152.49Y-156.4
X152.49Y-159.4
X152.49Y-162.4
X152.99Y-185.32
X153.51Y-170.95
X153.69Y-189.47
X153.72Y-196.02
X153.72Y-205.17
X153.72Y-206.52
X153.73Y-198.52
X153.74Y-192.65
X155.65Y-177.07
X155.89Y-189.46
X155.93Y-192.37
X156.54Y-195.56
X156.64Y-197.28
X156.64Y-198.65
X156.82Y-181.71
X157.01Y-186.5
X157.17Y-150.77
X157.17Y-153.77
X157.17Y-156.37
X157.17Y-159.37
X157.17Y-162.37
X157.34Y-205.16
X157.37Y-206.52
X157.4Y-169.4
X157.58Y-175.05
X158.7Y-169.4
X159.05Y-194.5
X159.06Y-193.81
X159.31Y-149.43
X159.4Y-198.68
X159.47Y-172.97
X160.0Y-169.4
X160.07Y-186.45
X160.09Y-181.71
X160.11Y-177.34
X160.84Y-195.63
X161.51Y-197.15
X161.52Y-171.13
X161.57Y-198.64
X161.77Y-179.38
X162.76Y-181.81
X162.76Y-184.26
X163.16Y-173.9
X163.6Y-156.21
X163.6Y-162.21
X163.6Y-168.21
X163.6Y-187.65
X163.61Y-178.93
X164.52Y-186.5
X164.75Y-192.91
X165.31Y-149.43
X165.37Y-182.07
X165.61Y-171.13
X166.55Y-182.35
X166.56Y-189.93
X166.89Y-154.94
X167.24Y-182.36
X167.25Y-189.94
X167.51Y-162.32
X167.51Y-168.32
X168.01Y-182.06
X168.17Y-190.11
X168.92Y-192.9
X170.14Y-190.13
X170.19Y-186.09
X170.5Y-184.09
X171.27Y-154.96
X171.31Y-149.43
X171.31Y-157.29
X172.31Y-187.89
X174.36Y-187.91
X174.68Y-190.92
X174.92Y-192.9
X177.17Y-190.74
X177.27Y-154.96
X177.31Y-149.43
X177.31Y-157.29
X180.91Y-190.72
X180.92Y-192.9
X183.27Y-154.96
X183.31Y-149.43
X183.31Y-157.29
X183.96Y-176.21
X183.98Y-182.22
X184.17Y-186.03
X187.23Y-166.33
X187.23Y-176.26
X187.23Y-182.26
X187.27Y-163.47
X188.54Y-192.86
X188.55Y-190.72
X188.76Y-186.17
X189.31Y-149.43
X190.33Y-199.67
X190.33Y-205.67
X190.33Y-211.67
X190.33Y-217.67
X190.33Y-223.67
X190.33Y-229.67
X190.33Y-235.67
X191.79Y-155.09
X191.79Y-156.39
X192.71Y-192.85
X194.76Y-166.3
X194.79Y-163.22
X195.28Y-152.5
X195.31Y-149.43
X196.36Y-235.7
X197.64Y-168.88
X198.71Y-192.85
X198.89Y-167.08
X199.34Y-187.41
X199.52Y-173.65
X199.52Y-179.65
X201.28Y-152.5
X201.31Y-149.43
X202.36Y-235.7
X202.61Y-187.46
X202.77Y-179.69
X202.79Y-173.7
X202.95Y-192.9
X205.16Y-168.8
X205.86Y-187.5
X206.04Y-173.74
X206.04Y-179.74
X207.28Y-152.5
X207.31Y-149.43
X207.35Y-192.81
X208.36Y-235.7
X210.03Y-187.49
X210.31Y-166.97
X211.52Y-192.8
X213.31Y-149.43
X214.36Y-235.7
X214.47Y-151.5
X214.47Y-152.8
X215.7Y-196.97
X216.03Y-187.49
X217.52Y-192.8
X217.58Y-165.88
X219.31Y-149.43
X220.36Y-235.7
X221.7Y-196.97
X222.03Y-187.49
X223.52Y-192.8
X223.58Y-165.88
X223.61Y-164.09
X223.63Y-169.58
X225.31Y-149.43
X226.17Y-187.06
X226.36Y-235.7
X227.7Y-196.97
X227.82Y-193.02
X228.09Y-188.07
X228.37Y-184.27
X229.58Y-164.07
X229.58Y-165.88
X229.63Y-169.58
X230.92Y-188.63
X231.31Y-149.43
X232.18Y-188.32
X232.2Y-191.33
X232.36Y-235.7
X232.75Y-163.95
X233.21Y-189.24
X233.21Y-191.0
X233.7Y-196.97
X234.08Y-191.47
X234.37Y-184.27
X234.82Y-191.51
X235.09Y-161.52
X235.36Y-189.21
X235.38Y-191.0
X235.4Y-168.46
X235.4Y-174.46
X235.4Y-180.46
X235.4Y-186.46
X236.17Y-188.4
X237.02Y-188.42
X237.31Y-149.43
X237.37Y-159.06
X237.77Y-201.35
X238.36Y-235.7
X238.65Y-168.5
X238.65Y-174.5
X238.65Y-180.5
X238.65Y-186.5
X239.02Y-163.83
X239.07Y-189.19
X239.09Y-190.98
X239.7Y-196.97
X240.37Y-184.27
X241.34Y-204.96
X242.24Y-160.8
X242.78Y-191.69
X242.9Y-171.22
X242.9Y-177.22
X242.9Y-183.22
X243.31Y-149.43
X243.91Y-203.22
X244.36Y-235.7
X244.81Y-208.11
X244.81Y-212.92
X244.98Y-171.21
X244.98Y-177.21
X244.98Y-183.21
X245.02Y-163.83
X245.99Y-158.04
X246.44Y-215.95
X246.74Y-191.81
X247.92Y-200.38
X248.24Y-160.8
X248.58Y-193.56
X248.6Y-195.35
X248.68Y-216.1
X249.04Y-167.23
X249.04Y-169.05
X249.31Y-149.43
X249.66Y-184.27
X249.66Y-186.51
X250.25Y-213.33
X250.35Y-203.05
X250.36Y-235.7
X250.38Y-208.14
X250.87Y-200.38
X251.7Y-196.97
X251.99Y-158.04
X252.67Y-203.09
X252.77Y-208.25
X252.87Y-213.6
X253.39Y-193.55
X253.4Y-195.46
X254.24Y-160.8
X255.31Y-149.43
X255.66Y-184.27
X255.66Y-186.51
X255.67Y-190.33
X256.36Y-235.7
X257.7Y-196.97
X257.99Y-158.04
X258.01Y-193.06
X258.15Y-186.76
X259.35Y-195.17
X260.24Y-160.8
X261.31Y-149.43
X261.59Y-190.42
X261.66Y-184.27
X262.17Y-188.66
X262.2Y-191.51
X262.36Y-235.7
X263.7Y-196.97
X263.93Y-191.54
X263.99Y-158.04
X264.795Y-191.56
X265.02Y-168.41
X265.02Y-174.41
X265.02Y-180.41
X265.46Y-186.49
X265.47Y-189.87
X266.24Y-160.8
X266.24Y-188.4
X266.98Y-188.42
X267.31Y-149.43
X267.76Y-201.29
X268.27Y-168.45
X268.27Y-174.45
X268.27Y-180.45
X268.27Y-186.45
X268.36Y-235.7
X268.64Y-163.78
X269.7Y-196.97
X269.99Y-158.04
X270.54Y-189.87
X270.55Y-191.78
X271.33Y-204.9
X272.24Y-160.8
X272.52Y-171.17
X272.52Y-177.17
X272.52Y-183.17
X273.31Y-149.43
X273.9Y-203.16
X274.36Y-235.7
X274.6Y-171.16
X274.6Y-177.16
X274.6Y-183.16
X274.64Y-163.78
X274.8Y-208.05
X274.8Y-212.86
X275.99Y-158.04
X276.43Y-215.89
X276.55Y-191.78
X277.91Y-200.32
X278.24Y-160.8
X278.66Y-167.18
X278.66Y-169.0
X278.67Y-216.04
X279.31Y-149.43
X280.24Y-213.27
X280.34Y-202.99
X280.36Y-235.7
X280.37Y-208.08
X280.86Y-200.32
X281.17Y-184.44
X281.7Y-196.97
X281.99Y-158.04
X282.54Y-189.87
X282.55Y-191.78
X282.66Y-203.03
X282.76Y-208.19
X282.86Y-213.54
X284.24Y-160.8
X285.31Y-149.43
X286.36Y-235.7
X287.17Y-184.44
X287.7Y-196.97
X287.97Y-186.51
X287.99Y-158.04
X288.12Y-193.05
X288.47Y-191.48
X288.54Y-189.87
X290.24Y-160.8
X291.31Y-149.43
X291.33Y-189.82
X292.21Y-191.53
X292.29Y-190.36
X292.36Y-235.7
X293.17Y-184.44
X293.24Y-189.8
X293.7Y-196.97
X293.9Y-191.61
X293.99Y-158.04
X294.91Y-191.65
X295.01Y-168.02
X295.01Y-174.02
X295.01Y-180.02
X295.4Y-186.11
X295.52Y-189.8
X296.13Y-188.36
X296.24Y-160.8
X297.08Y-188.31
X297.31Y-149.43
X297.32Y-189.8
X297.68Y-193.4
X297.93Y-200.69
X298.26Y-168.06
X298.26Y-174.06
X298.26Y-180.06
X298.26Y-186.06
X298.36Y-235.7
X298.81Y-163.69
X299.7Y-196.97
X299.99Y-158.04
X301.5Y-204.3
X302.24Y-160.8
X303.03Y-171.26
X303.03Y-177.26
X303.03Y-183.26
X303.31Y-149.43
X303.43Y-186.13
X303.68Y-193.4
X304.07Y-202.56
X304.36Y-235.7
X304.81Y-163.69
X304.97Y-207.45
X304.97Y-212.26
X305.11Y-171.25
X305.11Y-177.25
X305.11Y-183.25
X305.99Y-158.04
X306.6Y-215.29
X308.08Y-199.72
X308.24Y-160.8
X308.83Y-167.09
X308.84Y-215.44
X308.89Y-169.29
X309.05Y-193.37
X309.23Y-184.37
X309.28Y-186.47
X309.31Y-149.43
X310.36Y-235.7
X310.41Y-212.67
X310.51Y-202.39
X310.54Y-207.48
X311.03Y-199.72
X311.7Y-196.97
X311.99Y-158.04
X312.83Y-202.43
X312.93Y-207.59
X313.03Y-212.94
X314.38Y-163.25
X315.05Y-193.37
X315.23Y-184.37
X315.28Y-186.47
X315.31Y-149.43
X315.58Y-160.23
X316.36Y-235.7
X317.7Y-196.97
X318.1Y-193.08
X318.26Y-186.88
X318.29Y-163.72
X318.29Y-169.72
X318.29Y-175.72
X318.29Y-181.72
X320.73Y-187.2
X321.31Y-149.43
X321.38Y-192.96
X321.54Y-169.76
X321.54Y-175.76
X321.54Y-181.76
X322.15Y-191.52
X322.36Y-235.7
X323.67Y-189.92
X323.7Y-196.97
X323.99Y-191.61
X324.83Y-191.62
X324.97Y-168.35
X324.97Y-174.35
X324.97Y-180.35
X325.53Y-186.35
X325.56Y-189.882
X326.09Y-188.33
X327.05Y-188.32
X327.31Y-149.43
X327.38Y-192.96
X327.92Y-201.05
X328.22Y-168.39
X328.22Y-174.39
X328.22Y-180.39
X328.22Y-186.39
X328.36Y-235.7
X328.62Y-164.09
X329.67Y-189.92
X329.7Y-196.97
X331.49Y-204.66
X332.96Y-171.17
X332.96Y-177.17
X332.96Y-183.17
X333.31Y-149.43
X334.06Y-202.92
X334.36Y-235.7
X334.62Y-164.09
X334.96Y-207.81
X334.96Y-212.62
X335.04Y-171.16
X335.04Y-177.16
X335.04Y-183.16
X335.54Y-191.92
X336.59Y-215.65
X338.07Y-200.08
X338.71Y-167.17
X338.71Y-169.11
X338.83Y-215.8
X339.31Y-149.43
X340.02Y-184.47
X340.36Y-235.7
X340.4Y-213.03
X340.5Y-202.75
X340.53Y-207.84
X341.02Y-200.08
X341.44Y-189.83
X341.54Y-191.92
X341.7Y-196.97
X342.82Y-202.79
X342.92Y-207.95
X343.02Y-213.3
X345.31Y-149.43
X346.02Y-184.47
X346.36Y-235.7
X347.44Y-189.83
X347.7Y-196.97
X348.18Y-186.81
X348.25Y-193.01
X351.19Y-193.65
X351.19Y-195.04
X351.31Y-149.43
X352.02Y-184.47
X352.17Y-189.92
X352.22Y-191.69
X352.36Y-235.7
X353.08Y-191.63
X353.38Y-189.58
X353.7Y-196.97
X353.91Y-191.63
X354.9Y-191.65
X354.94Y-169.75
X354.94Y-175.75
X354.94Y-181.75
X355.44Y-187.52
X355.45Y-189.55
X355.53Y-195.07
X355.58Y-193.59
X355.66Y-191.62
X356.13Y-188.35
X357.09Y-188.33
X357.31Y-149.43
X357.67Y-200.57
X358.19Y-169.79
X358.19Y-175.79
X358.19Y-181.79
X358.19Y-187.79
X358.36Y-235.7
X359.7Y-196.97
X359.72Y-164.17
X360.04Y-189.65
X360.04Y-191.62
X360.05Y-194.93
X361.14Y-166.66
X361.24Y-204.18
X362.96Y-171.26
X362.96Y-177.26
X362.96Y-183.26
X363.31Y-149.43
X363.81Y-202.44
X363.86Y-191.63
X363.87Y-194.98
X364.36Y-235.7
X364.71Y-207.33
X364.71Y-212.14
X365.04Y-171.25
X365.04Y-177.25
X365.04Y-183.25
X365.72Y-164.17
X366.34Y-215.17
X367.73Y-194.9
X367.74Y-191.61
X367.82Y-199.6
X368.58Y-215.32
X368.88Y-169.28
X368.9Y-167.11
X369.31Y-149.43
X369.95Y-184.22
X370.15Y-212.55
X370.25Y-202.27
X370.28Y-207.36
X370.36Y-235.7
X370.64Y-189.93
X370.66Y-187.33
X370.77Y-199.6
X372.57Y-202.31
X372.67Y-207.47
X372.77Y-212.82
X374.62Y-195.05
X375.31Y-149.43
X375.95Y-184.22
X376.16Y-193.6
X376.36Y-235.7
X376.66Y-187.33
X376.67Y-189.81
X377.7Y-196.97
X378.04Y-192.99
X378.26Y-186.98
X380.59Y-187.23
X380.78Y-191.55
X381.31Y-149.43
X382.2Y-188.39
X382.21Y-191.56
X382.36Y-235.7
X383.23Y-186.92
X383.24Y-192.91
X383.46Y-189.97
X383.7Y-196.97
X383.91Y-191.63
X384.84Y-167.96
X384.84Y-173.96
X384.84Y-179.96
X384.91Y-191.67
X385.52Y-187.01
X385.61Y-190.01
X386.11Y-188.36
X387.09Y-188.34
X387.31Y-149.43
X387.45Y-190.01
X388.07Y-200.39
X388.09Y-168.0
X388.09Y-174.0
X388.09Y-180.0
X388.09Y-186.0
X388.36Y-235.7
X388.49Y-163.85
X389.67Y-190.12
X389.7Y-196.97
X391.09Y-166.19
X391.64Y-204.0
X392.99Y-171.06
X392.99Y-177.06
X392.99Y-183.06
X393.31Y-149.43
X394.21Y-202.26
X394.36Y-235.7
X394.49Y-163.85
X395.07Y-171.05
X395.07Y-177.05
X395.07Y-183.05
X395.11Y-207.15
X395.11Y-211.96
X396.74Y-214.99
X398.22Y-199.42
X398.88Y-169.4
X398.91Y-167.09
X398.98Y-215.14
X399.31Y-149.43
X400.36Y-235.7
X400.55Y-212.37
X400.65Y-202.09
X400.68Y-207.18
X401.17Y-199.42
X401.7Y-196.97
X402.97Y-202.13
X403.07Y-207.29
X403.17Y-212.64
X405.31Y-149.43
X406.36Y-235.7
X407.7Y-196.97
X411.31Y-149.43
X412.36Y-235.7
X417.31Y-149.43
X418.36Y-235.7
X421.88Y-154.65
X421.88Y-160.65
X421.88Y-166.65
X421.88Y-172.65
X421.88Y-178.65
X421.88Y-184.65
X421.88Y-190.65
X421.88Y-196.65
X421.88Y-202.65
X421.88Y-208.65
X421.88Y-214.65
X421.88Y-220.65
X421.88Y-226.65
X421.88Y-232.65
T2
X139.865Y-150.37
X139.865Y-152.91
X139.865Y-155.45
X139.865Y-157.99
X139.865Y-160.53
X139.865Y-163.07
X139.865Y-165.61
X139.865Y-168.15
X155.105Y-150.37
X155.105Y-152.91
X155.105Y-155.45
X155.105Y-157.99
X155.105Y-160.53
X155.105Y-163.07
X155.105Y-165.61
X155.105Y-168.15
X201.46Y-189.0
X201.46Y-196.62
X204.0Y-189.0
X204.0Y-196.62
X243.46Y-189.0
X243.46Y-196.62
X246.0Y-189.0
X246.0Y-196.62
X273.46Y-189.0
X273.46Y-196.62
X276.0Y-189.0
X276.0Y-196.62
X303.46Y-189.0
X303.46Y-196.62
X306.0Y-189.0
X306.0Y-196.62
X333.46Y-189.0
X333.46Y-196.62
X336.0Y-189.0
X336.0Y-196.62
X363.46Y-189.0
X363.46Y-196.62
X366.0Y-189.0
X366.0Y-196.62
X393.46Y-189.0
X393.46Y-196.62
X396.0Y-189.0
X396.0Y-196.62
T3
X62.425Y-166.06
X62.425Y-186.38
X108.145Y-166.06
X108.145Y-176.22
T4
X187.81Y-172.45
X217.81Y-172.45
X247.81Y-172.45
X277.81Y-172.45
X307.81Y-172.45
X337.81Y-172.45
X367.81Y-172.45
X397.81Y-172.45
T6
X63.78Y-205.83
X63.78Y-221.09
X63.78Y-226.13
X63.78Y-231.17
X67.5Y-205.83
X71.28Y-205.83
X71.28Y-221.09
X71.28Y-226.13
X71.28Y-231.17
X106.78Y-205.83
X106.78Y-221.09
X106.78Y-226.13
X106.78Y-231.17
X110.5Y-205.83
X114.28Y-205.83
X114.28Y-221.09
X114.28Y-226.13
X114.28Y-231.17
X151.78Y-205.83
X151.78Y-221.09
X151.78Y-226.13
X151.78Y-231.17
X155.5Y-205.83
X159.28Y-205.83
X159.28Y-221.09
X159.28Y-226.13
X159.28Y-231.17
T7
X43.61Y-213.3
X43.61Y-218.3
X111.72Y-153.24
X111.72Y-158.24
X184.0Y-168.0
X191.62Y-168.0
X214.0Y-168.0
X221.62Y-168.0
X243.78Y-216.0
X244.0Y-168.0
X247.59Y-219.81
X251.4Y-216.0
X251.62Y-168.0
X273.78Y-216.0
X274.0Y-168.0
X277.59Y-219.81
X281.4Y-216.0
X281.62Y-168.0
X303.78Y-216.0
X304.0Y-168.0
X307.59Y-219.81
X311.4Y-216.0
X311.62Y-168.0
X333.78Y-216.0
X334.0Y-168.0
X337.59Y-219.81
X341.4Y-216.0
X341.62Y-168.0
X363.78Y-216.0
X364.0Y-168.0
X367.59Y-219.81
X371.4Y-216.0
X371.62Y-168.0
X393.78Y-216.0
X394.0Y-168.0
X397.59Y-219.81
X401.4Y-216.0
X401.62Y-168.0
T8
X133.0Y-191.0
X252.0Y-191.0
X374.0Y-191.0
T9
X39.71Y-154.46
X39.71Y-231.36
X417.6Y-154.46
X417.6Y-231.35
T4
X41.14Y-182.7G85X45.94Y-182.7
G05
X41.14Y-197.0G85X45.94Y-197.0
G05
X45.88Y-189.83G85X50.68Y-189.83
G05
T5
X85.0Y-212.65G85X85.0Y-217.35
G05
X93.605Y-205.8G85X93.605Y-210.5
G05
X93.605Y-219.5G85X93.605Y-224.2
G05
X129.0Y-212.65G85X129.0Y-217.35
G05
X137.605Y-205.8G85X137.605Y-210.5
G05
X137.605Y-219.5G85X137.605Y-224.2
G05
X175.48Y-212.65G85X175.48Y-217.35
G05
X184.085Y-205.8G85X184.085Y-210.5
G05
X184.085Y-219.5G85X184.085Y-224.2
G05
M30
