G04 #@! TF.GenerationSoftware,KiCad,Pcbnew,9.0.2-9.0.2-0~ubuntu24.04.1*
G04 #@! TF.CreationDate,2025-06-16T11:23:02+02:00*
G04 #@! TF.ProjectId,PCB_Repetition,5043425f-5265-4706-9574-6974696f6e2e,rev?*
G04 #@! TF.SameCoordinates,Original*
G04 #@! TF.FileFunction,Soldermask,Bot*
G04 #@! TF.FilePolarity,Negative*
%FSLAX46Y46*%
G04 Gerber Fmt 4.6, Leading zero omitted, Abs format (unit mm)*
G04 Created by KiCad (PCBNEW 9.0.2-9.0.2-0~ubuntu24.04.1) date 2025-06-16 11:23:02*
%MOMM*%
%LPD*%
G01*
G04 APERTURE LIST*
G04 Aperture macros list*
%AMRoundRect*
0 Rectangle with rounded corners*
0 $1 Rounding radius*
0 $2 $3 $4 $5 $6 $7 $8 $9 X,Y pos of 4 corners*
0 Add a 4 corners polygon primitive as box body*
4,1,4,$2,$3,$4,$5,$6,$7,$8,$9,$2,$3,0*
0 Add four circle primitives for the rounded corners*
1,1,$1+$1,$2,$3*
1,1,$1+$1,$4,$5*
1,1,$1+$1,$6,$7*
1,1,$1+$1,$8,$9*
0 Add four rect primitives between the rounded corners*
20,1,$1+$1,$2,$3,$4,$5,0*
20,1,$1+$1,$4,$5,$6,$7,0*
20,1,$1+$1,$6,$7,$8,$9,0*
20,1,$1+$1,$8,$9,$2,$3,0*%
G04 Aperture macros list end*
%ADD10C,1.700000*%
%ADD11R,1.700000X1.700000*%
%ADD12C,2.300000*%
%ADD13C,3.600000*%
%ADD14C,5.600000*%
%ADD15C,2.600000*%
%ADD16C,3.800000*%
%ADD17C,3.400000*%
%ADD18C,2.900000*%
%ADD19RoundRect,0.315000X0.735000X-3.085000X0.735000X3.085000X-0.735000X3.085000X-0.735000X-3.085000X0*%
%ADD20C,2.100000*%
%ADD21RoundRect,0.105000X-0.245000X0.895000X-0.245000X-0.895000X0.245000X-0.895000X0.245000X0.895000X0*%
%ADD22RoundRect,0.300000X-3.100000X-0.700000X3.100000X-0.700000X3.100000X0.700000X-3.100000X0.700000X0*%
G04 APERTURE END LIST*
D10*
X164670000Y-153540000D03*
X164670000Y-156080000D03*
X164670000Y-158620000D03*
D11*
X164670000Y-161160000D03*
X204000000Y-189000000D03*
D10*
X201460000Y-189000000D03*
X201460000Y-196620000D03*
D11*
X204000000Y-196620000D03*
D12*
X111720000Y-158240000D03*
X111720000Y-153240000D03*
D13*
X417600000Y-154460000D03*
D14*
X417600000Y-154460000D03*
D15*
X252000000Y-191000000D03*
D16*
X252000000Y-191000000D03*
D13*
X39710000Y-231360000D03*
D14*
X39710000Y-231360000D03*
D11*
X276000000Y-189000000D03*
D10*
X273460000Y-189000000D03*
X273460000Y-196620000D03*
D11*
X276000000Y-196620000D03*
D15*
X374000000Y-191000000D03*
D16*
X374000000Y-191000000D03*
D11*
X246000000Y-189000000D03*
D10*
X243460000Y-189000000D03*
X243460000Y-196620000D03*
D11*
X246000000Y-196620000D03*
X167210000Y-161160000D03*
D10*
X167210000Y-158620000D03*
X167210000Y-156080000D03*
X167210000Y-153540000D03*
D11*
X162130000Y-161160000D03*
D10*
X162130000Y-158620000D03*
X162130000Y-156080000D03*
X162130000Y-153540000D03*
D11*
X306000000Y-189000000D03*
D10*
X303460000Y-189000000D03*
X303460000Y-196620000D03*
D11*
X306000000Y-196620000D03*
X366000000Y-189000000D03*
D10*
X363460000Y-189000000D03*
X363460000Y-196620000D03*
D11*
X366000000Y-196620000D03*
X336000000Y-189000000D03*
D10*
X333460000Y-189000000D03*
X333460000Y-196620000D03*
D11*
X336000000Y-196620000D03*
D10*
X62425000Y-166060000D03*
X62425000Y-186380000D03*
X108145000Y-176220000D03*
X108145000Y-166060000D03*
D13*
X417600000Y-231350000D03*
D14*
X417600000Y-231350000D03*
D12*
X43610000Y-218300000D03*
X43610000Y-213300000D03*
D13*
X39710000Y-154460000D03*
D14*
X39710000Y-154460000D03*
D11*
X396000000Y-189000000D03*
D10*
X393460000Y-189000000D03*
X393460000Y-196620000D03*
D11*
X396000000Y-196620000D03*
D15*
X133000000Y-191000000D03*
D16*
X133000000Y-191000000D03*
D17*
X251400000Y-216000000D03*
X243780000Y-216000000D03*
X247590000Y-219810000D03*
X184000000Y-168000000D03*
X191620000Y-168000000D03*
D18*
X187810000Y-172450000D03*
D19*
X84395000Y-221850000D03*
X84395000Y-208150000D03*
X93000000Y-215000000D03*
D20*
X151780000Y-204830000D03*
X159280000Y-204830000D03*
X155500000Y-204830000D03*
X151780000Y-225130000D03*
X159280000Y-225130000D03*
X151780000Y-220090000D03*
X159280000Y-220090000D03*
X151780000Y-230170000D03*
X159280000Y-230170000D03*
D17*
X341400000Y-216000000D03*
X333780000Y-216000000D03*
X337590000Y-219810000D03*
X364000000Y-168000000D03*
X371620000Y-168000000D03*
D18*
X367810000Y-172450000D03*
D19*
X127995000Y-221850000D03*
X127995000Y-208150000D03*
X136600000Y-215000000D03*
D17*
X394000000Y-168000000D03*
X401620000Y-168000000D03*
D18*
X397810000Y-172450000D03*
D17*
X311400000Y-216000000D03*
X303780000Y-216000000D03*
X307590000Y-219810000D03*
D19*
X172895000Y-221850000D03*
X172895000Y-208150000D03*
X181500000Y-215000000D03*
D21*
X319000000Y-187000000D03*
X322200000Y-187000000D03*
X324400000Y-187000000D03*
X326600000Y-187000000D03*
X326600000Y-193000000D03*
X324400000Y-193000000D03*
X322200000Y-193000000D03*
X319000000Y-193000000D03*
D17*
X371400000Y-216000000D03*
X363780000Y-216000000D03*
X367590000Y-219810000D03*
X304000000Y-168000000D03*
X311620000Y-168000000D03*
D18*
X307810000Y-172450000D03*
D21*
X259000000Y-187000000D03*
X262200000Y-187000000D03*
X264400000Y-187000000D03*
X266600000Y-187000000D03*
X266600000Y-193000000D03*
X264400000Y-193000000D03*
X262200000Y-193000000D03*
X259000000Y-193000000D03*
D17*
X274000000Y-168000000D03*
X281620000Y-168000000D03*
D18*
X277810000Y-172450000D03*
D20*
X106780000Y-204830000D03*
X114280000Y-204830000D03*
X110500000Y-204830000D03*
X106780000Y-225130000D03*
X114280000Y-225130000D03*
X106780000Y-220090000D03*
X114280000Y-220090000D03*
X106780000Y-230170000D03*
X114280000Y-230170000D03*
D17*
X214000000Y-168000000D03*
X221620000Y-168000000D03*
D18*
X217810000Y-172450000D03*
D21*
X349000000Y-187000000D03*
X352200000Y-187000000D03*
X354400000Y-187000000D03*
X356600000Y-187000000D03*
X356600000Y-193000000D03*
X354400000Y-193000000D03*
X352200000Y-193000000D03*
X349000000Y-193000000D03*
D17*
X281400000Y-216000000D03*
X273780000Y-216000000D03*
X277590000Y-219810000D03*
D21*
X229000000Y-187000000D03*
X232200000Y-187000000D03*
X234400000Y-187000000D03*
X236600000Y-187000000D03*
X236600000Y-193000000D03*
X234400000Y-193000000D03*
X232200000Y-193000000D03*
X229000000Y-193000000D03*
D17*
X244000000Y-168000000D03*
X251620000Y-168000000D03*
D18*
X247810000Y-172450000D03*
D17*
X334000000Y-168000000D03*
X341620000Y-168000000D03*
D18*
X337810000Y-172450000D03*
D22*
X43540000Y-197000000D03*
X43540000Y-182700000D03*
X48280000Y-189830000D03*
D21*
X289000000Y-187000000D03*
X292200000Y-187000000D03*
X294400000Y-187000000D03*
X296600000Y-187000000D03*
X296600000Y-193000000D03*
X294400000Y-193000000D03*
X292200000Y-193000000D03*
X289000000Y-193000000D03*
D17*
X401400000Y-216000000D03*
X393780000Y-216000000D03*
X397590000Y-219810000D03*
D21*
X379000000Y-187000000D03*
X382200000Y-187000000D03*
X384400000Y-187000000D03*
X386600000Y-187000000D03*
X386600000Y-193000000D03*
X384400000Y-193000000D03*
X382200000Y-193000000D03*
X379000000Y-193000000D03*
D20*
X63940000Y-204830000D03*
X71440000Y-204830000D03*
X67660000Y-204830000D03*
X63940000Y-225130000D03*
X71440000Y-225130000D03*
X63940000Y-220090000D03*
X71440000Y-220090000D03*
X63940000Y-230170000D03*
X71440000Y-230170000D03*
D10*
X155105000Y-150370000D03*
X155105000Y-152910000D03*
X155105000Y-155450000D03*
X155105000Y-157990000D03*
X155105000Y-160530000D03*
X155105000Y-163070000D03*
X155105000Y-165610000D03*
D11*
X155105000Y-168150000D03*
X139865000Y-168150000D03*
D10*
X139865000Y-165610000D03*
X139865000Y-163070000D03*
X139865000Y-160530000D03*
X139865000Y-157990000D03*
X139865000Y-155450000D03*
X139865000Y-152910000D03*
X139865000Y-150370000D03*
M02*
