G04 #@! TF.GenerationSoftware,KiCad,Pcbnew,9.0.2-9.0.2-0~ubuntu24.04.1*
G04 #@! TF.CreationDate,2025-06-12T12:11:57+02:00*
G04 #@! TF.ProjectId,PCB_Affichage,5043425f-4166-4666-9963-686167652e6b,rev?*
G04 #@! TF.SameCoordinates,Original*
G04 #@! TF.FileFunction,Legend,Top*
G04 #@! TF.FilePolarity,Positive*
%FSLAX46Y46*%
G04 Gerber Fmt 4.6, Leading zero omitted, Abs format (unit mm)*
G04 Created by KiCad (PCBNEW 9.0.2-9.0.2-0~ubuntu24.04.1) date 2025-06-12 12:11:57*
%MOMM*%
%LPD*%
G01*
G04 APERTURE LIST*
G04 Aperture macros list*
%AMRoundRect*
0 Rectangle with rounded corners*
0 $1 Rounding radius*
0 $2 $3 $4 $5 $6 $7 $8 $9 X,Y pos of 4 corners*
0 Add a 4 corners polygon primitive as box body*
4,1,4,$2,$3,$4,$5,$6,$7,$8,$9,$2,$3,0*
0 Add four circle primitives for the rounded corners*
1,1,$1+$1,$2,$3*
1,1,$1+$1,$4,$5*
1,1,$1+$1,$6,$7*
1,1,$1+$1,$8,$9*
0 Add four rect primitives between the rounded corners*
20,1,$1+$1,$2,$3,$4,$5,0*
20,1,$1+$1,$4,$5,$6,$7,0*
20,1,$1+$1,$6,$7,$8,$9,0*
20,1,$1+$1,$8,$9,$2,$3,0*%
G04 Aperture macros list end*
%ADD10C,0.150000*%
%ADD11C,0.120000*%
%ADD12C,0.000000*%
%ADD13R,1.700000X1.700000*%
%ADD14C,1.700000*%
%ADD15RoundRect,0.237500X-0.237500X0.287500X-0.237500X-0.287500X0.237500X-0.287500X0.237500X0.287500X0*%
%ADD16RoundRect,0.237500X0.237500X-0.250000X0.237500X0.250000X-0.237500X0.250000X-0.237500X-0.250000X0*%
%ADD17C,3.000000*%
%ADD18RoundRect,0.760000X1.140000X-1.140000X1.140000X1.140000X-1.140000X1.140000X-1.140000X-1.140000X0*%
%ADD19C,4.000000*%
G04 APERTURE END LIST*
D10*
X100666666Y-55834819D02*
X100666666Y-56549104D01*
X100666666Y-56549104D02*
X100619047Y-56691961D01*
X100619047Y-56691961D02*
X100523809Y-56787200D01*
X100523809Y-56787200D02*
X100380952Y-56834819D01*
X100380952Y-56834819D02*
X100285714Y-56834819D01*
X101571428Y-56168152D02*
X101571428Y-56834819D01*
X101333333Y-55787200D02*
X101095238Y-56501485D01*
X101095238Y-56501485D02*
X101714285Y-56501485D01*
X107254819Y-58308094D02*
X106254819Y-58308094D01*
X106254819Y-58308094D02*
X106254819Y-58069999D01*
X106254819Y-58069999D02*
X106302438Y-57927142D01*
X106302438Y-57927142D02*
X106397676Y-57831904D01*
X106397676Y-57831904D02*
X106492914Y-57784285D01*
X106492914Y-57784285D02*
X106683390Y-57736666D01*
X106683390Y-57736666D02*
X106826247Y-57736666D01*
X106826247Y-57736666D02*
X107016723Y-57784285D01*
X107016723Y-57784285D02*
X107111961Y-57831904D01*
X107111961Y-57831904D02*
X107207200Y-57927142D01*
X107207200Y-57927142D02*
X107254819Y-58069999D01*
X107254819Y-58069999D02*
X107254819Y-58308094D01*
X107254819Y-56784285D02*
X107254819Y-57355713D01*
X107254819Y-57069999D02*
X106254819Y-57069999D01*
X106254819Y-57069999D02*
X106397676Y-57165237D01*
X106397676Y-57165237D02*
X106492914Y-57260475D01*
X106492914Y-57260475D02*
X106540533Y-57355713D01*
X95586666Y-55834819D02*
X95586666Y-56549104D01*
X95586666Y-56549104D02*
X95539047Y-56691961D01*
X95539047Y-56691961D02*
X95443809Y-56787200D01*
X95443809Y-56787200D02*
X95300952Y-56834819D01*
X95300952Y-56834819D02*
X95205714Y-56834819D01*
X96491428Y-55834819D02*
X96300952Y-55834819D01*
X96300952Y-55834819D02*
X96205714Y-55882438D01*
X96205714Y-55882438D02*
X96158095Y-55930057D01*
X96158095Y-55930057D02*
X96062857Y-56072914D01*
X96062857Y-56072914D02*
X96015238Y-56263390D01*
X96015238Y-56263390D02*
X96015238Y-56644342D01*
X96015238Y-56644342D02*
X96062857Y-56739580D01*
X96062857Y-56739580D02*
X96110476Y-56787200D01*
X96110476Y-56787200D02*
X96205714Y-56834819D01*
X96205714Y-56834819D02*
X96396190Y-56834819D01*
X96396190Y-56834819D02*
X96491428Y-56787200D01*
X96491428Y-56787200D02*
X96539047Y-56739580D01*
X96539047Y-56739580D02*
X96586666Y-56644342D01*
X96586666Y-56644342D02*
X96586666Y-56406247D01*
X96586666Y-56406247D02*
X96539047Y-56311009D01*
X96539047Y-56311009D02*
X96491428Y-56263390D01*
X96491428Y-56263390D02*
X96396190Y-56215771D01*
X96396190Y-56215771D02*
X96205714Y-56215771D01*
X96205714Y-56215771D02*
X96110476Y-56263390D01*
X96110476Y-56263390D02*
X96062857Y-56311009D01*
X96062857Y-56311009D02*
X96015238Y-56406247D01*
X98126666Y-55834819D02*
X98126666Y-56549104D01*
X98126666Y-56549104D02*
X98079047Y-56691961D01*
X98079047Y-56691961D02*
X97983809Y-56787200D01*
X97983809Y-56787200D02*
X97840952Y-56834819D01*
X97840952Y-56834819D02*
X97745714Y-56834819D01*
X98507619Y-55834819D02*
X99126666Y-55834819D01*
X99126666Y-55834819D02*
X98793333Y-56215771D01*
X98793333Y-56215771D02*
X98936190Y-56215771D01*
X98936190Y-56215771D02*
X99031428Y-56263390D01*
X99031428Y-56263390D02*
X99079047Y-56311009D01*
X99079047Y-56311009D02*
X99126666Y-56406247D01*
X99126666Y-56406247D02*
X99126666Y-56644342D01*
X99126666Y-56644342D02*
X99079047Y-56739580D01*
X99079047Y-56739580D02*
X99031428Y-56787200D01*
X99031428Y-56787200D02*
X98936190Y-56834819D01*
X98936190Y-56834819D02*
X98650476Y-56834819D01*
X98650476Y-56834819D02*
X98555238Y-56787200D01*
X98555238Y-56787200D02*
X98507619Y-56739580D01*
X107194819Y-62116666D02*
X106718628Y-62449999D01*
X107194819Y-62688094D02*
X106194819Y-62688094D01*
X106194819Y-62688094D02*
X106194819Y-62307142D01*
X106194819Y-62307142D02*
X106242438Y-62211904D01*
X106242438Y-62211904D02*
X106290057Y-62164285D01*
X106290057Y-62164285D02*
X106385295Y-62116666D01*
X106385295Y-62116666D02*
X106528152Y-62116666D01*
X106528152Y-62116666D02*
X106623390Y-62164285D01*
X106623390Y-62164285D02*
X106671009Y-62211904D01*
X106671009Y-62211904D02*
X106718628Y-62307142D01*
X106718628Y-62307142D02*
X106718628Y-62688094D01*
X107194819Y-61164285D02*
X107194819Y-61735713D01*
X107194819Y-61449999D02*
X106194819Y-61449999D01*
X106194819Y-61449999D02*
X106337676Y-61545237D01*
X106337676Y-61545237D02*
X106432914Y-61640475D01*
X106432914Y-61640475D02*
X106480533Y-61735713D01*
D11*
X102380000Y-55380000D02*
X101000000Y-55380000D01*
X102380000Y-54000000D02*
X102380000Y-55380000D01*
X102380000Y-52730000D02*
X102380000Y-47540000D01*
X102380000Y-52730000D02*
X99620000Y-52730000D01*
X102380000Y-47540000D02*
X99620000Y-47540000D01*
X99620000Y-52730000D02*
X99620000Y-47540000D01*
D12*
G36*
X107428384Y-49801345D02*
G01*
X107412744Y-49816986D01*
X107397103Y-49801345D01*
X107412744Y-49785705D01*
X107428384Y-49801345D01*
G37*
G36*
X120316589Y-50932494D02*
G01*
X120328159Y-51040578D01*
X120336956Y-51207279D01*
X120340366Y-51334024D01*
X120342068Y-51539762D01*
X120338122Y-51683574D01*
X120328507Y-51765845D01*
X120315923Y-51787675D01*
X120276009Y-51762958D01*
X120267215Y-51746996D01*
X120262028Y-51701838D01*
X120258933Y-51607226D01*
X120258127Y-51476240D01*
X120259807Y-51321959D01*
X120260376Y-51293329D01*
X120267280Y-51098899D01*
X120277590Y-50966228D01*
X120290068Y-50894690D01*
X120303480Y-50883655D01*
X120316589Y-50932494D01*
G37*
G36*
X110307110Y-50850931D02*
G01*
X110396756Y-50857073D01*
X110444879Y-50869333D01*
X110461967Y-50889368D01*
X110462621Y-50896173D01*
X110441959Y-50928799D01*
X110373469Y-50942242D01*
X110337498Y-50943094D01*
X110212374Y-50943094D01*
X110212374Y-51365385D01*
X110211385Y-51538408D01*
X110207740Y-51657996D01*
X110200431Y-51733256D01*
X110188443Y-51773292D01*
X110170766Y-51787210D01*
X110165453Y-51787675D01*
X110146228Y-51778767D01*
X110132941Y-51745970D01*
X110124579Y-51680181D01*
X110120130Y-51572293D01*
X110118584Y-51413200D01*
X110118532Y-51365385D01*
X110118532Y-50943094D01*
X109993409Y-50943094D01*
X109906407Y-50935346D01*
X109870557Y-50909662D01*
X109868286Y-50896173D01*
X109878921Y-50873806D01*
X109917819Y-50859651D01*
X109995467Y-50852053D01*
X110122354Y-50849355D01*
X110165453Y-50849252D01*
X110307110Y-50850931D01*
G37*
G36*
X117075069Y-50868299D02*
G01*
X117234085Y-50923188D01*
X117359733Y-51013428D01*
X117407846Y-51073909D01*
X117454710Y-51195613D01*
X117466774Y-51338701D01*
X117445505Y-51479760D01*
X117392374Y-51595374D01*
X117373710Y-51618175D01*
X117267754Y-51709984D01*
X117148956Y-51763473D01*
X116998186Y-51785835D01*
X116922821Y-51787675D01*
X116717106Y-51787675D01*
X116718867Y-51693833D01*
X116812621Y-51693833D01*
X116987793Y-51693833D01*
X117095151Y-51689550D01*
X117167059Y-51669927D01*
X117230416Y-51624803D01*
X117269320Y-51587478D01*
X117337765Y-51508459D01*
X117368690Y-51433479D01*
X117375675Y-51336131D01*
X117350452Y-51178657D01*
X117276590Y-51059358D01*
X117156795Y-50980670D01*
X116993775Y-50945030D01*
X116938749Y-50943094D01*
X116812621Y-50943094D01*
X116812621Y-51318463D01*
X116812621Y-51693833D01*
X116718867Y-51693833D01*
X116725762Y-51326284D01*
X116725909Y-51318463D01*
X116734419Y-50864892D01*
X116898284Y-50855450D01*
X117075069Y-50868299D01*
G37*
G36*
X113317236Y-50940127D02*
G01*
X113331017Y-51060433D01*
X113340453Y-51213678D01*
X113353108Y-51400685D01*
X113374332Y-51533641D01*
X113408184Y-51620891D01*
X113458723Y-51670783D01*
X113530008Y-51691663D01*
X113573929Y-51693833D01*
X113659258Y-51688046D01*
X113719815Y-51664508D01*
X113760440Y-51613955D01*
X113785973Y-51527122D01*
X113801254Y-51394743D01*
X113809665Y-51242599D01*
X113820485Y-51067935D01*
X113834482Y-50949025D01*
X113850117Y-50887013D01*
X113865854Y-50883041D01*
X113880155Y-50938252D01*
X113891481Y-51053788D01*
X113897012Y-51177700D01*
X113900183Y-51353384D01*
X113895991Y-51479456D01*
X113881836Y-51568684D01*
X113855120Y-51633834D01*
X113813242Y-51687675D01*
X113788192Y-51712139D01*
X113675926Y-51777649D01*
X113550160Y-51787023D01*
X113424005Y-51740747D01*
X113364407Y-51696471D01*
X113262251Y-51605266D01*
X113262251Y-51243135D01*
X113265607Y-51064107D01*
X113274519Y-50943639D01*
X113287251Y-50882384D01*
X113302069Y-50880995D01*
X113317236Y-50940127D01*
G37*
G36*
X123762395Y-50893595D02*
G01*
X123898238Y-50973874D01*
X123998671Y-51096981D01*
X124054282Y-51254171D01*
X124059462Y-51291429D01*
X124047861Y-51447187D01*
X123986594Y-51581682D01*
X123886830Y-51688246D01*
X123759738Y-51760212D01*
X123616487Y-51790913D01*
X123468246Y-51773682D01*
X123347111Y-51716670D01*
X123230701Y-51606639D01*
X123158628Y-51470003D01*
X123134373Y-51321541D01*
X123145780Y-51260163D01*
X123234211Y-51260163D01*
X123234707Y-51393772D01*
X123288058Y-51530690D01*
X123383687Y-51631594D01*
X123512240Y-51686385D01*
X123660787Y-51691507D01*
X123770545Y-51663332D01*
X123854735Y-51603430D01*
X123925885Y-51504825D01*
X123969144Y-51391350D01*
X123975687Y-51334104D01*
X123947713Y-51207318D01*
X123873964Y-51089172D01*
X123769701Y-51002044D01*
X123738982Y-50987025D01*
X123597626Y-50956166D01*
X123468301Y-50977900D01*
X123359178Y-51042377D01*
X123278425Y-51139748D01*
X123234211Y-51260163D01*
X123145780Y-51260163D01*
X123161415Y-51176030D01*
X123201722Y-51099180D01*
X123313330Y-50967787D01*
X123436093Y-50892076D01*
X123581719Y-50865168D01*
X123600552Y-50864892D01*
X123762395Y-50893595D01*
G37*
G36*
X122927503Y-50161334D02*
G01*
X123512029Y-50162109D01*
X124038046Y-50163397D01*
X124505110Y-50165193D01*
X124912776Y-50167495D01*
X125260600Y-50170298D01*
X125548138Y-50173599D01*
X125774945Y-50177394D01*
X125940577Y-50181679D01*
X126044591Y-50186451D01*
X126086541Y-50191707D01*
X126087374Y-50192355D01*
X126059588Y-50197728D01*
X125969347Y-50202598D01*
X125816756Y-50206964D01*
X125601919Y-50210825D01*
X125324941Y-50214179D01*
X124985927Y-50217027D01*
X124584982Y-50219367D01*
X124122209Y-50221199D01*
X123597714Y-50222521D01*
X123011601Y-50223333D01*
X122363975Y-50223634D01*
X122304245Y-50223636D01*
X121655530Y-50223379D01*
X121066610Y-50222610D01*
X120537759Y-50221330D01*
X120069249Y-50219543D01*
X119661354Y-50217250D01*
X119314348Y-50214453D01*
X119028502Y-50211156D01*
X118804092Y-50207359D01*
X118641390Y-50203066D01*
X118540669Y-50198278D01*
X118502203Y-50192999D01*
X118501783Y-50192355D01*
X118533017Y-50187006D01*
X118626535Y-50182151D01*
X118782063Y-50177793D01*
X118999323Y-50173933D01*
X119278042Y-50170575D01*
X119617944Y-50167720D01*
X120018753Y-50165371D01*
X120480195Y-50163530D01*
X121001993Y-50162199D01*
X121583873Y-50161380D01*
X122225559Y-50161076D01*
X122284913Y-50161074D01*
X122927503Y-50161334D01*
G37*
G36*
X106932013Y-50863344D02*
G01*
X107016828Y-50897764D01*
X107093379Y-50941620D01*
X107140689Y-50983900D01*
X107146857Y-50999982D01*
X107127774Y-51045019D01*
X107080801Y-51041312D01*
X107053501Y-51021736D01*
X106951655Y-50964652D01*
X106840181Y-50956784D01*
X106740952Y-50999566D01*
X106739038Y-51001116D01*
X106689135Y-51061477D01*
X106695606Y-51117572D01*
X106760435Y-51172435D01*
X106885608Y-51229102D01*
X106888895Y-51230333D01*
X107037491Y-51305078D01*
X107132861Y-51395522D01*
X107172679Y-51496186D01*
X107154619Y-51601592D01*
X107086702Y-51696239D01*
X106973247Y-51768359D01*
X106838807Y-51787630D01*
X106698124Y-51752555D01*
X106669825Y-51738503D01*
X106606884Y-51685524D01*
X106583803Y-51630272D01*
X106590405Y-51581338D01*
X106617446Y-51575307D01*
X106675782Y-51612271D01*
X106700390Y-51631271D01*
X106786167Y-51676650D01*
X106869549Y-51693833D01*
X106953902Y-51672898D01*
X107030893Y-51621489D01*
X107078415Y-51556702D01*
X107084296Y-51527767D01*
X107054839Y-51449933D01*
X106965486Y-51375585D01*
X106849690Y-51317646D01*
X106710854Y-51250120D01*
X106626143Y-51185647D01*
X106587902Y-51117435D01*
X106583803Y-51081790D01*
X106610495Y-51008652D01*
X106677361Y-50934449D01*
X106764580Y-50875864D01*
X106852335Y-50849580D01*
X106859910Y-50849369D01*
X106932013Y-50863344D01*
G37*
G36*
X127256911Y-50866439D02*
G01*
X127342751Y-50909436D01*
X127402070Y-50965393D01*
X127416808Y-51006459D01*
X127410223Y-51055519D01*
X127383226Y-51061641D01*
X127324955Y-51024752D01*
X127300220Y-51005656D01*
X127219995Y-50955094D01*
X127146848Y-50948416D01*
X127057119Y-50980048D01*
X126990415Y-51028746D01*
X126985706Y-51085801D01*
X127042984Y-51151201D01*
X127162243Y-51224936D01*
X127201714Y-51244657D01*
X127344778Y-51327257D01*
X127429423Y-51411430D01*
X127459641Y-51503075D01*
X127442405Y-51600153D01*
X127375578Y-51701587D01*
X127272604Y-51766092D01*
X127150299Y-51790037D01*
X127025479Y-51769791D01*
X126925880Y-51711649D01*
X126870278Y-51653854D01*
X126863427Y-51613937D01*
X126874086Y-51599039D01*
X126912339Y-51583432D01*
X126963118Y-51615929D01*
X126975749Y-51628143D01*
X127060528Y-51677596D01*
X127164974Y-51693130D01*
X127262130Y-51673389D01*
X127305091Y-51644677D01*
X127342150Y-51577260D01*
X127354246Y-51507478D01*
X127349740Y-51461948D01*
X127329505Y-51424982D01*
X127283473Y-51389304D01*
X127201572Y-51347636D01*
X127073730Y-51292701D01*
X127034732Y-51276584D01*
X126935526Y-51209423D01*
X126889455Y-51116044D01*
X126897810Y-51014681D01*
X126943216Y-50952207D01*
X127024825Y-50894087D01*
X127117314Y-50855995D01*
X127165121Y-50849252D01*
X127256911Y-50866439D01*
G37*
G36*
X113154318Y-50165298D02*
G01*
X113607848Y-50165757D01*
X114050586Y-50166473D01*
X114478301Y-50167444D01*
X114886763Y-50168671D01*
X115271742Y-50170154D01*
X115629007Y-50171894D01*
X115954329Y-50173891D01*
X116243477Y-50176144D01*
X116492221Y-50178654D01*
X116696330Y-50181422D01*
X116851574Y-50184447D01*
X116953723Y-50187730D01*
X116998547Y-50191270D01*
X117000305Y-50192150D01*
X116969154Y-50197084D01*
X116875686Y-50201532D01*
X116719879Y-50205494D01*
X116501712Y-50208971D01*
X116221163Y-50211962D01*
X115878210Y-50214468D01*
X115472831Y-50216488D01*
X115005005Y-50218023D01*
X114474710Y-50219074D01*
X113881924Y-50219639D01*
X113226626Y-50219720D01*
X112508794Y-50219316D01*
X112378569Y-50219197D01*
X111848535Y-50218541D01*
X111337326Y-50217618D01*
X110848264Y-50216450D01*
X110384671Y-50215056D01*
X109949870Y-50213455D01*
X109547182Y-50211667D01*
X109179929Y-50209711D01*
X108851433Y-50207608D01*
X108565017Y-50205377D01*
X108324002Y-50203038D01*
X108131711Y-50200610D01*
X107991465Y-50198113D01*
X107906586Y-50195567D01*
X107880398Y-50192992D01*
X107881956Y-50192564D01*
X107932850Y-50188958D01*
X108040635Y-50185605D01*
X108201083Y-50182505D01*
X108409961Y-50179658D01*
X108663040Y-50177065D01*
X108956090Y-50174724D01*
X109284880Y-50172637D01*
X109645181Y-50170804D01*
X110032761Y-50169225D01*
X110443391Y-50167900D01*
X110872840Y-50166829D01*
X111316878Y-50166013D01*
X111771276Y-50165452D01*
X112231802Y-50165145D01*
X112694226Y-50165094D01*
X113154318Y-50165298D01*
G37*
G36*
X108137499Y-46967594D02*
G01*
X108307829Y-47034400D01*
X108446063Y-47143366D01*
X108546715Y-47288355D01*
X108604302Y-47463230D01*
X108613340Y-47661853D01*
X108568345Y-47878086D01*
X108554792Y-47916518D01*
X108484510Y-48052630D01*
X108383049Y-48185676D01*
X108266714Y-48297672D01*
X108151812Y-48370631D01*
X108137986Y-48376252D01*
X108010486Y-48405389D01*
X107873787Y-48406827D01*
X107744803Y-48383831D01*
X107640449Y-48339666D01*
X107577639Y-48277596D01*
X107572938Y-48267185D01*
X107555470Y-48167564D01*
X107560459Y-48046062D01*
X107585465Y-47938005D01*
X107597514Y-47911639D01*
X107639304Y-47836218D01*
X107693846Y-47919459D01*
X107762264Y-47984136D01*
X107840329Y-47995478D01*
X107921455Y-47960569D01*
X107999055Y-47886492D01*
X108066540Y-47780330D01*
X108117324Y-47649168D01*
X108144819Y-47500088D01*
X108147842Y-47431266D01*
X108138681Y-47305492D01*
X108106655Y-47230150D01*
X108044951Y-47195207D01*
X107983629Y-47189399D01*
X107846200Y-47219139D01*
X107710812Y-47302288D01*
X107581900Y-47429738D01*
X107463896Y-47592383D01*
X107361234Y-47781115D01*
X107278348Y-47986826D01*
X107219672Y-48200411D01*
X107189640Y-48412761D01*
X107192684Y-48614770D01*
X107220298Y-48757332D01*
X107303383Y-48957949D01*
X107423044Y-49128398D01*
X107568617Y-49253582D01*
X107572475Y-49255988D01*
X107658386Y-49299417D01*
X107751878Y-49321455D01*
X107878200Y-49327592D01*
X107901251Y-49327483D01*
X108079333Y-49309002D01*
X108236073Y-49252157D01*
X108386969Y-49149520D01*
X108506100Y-49037534D01*
X108577579Y-48967912D01*
X108632972Y-48921533D01*
X108654683Y-48909843D01*
X108668851Y-48938001D01*
X108677883Y-49010058D01*
X108679616Y-49067740D01*
X108671302Y-49166317D01*
X108640499Y-49247134D01*
X108578419Y-49320493D01*
X108476272Y-49396695D01*
X108325267Y-49486041D01*
X108320354Y-49488774D01*
X108058134Y-49605759D01*
X107789394Y-49672026D01*
X107525501Y-49685946D01*
X107277823Y-49645892D01*
X107260218Y-49640667D01*
X107025377Y-49539902D01*
X106835274Y-49395464D01*
X106689591Y-49207080D01*
X106640831Y-49113168D01*
X106605700Y-49024786D01*
X106584034Y-48934392D01*
X106572909Y-48822790D01*
X106569400Y-48670783D01*
X106569350Y-48643956D01*
X106593607Y-48328322D01*
X106668753Y-48039454D01*
X106798251Y-47768823D01*
X106985562Y-47507897D01*
X107068512Y-47413942D01*
X107271289Y-47221984D01*
X107477405Y-47083991D01*
X107699013Y-46991991D01*
X107722482Y-46985017D01*
X107940555Y-46949088D01*
X108137499Y-46967594D01*
G37*
G36*
X115994145Y-47455324D02*
G01*
X115993086Y-47490369D01*
X115976377Y-47567484D01*
X115948631Y-47669550D01*
X115914461Y-47779447D01*
X115882467Y-47869757D01*
X115894169Y-47896319D01*
X115959512Y-47907959D01*
X115999320Y-47908858D01*
X116083074Y-47913825D01*
X116115687Y-47931544D01*
X116113984Y-47953557D01*
X116096722Y-48013726D01*
X116077734Y-48100177D01*
X116076172Y-48108377D01*
X116059282Y-48175780D01*
X116029107Y-48209552D01*
X115966396Y-48223550D01*
X115910114Y-48227902D01*
X115764714Y-48237306D01*
X115696192Y-48424991D01*
X115645306Y-48587065D01*
X115628621Y-48705895D01*
X115645670Y-48790315D01*
X115674742Y-48831042D01*
X115752014Y-48864910D01*
X115865178Y-48849818D01*
X116011735Y-48786203D01*
X116048990Y-48765288D01*
X116140814Y-48714141D01*
X116191593Y-48696263D01*
X116213389Y-48711851D01*
X116218264Y-48761105D01*
X116218286Y-48768066D01*
X116200822Y-48827927D01*
X116142841Y-48896090D01*
X116052654Y-48970308D01*
X115882811Y-49085196D01*
X115731599Y-49155327D01*
X115582132Y-49187449D01*
X115499373Y-49191370D01*
X115392369Y-49184552D01*
X115314557Y-49155686D01*
X115233281Y-49092156D01*
X115226422Y-49085905D01*
X115111340Y-48980439D01*
X114958688Y-49074367D01*
X114785493Y-49156148D01*
X114616560Y-49190050D01*
X114462451Y-49176046D01*
X114333729Y-49114109D01*
X114291851Y-49076054D01*
X114233045Y-48978209D01*
X114219320Y-48855768D01*
X114250901Y-48702293D01*
X114310158Y-48550114D01*
X114356030Y-48444001D01*
X114389462Y-48359285D01*
X114403861Y-48312779D01*
X114404000Y-48310823D01*
X114383183Y-48300738D01*
X114328227Y-48326144D01*
X114250378Y-48379469D01*
X114160881Y-48453143D01*
X114083689Y-48526478D01*
X114015486Y-48599187D01*
X113975050Y-48658661D01*
X113953928Y-48726451D01*
X113943666Y-48824108D01*
X113939848Y-48893200D01*
X113934451Y-49002516D01*
X113923915Y-49073796D01*
X113896775Y-49117105D01*
X113841563Y-49142512D01*
X113746814Y-49160082D01*
X113615594Y-49177882D01*
X113526286Y-49187784D01*
X113480152Y-49180251D01*
X113458559Y-49147554D01*
X113448757Y-49108685D01*
X113427877Y-49021108D01*
X113404528Y-48975715D01*
X113365122Y-48969307D01*
X113296072Y-48998684D01*
X113201849Y-49050560D01*
X112985448Y-49143773D01*
X112765779Y-49187417D01*
X112553468Y-49181868D01*
X112359141Y-49127503D01*
X112193425Y-49024697D01*
X112181754Y-49014421D01*
X112106246Y-48950345D01*
X112053359Y-48923042D01*
X112001472Y-48925055D01*
X111959894Y-48937902D01*
X111828042Y-48966869D01*
X111695846Y-48968238D01*
X111590525Y-48941934D01*
X111584660Y-48938946D01*
X111533313Y-48924748D01*
X111475586Y-48945191D01*
X111414871Y-48987308D01*
X111243034Y-49093197D01*
X111062554Y-49160666D01*
X110884067Y-49189610D01*
X110718208Y-49179928D01*
X110575612Y-49131516D01*
X110466914Y-49044272D01*
X110434350Y-48996779D01*
X110388944Y-48935911D01*
X110341011Y-48925091D01*
X110321857Y-48930597D01*
X110259704Y-48942534D01*
X110157350Y-48951701D01*
X110039172Y-48956063D01*
X109905589Y-48962370D01*
X109812757Y-48980755D01*
X109739280Y-49016108D01*
X109720358Y-49028930D01*
X109527757Y-49135260D01*
X109330673Y-49186703D01*
X109138318Y-49182023D01*
X108976783Y-49128764D01*
X108847627Y-49032823D01*
X108746797Y-48897668D01*
X108690553Y-48745475D01*
X108688940Y-48736217D01*
X108693161Y-48605755D01*
X108703677Y-48570131D01*
X109253663Y-48570131D01*
X109257207Y-48695727D01*
X109288485Y-48802237D01*
X109347001Y-48877534D01*
X109432260Y-48909494D01*
X109443381Y-48909843D01*
X109518651Y-48887415D01*
X109569753Y-48848789D01*
X109602861Y-48805813D01*
X109605162Y-48766737D01*
X109575096Y-48707254D01*
X109558961Y-48680873D01*
X109514421Y-48571745D01*
X109493983Y-48442349D01*
X109498656Y-48316602D01*
X109529448Y-48218423D01*
X109538843Y-48204184D01*
X109581834Y-48133329D01*
X109581535Y-48098771D01*
X109545794Y-48100767D01*
X109482459Y-48139575D01*
X109414389Y-48200094D01*
X109331759Y-48310188D01*
X109278349Y-48437576D01*
X109253663Y-48570131D01*
X108703677Y-48570131D01*
X108737244Y-48456415D01*
X108812805Y-48309145D01*
X108908453Y-48187873D01*
X109066637Y-48069884D01*
X109278173Y-47977161D01*
X109528342Y-47913630D01*
X109725636Y-47898365D01*
X109883329Y-47929933D01*
X109998538Y-48004514D01*
X110068378Y-48118288D01*
X110089969Y-48267435D01*
X110060427Y-48448134D01*
X110019396Y-48564285D01*
X109981455Y-48674127D01*
X109982160Y-48741085D01*
X110025737Y-48774516D01*
X110116414Y-48783777D01*
X110118532Y-48783780D01*
X110235442Y-48765373D01*
X110317115Y-48704907D01*
X110371967Y-48594610D01*
X110388356Y-48534473D01*
X110423506Y-48405433D01*
X110470695Y-48259524D01*
X110501805Y-48174744D01*
X110575302Y-47987060D01*
X110848278Y-47943613D01*
X110972302Y-47926289D01*
X111071714Y-47916922D01*
X111131304Y-47916750D01*
X111140910Y-47919823D01*
X111138303Y-47955064D01*
X111116714Y-48036559D01*
X111079737Y-48152216D01*
X111030969Y-48289944D01*
X111030314Y-48291718D01*
X110978733Y-48439444D01*
X110936851Y-48575077D01*
X110909223Y-48682796D01*
X110900306Y-48743384D01*
X110918670Y-48834300D01*
X110964132Y-48907069D01*
X111022935Y-48940711D01*
X111029966Y-48941124D01*
X111096797Y-48921498D01*
X111184914Y-48871442D01*
X111266744Y-48807914D01*
X111312094Y-48758573D01*
X111315488Y-48713344D01*
X111290204Y-48656972D01*
X111250045Y-48520027D01*
X111251474Y-48364190D01*
X111289961Y-48209574D01*
X111360974Y-48076294D01*
X111438624Y-47998215D01*
X111543080Y-47948492D01*
X111659490Y-47929533D01*
X111765047Y-47942517D01*
X111827743Y-47978061D01*
X111872616Y-48065372D01*
X111877614Y-48190953D01*
X111843750Y-48345723D01*
X111772037Y-48520603D01*
X111765868Y-48532886D01*
X111655839Y-48749467D01*
X111739587Y-48767178D01*
X111833625Y-48771835D01*
X111915600Y-48759515D01*
X111978261Y-48731262D01*
X112017258Y-48677173D01*
X112043485Y-48595206D01*
X112099190Y-48431537D01*
X112559759Y-48431537D01*
X112594252Y-48465596D01*
X112671650Y-48456744D01*
X112749015Y-48423492D01*
X112828069Y-48359571D01*
X112880417Y-48274118D01*
X112893873Y-48189545D01*
X112888336Y-48167255D01*
X112847301Y-48130681D01*
X112780322Y-48134369D01*
X112704245Y-48172945D01*
X112635918Y-48241030D01*
X112629826Y-48249752D01*
X112570755Y-48358333D01*
X112559759Y-48431537D01*
X112099190Y-48431537D01*
X112105244Y-48413751D01*
X112194237Y-48267131D01*
X112297789Y-48154730D01*
X112460260Y-48025711D01*
X112627243Y-47948141D01*
X112741395Y-47921625D01*
X112912279Y-47912176D01*
X113063382Y-47936858D01*
X113187896Y-47989577D01*
X113279016Y-48064243D01*
X113329932Y-48154763D01*
X113333838Y-48255045D01*
X113283926Y-48358999D01*
X113260785Y-48386425D01*
X113152687Y-48474711D01*
X113001905Y-48559684D01*
X112827939Y-48631174D01*
X112739233Y-48658447D01*
X112652226Y-48685287D01*
X112614853Y-48709644D01*
X112615424Y-48741409D01*
X112622857Y-48756919D01*
X112690895Y-48828397D01*
X112797672Y-48882820D01*
X112919639Y-48908986D01*
X112944318Y-48909843D01*
X113032419Y-48895119D01*
X113143860Y-48857281D01*
X113216599Y-48823741D01*
X113297813Y-48779499D01*
X113350596Y-48739559D01*
X113386270Y-48687628D01*
X113416154Y-48607411D01*
X113450233Y-48487473D01*
X113505122Y-48303407D01*
X113558366Y-48153628D01*
X113606479Y-48046858D01*
X113645975Y-47991821D01*
X113649258Y-47989533D01*
X113694225Y-47975527D01*
X113779204Y-47958593D01*
X113886043Y-47941301D01*
X113996589Y-47926217D01*
X114092688Y-47915911D01*
X114156189Y-47912951D01*
X114171033Y-47915710D01*
X114169605Y-47951071D01*
X114147735Y-48020741D01*
X114138524Y-48043814D01*
X114101400Y-48143666D01*
X114096686Y-48191895D01*
X114125726Y-48191178D01*
X114189211Y-48144749D01*
X114373302Y-48019136D01*
X114561612Y-47945364D01*
X114696016Y-47927093D01*
X114796858Y-47931471D01*
X114862806Y-47955707D01*
X114920762Y-48009904D01*
X114922801Y-48012264D01*
X114977285Y-48099173D01*
X114994386Y-48198361D01*
X114973957Y-48322430D01*
X114917363Y-48480354D01*
X114850896Y-48645326D01*
X114811768Y-48759846D01*
X114800747Y-48830100D01*
X114818601Y-48862273D01*
X114866097Y-48862551D01*
X114944001Y-48837119D01*
X114960793Y-48830496D01*
X115033602Y-48797049D01*
X115072727Y-48758164D01*
X115092159Y-48692819D01*
X115101678Y-48618779D01*
X115116645Y-48501499D01*
X115133871Y-48392180D01*
X115141068Y-48354609D01*
X115150016Y-48283812D01*
X115132601Y-48255830D01*
X115111728Y-48252946D01*
X115074911Y-48243821D01*
X115063460Y-48208354D01*
X115076412Y-48134411D01*
X115096635Y-48062718D01*
X115132010Y-47978670D01*
X115180507Y-47940585D01*
X115211038Y-47933966D01*
X115260562Y-47917370D01*
X115300401Y-47872292D01*
X115341211Y-47784880D01*
X115356546Y-47744816D01*
X115396735Y-47645113D01*
X115432958Y-47569355D01*
X115453288Y-47538713D01*
X115496269Y-47521987D01*
X115580675Y-47502414D01*
X115688516Y-47482769D01*
X115801803Y-47465826D01*
X115902545Y-47454357D01*
X115972752Y-47451137D01*
X115994145Y-47455324D01*
G37*
G36*
X118326931Y-46976282D02*
G01*
X118526520Y-47041617D01*
X118687862Y-47145927D01*
X118810191Y-47285290D01*
X118881681Y-47446844D01*
X118905749Y-47621628D01*
X118885809Y-47800683D01*
X118825277Y-47975046D01*
X118727569Y-48135757D01*
X118596100Y-48273855D01*
X118434286Y-48380379D01*
X118245541Y-48446367D01*
X118188399Y-48456351D01*
X118019548Y-48454321D01*
X117876217Y-48401719D01*
X117767869Y-48302404D01*
X117751846Y-48278289D01*
X117695295Y-48151324D01*
X117695954Y-48047843D01*
X117754102Y-47965399D01*
X117790145Y-47939796D01*
X117869938Y-47894050D01*
X117915332Y-47884825D01*
X117944921Y-47915390D01*
X117970010Y-47971419D01*
X118020602Y-48041925D01*
X118086375Y-48061434D01*
X118160800Y-48037623D01*
X118237350Y-47978171D01*
X118309497Y-47890754D01*
X118370714Y-47783051D01*
X118414471Y-47662739D01*
X118434242Y-47537495D01*
X118427416Y-47433446D01*
X118376768Y-47312167D01*
X118284440Y-47227904D01*
X118161954Y-47184754D01*
X118020829Y-47186813D01*
X117874907Y-47236973D01*
X117707477Y-47354795D01*
X117551872Y-47523297D01*
X117414035Y-47730874D01*
X117299910Y-47965921D01*
X117215442Y-48216833D01*
X117166574Y-48472007D01*
X117156709Y-48639129D01*
X117176155Y-48847089D01*
X117234519Y-49006084D01*
X117331840Y-49116165D01*
X117468159Y-49177380D01*
X117596199Y-49191253D01*
X117754518Y-49163412D01*
X117906329Y-49078177D01*
X118055029Y-48933382D01*
X118110773Y-48863166D01*
X118180051Y-48773769D01*
X118234392Y-48722029D01*
X118295986Y-48695249D01*
X118387026Y-48680732D01*
X118439222Y-48675254D01*
X118553554Y-48662188D01*
X118648272Y-48648820D01*
X118697288Y-48639334D01*
X118733997Y-48631029D01*
X118747840Y-48641654D01*
X118739541Y-48684125D01*
X118709822Y-48771359D01*
X118705386Y-48783933D01*
X118657832Y-48924639D01*
X118619065Y-49050563D01*
X118592410Y-49149682D01*
X118581195Y-49209969D01*
X118583993Y-49222651D01*
X118612628Y-49202559D01*
X118674287Y-49149179D01*
X118757159Y-49072853D01*
X118782645Y-49048695D01*
X118873884Y-48959228D01*
X118928311Y-48894747D01*
X118955495Y-48838249D01*
X118965002Y-48772735D01*
X118966198Y-48722546D01*
X118973884Y-48672180D01*
X119505795Y-48672180D01*
X119517421Y-48747543D01*
X119535150Y-48786776D01*
X119592442Y-48838312D01*
X119676896Y-48837113D01*
X119782686Y-48783600D01*
X119805092Y-48767267D01*
X119930098Y-48635697D01*
X120007044Y-48474795D01*
X120028880Y-48299633D01*
X120028356Y-48290090D01*
X120018827Y-48199917D01*
X119998685Y-48154719D01*
X119957665Y-48136913D01*
X119937248Y-48133987D01*
X119843446Y-48152331D01*
X119743601Y-48221022D01*
X119648755Y-48330224D01*
X119576806Y-48454993D01*
X119524847Y-48580585D01*
X119505795Y-48672180D01*
X118973884Y-48672180D01*
X118993361Y-48544546D01*
X119074570Y-48378084D01*
X119213736Y-48215518D01*
X119236570Y-48194011D01*
X119420372Y-48051691D01*
X119607929Y-47964998D01*
X119813707Y-47927922D01*
X119882674Y-47925567D01*
X120014363Y-47930368D01*
X120099969Y-47948500D01*
X120151024Y-47979239D01*
X120238246Y-48028333D01*
X120331918Y-48018062D01*
X120389583Y-47987254D01*
X120460777Y-47954393D01*
X120551509Y-47929810D01*
X120642966Y-47916098D01*
X120716332Y-47915847D01*
X120752792Y-47931648D01*
X120754000Y-47937066D01*
X120743251Y-47980495D01*
X120714333Y-48067499D01*
X120672242Y-48183537D01*
X120642395Y-48261946D01*
X120569497Y-48467950D01*
X120524313Y-48636168D01*
X120507584Y-48762003D01*
X120520051Y-48840855D01*
X120545106Y-48865113D01*
X120632086Y-48868197D01*
X120744146Y-48827638D01*
X120868274Y-48749423D01*
X120953624Y-48677132D01*
X121028307Y-48604533D01*
X121080495Y-48549876D01*
X121098089Y-48526500D01*
X121078944Y-48496578D01*
X121031708Y-48440865D01*
X121019887Y-48427947D01*
X120958942Y-48323355D01*
X120950442Y-48210398D01*
X120987579Y-48100802D01*
X121063550Y-48006290D01*
X121171550Y-47938586D01*
X121304774Y-47909417D01*
X121321044Y-47909064D01*
X121428761Y-47928173D01*
X121492629Y-47989358D01*
X121517519Y-48097686D01*
X121518119Y-48114175D01*
X121529212Y-48189831D01*
X121561090Y-48216958D01*
X121617947Y-48194710D01*
X121703978Y-48122242D01*
X121760836Y-48065262D01*
X121850677Y-47978099D01*
X121919257Y-47930061D01*
X121983686Y-47910860D01*
X122020972Y-47908858D01*
X122093314Y-47915484D01*
X122129426Y-47931775D01*
X122130355Y-47935204D01*
X122118946Y-47973432D01*
X122088134Y-48055886D01*
X122043041Y-48169238D01*
X122004362Y-48263087D01*
X121923941Y-48471954D01*
X121878931Y-48630945D01*
X121869794Y-48742075D01*
X121896992Y-48807355D01*
X121960986Y-48828801D01*
X122062240Y-48808424D01*
X122123954Y-48784491D01*
X122226915Y-48732532D01*
X122277570Y-48685435D01*
X122279691Y-48677755D01*
X122849414Y-48677755D01*
X122866546Y-48770572D01*
X122913493Y-48828118D01*
X122986518Y-48842631D01*
X123081884Y-48806351D01*
X123100919Y-48793975D01*
X123216044Y-48686325D01*
X123309087Y-48546373D01*
X123367443Y-48396435D01*
X123380899Y-48298303D01*
X123362984Y-48196760D01*
X123313357Y-48140536D01*
X123240892Y-48127341D01*
X123154463Y-48154885D01*
X123062945Y-48220879D01*
X122975213Y-48323032D01*
X122919543Y-48417345D01*
X122865834Y-48557426D01*
X122849414Y-48677755D01*
X122279691Y-48677755D01*
X122286759Y-48652157D01*
X122309506Y-48556176D01*
X122370220Y-48438594D01*
X122457613Y-48316380D01*
X122560392Y-48206504D01*
X122612388Y-48162738D01*
X122756075Y-48058188D01*
X122872192Y-47989229D01*
X122978982Y-47948847D01*
X123094691Y-47930030D01*
X123228972Y-47925740D01*
X123467367Y-47926130D01*
X123555095Y-47565585D01*
X123589784Y-47424458D01*
X123619184Y-47307543D01*
X123640168Y-47227092D01*
X123649578Y-47195396D01*
X123682794Y-47184722D01*
X123760598Y-47169257D01*
X123865836Y-47151555D01*
X123981350Y-47134172D01*
X124089984Y-47119665D01*
X124174583Y-47110589D01*
X124217988Y-47109499D01*
X124220154Y-47110397D01*
X124218113Y-47144399D01*
X124201467Y-47224685D01*
X124173281Y-47337525D01*
X124152198Y-47414814D01*
X124099064Y-47611168D01*
X124043854Y-47827576D01*
X123990456Y-48047646D01*
X123942756Y-48254988D01*
X123904642Y-48433213D01*
X123881795Y-48554897D01*
X123866258Y-48703255D01*
X123880144Y-48797731D01*
X123926518Y-48841180D01*
X124008445Y-48836458D01*
X124128990Y-48786421D01*
X124129829Y-48785993D01*
X124208437Y-48737633D01*
X124249011Y-48680755D01*
X124270363Y-48588649D01*
X124270784Y-48585860D01*
X124312146Y-48447431D01*
X124778957Y-48447431D01*
X124806093Y-48472128D01*
X124876463Y-48459708D01*
X124923095Y-48443251D01*
X125035030Y-48375517D01*
X125093781Y-48279905D01*
X125102030Y-48219431D01*
X125091260Y-48151249D01*
X125052580Y-48128282D01*
X125042026Y-48127823D01*
X124942714Y-48143871D01*
X124870141Y-48198296D01*
X124814910Y-48300515D01*
X124787971Y-48382430D01*
X124778957Y-48447431D01*
X124312146Y-48447431D01*
X124322197Y-48413791D01*
X124416085Y-48260633D01*
X124543002Y-48130253D01*
X124693504Y-48026517D01*
X124858147Y-47953290D01*
X125027486Y-47914438D01*
X125192076Y-47913826D01*
X125342473Y-47955321D01*
X125469233Y-48042788D01*
X125503428Y-48081330D01*
X125558970Y-48174374D01*
X125561840Y-48257880D01*
X125511187Y-48349605D01*
X125489313Y-48376793D01*
X125415526Y-48451269D01*
X125324469Y-48513895D01*
X125202055Y-48572495D01*
X125034199Y-48634889D01*
X125009412Y-48643315D01*
X124805598Y-48712066D01*
X124904487Y-48810955D01*
X125017822Y-48888293D01*
X125151259Y-48911133D01*
X125308769Y-48879541D01*
X125445826Y-48819784D01*
X125542844Y-48765840D01*
X125597800Y-48719834D01*
X125625980Y-48664703D01*
X125639305Y-48603810D01*
X125685806Y-48410892D01*
X125758129Y-48203709D01*
X125807847Y-48089918D01*
X125835735Y-48036804D01*
X125867674Y-47999773D01*
X125915826Y-47974077D01*
X125992356Y-47954969D01*
X126109428Y-47937699D01*
X126236972Y-47922421D01*
X126417851Y-47901396D01*
X126354769Y-48061435D01*
X126291688Y-48221474D01*
X126478322Y-48094079D01*
X126669281Y-47983430D01*
X126839578Y-47925022D01*
X126985955Y-47919189D01*
X127105152Y-47966264D01*
X127165206Y-48023722D01*
X127209076Y-48098566D01*
X127224533Y-48184107D01*
X127210557Y-48292062D01*
X127166124Y-48434142D01*
X127118991Y-48553820D01*
X127072375Y-48673311D01*
X127039410Y-48771378D01*
X127024673Y-48833667D01*
X127025570Y-48846912D01*
X127066523Y-48858719D01*
X127145447Y-48843188D01*
X127246512Y-48804910D01*
X127343383Y-48754765D01*
X127434534Y-48706227D01*
X127485922Y-48695888D01*
X127507647Y-48724164D01*
X127510650Y-48761671D01*
X127484005Y-48827377D01*
X127413086Y-48907492D01*
X127311422Y-48992486D01*
X127192540Y-49072829D01*
X127069966Y-49138990D01*
X126957229Y-49181439D01*
X126900522Y-49191523D01*
X126761383Y-49195605D01*
X126664226Y-49181600D01*
X126589892Y-49144659D01*
X126538540Y-49099934D01*
X126471943Y-49004791D01*
X126447631Y-48889406D01*
X126465636Y-48745665D01*
X126525994Y-48565452D01*
X126540946Y-48529483D01*
X126585607Y-48422935D01*
X126618737Y-48340852D01*
X126634310Y-48298241D01*
X126634788Y-48295789D01*
X126613105Y-48293187D01*
X126556493Y-48322747D01*
X126477608Y-48376015D01*
X126389104Y-48444539D01*
X126314160Y-48509959D01*
X126165576Y-48648328D01*
X126165576Y-48887972D01*
X126164464Y-49008582D01*
X126153525Y-49086152D01*
X126121354Y-49130945D01*
X126056545Y-49153223D01*
X125947693Y-49163247D01*
X125854647Y-49167736D01*
X125684482Y-49175729D01*
X125656977Y-49062410D01*
X125629472Y-48949090D01*
X125408604Y-49062410D01*
X125297059Y-49117227D01*
X125208850Y-49150803D01*
X125120937Y-49168297D01*
X125010279Y-49174867D01*
X124902457Y-49175729D01*
X124728880Y-49169811D01*
X124600363Y-49147957D01*
X124500174Y-49104023D01*
X124411583Y-49031864D01*
X124360724Y-48976746D01*
X124291956Y-48897222D01*
X124126118Y-49009458D01*
X123998435Y-49093537D01*
X123904850Y-49147054D01*
X123829209Y-49176712D01*
X123755358Y-49189215D01*
X123687770Y-49191370D01*
X123545953Y-49170944D01*
X123445104Y-49106526D01*
X123382102Y-49004931D01*
X123351187Y-48940155D01*
X123328795Y-48910103D01*
X123327565Y-48909843D01*
X123296429Y-48928143D01*
X123236950Y-48973894D01*
X123214057Y-48992881D01*
X123032472Y-49111563D01*
X122835956Y-49178157D01*
X122711507Y-49190683D01*
X122622432Y-49187135D01*
X122557906Y-49168225D01*
X122495570Y-49123011D01*
X122420409Y-49048229D01*
X122283256Y-48905089D01*
X122175723Y-48987108D01*
X121995739Y-49100688D01*
X121818353Y-49168337D01*
X121653035Y-49188001D01*
X121509260Y-49157631D01*
X121473130Y-49139279D01*
X121372623Y-49053226D01*
X121326123Y-48943546D01*
X121333051Y-48806649D01*
X121392380Y-48639896D01*
X121432422Y-48549750D01*
X121445540Y-48503747D01*
X121433346Y-48490357D01*
X121412835Y-48493622D01*
X121363464Y-48522731D01*
X121289691Y-48584142D01*
X121220512Y-48651370D01*
X121104642Y-48761663D01*
X120967233Y-48876815D01*
X120821727Y-48987112D01*
X120681566Y-49082840D01*
X120560191Y-49154284D01*
X120473821Y-49191007D01*
X120355612Y-49200587D01*
X120236518Y-49174257D01*
X120132611Y-49120214D01*
X120059965Y-49046656D01*
X120034542Y-48966952D01*
X120028642Y-48923197D01*
X120004727Y-48916494D01*
X119953474Y-48949367D01*
X119884542Y-49007598D01*
X119720180Y-49122538D01*
X119548057Y-49180976D01*
X119424018Y-49191370D01*
X119258400Y-49168218D01*
X119124002Y-49102407D01*
X119051096Y-49028184D01*
X119002276Y-48958484D01*
X119002276Y-49031099D01*
X118976867Y-49158227D01*
X118898034Y-49276134D01*
X118761866Y-49390028D01*
X118705482Y-49426516D01*
X118596674Y-49497417D01*
X118529836Y-49554691D01*
X118491126Y-49612983D01*
X118469480Y-49676222D01*
X118371755Y-49964045D01*
X118246573Y-50196029D01*
X118094095Y-50372014D01*
X117914479Y-50491843D01*
X117707884Y-50555358D01*
X117573580Y-50566352D01*
X117459012Y-50559438D01*
X117376279Y-50530289D01*
X117315513Y-50486742D01*
X117247796Y-50414695D01*
X117221673Y-50333996D01*
X117219271Y-50282171D01*
X117225087Y-50245922D01*
X117438236Y-50245922D01*
X117447989Y-50299874D01*
X117489938Y-50314268D01*
X117524259Y-50311736D01*
X117578914Y-50294933D01*
X117626284Y-50250145D01*
X117678477Y-50164286D01*
X117700634Y-50121091D01*
X117744258Y-50025705D01*
X117769778Y-49953441D01*
X117771992Y-49921349D01*
X117729380Y-49917967D01*
X117664406Y-49953728D01*
X117589962Y-50016095D01*
X117518942Y-50092529D01*
X117464238Y-50170491D01*
X117438744Y-50237444D01*
X117438236Y-50245922D01*
X117225087Y-50245922D01*
X117245806Y-50116792D01*
X117327046Y-49963648D01*
X117465442Y-49819597D01*
X117663445Y-49681497D01*
X117707933Y-49655713D01*
X117832152Y-49569849D01*
X117898218Y-49484209D01*
X117903307Y-49471330D01*
X117922371Y-49404758D01*
X117911888Y-49383945D01*
X117864704Y-49406581D01*
X117812887Y-49442128D01*
X117603320Y-49560844D01*
X117397911Y-49618545D01*
X117201370Y-49616324D01*
X117018411Y-49555272D01*
X116853744Y-49436481D01*
X116712081Y-49261043D01*
X116663161Y-49175729D01*
X116603556Y-49011454D01*
X116569616Y-48809123D01*
X116562190Y-48588111D01*
X116582129Y-48367793D01*
X116620286Y-48198626D01*
X116722052Y-47942566D01*
X116861318Y-47708658D01*
X117031426Y-47500291D01*
X117225719Y-47320855D01*
X117437539Y-47173740D01*
X117660227Y-47062335D01*
X117887128Y-46990031D01*
X118111581Y-46960217D01*
X118326931Y-46976282D01*
G37*
D11*
X105735000Y-56340000D02*
X104265000Y-56340000D01*
X104265000Y-56340000D02*
X104265000Y-58800000D01*
X105735000Y-58800000D02*
X105735000Y-56340000D01*
X97300000Y-55380000D02*
X95920000Y-55380000D01*
X97300000Y-54000000D02*
X97300000Y-55380000D01*
X97300000Y-52730000D02*
X97300000Y-47540000D01*
X97300000Y-52730000D02*
X94540000Y-52730000D01*
X97300000Y-47540000D02*
X94540000Y-47540000D01*
X94540000Y-52730000D02*
X94540000Y-47540000D01*
X99840000Y-55380000D02*
X98460000Y-55380000D01*
X99840000Y-54000000D02*
X99840000Y-55380000D01*
X99840000Y-52730000D02*
X99840000Y-47540000D01*
X99840000Y-52730000D02*
X97080000Y-52730000D01*
X99840000Y-47540000D02*
X97080000Y-47540000D01*
X97080000Y-52730000D02*
X97080000Y-47540000D01*
D12*
G36*
X115250000Y-65420000D02*
G01*
X115230000Y-65440000D01*
X115210000Y-65420000D01*
X115230000Y-65400000D01*
X115250000Y-65420000D01*
G37*
G36*
X115290000Y-65340000D02*
G01*
X115270000Y-65360000D01*
X115250000Y-65340000D01*
X115270000Y-65320000D01*
X115290000Y-65340000D01*
G37*
G36*
X115370000Y-65020000D02*
G01*
X115350000Y-65040000D01*
X115330000Y-65020000D01*
X115350000Y-65000000D01*
X115370000Y-65020000D01*
G37*
G36*
X115490000Y-61540000D02*
G01*
X115470000Y-61560000D01*
X115450000Y-61540000D01*
X115470000Y-61520000D01*
X115490000Y-61540000D01*
G37*
G36*
X115970000Y-65500000D02*
G01*
X115950000Y-65520000D01*
X115930000Y-65500000D01*
X115950000Y-65480000D01*
X115970000Y-65500000D01*
G37*
G36*
X119250000Y-65140000D02*
G01*
X119230000Y-65160000D01*
X119210000Y-65140000D01*
X119230000Y-65120000D01*
X119250000Y-65140000D01*
G37*
G36*
X123010000Y-62140000D02*
G01*
X122990000Y-62160000D01*
X122970000Y-62140000D01*
X122990000Y-62120000D01*
X123010000Y-62140000D01*
G37*
G36*
X115156666Y-61333333D02*
G01*
X115161453Y-61380803D01*
X115156666Y-61386666D01*
X115132886Y-61381175D01*
X115130000Y-61360000D01*
X115144635Y-61327075D01*
X115156666Y-61333333D01*
G37*
G36*
X116686514Y-63577845D02*
G01*
X116726589Y-63637938D01*
X116730000Y-63662360D01*
X116701373Y-63710321D01*
X116640909Y-63715686D01*
X116587845Y-63676514D01*
X116586040Y-63616609D01*
X116631036Y-63574098D01*
X116686514Y-63577845D01*
G37*
G36*
X117397450Y-62025837D02*
G01*
X117390000Y-62040000D01*
X117352311Y-62078200D01*
X117345278Y-62080000D01*
X117342549Y-62054162D01*
X117350000Y-62040000D01*
X117387688Y-62001799D01*
X117394721Y-62000000D01*
X117397450Y-62025837D01*
G37*
G36*
X122596852Y-63868284D02*
G01*
X122610000Y-63920000D01*
X122581715Y-63986852D01*
X122530000Y-64000000D01*
X122463147Y-63971715D01*
X122450000Y-63920000D01*
X122478284Y-63853147D01*
X122530000Y-63840000D01*
X122596852Y-63868284D01*
G37*
G36*
X123317450Y-62065837D02*
G01*
X123310000Y-62080000D01*
X123272311Y-62118200D01*
X123265278Y-62120000D01*
X123262549Y-62094162D01*
X123270000Y-62080000D01*
X123307688Y-62041799D01*
X123314721Y-62040000D01*
X123317450Y-62065837D01*
G37*
G36*
X123517450Y-61745837D02*
G01*
X123510000Y-61760000D01*
X123472311Y-61798200D01*
X123465278Y-61800000D01*
X123462549Y-61774162D01*
X123470000Y-61760000D01*
X123507688Y-61721799D01*
X123514721Y-61720000D01*
X123517450Y-61745837D01*
G37*
G36*
X117612153Y-62251788D02*
G01*
X117516116Y-62351377D01*
X117464676Y-62393866D01*
X117451236Y-62383630D01*
X117458853Y-62353440D01*
X117498693Y-62302189D01*
X117579620Y-62230219D01*
X117612186Y-62205228D01*
X117750000Y-62103577D01*
X117612153Y-62251788D01*
G37*
G36*
X117892433Y-62148055D02*
G01*
X117822793Y-62230035D01*
X117759106Y-62286221D01*
X117716486Y-62306414D01*
X117710043Y-62280414D01*
X117714773Y-62267962D01*
X117757645Y-62213639D01*
X117838052Y-62138971D01*
X117861254Y-62120000D01*
X117987035Y-62020000D01*
X117892433Y-62148055D01*
G37*
G36*
X116506388Y-60680000D02*
G01*
X116474486Y-60775568D01*
X116435099Y-60862650D01*
X116398805Y-60922172D01*
X116376181Y-60935064D01*
X116373278Y-60920000D01*
X116392172Y-60848257D01*
X116438903Y-60745802D01*
X116453050Y-60720000D01*
X116499774Y-60643559D01*
X116514953Y-60636241D01*
X116506388Y-60680000D01*
G37*
G36*
X115469479Y-65430771D02*
G01*
X115436991Y-65506225D01*
X115430000Y-65520000D01*
X115382842Y-65600991D01*
X115350049Y-65639492D01*
X115347945Y-65640000D01*
X115350520Y-65609228D01*
X115383008Y-65533774D01*
X115390000Y-65520000D01*
X115437157Y-65439008D01*
X115469950Y-65400507D01*
X115472054Y-65400000D01*
X115469479Y-65430771D01*
G37*
G36*
X119231606Y-61315502D02*
G01*
X119252530Y-61404187D01*
X119256855Y-61440000D01*
X119257792Y-61553443D01*
X119230909Y-61598534D01*
X119221057Y-61600000D01*
X119184450Y-61562434D01*
X119170122Y-61454362D01*
X119170000Y-61440000D01*
X119177941Y-61339794D01*
X119197781Y-61284072D01*
X119205798Y-61280000D01*
X119231606Y-61315502D01*
G37*
G36*
X118838353Y-61275131D02*
G01*
X118849761Y-61361303D01*
X118850000Y-61377343D01*
X118858814Y-61472484D01*
X118897741Y-61514713D01*
X118956915Y-61527343D01*
X119041928Y-61553434D01*
X119080248Y-61590000D01*
X119057242Y-61619895D01*
X118983976Y-61637221D01*
X118889366Y-61640884D01*
X118802325Y-61629790D01*
X118751765Y-61602847D01*
X118751499Y-61602426D01*
X118741437Y-61541316D01*
X118748561Y-61444320D01*
X118767548Y-61341772D01*
X118793075Y-61264003D01*
X118815112Y-61240000D01*
X118838353Y-61275131D01*
G37*
G36*
X119095240Y-62348790D02*
G01*
X119019308Y-62449194D01*
X118967256Y-62499671D01*
X118946951Y-62494362D01*
X118956629Y-62452077D01*
X118954613Y-62423049D01*
X118905359Y-62451846D01*
X118848963Y-62500000D01*
X118715584Y-62620000D01*
X118867610Y-62430000D01*
X118951297Y-62329796D01*
X119015506Y-62260949D01*
X119042818Y-62240000D01*
X119040046Y-62262338D01*
X119018000Y-62288000D01*
X118969269Y-62352275D01*
X118979268Y-62375515D01*
X119034508Y-62351109D01*
X119077102Y-62316972D01*
X119184205Y-62220000D01*
X119095240Y-62348790D01*
G37*
G36*
X119841933Y-61260000D02*
G01*
X119850847Y-61320216D01*
X119825031Y-61416502D01*
X119777420Y-61520678D01*
X119720952Y-61604563D01*
X119668560Y-61639979D01*
X119667496Y-61640000D01*
X119611726Y-61606503D01*
X119564890Y-61530000D01*
X119521761Y-61420000D01*
X119486219Y-61512569D01*
X119445682Y-61579122D01*
X119412095Y-61575157D01*
X119396621Y-61510044D01*
X119401281Y-61441271D01*
X119429251Y-61332297D01*
X119469529Y-61302348D01*
X119522046Y-61351444D01*
X119549323Y-61398692D01*
X119609633Y-61488864D01*
X119659339Y-61517345D01*
X119687350Y-61480275D01*
X119690000Y-61447645D01*
X119709250Y-61362181D01*
X119754621Y-61288915D01*
X119807540Y-61250784D01*
X119841933Y-61260000D01*
G37*
G36*
X119875351Y-63805049D02*
G01*
X120061774Y-63821951D01*
X120186749Y-63853336D01*
X120259284Y-63901834D01*
X120288387Y-63970076D01*
X120290000Y-63996068D01*
X120275138Y-64076837D01*
X120223781Y-64134145D01*
X120125769Y-64171423D01*
X119970940Y-64192104D01*
X119749135Y-64199622D01*
X119686850Y-64199850D01*
X119477359Y-64197669D01*
X119329741Y-64189658D01*
X119225942Y-64173375D01*
X119147906Y-64146375D01*
X119100000Y-64120438D01*
X119002964Y-64034733D01*
X118972251Y-63945231D01*
X119010691Y-63866934D01*
X119047370Y-63841407D01*
X119116094Y-63825369D01*
X119246214Y-63812223D01*
X119419142Y-63803318D01*
X119616287Y-63800000D01*
X119618470Y-63800000D01*
X119875351Y-63805049D01*
G37*
G36*
X120356836Y-61210871D02*
G01*
X120391154Y-61228501D01*
X120358389Y-61254297D01*
X120302639Y-61277406D01*
X120191301Y-61340880D01*
X120111751Y-61424738D01*
X120069972Y-61512442D01*
X120071949Y-61587454D01*
X120123666Y-61633234D01*
X120171440Y-61640000D01*
X120232215Y-61624303D01*
X120231291Y-61564156D01*
X120230000Y-61560000D01*
X120225106Y-61500780D01*
X120275781Y-61480943D01*
X120307304Y-61480000D01*
X120388100Y-61498665D01*
X120410000Y-61555102D01*
X120375610Y-61649679D01*
X120288960Y-61713870D01*
X120174829Y-61738850D01*
X120057998Y-61715793D01*
X120020000Y-61693998D01*
X119954380Y-61637960D01*
X119935162Y-61579553D01*
X119959765Y-61492744D01*
X119992806Y-61419735D01*
X120080252Y-61304729D01*
X120201563Y-61228195D01*
X120328659Y-61206244D01*
X120356836Y-61210871D01*
G37*
G36*
X118111376Y-62462979D02*
G01*
X118087317Y-62562798D01*
X118062949Y-62620000D01*
X118035604Y-62701893D01*
X118036737Y-62743996D01*
X118021502Y-62799908D01*
X117981332Y-62842067D01*
X117934129Y-62875634D01*
X117943796Y-62858554D01*
X117960000Y-62840070D01*
X118000134Y-62778968D01*
X118008264Y-62735123D01*
X117979923Y-62733883D01*
X117978571Y-62734702D01*
X117948270Y-62731403D01*
X117947654Y-62678777D01*
X117963983Y-62624897D01*
X117970000Y-62624897D01*
X117989457Y-62636870D01*
X118042632Y-62585486D01*
X118055102Y-62570000D01*
X118089696Y-62522620D01*
X118068982Y-62532552D01*
X118040000Y-62554897D01*
X117984601Y-62604241D01*
X117970000Y-62624897D01*
X117963983Y-62624897D01*
X117971663Y-62599557D01*
X118015235Y-62516475D01*
X118032403Y-62492886D01*
X118088627Y-62428289D01*
X118110647Y-62425084D01*
X118111376Y-62462979D01*
G37*
G36*
X118519667Y-61173561D02*
G01*
X118582522Y-61209656D01*
X118594882Y-61230000D01*
X118630292Y-61322633D01*
X118660203Y-61389658D01*
X118682252Y-61508133D01*
X118642825Y-61609745D01*
X118554869Y-61671387D01*
X118497524Y-61680000D01*
X118405596Y-61671495D01*
X118356666Y-61653333D01*
X118340786Y-61600396D01*
X118331582Y-61497583D01*
X118331354Y-61484808D01*
X118370000Y-61484808D01*
X118397190Y-61546029D01*
X118459335Y-61588393D01*
X118527299Y-61601267D01*
X118571943Y-61574013D01*
X118576000Y-61560000D01*
X118581131Y-61466091D01*
X118547846Y-61426255D01*
X118480000Y-61418141D01*
X118394232Y-61433749D01*
X118370000Y-61484808D01*
X118331354Y-61484808D01*
X118330612Y-61443333D01*
X118336737Y-61343126D01*
X118352148Y-61302712D01*
X118362971Y-61309997D01*
X118402140Y-61337754D01*
X118465079Y-61306693D01*
X118472358Y-61301269D01*
X118513460Y-61254025D01*
X118480149Y-61232457D01*
X118380000Y-61237014D01*
X118333891Y-61217354D01*
X118330000Y-61201753D01*
X118361657Y-61166223D01*
X118435462Y-61157954D01*
X118519667Y-61173561D01*
G37*
G36*
X124245294Y-55636887D02*
G01*
X124402386Y-55747363D01*
X124534529Y-55932661D01*
X124610042Y-56100110D01*
X124648310Y-56200763D01*
X124482297Y-56116070D01*
X124285231Y-56056162D01*
X124053870Y-56051820D01*
X123810638Y-56102193D01*
X123695423Y-56145924D01*
X123520847Y-56223071D01*
X124146338Y-56754339D01*
X124340225Y-56921176D01*
X124516368Y-57076801D01*
X124664304Y-57211645D01*
X124773571Y-57316140D01*
X124833704Y-57380718D01*
X124838485Y-57387336D01*
X124884703Y-57507202D01*
X124902385Y-57664371D01*
X124902308Y-57676839D01*
X124870998Y-57885459D01*
X124791178Y-58074139D01*
X124674270Y-58232770D01*
X124531699Y-58351247D01*
X124374888Y-58419462D01*
X124215262Y-58427307D01*
X124099655Y-58386990D01*
X123966999Y-58272902D01*
X123895504Y-58110093D01*
X123880769Y-57962420D01*
X123918032Y-57716899D01*
X124029975Y-57499829D01*
X124177049Y-57343245D01*
X124333730Y-57209132D01*
X123661865Y-56639159D01*
X123413715Y-56428894D01*
X123220089Y-56264550D01*
X123074962Y-56139758D01*
X122972308Y-56048152D01*
X122906103Y-55983366D01*
X122870323Y-55939033D01*
X122858941Y-55908785D01*
X122865935Y-55886256D01*
X122885278Y-55865079D01*
X122907868Y-55842355D01*
X122974347Y-55791356D01*
X123021110Y-55786866D01*
X123113334Y-55808444D01*
X123264837Y-55793554D01*
X123480080Y-55741556D01*
X123608812Y-55702767D01*
X123776142Y-55654661D01*
X123930074Y-55618649D01*
X124043042Y-55600972D01*
X124062064Y-55600149D01*
X124245294Y-55636887D01*
G37*
G36*
X117482349Y-54911689D02*
G01*
X117550377Y-54999294D01*
X117651069Y-55134450D01*
X117777794Y-55308182D01*
X117923919Y-55511514D01*
X118029490Y-55660000D01*
X118185233Y-55878280D01*
X118326457Y-56072998D01*
X118446450Y-56235157D01*
X118538499Y-56355763D01*
X118595889Y-56425820D01*
X118611591Y-56440000D01*
X118650028Y-56408313D01*
X118664508Y-56379887D01*
X118709467Y-56326085D01*
X118800468Y-56251860D01*
X118876618Y-56199887D01*
X119003088Y-56129068D01*
X119119557Y-56092768D01*
X119264755Y-56080538D01*
X119320908Y-56080000D01*
X119467274Y-56084035D01*
X119562271Y-56102103D01*
X119634369Y-56143149D01*
X119693076Y-56196923D01*
X119791918Y-56344032D01*
X119814227Y-56505407D01*
X119760187Y-56672623D01*
X119680343Y-56784887D01*
X119495332Y-56946404D01*
X119287494Y-57044063D01*
X119071384Y-57074102D01*
X118861554Y-57032756D01*
X118810000Y-57009937D01*
X118742477Y-56962482D01*
X118654794Y-56874973D01*
X118541507Y-56740890D01*
X118397171Y-56553711D01*
X118216340Y-56306916D01*
X118175294Y-56249800D01*
X117680589Y-55559601D01*
X117559698Y-55809800D01*
X117463766Y-56071354D01*
X117439608Y-56308047D01*
X117487536Y-56515729D01*
X117503993Y-56550000D01*
X117542323Y-56634774D01*
X117538646Y-56670993D01*
X117486413Y-56658985D01*
X117379075Y-56599076D01*
X117315555Y-56559437D01*
X117148863Y-56417403D01*
X117043926Y-56247818D01*
X117010000Y-56076849D01*
X117024569Y-56003835D01*
X117063702Y-55878195D01*
X117120534Y-55720869D01*
X117157596Y-55626576D01*
X117222690Y-55450802D01*
X117273685Y-55284664D01*
X117303203Y-55153601D01*
X117307596Y-55109540D01*
X117332554Y-54978573D01*
X117395883Y-54898194D01*
X117453618Y-54880612D01*
X117482349Y-54911689D01*
G37*
G36*
X120593425Y-63311547D02*
G01*
X120685235Y-63317438D01*
X120706232Y-63322812D01*
X120724463Y-63378526D01*
X120738980Y-63497038D01*
X120749623Y-63661224D01*
X120756231Y-63853961D01*
X120758644Y-64058125D01*
X120756700Y-64256593D01*
X120750239Y-64432241D01*
X120739100Y-64567947D01*
X120723123Y-64646586D01*
X120718731Y-64654823D01*
X120697202Y-64676185D01*
X120661365Y-64692935D01*
X120601952Y-64705717D01*
X120509697Y-64715173D01*
X120375333Y-64721947D01*
X120189592Y-64726682D01*
X119943209Y-64730022D01*
X119626915Y-64732610D01*
X119595135Y-64732825D01*
X119310650Y-64734128D01*
X119053315Y-64734156D01*
X118833691Y-64733000D01*
X118662337Y-64730752D01*
X118549815Y-64727506D01*
X118506685Y-64723352D01*
X118506665Y-64723333D01*
X118501180Y-64679608D01*
X118497128Y-64570190D01*
X118494777Y-64409379D01*
X118494396Y-64211473D01*
X118495026Y-64103333D01*
X118500052Y-63500000D01*
X118551587Y-63860000D01*
X118576008Y-64052174D01*
X118595117Y-64242974D01*
X118605621Y-64398264D01*
X118606561Y-64430000D01*
X118610000Y-64640000D01*
X119648311Y-64640000D01*
X120686622Y-64640000D01*
X120669396Y-64030000D01*
X120663357Y-63817053D01*
X120658097Y-63633322D01*
X120654033Y-63493230D01*
X120651583Y-63411201D01*
X120651085Y-63396294D01*
X120612501Y-63390574D01*
X120504151Y-63386318D01*
X120336260Y-63383619D01*
X120119051Y-63382572D01*
X119862746Y-63383272D01*
X119577568Y-63385811D01*
X119550000Y-63386144D01*
X119193493Y-63389444D01*
X118912354Y-63389506D01*
X118702010Y-63386203D01*
X118557888Y-63379405D01*
X118475417Y-63368984D01*
X118450000Y-63355308D01*
X118486976Y-63328970D01*
X118596485Y-63331619D01*
X118620000Y-63334667D01*
X118708459Y-63340021D01*
X118862988Y-63341975D01*
X119069734Y-63340665D01*
X119314845Y-63336228D01*
X119584468Y-63328798D01*
X119730000Y-63323789D01*
X119997075Y-63315381D01*
X120237740Y-63310530D01*
X120440391Y-63309248D01*
X120593425Y-63311547D01*
G37*
G36*
X115175595Y-56428012D02*
G01*
X115250481Y-56460257D01*
X115316746Y-56512049D01*
X115347220Y-56592020D01*
X115354631Y-56686750D01*
X115371881Y-56801997D01*
X115421101Y-56952144D01*
X115506729Y-57149174D01*
X115587015Y-57314049D01*
X115713426Y-57581523D01*
X115795394Y-57796010D01*
X115835275Y-57969406D01*
X115835427Y-58113605D01*
X115798208Y-58240503D01*
X115778462Y-58280000D01*
X115717249Y-58364302D01*
X115621024Y-58468735D01*
X115507823Y-58576889D01*
X115395683Y-58672351D01*
X115302641Y-58738710D01*
X115250929Y-58760000D01*
X115241597Y-58726430D01*
X115257742Y-58640780D01*
X115277147Y-58577183D01*
X115326140Y-58350379D01*
X115313564Y-58123598D01*
X115236983Y-57882042D01*
X115127241Y-57666910D01*
X115045881Y-57530564D01*
X114978617Y-57425388D01*
X114935749Y-57367166D01*
X114927253Y-57360490D01*
X114900687Y-57393208D01*
X114842057Y-57483891D01*
X114758572Y-57620811D01*
X114657444Y-57792237D01*
X114589452Y-57910000D01*
X114388412Y-58260508D01*
X114222443Y-58548163D01*
X114087091Y-58779660D01*
X113977899Y-58961697D01*
X113890412Y-59100972D01*
X113820174Y-59204184D01*
X113762729Y-59278028D01*
X113713622Y-59329204D01*
X113668396Y-59364409D01*
X113622596Y-59390340D01*
X113596410Y-59402684D01*
X113401551Y-59458754D01*
X113173110Y-59475729D01*
X112947844Y-59452616D01*
X112840363Y-59423082D01*
X112605004Y-59306773D01*
X112424119Y-59149528D01*
X112306309Y-58960778D01*
X112262865Y-58789744D01*
X112278792Y-58596630D01*
X112367600Y-58434940D01*
X112527456Y-58307507D01*
X112597883Y-58272391D01*
X112817180Y-58212284D01*
X113057872Y-58206988D01*
X113298763Y-58251595D01*
X113518657Y-58341197D01*
X113696360Y-58470887D01*
X113756693Y-58540715D01*
X113830743Y-58642369D01*
X114465961Y-57540090D01*
X114621776Y-57270552D01*
X114765288Y-57023913D01*
X114891535Y-56808573D01*
X114995557Y-56632929D01*
X115072394Y-56505381D01*
X115117084Y-56434328D01*
X115126091Y-56422415D01*
X115175595Y-56428012D01*
G37*
G36*
X119680083Y-64972705D02*
G01*
X120270000Y-64980000D01*
X120294492Y-65160000D01*
X120301510Y-65292485D01*
X120280258Y-65364460D01*
X120274492Y-65369387D01*
X120209005Y-65383632D01*
X120072583Y-65390550D01*
X119873952Y-65390131D01*
X119621842Y-65382367D01*
X119378252Y-65370338D01*
X119236202Y-65358526D01*
X119152489Y-65337935D01*
X119105454Y-65300540D01*
X119083175Y-65260995D01*
X119058737Y-65147153D01*
X119062284Y-65101042D01*
X119139855Y-65101042D01*
X119162450Y-65174782D01*
X119190000Y-65209387D01*
X119239006Y-65235899D01*
X119279412Y-65213848D01*
X119315688Y-65170000D01*
X119354640Y-65123920D01*
X119354574Y-65145246D01*
X119343315Y-65180000D01*
X119327904Y-65233386D01*
X119345110Y-65232802D01*
X119404938Y-65182242D01*
X119464031Y-65134669D01*
X119477333Y-65141398D01*
X119467441Y-65172242D01*
X119456916Y-65230897D01*
X119492063Y-65226935D01*
X119520468Y-65202616D01*
X119774064Y-65202616D01*
X119784940Y-65227384D01*
X119837489Y-65194897D01*
X119885625Y-65161388D01*
X119887031Y-65186604D01*
X119878744Y-65210000D01*
X119873879Y-65267426D01*
X119891255Y-65280000D01*
X119929068Y-65249813D01*
X119930000Y-65241407D01*
X119961287Y-65194641D01*
X120013785Y-65157974D01*
X120073078Y-65132917D01*
X120080992Y-65162534D01*
X120068816Y-65206566D01*
X120052551Y-65269450D01*
X120055457Y-65280000D01*
X120090041Y-65237655D01*
X120145702Y-65171019D01*
X120220553Y-65082039D01*
X120081561Y-65087264D01*
X119974801Y-65083431D01*
X119901827Y-65067075D01*
X119898291Y-65065124D01*
X119847923Y-65073320D01*
X119812006Y-65116250D01*
X119774064Y-65202616D01*
X119520468Y-65202616D01*
X119568541Y-65161458D01*
X119599337Y-65124721D01*
X119690000Y-65124721D01*
X119714645Y-65146407D01*
X119730000Y-65140000D01*
X119768506Y-65087011D01*
X119770000Y-65075278D01*
X119745354Y-65053592D01*
X119730000Y-65060000D01*
X119691493Y-65112988D01*
X119690000Y-65124721D01*
X119599337Y-65124721D01*
X119616318Y-65104465D01*
X119612754Y-65071018D01*
X119548941Y-65055982D01*
X119415974Y-65054219D01*
X119383801Y-65054920D01*
X119271890Y-65052613D01*
X119205217Y-65041244D01*
X119196161Y-65030000D01*
X119184503Y-65001946D01*
X119169846Y-65000000D01*
X119141196Y-65031100D01*
X119139855Y-65101042D01*
X119062284Y-65101042D01*
X119065006Y-65065655D01*
X119090166Y-64965411D01*
X119680083Y-64972705D01*
G37*
G36*
X119220000Y-62072191D02*
G01*
X119410000Y-62084383D01*
X119410000Y-62256156D01*
X119406480Y-62384621D01*
X119397261Y-62555456D01*
X119384518Y-62729373D01*
X119359037Y-63030816D01*
X119154518Y-63019419D01*
X119028038Y-63019835D01*
X118932317Y-63033538D01*
X118903561Y-63045953D01*
X118848558Y-63059509D01*
X118831820Y-63042946D01*
X118777532Y-63021508D01*
X118669600Y-63021617D01*
X118632137Y-63025909D01*
X118550279Y-63035858D01*
X118493885Y-63031547D01*
X118458727Y-63001209D01*
X118440574Y-62933080D01*
X118435200Y-62815395D01*
X118436620Y-62735359D01*
X118530000Y-62735359D01*
X118532954Y-62847777D01*
X118551902Y-62901549D01*
X118601970Y-62918025D01*
X118660000Y-62918834D01*
X118736964Y-62908893D01*
X118761516Y-62895144D01*
X118891387Y-62895144D01*
X118914442Y-62887305D01*
X118975805Y-62831611D01*
X119048359Y-62755144D01*
X119132213Y-62666050D01*
X119190249Y-62611344D01*
X119208359Y-62602228D01*
X119187766Y-62645310D01*
X119134219Y-62726461D01*
X119110468Y-62759364D01*
X119045620Y-62860405D01*
X119034036Y-62909696D01*
X119072865Y-62902338D01*
X119155586Y-62836824D01*
X119223717Y-62775724D01*
X119243001Y-62767915D01*
X119223219Y-62812255D01*
X119214021Y-62830000D01*
X119187444Y-62896784D01*
X119210226Y-62918912D01*
X119229845Y-62920000D01*
X119274293Y-62895234D01*
X119285520Y-62811499D01*
X119284530Y-62790000D01*
X119289032Y-62663526D01*
X119309046Y-62560313D01*
X119327412Y-62492184D01*
X119307532Y-62489067D01*
X119265769Y-62519624D01*
X119215419Y-62557453D01*
X119217919Y-62546850D01*
X119264104Y-62491625D01*
X119312795Y-62411846D01*
X119321196Y-62353588D01*
X119293707Y-62363356D01*
X119233421Y-62422478D01*
X119153264Y-62514667D01*
X119066165Y-62623632D01*
X118985052Y-62733085D01*
X118922852Y-62826736D01*
X118892493Y-62888297D01*
X118891387Y-62895144D01*
X118761516Y-62895144D01*
X118804420Y-62871118D01*
X118881037Y-62791215D01*
X118960371Y-62688834D01*
X119064454Y-62550611D01*
X119166413Y-62417772D01*
X119236168Y-62329130D01*
X119297609Y-62245397D01*
X119326346Y-62190984D01*
X119325797Y-62182761D01*
X119278608Y-62171479D01*
X119179091Y-62161950D01*
X119054916Y-62155920D01*
X118933754Y-62155134D01*
X118903406Y-62156124D01*
X118820906Y-62194693D01*
X118717596Y-62298499D01*
X118673406Y-62355359D01*
X118585220Y-62490091D01*
X118541787Y-62604303D01*
X118530002Y-62732723D01*
X118530000Y-62735359D01*
X118436620Y-62735359D01*
X118438375Y-62636389D01*
X118442512Y-62498329D01*
X118446926Y-62352920D01*
X118530000Y-62352920D01*
X118550195Y-62370251D01*
X118609218Y-62320494D01*
X118646251Y-62278489D01*
X118707328Y-62192653D01*
X118727081Y-62135633D01*
X118719217Y-62124322D01*
X118664576Y-62141140D01*
X118600035Y-62204235D01*
X118547901Y-62286656D01*
X118530000Y-62352920D01*
X118446926Y-62352920D01*
X118452104Y-62182360D01*
X118490000Y-62182360D01*
X118509391Y-62223762D01*
X118530000Y-62220000D01*
X118568474Y-62168861D01*
X118570000Y-62157639D01*
X118539490Y-62121077D01*
X118530000Y-62120000D01*
X118494895Y-62152558D01*
X118490000Y-62182360D01*
X118452104Y-62182360D01*
X118455025Y-62086144D01*
X118742512Y-62073072D01*
X118920744Y-62068053D01*
X119098054Y-62068025D01*
X119220000Y-62072191D01*
G37*
G36*
X120521691Y-62117580D02*
G01*
X120620870Y-62126976D01*
X120679969Y-62143576D01*
X120704832Y-62160272D01*
X120717527Y-62210924D01*
X120726300Y-62321337D01*
X120731173Y-62471372D01*
X120732171Y-62640887D01*
X120729315Y-62809742D01*
X120722629Y-62957796D01*
X120712135Y-63064907D01*
X120703763Y-63101827D01*
X120670338Y-63150550D01*
X120655720Y-63154993D01*
X120603903Y-63145514D01*
X120502903Y-63127389D01*
X120450000Y-63117958D01*
X120305667Y-63099418D01*
X120129975Y-63086473D01*
X120023333Y-63082964D01*
X119892101Y-63075507D01*
X119797620Y-63059069D01*
X119763333Y-63040444D01*
X119759463Y-62984558D01*
X119759652Y-62968003D01*
X120250000Y-62968003D01*
X120255574Y-62993418D01*
X120262089Y-62990945D01*
X120401463Y-62990945D01*
X120421539Y-63000000D01*
X120450338Y-62988341D01*
X120546272Y-62988341D01*
X120551708Y-63002763D01*
X120590322Y-63038232D01*
X120609217Y-62997834D01*
X120610000Y-62977639D01*
X120590319Y-62936441D01*
X120569347Y-62940403D01*
X120546272Y-62988341D01*
X120450338Y-62988341D01*
X120490440Y-62972106D01*
X120538309Y-62930000D01*
X120587352Y-62842423D01*
X120623059Y-62726096D01*
X120624200Y-62720000D01*
X120649381Y-62580000D01*
X120573968Y-62677357D01*
X120466642Y-62826743D01*
X120408257Y-62933141D01*
X120401463Y-62990945D01*
X120262089Y-62990945D01*
X120278228Y-62984819D01*
X120326861Y-62933660D01*
X120410370Y-62831398D01*
X120467230Y-62759392D01*
X120555636Y-62638423D01*
X120617256Y-62537657D01*
X120640816Y-62475942D01*
X120640133Y-62470400D01*
X120613041Y-62480416D01*
X120554108Y-62539357D01*
X120476718Y-62630153D01*
X120394252Y-62735735D01*
X120320092Y-62839036D01*
X120267621Y-62922986D01*
X120250000Y-62968003D01*
X119759652Y-62968003D01*
X119760771Y-62870162D01*
X119766881Y-62718557D01*
X119767170Y-62713333D01*
X119850443Y-62713333D01*
X119850887Y-62820000D01*
X119960188Y-62680000D01*
X120082624Y-62527813D01*
X120169145Y-62429406D01*
X120216764Y-62386352D01*
X120222499Y-62400224D01*
X120183364Y-62472596D01*
X120096374Y-62605041D01*
X120092966Y-62610000D01*
X119986296Y-62773915D01*
X119924022Y-62887429D01*
X119904958Y-62946749D01*
X119927915Y-62948084D01*
X119991706Y-62887643D01*
X120095145Y-62761633D01*
X120127187Y-62719271D01*
X120237999Y-62578478D01*
X120353532Y-62443842D01*
X120442385Y-62350880D01*
X120486721Y-62315114D01*
X120480882Y-62339629D01*
X120424608Y-62424884D01*
X120317638Y-62571335D01*
X120314314Y-62575782D01*
X120209724Y-62720240D01*
X120128841Y-62840897D01*
X120080469Y-62923991D01*
X120071664Y-62954997D01*
X120106363Y-62938138D01*
X120178189Y-62874252D01*
X120273470Y-62778118D01*
X120378534Y-62664512D01*
X120479711Y-62548211D01*
X120563330Y-62443992D01*
X120615298Y-62367398D01*
X120639568Y-62286561D01*
X120602215Y-62234422D01*
X120497393Y-62207133D01*
X120361921Y-62200612D01*
X120252172Y-62204634D01*
X120179660Y-62228487D01*
X120116981Y-62288507D01*
X120044250Y-62390000D01*
X119968503Y-62495534D01*
X119907903Y-62570122D01*
X119882328Y-62593333D01*
X119858486Y-62638580D01*
X119850443Y-62713333D01*
X119767170Y-62713333D01*
X119770000Y-62662089D01*
X119783633Y-62486789D01*
X119784585Y-62481066D01*
X119851358Y-62481066D01*
X119854050Y-62516188D01*
X119880309Y-62498000D01*
X119924494Y-62446268D01*
X119998741Y-62362360D01*
X120027793Y-62330000D01*
X120097374Y-62249702D01*
X120116025Y-62211884D01*
X120087506Y-62200634D01*
X120058510Y-62200000D01*
X119969816Y-62238262D01*
X119911027Y-62318013D01*
X119871440Y-62408621D01*
X119851358Y-62481066D01*
X119784585Y-62481066D01*
X119802499Y-62373335D01*
X119831138Y-62303576D01*
X119870000Y-62262404D01*
X119922630Y-62212575D01*
X119911296Y-62177239D01*
X119890000Y-62161372D01*
X119883474Y-62140023D01*
X119943191Y-62125853D01*
X120074807Y-62117878D01*
X120150000Y-62116184D01*
X120369158Y-62114334D01*
X120521691Y-62117580D01*
G37*
G36*
X122937592Y-62619035D02*
G01*
X123225839Y-62743998D01*
X123486598Y-62940689D01*
X123646165Y-63129650D01*
X123764530Y-63364282D01*
X123847562Y-63657282D01*
X123867462Y-63764441D01*
X123871500Y-63927668D01*
X123843347Y-64127647D01*
X123789493Y-64331105D01*
X123726983Y-64484658D01*
X123573153Y-64726178D01*
X123384131Y-64904123D01*
X123151431Y-65023470D01*
X122866571Y-65089199D01*
X122670000Y-65104866D01*
X122491783Y-65106474D01*
X122329687Y-65099474D01*
X122210805Y-65085313D01*
X122184339Y-65078908D01*
X122080166Y-65033852D01*
X122043404Y-65013333D01*
X122383333Y-65013333D01*
X122388824Y-65037113D01*
X122410000Y-65040000D01*
X122442924Y-65025364D01*
X122440134Y-65020000D01*
X122730000Y-65020000D01*
X122750000Y-65040000D01*
X122770000Y-65020000D01*
X122750000Y-65000000D01*
X122730000Y-65020000D01*
X122440134Y-65020000D01*
X122436666Y-65013333D01*
X122389196Y-65008546D01*
X122383333Y-65013333D01*
X122043404Y-65013333D01*
X122002381Y-64990436D01*
X122547348Y-64990436D01*
X122586666Y-64996842D01*
X122638547Y-64989487D01*
X122639166Y-64975833D01*
X122585631Y-64966284D01*
X122562500Y-64972675D01*
X122547348Y-64990436D01*
X122002381Y-64990436D01*
X121948158Y-64960171D01*
X121864475Y-64906128D01*
X121856732Y-64900000D01*
X123050000Y-64900000D01*
X123070000Y-64920000D01*
X123090000Y-64900000D01*
X123070000Y-64880000D01*
X123050000Y-64900000D01*
X121856732Y-64900000D01*
X121806193Y-64860000D01*
X122010000Y-64860000D01*
X122030000Y-64880000D01*
X122050000Y-64860000D01*
X122030000Y-64840000D01*
X122010000Y-64860000D01*
X121806193Y-64860000D01*
X121755653Y-64820000D01*
X121890000Y-64820000D01*
X121910000Y-64840000D01*
X121930000Y-64820000D01*
X121923333Y-64813333D01*
X122823333Y-64813333D01*
X122828824Y-64837113D01*
X122850000Y-64840000D01*
X122882924Y-64825364D01*
X122876666Y-64813333D01*
X123143333Y-64813333D01*
X123148824Y-64837113D01*
X123170000Y-64840000D01*
X123202924Y-64825364D01*
X123196666Y-64813333D01*
X123149196Y-64808546D01*
X123143333Y-64813333D01*
X122876666Y-64813333D01*
X122829196Y-64808546D01*
X122823333Y-64813333D01*
X121923333Y-64813333D01*
X121910000Y-64800000D01*
X123250000Y-64800000D01*
X123264635Y-64832924D01*
X123276666Y-64826666D01*
X123281453Y-64779196D01*
X123276666Y-64773333D01*
X123252886Y-64778824D01*
X123250000Y-64800000D01*
X121910000Y-64800000D01*
X121890000Y-64820000D01*
X121755653Y-64820000D01*
X121750816Y-64816172D01*
X121684033Y-64740000D01*
X122170000Y-64740000D01*
X122190000Y-64760000D01*
X122210000Y-64740000D01*
X122190000Y-64720000D01*
X122170000Y-64740000D01*
X121684033Y-64740000D01*
X121657867Y-64710156D01*
X121626620Y-64660000D01*
X123450000Y-64660000D01*
X123470000Y-64680000D01*
X123490000Y-64660000D01*
X123470000Y-64640000D01*
X123450000Y-64660000D01*
X121626620Y-64660000D01*
X121567367Y-64564892D01*
X121550757Y-64533333D01*
X121863333Y-64533333D01*
X121868824Y-64557113D01*
X121890000Y-64560000D01*
X121922924Y-64545364D01*
X121916666Y-64533333D01*
X121869196Y-64528546D01*
X121863333Y-64533333D01*
X121550757Y-64533333D01*
X121512162Y-64460000D01*
X122170000Y-64460000D01*
X122190000Y-64480000D01*
X122210000Y-64460000D01*
X122190000Y-64440000D01*
X122170000Y-64460000D01*
X121512162Y-64460000D01*
X121510135Y-64456148D01*
X121463192Y-64360000D01*
X123330000Y-64360000D01*
X123344635Y-64392924D01*
X123356666Y-64386666D01*
X123361453Y-64339196D01*
X123356666Y-64333333D01*
X123332886Y-64338824D01*
X123330000Y-64360000D01*
X121463192Y-64360000D01*
X121431648Y-64295391D01*
X121417844Y-64260000D01*
X122010000Y-64260000D01*
X122030000Y-64280000D01*
X122050000Y-64260000D01*
X122030000Y-64240000D01*
X122010000Y-64260000D01*
X121417844Y-64260000D01*
X121384370Y-64174177D01*
X121360814Y-64062033D01*
X121353492Y-63928483D01*
X121353585Y-63899347D01*
X122250000Y-63899347D01*
X122282184Y-63994300D01*
X122361470Y-64086408D01*
X122461959Y-64153630D01*
X122557752Y-64173925D01*
X122569911Y-64171613D01*
X122652279Y-64125675D01*
X122699161Y-64080000D01*
X122930000Y-64080000D01*
X122944635Y-64112924D01*
X122956666Y-64106666D01*
X122957338Y-64100000D01*
X123290000Y-64100000D01*
X123310000Y-64120000D01*
X123330000Y-64100000D01*
X123310000Y-64080000D01*
X123290000Y-64100000D01*
X122957338Y-64100000D01*
X122961453Y-64059196D01*
X122956666Y-64053333D01*
X122932886Y-64058824D01*
X122930000Y-64080000D01*
X122699161Y-64080000D01*
X122733225Y-64046813D01*
X122788951Y-63923792D01*
X122780798Y-63820000D01*
X123130000Y-63820000D01*
X123150000Y-63840000D01*
X123170000Y-63820000D01*
X123150000Y-63800000D01*
X123130000Y-63820000D01*
X122780798Y-63820000D01*
X122779367Y-63801780D01*
X122714147Y-63701989D01*
X122618157Y-63653333D01*
X123423333Y-63653333D01*
X123428824Y-63677113D01*
X123450000Y-63680000D01*
X123482924Y-63665364D01*
X123476666Y-63653333D01*
X123429196Y-63648546D01*
X123423333Y-63653333D01*
X122618157Y-63653333D01*
X122602960Y-63645630D01*
X122547749Y-63640000D01*
X122437830Y-63670009D01*
X122334382Y-63744283D01*
X122264537Y-63839188D01*
X122250000Y-63899347D01*
X121353585Y-63899347D01*
X121353840Y-63820000D01*
X121365363Y-63700000D01*
X121730000Y-63700000D01*
X121750000Y-63720000D01*
X121770000Y-63700000D01*
X121750000Y-63680000D01*
X121730000Y-63700000D01*
X121365363Y-63700000D01*
X121373045Y-63620000D01*
X121930000Y-63620000D01*
X121950000Y-63640000D01*
X121970000Y-63620000D01*
X121950000Y-63600000D01*
X121930000Y-63620000D01*
X121373045Y-63620000D01*
X121380727Y-63540000D01*
X122250000Y-63540000D01*
X122270000Y-63560000D01*
X122290000Y-63540000D01*
X122270000Y-63520000D01*
X122250000Y-63540000D01*
X121380727Y-63540000D01*
X121386625Y-63478577D01*
X121441500Y-63304505D01*
X121663749Y-63304505D01*
X121670000Y-63320000D01*
X121705944Y-63358159D01*
X121712360Y-63360000D01*
X121729541Y-63329052D01*
X121730000Y-63320000D01*
X121699249Y-63281537D01*
X121687639Y-63280000D01*
X121663749Y-63304505D01*
X121441500Y-63304505D01*
X121470830Y-63211465D01*
X123496447Y-63211465D01*
X123506180Y-63233819D01*
X123546456Y-63276761D01*
X123569610Y-63267952D01*
X123570000Y-63262360D01*
X123541588Y-63228528D01*
X123523819Y-63216180D01*
X123496447Y-63211465D01*
X121470830Y-63211465D01*
X121476756Y-63192666D01*
X121625210Y-62961014D01*
X121706090Y-62891465D01*
X123256447Y-62891465D01*
X123266180Y-62913819D01*
X123306456Y-62956761D01*
X123329610Y-62947952D01*
X123330000Y-62942360D01*
X123301588Y-62908528D01*
X123283819Y-62896180D01*
X123256447Y-62891465D01*
X121706090Y-62891465D01*
X121832962Y-62782367D01*
X121936531Y-62733333D01*
X122103333Y-62733333D01*
X122108824Y-62757113D01*
X122130000Y-62760000D01*
X122162924Y-62745364D01*
X122156666Y-62733333D01*
X122109196Y-62728546D01*
X122103333Y-62733333D01*
X121936531Y-62733333D01*
X122100989Y-62655472D01*
X122302658Y-62601241D01*
X122629148Y-62571244D01*
X122937592Y-62619035D01*
G37*
G36*
X116778270Y-62368064D02*
G01*
X117089483Y-62411837D01*
X117356283Y-62511784D01*
X117598824Y-62677078D01*
X117732038Y-62802092D01*
X117909938Y-63032632D01*
X118014967Y-63286765D01*
X118048243Y-63569559D01*
X118010885Y-63886088D01*
X117990333Y-63972268D01*
X117868292Y-64313647D01*
X117698420Y-64592117D01*
X117484309Y-64805558D01*
X117229554Y-64951845D01*
X116937749Y-65028856D01*
X116612488Y-65034468D01*
X116290969Y-64975876D01*
X116089207Y-64900000D01*
X116410000Y-64900000D01*
X116430000Y-64920000D01*
X116450000Y-64900000D01*
X116430000Y-64880000D01*
X116410000Y-64900000D01*
X116089207Y-64900000D01*
X115978976Y-64858546D01*
X115921632Y-64820000D01*
X116330000Y-64820000D01*
X116350000Y-64840000D01*
X116352361Y-64837639D01*
X116570000Y-64837639D01*
X116599036Y-64878372D01*
X116610000Y-64880000D01*
X116648960Y-64866352D01*
X116650000Y-64862360D01*
X116621970Y-64828209D01*
X116610000Y-64820000D01*
X116573140Y-64823171D01*
X116570000Y-64837639D01*
X116352361Y-64837639D01*
X116370000Y-64820000D01*
X116350000Y-64800000D01*
X117230000Y-64800000D01*
X117233171Y-64836859D01*
X117247639Y-64840000D01*
X117288372Y-64810963D01*
X117290000Y-64800000D01*
X117276352Y-64761039D01*
X117272360Y-64760000D01*
X117238209Y-64788029D01*
X117230000Y-64800000D01*
X116350000Y-64800000D01*
X116330000Y-64820000D01*
X115921632Y-64820000D01*
X115802619Y-64740000D01*
X116250000Y-64740000D01*
X116270000Y-64760000D01*
X116290000Y-64740000D01*
X116270000Y-64720000D01*
X116250000Y-64740000D01*
X115802619Y-64740000D01*
X115727805Y-64689711D01*
X115719414Y-64680000D01*
X116050000Y-64680000D01*
X116063647Y-64718960D01*
X116067639Y-64720000D01*
X116092006Y-64700000D01*
X116810000Y-64700000D01*
X116830000Y-64720000D01*
X116850000Y-64700000D01*
X116970000Y-64700000D01*
X116990000Y-64720000D01*
X117010000Y-64700000D01*
X116990000Y-64680000D01*
X116970000Y-64700000D01*
X116850000Y-64700000D01*
X116830000Y-64680000D01*
X116810000Y-64700000D01*
X116092006Y-64700000D01*
X116101790Y-64691970D01*
X116110000Y-64680000D01*
X116106828Y-64643140D01*
X116092360Y-64640000D01*
X116051627Y-64669036D01*
X116050000Y-64680000D01*
X115719414Y-64680000D01*
X115682601Y-64637395D01*
X117499807Y-64637395D01*
X117505278Y-64640000D01*
X117541782Y-64611840D01*
X117550000Y-64600000D01*
X117560192Y-64562604D01*
X117554721Y-64560000D01*
X117518217Y-64588159D01*
X117510000Y-64600000D01*
X117499807Y-64637395D01*
X115682601Y-64637395D01*
X115615727Y-64560000D01*
X116410000Y-64560000D01*
X116438709Y-64598855D01*
X116447639Y-64600000D01*
X116501812Y-64570924D01*
X116510000Y-64560000D01*
X116504704Y-64540000D01*
X117170000Y-64540000D01*
X117190000Y-64560000D01*
X117210000Y-64540000D01*
X117190000Y-64520000D01*
X117170000Y-64540000D01*
X116504704Y-64540000D01*
X116500932Y-64525755D01*
X116472360Y-64520000D01*
X116417632Y-64540883D01*
X116410000Y-64560000D01*
X115615727Y-64560000D01*
X115563884Y-64500000D01*
X115770000Y-64500000D01*
X115790000Y-64520000D01*
X115890000Y-64520000D01*
X115904635Y-64552924D01*
X115916666Y-64546666D01*
X115919618Y-64517395D01*
X117059807Y-64517395D01*
X117065278Y-64520000D01*
X117101782Y-64491840D01*
X117110000Y-64480000D01*
X117120192Y-64442604D01*
X117114721Y-64440000D01*
X117078217Y-64468159D01*
X117070000Y-64480000D01*
X117059807Y-64517395D01*
X115919618Y-64517395D01*
X115921453Y-64499196D01*
X115916666Y-64493333D01*
X115892886Y-64498824D01*
X115890000Y-64520000D01*
X115790000Y-64520000D01*
X115810000Y-64500000D01*
X115790000Y-64480000D01*
X115770000Y-64500000D01*
X115563884Y-64500000D01*
X115535933Y-64467652D01*
X115483819Y-64360000D01*
X116170000Y-64360000D01*
X116200438Y-64398837D01*
X116210000Y-64400000D01*
X116235518Y-64380000D01*
X117570000Y-64380000D01*
X117590000Y-64400000D01*
X117610000Y-64380000D01*
X117590000Y-64360000D01*
X117570000Y-64380000D01*
X116235518Y-64380000D01*
X116248837Y-64369561D01*
X116250000Y-64360000D01*
X116219561Y-64321162D01*
X116210000Y-64320000D01*
X116171162Y-64350438D01*
X116170000Y-64360000D01*
X115483819Y-64360000D01*
X115401838Y-64190654D01*
X115400343Y-64184505D01*
X115583749Y-64184505D01*
X115590000Y-64200000D01*
X115625944Y-64238159D01*
X115632360Y-64240000D01*
X115649541Y-64209052D01*
X115650000Y-64200000D01*
X115634010Y-64180000D01*
X116770000Y-64180000D01*
X116790000Y-64200000D01*
X116810000Y-64180000D01*
X117490000Y-64180000D01*
X117510000Y-64200000D01*
X117530000Y-64180000D01*
X117510000Y-64160000D01*
X117490000Y-64180000D01*
X116810000Y-64180000D01*
X116790000Y-64160000D01*
X116770000Y-64180000D01*
X115634010Y-64180000D01*
X115619249Y-64161537D01*
X115607639Y-64160000D01*
X115583749Y-64184505D01*
X115400343Y-64184505D01*
X115387903Y-64133333D01*
X115863333Y-64133333D01*
X115868824Y-64157113D01*
X115890000Y-64160000D01*
X115922924Y-64145364D01*
X115916666Y-64133333D01*
X115869196Y-64128546D01*
X115863333Y-64133333D01*
X115387903Y-64133333D01*
X115369501Y-64057639D01*
X116050000Y-64057639D01*
X116063182Y-64115432D01*
X116097817Y-64098107D01*
X116108291Y-64082763D01*
X116103275Y-64031390D01*
X116090652Y-64020403D01*
X116055866Y-64029093D01*
X116050000Y-64057639D01*
X115369501Y-64057639D01*
X115360350Y-64020000D01*
X115450000Y-64020000D01*
X115470000Y-64040000D01*
X115490000Y-64020000D01*
X115470000Y-64000000D01*
X115610000Y-64000000D01*
X115640438Y-64038837D01*
X115650000Y-64040000D01*
X115675518Y-64020000D01*
X117250000Y-64020000D01*
X117270000Y-64040000D01*
X117290000Y-64020000D01*
X117270000Y-64000000D01*
X117250000Y-64020000D01*
X115675518Y-64020000D01*
X115688837Y-64009561D01*
X115690000Y-64000000D01*
X115659561Y-63961162D01*
X115650000Y-63960000D01*
X115611162Y-63990438D01*
X115610000Y-64000000D01*
X115470000Y-64000000D01*
X115450000Y-64020000D01*
X115360350Y-64020000D01*
X115340901Y-63940000D01*
X116130000Y-63940000D01*
X116150000Y-63960000D01*
X116170000Y-63940000D01*
X116150000Y-63920000D01*
X116130000Y-63940000D01*
X115340901Y-63940000D01*
X115331177Y-63900000D01*
X115570000Y-63900000D01*
X115590000Y-63920000D01*
X115610000Y-63900000D01*
X115970000Y-63900000D01*
X115990000Y-63920000D01*
X115992605Y-63917395D01*
X117059807Y-63917395D01*
X117065278Y-63920000D01*
X117101782Y-63891840D01*
X117110000Y-63880000D01*
X117120192Y-63842604D01*
X117114721Y-63840000D01*
X117078217Y-63868159D01*
X117070000Y-63880000D01*
X117059807Y-63917395D01*
X115992605Y-63917395D01*
X116010000Y-63900000D01*
X115990000Y-63880000D01*
X115970000Y-63900000D01*
X115610000Y-63900000D01*
X115590000Y-63880000D01*
X115570000Y-63900000D01*
X115331177Y-63900000D01*
X115328986Y-63890988D01*
X115323075Y-63780000D01*
X116330000Y-63780000D01*
X116350000Y-63800000D01*
X116370000Y-63780000D01*
X116350000Y-63760000D01*
X116330000Y-63780000D01*
X115323075Y-63780000D01*
X115317749Y-63680000D01*
X115416315Y-63680000D01*
X115422601Y-63736785D01*
X115436491Y-63730000D01*
X115441007Y-63660000D01*
X116170000Y-63660000D01*
X116190000Y-63680000D01*
X116210000Y-63660000D01*
X116190000Y-63640000D01*
X116170000Y-63660000D01*
X115441007Y-63660000D01*
X115441774Y-63648106D01*
X115436491Y-63630000D01*
X115421891Y-63624975D01*
X115416315Y-63680000D01*
X115317749Y-63680000D01*
X115313908Y-63607888D01*
X116495540Y-63607888D01*
X116513474Y-63722485D01*
X116570000Y-63800000D01*
X116672232Y-63870217D01*
X116766433Y-63862839D01*
X116827142Y-63817142D01*
X116879464Y-63722249D01*
X116886908Y-63610373D01*
X116875449Y-63580000D01*
X117290000Y-63580000D01*
X117310000Y-63600000D01*
X117330000Y-63580000D01*
X117310000Y-63560000D01*
X117290000Y-63580000D01*
X116875449Y-63580000D01*
X116850920Y-63514987D01*
X116812629Y-63481407D01*
X116686834Y-63442433D01*
X116582836Y-63476867D01*
X116552857Y-63502857D01*
X116495540Y-63607888D01*
X115313908Y-63607888D01*
X115311813Y-63568551D01*
X115345906Y-63380000D01*
X116890000Y-63380000D01*
X116910000Y-63400000D01*
X116930000Y-63380000D01*
X116910000Y-63360000D01*
X116890000Y-63380000D01*
X115345906Y-63380000D01*
X115353139Y-63340000D01*
X115450000Y-63340000D01*
X115470000Y-63360000D01*
X115490000Y-63340000D01*
X115470000Y-63320000D01*
X115450000Y-63340000D01*
X115353139Y-63340000D01*
X115363988Y-63280000D01*
X116370000Y-63280000D01*
X116384635Y-63312924D01*
X116396666Y-63306666D01*
X116401372Y-63260000D01*
X116650000Y-63260000D01*
X116670000Y-63280000D01*
X116830000Y-63280000D01*
X116831828Y-63316918D01*
X116845278Y-63320000D01*
X116896936Y-63293333D01*
X117503333Y-63293333D01*
X117508824Y-63317113D01*
X117530000Y-63320000D01*
X117562924Y-63305364D01*
X117556666Y-63293333D01*
X117509196Y-63288546D01*
X117503333Y-63293333D01*
X116896936Y-63293333D01*
X116901825Y-63290809D01*
X116910000Y-63280000D01*
X116908171Y-63243081D01*
X116894721Y-63240000D01*
X116838174Y-63269190D01*
X116830000Y-63280000D01*
X116670000Y-63280000D01*
X116690000Y-63260000D01*
X116670000Y-63240000D01*
X116650000Y-63260000D01*
X116401372Y-63260000D01*
X116401453Y-63259196D01*
X116396666Y-63253333D01*
X116372886Y-63258824D01*
X116370000Y-63280000D01*
X115363988Y-63280000D01*
X115364276Y-63278405D01*
X115429096Y-63121746D01*
X115444716Y-63100000D01*
X116250000Y-63100000D01*
X116270000Y-63120000D01*
X116290000Y-63100000D01*
X116270000Y-63080000D01*
X116250000Y-63100000D01*
X115444716Y-63100000D01*
X115517604Y-62998523D01*
X115614947Y-62900000D01*
X115930000Y-62900000D01*
X115950000Y-62920000D01*
X116850000Y-62920000D01*
X116864635Y-62952924D01*
X116876666Y-62946666D01*
X116881453Y-62899196D01*
X116876666Y-62893333D01*
X116852886Y-62898824D01*
X116850000Y-62920000D01*
X115950000Y-62920000D01*
X115970000Y-62900000D01*
X115950000Y-62880000D01*
X115930000Y-62900000D01*
X115614947Y-62900000D01*
X115658633Y-62855785D01*
X115701372Y-62820000D01*
X117250000Y-62820000D01*
X117270000Y-62840000D01*
X117290000Y-62820000D01*
X117270000Y-62800000D01*
X117250000Y-62820000D01*
X115701372Y-62820000D01*
X115833101Y-62709703D01*
X115846851Y-62700000D01*
X117290000Y-62700000D01*
X117310000Y-62720000D01*
X117330000Y-62700000D01*
X117310000Y-62680000D01*
X117290000Y-62700000D01*
X115846851Y-62700000D01*
X115960214Y-62620000D01*
X117250000Y-62620000D01*
X117270000Y-62640000D01*
X117290000Y-62620000D01*
X117270000Y-62600000D01*
X117250000Y-62620000D01*
X115960214Y-62620000D01*
X116016895Y-62580000D01*
X116370000Y-62580000D01*
X116390000Y-62600000D01*
X116410000Y-62580000D01*
X116530000Y-62580000D01*
X116550000Y-62600000D01*
X116570000Y-62580000D01*
X116550000Y-62560000D01*
X116530000Y-62580000D01*
X116410000Y-62580000D01*
X116390000Y-62560000D01*
X116370000Y-62580000D01*
X116016895Y-62580000D01*
X116021930Y-62576447D01*
X116180793Y-62484672D01*
X116318328Y-62417781D01*
X116424331Y-62379115D01*
X116529463Y-62362692D01*
X116664384Y-62362526D01*
X116778270Y-62368064D01*
G37*
G36*
X121969206Y-59032193D02*
G01*
X122248777Y-59034643D01*
X122475119Y-59038860D01*
X122640925Y-59044950D01*
X122738884Y-59053022D01*
X122762808Y-59059475D01*
X122771976Y-59105454D01*
X122781854Y-59216467D01*
X122791445Y-59377563D01*
X122799753Y-59573796D01*
X122802261Y-59650950D01*
X122819287Y-60220000D01*
X123077784Y-60206447D01*
X123241760Y-60206920D01*
X123385442Y-60223190D01*
X123455384Y-60242230D01*
X123574489Y-60291565D01*
X123547826Y-60597218D01*
X123538024Y-60781535D01*
X123555104Y-60902222D01*
X123610933Y-60974227D01*
X123717377Y-61012498D01*
X123886301Y-61031982D01*
X123893365Y-61032498D01*
X124130000Y-61049615D01*
X124130000Y-61480528D01*
X124133055Y-61689997D01*
X124142929Y-61828966D01*
X124160684Y-61906729D01*
X124181499Y-61931203D01*
X124204565Y-61958833D01*
X124215983Y-62027564D01*
X124216403Y-62149670D01*
X124206480Y-62337424D01*
X124204589Y-62365482D01*
X124187882Y-62625016D01*
X124168765Y-62948751D01*
X124148057Y-63320954D01*
X124126576Y-63725893D01*
X124105142Y-64147834D01*
X124084575Y-64571045D01*
X124065692Y-64979791D01*
X124051424Y-65307759D01*
X124039861Y-65555440D01*
X124027341Y-65776627D01*
X124014762Y-65958567D01*
X124003025Y-66088511D01*
X123993032Y-66153709D01*
X123991385Y-66157759D01*
X123972902Y-66172387D01*
X123932747Y-66182999D01*
X123863024Y-66189581D01*
X123755835Y-66192117D01*
X123603284Y-66190594D01*
X123397473Y-66184998D01*
X123130505Y-66175314D01*
X122794483Y-66161528D01*
X122650000Y-66155338D01*
X122191863Y-66134624D01*
X121684700Y-66109889D01*
X121121078Y-66080747D01*
X120493566Y-66046813D01*
X119794730Y-66007700D01*
X119690000Y-66001745D01*
X119230137Y-65976915D01*
X118794791Y-65956526D01*
X118366537Y-65940062D01*
X117927945Y-65927001D01*
X117461590Y-65916826D01*
X116950044Y-65909017D01*
X116377848Y-65903071D01*
X115980146Y-65898759D01*
X115657462Y-65893142D01*
X115404822Y-65886006D01*
X115217251Y-65877137D01*
X115089776Y-65866324D01*
X115017421Y-65853352D01*
X114997848Y-65843923D01*
X114980550Y-65786393D01*
X114965770Y-65654627D01*
X114953590Y-65454351D01*
X114944088Y-65191293D01*
X114937343Y-64871178D01*
X114933435Y-64499735D01*
X114932442Y-64082688D01*
X114934444Y-63625766D01*
X114934537Y-63616742D01*
X115082222Y-63616742D01*
X115082590Y-63919806D01*
X115083556Y-64198466D01*
X115085056Y-64439057D01*
X115087022Y-64627912D01*
X115089388Y-64751366D01*
X115089562Y-64757060D01*
X115099003Y-65054121D01*
X115178452Y-64957060D01*
X115224048Y-64903120D01*
X115230018Y-64904485D01*
X115195824Y-64966868D01*
X115173950Y-65004721D01*
X115119852Y-65126753D01*
X115092844Y-65244408D01*
X115092098Y-65264721D01*
X115096551Y-65341931D01*
X115114409Y-65347059D01*
X115150356Y-65300000D01*
X115233971Y-65185675D01*
X115276965Y-65138096D01*
X115278510Y-65157399D01*
X115237778Y-65243725D01*
X115213599Y-65289394D01*
X115138596Y-65431940D01*
X115100753Y-65515090D01*
X115097110Y-65548663D01*
X115124706Y-65542476D01*
X115140000Y-65533485D01*
X115225207Y-65494167D01*
X115259269Y-65516086D01*
X115243857Y-65600390D01*
X115242593Y-65604052D01*
X115203460Y-65694576D01*
X115178708Y-65715191D01*
X115176386Y-65665038D01*
X115186878Y-65610000D01*
X115198396Y-65542000D01*
X115183066Y-65544562D01*
X115171827Y-65560000D01*
X115128173Y-65662889D01*
X115152393Y-65732608D01*
X115240966Y-65759912D01*
X115248012Y-65760000D01*
X115354721Y-65735810D01*
X115406796Y-65690000D01*
X115438628Y-65643308D01*
X115448144Y-65666436D01*
X115448783Y-65686255D01*
X115478033Y-65728733D01*
X115546030Y-65729143D01*
X115626735Y-65692347D01*
X115680098Y-65643058D01*
X115716008Y-65602450D01*
X115713066Y-65628609D01*
X115705818Y-65650000D01*
X115705658Y-65707467D01*
X115748147Y-65718623D01*
X115812611Y-65686043D01*
X115866276Y-65630000D01*
X115932310Y-65540000D01*
X115889748Y-65630000D01*
X115847185Y-65720000D01*
X116398592Y-65722715D01*
X116656416Y-65725157D01*
X116957785Y-65729839D01*
X117266301Y-65736101D01*
X117545561Y-65743286D01*
X117561392Y-65743756D01*
X118172784Y-65762081D01*
X118168617Y-64051040D01*
X118168497Y-63883861D01*
X118269142Y-63883861D01*
X118269408Y-64260470D01*
X118270505Y-64612608D01*
X118272347Y-64932187D01*
X118274850Y-65211120D01*
X118277925Y-65441322D01*
X118281488Y-65614705D01*
X118285451Y-65723183D01*
X118289142Y-65758444D01*
X118333361Y-65769086D01*
X118446188Y-65780802D01*
X118616250Y-65792856D01*
X118832177Y-65804511D01*
X119082595Y-65815030D01*
X119250000Y-65820654D01*
X119532365Y-65830242D01*
X119802406Y-65841231D01*
X120044992Y-65852868D01*
X120244993Y-65864396D01*
X120387279Y-65875060D01*
X120430000Y-65879570D01*
X120616876Y-65900109D01*
X120778809Y-65912292D01*
X120899809Y-65915417D01*
X120963888Y-65908783D01*
X120970000Y-65903271D01*
X120982514Y-65856521D01*
X120996797Y-65816709D01*
X121004121Y-65768922D01*
X120976918Y-65775724D01*
X120949499Y-65778162D01*
X120962332Y-65720518D01*
X120967509Y-65706551D01*
X120975695Y-65646430D01*
X120983672Y-65515221D01*
X120991208Y-65321836D01*
X120998074Y-65075189D01*
X121004039Y-64784190D01*
X121008874Y-64457753D01*
X121012348Y-64104789D01*
X121013475Y-63926534D01*
X121015913Y-63491967D01*
X121016023Y-63465887D01*
X121130611Y-63465887D01*
X121130612Y-63577645D01*
X121131852Y-63991170D01*
X121135158Y-64330365D01*
X121140498Y-64594129D01*
X121147839Y-64781362D01*
X121157149Y-64890963D01*
X121168395Y-64921830D01*
X121170000Y-64920000D01*
X121202111Y-64889248D01*
X121209387Y-64907639D01*
X121180893Y-64971437D01*
X121170000Y-64980000D01*
X121140659Y-65034527D01*
X121131438Y-65112360D01*
X121132877Y-65220000D01*
X121235828Y-65100000D01*
X121293628Y-65038258D01*
X121307087Y-65037563D01*
X121277665Y-65093372D01*
X121206823Y-65201140D01*
X121200302Y-65210583D01*
X121152265Y-65299764D01*
X121139160Y-65366838D01*
X121140020Y-65370061D01*
X121168361Y-65368288D01*
X121223706Y-65311344D01*
X121268475Y-65249478D01*
X121345355Y-65139647D01*
X121389723Y-65088136D01*
X121397099Y-65096470D01*
X121363004Y-65166173D01*
X121325693Y-65230000D01*
X121232438Y-65385914D01*
X121180455Y-65479165D01*
X121168261Y-65514703D01*
X121194372Y-65497482D01*
X121257307Y-65432454D01*
X121268804Y-65420000D01*
X121416036Y-65260000D01*
X121320202Y-65420000D01*
X121240013Y-65556615D01*
X121204314Y-65627685D01*
X121214806Y-65635256D01*
X121273187Y-65581379D01*
X121370000Y-65480000D01*
X121473992Y-65372315D01*
X121528787Y-65323666D01*
X121534220Y-65334840D01*
X121490128Y-65406622D01*
X121396346Y-65539799D01*
X121341977Y-65614400D01*
X121240984Y-65757971D01*
X121186425Y-65848749D01*
X121178782Y-65884053D01*
X121218538Y-65861204D01*
X121306178Y-65777523D01*
X121314027Y-65769412D01*
X121458055Y-65620000D01*
X121369664Y-65752303D01*
X121311223Y-65854745D01*
X121304694Y-65903184D01*
X121343461Y-65898156D01*
X121420909Y-65840200D01*
X121521182Y-65740000D01*
X121616772Y-65638855D01*
X121661888Y-65599673D01*
X121657064Y-65622781D01*
X121602832Y-65708510D01*
X121563441Y-65766174D01*
X121504968Y-65859372D01*
X121496459Y-65905776D01*
X121536363Y-65919798D01*
X121546887Y-65920000D01*
X121601495Y-65891792D01*
X121686850Y-65818346D01*
X121771323Y-65730000D01*
X121860733Y-65632851D01*
X121901378Y-65599007D01*
X121892942Y-65628110D01*
X121835107Y-65719803D01*
X121803441Y-65766174D01*
X121741203Y-65871516D01*
X121734292Y-65921299D01*
X121778013Y-65912857D01*
X121867674Y-65843526D01*
X121894895Y-65818117D01*
X121982635Y-65739703D01*
X122021643Y-65718903D01*
X122014680Y-65747772D01*
X121964342Y-65825719D01*
X121929784Y-65860132D01*
X121891476Y-65911305D01*
X121890000Y-65922360D01*
X121918470Y-65957867D01*
X121988916Y-65950921D01*
X122078888Y-65906500D01*
X122126211Y-65870000D01*
X122178882Y-65828241D01*
X122182543Y-65837757D01*
X122173089Y-65850966D01*
X122137123Y-65921832D01*
X122158051Y-65948750D01*
X122221342Y-65923806D01*
X122256537Y-65896421D01*
X122315625Y-65848170D01*
X122329260Y-65853619D01*
X122318038Y-65890000D01*
X122314847Y-65939228D01*
X122365411Y-65960475D01*
X122421255Y-65964560D01*
X122513092Y-65968635D01*
X122663449Y-65976175D01*
X122852441Y-65986094D01*
X123060184Y-65997305D01*
X123266794Y-66008724D01*
X123452384Y-66019266D01*
X123597072Y-66027843D01*
X123679077Y-66033226D01*
X123774246Y-66003976D01*
X123824391Y-65950000D01*
X123845265Y-65893573D01*
X123862679Y-65792122D01*
X123877289Y-65637825D01*
X123889749Y-65422858D01*
X123900714Y-65139399D01*
X123905545Y-64980000D01*
X123914600Y-64679405D01*
X123924992Y-64365843D01*
X123935899Y-64062160D01*
X123946498Y-63791202D01*
X123955966Y-63575816D01*
X123956549Y-63563734D01*
X123966070Y-63346042D01*
X123969312Y-63197318D01*
X123965624Y-63106726D01*
X123954355Y-63063432D01*
X123934855Y-63056600D01*
X123926318Y-63060610D01*
X123904879Y-63062778D01*
X123938139Y-63015861D01*
X123940000Y-63013726D01*
X123998600Y-62924531D01*
X124007505Y-62862462D01*
X123972931Y-62842483D01*
X123901096Y-62879560D01*
X123888599Y-62890000D01*
X123872677Y-62898141D01*
X123904490Y-62856201D01*
X123920599Y-62837421D01*
X123983816Y-62731273D01*
X124010000Y-62620757D01*
X124010000Y-62506671D01*
X123871665Y-62663335D01*
X123794597Y-62745627D01*
X123743641Y-62790505D01*
X123731665Y-62792432D01*
X123755011Y-62749904D01*
X123817372Y-62667166D01*
X123890000Y-62580000D01*
X123994284Y-62438959D01*
X124046021Y-62321633D01*
X124050000Y-62289070D01*
X124047036Y-62237200D01*
X124029952Y-62221851D01*
X123986459Y-62248493D01*
X123904268Y-62322597D01*
X123842366Y-62381503D01*
X123634732Y-62580000D01*
X123842366Y-62346776D01*
X123940613Y-62232573D01*
X124013759Y-62140218D01*
X124048728Y-62086421D01*
X124050000Y-62081441D01*
X124019889Y-62035419D01*
X123941612Y-62031459D01*
X123833250Y-62066779D01*
X123722056Y-62131913D01*
X123625315Y-62200417D01*
X123586495Y-62223382D01*
X123598760Y-62202240D01*
X123646972Y-62147630D01*
X123701752Y-62073640D01*
X123696351Y-62044381D01*
X123636779Y-62059658D01*
X123529049Y-62119274D01*
X123477207Y-62153192D01*
X123335440Y-62246253D01*
X123257083Y-62291594D01*
X123242381Y-62290592D01*
X123291579Y-62244621D01*
X123404921Y-62155056D01*
X123468945Y-62106832D01*
X123506188Y-62073712D01*
X123499509Y-62052256D01*
X123436963Y-62035842D01*
X123308987Y-62018142D01*
X123198731Y-62010610D01*
X123023897Y-62006237D01*
X122799842Y-62005059D01*
X122541928Y-62007110D01*
X122265513Y-62012423D01*
X122150042Y-62015564D01*
X121849605Y-62025146D01*
X121619389Y-62034436D01*
X121449625Y-62044376D01*
X121330543Y-62055907D01*
X121252375Y-62069971D01*
X121205350Y-62087509D01*
X121180000Y-62109062D01*
X121165807Y-62148298D01*
X121154341Y-62228744D01*
X121145393Y-62356594D01*
X121138754Y-62538039D01*
X121134216Y-62779274D01*
X121131571Y-63086492D01*
X121130611Y-63465887D01*
X121016023Y-63465887D01*
X121017435Y-63130537D01*
X121016704Y-62835383D01*
X121012379Y-62599644D01*
X121003120Y-62416458D01*
X120987588Y-62278965D01*
X120964444Y-62180302D01*
X120932348Y-62113608D01*
X120889961Y-62072022D01*
X120835943Y-62048682D01*
X120768954Y-62036728D01*
X120687655Y-62029297D01*
X120642291Y-62025239D01*
X120530833Y-62016513D01*
X120354113Y-62005279D01*
X120126804Y-61992348D01*
X119863576Y-61978533D01*
X119579099Y-61964647D01*
X119395537Y-61956225D01*
X119085669Y-61942787D01*
X118845898Y-61933723D01*
X118666433Y-61929227D01*
X118537480Y-61929496D01*
X118449246Y-61934723D01*
X118391938Y-61945104D01*
X118355763Y-61960833D01*
X118335537Y-61977319D01*
X118320042Y-61999135D01*
X118307163Y-62035439D01*
X118296656Y-62093167D01*
X118288282Y-62179253D01*
X118281797Y-62300630D01*
X118276962Y-62464234D01*
X118273534Y-62676997D01*
X118271271Y-62945855D01*
X118269933Y-63277742D01*
X118269278Y-63679591D01*
X118269142Y-63883861D01*
X118168497Y-63883861D01*
X118168354Y-63686126D01*
X118169309Y-63344102D01*
X118171370Y-63033675D01*
X118174425Y-62763549D01*
X118178361Y-62542432D01*
X118183067Y-62379029D01*
X118188430Y-62282047D01*
X118191677Y-62260000D01*
X118180366Y-62248176D01*
X118126226Y-62287519D01*
X118039956Y-62369744D01*
X118010861Y-62400000D01*
X117915746Y-62498931D01*
X117871414Y-62540175D01*
X117875176Y-62525545D01*
X117922002Y-62460000D01*
X118011249Y-62347775D01*
X118097167Y-62251566D01*
X118125593Y-62223800D01*
X118187175Y-62148308D01*
X118210084Y-62079855D01*
X118188090Y-62041950D01*
X118174302Y-62040000D01*
X118133199Y-62069504D01*
X118061668Y-62146368D01*
X117986083Y-62240000D01*
X117879131Y-62370109D01*
X117807478Y-62434303D01*
X117772981Y-62431110D01*
X117770000Y-62411373D01*
X117796066Y-62370420D01*
X117864345Y-62290803D01*
X117958250Y-62191624D01*
X118063951Y-62075638D01*
X118105483Y-61998673D01*
X118080921Y-61949494D01*
X117988342Y-61916870D01*
X117908670Y-61902065D01*
X117817988Y-61891927D01*
X117748948Y-61904459D01*
X117677345Y-61950765D01*
X117578976Y-62041949D01*
X117557305Y-62063250D01*
X117458494Y-62154456D01*
X117382031Y-62213560D01*
X117344450Y-62227783D01*
X117344433Y-62227767D01*
X117358105Y-62190888D01*
X117418424Y-62122452D01*
X117465799Y-62078322D01*
X117550395Y-61998077D01*
X117602273Y-61937367D01*
X117610000Y-61920536D01*
X117577857Y-61894284D01*
X117499332Y-61895378D01*
X117401275Y-61918972D01*
X117310539Y-61960217D01*
X117283609Y-61979472D01*
X117234153Y-62017074D01*
X117234548Y-62007360D01*
X117240000Y-62000938D01*
X117282360Y-61938201D01*
X117290000Y-61913176D01*
X117252405Y-61903534D01*
X117149064Y-61897961D01*
X116994138Y-61896718D01*
X116801789Y-61900066D01*
X116720000Y-61902662D01*
X116461177Y-61911336D01*
X116180345Y-61919852D01*
X115911733Y-61927219D01*
X115693661Y-61932363D01*
X115529848Y-61934587D01*
X115398303Y-61939094D01*
X115295486Y-61953826D01*
X115217856Y-61986724D01*
X115161873Y-62045727D01*
X115123996Y-62138776D01*
X115100684Y-62273812D01*
X115088397Y-62458775D01*
X115083594Y-62701605D01*
X115082734Y-63010244D01*
X115082520Y-63302941D01*
X115082222Y-63616742D01*
X114934537Y-63616742D01*
X114939520Y-63134694D01*
X114947749Y-62615200D01*
X114950938Y-62450000D01*
X114958523Y-62077392D01*
X114965148Y-61776988D01*
X114969715Y-61605714D01*
X115093991Y-61605714D01*
X115178842Y-61492857D01*
X115260475Y-61387425D01*
X115298357Y-61347495D01*
X115293048Y-61373848D01*
X115245111Y-61467265D01*
X115208374Y-61533914D01*
X115139908Y-61663955D01*
X115110890Y-61743159D01*
X115116886Y-61787580D01*
X115133972Y-61803301D01*
X115197761Y-61833991D01*
X115248710Y-61819600D01*
X115312917Y-61750313D01*
X115328871Y-61730000D01*
X115380573Y-61666446D01*
X115390318Y-61665605D01*
X115368967Y-61713425D01*
X115339879Y-61800918D01*
X115359135Y-61828124D01*
X115417268Y-61790049D01*
X115449078Y-61755666D01*
X115500797Y-61702692D01*
X115509949Y-61716478D01*
X115505799Y-61730000D01*
X115503544Y-61789098D01*
X115546724Y-61792626D01*
X115607868Y-61750000D01*
X115645118Y-61720008D01*
X115634609Y-61748040D01*
X115633507Y-61750000D01*
X115621109Y-61794689D01*
X115650491Y-61791696D01*
X115702856Y-61745594D01*
X115715688Y-61730000D01*
X115755306Y-61682180D01*
X115756409Y-61698434D01*
X115745517Y-61730785D01*
X115742524Y-61750071D01*
X115753706Y-61765341D01*
X115786913Y-61776936D01*
X115849993Y-61785197D01*
X115950797Y-61790463D01*
X116097173Y-61793077D01*
X116296971Y-61793377D01*
X116558040Y-61791706D01*
X116888230Y-61788404D01*
X117035419Y-61786770D01*
X117382759Y-61784140D01*
X117731487Y-61783835D01*
X118066392Y-61785701D01*
X118372266Y-61789581D01*
X118633898Y-61795321D01*
X118836078Y-61802764D01*
X118890000Y-61805744D01*
X119353016Y-61834085D01*
X119750124Y-61856787D01*
X120095183Y-61874287D01*
X120402053Y-61887024D01*
X120684595Y-61895435D01*
X120956667Y-61899958D01*
X121232131Y-61901032D01*
X121524845Y-61899094D01*
X121750000Y-61896142D01*
X122054165Y-61891607D01*
X122353132Y-61887262D01*
X122630960Y-61883330D01*
X122871712Y-61880034D01*
X123059449Y-61877598D01*
X123150000Y-61876532D01*
X123322051Y-61873439D01*
X123434445Y-61864926D01*
X123507526Y-61845366D01*
X123561635Y-61809134D01*
X123617116Y-61750606D01*
X123620884Y-61746318D01*
X123731768Y-61620000D01*
X123661635Y-61747417D01*
X123621071Y-61848225D01*
X123625574Y-61903856D01*
X123666667Y-61903423D01*
X123733262Y-61839402D01*
X123779928Y-61788582D01*
X123789414Y-61799852D01*
X123786246Y-61810000D01*
X123782339Y-61867594D01*
X123799520Y-61880000D01*
X123873068Y-61842794D01*
X123928729Y-61740739D01*
X123959948Y-61588181D01*
X123964038Y-61520000D01*
X123962733Y-61376788D01*
X123942450Y-61276969D01*
X123891018Y-61211968D01*
X123796264Y-61173210D01*
X123646019Y-61152121D01*
X123428110Y-61140125D01*
X123424645Y-61139986D01*
X123268243Y-61133699D01*
X123047321Y-61124797D01*
X122777291Y-61113902D01*
X122473567Y-61101636D01*
X122151563Y-61088622D01*
X121826692Y-61075482D01*
X121818208Y-61075139D01*
X121545936Y-61066400D01*
X121224864Y-61059974D01*
X120862081Y-61055738D01*
X120464675Y-61053570D01*
X120039732Y-61053350D01*
X119594342Y-61054956D01*
X119135590Y-61058266D01*
X118670566Y-61063159D01*
X118206357Y-61069514D01*
X117750050Y-61077208D01*
X117308733Y-61086121D01*
X116889494Y-61096130D01*
X116499420Y-61107116D01*
X116145599Y-61118955D01*
X115835120Y-61131526D01*
X115575068Y-61144709D01*
X115372533Y-61158381D01*
X115234602Y-61172421D01*
X115168363Y-61186707D01*
X115164710Y-61189184D01*
X115132680Y-61257005D01*
X115109627Y-61370088D01*
X115104811Y-61422041D01*
X115093991Y-61605714D01*
X114969715Y-61605714D01*
X114971440Y-61541009D01*
X114978026Y-61361674D01*
X114985535Y-61231204D01*
X114994592Y-61141817D01*
X115005825Y-61085736D01*
X115019861Y-61055179D01*
X115037327Y-61042366D01*
X115058852Y-61039518D01*
X115064651Y-61039453D01*
X115208995Y-61027468D01*
X115290511Y-60985582D01*
X115324425Y-60901427D01*
X115328257Y-60825334D01*
X115318679Y-60675062D01*
X115302008Y-60548889D01*
X115446988Y-60548889D01*
X115447203Y-60688943D01*
X115478077Y-60821959D01*
X115531558Y-60912457D01*
X115576186Y-60952482D01*
X115631833Y-60978055D01*
X115716110Y-60992300D01*
X115846629Y-60998339D01*
X116021558Y-60999334D01*
X116430000Y-60998668D01*
X116467803Y-60928485D01*
X116573812Y-60928485D01*
X116582232Y-60957934D01*
X116619282Y-60923659D01*
X116677678Y-60830038D01*
X116738135Y-60728088D01*
X116782687Y-60665239D01*
X116797824Y-60654490D01*
X116795630Y-60697778D01*
X116771119Y-60777056D01*
X116734931Y-60894306D01*
X116734192Y-60950489D01*
X116764047Y-60940416D01*
X116819640Y-60858898D01*
X116830000Y-60840000D01*
X116891911Y-60728540D01*
X116921613Y-60688641D01*
X116921808Y-60719884D01*
X116895198Y-60821850D01*
X116892792Y-60830264D01*
X116872573Y-60926862D01*
X116882839Y-60955570D01*
X116916826Y-60919293D01*
X116967766Y-60820939D01*
X116979913Y-60792840D01*
X117025377Y-60698303D01*
X117060674Y-60648880D01*
X117070438Y-60647105D01*
X117069425Y-60693275D01*
X117041863Y-60783622D01*
X117028181Y-60818181D01*
X116993147Y-60916526D01*
X116981900Y-60979667D01*
X116984642Y-60987975D01*
X117035794Y-60994105D01*
X117109325Y-60971023D01*
X117138411Y-60951302D01*
X122522965Y-60951302D01*
X122553728Y-60941067D01*
X122627906Y-60864775D01*
X122640611Y-60850000D01*
X122696421Y-60788385D01*
X122708647Y-60788292D01*
X122692114Y-60827370D01*
X122653531Y-60935572D01*
X122669884Y-60990428D01*
X122710000Y-61000000D01*
X122746015Y-60980420D01*
X122764658Y-60911622D01*
X122769999Y-60778521D01*
X122770000Y-60777639D01*
X122764690Y-60647796D01*
X122745381Y-60590944D01*
X122707002Y-60607163D01*
X122644483Y-60696533D01*
X122596024Y-60780377D01*
X122536702Y-60897174D01*
X122522965Y-60951302D01*
X117138411Y-60951302D01*
X117150261Y-60943267D01*
X117242918Y-60943267D01*
X117263381Y-60938240D01*
X117313629Y-60862186D01*
X117314797Y-60860000D01*
X117530000Y-60860000D01*
X117550000Y-60880000D01*
X117570000Y-60860000D01*
X117550000Y-60840000D01*
X117530000Y-60860000D01*
X117314797Y-60860000D01*
X117325481Y-60840005D01*
X117429600Y-60840005D01*
X117457016Y-60806755D01*
X117489682Y-60750000D01*
X117555394Y-60640721D01*
X117591906Y-60605871D01*
X117599193Y-60645459D01*
X117588479Y-60710000D01*
X117565435Y-60820000D01*
X117630480Y-60720000D01*
X117669609Y-60668825D01*
X117675304Y-60684203D01*
X117672592Y-60693716D01*
X117644661Y-60791102D01*
X117623995Y-60869682D01*
X117617074Y-60938753D01*
X117642330Y-60944611D01*
X117691525Y-60893082D01*
X117756420Y-60789992D01*
X117768606Y-60767408D01*
X117820949Y-60682994D01*
X117846477Y-60670545D01*
X117841195Y-60725353D01*
X117810990Y-60817396D01*
X117789255Y-60897660D01*
X117805174Y-60914662D01*
X117851644Y-60871445D01*
X117921560Y-60771056D01*
X117922456Y-60769608D01*
X117973254Y-60693582D01*
X117998372Y-60668635D01*
X117997945Y-60680000D01*
X117965094Y-60802322D01*
X117948015Y-60878865D01*
X117949435Y-60896524D01*
X117955211Y-60885473D01*
X117984959Y-60853589D01*
X118009148Y-60878622D01*
X118024907Y-60880225D01*
X118030011Y-60813842D01*
X118024543Y-60675176D01*
X118015595Y-60547304D01*
X117988423Y-60494351D01*
X117938654Y-60497253D01*
X117854440Y-60513108D01*
X117732426Y-60524749D01*
X117695118Y-60526644D01*
X117592894Y-60536100D01*
X117528384Y-60566349D01*
X117484665Y-60635110D01*
X117444818Y-60760102D01*
X117434067Y-60800000D01*
X117429600Y-60840005D01*
X117325481Y-60840005D01*
X117380045Y-60737887D01*
X117439211Y-60609428D01*
X117456047Y-60539512D01*
X117435698Y-60520000D01*
X117393744Y-60554621D01*
X117340967Y-60644296D01*
X117300262Y-60740000D01*
X117254470Y-60877206D01*
X117242918Y-60943267D01*
X117150261Y-60943267D01*
X117163273Y-60934444D01*
X117170000Y-60918559D01*
X117140571Y-60898867D01*
X117110000Y-60905534D01*
X117058847Y-60906414D01*
X117059627Y-60853589D01*
X117111092Y-60753121D01*
X117154761Y-60687877D01*
X117211682Y-60613587D01*
X117240449Y-60588428D01*
X117240250Y-60600000D01*
X117199866Y-60733526D01*
X117188305Y-60794840D01*
X117205707Y-60786411D01*
X117246949Y-60720000D01*
X117297905Y-60624302D01*
X117326332Y-60558973D01*
X117328323Y-60550000D01*
X117292425Y-60535698D01*
X117195904Y-60525100D01*
X117058117Y-60520144D01*
X117028578Y-60520000D01*
X116727157Y-60520000D01*
X116648578Y-60703316D01*
X116595450Y-60841537D01*
X116573812Y-60928485D01*
X116467803Y-60928485D01*
X116557349Y-60762238D01*
X116684699Y-60525808D01*
X116498918Y-60532904D01*
X116384792Y-60541298D01*
X116325785Y-60566318D01*
X116297018Y-60624908D01*
X116284844Y-60678687D01*
X116256550Y-60817374D01*
X116333121Y-60718687D01*
X116409693Y-60620000D01*
X116356600Y-60777748D01*
X116311417Y-60880733D01*
X116263374Y-60945436D01*
X116250380Y-60953206D01*
X116215064Y-60945412D01*
X116223167Y-60903380D01*
X116229196Y-60857705D01*
X116213300Y-60857960D01*
X116191098Y-60834751D01*
X116167240Y-60758419D01*
X116146505Y-60655583D01*
X116137064Y-60580000D01*
X116210000Y-60580000D01*
X116218558Y-60633368D01*
X116225720Y-60640000D01*
X116251512Y-60608721D01*
X116264465Y-60580000D01*
X116265296Y-60528493D01*
X116248744Y-60520000D01*
X116214364Y-60552417D01*
X116210000Y-60580000D01*
X116137064Y-60580000D01*
X116133674Y-60552861D01*
X116133525Y-60476870D01*
X116141052Y-60455614D01*
X116184750Y-60449951D01*
X116297311Y-60444274D01*
X116467601Y-60438891D01*
X116684485Y-60434109D01*
X116936827Y-60430236D01*
X117135158Y-60428174D01*
X118110000Y-60420000D01*
X118097148Y-60538530D01*
X118095617Y-60666891D01*
X118108961Y-60788530D01*
X118133625Y-60920000D01*
X119567147Y-60920000D01*
X121000669Y-60920000D01*
X121006029Y-60900000D01*
X121050000Y-60900000D01*
X121070000Y-60920000D01*
X121090000Y-60900000D01*
X121070000Y-60880000D01*
X121050000Y-60900000D01*
X121006029Y-60900000D01*
X121024788Y-60830000D01*
X121026962Y-60816650D01*
X121107237Y-60816650D01*
X121130488Y-60809544D01*
X121201896Y-60748750D01*
X121211544Y-60740000D01*
X121343458Y-60620000D01*
X121250413Y-60780000D01*
X121157368Y-60940000D01*
X121349192Y-60760000D01*
X121541016Y-60580000D01*
X121436567Y-60737726D01*
X121370461Y-60851501D01*
X121355360Y-60909043D01*
X121387108Y-60905970D01*
X121461552Y-60837898D01*
X121495358Y-60799744D01*
X121614561Y-60660000D01*
X121551253Y-60790000D01*
X121512652Y-60875880D01*
X121513448Y-60912062D01*
X121556350Y-60919937D01*
X121567717Y-60920000D01*
X121625974Y-60900114D01*
X121626924Y-60866408D01*
X121631265Y-60837395D01*
X121659807Y-60837395D01*
X121665278Y-60840000D01*
X121701782Y-60811840D01*
X121710000Y-60800000D01*
X121720192Y-60762604D01*
X121714721Y-60760000D01*
X121678217Y-60788159D01*
X121670000Y-60800000D01*
X121659807Y-60837395D01*
X121631265Y-60837395D01*
X121636868Y-60799943D01*
X121668179Y-60761510D01*
X121717541Y-60732454D01*
X121730000Y-60740000D01*
X121754609Y-60743597D01*
X121790000Y-60720000D01*
X121838203Y-60693986D01*
X121844033Y-60722230D01*
X121807662Y-60791243D01*
X121788727Y-60817645D01*
X121735732Y-60899235D01*
X121735968Y-60926572D01*
X121782625Y-60898270D01*
X121852572Y-60830631D01*
X121922234Y-60761768D01*
X121944586Y-60754793D01*
X121932572Y-60787370D01*
X121892524Y-60885397D01*
X121896919Y-60919727D01*
X121929384Y-60899150D01*
X122068384Y-60899150D01*
X122080124Y-60914099D01*
X122140493Y-60865923D01*
X122225797Y-60780000D01*
X122314288Y-60690537D01*
X122371998Y-60639473D01*
X122387921Y-60636402D01*
X122386362Y-60640000D01*
X122342974Y-60715167D01*
X122283441Y-60806174D01*
X122224322Y-60898927D01*
X122216469Y-60931098D01*
X122258848Y-60902641D01*
X122350421Y-60813508D01*
X122354385Y-60809412D01*
X122498771Y-60660000D01*
X122415734Y-60810000D01*
X122365319Y-60911833D01*
X122359669Y-60951195D01*
X122395398Y-60929503D01*
X122469122Y-60848174D01*
X122540608Y-60757722D01*
X122691216Y-60560000D01*
X122580608Y-60559453D01*
X122462119Y-60550318D01*
X122382958Y-60535562D01*
X122319992Y-60534789D01*
X122260894Y-60579865D01*
X122190534Y-60679152D01*
X122105208Y-60820895D01*
X122068384Y-60899150D01*
X121929384Y-60899150D01*
X121942465Y-60890859D01*
X122025871Y-60799294D01*
X122050000Y-60769498D01*
X122132445Y-60662930D01*
X122190211Y-60582493D01*
X122210000Y-60547562D01*
X122173281Y-60537985D01*
X122075383Y-60535539D01*
X121934694Y-60539049D01*
X121769604Y-60547337D01*
X121598500Y-60559227D01*
X121439771Y-60573544D01*
X121311806Y-60589109D01*
X121232993Y-60604747D01*
X121219084Y-60610963D01*
X121185176Y-60627201D01*
X121195394Y-60580369D01*
X121195881Y-60579095D01*
X121204923Y-60529658D01*
X121174070Y-60537484D01*
X121142364Y-60595663D01*
X121147129Y-60626943D01*
X121147679Y-60706240D01*
X121124672Y-60772897D01*
X121107237Y-60816650D01*
X121026962Y-60816650D01*
X121041324Y-60728443D01*
X121049335Y-60601418D01*
X121049453Y-60589234D01*
X121050000Y-60438469D01*
X121940000Y-60449234D01*
X122830000Y-60460000D01*
X122823826Y-60730000D01*
X122817652Y-61000000D01*
X123088928Y-61000000D01*
X123256705Y-60992204D01*
X123367312Y-60970262D01*
X123401893Y-60949767D01*
X123417431Y-60888112D01*
X123420686Y-60775560D01*
X123413682Y-60639927D01*
X123398443Y-60509024D01*
X123376995Y-60410668D01*
X123360190Y-60376857D01*
X123311618Y-60367469D01*
X123189753Y-60358701D01*
X123001299Y-60350568D01*
X122752960Y-60343090D01*
X122451442Y-60336284D01*
X122103449Y-60330167D01*
X121715684Y-60324759D01*
X121294853Y-60320076D01*
X120847661Y-60316136D01*
X120380811Y-60312957D01*
X119901008Y-60310558D01*
X119414956Y-60308955D01*
X118929360Y-60308167D01*
X118450925Y-60308212D01*
X117986355Y-60309107D01*
X117542354Y-60310871D01*
X117125628Y-60313520D01*
X116742879Y-60317074D01*
X116400814Y-60321549D01*
X116106136Y-60326964D01*
X115865549Y-60333336D01*
X115685759Y-60340684D01*
X115573470Y-60349025D01*
X115537399Y-60356039D01*
X115477148Y-60428891D01*
X115446988Y-60548889D01*
X115302008Y-60548889D01*
X115297186Y-60512392D01*
X115291274Y-60480000D01*
X115275713Y-60345987D01*
X115289781Y-60266572D01*
X115294834Y-60260000D01*
X115349821Y-60240319D01*
X115464567Y-60221146D01*
X115618869Y-60205458D01*
X115701817Y-60200000D01*
X115856343Y-60191606D01*
X116210000Y-60191606D01*
X117860000Y-60173668D01*
X118486387Y-60169175D01*
X119122041Y-60169421D01*
X119779789Y-60174574D01*
X120472459Y-60184802D01*
X121212876Y-60200273D01*
X122013868Y-60221154D01*
X122440000Y-60233643D01*
X122650000Y-60240000D01*
X122650000Y-59981357D01*
X122636691Y-59785418D01*
X122600360Y-59624621D01*
X122584162Y-59584652D01*
X122518325Y-59446590D01*
X122134162Y-59417508D01*
X121988481Y-59410596D01*
X121778382Y-59406275D01*
X121519407Y-59404578D01*
X121227098Y-59405537D01*
X120916996Y-59409185D01*
X120650000Y-59414446D01*
X120346642Y-59421183D01*
X119981347Y-59428575D01*
X119572168Y-59436300D01*
X119137162Y-59444035D01*
X118694385Y-59451458D01*
X118261892Y-59458245D01*
X117930000Y-59463076D01*
X117576437Y-59468375D01*
X117247051Y-59474013D01*
X116950605Y-59479788D01*
X116695865Y-59485497D01*
X116491592Y-59490938D01*
X116346552Y-59495910D01*
X116269508Y-59500210D01*
X116260000Y-59501587D01*
X116232289Y-59543435D01*
X116215930Y-59651694D01*
X116210046Y-59832569D01*
X116210000Y-59854548D01*
X116210000Y-60191606D01*
X115856343Y-60191606D01*
X116070000Y-60180000D01*
X116060108Y-59854548D01*
X116055133Y-59690860D01*
X116040266Y-59201720D01*
X116155133Y-59156649D01*
X116221288Y-59145516D01*
X116358470Y-59134321D01*
X116559369Y-59123173D01*
X116816677Y-59112180D01*
X117123084Y-59101448D01*
X117471281Y-59091085D01*
X117853960Y-59081198D01*
X118263810Y-59071896D01*
X118693524Y-59063285D01*
X119135791Y-59055473D01*
X119583303Y-59048568D01*
X120028751Y-59042677D01*
X120464825Y-59037907D01*
X120884217Y-59034366D01*
X121279617Y-59032162D01*
X121643716Y-59031402D01*
X121969206Y-59032193D01*
G37*
D11*
X104477500Y-62254724D02*
X104477500Y-61745276D01*
X105522500Y-62254724D02*
X105522500Y-61745276D01*
%LPC*%
D13*
X101000000Y-54000000D03*
D14*
X101000000Y-51460000D03*
X101000000Y-48920000D03*
D15*
X105000000Y-57125000D03*
X105000000Y-58875000D03*
D13*
X95920000Y-54000000D03*
D14*
X95920000Y-51460000D03*
X95920000Y-48920000D03*
D13*
X98460000Y-54000000D03*
D14*
X98460000Y-51460000D03*
X98460000Y-48920000D03*
D16*
X105000000Y-62912500D03*
X105000000Y-61087500D03*
D17*
X99610000Y-68260000D03*
X99610000Y-64760000D03*
X99610000Y-61260000D03*
D18*
X91680000Y-65470000D03*
D19*
X91680000Y-60470000D03*
%LPD*%
M02*
