G04 #@! TF.GenerationSoftware,KiCad,Pcbnew,9.0.2-9.0.2-0~ubuntu24.04.1*
G04 #@! TF.CreationDate,2025-06-12T12:11:56+02:00*
G04 #@! TF.ProjectId,PCB_Affichage,5043425f-4166-4666-9963-686167652e6b,rev?*
G04 #@! TF.SameCoordinates,Original*
G04 #@! TF.FileFunction,Copper,L1,Top*
G04 #@! TF.FilePolarity,Positive*
%FSLAX46Y46*%
G04 Gerber Fmt 4.6, Leading zero omitted, Abs format (unit mm)*
G04 Created by KiCad (PCBNEW 9.0.2-9.0.2-0~ubuntu24.04.1) date 2025-06-12 12:11:56*
%MOMM*%
%LPD*%
G01*
G04 APERTURE LIST*
G04 Aperture macros list*
%AMRoundRect*
0 Rectangle with rounded corners*
0 $1 Rounding radius*
0 $2 $3 $4 $5 $6 $7 $8 $9 X,Y pos of 4 corners*
0 Add a 4 corners polygon primitive as box body*
4,1,4,$2,$3,$4,$5,$6,$7,$8,$9,$2,$3,0*
0 Add four circle primitives for the rounded corners*
1,1,$1+$1,$2,$3*
1,1,$1+$1,$4,$5*
1,1,$1+$1,$6,$7*
1,1,$1+$1,$8,$9*
0 Add four rect primitives between the rounded corners*
20,1,$1+$1,$2,$3,$4,$5,0*
20,1,$1+$1,$4,$5,$6,$7,0*
20,1,$1+$1,$6,$7,$8,$9,0*
20,1,$1+$1,$8,$9,$2,$3,0*%
G04 Aperture macros list end*
G04 #@! TA.AperFunction,ComponentPad*
%ADD10R,1.700000X1.700000*%
G04 #@! TD*
G04 #@! TA.AperFunction,ComponentPad*
%ADD11C,1.700000*%
G04 #@! TD*
G04 #@! TA.AperFunction,SMDPad,CuDef*
%ADD12RoundRect,0.237500X-0.237500X0.287500X-0.237500X-0.287500X0.237500X-0.287500X0.237500X0.287500X0*%
G04 #@! TD*
G04 #@! TA.AperFunction,SMDPad,CuDef*
%ADD13RoundRect,0.237500X0.237500X-0.250000X0.237500X0.250000X-0.237500X0.250000X-0.237500X-0.250000X0*%
G04 #@! TD*
G04 #@! TA.AperFunction,ComponentPad*
%ADD14C,3.000000*%
G04 #@! TD*
G04 #@! TA.AperFunction,ComponentPad*
%ADD15RoundRect,0.760000X1.140000X-1.140000X1.140000X1.140000X-1.140000X1.140000X-1.140000X-1.140000X0*%
G04 #@! TD*
G04 #@! TA.AperFunction,ComponentPad*
%ADD16C,4.000000*%
G04 #@! TD*
G04 #@! TA.AperFunction,ViaPad*
%ADD17C,0.600000*%
G04 #@! TD*
G04 #@! TA.AperFunction,Conductor*
%ADD18C,0.500000*%
G04 #@! TD*
G04 #@! TA.AperFunction,Conductor*
%ADD19C,0.200000*%
G04 #@! TD*
G04 APERTURE END LIST*
D10*
X101000000Y-54000000D03*
D11*
X101000000Y-51460000D03*
X101000000Y-48920000D03*
D12*
X105000000Y-57125000D03*
X105000000Y-58875000D03*
D10*
X95920000Y-54000000D03*
D11*
X95920000Y-51460000D03*
X95920000Y-48920000D03*
D10*
X98460000Y-54000000D03*
D11*
X98460000Y-51460000D03*
X98460000Y-48920000D03*
D13*
X105000000Y-62912500D03*
X105000000Y-61087500D03*
D14*
X99610000Y-68260000D03*
X99610000Y-64760000D03*
X99610000Y-61260000D03*
D15*
X91680000Y-65470000D03*
D16*
X91680000Y-60470000D03*
D17*
X105050000Y-66490000D03*
X106040000Y-66530000D03*
X106380000Y-65040000D03*
X107470000Y-65040000D03*
X108340000Y-65040000D03*
X96700000Y-58720000D03*
X118090000Y-63090000D03*
X105190000Y-71090000D03*
X113790000Y-71090000D03*
X122390000Y-71090000D03*
X94520000Y-68530000D03*
X87990000Y-55090000D03*
X100890000Y-71090000D03*
X87990000Y-51090000D03*
X96690000Y-62120000D03*
X87990000Y-71090000D03*
X126690000Y-71090000D03*
X109630000Y-62910000D03*
X118090000Y-71090000D03*
X113790000Y-63090000D03*
X118090000Y-67090000D03*
X92300000Y-55120000D03*
X88480000Y-47500000D03*
X105190000Y-47090000D03*
X118090000Y-55090000D03*
X109620000Y-67100000D03*
X96690000Y-68540000D03*
X92290000Y-51090000D03*
X122400000Y-55050000D03*
X113790000Y-59090000D03*
X92290000Y-47090000D03*
X113790000Y-55090000D03*
X122390000Y-59090000D03*
X100890000Y-47090000D03*
X96590000Y-71090000D03*
X103340000Y-58690000D03*
X118090000Y-59090000D03*
X105190000Y-55090000D03*
X106580000Y-58690000D03*
X126690000Y-67090000D03*
X126690000Y-55090000D03*
X98820000Y-57040000D03*
X94520000Y-62110000D03*
X113790000Y-67090000D03*
X103320000Y-61180000D03*
X87990000Y-67090000D03*
X122390000Y-63090000D03*
X87990000Y-63090000D03*
X92080000Y-71100000D03*
X109490000Y-55090000D03*
X94630000Y-56940000D03*
X96590000Y-47090000D03*
X87990000Y-59090000D03*
X109490000Y-71090000D03*
X103310000Y-69170000D03*
D18*
X98460000Y-55380000D02*
X95600000Y-58240000D01*
X98460000Y-48920000D02*
X98460000Y-51460000D01*
X95600000Y-58240000D02*
X95600000Y-65090000D01*
X98460000Y-54000000D02*
X98460000Y-55380000D01*
X98460000Y-51460000D02*
X98460000Y-54000000D01*
D19*
X105000000Y-61087500D02*
X105000000Y-58875000D01*
G04 #@! TA.AperFunction,Conductor*
G36*
X108776109Y-62359655D02*
G01*
X108784735Y-62362214D01*
X108793645Y-62360951D01*
X108817706Y-62371995D01*
X108843092Y-62379526D01*
X108848966Y-62386344D01*
X108857145Y-62390098D01*
X108871416Y-62412398D01*
X108888700Y-62432457D01*
X108890951Y-62442922D01*
X108894807Y-62448948D01*
X108899763Y-62483892D01*
X108899623Y-62557045D01*
X108890185Y-62604258D01*
X108860264Y-62676497D01*
X108860261Y-62676505D01*
X108829500Y-62831153D01*
X108829500Y-62988846D01*
X108860260Y-63143488D01*
X108860262Y-63143493D01*
X108860263Y-63143497D01*
X108872898Y-63174000D01*
X108888846Y-63212503D01*
X108898284Y-63260190D01*
X108891652Y-66742149D01*
X108882214Y-66789364D01*
X108850262Y-66866506D01*
X108850260Y-66866511D01*
X108819500Y-67021153D01*
X108819500Y-67178846D01*
X108850261Y-67333489D01*
X108850264Y-67333501D01*
X108880855Y-67407355D01*
X108882499Y-67415664D01*
X108885337Y-67420098D01*
X108890294Y-67455042D01*
X108890235Y-67486153D01*
X108870423Y-67553155D01*
X108817532Y-67598810D01*
X108766154Y-67609918D01*
X101586876Y-67605213D01*
X101519849Y-67585484D01*
X101474129Y-67532651D01*
X101472396Y-67528665D01*
X101408048Y-67373314D01*
X101408041Y-67373299D01*
X101276924Y-67146196D01*
X101117281Y-66938148D01*
X101117274Y-66938140D01*
X100931860Y-66752726D01*
X100931851Y-66752718D01*
X100723803Y-66593075D01*
X100496700Y-66461958D01*
X100496690Y-66461953D01*
X100254428Y-66361605D01*
X100254421Y-66361603D01*
X100254419Y-66361602D01*
X100001116Y-66293730D01*
X99943339Y-66286123D01*
X99741127Y-66259500D01*
X99741120Y-66259500D01*
X99478880Y-66259500D01*
X99478872Y-66259500D01*
X99247772Y-66289926D01*
X99218884Y-66293730D01*
X98965581Y-66361602D01*
X98965571Y-66361605D01*
X98723309Y-66461953D01*
X98723299Y-66461958D01*
X98496196Y-66593075D01*
X98288148Y-66752718D01*
X98102718Y-66938148D01*
X97943075Y-67146196D01*
X97811958Y-67373299D01*
X97811953Y-67373309D01*
X97748675Y-67526076D01*
X97704833Y-67580480D01*
X97638539Y-67602544D01*
X97634033Y-67602623D01*
X93746442Y-67600076D01*
X93630000Y-67600000D01*
X93629960Y-67600000D01*
X89684000Y-67600000D01*
X89616961Y-67580315D01*
X89571206Y-67527511D01*
X89560000Y-67476000D01*
X89560000Y-63174000D01*
X89579685Y-63106961D01*
X89632489Y-63061206D01*
X89684000Y-63050000D01*
X98679220Y-63050000D01*
X98726673Y-63059439D01*
X98965581Y-63158398D01*
X99218884Y-63226270D01*
X99478880Y-63260500D01*
X99478887Y-63260500D01*
X99741113Y-63260500D01*
X99741120Y-63260500D01*
X100001116Y-63226270D01*
X100254419Y-63158398D01*
X100493327Y-63059439D01*
X100540780Y-63050000D01*
X100889999Y-63050000D01*
X100890000Y-63050000D01*
X101664768Y-62370881D01*
X101728157Y-62341495D01*
X101746846Y-62340130D01*
X108776109Y-62359655D01*
G37*
G04 #@! TD.AperFunction*
G04 #@! TA.AperFunction,Conductor*
G36*
X106184946Y-46520185D02*
G01*
X106230701Y-46572989D01*
X106241905Y-46623832D01*
X106274785Y-52728606D01*
X106274786Y-52728607D01*
X127375673Y-52758063D01*
X127442685Y-52777841D01*
X127488366Y-52830709D01*
X127499500Y-52882063D01*
X127499500Y-71995572D01*
X127499184Y-72004418D01*
X127499184Y-72004419D01*
X127484869Y-72204557D01*
X127482351Y-72222068D01*
X127440646Y-72413787D01*
X127435662Y-72430763D01*
X127367090Y-72614609D01*
X127359740Y-72630701D01*
X127265711Y-72802904D01*
X127256146Y-72817789D01*
X127138558Y-72974867D01*
X127126972Y-72988237D01*
X126988237Y-73126972D01*
X126974867Y-73138558D01*
X126817789Y-73256146D01*
X126802904Y-73265711D01*
X126630701Y-73359740D01*
X126614609Y-73367090D01*
X126430763Y-73435662D01*
X126413787Y-73440646D01*
X126222068Y-73482351D01*
X126204557Y-73484869D01*
X126023779Y-73497799D01*
X126004417Y-73499184D01*
X125995572Y-73499500D01*
X89004428Y-73499500D01*
X88995582Y-73499184D01*
X88973622Y-73497613D01*
X88795442Y-73484869D01*
X88777931Y-73482351D01*
X88586212Y-73440646D01*
X88569236Y-73435662D01*
X88385390Y-73367090D01*
X88369298Y-73359740D01*
X88197095Y-73265711D01*
X88182210Y-73256146D01*
X88025132Y-73138558D01*
X88011762Y-73126972D01*
X87873027Y-72988237D01*
X87861441Y-72974867D01*
X87743849Y-72817784D01*
X87734288Y-72802904D01*
X87640259Y-72630701D01*
X87632909Y-72614609D01*
X87572091Y-72451551D01*
X87564334Y-72430755D01*
X87559355Y-72413797D01*
X87517647Y-72222063D01*
X87515130Y-72204556D01*
X87500816Y-72004418D01*
X87500500Y-71995572D01*
X87500500Y-63174000D01*
X89054500Y-63174000D01*
X89054500Y-67476000D01*
X89054501Y-67476009D01*
X89066052Y-67583450D01*
X89066054Y-67583462D01*
X89077260Y-67634972D01*
X89111383Y-67737497D01*
X89111386Y-67737503D01*
X89189171Y-67858537D01*
X89189179Y-67858548D01*
X89234923Y-67911340D01*
X89234926Y-67911343D01*
X89234930Y-67911347D01*
X89343664Y-68005567D01*
X89343667Y-68005568D01*
X89343668Y-68005569D01*
X89460717Y-68059025D01*
X89474541Y-68065338D01*
X89541580Y-68085023D01*
X89541584Y-68085024D01*
X89684000Y-68105500D01*
X89684003Y-68105500D01*
X93629629Y-68105500D01*
X97485581Y-68108025D01*
X97552608Y-68127753D01*
X97598328Y-68180587D01*
X97609500Y-68232025D01*
X97609500Y-68391127D01*
X97636123Y-68593339D01*
X97643730Y-68651116D01*
X97711602Y-68904418D01*
X97711605Y-68904428D01*
X97811953Y-69146690D01*
X97811958Y-69146700D01*
X97943075Y-69373803D01*
X98102718Y-69581851D01*
X98102726Y-69581860D01*
X98288140Y-69767274D01*
X98288148Y-69767281D01*
X98496196Y-69926924D01*
X98723299Y-70058041D01*
X98723309Y-70058046D01*
X98965571Y-70158394D01*
X98965581Y-70158398D01*
X99218884Y-70226270D01*
X99478880Y-70260500D01*
X99478887Y-70260500D01*
X99741113Y-70260500D01*
X99741120Y-70260500D01*
X100001116Y-70226270D01*
X100254419Y-70158398D01*
X100496697Y-70058043D01*
X100723803Y-69926924D01*
X100931851Y-69767282D01*
X100931855Y-69767277D01*
X100931860Y-69767274D01*
X101117274Y-69581860D01*
X101117277Y-69581855D01*
X101117282Y-69581851D01*
X101276924Y-69373803D01*
X101408043Y-69146697D01*
X101508398Y-68904419D01*
X101576270Y-68651116D01*
X101610500Y-68391120D01*
X101610500Y-68234809D01*
X101630185Y-68167770D01*
X101682989Y-68122015D01*
X101734576Y-68110809D01*
X108765823Y-68115418D01*
X108872976Y-68104002D01*
X108924354Y-68092894D01*
X109026652Y-68059026D01*
X109147839Y-67981468D01*
X109200730Y-67935813D01*
X109295156Y-67827257D01*
X109355175Y-67696493D01*
X109374392Y-67631502D01*
X109374870Y-67629980D01*
X109374988Y-67629486D01*
X109395734Y-67487112D01*
X109395793Y-67456001D01*
X109390783Y-67384045D01*
X109385826Y-67349101D01*
X109370623Y-67278578D01*
X109364541Y-67265197D01*
X109360084Y-67253967D01*
X109359389Y-67251934D01*
X109347877Y-67213910D01*
X109339497Y-67193680D01*
X109338224Y-67189952D01*
X109338132Y-67187845D01*
X109333953Y-67174069D01*
X109327382Y-67141031D01*
X109325000Y-67116842D01*
X109325000Y-67083154D01*
X109327382Y-67058966D01*
X109333951Y-67025937D01*
X109341009Y-67002670D01*
X109349238Y-66982803D01*
X109377908Y-66888450D01*
X109387346Y-66841235D01*
X109397151Y-66743112D01*
X109403783Y-63261153D01*
X109403782Y-63261142D01*
X109394167Y-63162063D01*
X109394166Y-63162058D01*
X109394165Y-63162047D01*
X109384727Y-63114360D01*
X109355869Y-63019062D01*
X109351007Y-63007326D01*
X109343951Y-62984062D01*
X109337382Y-62951032D01*
X109335000Y-62926845D01*
X109335000Y-62893152D01*
X109337382Y-62868965D01*
X109343952Y-62835929D01*
X109351006Y-62812670D01*
X109357210Y-62797695D01*
X109385878Y-62703348D01*
X109390386Y-62680800D01*
X109395312Y-62656156D01*
X109395312Y-62656152D01*
X109395316Y-62656135D01*
X109400787Y-62601387D01*
X109405121Y-62558029D01*
X109405121Y-62558022D01*
X109405122Y-62558012D01*
X109405262Y-62484859D01*
X109400254Y-62412909D01*
X109395298Y-62377965D01*
X109380109Y-62307484D01*
X109367779Y-62280344D01*
X109349100Y-62223741D01*
X109324730Y-62185589D01*
X109320596Y-62176488D01*
X109316740Y-62170462D01*
X109289078Y-62127233D01*
X109289060Y-62127211D01*
X109283272Y-62118168D01*
X109282942Y-62117646D01*
X109282924Y-62117621D01*
X109282919Y-62117615D01*
X109282917Y-62117612D01*
X109282570Y-62117210D01*
X109271936Y-62102936D01*
X109271649Y-62102486D01*
X109254365Y-62082427D01*
X109227532Y-62051286D01*
X109226054Y-62049572D01*
X109226046Y-62049561D01*
X109226043Y-62049558D01*
X109226041Y-62049556D01*
X109225137Y-62048768D01*
X109212741Y-62036312D01*
X109188907Y-62008700D01*
X109188904Y-62008697D01*
X109171876Y-61997708D01*
X109158803Y-61989272D01*
X109144580Y-61978572D01*
X109141663Y-61976030D01*
X109117571Y-61955036D01*
X109084415Y-61939782D01*
X109072543Y-61933520D01*
X109070754Y-61932449D01*
X109068010Y-61930678D01*
X109067098Y-61930259D01*
X109067094Y-61930257D01*
X109023811Y-61910390D01*
X109004517Y-61901535D01*
X109004514Y-61901534D01*
X109003974Y-61901374D01*
X109002580Y-61900952D01*
X108994766Y-61898539D01*
X108986860Y-61894902D01*
X108961474Y-61887371D01*
X108961232Y-61888183D01*
X108928371Y-61878034D01*
X108928504Y-61877590D01*
X108919878Y-61875031D01*
X108919871Y-61875029D01*
X108917522Y-61874684D01*
X108916527Y-61874377D01*
X108901548Y-61871081D01*
X108866580Y-61860740D01*
X108866581Y-61860740D01*
X108830716Y-61860668D01*
X108812979Y-61859356D01*
X108777522Y-61854157D01*
X106012485Y-61846476D01*
X105945500Y-61826605D01*
X105899892Y-61773674D01*
X105890141Y-61704488D01*
X105907293Y-61657375D01*
X105910908Y-61651516D01*
X105965174Y-61487753D01*
X105975500Y-61386677D01*
X105975499Y-60788324D01*
X105965174Y-60687247D01*
X105910908Y-60523484D01*
X105820340Y-60376650D01*
X105698350Y-60254660D01*
X105698349Y-60254659D01*
X105659402Y-60230636D01*
X105612678Y-60178687D01*
X105600500Y-60125098D01*
X105600500Y-59874900D01*
X105620185Y-59807861D01*
X105659401Y-59769363D01*
X105698350Y-59745340D01*
X105820340Y-59623350D01*
X105910908Y-59476516D01*
X105965174Y-59312753D01*
X105975500Y-59211677D01*
X105975499Y-58538324D01*
X105973070Y-58514549D01*
X105965174Y-58437247D01*
X105910908Y-58273484D01*
X105820340Y-58126650D01*
X105698350Y-58004660D01*
X105551516Y-57914092D01*
X105387753Y-57859826D01*
X105387751Y-57859825D01*
X105286678Y-57849500D01*
X104713330Y-57849500D01*
X104713312Y-57849501D01*
X104612247Y-57859825D01*
X104448484Y-57914092D01*
X104448481Y-57914093D01*
X104301648Y-58004661D01*
X104179661Y-58126648D01*
X104089093Y-58273481D01*
X104089092Y-58273484D01*
X104034826Y-58437247D01*
X104034826Y-58437248D01*
X104034825Y-58437248D01*
X104024500Y-58538315D01*
X104024500Y-59211669D01*
X104024501Y-59211687D01*
X104034825Y-59312752D01*
X104071109Y-59422249D01*
X104089092Y-59476516D01*
X104179660Y-59623350D01*
X104301650Y-59745340D01*
X104340597Y-59769362D01*
X104387320Y-59821307D01*
X104399500Y-59874900D01*
X104399500Y-60125098D01*
X104379815Y-60192137D01*
X104340598Y-60230636D01*
X104301650Y-60254659D01*
X104179661Y-60376648D01*
X104089093Y-60523481D01*
X104089092Y-60523484D01*
X104034826Y-60687247D01*
X104034826Y-60687248D01*
X104034825Y-60687248D01*
X104024500Y-60788315D01*
X104024500Y-61386669D01*
X104024501Y-61386687D01*
X104034825Y-61487752D01*
X104089092Y-61651515D01*
X104089094Y-61651520D01*
X104089231Y-61651741D01*
X104089278Y-61651913D01*
X104092146Y-61658064D01*
X104091095Y-61658553D01*
X104107672Y-61719133D01*
X104086750Y-61785797D01*
X104033109Y-61830567D01*
X103983349Y-61840839D01*
X101809084Y-61834800D01*
X101748250Y-61834632D01*
X101748249Y-61834632D01*
X101748241Y-61834632D01*
X101710007Y-61835973D01*
X101691349Y-61837336D01*
X101653370Y-61841558D01*
X101515547Y-61882880D01*
X101453807Y-61911502D01*
X101452491Y-61912088D01*
X101452156Y-61912267D01*
X101331561Y-61990744D01*
X100734897Y-62513748D01*
X100671508Y-62543135D01*
X100653161Y-62544500D01*
X100540780Y-62544500D01*
X100525960Y-62545959D01*
X100442171Y-62554211D01*
X100394716Y-62563650D01*
X100394710Y-62563651D01*
X100394709Y-62563652D01*
X100299880Y-62592418D01*
X100299878Y-62592418D01*
X100299874Y-62592420D01*
X100099091Y-62675586D01*
X100083732Y-62680800D01*
X99910131Y-62727315D01*
X99894225Y-62730479D01*
X99745789Y-62750023D01*
X99716045Y-62753939D01*
X99699861Y-62755000D01*
X99520139Y-62755000D01*
X99503954Y-62753939D01*
X99470818Y-62749576D01*
X99325773Y-62730479D01*
X99309867Y-62727315D01*
X99136266Y-62680800D01*
X99120906Y-62675586D01*
X98920121Y-62592418D01*
X98880717Y-62580465D01*
X98825291Y-62563652D01*
X98825286Y-62563651D01*
X98825283Y-62563650D01*
X98777828Y-62554211D01*
X98695243Y-62546078D01*
X98679220Y-62544500D01*
X98679218Y-62544500D01*
X96474500Y-62544500D01*
X96407461Y-62524815D01*
X96361706Y-62472011D01*
X96350500Y-62420500D01*
X96350500Y-58602230D01*
X96370185Y-58535191D01*
X96386819Y-58514549D01*
X97139788Y-57761580D01*
X99042952Y-55858416D01*
X99092186Y-55784729D01*
X99125084Y-55735495D01*
X99181658Y-55598913D01*
X99187990Y-55567080D01*
X99211219Y-55450307D01*
X99243604Y-55388396D01*
X99304320Y-55353822D01*
X99332836Y-55350499D01*
X99357871Y-55350499D01*
X99357872Y-55350499D01*
X99417483Y-55344091D01*
X99552331Y-55293796D01*
X99655690Y-55216421D01*
X99721152Y-55192004D01*
X99789425Y-55206855D01*
X99804303Y-55216416D01*
X99907665Y-55293793D01*
X99907668Y-55293795D01*
X99907671Y-55293797D01*
X100042517Y-55344091D01*
X100042516Y-55344091D01*
X100049444Y-55344835D01*
X100102127Y-55350500D01*
X101897872Y-55350499D01*
X101957483Y-55344091D01*
X102092331Y-55293796D01*
X102207546Y-55207546D01*
X102293796Y-55092331D01*
X102344091Y-54957483D01*
X102350500Y-54897873D01*
X102350499Y-53102128D01*
X102344091Y-53042517D01*
X102293796Y-52907669D01*
X102293795Y-52907668D01*
X102293793Y-52907664D01*
X102207547Y-52792455D01*
X102207544Y-52792452D01*
X102092335Y-52706206D01*
X102092328Y-52706202D01*
X101960917Y-52657189D01*
X101904983Y-52615318D01*
X101880566Y-52549853D01*
X101895418Y-52481580D01*
X101916563Y-52453332D01*
X102030104Y-52339792D01*
X102155051Y-52167816D01*
X102251557Y-51978412D01*
X102317246Y-51776243D01*
X102350500Y-51566287D01*
X102350500Y-51353713D01*
X102317246Y-51143757D01*
X102251557Y-50941588D01*
X102155051Y-50752184D01*
X102155049Y-50752181D01*
X102155048Y-50752179D01*
X102030109Y-50580213D01*
X101879786Y-50429890D01*
X101707820Y-50304951D01*
X101707115Y-50304591D01*
X101699054Y-50300485D01*
X101648259Y-50252512D01*
X101631463Y-50184692D01*
X101653999Y-50118556D01*
X101699054Y-50079515D01*
X101707816Y-50075051D01*
X101795655Y-50011233D01*
X101879786Y-49950109D01*
X101879788Y-49950106D01*
X101879792Y-49950104D01*
X102030104Y-49799792D01*
X102030106Y-49799788D01*
X102030109Y-49799786D01*
X102155048Y-49627820D01*
X102155047Y-49627820D01*
X102155051Y-49627816D01*
X102251557Y-49438412D01*
X102317246Y-49236243D01*
X102350500Y-49026287D01*
X102350500Y-48813713D01*
X102317246Y-48603757D01*
X102251557Y-48401588D01*
X102155051Y-48212184D01*
X102155049Y-48212181D01*
X102155048Y-48212179D01*
X102030109Y-48040213D01*
X101879786Y-47889890D01*
X101707820Y-47764951D01*
X101518414Y-47668444D01*
X101518413Y-47668443D01*
X101518412Y-47668443D01*
X101316243Y-47602754D01*
X101316241Y-47602753D01*
X101316240Y-47602753D01*
X101154957Y-47577208D01*
X101106287Y-47569500D01*
X100893713Y-47569500D01*
X100845042Y-47577208D01*
X100683760Y-47602753D01*
X100481585Y-47668444D01*
X100292179Y-47764951D01*
X100120213Y-47889890D01*
X99969890Y-48040213D01*
X99844949Y-48212182D01*
X99840484Y-48220946D01*
X99792509Y-48271742D01*
X99724688Y-48288536D01*
X99658553Y-48265998D01*
X99619516Y-48220946D01*
X99615050Y-48212182D01*
X99490109Y-48040213D01*
X99339786Y-47889890D01*
X99167820Y-47764951D01*
X98978414Y-47668444D01*
X98978413Y-47668443D01*
X98978412Y-47668443D01*
X98776243Y-47602754D01*
X98776241Y-47602753D01*
X98776240Y-47602753D01*
X98614957Y-47577208D01*
X98566287Y-47569500D01*
X98353713Y-47569500D01*
X98305042Y-47577208D01*
X98143760Y-47602753D01*
X97941585Y-47668444D01*
X97752179Y-47764951D01*
X97580213Y-47889890D01*
X97429890Y-48040213D01*
X97304951Y-48212179D01*
X97208444Y-48401585D01*
X97142753Y-48603760D01*
X97109500Y-48813713D01*
X97109500Y-49026286D01*
X97142753Y-49236239D01*
X97208444Y-49438414D01*
X97304951Y-49627820D01*
X97429890Y-49799786D01*
X97429896Y-49799792D01*
X97580208Y-49950104D01*
X97658384Y-50006902D01*
X97661725Y-50011233D01*
X97666703Y-50013507D01*
X97682833Y-50038606D01*
X97701051Y-50062231D01*
X97702304Y-50068904D01*
X97704477Y-50072285D01*
X97709500Y-50107220D01*
X97709500Y-50272779D01*
X97689815Y-50339818D01*
X97658385Y-50373097D01*
X97580211Y-50429893D01*
X97580205Y-50429898D01*
X97429890Y-50580213D01*
X97304951Y-50752179D01*
X97208444Y-50941585D01*
X97142753Y-51143760D01*
X97109500Y-51353713D01*
X97109500Y-51566286D01*
X97142753Y-51776239D01*
X97208444Y-51978414D01*
X97304951Y-52167820D01*
X97429890Y-52339786D01*
X97543430Y-52453326D01*
X97576915Y-52514649D01*
X97571931Y-52584341D01*
X97530059Y-52640274D01*
X97499083Y-52657189D01*
X97367669Y-52706203D01*
X97367664Y-52706206D01*
X97252455Y-52792452D01*
X97252452Y-52792455D01*
X97166206Y-52907664D01*
X97166202Y-52907671D01*
X97115908Y-53042517D01*
X97109501Y-53102116D01*
X97109501Y-53102123D01*
X97109500Y-53102135D01*
X97109500Y-54897870D01*
X97109501Y-54897876D01*
X97115908Y-54957483D01*
X97166202Y-55092328D01*
X97166206Y-55092335D01*
X97252452Y-55207544D01*
X97252453Y-55207544D01*
X97252454Y-55207546D01*
X97264311Y-55216422D01*
X97320116Y-55258198D01*
X97361986Y-55314132D01*
X97366970Y-55383824D01*
X97333485Y-55445145D01*
X95017050Y-57761580D01*
X95017044Y-57761588D01*
X94967812Y-57835268D01*
X94967813Y-57835269D01*
X94934921Y-57884496D01*
X94934914Y-57884508D01*
X94878342Y-58021086D01*
X94878340Y-58021092D01*
X94849500Y-58166079D01*
X94849500Y-62420500D01*
X94829815Y-62487539D01*
X94777011Y-62533294D01*
X94725500Y-62544500D01*
X89684000Y-62544500D01*
X89683991Y-62544500D01*
X89683990Y-62544501D01*
X89576549Y-62556052D01*
X89576537Y-62556054D01*
X89525027Y-62567260D01*
X89422502Y-62601383D01*
X89422496Y-62601386D01*
X89301462Y-62679171D01*
X89301451Y-62679179D01*
X89248659Y-62724923D01*
X89154433Y-62833664D01*
X89154430Y-62833668D01*
X89094664Y-62964534D01*
X89078652Y-63019066D01*
X89074977Y-63031580D01*
X89074976Y-63031584D01*
X89054500Y-63174000D01*
X87500500Y-63174000D01*
X87500500Y-48004427D01*
X87500816Y-47995581D01*
X87515130Y-47795443D01*
X87517646Y-47777938D01*
X87559356Y-47586199D01*
X87564333Y-47569248D01*
X87632911Y-47385385D01*
X87640259Y-47369298D01*
X87702815Y-47254734D01*
X87734291Y-47197089D01*
X87743845Y-47182221D01*
X87861448Y-47025123D01*
X87873020Y-47011769D01*
X88011769Y-46873020D01*
X88025123Y-46861448D01*
X88182221Y-46743845D01*
X88197089Y-46734291D01*
X88369298Y-46640258D01*
X88385385Y-46632911D01*
X88569248Y-46564333D01*
X88586199Y-46559356D01*
X88777938Y-46517646D01*
X88795436Y-46515130D01*
X88995582Y-46500816D01*
X89004428Y-46500500D01*
X89065892Y-46500500D01*
X106117907Y-46500500D01*
X106184946Y-46520185D01*
G37*
G04 #@! TD.AperFunction*
M02*
