M48
; DRILL file {KiCad 9.0.2-9.0.2-0~ubuntu24.04.1} date 2025-06-11T11:09:24+0200
; FORMAT={-:-/ absolute / metric / decimal}
; #@! TF.CreationDate,2025-06-11T11:09:24+02:00
; #@! TF.GenerationSoftware,Kicad,Pcbnew,9.0.2-9.0.2-0~ubuntu24.04.1
; #@! TF.FileFunction,Plated,1,2,PTH
FMAT,2
METRIC
; #@! TA.AperFunction,Plated,PTH,ViaDrill
T1C0.300
; #@! TA.AperFunction,Plated,PTH,ComponentDrill
T2C1.900
; #@! TA.AperFunction,Plated,PTH,ComponentDrill
T3C2.700
%
G90
G05
T1
X87.99Y-51.09
X87.99Y-55.09
X87.99Y-59.09
X87.99Y-63.09
X87.99Y-67.09
X87.99Y-71.09
X92.29Y-47.09
X92.29Y-51.09
X92.29Y-67.09
X96.59Y-47.09
X96.59Y-51.09
X96.59Y-55.09
X96.59Y-59.09
X96.59Y-71.09
X100.89Y-47.09
X100.89Y-51.09
X100.89Y-55.09
X100.89Y-59.09
X100.89Y-71.09
X105.19Y-47.09
X105.19Y-51.09
X105.19Y-55.09
X105.19Y-59.09
X105.19Y-71.09
X109.49Y-55.09
X109.49Y-63.09
X109.49Y-71.09
X113.79Y-55.09
X113.79Y-59.09
X113.79Y-63.09
X113.79Y-67.09
X113.79Y-71.09
X118.09Y-55.09
X118.09Y-59.09
X118.09Y-63.09
X118.09Y-67.09
X118.09Y-71.09
X122.39Y-59.09
X122.39Y-63.09
X122.39Y-71.09
X126.69Y-55.09
X126.69Y-67.09
X126.69Y-71.09
T2
X99.61Y-61.26
X99.61Y-64.76
X99.61Y-68.26
T3
X91.1Y-56.83
X91.1Y-61.83
M30
