M48
; DRILL file {KiCad 9.0.2-9.0.2-0~ubuntu24.04.1} date 2025-06-12T12:11:49+0200
; FORMAT={-:-/ absolute / metric / decimal}
; #@! TF.CreationDate,2025-06-12T12:11:49+02:00
; #@! TF.GenerationSoftware,Kicad,Pcbnew,9.0.2-9.0.2-0~ubuntu24.04.1
; #@! TF.FileFunction,Plated,1,2,PTH
FMAT,2
METRIC
; #@! TA.AperFunction,Plated,PTH,ViaDrill
T1C0.300
; #@! TA.AperFunction,Plated,PTH,ComponentDrill
T2C1.000
; #@! TA.AperFunction,Plated,PTH,ComponentDrill
T3C1.900
; #@! TA.AperFunction,Plated,PTH,ComponentDrill
T4C2.700
%
G90
G05
T1
X87.99Y-51.09
X87.99Y-55.09
X87.99Y-59.09
X87.99Y-63.09
X87.99Y-67.09
X87.99Y-71.09
X88.48Y-47.5
X92.08Y-71.1
X92.29Y-47.09
X92.29Y-51.09
X92.3Y-55.12
X94.52Y-62.11
X94.52Y-68.53
X94.63Y-56.94
X96.59Y-47.09
X96.59Y-71.09
X96.69Y-62.12
X96.69Y-68.54
X96.7Y-58.72
X98.82Y-57.04
X100.89Y-47.09
X100.89Y-71.09
X103.31Y-69.17
X103.32Y-61.18
X103.34Y-58.69
X105.05Y-66.49
X105.19Y-47.09
X105.19Y-55.09
X105.19Y-71.09
X106.04Y-66.53
X106.38Y-65.04
X106.58Y-58.69
X107.47Y-65.04
X108.34Y-65.04
X109.49Y-55.09
X109.49Y-71.09
X109.62Y-67.1
X109.63Y-62.91
X113.79Y-55.09
X113.79Y-59.09
X113.79Y-63.09
X113.79Y-67.09
X113.79Y-71.09
X118.09Y-55.09
X118.09Y-59.09
X118.09Y-63.09
X118.09Y-67.09
X118.09Y-71.09
X122.39Y-59.09
X122.39Y-63.09
X122.39Y-71.09
X122.4Y-55.05
X126.69Y-55.09
X126.69Y-67.09
X126.69Y-71.09
T2
X95.92Y-48.92
X95.92Y-51.46
X95.92Y-54.0
X98.46Y-48.92
X98.46Y-51.46
X98.46Y-54.0
X101.0Y-48.92
X101.0Y-51.46
X101.0Y-54.0
T3
X99.61Y-61.26
X99.61Y-64.76
X99.61Y-68.26
T4
X91.68Y-60.47
X91.68Y-65.47
M30
