G04 #@! TF.GenerationSoftware,KiCad,Pcbnew,9.0.2-9.0.2-0~ubuntu24.04.1*
G04 #@! TF.CreationDate,2025-06-11T11:10:21+02:00*
G04 #@! TF.ProjectId,PCB_Affichage,5043425f-4166-4666-9963-686167652e6b,rev?*
G04 #@! TF.SameCoordinates,Original*
G04 #@! TF.FileFunction,Legend,Top*
G04 #@! TF.FilePolarity,Positive*
%FSLAX46Y46*%
G04 Gerber Fmt 4.6, Leading zero omitted, Abs format (unit mm)*
G04 Created by KiCad (PCBNEW 9.0.2-9.0.2-0~ubuntu24.04.1) date 2025-06-11 11:10:21*
%MOMM*%
%LPD*%
G01*
G04 APERTURE LIST*
G04 Aperture macros list*
%AMRoundRect*
0 Rectangle with rounded corners*
0 $1 Rounding radius*
0 $2 $3 $4 $5 $6 $7 $8 $9 X,Y pos of 4 corners*
0 Add a 4 corners polygon primitive as box body*
4,1,4,$2,$3,$4,$5,$6,$7,$8,$9,$2,$3,0*
0 Add four circle primitives for the rounded corners*
1,1,$1+$1,$2,$3*
1,1,$1+$1,$4,$5*
1,1,$1+$1,$6,$7*
1,1,$1+$1,$8,$9*
0 Add four rect primitives between the rounded corners*
20,1,$1+$1,$2,$3,$4,$5,0*
20,1,$1+$1,$4,$5,$6,$7,0*
20,1,$1+$1,$6,$7,$8,$9,0*
20,1,$1+$1,$8,$9,$2,$3,0*%
G04 Aperture macros list end*
%ADD10C,0.150000*%
%ADD11C,0.120000*%
%ADD12C,0.000000*%
%ADD13RoundRect,0.237500X0.287500X0.237500X-0.287500X0.237500X-0.287500X-0.237500X0.287500X-0.237500X0*%
%ADD14RoundRect,0.237500X-0.237500X0.250000X-0.237500X-0.250000X0.237500X-0.250000X0.237500X0.250000X0*%
%ADD15C,3.000000*%
%ADD16RoundRect,0.760000X1.140000X-1.140000X1.140000X1.140000X-1.140000X1.140000X-1.140000X-1.140000X0*%
%ADD17C,4.000000*%
G04 APERTURE END LIST*
D10*
X90811905Y-73014819D02*
X90811905Y-72014819D01*
X90811905Y-72014819D02*
X91050000Y-72014819D01*
X91050000Y-72014819D02*
X91192857Y-72062438D01*
X91192857Y-72062438D02*
X91288095Y-72157676D01*
X91288095Y-72157676D02*
X91335714Y-72252914D01*
X91335714Y-72252914D02*
X91383333Y-72443390D01*
X91383333Y-72443390D02*
X91383333Y-72586247D01*
X91383333Y-72586247D02*
X91335714Y-72776723D01*
X91335714Y-72776723D02*
X91288095Y-72871961D01*
X91288095Y-72871961D02*
X91192857Y-72967200D01*
X91192857Y-72967200D02*
X91050000Y-73014819D01*
X91050000Y-73014819D02*
X90811905Y-73014819D01*
X92335714Y-73014819D02*
X91764286Y-73014819D01*
X92050000Y-73014819D02*
X92050000Y-72014819D01*
X92050000Y-72014819D02*
X91954762Y-72157676D01*
X91954762Y-72157676D02*
X91859524Y-72252914D01*
X91859524Y-72252914D02*
X91764286Y-72300533D01*
X92704819Y-67694166D02*
X92228628Y-68027499D01*
X92704819Y-68265594D02*
X91704819Y-68265594D01*
X91704819Y-68265594D02*
X91704819Y-67884642D01*
X91704819Y-67884642D02*
X91752438Y-67789404D01*
X91752438Y-67789404D02*
X91800057Y-67741785D01*
X91800057Y-67741785D02*
X91895295Y-67694166D01*
X91895295Y-67694166D02*
X92038152Y-67694166D01*
X92038152Y-67694166D02*
X92133390Y-67741785D01*
X92133390Y-67741785D02*
X92181009Y-67789404D01*
X92181009Y-67789404D02*
X92228628Y-67884642D01*
X92228628Y-67884642D02*
X92228628Y-68265594D01*
X92704819Y-66741785D02*
X92704819Y-67313213D01*
X92704819Y-67027499D02*
X91704819Y-67027499D01*
X91704819Y-67027499D02*
X91847676Y-67122737D01*
X91847676Y-67122737D02*
X91942914Y-67217975D01*
X91942914Y-67217975D02*
X91990533Y-67313213D01*
D11*
X90735000Y-71705000D02*
X93195000Y-71705000D01*
X93195000Y-70235000D02*
X90735000Y-70235000D01*
X93195000Y-71705000D02*
X93195000Y-70235000D01*
D12*
G36*
X94809526Y-52015640D02*
G01*
X94784477Y-52040690D01*
X94759427Y-52015640D01*
X94784477Y-51990591D01*
X94809526Y-52015640D01*
G37*
G36*
X115450989Y-53827262D02*
G01*
X115469521Y-54000368D01*
X115483609Y-54267353D01*
X115489070Y-54470345D01*
X115491796Y-54799850D01*
X115485476Y-55030177D01*
X115470077Y-55161940D01*
X115449924Y-55196903D01*
X115385998Y-55157315D01*
X115371913Y-55131752D01*
X115363606Y-55059427D01*
X115358649Y-54907899D01*
X115357358Y-54698114D01*
X115360050Y-54451021D01*
X115360961Y-54405169D01*
X115372019Y-54093773D01*
X115388530Y-53881292D01*
X115408515Y-53766717D01*
X115429994Y-53749043D01*
X115450989Y-53827262D01*
G37*
G36*
X99420030Y-53696634D02*
G01*
X99563605Y-53706470D01*
X99640678Y-53726106D01*
X99668045Y-53758193D01*
X99669092Y-53769092D01*
X99636001Y-53821345D01*
X99526309Y-53842876D01*
X99468697Y-53844240D01*
X99268303Y-53844240D01*
X99268303Y-54520571D01*
X99266718Y-54797681D01*
X99260881Y-54989212D01*
X99249174Y-55109745D01*
X99229975Y-55173866D01*
X99201664Y-55196157D01*
X99193155Y-55196903D01*
X99162365Y-55182635D01*
X99141084Y-55130109D01*
X99127691Y-55024742D01*
X99120567Y-54851951D01*
X99118090Y-54597152D01*
X99118007Y-54520571D01*
X99118007Y-53844240D01*
X98917613Y-53844240D01*
X98778272Y-53831831D01*
X98720855Y-53790697D01*
X98717218Y-53769092D01*
X98734252Y-53733270D01*
X98796550Y-53710600D01*
X98920909Y-53698431D01*
X99124128Y-53694109D01*
X99193155Y-53693944D01*
X99420030Y-53696634D01*
G37*
G36*
X110259443Y-53724450D02*
G01*
X110514119Y-53812359D01*
X110715355Y-53956886D01*
X110792412Y-54053751D01*
X110867468Y-54248668D01*
X110886789Y-54477836D01*
X110852726Y-54703752D01*
X110767631Y-54888917D01*
X110737740Y-54925434D01*
X110568043Y-55072474D01*
X110377780Y-55158141D01*
X110136309Y-55193955D01*
X110015605Y-55196903D01*
X109686137Y-55196903D01*
X109688957Y-55046607D01*
X109839112Y-55046607D01*
X110119664Y-55046607D01*
X110291606Y-55039747D01*
X110406773Y-55008320D01*
X110508244Y-54936050D01*
X110570552Y-54876272D01*
X110680172Y-54749716D01*
X110729700Y-54629630D01*
X110740887Y-54473720D01*
X110700491Y-54221512D01*
X110582194Y-54030445D01*
X110390333Y-53904421D01*
X110129244Y-53847341D01*
X110041115Y-53844240D01*
X109839112Y-53844240D01*
X109839112Y-54445423D01*
X109839112Y-55046607D01*
X109688957Y-55046607D01*
X109700001Y-54457948D01*
X109700236Y-54445423D01*
X109713865Y-53718993D01*
X109976309Y-53703871D01*
X110259443Y-53724450D01*
G37*
G36*
X104240980Y-53839488D02*
G01*
X104263052Y-54032168D01*
X104278165Y-54277601D01*
X104298432Y-54577108D01*
X104332424Y-54790047D01*
X104386641Y-54929785D01*
X104467584Y-55009691D01*
X104581751Y-55043132D01*
X104652094Y-55046607D01*
X104788755Y-55037339D01*
X104885742Y-54999641D01*
X104950806Y-54918677D01*
X104991699Y-54779606D01*
X105016174Y-54567592D01*
X105029644Y-54323921D01*
X105046973Y-54044182D01*
X105069390Y-53853739D01*
X105094432Y-53754422D01*
X105119636Y-53748061D01*
X105142539Y-53836485D01*
X105160679Y-54021525D01*
X105169537Y-54219980D01*
X105174615Y-54501352D01*
X105167902Y-54703266D01*
X105145232Y-54846170D01*
X105102444Y-54950514D01*
X105035372Y-55036744D01*
X104995253Y-55075926D01*
X104815451Y-55180844D01*
X104614027Y-55195858D01*
X104411980Y-55121743D01*
X104316529Y-55050831D01*
X104152918Y-54904760D01*
X104152918Y-54324778D01*
X104158294Y-54038052D01*
X104172567Y-53845112D01*
X104192958Y-53747007D01*
X104216689Y-53744784D01*
X104240980Y-53839488D01*
G37*
G36*
X120969717Y-53764964D02*
G01*
X121187280Y-53893536D01*
X121348130Y-54090702D01*
X121437196Y-54342454D01*
X121445492Y-54402126D01*
X121426913Y-54651584D01*
X121328789Y-54866988D01*
X121169010Y-55037659D01*
X120965462Y-55152918D01*
X120736034Y-55202089D01*
X120498614Y-55174492D01*
X120304607Y-55083182D01*
X120118167Y-54906959D01*
X120002737Y-54688126D01*
X119963891Y-54450352D01*
X119982159Y-54352050D01*
X120123789Y-54352050D01*
X120124583Y-54566036D01*
X120210030Y-54785321D01*
X120363186Y-54946927D01*
X120569074Y-55034679D01*
X120806984Y-55042882D01*
X120982770Y-54997757D01*
X121117607Y-54901820D01*
X121231559Y-54743897D01*
X121300842Y-54562157D01*
X121311321Y-54470473D01*
X121266518Y-54267415D01*
X121148403Y-54078196D01*
X120981417Y-53938652D01*
X120932220Y-53914598D01*
X120705826Y-53865176D01*
X120498703Y-53899984D01*
X120323933Y-54003249D01*
X120194601Y-54159196D01*
X120123789Y-54352050D01*
X119982159Y-54352050D01*
X120007200Y-54217304D01*
X120071755Y-54094224D01*
X120250504Y-53883788D01*
X120447119Y-53762531D01*
X120680350Y-53719436D01*
X120710512Y-53718993D01*
X120969717Y-53764964D01*
G37*
G36*
X119632573Y-52592190D02*
G01*
X120568737Y-52593431D01*
X121411194Y-52595494D01*
X122159232Y-52598371D01*
X122812141Y-52602057D01*
X123369208Y-52606547D01*
X123829722Y-52611833D01*
X124192972Y-52617911D01*
X124458245Y-52624775D01*
X124624831Y-52632418D01*
X124692017Y-52640835D01*
X124693352Y-52641873D01*
X124648851Y-52650479D01*
X124504323Y-52658279D01*
X124259936Y-52665271D01*
X123915858Y-52671454D01*
X123472256Y-52676826D01*
X122929299Y-52681387D01*
X122287153Y-52685135D01*
X121545987Y-52688069D01*
X120705967Y-52690187D01*
X119767261Y-52691487D01*
X118730038Y-52691969D01*
X118634376Y-52691972D01*
X117595409Y-52691560D01*
X116652208Y-52690328D01*
X115805211Y-52688279D01*
X115054856Y-52685416D01*
X114401580Y-52681744D01*
X113845822Y-52677265D01*
X113388019Y-52671984D01*
X113028608Y-52665903D01*
X112768028Y-52659027D01*
X112606716Y-52651360D01*
X112545110Y-52642904D01*
X112544437Y-52641873D01*
X112594461Y-52633306D01*
X112744237Y-52625530D01*
X112993326Y-52618550D01*
X113341286Y-52612369D01*
X113787676Y-52606990D01*
X114332055Y-52602418D01*
X114973983Y-52598656D01*
X115713017Y-52595707D01*
X116548718Y-52593575D01*
X117480644Y-52592264D01*
X118508353Y-52591778D01*
X118603413Y-52591775D01*
X119632573Y-52592190D01*
G37*
G36*
X94014548Y-53716514D02*
G01*
X94150386Y-53771641D01*
X94272989Y-53841879D01*
X94348759Y-53909594D01*
X94358638Y-53935351D01*
X94328075Y-54007481D01*
X94252844Y-54001544D01*
X94209121Y-53970191D01*
X94046007Y-53878767D01*
X93867473Y-53866166D01*
X93708550Y-53934684D01*
X93705484Y-53937167D01*
X93625560Y-54033840D01*
X93635924Y-54123680D01*
X93739753Y-54211548D01*
X93940227Y-54302305D01*
X93945491Y-54304275D01*
X94183479Y-54423985D01*
X94336222Y-54568838D01*
X94399994Y-54730060D01*
X94371070Y-54898875D01*
X94262295Y-55050461D01*
X94080589Y-55165967D01*
X93865272Y-55196830D01*
X93639957Y-55140655D01*
X93594634Y-55118149D01*
X93493830Y-55033300D01*
X93456863Y-54944810D01*
X93467436Y-54866438D01*
X93510745Y-54856778D01*
X93604175Y-54915978D01*
X93643587Y-54946410D01*
X93780964Y-55019088D01*
X93914507Y-55046607D01*
X94049605Y-55013077D01*
X94172912Y-54930742D01*
X94249023Y-54826981D01*
X94258441Y-54780640D01*
X94211264Y-54655982D01*
X94068159Y-54536909D01*
X93882701Y-54444115D01*
X93660345Y-54335966D01*
X93524674Y-54232707D01*
X93463428Y-54123460D01*
X93456863Y-54066373D01*
X93499613Y-53949237D01*
X93606703Y-53830395D01*
X93746392Y-53736566D01*
X93886938Y-53694470D01*
X93899070Y-53694131D01*
X94014548Y-53716514D01*
G37*
G36*
X126566457Y-53721471D02*
G01*
X126703936Y-53790334D01*
X126798939Y-53879953D01*
X126822544Y-53945724D01*
X126811997Y-54024297D01*
X126768759Y-54034103D01*
X126675433Y-53975021D01*
X126635820Y-53944437D01*
X126507332Y-53863460D01*
X126390182Y-53852764D01*
X126246473Y-53903425D01*
X126139643Y-53981419D01*
X126132100Y-54072796D01*
X126223835Y-54177540D01*
X126414839Y-54295632D01*
X126478054Y-54327217D01*
X126707183Y-54459507D01*
X126842748Y-54594317D01*
X126891144Y-54741093D01*
X126863540Y-54896571D01*
X126756510Y-55059026D01*
X126591590Y-55162335D01*
X126395709Y-55200685D01*
X126195800Y-55168260D01*
X126036284Y-55075141D01*
X125947233Y-54982578D01*
X125936261Y-54918647D01*
X125953333Y-54894786D01*
X126014598Y-54869791D01*
X126095923Y-54921838D01*
X126116153Y-54941400D01*
X126251934Y-55020603D01*
X126419211Y-55045480D01*
X126574815Y-55013865D01*
X126643620Y-54967880D01*
X126702973Y-54859906D01*
X126722346Y-54748145D01*
X126715128Y-54675225D01*
X126682722Y-54616022D01*
X126608997Y-54558881D01*
X126477826Y-54492146D01*
X126273078Y-54404162D01*
X126210619Y-54378350D01*
X126051734Y-54270787D01*
X125977947Y-54121233D01*
X125991328Y-53958893D01*
X126064049Y-53858835D01*
X126194753Y-53765751D01*
X126342881Y-53704744D01*
X126419448Y-53693944D01*
X126566457Y-53721471D01*
G37*
G36*
X103980055Y-52598539D02*
G01*
X104706419Y-52599275D01*
X105415498Y-52600420D01*
X106100517Y-52601976D01*
X106754701Y-52603941D01*
X107371274Y-52606317D01*
X107943463Y-52609103D01*
X108464491Y-52612301D01*
X108927584Y-52615910D01*
X109325966Y-52619930D01*
X109652862Y-52624363D01*
X109901498Y-52629208D01*
X110065099Y-52634465D01*
X110136888Y-52640136D01*
X110139703Y-52641544D01*
X110089812Y-52649446D01*
X109940116Y-52656570D01*
X109690579Y-52662916D01*
X109341167Y-52668484D01*
X108891846Y-52673275D01*
X108342580Y-52677288D01*
X107693334Y-52680524D01*
X106944075Y-52682983D01*
X106094766Y-52684665D01*
X105145373Y-52685570D01*
X104095862Y-52685700D01*
X102946197Y-52685053D01*
X102737632Y-52684862D01*
X101888742Y-52683811D01*
X101070001Y-52682334D01*
X100286730Y-52680463D01*
X99544250Y-52678230D01*
X98847882Y-52675666D01*
X98202945Y-52672802D01*
X97614761Y-52669670D01*
X97088649Y-52666302D01*
X96629931Y-52662729D01*
X96243927Y-52658982D01*
X95935958Y-52655094D01*
X95711343Y-52651095D01*
X95575404Y-52647018D01*
X95533461Y-52642893D01*
X95535956Y-52642207D01*
X95617467Y-52636433D01*
X95790094Y-52631063D01*
X96047062Y-52626098D01*
X96381597Y-52621538D01*
X96786923Y-52617384D01*
X97256266Y-52613636D01*
X97782849Y-52610293D01*
X98359898Y-52607357D01*
X98980638Y-52604828D01*
X99638294Y-52602706D01*
X100326090Y-52600992D01*
X101037252Y-52599684D01*
X101765005Y-52598785D01*
X102502573Y-52598295D01*
X103243181Y-52598212D01*
X103980055Y-52598539D01*
G37*
G36*
X95945228Y-47477168D02*
G01*
X96218026Y-47584161D01*
X96439418Y-47758679D01*
X96600620Y-47990891D01*
X96692851Y-48270967D01*
X96707325Y-48589077D01*
X96635261Y-48935392D01*
X96613555Y-48996943D01*
X96500994Y-49214937D01*
X96338496Y-49428021D01*
X96152176Y-49607391D01*
X95968152Y-49724240D01*
X95946008Y-49733243D01*
X95741807Y-49779908D01*
X95522873Y-49782211D01*
X95316296Y-49745381D01*
X95149165Y-49674647D01*
X95048569Y-49575238D01*
X95041041Y-49558564D01*
X95013064Y-49399013D01*
X95021054Y-49204418D01*
X95061102Y-49031356D01*
X95080401Y-48989128D01*
X95147330Y-48868336D01*
X95234683Y-49001653D01*
X95344260Y-49105238D01*
X95469288Y-49123403D01*
X95599218Y-49067493D01*
X95723499Y-48948853D01*
X95831582Y-48778827D01*
X95912917Y-48568760D01*
X95956953Y-48329998D01*
X95961794Y-48219774D01*
X95947121Y-48018336D01*
X95895829Y-47897670D01*
X95797006Y-47841706D01*
X95698793Y-47832406D01*
X95478691Y-47880037D01*
X95261857Y-48013206D01*
X95055393Y-48217327D01*
X94866400Y-48477815D01*
X94701979Y-48780084D01*
X94569231Y-49109547D01*
X94475257Y-49451620D01*
X94427158Y-49791715D01*
X94432034Y-50115248D01*
X94476260Y-50343572D01*
X94609327Y-50664875D01*
X94800974Y-50937864D01*
X95034120Y-51138355D01*
X95040299Y-51142208D01*
X95177892Y-51211763D01*
X95327626Y-51247058D01*
X95529940Y-51256887D01*
X95566858Y-51256713D01*
X95852071Y-51227114D01*
X96103102Y-51136073D01*
X96344774Y-50971691D01*
X96535571Y-50792338D01*
X96650050Y-50680832D01*
X96738766Y-50606552D01*
X96773539Y-50587830D01*
X96796229Y-50632927D01*
X96810696Y-50748333D01*
X96813471Y-50840715D01*
X96800155Y-50998593D01*
X96750822Y-51128028D01*
X96651396Y-51245518D01*
X96487799Y-51367562D01*
X96245954Y-51510656D01*
X96238086Y-51515033D01*
X95818120Y-51702394D01*
X95387711Y-51808525D01*
X94965066Y-51830820D01*
X94568391Y-51766670D01*
X94540195Y-51758301D01*
X94164078Y-51596919D01*
X93859614Y-51365590D01*
X93626291Y-51063878D01*
X93548198Y-50913471D01*
X93491933Y-50771920D01*
X93457233Y-50627148D01*
X93439416Y-50448408D01*
X93433796Y-50204956D01*
X93433716Y-50161991D01*
X93472565Y-49656478D01*
X93592918Y-49193835D01*
X93800319Y-48760398D01*
X94100312Y-48342504D01*
X94233162Y-48192028D01*
X94557926Y-47884593D01*
X94888036Y-47663587D01*
X95242959Y-47516241D01*
X95280547Y-47505071D01*
X95629807Y-47447528D01*
X95945228Y-47477168D01*
G37*
G36*
X108528258Y-48258304D02*
G01*
X108526562Y-48314432D01*
X108499802Y-48437938D01*
X108455364Y-48601404D01*
X108400638Y-48777413D01*
X108349398Y-48922051D01*
X108368139Y-48964593D01*
X108472792Y-48983235D01*
X108536548Y-48984674D01*
X108670685Y-48992630D01*
X108722918Y-49021008D01*
X108720190Y-49056264D01*
X108692544Y-49152629D01*
X108662134Y-49291087D01*
X108659632Y-49304221D01*
X108632581Y-49412172D01*
X108584254Y-49466259D01*
X108483816Y-49488678D01*
X108393677Y-49495648D01*
X108160808Y-49510709D01*
X108051064Y-49811301D01*
X107969567Y-50070876D01*
X107942844Y-50261191D01*
X107970149Y-50396396D01*
X108016710Y-50461624D01*
X108140468Y-50515867D01*
X108321708Y-50491695D01*
X108556431Y-50389812D01*
X108616097Y-50356313D01*
X108763160Y-50274397D01*
X108844487Y-50245764D01*
X108879396Y-50270731D01*
X108887204Y-50349615D01*
X108887238Y-50360763D01*
X108859268Y-50456635D01*
X108766407Y-50565803D01*
X108621965Y-50684669D01*
X108349949Y-50868671D01*
X108107772Y-50980992D01*
X107868389Y-51032437D01*
X107735843Y-51038717D01*
X107564468Y-51027798D01*
X107439846Y-50981567D01*
X107309676Y-50879818D01*
X107298691Y-50869806D01*
X107114378Y-50700895D01*
X106869894Y-50851327D01*
X106592509Y-50982307D01*
X106321950Y-51036604D01*
X106075132Y-51014175D01*
X105868973Y-50914978D01*
X105801903Y-50854030D01*
X105707720Y-50697323D01*
X105685739Y-50501225D01*
X105736318Y-50255423D01*
X105831222Y-50011696D01*
X105904691Y-49841748D01*
X105958235Y-49706069D01*
X105981295Y-49631585D01*
X105981518Y-49628454D01*
X105948177Y-49612301D01*
X105860161Y-49652990D01*
X105735480Y-49738395D01*
X105592144Y-49856390D01*
X105468515Y-49973841D01*
X105359283Y-50090291D01*
X105294521Y-50185543D01*
X105260692Y-50294114D01*
X105244256Y-50450518D01*
X105238142Y-50561175D01*
X105229498Y-50736254D01*
X105212625Y-50850413D01*
X105169158Y-50919777D01*
X105080732Y-50960467D01*
X104928983Y-50988608D01*
X104718824Y-51017115D01*
X104575791Y-51032975D01*
X104501903Y-51020909D01*
X104467320Y-50968543D01*
X104451621Y-50906290D01*
X104418180Y-50766030D01*
X104380785Y-50693329D01*
X104317674Y-50683066D01*
X104207084Y-50730115D01*
X104056179Y-50813199D01*
X103709597Y-50962488D01*
X103357780Y-51032387D01*
X103017748Y-51023499D01*
X102706518Y-50936429D01*
X102441109Y-50771778D01*
X102422418Y-50755320D01*
X102301485Y-50652697D01*
X102216783Y-50608970D01*
X102133682Y-50612193D01*
X102067092Y-50632769D01*
X101855921Y-50679162D01*
X101644199Y-50681355D01*
X101475518Y-50639226D01*
X101466125Y-50634441D01*
X101383888Y-50611701D01*
X101291434Y-50644443D01*
X101194195Y-50711896D01*
X100918985Y-50881486D01*
X100629932Y-50989543D01*
X100344071Y-51035899D01*
X100078434Y-51020392D01*
X99850056Y-50942857D01*
X99675969Y-50803129D01*
X99623813Y-50727065D01*
X99551093Y-50629580D01*
X99474324Y-50612251D01*
X99443648Y-50621069D01*
X99344105Y-50640187D01*
X99180177Y-50654870D01*
X98990906Y-50661855D01*
X98776963Y-50671956D01*
X98628285Y-50701401D01*
X98510606Y-50758022D01*
X98480301Y-50778557D01*
X98171836Y-50948853D01*
X97856189Y-51031243D01*
X97548118Y-51023747D01*
X97289408Y-50938449D01*
X97082554Y-50784791D01*
X96921067Y-50568331D01*
X96830987Y-50324582D01*
X96828404Y-50309755D01*
X96835164Y-50100810D01*
X96852006Y-50043755D01*
X97732852Y-50043755D01*
X97738528Y-50244906D01*
X97788622Y-50415490D01*
X97882340Y-50536085D01*
X98018890Y-50587271D01*
X98036701Y-50587830D01*
X98157250Y-50551910D01*
X98239095Y-50490048D01*
X98292119Y-50421218D01*
X98295806Y-50358634D01*
X98247653Y-50263368D01*
X98221811Y-50221117D01*
X98150477Y-50046340D01*
X98117743Y-49839102D01*
X98125227Y-49637709D01*
X98174544Y-49480467D01*
X98189589Y-49457661D01*
X98258444Y-49344183D01*
X98257965Y-49288835D01*
X98200723Y-49292032D01*
X98099286Y-49354186D01*
X97990267Y-49451112D01*
X97857928Y-49627437D01*
X97772388Y-49831458D01*
X97732852Y-50043755D01*
X96852006Y-50043755D01*
X96905767Y-49861631D01*
X97026784Y-49625765D01*
X97179971Y-49431539D01*
X97433315Y-49242570D01*
X97772107Y-49094068D01*
X98172772Y-48992317D01*
X98488754Y-48967869D01*
X98741312Y-49018428D01*
X98925827Y-49137875D01*
X99037682Y-49320093D01*
X99072262Y-49558963D01*
X99024947Y-49848368D01*
X98959233Y-50034392D01*
X98898467Y-50210313D01*
X98899596Y-50317551D01*
X98969389Y-50371093D01*
X99114615Y-50385925D01*
X99118007Y-50385930D01*
X99305247Y-50356450D01*
X99436054Y-50259610D01*
X99523902Y-50082960D01*
X99550152Y-49986646D01*
X99606447Y-49779979D01*
X99682023Y-49546293D01*
X99731848Y-49410512D01*
X99849560Y-49109920D01*
X100286752Y-49040338D01*
X100485386Y-49012592D01*
X100644602Y-48997590D01*
X100740040Y-48997314D01*
X100755425Y-49002237D01*
X100751250Y-49058677D01*
X100716673Y-49189197D01*
X100657452Y-49374431D01*
X100579347Y-49595013D01*
X100578296Y-49597854D01*
X100495686Y-49834449D01*
X100428609Y-50051676D01*
X100384360Y-50224196D01*
X100370080Y-50321234D01*
X100399491Y-50466843D01*
X100472301Y-50583387D01*
X100566479Y-50637268D01*
X100577739Y-50637928D01*
X100684775Y-50606496D01*
X100825901Y-50526328D01*
X100956958Y-50424582D01*
X101029589Y-50345559D01*
X101035025Y-50273122D01*
X100994532Y-50182838D01*
X100930213Y-49963510D01*
X100932502Y-49713924D01*
X100994142Y-49466295D01*
X101107875Y-49252836D01*
X101232237Y-49127787D01*
X101399531Y-49048152D01*
X101585971Y-49017787D01*
X101755030Y-49038582D01*
X101855441Y-49095509D01*
X101927309Y-49235344D01*
X101935314Y-49436471D01*
X101881079Y-49684349D01*
X101766224Y-49964432D01*
X101756344Y-49984104D01*
X101580125Y-50330976D01*
X101714253Y-50359341D01*
X101864861Y-50366800D01*
X101996151Y-50347068D01*
X102096508Y-50301819D01*
X102158964Y-50215191D01*
X102200969Y-50083915D01*
X102290186Y-49821785D01*
X103027822Y-49821785D01*
X103083066Y-49876334D01*
X103207025Y-49862156D01*
X103330931Y-49808902D01*
X103457542Y-49706527D01*
X103541381Y-49569667D01*
X103562932Y-49434217D01*
X103554065Y-49398518D01*
X103488343Y-49339941D01*
X103381071Y-49345849D01*
X103259229Y-49407630D01*
X103149797Y-49516674D01*
X103140040Y-49530643D01*
X103045434Y-49704543D01*
X103027822Y-49821785D01*
X102290186Y-49821785D01*
X102299881Y-49793301D01*
X102442410Y-49558476D01*
X102608257Y-49378458D01*
X102868468Y-49171824D01*
X103135904Y-49047590D01*
X103318726Y-49005122D01*
X103592410Y-48989989D01*
X103834413Y-49029518D01*
X104033833Y-49113953D01*
X104179768Y-49233535D01*
X104261314Y-49378510D01*
X104267569Y-49539121D01*
X104187632Y-49705610D01*
X104150570Y-49749536D01*
X103977443Y-49890933D01*
X103735954Y-50027024D01*
X103457333Y-50141520D01*
X103315264Y-50185200D01*
X103175915Y-50228187D01*
X103116060Y-50267195D01*
X103116975Y-50318069D01*
X103128879Y-50342910D01*
X103237848Y-50457388D01*
X103408859Y-50544551D01*
X103604198Y-50586457D01*
X103643723Y-50587830D01*
X103784825Y-50564248D01*
X103963306Y-50503648D01*
X104079804Y-50449931D01*
X104209873Y-50379075D01*
X104294410Y-50315108D01*
X104351544Y-50231935D01*
X104399406Y-50103462D01*
X104453986Y-49911371D01*
X104541895Y-49616575D01*
X104627170Y-49376692D01*
X104704227Y-49205693D01*
X104767481Y-49117546D01*
X104772740Y-49113882D01*
X104844757Y-49091450D01*
X104980858Y-49064330D01*
X105151969Y-49036634D01*
X105329017Y-49012476D01*
X105482928Y-48995971D01*
X105584630Y-48991230D01*
X105608403Y-48995648D01*
X105606117Y-49052282D01*
X105571090Y-49163863D01*
X105556337Y-49200816D01*
X105496881Y-49360739D01*
X105489330Y-49437980D01*
X105535840Y-49436832D01*
X105637517Y-49362472D01*
X105932353Y-49161294D01*
X106233945Y-49043141D01*
X106449204Y-49013880D01*
X106610711Y-49020891D01*
X106716332Y-49059706D01*
X106809152Y-49146507D01*
X106812419Y-49150288D01*
X106899679Y-49289479D01*
X106927067Y-49448337D01*
X106894348Y-49647043D01*
X106803709Y-49899969D01*
X106697256Y-50164185D01*
X106634590Y-50347598D01*
X106616940Y-50460115D01*
X106645534Y-50511643D01*
X106721602Y-50512088D01*
X106846372Y-50471357D01*
X106873266Y-50460750D01*
X106989874Y-50407181D01*
X107052537Y-50344904D01*
X107083658Y-50240249D01*
X107098903Y-50121669D01*
X107122874Y-49933836D01*
X107150463Y-49758752D01*
X107161989Y-49698579D01*
X107176321Y-49585192D01*
X107148430Y-49540377D01*
X107114999Y-49535759D01*
X107056034Y-49521143D01*
X107037695Y-49464341D01*
X107058438Y-49345916D01*
X107090827Y-49231094D01*
X107147482Y-49096483D01*
X107225155Y-49035488D01*
X107274052Y-49024887D01*
X107353368Y-48998308D01*
X107417174Y-48926111D01*
X107482534Y-48786114D01*
X107507094Y-48721949D01*
X107571460Y-48562266D01*
X107629475Y-48440934D01*
X107662034Y-48391859D01*
X107730872Y-48365071D01*
X107866055Y-48333724D01*
X108038771Y-48302261D01*
X108220208Y-48275124D01*
X108381554Y-48256756D01*
X108493997Y-48251599D01*
X108528258Y-48258304D01*
G37*
G36*
X112264398Y-47491082D02*
G01*
X112584054Y-47595721D01*
X112842457Y-47762782D01*
X113038376Y-47985981D01*
X113152873Y-48244723D01*
X113191419Y-48524654D01*
X113159484Y-48811424D01*
X113062538Y-49090680D01*
X112906051Y-49348071D01*
X112695494Y-49569246D01*
X112436335Y-49739852D01*
X112134046Y-49845538D01*
X112042528Y-49861527D01*
X111772100Y-49858277D01*
X111542543Y-49774030D01*
X111369016Y-49614970D01*
X111343354Y-49576347D01*
X111252783Y-49373003D01*
X111253839Y-49207270D01*
X111346967Y-49075229D01*
X111404694Y-49034223D01*
X111532488Y-48960958D01*
X111605190Y-48946183D01*
X111652579Y-48995136D01*
X111692761Y-49084871D01*
X111773788Y-49197792D01*
X111879129Y-49229037D01*
X111998326Y-49190902D01*
X112120927Y-49095685D01*
X112236476Y-48955680D01*
X112334519Y-48783185D01*
X112404600Y-48590495D01*
X112436265Y-48389908D01*
X112425332Y-48223265D01*
X112344216Y-48029028D01*
X112196346Y-47894074D01*
X112000174Y-47824966D01*
X111774152Y-47828263D01*
X111540445Y-47908598D01*
X111272294Y-48097299D01*
X111023080Y-48367168D01*
X110802323Y-48699619D01*
X110619544Y-49076065D01*
X110484261Y-49477921D01*
X110405996Y-49886601D01*
X110390196Y-50154261D01*
X110421340Y-50487325D01*
X110514815Y-50741968D01*
X110670682Y-50918270D01*
X110889007Y-51016311D01*
X111094074Y-51038530D01*
X111347634Y-50993941D01*
X111590771Y-50857431D01*
X111828926Y-50625529D01*
X111918204Y-50513073D01*
X112029158Y-50369897D01*
X112116188Y-50287031D01*
X112214837Y-50244140D01*
X112360644Y-50220891D01*
X112444240Y-50212118D01*
X112627352Y-50191192D01*
X112779050Y-50169781D01*
X112857553Y-50154588D01*
X112916346Y-50141287D01*
X112938516Y-50158305D01*
X112925224Y-50226326D01*
X112877628Y-50366038D01*
X112870522Y-50386176D01*
X112794362Y-50611527D01*
X112732273Y-50813205D01*
X112689583Y-50971950D01*
X112671622Y-51068506D01*
X112676103Y-51088816D01*
X112721964Y-51056637D01*
X112820716Y-50971145D01*
X112953442Y-50848904D01*
X112994259Y-50810212D01*
X113140386Y-50666924D01*
X113227555Y-50563652D01*
X113271091Y-50473167D01*
X113286318Y-50368240D01*
X113288234Y-50287859D01*
X113300544Y-50207195D01*
X114152440Y-50207195D01*
X114171060Y-50327893D01*
X114199454Y-50390729D01*
X114291211Y-50473268D01*
X114426472Y-50471347D01*
X114595903Y-50385641D01*
X114631788Y-50359484D01*
X114831994Y-50148763D01*
X114955229Y-49891067D01*
X114990202Y-49610531D01*
X114989362Y-49595248D01*
X114974101Y-49450828D01*
X114941841Y-49378440D01*
X114876144Y-49349923D01*
X114843445Y-49345236D01*
X114693215Y-49374615D01*
X114533304Y-49484629D01*
X114381401Y-49659526D01*
X114266170Y-49859352D01*
X114182953Y-50060498D01*
X114152440Y-50207195D01*
X113300544Y-50207195D01*
X113331738Y-50002778D01*
X113461800Y-49736177D01*
X113684685Y-49475814D01*
X113721256Y-49441370D01*
X114015629Y-49213433D01*
X114316016Y-49074588D01*
X114645586Y-49015207D01*
X114756041Y-49011435D01*
X114966951Y-49019124D01*
X115104056Y-49048164D01*
X115185824Y-49097396D01*
X115325517Y-49176023D01*
X115475541Y-49159573D01*
X115567896Y-49110233D01*
X115681918Y-49057602D01*
X115827233Y-49018231D01*
X115973708Y-48996270D01*
X116091209Y-48995867D01*
X116149603Y-49021175D01*
X116151538Y-49029852D01*
X116134322Y-49099406D01*
X116088008Y-49238750D01*
X116020596Y-49424595D01*
X115972793Y-49550172D01*
X115856042Y-49880104D01*
X115783676Y-50149519D01*
X115756883Y-50351052D01*
X115776850Y-50477341D01*
X115816977Y-50516192D01*
X115956284Y-50521131D01*
X116135756Y-50456173D01*
X116334557Y-50330904D01*
X116471252Y-50215125D01*
X116590862Y-50098852D01*
X116674446Y-50011314D01*
X116702623Y-49973877D01*
X116671960Y-49925954D01*
X116596308Y-49836725D01*
X116577376Y-49816036D01*
X116479769Y-49648524D01*
X116466154Y-49467615D01*
X116525633Y-49292087D01*
X116647307Y-49140719D01*
X116820277Y-49032287D01*
X117033645Y-48985570D01*
X117059703Y-48985004D01*
X117232219Y-49015610D01*
X117334509Y-49113601D01*
X117374373Y-49287097D01*
X117375334Y-49313506D01*
X117393100Y-49434675D01*
X117444155Y-49478121D01*
X117535216Y-49442489D01*
X117673001Y-49326426D01*
X117764064Y-49235167D01*
X117907951Y-49095569D01*
X118017787Y-49018633D01*
X118120976Y-48987882D01*
X118180692Y-48984674D01*
X118296553Y-48995287D01*
X118354389Y-49021378D01*
X118355877Y-49026870D01*
X118337605Y-49088094D01*
X118288258Y-49220151D01*
X118216038Y-49401693D01*
X118154089Y-49551999D01*
X118025289Y-49886517D01*
X117953202Y-50141154D01*
X117938568Y-50319136D01*
X117982128Y-50423688D01*
X118084621Y-50458035D01*
X118246786Y-50425400D01*
X118345626Y-50387068D01*
X118510525Y-50303853D01*
X118591654Y-50228423D01*
X118595050Y-50216123D01*
X119507506Y-50216123D01*
X119534945Y-50364777D01*
X119610135Y-50456941D01*
X119727090Y-50480184D01*
X119879825Y-50422079D01*
X119910312Y-50402259D01*
X120094693Y-50229849D01*
X120243709Y-50005705D01*
X120337171Y-49765567D01*
X120358721Y-49608402D01*
X120330030Y-49445772D01*
X120250547Y-49355724D01*
X120134488Y-49334591D01*
X119996066Y-49378706D01*
X119849493Y-49484400D01*
X119708983Y-49648007D01*
X119619823Y-49799057D01*
X119533804Y-50023406D01*
X119507506Y-50216123D01*
X118595050Y-50216123D01*
X118606370Y-50175127D01*
X118642801Y-50021405D01*
X118740041Y-49833088D01*
X118880006Y-49637353D01*
X119044615Y-49461377D01*
X119127890Y-49391283D01*
X119358016Y-49223839D01*
X119543986Y-49113395D01*
X119715020Y-49048720D01*
X119900337Y-49018582D01*
X120115398Y-49011712D01*
X120497206Y-49012337D01*
X120637710Y-48434896D01*
X120693266Y-48208870D01*
X120740353Y-48021622D01*
X120773960Y-47892773D01*
X120789032Y-47842009D01*
X120842229Y-47824915D01*
X120966839Y-47800145D01*
X121135385Y-47771794D01*
X121320390Y-47743955D01*
X121494376Y-47720721D01*
X121629867Y-47706184D01*
X121699385Y-47704440D01*
X121702853Y-47705878D01*
X121699584Y-47760334D01*
X121672924Y-47888918D01*
X121627782Y-48069641D01*
X121594016Y-48193425D01*
X121508918Y-48507902D01*
X121420495Y-48854495D01*
X121334974Y-49206954D01*
X121258579Y-49539029D01*
X121197537Y-49824471D01*
X121160946Y-50019356D01*
X121136062Y-50256963D01*
X121158302Y-50408274D01*
X121232573Y-50477861D01*
X121363786Y-50470298D01*
X121556847Y-50390160D01*
X121558190Y-50389475D01*
X121684088Y-50312023D01*
X121749071Y-50220928D01*
X121783267Y-50073413D01*
X121783941Y-50068946D01*
X121850185Y-49847242D01*
X122597821Y-49847242D01*
X122641281Y-49886795D01*
X122753984Y-49866904D01*
X122828668Y-49840546D01*
X123007941Y-49732066D01*
X123102036Y-49578935D01*
X123115246Y-49482082D01*
X123097998Y-49372883D01*
X123036049Y-49336099D01*
X123019146Y-49335364D01*
X122860089Y-49361067D01*
X122743859Y-49448232D01*
X122655402Y-49611944D01*
X122612257Y-49743136D01*
X122597821Y-49847242D01*
X121850185Y-49847242D01*
X121866284Y-49793364D01*
X122016652Y-49548070D01*
X122219920Y-49339257D01*
X122460961Y-49173115D01*
X122724649Y-49055836D01*
X122995859Y-48993611D01*
X123259463Y-48992632D01*
X123500335Y-49059089D01*
X123703350Y-49199174D01*
X123758116Y-49260902D01*
X123847072Y-49409920D01*
X123851668Y-49543661D01*
X123770544Y-49690566D01*
X123735511Y-49734109D01*
X123617335Y-49853388D01*
X123471499Y-49953689D01*
X123275444Y-50047540D01*
X123006610Y-50147471D01*
X122966911Y-50160964D01*
X122640488Y-50271075D01*
X122798865Y-50429453D01*
X122980381Y-50553316D01*
X123194090Y-50589897D01*
X123446355Y-50539300D01*
X123665863Y-50443594D01*
X123821245Y-50357198D01*
X123909262Y-50283516D01*
X123954393Y-50195220D01*
X123975734Y-50097694D01*
X124050209Y-49788722D01*
X124166039Y-49456901D01*
X124245668Y-49274656D01*
X124290333Y-49189591D01*
X124341484Y-49130283D01*
X124418604Y-49089129D01*
X124541173Y-49058524D01*
X124728673Y-49030866D01*
X124932945Y-49006397D01*
X125222636Y-48972723D01*
X125121606Y-49229038D01*
X125020576Y-49485353D01*
X125319485Y-49281320D01*
X125625321Y-49104108D01*
X125898065Y-49010563D01*
X126132498Y-49001220D01*
X126323402Y-49076615D01*
X126419584Y-49168638D01*
X126489845Y-49288506D01*
X126514601Y-49425508D01*
X126492216Y-49598405D01*
X126421054Y-49825959D01*
X126345566Y-50017632D01*
X126270907Y-50209006D01*
X126218112Y-50366067D01*
X126194509Y-50465829D01*
X126195946Y-50487042D01*
X126261535Y-50505951D01*
X126387937Y-50481077D01*
X126549801Y-50419772D01*
X126704947Y-50339461D01*
X126850934Y-50261724D01*
X126933235Y-50245164D01*
X126968030Y-50290450D01*
X126972839Y-50350521D01*
X126930165Y-50455754D01*
X126816583Y-50584065D01*
X126653761Y-50720189D01*
X126463361Y-50848864D01*
X126267050Y-50954827D01*
X126086492Y-51022813D01*
X125995672Y-51038962D01*
X125772829Y-51045501D01*
X125617226Y-51023071D01*
X125498174Y-50963906D01*
X125415929Y-50892275D01*
X125309269Y-50739897D01*
X125270331Y-50555099D01*
X125299168Y-50324886D01*
X125395835Y-50036261D01*
X125419782Y-49978654D01*
X125491310Y-49808008D01*
X125544370Y-49676547D01*
X125569313Y-49608301D01*
X125570078Y-49604374D01*
X125535351Y-49600207D01*
X125444682Y-49647549D01*
X125318341Y-49732864D01*
X125176596Y-49842610D01*
X125056567Y-49947385D01*
X124818599Y-50168994D01*
X124818599Y-50552803D01*
X124816818Y-50745968D01*
X124799298Y-50870203D01*
X124747773Y-50941942D01*
X124643976Y-50977622D01*
X124469641Y-50993677D01*
X124320622Y-51000866D01*
X124048089Y-51013668D01*
X124004037Y-50832178D01*
X123959986Y-50650687D01*
X123606249Y-50832178D01*
X123427601Y-50919972D01*
X123286328Y-50973747D01*
X123145528Y-51001764D01*
X122968300Y-51012287D01*
X122795615Y-51013668D01*
X122517618Y-51004189D01*
X122311788Y-50969188D01*
X122151328Y-50898825D01*
X122009442Y-50783256D01*
X121927987Y-50694980D01*
X121817849Y-50567616D01*
X121552248Y-50747370D01*
X121347754Y-50882031D01*
X121197870Y-50967743D01*
X121076725Y-51015242D01*
X120958447Y-51035266D01*
X120850199Y-51038717D01*
X120623068Y-51006004D01*
X120461550Y-50902834D01*
X120360648Y-50740121D01*
X120311136Y-50636378D01*
X120275272Y-50588246D01*
X120273303Y-50587830D01*
X120223435Y-50617139D01*
X120128176Y-50690413D01*
X120091511Y-50720823D01*
X119800688Y-50910901D01*
X119485952Y-51017557D01*
X119286638Y-51037617D01*
X119143977Y-51031935D01*
X119040633Y-51001649D01*
X118940797Y-50929235D01*
X118820421Y-50809467D01*
X118600761Y-50580216D01*
X118428538Y-50711576D01*
X118140280Y-50893484D01*
X117856181Y-51001828D01*
X117591413Y-51033322D01*
X117361146Y-50984681D01*
X117303280Y-50955290D01*
X117142310Y-50817468D01*
X117067838Y-50641807D01*
X117078932Y-50422556D01*
X117173954Y-50155489D01*
X117238083Y-50011113D01*
X117259092Y-49937436D01*
X117239564Y-49915991D01*
X117206714Y-49921220D01*
X117127641Y-49967840D01*
X117009489Y-50066194D01*
X116898693Y-50173866D01*
X116713118Y-50350509D01*
X116493047Y-50534934D01*
X116260008Y-50711583D01*
X116035529Y-50864898D01*
X115841138Y-50979321D01*
X115702810Y-51038136D01*
X115513488Y-51053480D01*
X115322750Y-51011310D01*
X115156335Y-50924756D01*
X115039986Y-50806947D01*
X114999269Y-50679294D01*
X114989820Y-50609218D01*
X114951518Y-50598482D01*
X114869433Y-50651131D01*
X114759034Y-50744393D01*
X114495795Y-50928478D01*
X114220126Y-51022071D01*
X114021468Y-51038717D01*
X113756218Y-51001638D01*
X113540969Y-50896236D01*
X113424204Y-50777363D01*
X113346015Y-50665732D01*
X113346015Y-50782030D01*
X113305321Y-50985637D01*
X113179063Y-51174474D01*
X112960981Y-51356884D01*
X112870677Y-51415323D01*
X112696413Y-51528876D01*
X112589366Y-51620605D01*
X112527369Y-51713964D01*
X112492700Y-51815246D01*
X112336186Y-52276217D01*
X112135699Y-52647757D01*
X111891493Y-52929611D01*
X111603823Y-53121527D01*
X111272946Y-53223250D01*
X111057847Y-53240858D01*
X110874357Y-53229786D01*
X110741854Y-53183101D01*
X110644533Y-53113357D01*
X110536079Y-52997968D01*
X110494240Y-52868722D01*
X110490394Y-52785720D01*
X110499709Y-52727664D01*
X110841084Y-52727664D01*
X110856703Y-52814074D01*
X110923889Y-52837126D01*
X110978855Y-52833071D01*
X111066389Y-52806159D01*
X111142257Y-52734428D01*
X111225848Y-52596918D01*
X111261334Y-52527738D01*
X111331201Y-52374970D01*
X111372074Y-52259234D01*
X111375619Y-52207835D01*
X111307373Y-52202419D01*
X111203311Y-52259694D01*
X111084084Y-52359579D01*
X110970340Y-52481994D01*
X110882728Y-52606857D01*
X110841898Y-52714087D01*
X110841084Y-52727664D01*
X110499709Y-52727664D01*
X110532892Y-52520852D01*
X110663005Y-52275581D01*
X110884656Y-52044872D01*
X111201773Y-51823695D01*
X111273024Y-51782399D01*
X111471971Y-51644881D01*
X111577780Y-51507722D01*
X111585931Y-51487095D01*
X111616463Y-51380475D01*
X111599674Y-51347142D01*
X111524104Y-51383395D01*
X111441116Y-51440326D01*
X111105478Y-51630459D01*
X110776499Y-51722872D01*
X110461724Y-51719314D01*
X110168700Y-51621535D01*
X109904974Y-51431282D01*
X109678090Y-51150304D01*
X109599741Y-51013668D01*
X109504279Y-50750568D01*
X109449920Y-50426519D01*
X109438027Y-50072552D01*
X109469962Y-49719696D01*
X109531073Y-49448760D01*
X109694059Y-49038660D01*
X109917105Y-48664038D01*
X110189546Y-48330322D01*
X110500721Y-48042942D01*
X110839967Y-47807325D01*
X111196620Y-47628902D01*
X111560018Y-47513101D01*
X111919498Y-47465352D01*
X112264398Y-47491082D01*
G37*
G36*
X115570000Y-70530000D02*
G01*
X115550000Y-70550000D01*
X115530000Y-70530000D01*
X115550000Y-70510000D01*
X115570000Y-70530000D01*
G37*
G36*
X115610000Y-70450000D02*
G01*
X115590000Y-70470000D01*
X115570000Y-70450000D01*
X115590000Y-70430000D01*
X115610000Y-70450000D01*
G37*
G36*
X115690000Y-70130000D02*
G01*
X115670000Y-70150000D01*
X115650000Y-70130000D01*
X115670000Y-70110000D01*
X115690000Y-70130000D01*
G37*
G36*
X115810000Y-66650000D02*
G01*
X115790000Y-66670000D01*
X115770000Y-66650000D01*
X115790000Y-66630000D01*
X115810000Y-66650000D01*
G37*
G36*
X116290000Y-70610000D02*
G01*
X116270000Y-70630000D01*
X116250000Y-70610000D01*
X116270000Y-70590000D01*
X116290000Y-70610000D01*
G37*
G36*
X119570000Y-70250000D02*
G01*
X119550000Y-70270000D01*
X119530000Y-70250000D01*
X119550000Y-70230000D01*
X119570000Y-70250000D01*
G37*
G36*
X123330000Y-67250000D02*
G01*
X123310000Y-67270000D01*
X123290000Y-67250000D01*
X123310000Y-67230000D01*
X123330000Y-67250000D01*
G37*
G36*
X115476666Y-66443333D02*
G01*
X115481453Y-66490803D01*
X115476666Y-66496666D01*
X115452886Y-66491175D01*
X115450000Y-66470000D01*
X115464635Y-66437075D01*
X115476666Y-66443333D01*
G37*
G36*
X117006514Y-68687845D02*
G01*
X117046589Y-68747938D01*
X117050000Y-68772360D01*
X117021373Y-68820321D01*
X116960909Y-68825686D01*
X116907845Y-68786514D01*
X116906040Y-68726609D01*
X116951036Y-68684098D01*
X117006514Y-68687845D01*
G37*
G36*
X117717450Y-67135837D02*
G01*
X117710000Y-67150000D01*
X117672311Y-67188200D01*
X117665278Y-67190000D01*
X117662549Y-67164162D01*
X117670000Y-67150000D01*
X117707688Y-67111799D01*
X117714721Y-67110000D01*
X117717450Y-67135837D01*
G37*
G36*
X122916852Y-68978284D02*
G01*
X122930000Y-69030000D01*
X122901715Y-69096852D01*
X122850000Y-69110000D01*
X122783147Y-69081715D01*
X122770000Y-69030000D01*
X122798284Y-68963147D01*
X122850000Y-68950000D01*
X122916852Y-68978284D01*
G37*
G36*
X123637450Y-67175837D02*
G01*
X123630000Y-67190000D01*
X123592311Y-67228200D01*
X123585278Y-67230000D01*
X123582549Y-67204162D01*
X123590000Y-67190000D01*
X123627688Y-67151799D01*
X123634721Y-67150000D01*
X123637450Y-67175837D01*
G37*
G36*
X123837450Y-66855837D02*
G01*
X123830000Y-66870000D01*
X123792311Y-66908200D01*
X123785278Y-66910000D01*
X123782549Y-66884162D01*
X123790000Y-66870000D01*
X123827688Y-66831799D01*
X123834721Y-66830000D01*
X123837450Y-66855837D01*
G37*
G36*
X117932153Y-67361788D02*
G01*
X117836116Y-67461377D01*
X117784676Y-67503866D01*
X117771236Y-67493630D01*
X117778853Y-67463440D01*
X117818693Y-67412189D01*
X117899620Y-67340219D01*
X117932186Y-67315228D01*
X118070000Y-67213577D01*
X117932153Y-67361788D01*
G37*
G36*
X118212433Y-67258055D02*
G01*
X118142793Y-67340035D01*
X118079106Y-67396221D01*
X118036486Y-67416414D01*
X118030043Y-67390414D01*
X118034773Y-67377962D01*
X118077645Y-67323639D01*
X118158052Y-67248971D01*
X118181254Y-67230000D01*
X118307035Y-67130000D01*
X118212433Y-67258055D01*
G37*
G36*
X116826388Y-65790000D02*
G01*
X116794486Y-65885568D01*
X116755099Y-65972650D01*
X116718805Y-66032172D01*
X116696181Y-66045064D01*
X116693278Y-66030000D01*
X116712172Y-65958257D01*
X116758903Y-65855802D01*
X116773050Y-65830000D01*
X116819774Y-65753559D01*
X116834953Y-65746241D01*
X116826388Y-65790000D01*
G37*
G36*
X115789479Y-70540771D02*
G01*
X115756991Y-70616225D01*
X115750000Y-70630000D01*
X115702842Y-70710991D01*
X115670049Y-70749492D01*
X115667945Y-70750000D01*
X115670520Y-70719228D01*
X115703008Y-70643774D01*
X115710000Y-70630000D01*
X115757157Y-70549008D01*
X115789950Y-70510507D01*
X115792054Y-70510000D01*
X115789479Y-70540771D01*
G37*
G36*
X119551606Y-66425502D02*
G01*
X119572530Y-66514187D01*
X119576855Y-66550000D01*
X119577792Y-66663443D01*
X119550909Y-66708534D01*
X119541057Y-66710000D01*
X119504450Y-66672434D01*
X119490122Y-66564362D01*
X119490000Y-66550000D01*
X119497941Y-66449794D01*
X119517781Y-66394072D01*
X119525798Y-66390000D01*
X119551606Y-66425502D01*
G37*
G36*
X119158353Y-66385131D02*
G01*
X119169761Y-66471303D01*
X119170000Y-66487343D01*
X119178814Y-66582484D01*
X119217741Y-66624713D01*
X119276915Y-66637343D01*
X119361928Y-66663434D01*
X119400248Y-66700000D01*
X119377242Y-66729895D01*
X119303976Y-66747221D01*
X119209366Y-66750884D01*
X119122325Y-66739790D01*
X119071765Y-66712847D01*
X119071499Y-66712426D01*
X119061437Y-66651316D01*
X119068561Y-66554320D01*
X119087548Y-66451772D01*
X119113075Y-66374003D01*
X119135112Y-66350000D01*
X119158353Y-66385131D01*
G37*
G36*
X119415240Y-67458790D02*
G01*
X119339308Y-67559194D01*
X119287256Y-67609671D01*
X119266951Y-67604362D01*
X119276629Y-67562077D01*
X119274613Y-67533049D01*
X119225359Y-67561846D01*
X119168963Y-67610000D01*
X119035584Y-67730000D01*
X119187610Y-67540000D01*
X119271297Y-67439796D01*
X119335506Y-67370949D01*
X119362818Y-67350000D01*
X119360046Y-67372338D01*
X119338000Y-67398000D01*
X119289269Y-67462275D01*
X119299268Y-67485515D01*
X119354508Y-67461109D01*
X119397102Y-67426972D01*
X119504205Y-67330000D01*
X119415240Y-67458790D01*
G37*
G36*
X120161933Y-66370000D02*
G01*
X120170847Y-66430216D01*
X120145031Y-66526502D01*
X120097420Y-66630678D01*
X120040952Y-66714563D01*
X119988560Y-66749979D01*
X119987496Y-66750000D01*
X119931726Y-66716503D01*
X119884890Y-66640000D01*
X119841761Y-66530000D01*
X119806219Y-66622569D01*
X119765682Y-66689122D01*
X119732095Y-66685157D01*
X119716621Y-66620044D01*
X119721281Y-66551271D01*
X119749251Y-66442297D01*
X119789529Y-66412348D01*
X119842046Y-66461444D01*
X119869323Y-66508692D01*
X119929633Y-66598864D01*
X119979339Y-66627345D01*
X120007350Y-66590275D01*
X120010000Y-66557645D01*
X120029250Y-66472181D01*
X120074621Y-66398915D01*
X120127540Y-66360784D01*
X120161933Y-66370000D01*
G37*
G36*
X120195351Y-68915049D02*
G01*
X120381774Y-68931951D01*
X120506749Y-68963336D01*
X120579284Y-69011834D01*
X120608387Y-69080076D01*
X120610000Y-69106068D01*
X120595138Y-69186837D01*
X120543781Y-69244145D01*
X120445769Y-69281423D01*
X120290940Y-69302104D01*
X120069135Y-69309622D01*
X120006850Y-69309850D01*
X119797359Y-69307669D01*
X119649741Y-69299658D01*
X119545942Y-69283375D01*
X119467906Y-69256375D01*
X119420000Y-69230438D01*
X119322964Y-69144733D01*
X119292251Y-69055231D01*
X119330691Y-68976934D01*
X119367370Y-68951407D01*
X119436094Y-68935369D01*
X119566214Y-68922223D01*
X119739142Y-68913318D01*
X119936287Y-68910000D01*
X119938470Y-68910000D01*
X120195351Y-68915049D01*
G37*
G36*
X120676836Y-66320871D02*
G01*
X120711154Y-66338501D01*
X120678389Y-66364297D01*
X120622639Y-66387406D01*
X120511301Y-66450880D01*
X120431751Y-66534738D01*
X120389972Y-66622442D01*
X120391949Y-66697454D01*
X120443666Y-66743234D01*
X120491440Y-66750000D01*
X120552215Y-66734303D01*
X120551291Y-66674156D01*
X120550000Y-66670000D01*
X120545106Y-66610780D01*
X120595781Y-66590943D01*
X120627304Y-66590000D01*
X120708100Y-66608665D01*
X120730000Y-66665102D01*
X120695610Y-66759679D01*
X120608960Y-66823870D01*
X120494829Y-66848850D01*
X120377998Y-66825793D01*
X120340000Y-66803998D01*
X120274380Y-66747960D01*
X120255162Y-66689553D01*
X120279765Y-66602744D01*
X120312806Y-66529735D01*
X120400252Y-66414729D01*
X120521563Y-66338195D01*
X120648659Y-66316244D01*
X120676836Y-66320871D01*
G37*
G36*
X118431376Y-67572979D02*
G01*
X118407317Y-67672798D01*
X118382949Y-67730000D01*
X118355604Y-67811893D01*
X118356737Y-67853996D01*
X118341502Y-67909908D01*
X118301332Y-67952067D01*
X118254129Y-67985634D01*
X118263796Y-67968554D01*
X118280000Y-67950070D01*
X118320134Y-67888968D01*
X118328264Y-67845123D01*
X118299923Y-67843883D01*
X118298571Y-67844702D01*
X118268270Y-67841403D01*
X118267654Y-67788777D01*
X118283983Y-67734897D01*
X118290000Y-67734897D01*
X118309457Y-67746870D01*
X118362632Y-67695486D01*
X118375102Y-67680000D01*
X118409696Y-67632620D01*
X118388982Y-67642552D01*
X118360000Y-67664897D01*
X118304601Y-67714241D01*
X118290000Y-67734897D01*
X118283983Y-67734897D01*
X118291663Y-67709557D01*
X118335235Y-67626475D01*
X118352403Y-67602886D01*
X118408627Y-67538289D01*
X118430647Y-67535084D01*
X118431376Y-67572979D01*
G37*
G36*
X118839667Y-66283561D02*
G01*
X118902522Y-66319656D01*
X118914882Y-66340000D01*
X118950292Y-66432633D01*
X118980203Y-66499658D01*
X119002252Y-66618133D01*
X118962825Y-66719745D01*
X118874869Y-66781387D01*
X118817524Y-66790000D01*
X118725596Y-66781495D01*
X118676666Y-66763333D01*
X118660786Y-66710396D01*
X118651582Y-66607583D01*
X118651354Y-66594808D01*
X118690000Y-66594808D01*
X118717190Y-66656029D01*
X118779335Y-66698393D01*
X118847299Y-66711267D01*
X118891943Y-66684013D01*
X118896000Y-66670000D01*
X118901131Y-66576091D01*
X118867846Y-66536255D01*
X118800000Y-66528141D01*
X118714232Y-66543749D01*
X118690000Y-66594808D01*
X118651354Y-66594808D01*
X118650612Y-66553333D01*
X118656737Y-66453126D01*
X118672148Y-66412712D01*
X118682971Y-66419997D01*
X118722140Y-66447754D01*
X118785079Y-66416693D01*
X118792358Y-66411269D01*
X118833460Y-66364025D01*
X118800149Y-66342457D01*
X118700000Y-66347014D01*
X118653891Y-66327354D01*
X118650000Y-66311753D01*
X118681657Y-66276223D01*
X118755462Y-66267954D01*
X118839667Y-66283561D01*
G37*
G36*
X124565294Y-60746887D02*
G01*
X124722386Y-60857363D01*
X124854529Y-61042661D01*
X124930042Y-61210110D01*
X124968310Y-61310763D01*
X124802297Y-61226070D01*
X124605231Y-61166162D01*
X124373870Y-61161820D01*
X124130638Y-61212193D01*
X124015423Y-61255924D01*
X123840847Y-61333071D01*
X124466338Y-61864339D01*
X124660225Y-62031176D01*
X124836368Y-62186801D01*
X124984304Y-62321645D01*
X125093571Y-62426140D01*
X125153704Y-62490718D01*
X125158485Y-62497336D01*
X125204703Y-62617202D01*
X125222385Y-62774371D01*
X125222308Y-62786839D01*
X125190998Y-62995459D01*
X125111178Y-63184139D01*
X124994270Y-63342770D01*
X124851699Y-63461247D01*
X124694888Y-63529462D01*
X124535262Y-63537307D01*
X124419655Y-63496990D01*
X124286999Y-63382902D01*
X124215504Y-63220093D01*
X124200769Y-63072420D01*
X124238032Y-62826899D01*
X124349975Y-62609829D01*
X124497049Y-62453245D01*
X124653730Y-62319132D01*
X123981865Y-61749159D01*
X123733715Y-61538894D01*
X123540089Y-61374550D01*
X123394962Y-61249758D01*
X123292308Y-61158152D01*
X123226103Y-61093366D01*
X123190323Y-61049033D01*
X123178941Y-61018785D01*
X123185935Y-60996256D01*
X123205278Y-60975079D01*
X123227868Y-60952355D01*
X123294347Y-60901356D01*
X123341110Y-60896866D01*
X123433334Y-60918444D01*
X123584837Y-60903554D01*
X123800080Y-60851556D01*
X123928812Y-60812767D01*
X124096142Y-60764661D01*
X124250074Y-60728649D01*
X124363042Y-60710972D01*
X124382064Y-60710149D01*
X124565294Y-60746887D01*
G37*
G36*
X117802349Y-60021689D02*
G01*
X117870377Y-60109294D01*
X117971069Y-60244450D01*
X118097794Y-60418182D01*
X118243919Y-60621514D01*
X118349490Y-60770000D01*
X118505233Y-60988280D01*
X118646457Y-61182998D01*
X118766450Y-61345157D01*
X118858499Y-61465763D01*
X118915889Y-61535820D01*
X118931591Y-61550000D01*
X118970028Y-61518313D01*
X118984508Y-61489887D01*
X119029467Y-61436085D01*
X119120468Y-61361860D01*
X119196618Y-61309887D01*
X119323088Y-61239068D01*
X119439557Y-61202768D01*
X119584755Y-61190538D01*
X119640908Y-61190000D01*
X119787274Y-61194035D01*
X119882271Y-61212103D01*
X119954369Y-61253149D01*
X120013076Y-61306923D01*
X120111918Y-61454032D01*
X120134227Y-61615407D01*
X120080187Y-61782623D01*
X120000343Y-61894887D01*
X119815332Y-62056404D01*
X119607494Y-62154063D01*
X119391384Y-62184102D01*
X119181554Y-62142756D01*
X119130000Y-62119937D01*
X119062477Y-62072482D01*
X118974794Y-61984973D01*
X118861507Y-61850890D01*
X118717171Y-61663711D01*
X118536340Y-61416916D01*
X118495294Y-61359800D01*
X118000589Y-60669601D01*
X117879698Y-60919800D01*
X117783766Y-61181354D01*
X117759608Y-61418047D01*
X117807536Y-61625729D01*
X117823993Y-61660000D01*
X117862323Y-61744774D01*
X117858646Y-61780993D01*
X117806413Y-61768985D01*
X117699075Y-61709076D01*
X117635555Y-61669437D01*
X117468863Y-61527403D01*
X117363926Y-61357818D01*
X117330000Y-61186849D01*
X117344569Y-61113835D01*
X117383702Y-60988195D01*
X117440534Y-60830869D01*
X117477596Y-60736576D01*
X117542690Y-60560802D01*
X117593685Y-60394664D01*
X117623203Y-60263601D01*
X117627596Y-60219540D01*
X117652554Y-60088573D01*
X117715883Y-60008194D01*
X117773618Y-59990612D01*
X117802349Y-60021689D01*
G37*
G36*
X120913425Y-68421547D02*
G01*
X121005235Y-68427438D01*
X121026232Y-68432812D01*
X121044463Y-68488526D01*
X121058980Y-68607038D01*
X121069623Y-68771224D01*
X121076231Y-68963961D01*
X121078644Y-69168125D01*
X121076700Y-69366593D01*
X121070239Y-69542241D01*
X121059100Y-69677947D01*
X121043123Y-69756586D01*
X121038731Y-69764823D01*
X121017202Y-69786185D01*
X120981365Y-69802935D01*
X120921952Y-69815717D01*
X120829697Y-69825173D01*
X120695333Y-69831947D01*
X120509592Y-69836682D01*
X120263209Y-69840022D01*
X119946915Y-69842610D01*
X119915135Y-69842825D01*
X119630650Y-69844128D01*
X119373315Y-69844156D01*
X119153691Y-69843000D01*
X118982337Y-69840752D01*
X118869815Y-69837506D01*
X118826685Y-69833352D01*
X118826665Y-69833333D01*
X118821180Y-69789608D01*
X118817128Y-69680190D01*
X118814777Y-69519379D01*
X118814396Y-69321473D01*
X118815026Y-69213333D01*
X118820052Y-68610000D01*
X118871587Y-68970000D01*
X118896008Y-69162174D01*
X118915117Y-69352974D01*
X118925621Y-69508264D01*
X118926561Y-69540000D01*
X118930000Y-69750000D01*
X119968311Y-69750000D01*
X121006622Y-69750000D01*
X120989396Y-69140000D01*
X120983357Y-68927053D01*
X120978097Y-68743322D01*
X120974033Y-68603230D01*
X120971583Y-68521201D01*
X120971085Y-68506294D01*
X120932501Y-68500574D01*
X120824151Y-68496318D01*
X120656260Y-68493619D01*
X120439051Y-68492572D01*
X120182746Y-68493272D01*
X119897568Y-68495811D01*
X119870000Y-68496144D01*
X119513493Y-68499444D01*
X119232354Y-68499506D01*
X119022010Y-68496203D01*
X118877888Y-68489405D01*
X118795417Y-68478984D01*
X118770000Y-68465308D01*
X118806976Y-68438970D01*
X118916485Y-68441619D01*
X118940000Y-68444667D01*
X119028459Y-68450021D01*
X119182988Y-68451975D01*
X119389734Y-68450665D01*
X119634845Y-68446228D01*
X119904468Y-68438798D01*
X120050000Y-68433789D01*
X120317075Y-68425381D01*
X120557740Y-68420530D01*
X120760391Y-68419248D01*
X120913425Y-68421547D01*
G37*
G36*
X115495595Y-61538012D02*
G01*
X115570481Y-61570257D01*
X115636746Y-61622049D01*
X115667220Y-61702020D01*
X115674631Y-61796750D01*
X115691881Y-61911997D01*
X115741101Y-62062144D01*
X115826729Y-62259174D01*
X115907015Y-62424049D01*
X116033426Y-62691523D01*
X116115394Y-62906010D01*
X116155275Y-63079406D01*
X116155427Y-63223605D01*
X116118208Y-63350503D01*
X116098462Y-63390000D01*
X116037249Y-63474302D01*
X115941024Y-63578735D01*
X115827823Y-63686889D01*
X115715683Y-63782351D01*
X115622641Y-63848710D01*
X115570929Y-63870000D01*
X115561597Y-63836430D01*
X115577742Y-63750780D01*
X115597147Y-63687183D01*
X115646140Y-63460379D01*
X115633564Y-63233598D01*
X115556983Y-62992042D01*
X115447241Y-62776910D01*
X115365881Y-62640564D01*
X115298617Y-62535388D01*
X115255749Y-62477166D01*
X115247253Y-62470490D01*
X115220687Y-62503208D01*
X115162057Y-62593891D01*
X115078572Y-62730811D01*
X114977444Y-62902237D01*
X114909452Y-63020000D01*
X114708412Y-63370508D01*
X114542443Y-63658163D01*
X114407091Y-63889660D01*
X114297899Y-64071697D01*
X114210412Y-64210972D01*
X114140174Y-64314184D01*
X114082729Y-64388028D01*
X114033622Y-64439204D01*
X113988396Y-64474409D01*
X113942596Y-64500340D01*
X113916410Y-64512684D01*
X113721551Y-64568754D01*
X113493110Y-64585729D01*
X113267844Y-64562616D01*
X113160363Y-64533082D01*
X112925004Y-64416773D01*
X112744119Y-64259528D01*
X112626309Y-64070778D01*
X112582865Y-63899744D01*
X112598792Y-63706630D01*
X112687600Y-63544940D01*
X112847456Y-63417507D01*
X112917883Y-63382391D01*
X113137180Y-63322284D01*
X113377872Y-63316988D01*
X113618763Y-63361595D01*
X113838657Y-63451197D01*
X114016360Y-63580887D01*
X114076693Y-63650715D01*
X114150743Y-63752369D01*
X114785961Y-62650090D01*
X114941776Y-62380552D01*
X115085288Y-62133913D01*
X115211535Y-61918573D01*
X115315557Y-61742929D01*
X115392394Y-61615381D01*
X115437084Y-61544328D01*
X115446091Y-61532415D01*
X115495595Y-61538012D01*
G37*
G36*
X120000083Y-70082705D02*
G01*
X120590000Y-70090000D01*
X120614492Y-70270000D01*
X120621510Y-70402485D01*
X120600258Y-70474460D01*
X120594492Y-70479387D01*
X120529005Y-70493632D01*
X120392583Y-70500550D01*
X120193952Y-70500131D01*
X119941842Y-70492367D01*
X119698252Y-70480338D01*
X119556202Y-70468526D01*
X119472489Y-70447935D01*
X119425454Y-70410540D01*
X119403175Y-70370995D01*
X119378737Y-70257153D01*
X119382284Y-70211042D01*
X119459855Y-70211042D01*
X119482450Y-70284782D01*
X119510000Y-70319387D01*
X119559006Y-70345899D01*
X119599412Y-70323848D01*
X119635688Y-70280000D01*
X119674640Y-70233920D01*
X119674574Y-70255246D01*
X119663315Y-70290000D01*
X119647904Y-70343386D01*
X119665110Y-70342802D01*
X119724938Y-70292242D01*
X119784031Y-70244669D01*
X119797333Y-70251398D01*
X119787441Y-70282242D01*
X119776916Y-70340897D01*
X119812063Y-70336935D01*
X119840468Y-70312616D01*
X120094064Y-70312616D01*
X120104940Y-70337384D01*
X120157489Y-70304897D01*
X120205625Y-70271388D01*
X120207031Y-70296604D01*
X120198744Y-70320000D01*
X120193879Y-70377426D01*
X120211255Y-70390000D01*
X120249068Y-70359813D01*
X120250000Y-70351407D01*
X120281287Y-70304641D01*
X120333785Y-70267974D01*
X120393078Y-70242917D01*
X120400992Y-70272534D01*
X120388816Y-70316566D01*
X120372551Y-70379450D01*
X120375457Y-70390000D01*
X120410041Y-70347655D01*
X120465702Y-70281019D01*
X120540553Y-70192039D01*
X120401561Y-70197264D01*
X120294801Y-70193431D01*
X120221827Y-70177075D01*
X120218291Y-70175124D01*
X120167923Y-70183320D01*
X120132006Y-70226250D01*
X120094064Y-70312616D01*
X119840468Y-70312616D01*
X119888541Y-70271458D01*
X119919337Y-70234721D01*
X120010000Y-70234721D01*
X120034645Y-70256407D01*
X120050000Y-70250000D01*
X120088506Y-70197011D01*
X120090000Y-70185278D01*
X120065354Y-70163592D01*
X120050000Y-70170000D01*
X120011493Y-70222988D01*
X120010000Y-70234721D01*
X119919337Y-70234721D01*
X119936318Y-70214465D01*
X119932754Y-70181018D01*
X119868941Y-70165982D01*
X119735974Y-70164219D01*
X119703801Y-70164920D01*
X119591890Y-70162613D01*
X119525217Y-70151244D01*
X119516161Y-70140000D01*
X119504503Y-70111946D01*
X119489846Y-70110000D01*
X119461196Y-70141100D01*
X119459855Y-70211042D01*
X119382284Y-70211042D01*
X119385006Y-70175655D01*
X119410166Y-70075411D01*
X120000083Y-70082705D01*
G37*
G36*
X119540000Y-67182191D02*
G01*
X119730000Y-67194383D01*
X119730000Y-67366156D01*
X119726480Y-67494621D01*
X119717261Y-67665456D01*
X119704518Y-67839373D01*
X119679037Y-68140816D01*
X119474518Y-68129419D01*
X119348038Y-68129835D01*
X119252317Y-68143538D01*
X119223561Y-68155953D01*
X119168558Y-68169509D01*
X119151820Y-68152946D01*
X119097532Y-68131508D01*
X118989600Y-68131617D01*
X118952137Y-68135909D01*
X118870279Y-68145858D01*
X118813885Y-68141547D01*
X118778727Y-68111209D01*
X118760574Y-68043080D01*
X118755200Y-67925395D01*
X118756620Y-67845359D01*
X118850000Y-67845359D01*
X118852954Y-67957777D01*
X118871902Y-68011549D01*
X118921970Y-68028025D01*
X118980000Y-68028834D01*
X119056964Y-68018893D01*
X119081516Y-68005144D01*
X119211387Y-68005144D01*
X119234442Y-67997305D01*
X119295805Y-67941611D01*
X119368359Y-67865144D01*
X119452213Y-67776050D01*
X119510249Y-67721344D01*
X119528359Y-67712228D01*
X119507766Y-67755310D01*
X119454219Y-67836461D01*
X119430468Y-67869364D01*
X119365620Y-67970405D01*
X119354036Y-68019696D01*
X119392865Y-68012338D01*
X119475586Y-67946824D01*
X119543717Y-67885724D01*
X119563001Y-67877915D01*
X119543219Y-67922255D01*
X119534021Y-67940000D01*
X119507444Y-68006784D01*
X119530226Y-68028912D01*
X119549845Y-68030000D01*
X119594293Y-68005234D01*
X119605520Y-67921499D01*
X119604530Y-67900000D01*
X119609032Y-67773526D01*
X119629046Y-67670313D01*
X119647412Y-67602184D01*
X119627532Y-67599067D01*
X119585769Y-67629624D01*
X119535419Y-67667453D01*
X119537919Y-67656850D01*
X119584104Y-67601625D01*
X119632795Y-67521846D01*
X119641196Y-67463588D01*
X119613707Y-67473356D01*
X119553421Y-67532478D01*
X119473264Y-67624667D01*
X119386165Y-67733632D01*
X119305052Y-67843085D01*
X119242852Y-67936736D01*
X119212493Y-67998297D01*
X119211387Y-68005144D01*
X119081516Y-68005144D01*
X119124420Y-67981118D01*
X119201037Y-67901215D01*
X119280371Y-67798834D01*
X119384454Y-67660611D01*
X119486413Y-67527772D01*
X119556168Y-67439130D01*
X119617609Y-67355397D01*
X119646346Y-67300984D01*
X119645797Y-67292761D01*
X119598608Y-67281479D01*
X119499091Y-67271950D01*
X119374916Y-67265920D01*
X119253754Y-67265134D01*
X119223406Y-67266124D01*
X119140906Y-67304693D01*
X119037596Y-67408499D01*
X118993406Y-67465359D01*
X118905220Y-67600091D01*
X118861787Y-67714303D01*
X118850002Y-67842723D01*
X118850000Y-67845359D01*
X118756620Y-67845359D01*
X118758375Y-67746389D01*
X118762512Y-67608329D01*
X118766926Y-67462920D01*
X118850000Y-67462920D01*
X118870195Y-67480251D01*
X118929218Y-67430494D01*
X118966251Y-67388489D01*
X119027328Y-67302653D01*
X119047081Y-67245633D01*
X119039217Y-67234322D01*
X118984576Y-67251140D01*
X118920035Y-67314235D01*
X118867901Y-67396656D01*
X118850000Y-67462920D01*
X118766926Y-67462920D01*
X118772104Y-67292360D01*
X118810000Y-67292360D01*
X118829391Y-67333762D01*
X118850000Y-67330000D01*
X118888474Y-67278861D01*
X118890000Y-67267639D01*
X118859490Y-67231077D01*
X118850000Y-67230000D01*
X118814895Y-67262558D01*
X118810000Y-67292360D01*
X118772104Y-67292360D01*
X118775025Y-67196144D01*
X119062512Y-67183072D01*
X119240744Y-67178053D01*
X119418054Y-67178025D01*
X119540000Y-67182191D01*
G37*
G36*
X120841691Y-67227580D02*
G01*
X120940870Y-67236976D01*
X120999969Y-67253576D01*
X121024832Y-67270272D01*
X121037527Y-67320924D01*
X121046300Y-67431337D01*
X121051173Y-67581372D01*
X121052171Y-67750887D01*
X121049315Y-67919742D01*
X121042629Y-68067796D01*
X121032135Y-68174907D01*
X121023763Y-68211827D01*
X120990338Y-68260550D01*
X120975720Y-68264993D01*
X120923903Y-68255514D01*
X120822903Y-68237389D01*
X120770000Y-68227958D01*
X120625667Y-68209418D01*
X120449975Y-68196473D01*
X120343333Y-68192964D01*
X120212101Y-68185507D01*
X120117620Y-68169069D01*
X120083333Y-68150444D01*
X120079463Y-68094558D01*
X120079652Y-68078003D01*
X120570000Y-68078003D01*
X120575574Y-68103418D01*
X120582089Y-68100945D01*
X120721463Y-68100945D01*
X120741539Y-68110000D01*
X120770338Y-68098341D01*
X120866272Y-68098341D01*
X120871708Y-68112763D01*
X120910322Y-68148232D01*
X120929217Y-68107834D01*
X120930000Y-68087639D01*
X120910319Y-68046441D01*
X120889347Y-68050403D01*
X120866272Y-68098341D01*
X120770338Y-68098341D01*
X120810440Y-68082106D01*
X120858309Y-68040000D01*
X120907352Y-67952423D01*
X120943059Y-67836096D01*
X120944200Y-67830000D01*
X120969381Y-67690000D01*
X120893968Y-67787357D01*
X120786642Y-67936743D01*
X120728257Y-68043141D01*
X120721463Y-68100945D01*
X120582089Y-68100945D01*
X120598228Y-68094819D01*
X120646861Y-68043660D01*
X120730370Y-67941398D01*
X120787230Y-67869392D01*
X120875636Y-67748423D01*
X120937256Y-67647657D01*
X120960816Y-67585942D01*
X120960133Y-67580400D01*
X120933041Y-67590416D01*
X120874108Y-67649357D01*
X120796718Y-67740153D01*
X120714252Y-67845735D01*
X120640092Y-67949036D01*
X120587621Y-68032986D01*
X120570000Y-68078003D01*
X120079652Y-68078003D01*
X120080771Y-67980162D01*
X120086881Y-67828557D01*
X120087170Y-67823333D01*
X120170443Y-67823333D01*
X120170887Y-67930000D01*
X120280188Y-67790000D01*
X120402624Y-67637813D01*
X120489145Y-67539406D01*
X120536764Y-67496352D01*
X120542499Y-67510224D01*
X120503364Y-67582596D01*
X120416374Y-67715041D01*
X120412966Y-67720000D01*
X120306296Y-67883915D01*
X120244022Y-67997429D01*
X120224958Y-68056749D01*
X120247915Y-68058084D01*
X120311706Y-67997643D01*
X120415145Y-67871633D01*
X120447187Y-67829271D01*
X120557999Y-67688478D01*
X120673532Y-67553842D01*
X120762385Y-67460880D01*
X120806721Y-67425114D01*
X120800882Y-67449629D01*
X120744608Y-67534884D01*
X120637638Y-67681335D01*
X120634314Y-67685782D01*
X120529724Y-67830240D01*
X120448841Y-67950897D01*
X120400469Y-68033991D01*
X120391664Y-68064997D01*
X120426363Y-68048138D01*
X120498189Y-67984252D01*
X120593470Y-67888118D01*
X120698534Y-67774512D01*
X120799711Y-67658211D01*
X120883330Y-67553992D01*
X120935298Y-67477398D01*
X120959568Y-67396561D01*
X120922215Y-67344422D01*
X120817393Y-67317133D01*
X120681921Y-67310612D01*
X120572172Y-67314634D01*
X120499660Y-67338487D01*
X120436981Y-67398507D01*
X120364250Y-67500000D01*
X120288503Y-67605534D01*
X120227903Y-67680122D01*
X120202328Y-67703333D01*
X120178486Y-67748580D01*
X120170443Y-67823333D01*
X120087170Y-67823333D01*
X120090000Y-67772089D01*
X120103633Y-67596789D01*
X120104585Y-67591066D01*
X120171358Y-67591066D01*
X120174050Y-67626188D01*
X120200309Y-67608000D01*
X120244494Y-67556268D01*
X120318741Y-67472360D01*
X120347793Y-67440000D01*
X120417374Y-67359702D01*
X120436025Y-67321884D01*
X120407506Y-67310634D01*
X120378510Y-67310000D01*
X120289816Y-67348262D01*
X120231027Y-67428013D01*
X120191440Y-67518621D01*
X120171358Y-67591066D01*
X120104585Y-67591066D01*
X120122499Y-67483335D01*
X120151138Y-67413576D01*
X120190000Y-67372404D01*
X120242630Y-67322575D01*
X120231296Y-67287239D01*
X120210000Y-67271372D01*
X120203474Y-67250023D01*
X120263191Y-67235853D01*
X120394807Y-67227878D01*
X120470000Y-67226184D01*
X120689158Y-67224334D01*
X120841691Y-67227580D01*
G37*
G36*
X123257592Y-67729035D02*
G01*
X123545839Y-67853998D01*
X123806598Y-68050689D01*
X123966165Y-68239650D01*
X124084530Y-68474282D01*
X124167562Y-68767282D01*
X124187462Y-68874441D01*
X124191500Y-69037668D01*
X124163347Y-69237647D01*
X124109493Y-69441105D01*
X124046983Y-69594658D01*
X123893153Y-69836178D01*
X123704131Y-70014123D01*
X123471431Y-70133470D01*
X123186571Y-70199199D01*
X122990000Y-70214866D01*
X122811783Y-70216474D01*
X122649687Y-70209474D01*
X122530805Y-70195313D01*
X122504339Y-70188908D01*
X122400166Y-70143852D01*
X122363404Y-70123333D01*
X122703333Y-70123333D01*
X122708824Y-70147113D01*
X122730000Y-70150000D01*
X122762924Y-70135364D01*
X122760134Y-70130000D01*
X123050000Y-70130000D01*
X123070000Y-70150000D01*
X123090000Y-70130000D01*
X123070000Y-70110000D01*
X123050000Y-70130000D01*
X122760134Y-70130000D01*
X122756666Y-70123333D01*
X122709196Y-70118546D01*
X122703333Y-70123333D01*
X122363404Y-70123333D01*
X122322381Y-70100436D01*
X122867348Y-70100436D01*
X122906666Y-70106842D01*
X122958547Y-70099487D01*
X122959166Y-70085833D01*
X122905631Y-70076284D01*
X122882500Y-70082675D01*
X122867348Y-70100436D01*
X122322381Y-70100436D01*
X122268158Y-70070171D01*
X122184475Y-70016128D01*
X122176732Y-70010000D01*
X123370000Y-70010000D01*
X123390000Y-70030000D01*
X123410000Y-70010000D01*
X123390000Y-69990000D01*
X123370000Y-70010000D01*
X122176732Y-70010000D01*
X122126193Y-69970000D01*
X122330000Y-69970000D01*
X122350000Y-69990000D01*
X122370000Y-69970000D01*
X122350000Y-69950000D01*
X122330000Y-69970000D01*
X122126193Y-69970000D01*
X122075653Y-69930000D01*
X122210000Y-69930000D01*
X122230000Y-69950000D01*
X122250000Y-69930000D01*
X122243333Y-69923333D01*
X123143333Y-69923333D01*
X123148824Y-69947113D01*
X123170000Y-69950000D01*
X123202924Y-69935364D01*
X123196666Y-69923333D01*
X123463333Y-69923333D01*
X123468824Y-69947113D01*
X123490000Y-69950000D01*
X123522924Y-69935364D01*
X123516666Y-69923333D01*
X123469196Y-69918546D01*
X123463333Y-69923333D01*
X123196666Y-69923333D01*
X123149196Y-69918546D01*
X123143333Y-69923333D01*
X122243333Y-69923333D01*
X122230000Y-69910000D01*
X123570000Y-69910000D01*
X123584635Y-69942924D01*
X123596666Y-69936666D01*
X123601453Y-69889196D01*
X123596666Y-69883333D01*
X123572886Y-69888824D01*
X123570000Y-69910000D01*
X122230000Y-69910000D01*
X122210000Y-69930000D01*
X122075653Y-69930000D01*
X122070816Y-69926172D01*
X122004033Y-69850000D01*
X122490000Y-69850000D01*
X122510000Y-69870000D01*
X122530000Y-69850000D01*
X122510000Y-69830000D01*
X122490000Y-69850000D01*
X122004033Y-69850000D01*
X121977867Y-69820156D01*
X121946620Y-69770000D01*
X123770000Y-69770000D01*
X123790000Y-69790000D01*
X123810000Y-69770000D01*
X123790000Y-69750000D01*
X123770000Y-69770000D01*
X121946620Y-69770000D01*
X121887367Y-69674892D01*
X121870757Y-69643333D01*
X122183333Y-69643333D01*
X122188824Y-69667113D01*
X122210000Y-69670000D01*
X122242924Y-69655364D01*
X122236666Y-69643333D01*
X122189196Y-69638546D01*
X122183333Y-69643333D01*
X121870757Y-69643333D01*
X121832162Y-69570000D01*
X122490000Y-69570000D01*
X122510000Y-69590000D01*
X122530000Y-69570000D01*
X122510000Y-69550000D01*
X122490000Y-69570000D01*
X121832162Y-69570000D01*
X121830135Y-69566148D01*
X121783192Y-69470000D01*
X123650000Y-69470000D01*
X123664635Y-69502924D01*
X123676666Y-69496666D01*
X123681453Y-69449196D01*
X123676666Y-69443333D01*
X123652886Y-69448824D01*
X123650000Y-69470000D01*
X121783192Y-69470000D01*
X121751648Y-69405391D01*
X121737844Y-69370000D01*
X122330000Y-69370000D01*
X122350000Y-69390000D01*
X122370000Y-69370000D01*
X122350000Y-69350000D01*
X122330000Y-69370000D01*
X121737844Y-69370000D01*
X121704370Y-69284177D01*
X121680814Y-69172033D01*
X121673492Y-69038483D01*
X121673585Y-69009347D01*
X122570000Y-69009347D01*
X122602184Y-69104300D01*
X122681470Y-69196408D01*
X122781959Y-69263630D01*
X122877752Y-69283925D01*
X122889911Y-69281613D01*
X122972279Y-69235675D01*
X123019161Y-69190000D01*
X123250000Y-69190000D01*
X123264635Y-69222924D01*
X123276666Y-69216666D01*
X123277338Y-69210000D01*
X123610000Y-69210000D01*
X123630000Y-69230000D01*
X123650000Y-69210000D01*
X123630000Y-69190000D01*
X123610000Y-69210000D01*
X123277338Y-69210000D01*
X123281453Y-69169196D01*
X123276666Y-69163333D01*
X123252886Y-69168824D01*
X123250000Y-69190000D01*
X123019161Y-69190000D01*
X123053225Y-69156813D01*
X123108951Y-69033792D01*
X123100798Y-68930000D01*
X123450000Y-68930000D01*
X123470000Y-68950000D01*
X123490000Y-68930000D01*
X123470000Y-68910000D01*
X123450000Y-68930000D01*
X123100798Y-68930000D01*
X123099367Y-68911780D01*
X123034147Y-68811989D01*
X122938157Y-68763333D01*
X123743333Y-68763333D01*
X123748824Y-68787113D01*
X123770000Y-68790000D01*
X123802924Y-68775364D01*
X123796666Y-68763333D01*
X123749196Y-68758546D01*
X123743333Y-68763333D01*
X122938157Y-68763333D01*
X122922960Y-68755630D01*
X122867749Y-68750000D01*
X122757830Y-68780009D01*
X122654382Y-68854283D01*
X122584537Y-68949188D01*
X122570000Y-69009347D01*
X121673585Y-69009347D01*
X121673840Y-68930000D01*
X121685363Y-68810000D01*
X122050000Y-68810000D01*
X122070000Y-68830000D01*
X122090000Y-68810000D01*
X122070000Y-68790000D01*
X122050000Y-68810000D01*
X121685363Y-68810000D01*
X121693045Y-68730000D01*
X122250000Y-68730000D01*
X122270000Y-68750000D01*
X122290000Y-68730000D01*
X122270000Y-68710000D01*
X122250000Y-68730000D01*
X121693045Y-68730000D01*
X121700727Y-68650000D01*
X122570000Y-68650000D01*
X122590000Y-68670000D01*
X122610000Y-68650000D01*
X122590000Y-68630000D01*
X122570000Y-68650000D01*
X121700727Y-68650000D01*
X121706625Y-68588577D01*
X121761500Y-68414505D01*
X121983749Y-68414505D01*
X121990000Y-68430000D01*
X122025944Y-68468159D01*
X122032360Y-68470000D01*
X122049541Y-68439052D01*
X122050000Y-68430000D01*
X122019249Y-68391537D01*
X122007639Y-68390000D01*
X121983749Y-68414505D01*
X121761500Y-68414505D01*
X121790830Y-68321465D01*
X123816447Y-68321465D01*
X123826180Y-68343819D01*
X123866456Y-68386761D01*
X123889610Y-68377952D01*
X123890000Y-68372360D01*
X123861588Y-68338528D01*
X123843819Y-68326180D01*
X123816447Y-68321465D01*
X121790830Y-68321465D01*
X121796756Y-68302666D01*
X121945210Y-68071014D01*
X122026090Y-68001465D01*
X123576447Y-68001465D01*
X123586180Y-68023819D01*
X123626456Y-68066761D01*
X123649610Y-68057952D01*
X123650000Y-68052360D01*
X123621588Y-68018528D01*
X123603819Y-68006180D01*
X123576447Y-68001465D01*
X122026090Y-68001465D01*
X122152962Y-67892367D01*
X122256531Y-67843333D01*
X122423333Y-67843333D01*
X122428824Y-67867113D01*
X122450000Y-67870000D01*
X122482924Y-67855364D01*
X122476666Y-67843333D01*
X122429196Y-67838546D01*
X122423333Y-67843333D01*
X122256531Y-67843333D01*
X122420989Y-67765472D01*
X122622658Y-67711241D01*
X122949148Y-67681244D01*
X123257592Y-67729035D01*
G37*
G36*
X117098270Y-67478064D02*
G01*
X117409483Y-67521837D01*
X117676283Y-67621784D01*
X117918824Y-67787078D01*
X118052038Y-67912092D01*
X118229938Y-68142632D01*
X118334967Y-68396765D01*
X118368243Y-68679559D01*
X118330885Y-68996088D01*
X118310333Y-69082268D01*
X118188292Y-69423647D01*
X118018420Y-69702117D01*
X117804309Y-69915558D01*
X117549554Y-70061845D01*
X117257749Y-70138856D01*
X116932488Y-70144468D01*
X116610969Y-70085876D01*
X116409207Y-70010000D01*
X116730000Y-70010000D01*
X116750000Y-70030000D01*
X116770000Y-70010000D01*
X116750000Y-69990000D01*
X116730000Y-70010000D01*
X116409207Y-70010000D01*
X116298976Y-69968546D01*
X116241632Y-69930000D01*
X116650000Y-69930000D01*
X116670000Y-69950000D01*
X116672361Y-69947639D01*
X116890000Y-69947639D01*
X116919036Y-69988372D01*
X116930000Y-69990000D01*
X116968960Y-69976352D01*
X116970000Y-69972360D01*
X116941970Y-69938209D01*
X116930000Y-69930000D01*
X116893140Y-69933171D01*
X116890000Y-69947639D01*
X116672361Y-69947639D01*
X116690000Y-69930000D01*
X116670000Y-69910000D01*
X117550000Y-69910000D01*
X117553171Y-69946859D01*
X117567639Y-69950000D01*
X117608372Y-69920963D01*
X117610000Y-69910000D01*
X117596352Y-69871039D01*
X117592360Y-69870000D01*
X117558209Y-69898029D01*
X117550000Y-69910000D01*
X116670000Y-69910000D01*
X116650000Y-69930000D01*
X116241632Y-69930000D01*
X116122619Y-69850000D01*
X116570000Y-69850000D01*
X116590000Y-69870000D01*
X116610000Y-69850000D01*
X116590000Y-69830000D01*
X116570000Y-69850000D01*
X116122619Y-69850000D01*
X116047805Y-69799711D01*
X116039414Y-69790000D01*
X116370000Y-69790000D01*
X116383647Y-69828960D01*
X116387639Y-69830000D01*
X116412006Y-69810000D01*
X117130000Y-69810000D01*
X117150000Y-69830000D01*
X117170000Y-69810000D01*
X117290000Y-69810000D01*
X117310000Y-69830000D01*
X117330000Y-69810000D01*
X117310000Y-69790000D01*
X117290000Y-69810000D01*
X117170000Y-69810000D01*
X117150000Y-69790000D01*
X117130000Y-69810000D01*
X116412006Y-69810000D01*
X116421790Y-69801970D01*
X116430000Y-69790000D01*
X116426828Y-69753140D01*
X116412360Y-69750000D01*
X116371627Y-69779036D01*
X116370000Y-69790000D01*
X116039414Y-69790000D01*
X116002601Y-69747395D01*
X117819807Y-69747395D01*
X117825278Y-69750000D01*
X117861782Y-69721840D01*
X117870000Y-69710000D01*
X117880192Y-69672604D01*
X117874721Y-69670000D01*
X117838217Y-69698159D01*
X117830000Y-69710000D01*
X117819807Y-69747395D01*
X116002601Y-69747395D01*
X115935727Y-69670000D01*
X116730000Y-69670000D01*
X116758709Y-69708855D01*
X116767639Y-69710000D01*
X116821812Y-69680924D01*
X116830000Y-69670000D01*
X116824704Y-69650000D01*
X117490000Y-69650000D01*
X117510000Y-69670000D01*
X117530000Y-69650000D01*
X117510000Y-69630000D01*
X117490000Y-69650000D01*
X116824704Y-69650000D01*
X116820932Y-69635755D01*
X116792360Y-69630000D01*
X116737632Y-69650883D01*
X116730000Y-69670000D01*
X115935727Y-69670000D01*
X115883884Y-69610000D01*
X116090000Y-69610000D01*
X116110000Y-69630000D01*
X116210000Y-69630000D01*
X116224635Y-69662924D01*
X116236666Y-69656666D01*
X116239618Y-69627395D01*
X117379807Y-69627395D01*
X117385278Y-69630000D01*
X117421782Y-69601840D01*
X117430000Y-69590000D01*
X117440192Y-69552604D01*
X117434721Y-69550000D01*
X117398217Y-69578159D01*
X117390000Y-69590000D01*
X117379807Y-69627395D01*
X116239618Y-69627395D01*
X116241453Y-69609196D01*
X116236666Y-69603333D01*
X116212886Y-69608824D01*
X116210000Y-69630000D01*
X116110000Y-69630000D01*
X116130000Y-69610000D01*
X116110000Y-69590000D01*
X116090000Y-69610000D01*
X115883884Y-69610000D01*
X115855933Y-69577652D01*
X115803819Y-69470000D01*
X116490000Y-69470000D01*
X116520438Y-69508837D01*
X116530000Y-69510000D01*
X116555518Y-69490000D01*
X117890000Y-69490000D01*
X117910000Y-69510000D01*
X117930000Y-69490000D01*
X117910000Y-69470000D01*
X117890000Y-69490000D01*
X116555518Y-69490000D01*
X116568837Y-69479561D01*
X116570000Y-69470000D01*
X116539561Y-69431162D01*
X116530000Y-69430000D01*
X116491162Y-69460438D01*
X116490000Y-69470000D01*
X115803819Y-69470000D01*
X115721838Y-69300654D01*
X115720343Y-69294505D01*
X115903749Y-69294505D01*
X115910000Y-69310000D01*
X115945944Y-69348159D01*
X115952360Y-69350000D01*
X115969541Y-69319052D01*
X115970000Y-69310000D01*
X115954010Y-69290000D01*
X117090000Y-69290000D01*
X117110000Y-69310000D01*
X117130000Y-69290000D01*
X117810000Y-69290000D01*
X117830000Y-69310000D01*
X117850000Y-69290000D01*
X117830000Y-69270000D01*
X117810000Y-69290000D01*
X117130000Y-69290000D01*
X117110000Y-69270000D01*
X117090000Y-69290000D01*
X115954010Y-69290000D01*
X115939249Y-69271537D01*
X115927639Y-69270000D01*
X115903749Y-69294505D01*
X115720343Y-69294505D01*
X115707903Y-69243333D01*
X116183333Y-69243333D01*
X116188824Y-69267113D01*
X116210000Y-69270000D01*
X116242924Y-69255364D01*
X116236666Y-69243333D01*
X116189196Y-69238546D01*
X116183333Y-69243333D01*
X115707903Y-69243333D01*
X115689501Y-69167639D01*
X116370000Y-69167639D01*
X116383182Y-69225432D01*
X116417817Y-69208107D01*
X116428291Y-69192763D01*
X116423275Y-69141390D01*
X116410652Y-69130403D01*
X116375866Y-69139093D01*
X116370000Y-69167639D01*
X115689501Y-69167639D01*
X115680350Y-69130000D01*
X115770000Y-69130000D01*
X115790000Y-69150000D01*
X115810000Y-69130000D01*
X115790000Y-69110000D01*
X115930000Y-69110000D01*
X115960438Y-69148837D01*
X115970000Y-69150000D01*
X115995518Y-69130000D01*
X117570000Y-69130000D01*
X117590000Y-69150000D01*
X117610000Y-69130000D01*
X117590000Y-69110000D01*
X117570000Y-69130000D01*
X115995518Y-69130000D01*
X116008837Y-69119561D01*
X116010000Y-69110000D01*
X115979561Y-69071162D01*
X115970000Y-69070000D01*
X115931162Y-69100438D01*
X115930000Y-69110000D01*
X115790000Y-69110000D01*
X115770000Y-69130000D01*
X115680350Y-69130000D01*
X115660901Y-69050000D01*
X116450000Y-69050000D01*
X116470000Y-69070000D01*
X116490000Y-69050000D01*
X116470000Y-69030000D01*
X116450000Y-69050000D01*
X115660901Y-69050000D01*
X115651177Y-69010000D01*
X115890000Y-69010000D01*
X115910000Y-69030000D01*
X115930000Y-69010000D01*
X116290000Y-69010000D01*
X116310000Y-69030000D01*
X116312605Y-69027395D01*
X117379807Y-69027395D01*
X117385278Y-69030000D01*
X117421782Y-69001840D01*
X117430000Y-68990000D01*
X117440192Y-68952604D01*
X117434721Y-68950000D01*
X117398217Y-68978159D01*
X117390000Y-68990000D01*
X117379807Y-69027395D01*
X116312605Y-69027395D01*
X116330000Y-69010000D01*
X116310000Y-68990000D01*
X116290000Y-69010000D01*
X115930000Y-69010000D01*
X115910000Y-68990000D01*
X115890000Y-69010000D01*
X115651177Y-69010000D01*
X115648986Y-69000988D01*
X115643075Y-68890000D01*
X116650000Y-68890000D01*
X116670000Y-68910000D01*
X116690000Y-68890000D01*
X116670000Y-68870000D01*
X116650000Y-68890000D01*
X115643075Y-68890000D01*
X115637749Y-68790000D01*
X115736315Y-68790000D01*
X115742601Y-68846785D01*
X115756491Y-68840000D01*
X115761007Y-68770000D01*
X116490000Y-68770000D01*
X116510000Y-68790000D01*
X116530000Y-68770000D01*
X116510000Y-68750000D01*
X116490000Y-68770000D01*
X115761007Y-68770000D01*
X115761774Y-68758106D01*
X115756491Y-68740000D01*
X115741891Y-68734975D01*
X115736315Y-68790000D01*
X115637749Y-68790000D01*
X115633908Y-68717888D01*
X116815540Y-68717888D01*
X116833474Y-68832485D01*
X116890000Y-68910000D01*
X116992232Y-68980217D01*
X117086433Y-68972839D01*
X117147142Y-68927142D01*
X117199464Y-68832249D01*
X117206908Y-68720373D01*
X117195449Y-68690000D01*
X117610000Y-68690000D01*
X117630000Y-68710000D01*
X117650000Y-68690000D01*
X117630000Y-68670000D01*
X117610000Y-68690000D01*
X117195449Y-68690000D01*
X117170920Y-68624987D01*
X117132629Y-68591407D01*
X117006834Y-68552433D01*
X116902836Y-68586867D01*
X116872857Y-68612857D01*
X116815540Y-68717888D01*
X115633908Y-68717888D01*
X115631813Y-68678551D01*
X115665906Y-68490000D01*
X117210000Y-68490000D01*
X117230000Y-68510000D01*
X117250000Y-68490000D01*
X117230000Y-68470000D01*
X117210000Y-68490000D01*
X115665906Y-68490000D01*
X115673139Y-68450000D01*
X115770000Y-68450000D01*
X115790000Y-68470000D01*
X115810000Y-68450000D01*
X115790000Y-68430000D01*
X115770000Y-68450000D01*
X115673139Y-68450000D01*
X115683988Y-68390000D01*
X116690000Y-68390000D01*
X116704635Y-68422924D01*
X116716666Y-68416666D01*
X116721372Y-68370000D01*
X116970000Y-68370000D01*
X116990000Y-68390000D01*
X117150000Y-68390000D01*
X117151828Y-68426918D01*
X117165278Y-68430000D01*
X117216936Y-68403333D01*
X117823333Y-68403333D01*
X117828824Y-68427113D01*
X117850000Y-68430000D01*
X117882924Y-68415364D01*
X117876666Y-68403333D01*
X117829196Y-68398546D01*
X117823333Y-68403333D01*
X117216936Y-68403333D01*
X117221825Y-68400809D01*
X117230000Y-68390000D01*
X117228171Y-68353081D01*
X117214721Y-68350000D01*
X117158174Y-68379190D01*
X117150000Y-68390000D01*
X116990000Y-68390000D01*
X117010000Y-68370000D01*
X116990000Y-68350000D01*
X116970000Y-68370000D01*
X116721372Y-68370000D01*
X116721453Y-68369196D01*
X116716666Y-68363333D01*
X116692886Y-68368824D01*
X116690000Y-68390000D01*
X115683988Y-68390000D01*
X115684276Y-68388405D01*
X115749096Y-68231746D01*
X115764716Y-68210000D01*
X116570000Y-68210000D01*
X116590000Y-68230000D01*
X116610000Y-68210000D01*
X116590000Y-68190000D01*
X116570000Y-68210000D01*
X115764716Y-68210000D01*
X115837604Y-68108523D01*
X115934947Y-68010000D01*
X116250000Y-68010000D01*
X116270000Y-68030000D01*
X117170000Y-68030000D01*
X117184635Y-68062924D01*
X117196666Y-68056666D01*
X117201453Y-68009196D01*
X117196666Y-68003333D01*
X117172886Y-68008824D01*
X117170000Y-68030000D01*
X116270000Y-68030000D01*
X116290000Y-68010000D01*
X116270000Y-67990000D01*
X116250000Y-68010000D01*
X115934947Y-68010000D01*
X115978633Y-67965785D01*
X116021372Y-67930000D01*
X117570000Y-67930000D01*
X117590000Y-67950000D01*
X117610000Y-67930000D01*
X117590000Y-67910000D01*
X117570000Y-67930000D01*
X116021372Y-67930000D01*
X116153101Y-67819703D01*
X116166851Y-67810000D01*
X117610000Y-67810000D01*
X117630000Y-67830000D01*
X117650000Y-67810000D01*
X117630000Y-67790000D01*
X117610000Y-67810000D01*
X116166851Y-67810000D01*
X116280214Y-67730000D01*
X117570000Y-67730000D01*
X117590000Y-67750000D01*
X117610000Y-67730000D01*
X117590000Y-67710000D01*
X117570000Y-67730000D01*
X116280214Y-67730000D01*
X116336895Y-67690000D01*
X116690000Y-67690000D01*
X116710000Y-67710000D01*
X116730000Y-67690000D01*
X116850000Y-67690000D01*
X116870000Y-67710000D01*
X116890000Y-67690000D01*
X116870000Y-67670000D01*
X116850000Y-67690000D01*
X116730000Y-67690000D01*
X116710000Y-67670000D01*
X116690000Y-67690000D01*
X116336895Y-67690000D01*
X116341930Y-67686447D01*
X116500793Y-67594672D01*
X116638328Y-67527781D01*
X116744331Y-67489115D01*
X116849463Y-67472692D01*
X116984384Y-67472526D01*
X117098270Y-67478064D01*
G37*
G36*
X122289206Y-64142193D02*
G01*
X122568777Y-64144643D01*
X122795119Y-64148860D01*
X122960925Y-64154950D01*
X123058884Y-64163022D01*
X123082808Y-64169475D01*
X123091976Y-64215454D01*
X123101854Y-64326467D01*
X123111445Y-64487563D01*
X123119753Y-64683796D01*
X123122261Y-64760950D01*
X123139287Y-65330000D01*
X123397784Y-65316447D01*
X123561760Y-65316920D01*
X123705442Y-65333190D01*
X123775384Y-65352230D01*
X123894489Y-65401565D01*
X123867826Y-65707218D01*
X123858024Y-65891535D01*
X123875104Y-66012222D01*
X123930933Y-66084227D01*
X124037377Y-66122498D01*
X124206301Y-66141982D01*
X124213365Y-66142498D01*
X124450000Y-66159615D01*
X124450000Y-66590528D01*
X124453055Y-66799997D01*
X124462929Y-66938966D01*
X124480684Y-67016729D01*
X124501499Y-67041203D01*
X124524565Y-67068833D01*
X124535983Y-67137564D01*
X124536403Y-67259670D01*
X124526480Y-67447424D01*
X124524589Y-67475482D01*
X124507882Y-67735016D01*
X124488765Y-68058751D01*
X124468057Y-68430954D01*
X124446576Y-68835893D01*
X124425142Y-69257834D01*
X124404575Y-69681045D01*
X124385692Y-70089791D01*
X124371424Y-70417759D01*
X124359861Y-70665440D01*
X124347341Y-70886627D01*
X124334762Y-71068567D01*
X124323025Y-71198511D01*
X124313032Y-71263709D01*
X124311385Y-71267759D01*
X124292902Y-71282387D01*
X124252747Y-71292999D01*
X124183024Y-71299581D01*
X124075835Y-71302117D01*
X123923284Y-71300594D01*
X123717473Y-71294998D01*
X123450505Y-71285314D01*
X123114483Y-71271528D01*
X122970000Y-71265338D01*
X122511863Y-71244624D01*
X122004700Y-71219889D01*
X121441078Y-71190747D01*
X120813566Y-71156813D01*
X120114730Y-71117700D01*
X120010000Y-71111745D01*
X119550137Y-71086915D01*
X119114791Y-71066526D01*
X118686537Y-71050062D01*
X118247945Y-71037001D01*
X117781590Y-71026826D01*
X117270044Y-71019017D01*
X116697848Y-71013071D01*
X116300146Y-71008759D01*
X115977462Y-71003142D01*
X115724822Y-70996006D01*
X115537251Y-70987137D01*
X115409776Y-70976324D01*
X115337421Y-70963352D01*
X115317848Y-70953923D01*
X115300550Y-70896393D01*
X115285770Y-70764627D01*
X115273590Y-70564351D01*
X115264088Y-70301293D01*
X115257343Y-69981178D01*
X115253435Y-69609735D01*
X115252442Y-69192688D01*
X115254444Y-68735766D01*
X115254537Y-68726742D01*
X115402222Y-68726742D01*
X115402590Y-69029806D01*
X115403556Y-69308466D01*
X115405056Y-69549057D01*
X115407022Y-69737912D01*
X115409388Y-69861366D01*
X115409562Y-69867060D01*
X115419003Y-70164121D01*
X115498452Y-70067060D01*
X115544048Y-70013120D01*
X115550018Y-70014485D01*
X115515824Y-70076868D01*
X115493950Y-70114721D01*
X115439852Y-70236753D01*
X115412844Y-70354408D01*
X115412098Y-70374721D01*
X115416551Y-70451931D01*
X115434409Y-70457059D01*
X115470356Y-70410000D01*
X115553971Y-70295675D01*
X115596965Y-70248096D01*
X115598510Y-70267399D01*
X115557778Y-70353725D01*
X115533599Y-70399394D01*
X115458596Y-70541940D01*
X115420753Y-70625090D01*
X115417110Y-70658663D01*
X115444706Y-70652476D01*
X115460000Y-70643485D01*
X115545207Y-70604167D01*
X115579269Y-70626086D01*
X115563857Y-70710390D01*
X115562593Y-70714052D01*
X115523460Y-70804576D01*
X115498708Y-70825191D01*
X115496386Y-70775038D01*
X115506878Y-70720000D01*
X115518396Y-70652000D01*
X115503066Y-70654562D01*
X115491827Y-70670000D01*
X115448173Y-70772889D01*
X115472393Y-70842608D01*
X115560966Y-70869912D01*
X115568012Y-70870000D01*
X115674721Y-70845810D01*
X115726796Y-70800000D01*
X115758628Y-70753308D01*
X115768144Y-70776436D01*
X115768783Y-70796255D01*
X115798033Y-70838733D01*
X115866030Y-70839143D01*
X115946735Y-70802347D01*
X116000098Y-70753058D01*
X116036008Y-70712450D01*
X116033066Y-70738609D01*
X116025818Y-70760000D01*
X116025658Y-70817467D01*
X116068147Y-70828623D01*
X116132611Y-70796043D01*
X116186276Y-70740000D01*
X116252310Y-70650000D01*
X116209748Y-70740000D01*
X116167185Y-70830000D01*
X116718592Y-70832715D01*
X116976416Y-70835157D01*
X117277785Y-70839839D01*
X117586301Y-70846101D01*
X117865561Y-70853286D01*
X117881392Y-70853756D01*
X118492784Y-70872081D01*
X118488617Y-69161040D01*
X118488497Y-68993861D01*
X118589142Y-68993861D01*
X118589408Y-69370470D01*
X118590505Y-69722608D01*
X118592347Y-70042187D01*
X118594850Y-70321120D01*
X118597925Y-70551322D01*
X118601488Y-70724705D01*
X118605451Y-70833183D01*
X118609142Y-70868444D01*
X118653361Y-70879086D01*
X118766188Y-70890802D01*
X118936250Y-70902856D01*
X119152177Y-70914511D01*
X119402595Y-70925030D01*
X119570000Y-70930654D01*
X119852365Y-70940242D01*
X120122406Y-70951231D01*
X120364992Y-70962868D01*
X120564993Y-70974396D01*
X120707279Y-70985060D01*
X120750000Y-70989570D01*
X120936876Y-71010109D01*
X121098809Y-71022292D01*
X121219809Y-71025417D01*
X121283888Y-71018783D01*
X121290000Y-71013271D01*
X121302514Y-70966521D01*
X121316797Y-70926709D01*
X121324121Y-70878922D01*
X121296918Y-70885724D01*
X121269499Y-70888162D01*
X121282332Y-70830518D01*
X121287509Y-70816551D01*
X121295695Y-70756430D01*
X121303672Y-70625221D01*
X121311208Y-70431836D01*
X121318074Y-70185189D01*
X121324039Y-69894190D01*
X121328874Y-69567753D01*
X121332348Y-69214789D01*
X121333475Y-69036534D01*
X121335913Y-68601967D01*
X121336023Y-68575887D01*
X121450611Y-68575887D01*
X121450612Y-68687645D01*
X121451852Y-69101170D01*
X121455158Y-69440365D01*
X121460498Y-69704129D01*
X121467839Y-69891362D01*
X121477149Y-70000963D01*
X121488395Y-70031830D01*
X121490000Y-70030000D01*
X121522111Y-69999248D01*
X121529387Y-70017639D01*
X121500893Y-70081437D01*
X121490000Y-70090000D01*
X121460659Y-70144527D01*
X121451438Y-70222360D01*
X121452877Y-70330000D01*
X121555828Y-70210000D01*
X121613628Y-70148258D01*
X121627087Y-70147563D01*
X121597665Y-70203372D01*
X121526823Y-70311140D01*
X121520302Y-70320583D01*
X121472265Y-70409764D01*
X121459160Y-70476838D01*
X121460020Y-70480061D01*
X121488361Y-70478288D01*
X121543706Y-70421344D01*
X121588475Y-70359478D01*
X121665355Y-70249647D01*
X121709723Y-70198136D01*
X121717099Y-70206470D01*
X121683004Y-70276173D01*
X121645693Y-70340000D01*
X121552438Y-70495914D01*
X121500455Y-70589165D01*
X121488261Y-70624703D01*
X121514372Y-70607482D01*
X121577307Y-70542454D01*
X121588804Y-70530000D01*
X121736036Y-70370000D01*
X121640202Y-70530000D01*
X121560013Y-70666615D01*
X121524314Y-70737685D01*
X121534806Y-70745256D01*
X121593187Y-70691379D01*
X121690000Y-70590000D01*
X121793992Y-70482315D01*
X121848787Y-70433666D01*
X121854220Y-70444840D01*
X121810128Y-70516622D01*
X121716346Y-70649799D01*
X121661977Y-70724400D01*
X121560984Y-70867971D01*
X121506425Y-70958749D01*
X121498782Y-70994053D01*
X121538538Y-70971204D01*
X121626178Y-70887523D01*
X121634027Y-70879412D01*
X121778055Y-70730000D01*
X121689664Y-70862303D01*
X121631223Y-70964745D01*
X121624694Y-71013184D01*
X121663461Y-71008156D01*
X121740909Y-70950200D01*
X121841182Y-70850000D01*
X121936772Y-70748855D01*
X121981888Y-70709673D01*
X121977064Y-70732781D01*
X121922832Y-70818510D01*
X121883441Y-70876174D01*
X121824968Y-70969372D01*
X121816459Y-71015776D01*
X121856363Y-71029798D01*
X121866887Y-71030000D01*
X121921495Y-71001792D01*
X122006850Y-70928346D01*
X122091323Y-70840000D01*
X122180733Y-70742851D01*
X122221378Y-70709007D01*
X122212942Y-70738110D01*
X122155107Y-70829803D01*
X122123441Y-70876174D01*
X122061203Y-70981516D01*
X122054292Y-71031299D01*
X122098013Y-71022857D01*
X122187674Y-70953526D01*
X122214895Y-70928117D01*
X122302635Y-70849703D01*
X122341643Y-70828903D01*
X122334680Y-70857772D01*
X122284342Y-70935719D01*
X122249784Y-70970132D01*
X122211476Y-71021305D01*
X122210000Y-71032360D01*
X122238470Y-71067867D01*
X122308916Y-71060921D01*
X122398888Y-71016500D01*
X122446211Y-70980000D01*
X122498882Y-70938241D01*
X122502543Y-70947757D01*
X122493089Y-70960966D01*
X122457123Y-71031832D01*
X122478051Y-71058750D01*
X122541342Y-71033806D01*
X122576537Y-71006421D01*
X122635625Y-70958170D01*
X122649260Y-70963619D01*
X122638038Y-71000000D01*
X122634847Y-71049228D01*
X122685411Y-71070475D01*
X122741255Y-71074560D01*
X122833092Y-71078635D01*
X122983449Y-71086175D01*
X123172441Y-71096094D01*
X123380184Y-71107305D01*
X123586794Y-71118724D01*
X123772384Y-71129266D01*
X123917072Y-71137843D01*
X123999077Y-71143226D01*
X124094246Y-71113976D01*
X124144391Y-71060000D01*
X124165265Y-71003573D01*
X124182679Y-70902122D01*
X124197289Y-70747825D01*
X124209749Y-70532858D01*
X124220714Y-70249399D01*
X124225545Y-70090000D01*
X124234600Y-69789405D01*
X124244992Y-69475843D01*
X124255899Y-69172160D01*
X124266498Y-68901202D01*
X124275966Y-68685816D01*
X124276549Y-68673734D01*
X124286070Y-68456042D01*
X124289312Y-68307318D01*
X124285624Y-68216726D01*
X124274355Y-68173432D01*
X124254855Y-68166600D01*
X124246318Y-68170610D01*
X124224879Y-68172778D01*
X124258139Y-68125861D01*
X124260000Y-68123726D01*
X124318600Y-68034531D01*
X124327505Y-67972462D01*
X124292931Y-67952483D01*
X124221096Y-67989560D01*
X124208599Y-68000000D01*
X124192677Y-68008141D01*
X124224490Y-67966201D01*
X124240599Y-67947421D01*
X124303816Y-67841273D01*
X124330000Y-67730757D01*
X124330000Y-67616671D01*
X124191665Y-67773335D01*
X124114597Y-67855627D01*
X124063641Y-67900505D01*
X124051665Y-67902432D01*
X124075011Y-67859904D01*
X124137372Y-67777166D01*
X124210000Y-67690000D01*
X124314284Y-67548959D01*
X124366021Y-67431633D01*
X124370000Y-67399070D01*
X124367036Y-67347200D01*
X124349952Y-67331851D01*
X124306459Y-67358493D01*
X124224268Y-67432597D01*
X124162366Y-67491503D01*
X123954732Y-67690000D01*
X124162366Y-67456776D01*
X124260613Y-67342573D01*
X124333759Y-67250218D01*
X124368728Y-67196421D01*
X124370000Y-67191441D01*
X124339889Y-67145419D01*
X124261612Y-67141459D01*
X124153250Y-67176779D01*
X124042056Y-67241913D01*
X123945315Y-67310417D01*
X123906495Y-67333382D01*
X123918760Y-67312240D01*
X123966972Y-67257630D01*
X124021752Y-67183640D01*
X124016351Y-67154381D01*
X123956779Y-67169658D01*
X123849049Y-67229274D01*
X123797207Y-67263192D01*
X123655440Y-67356253D01*
X123577083Y-67401594D01*
X123562381Y-67400592D01*
X123611579Y-67354621D01*
X123724921Y-67265056D01*
X123788945Y-67216832D01*
X123826188Y-67183712D01*
X123819509Y-67162256D01*
X123756963Y-67145842D01*
X123628987Y-67128142D01*
X123518731Y-67120610D01*
X123343897Y-67116237D01*
X123119842Y-67115059D01*
X122861928Y-67117110D01*
X122585513Y-67122423D01*
X122470042Y-67125564D01*
X122169605Y-67135146D01*
X121939389Y-67144436D01*
X121769625Y-67154376D01*
X121650543Y-67165907D01*
X121572375Y-67179971D01*
X121525350Y-67197509D01*
X121500000Y-67219062D01*
X121485807Y-67258298D01*
X121474341Y-67338744D01*
X121465393Y-67466594D01*
X121458754Y-67648039D01*
X121454216Y-67889274D01*
X121451571Y-68196492D01*
X121450611Y-68575887D01*
X121336023Y-68575887D01*
X121337435Y-68240537D01*
X121336704Y-67945383D01*
X121332379Y-67709644D01*
X121323120Y-67526458D01*
X121307588Y-67388965D01*
X121284444Y-67290302D01*
X121252348Y-67223608D01*
X121209961Y-67182022D01*
X121155943Y-67158682D01*
X121088954Y-67146728D01*
X121007655Y-67139297D01*
X120962291Y-67135239D01*
X120850833Y-67126513D01*
X120674113Y-67115279D01*
X120446804Y-67102348D01*
X120183576Y-67088533D01*
X119899099Y-67074647D01*
X119715537Y-67066225D01*
X119405669Y-67052787D01*
X119165898Y-67043723D01*
X118986433Y-67039227D01*
X118857480Y-67039496D01*
X118769246Y-67044723D01*
X118711938Y-67055104D01*
X118675763Y-67070833D01*
X118655537Y-67087319D01*
X118640042Y-67109135D01*
X118627163Y-67145439D01*
X118616656Y-67203167D01*
X118608282Y-67289253D01*
X118601797Y-67410630D01*
X118596962Y-67574234D01*
X118593534Y-67786997D01*
X118591271Y-68055855D01*
X118589933Y-68387742D01*
X118589278Y-68789591D01*
X118589142Y-68993861D01*
X118488497Y-68993861D01*
X118488354Y-68796126D01*
X118489309Y-68454102D01*
X118491370Y-68143675D01*
X118494425Y-67873549D01*
X118498361Y-67652432D01*
X118503067Y-67489029D01*
X118508430Y-67392047D01*
X118511677Y-67370000D01*
X118500366Y-67358176D01*
X118446226Y-67397519D01*
X118359956Y-67479744D01*
X118330861Y-67510000D01*
X118235746Y-67608931D01*
X118191414Y-67650175D01*
X118195176Y-67635545D01*
X118242002Y-67570000D01*
X118331249Y-67457775D01*
X118417167Y-67361566D01*
X118445593Y-67333800D01*
X118507175Y-67258308D01*
X118530084Y-67189855D01*
X118508090Y-67151950D01*
X118494302Y-67150000D01*
X118453199Y-67179504D01*
X118381668Y-67256368D01*
X118306083Y-67350000D01*
X118199131Y-67480109D01*
X118127478Y-67544303D01*
X118092981Y-67541110D01*
X118090000Y-67521373D01*
X118116066Y-67480420D01*
X118184345Y-67400803D01*
X118278250Y-67301624D01*
X118383951Y-67185638D01*
X118425483Y-67108673D01*
X118400921Y-67059494D01*
X118308342Y-67026870D01*
X118228670Y-67012065D01*
X118137988Y-67001927D01*
X118068948Y-67014459D01*
X117997345Y-67060765D01*
X117898976Y-67151949D01*
X117877305Y-67173250D01*
X117778494Y-67264456D01*
X117702031Y-67323560D01*
X117664450Y-67337783D01*
X117664433Y-67337767D01*
X117678105Y-67300888D01*
X117738424Y-67232452D01*
X117785799Y-67188322D01*
X117870395Y-67108077D01*
X117922273Y-67047367D01*
X117930000Y-67030536D01*
X117897857Y-67004284D01*
X117819332Y-67005378D01*
X117721275Y-67028972D01*
X117630539Y-67070217D01*
X117603609Y-67089472D01*
X117554153Y-67127074D01*
X117554548Y-67117360D01*
X117560000Y-67110938D01*
X117602360Y-67048201D01*
X117610000Y-67023176D01*
X117572405Y-67013534D01*
X117469064Y-67007961D01*
X117314138Y-67006718D01*
X117121789Y-67010066D01*
X117040000Y-67012662D01*
X116781177Y-67021336D01*
X116500345Y-67029852D01*
X116231733Y-67037219D01*
X116013661Y-67042363D01*
X115849848Y-67044587D01*
X115718303Y-67049094D01*
X115615486Y-67063826D01*
X115537856Y-67096724D01*
X115481873Y-67155727D01*
X115443996Y-67248776D01*
X115420684Y-67383812D01*
X115408397Y-67568775D01*
X115403594Y-67811605D01*
X115402734Y-68120244D01*
X115402520Y-68412941D01*
X115402222Y-68726742D01*
X115254537Y-68726742D01*
X115259520Y-68244694D01*
X115267749Y-67725200D01*
X115270938Y-67560000D01*
X115278523Y-67187392D01*
X115285148Y-66886988D01*
X115289715Y-66715714D01*
X115413991Y-66715714D01*
X115498842Y-66602857D01*
X115580475Y-66497425D01*
X115618357Y-66457495D01*
X115613048Y-66483848D01*
X115565111Y-66577265D01*
X115528374Y-66643914D01*
X115459908Y-66773955D01*
X115430890Y-66853159D01*
X115436886Y-66897580D01*
X115453972Y-66913301D01*
X115517761Y-66943991D01*
X115568710Y-66929600D01*
X115632917Y-66860313D01*
X115648871Y-66840000D01*
X115700573Y-66776446D01*
X115710318Y-66775605D01*
X115688967Y-66823425D01*
X115659879Y-66910918D01*
X115679135Y-66938124D01*
X115737268Y-66900049D01*
X115769078Y-66865666D01*
X115820797Y-66812692D01*
X115829949Y-66826478D01*
X115825799Y-66840000D01*
X115823544Y-66899098D01*
X115866724Y-66902626D01*
X115927868Y-66860000D01*
X115965118Y-66830008D01*
X115954609Y-66858040D01*
X115953507Y-66860000D01*
X115941109Y-66904689D01*
X115970491Y-66901696D01*
X116022856Y-66855594D01*
X116035688Y-66840000D01*
X116075306Y-66792180D01*
X116076409Y-66808434D01*
X116065517Y-66840785D01*
X116062524Y-66860071D01*
X116073706Y-66875341D01*
X116106913Y-66886936D01*
X116169993Y-66895197D01*
X116270797Y-66900463D01*
X116417173Y-66903077D01*
X116616971Y-66903377D01*
X116878040Y-66901706D01*
X117208230Y-66898404D01*
X117355419Y-66896770D01*
X117702759Y-66894140D01*
X118051487Y-66893835D01*
X118386392Y-66895701D01*
X118692266Y-66899581D01*
X118953898Y-66905321D01*
X119156078Y-66912764D01*
X119210000Y-66915744D01*
X119673016Y-66944085D01*
X120070124Y-66966787D01*
X120415183Y-66984287D01*
X120722053Y-66997024D01*
X121004595Y-67005435D01*
X121276667Y-67009958D01*
X121552131Y-67011032D01*
X121844845Y-67009094D01*
X122070000Y-67006142D01*
X122374165Y-67001607D01*
X122673132Y-66997262D01*
X122950960Y-66993330D01*
X123191712Y-66990034D01*
X123379449Y-66987598D01*
X123470000Y-66986532D01*
X123642051Y-66983439D01*
X123754445Y-66974926D01*
X123827526Y-66955366D01*
X123881635Y-66919134D01*
X123937116Y-66860606D01*
X123940884Y-66856318D01*
X124051768Y-66730000D01*
X123981635Y-66857417D01*
X123941071Y-66958225D01*
X123945574Y-67013856D01*
X123986667Y-67013423D01*
X124053262Y-66949402D01*
X124099928Y-66898582D01*
X124109414Y-66909852D01*
X124106246Y-66920000D01*
X124102339Y-66977594D01*
X124119520Y-66990000D01*
X124193068Y-66952794D01*
X124248729Y-66850739D01*
X124279948Y-66698181D01*
X124284038Y-66630000D01*
X124282733Y-66486788D01*
X124262450Y-66386969D01*
X124211018Y-66321968D01*
X124116264Y-66283210D01*
X123966019Y-66262121D01*
X123748110Y-66250125D01*
X123744645Y-66249986D01*
X123588243Y-66243699D01*
X123367321Y-66234797D01*
X123097291Y-66223902D01*
X122793567Y-66211636D01*
X122471563Y-66198622D01*
X122146692Y-66185482D01*
X122138208Y-66185139D01*
X121865936Y-66176400D01*
X121544864Y-66169974D01*
X121182081Y-66165738D01*
X120784675Y-66163570D01*
X120359732Y-66163350D01*
X119914342Y-66164956D01*
X119455590Y-66168266D01*
X118990566Y-66173159D01*
X118526357Y-66179514D01*
X118070050Y-66187208D01*
X117628733Y-66196121D01*
X117209494Y-66206130D01*
X116819420Y-66217116D01*
X116465599Y-66228955D01*
X116155120Y-66241526D01*
X115895068Y-66254709D01*
X115692533Y-66268381D01*
X115554602Y-66282421D01*
X115488363Y-66296707D01*
X115484710Y-66299184D01*
X115452680Y-66367005D01*
X115429627Y-66480088D01*
X115424811Y-66532041D01*
X115413991Y-66715714D01*
X115289715Y-66715714D01*
X115291440Y-66651009D01*
X115298026Y-66471674D01*
X115305535Y-66341204D01*
X115314592Y-66251817D01*
X115325825Y-66195736D01*
X115339861Y-66165179D01*
X115357327Y-66152366D01*
X115378852Y-66149518D01*
X115384651Y-66149453D01*
X115528995Y-66137468D01*
X115610511Y-66095582D01*
X115644425Y-66011427D01*
X115648257Y-65935334D01*
X115638679Y-65785062D01*
X115622008Y-65658889D01*
X115766988Y-65658889D01*
X115767203Y-65798943D01*
X115798077Y-65931959D01*
X115851558Y-66022457D01*
X115896186Y-66062482D01*
X115951833Y-66088055D01*
X116036110Y-66102300D01*
X116166629Y-66108339D01*
X116341558Y-66109334D01*
X116750000Y-66108668D01*
X116787803Y-66038485D01*
X116893812Y-66038485D01*
X116902232Y-66067934D01*
X116939282Y-66033659D01*
X116997678Y-65940038D01*
X117058135Y-65838088D01*
X117102687Y-65775239D01*
X117117824Y-65764490D01*
X117115630Y-65807778D01*
X117091119Y-65887056D01*
X117054931Y-66004306D01*
X117054192Y-66060489D01*
X117084047Y-66050416D01*
X117139640Y-65968898D01*
X117150000Y-65950000D01*
X117211911Y-65838540D01*
X117241613Y-65798641D01*
X117241808Y-65829884D01*
X117215198Y-65931850D01*
X117212792Y-65940264D01*
X117192573Y-66036862D01*
X117202839Y-66065570D01*
X117236826Y-66029293D01*
X117287766Y-65930939D01*
X117299913Y-65902840D01*
X117345377Y-65808303D01*
X117380674Y-65758880D01*
X117390438Y-65757105D01*
X117389425Y-65803275D01*
X117361863Y-65893622D01*
X117348181Y-65928181D01*
X117313147Y-66026526D01*
X117301900Y-66089667D01*
X117304642Y-66097975D01*
X117355794Y-66104105D01*
X117429325Y-66081023D01*
X117458411Y-66061302D01*
X122842965Y-66061302D01*
X122873728Y-66051067D01*
X122947906Y-65974775D01*
X122960611Y-65960000D01*
X123016421Y-65898385D01*
X123028647Y-65898292D01*
X123012114Y-65937370D01*
X122973531Y-66045572D01*
X122989884Y-66100428D01*
X123030000Y-66110000D01*
X123066015Y-66090420D01*
X123084658Y-66021622D01*
X123089999Y-65888521D01*
X123090000Y-65887639D01*
X123084690Y-65757796D01*
X123065381Y-65700944D01*
X123027002Y-65717163D01*
X122964483Y-65806533D01*
X122916024Y-65890377D01*
X122856702Y-66007174D01*
X122842965Y-66061302D01*
X117458411Y-66061302D01*
X117470261Y-66053267D01*
X117562918Y-66053267D01*
X117583381Y-66048240D01*
X117633629Y-65972186D01*
X117634797Y-65970000D01*
X117850000Y-65970000D01*
X117870000Y-65990000D01*
X117890000Y-65970000D01*
X117870000Y-65950000D01*
X117850000Y-65970000D01*
X117634797Y-65970000D01*
X117645481Y-65950005D01*
X117749600Y-65950005D01*
X117777016Y-65916755D01*
X117809682Y-65860000D01*
X117875394Y-65750721D01*
X117911906Y-65715871D01*
X117919193Y-65755459D01*
X117908479Y-65820000D01*
X117885435Y-65930000D01*
X117950480Y-65830000D01*
X117989609Y-65778825D01*
X117995304Y-65794203D01*
X117992592Y-65803716D01*
X117964661Y-65901102D01*
X117943995Y-65979682D01*
X117937074Y-66048753D01*
X117962330Y-66054611D01*
X118011525Y-66003082D01*
X118076420Y-65899992D01*
X118088606Y-65877408D01*
X118140949Y-65792994D01*
X118166477Y-65780545D01*
X118161195Y-65835353D01*
X118130990Y-65927396D01*
X118109255Y-66007660D01*
X118125174Y-66024662D01*
X118171644Y-65981445D01*
X118241560Y-65881056D01*
X118242456Y-65879608D01*
X118293254Y-65803582D01*
X118318372Y-65778635D01*
X118317945Y-65790000D01*
X118285094Y-65912322D01*
X118268015Y-65988865D01*
X118269435Y-66006524D01*
X118275211Y-65995473D01*
X118304959Y-65963589D01*
X118329148Y-65988622D01*
X118344907Y-65990225D01*
X118350011Y-65923842D01*
X118344543Y-65785176D01*
X118335595Y-65657304D01*
X118308423Y-65604351D01*
X118258654Y-65607253D01*
X118174440Y-65623108D01*
X118052426Y-65634749D01*
X118015118Y-65636644D01*
X117912894Y-65646100D01*
X117848384Y-65676349D01*
X117804665Y-65745110D01*
X117764818Y-65870102D01*
X117754067Y-65910000D01*
X117749600Y-65950005D01*
X117645481Y-65950005D01*
X117700045Y-65847887D01*
X117759211Y-65719428D01*
X117776047Y-65649512D01*
X117755698Y-65630000D01*
X117713744Y-65664621D01*
X117660967Y-65754296D01*
X117620262Y-65850000D01*
X117574470Y-65987206D01*
X117562918Y-66053267D01*
X117470261Y-66053267D01*
X117483273Y-66044444D01*
X117490000Y-66028559D01*
X117460571Y-66008867D01*
X117430000Y-66015534D01*
X117378847Y-66016414D01*
X117379627Y-65963589D01*
X117431092Y-65863121D01*
X117474761Y-65797877D01*
X117531682Y-65723587D01*
X117560449Y-65698428D01*
X117560250Y-65710000D01*
X117519866Y-65843526D01*
X117508305Y-65904840D01*
X117525707Y-65896411D01*
X117566949Y-65830000D01*
X117617905Y-65734302D01*
X117646332Y-65668973D01*
X117648323Y-65660000D01*
X117612425Y-65645698D01*
X117515904Y-65635100D01*
X117378117Y-65630144D01*
X117348578Y-65630000D01*
X117047157Y-65630000D01*
X116968578Y-65813316D01*
X116915450Y-65951537D01*
X116893812Y-66038485D01*
X116787803Y-66038485D01*
X116877349Y-65872238D01*
X117004699Y-65635808D01*
X116818918Y-65642904D01*
X116704792Y-65651298D01*
X116645785Y-65676318D01*
X116617018Y-65734908D01*
X116604844Y-65788687D01*
X116576550Y-65927374D01*
X116653121Y-65828687D01*
X116729693Y-65730000D01*
X116676600Y-65887748D01*
X116631417Y-65990733D01*
X116583374Y-66055436D01*
X116570380Y-66063206D01*
X116535064Y-66055412D01*
X116543167Y-66013380D01*
X116549196Y-65967705D01*
X116533300Y-65967960D01*
X116511098Y-65944751D01*
X116487240Y-65868419D01*
X116466505Y-65765583D01*
X116457064Y-65690000D01*
X116530000Y-65690000D01*
X116538558Y-65743368D01*
X116545720Y-65750000D01*
X116571512Y-65718721D01*
X116584465Y-65690000D01*
X116585296Y-65638493D01*
X116568744Y-65630000D01*
X116534364Y-65662417D01*
X116530000Y-65690000D01*
X116457064Y-65690000D01*
X116453674Y-65662861D01*
X116453525Y-65586870D01*
X116461052Y-65565614D01*
X116504750Y-65559951D01*
X116617311Y-65554274D01*
X116787601Y-65548891D01*
X117004485Y-65544109D01*
X117256827Y-65540236D01*
X117455158Y-65538174D01*
X118430000Y-65530000D01*
X118417148Y-65648530D01*
X118415617Y-65776891D01*
X118428961Y-65898530D01*
X118453625Y-66030000D01*
X119887147Y-66030000D01*
X121320669Y-66030000D01*
X121326029Y-66010000D01*
X121370000Y-66010000D01*
X121390000Y-66030000D01*
X121410000Y-66010000D01*
X121390000Y-65990000D01*
X121370000Y-66010000D01*
X121326029Y-66010000D01*
X121344788Y-65940000D01*
X121346962Y-65926650D01*
X121427237Y-65926650D01*
X121450488Y-65919544D01*
X121521896Y-65858750D01*
X121531544Y-65850000D01*
X121663458Y-65730000D01*
X121570413Y-65890000D01*
X121477368Y-66050000D01*
X121669192Y-65870000D01*
X121861016Y-65690000D01*
X121756567Y-65847726D01*
X121690461Y-65961501D01*
X121675360Y-66019043D01*
X121707108Y-66015970D01*
X121781552Y-65947898D01*
X121815358Y-65909744D01*
X121934561Y-65770000D01*
X121871253Y-65900000D01*
X121832652Y-65985880D01*
X121833448Y-66022062D01*
X121876350Y-66029937D01*
X121887717Y-66030000D01*
X121945974Y-66010114D01*
X121946924Y-65976408D01*
X121951265Y-65947395D01*
X121979807Y-65947395D01*
X121985278Y-65950000D01*
X122021782Y-65921840D01*
X122030000Y-65910000D01*
X122040192Y-65872604D01*
X122034721Y-65870000D01*
X121998217Y-65898159D01*
X121990000Y-65910000D01*
X121979807Y-65947395D01*
X121951265Y-65947395D01*
X121956868Y-65909943D01*
X121988179Y-65871510D01*
X122037541Y-65842454D01*
X122050000Y-65850000D01*
X122074609Y-65853597D01*
X122110000Y-65830000D01*
X122158203Y-65803986D01*
X122164033Y-65832230D01*
X122127662Y-65901243D01*
X122108727Y-65927645D01*
X122055732Y-66009235D01*
X122055968Y-66036572D01*
X122102625Y-66008270D01*
X122172572Y-65940631D01*
X122242234Y-65871768D01*
X122264586Y-65864793D01*
X122252572Y-65897370D01*
X122212524Y-65995397D01*
X122216919Y-66029727D01*
X122249384Y-66009150D01*
X122388384Y-66009150D01*
X122400124Y-66024099D01*
X122460493Y-65975923D01*
X122545797Y-65890000D01*
X122634288Y-65800537D01*
X122691998Y-65749473D01*
X122707921Y-65746402D01*
X122706362Y-65750000D01*
X122662974Y-65825167D01*
X122603441Y-65916174D01*
X122544322Y-66008927D01*
X122536469Y-66041098D01*
X122578848Y-66012641D01*
X122670421Y-65923508D01*
X122674385Y-65919412D01*
X122818771Y-65770000D01*
X122735734Y-65920000D01*
X122685319Y-66021833D01*
X122679669Y-66061195D01*
X122715398Y-66039503D01*
X122789122Y-65958174D01*
X122860608Y-65867722D01*
X123011216Y-65670000D01*
X122900608Y-65669453D01*
X122782119Y-65660318D01*
X122702958Y-65645562D01*
X122639992Y-65644789D01*
X122580894Y-65689865D01*
X122510534Y-65789152D01*
X122425208Y-65930895D01*
X122388384Y-66009150D01*
X122249384Y-66009150D01*
X122262465Y-66000859D01*
X122345871Y-65909294D01*
X122370000Y-65879498D01*
X122452445Y-65772930D01*
X122510211Y-65692493D01*
X122530000Y-65657562D01*
X122493281Y-65647985D01*
X122395383Y-65645539D01*
X122254694Y-65649049D01*
X122089604Y-65657337D01*
X121918500Y-65669227D01*
X121759771Y-65683544D01*
X121631806Y-65699109D01*
X121552993Y-65714747D01*
X121539084Y-65720963D01*
X121505176Y-65737201D01*
X121515394Y-65690369D01*
X121515881Y-65689095D01*
X121524923Y-65639658D01*
X121494070Y-65647484D01*
X121462364Y-65705663D01*
X121467129Y-65736943D01*
X121467679Y-65816240D01*
X121444672Y-65882897D01*
X121427237Y-65926650D01*
X121346962Y-65926650D01*
X121361324Y-65838443D01*
X121369335Y-65711418D01*
X121369453Y-65699234D01*
X121370000Y-65548469D01*
X122260000Y-65559234D01*
X123150000Y-65570000D01*
X123143826Y-65840000D01*
X123137652Y-66110000D01*
X123408928Y-66110000D01*
X123576705Y-66102204D01*
X123687312Y-66080262D01*
X123721893Y-66059767D01*
X123737431Y-65998112D01*
X123740686Y-65885560D01*
X123733682Y-65749927D01*
X123718443Y-65619024D01*
X123696995Y-65520668D01*
X123680190Y-65486857D01*
X123631618Y-65477469D01*
X123509753Y-65468701D01*
X123321299Y-65460568D01*
X123072960Y-65453090D01*
X122771442Y-65446284D01*
X122423449Y-65440167D01*
X122035684Y-65434759D01*
X121614853Y-65430076D01*
X121167661Y-65426136D01*
X120700811Y-65422957D01*
X120221008Y-65420558D01*
X119734956Y-65418955D01*
X119249360Y-65418167D01*
X118770925Y-65418212D01*
X118306355Y-65419107D01*
X117862354Y-65420871D01*
X117445628Y-65423520D01*
X117062879Y-65427074D01*
X116720814Y-65431549D01*
X116426136Y-65436964D01*
X116185549Y-65443336D01*
X116005759Y-65450684D01*
X115893470Y-65459025D01*
X115857399Y-65466039D01*
X115797148Y-65538891D01*
X115766988Y-65658889D01*
X115622008Y-65658889D01*
X115617186Y-65622392D01*
X115611274Y-65590000D01*
X115595713Y-65455987D01*
X115609781Y-65376572D01*
X115614834Y-65370000D01*
X115669821Y-65350319D01*
X115784567Y-65331146D01*
X115938869Y-65315458D01*
X116021817Y-65310000D01*
X116176343Y-65301606D01*
X116530000Y-65301606D01*
X118180000Y-65283668D01*
X118806387Y-65279175D01*
X119442041Y-65279421D01*
X120099789Y-65284574D01*
X120792459Y-65294802D01*
X121532876Y-65310273D01*
X122333868Y-65331154D01*
X122760000Y-65343643D01*
X122970000Y-65350000D01*
X122970000Y-65091357D01*
X122956691Y-64895418D01*
X122920360Y-64734621D01*
X122904162Y-64694652D01*
X122838325Y-64556590D01*
X122454162Y-64527508D01*
X122308481Y-64520596D01*
X122098382Y-64516275D01*
X121839407Y-64514578D01*
X121547098Y-64515537D01*
X121236996Y-64519185D01*
X120970000Y-64524446D01*
X120666642Y-64531183D01*
X120301347Y-64538575D01*
X119892168Y-64546300D01*
X119457162Y-64554035D01*
X119014385Y-64561458D01*
X118581892Y-64568245D01*
X118250000Y-64573076D01*
X117896437Y-64578375D01*
X117567051Y-64584013D01*
X117270605Y-64589788D01*
X117015865Y-64595497D01*
X116811592Y-64600938D01*
X116666552Y-64605910D01*
X116589508Y-64610210D01*
X116580000Y-64611587D01*
X116552289Y-64653435D01*
X116535930Y-64761694D01*
X116530046Y-64942569D01*
X116530000Y-64964548D01*
X116530000Y-65301606D01*
X116176343Y-65301606D01*
X116390000Y-65290000D01*
X116380108Y-64964548D01*
X116375133Y-64800860D01*
X116360266Y-64311720D01*
X116475133Y-64266649D01*
X116541288Y-64255516D01*
X116678470Y-64244321D01*
X116879369Y-64233173D01*
X117136677Y-64222180D01*
X117443084Y-64211448D01*
X117791281Y-64201085D01*
X118173960Y-64191198D01*
X118583810Y-64181896D01*
X119013524Y-64173285D01*
X119455791Y-64165473D01*
X119903303Y-64158568D01*
X120348751Y-64152677D01*
X120784825Y-64147907D01*
X121204217Y-64144366D01*
X121599617Y-64142162D01*
X121963716Y-64141402D01*
X122289206Y-64142193D01*
G37*
D11*
X90227500Y-67272776D02*
X90227500Y-67782224D01*
X91272500Y-67272776D02*
X91272500Y-67782224D01*
%LPC*%
D13*
X92410000Y-70970000D03*
X90660000Y-70970000D03*
D14*
X90750000Y-66615000D03*
X90750000Y-68440000D03*
D15*
X99610000Y-68260000D03*
X99610000Y-64760000D03*
X99610000Y-61260000D03*
D16*
X91100000Y-61830000D03*
D17*
X91100000Y-56830000D03*
%LPD*%
M02*
