%TF.GenerationSoftware,KiCad,Pcbnew,9.0.2-9.0.2-0~ubuntu24.04.1*%
%TF.CreationDate,2025-06-11T11:09:24+02:00*%
%TF.ProjectId,PCB_Affichage,5043425f-4166-4666-9963-686167652e6b,rev?*%
%TF.SameCoordinates,Original*%
%TF.FileFunction,Drillmap*%
%TF.FilePolarity,Positive*%
%FSLAX45Y45*%
G04 Gerber Fmt 4.5, Leading zero omitted, Abs format (unit mm)*
G04 Created by KiCad (PCBNEW 9.0.2-9.0.2-0~ubuntu24.04.1) date 2025-06-11 11:09:24*
%MOMM*%
%LPD*%
G01*
G04 APERTURE LIST*
%ADD10C,0.050000*%
%ADD11C,0.200000*%
%ADD12C,0.100000*%
%ADD13C,0.190000*%
%ADD14C,0.270000*%
G04 APERTURE END LIST*
D10*
X12600000Y-4600000D02*
G75*
G02*
X12800000Y-4800000I0J-200000D01*
G01*
X8700000Y-7200000D02*
X8700000Y-4800000D01*
X8900000Y-4600000D02*
X12600000Y-4600000D01*
X8900000Y-7400000D02*
G75*
G02*
X8700000Y-7200000I0J200000D01*
G01*
X12800000Y-7200000D02*
G75*
G02*
X12600000Y-7400000I-200000J0D01*
G01*
X8700000Y-4800000D02*
G75*
G02*
X8900000Y-4600000I200000J0D01*
G01*
X12800000Y-4800000D02*
X12800000Y-7200000D01*
X12600000Y-7400000D02*
X8900000Y-7400000D01*
D11*
D12*
X8784000Y-5094000D02*
X8814000Y-5124000D01*
X8814000Y-5094000D02*
X8784000Y-5124000D01*
X8784000Y-5494000D02*
X8814000Y-5524000D01*
X8814000Y-5494000D02*
X8784000Y-5524000D01*
X8784000Y-5894000D02*
X8814000Y-5924000D01*
X8814000Y-5894000D02*
X8784000Y-5924000D01*
X8784000Y-6294000D02*
X8814000Y-6324000D01*
X8814000Y-6294000D02*
X8784000Y-6324000D01*
X8784000Y-6694000D02*
X8814000Y-6724000D01*
X8814000Y-6694000D02*
X8784000Y-6724000D01*
X8784000Y-7094000D02*
X8814000Y-7124000D01*
X8814000Y-7094000D02*
X8784000Y-7124000D01*
X9214000Y-4694000D02*
X9244000Y-4724000D01*
X9244000Y-4694000D02*
X9214000Y-4724000D01*
X9214000Y-5094000D02*
X9244000Y-5124000D01*
X9244000Y-5094000D02*
X9214000Y-5124000D01*
X9214000Y-6694000D02*
X9244000Y-6724000D01*
X9244000Y-6694000D02*
X9214000Y-6724000D01*
X9644000Y-4694000D02*
X9674000Y-4724000D01*
X9674000Y-4694000D02*
X9644000Y-4724000D01*
X9644000Y-5094000D02*
X9674000Y-5124000D01*
X9674000Y-5094000D02*
X9644000Y-5124000D01*
X9644000Y-5494000D02*
X9674000Y-5524000D01*
X9674000Y-5494000D02*
X9644000Y-5524000D01*
X9644000Y-5894000D02*
X9674000Y-5924000D01*
X9674000Y-5894000D02*
X9644000Y-5924000D01*
X9644000Y-7094000D02*
X9674000Y-7124000D01*
X9674000Y-7094000D02*
X9644000Y-7124000D01*
X10074000Y-4694000D02*
X10104000Y-4724000D01*
X10104000Y-4694000D02*
X10074000Y-4724000D01*
X10074000Y-5094000D02*
X10104000Y-5124000D01*
X10104000Y-5094000D02*
X10074000Y-5124000D01*
X10074000Y-5494000D02*
X10104000Y-5524000D01*
X10104000Y-5494000D02*
X10074000Y-5524000D01*
X10074000Y-5894000D02*
X10104000Y-5924000D01*
X10104000Y-5894000D02*
X10074000Y-5924000D01*
X10074000Y-7094000D02*
X10104000Y-7124000D01*
X10104000Y-7094000D02*
X10074000Y-7124000D01*
X10504000Y-4694000D02*
X10534000Y-4724000D01*
X10534000Y-4694000D02*
X10504000Y-4724000D01*
X10504000Y-5094000D02*
X10534000Y-5124000D01*
X10534000Y-5094000D02*
X10504000Y-5124000D01*
X10504000Y-5494000D02*
X10534000Y-5524000D01*
X10534000Y-5494000D02*
X10504000Y-5524000D01*
X10504000Y-5894000D02*
X10534000Y-5924000D01*
X10534000Y-5894000D02*
X10504000Y-5924000D01*
X10504000Y-7094000D02*
X10534000Y-7124000D01*
X10534000Y-7094000D02*
X10504000Y-7124000D01*
X10934000Y-5494000D02*
X10964000Y-5524000D01*
X10964000Y-5494000D02*
X10934000Y-5524000D01*
X10934000Y-6294000D02*
X10964000Y-6324000D01*
X10964000Y-6294000D02*
X10934000Y-6324000D01*
X10934000Y-7094000D02*
X10964000Y-7124000D01*
X10964000Y-7094000D02*
X10934000Y-7124000D01*
X11364000Y-5494000D02*
X11394000Y-5524000D01*
X11394000Y-5494000D02*
X11364000Y-5524000D01*
X11364000Y-5894000D02*
X11394000Y-5924000D01*
X11394000Y-5894000D02*
X11364000Y-5924000D01*
X11364000Y-6294000D02*
X11394000Y-6324000D01*
X11394000Y-6294000D02*
X11364000Y-6324000D01*
X11364000Y-6694000D02*
X11394000Y-6724000D01*
X11394000Y-6694000D02*
X11364000Y-6724000D01*
X11364000Y-7094000D02*
X11394000Y-7124000D01*
X11394000Y-7094000D02*
X11364000Y-7124000D01*
X11794000Y-5494000D02*
X11824000Y-5524000D01*
X11824000Y-5494000D02*
X11794000Y-5524000D01*
X11794000Y-5894000D02*
X11824000Y-5924000D01*
X11824000Y-5894000D02*
X11794000Y-5924000D01*
X11794000Y-6294000D02*
X11824000Y-6324000D01*
X11824000Y-6294000D02*
X11794000Y-6324000D01*
X11794000Y-6694000D02*
X11824000Y-6724000D01*
X11824000Y-6694000D02*
X11794000Y-6724000D01*
X11794000Y-7094000D02*
X11824000Y-7124000D01*
X11824000Y-7094000D02*
X11794000Y-7124000D01*
X12224000Y-5894000D02*
X12254000Y-5924000D01*
X12254000Y-5894000D02*
X12224000Y-5924000D01*
X12224000Y-6294000D02*
X12254000Y-6324000D01*
X12254000Y-6294000D02*
X12224000Y-6324000D01*
X12224000Y-7094000D02*
X12254000Y-7124000D01*
X12254000Y-7094000D02*
X12224000Y-7124000D01*
X12654000Y-5494000D02*
X12684000Y-5524000D01*
X12684000Y-5494000D02*
X12654000Y-5524000D01*
X12654000Y-6694000D02*
X12684000Y-6724000D01*
X12684000Y-6694000D02*
X12654000Y-6724000D01*
X12654000Y-7094000D02*
X12684000Y-7124000D01*
X12684000Y-7094000D02*
X12654000Y-7124000D01*
D13*
X10056000Y-6126000D02*
G75*
G02*
X9866000Y-6126000I-95000J0D01*
G01*
X9866000Y-6126000D02*
G75*
G02*
X10056000Y-6126000I95000J0D01*
G01*
X10056000Y-6476000D02*
G75*
G02*
X9866000Y-6476000I-95000J0D01*
G01*
X9866000Y-6476000D02*
G75*
G02*
X10056000Y-6476000I95000J0D01*
G01*
X10056000Y-6826000D02*
G75*
G02*
X9866000Y-6826000I-95000J0D01*
G01*
X9866000Y-6826000D02*
G75*
G02*
X10056000Y-6826000I95000J0D01*
G01*
D14*
X9110000Y-5548000D02*
X9110000Y-5818000D01*
X8975000Y-5683000D02*
X9245000Y-5683000D01*
X9110000Y-6048000D02*
X9110000Y-6318000D01*
X8975000Y-6183000D02*
X9245000Y-6183000D01*
D11*
X8958277Y-7713984D02*
X8958277Y-7513984D01*
X8958277Y-7513984D02*
X9005896Y-7513984D01*
X9005896Y-7513984D02*
X9034467Y-7523508D01*
X9034467Y-7523508D02*
X9053515Y-7542555D01*
X9053515Y-7542555D02*
X9063039Y-7561603D01*
X9063039Y-7561603D02*
X9072563Y-7599698D01*
X9072563Y-7599698D02*
X9072563Y-7628269D01*
X9072563Y-7628269D02*
X9063039Y-7666365D01*
X9063039Y-7666365D02*
X9053515Y-7685412D01*
X9053515Y-7685412D02*
X9034467Y-7704460D01*
X9034467Y-7704460D02*
X9005896Y-7713984D01*
X9005896Y-7713984D02*
X8958277Y-7713984D01*
X9158277Y-7713984D02*
X9158277Y-7580650D01*
X9158277Y-7618746D02*
X9167801Y-7599698D01*
X9167801Y-7599698D02*
X9177324Y-7590174D01*
X9177324Y-7590174D02*
X9196372Y-7580650D01*
X9196372Y-7580650D02*
X9215420Y-7580650D01*
X9282086Y-7713984D02*
X9282086Y-7580650D01*
X9282086Y-7513984D02*
X9272563Y-7523508D01*
X9272563Y-7523508D02*
X9282086Y-7533031D01*
X9282086Y-7533031D02*
X9291610Y-7523508D01*
X9291610Y-7523508D02*
X9282086Y-7513984D01*
X9282086Y-7513984D02*
X9282086Y-7533031D01*
X9405896Y-7713984D02*
X9386848Y-7704460D01*
X9386848Y-7704460D02*
X9377324Y-7685412D01*
X9377324Y-7685412D02*
X9377324Y-7513984D01*
X9510658Y-7713984D02*
X9491610Y-7704460D01*
X9491610Y-7704460D02*
X9482086Y-7685412D01*
X9482086Y-7685412D02*
X9482086Y-7513984D01*
X9739229Y-7713984D02*
X9739229Y-7513984D01*
X9739229Y-7513984D02*
X9805896Y-7656841D01*
X9805896Y-7656841D02*
X9872563Y-7513984D01*
X9872563Y-7513984D02*
X9872563Y-7713984D01*
X10053515Y-7713984D02*
X10053515Y-7609222D01*
X10053515Y-7609222D02*
X10043991Y-7590174D01*
X10043991Y-7590174D02*
X10024944Y-7580650D01*
X10024944Y-7580650D02*
X9986848Y-7580650D01*
X9986848Y-7580650D02*
X9967801Y-7590174D01*
X10053515Y-7704460D02*
X10034467Y-7713984D01*
X10034467Y-7713984D02*
X9986848Y-7713984D01*
X9986848Y-7713984D02*
X9967801Y-7704460D01*
X9967801Y-7704460D02*
X9958277Y-7685412D01*
X9958277Y-7685412D02*
X9958277Y-7666365D01*
X9958277Y-7666365D02*
X9967801Y-7647317D01*
X9967801Y-7647317D02*
X9986848Y-7637793D01*
X9986848Y-7637793D02*
X10034467Y-7637793D01*
X10034467Y-7637793D02*
X10053515Y-7628269D01*
X10148753Y-7580650D02*
X10148753Y-7780650D01*
X10148753Y-7590174D02*
X10167801Y-7580650D01*
X10167801Y-7580650D02*
X10205896Y-7580650D01*
X10205896Y-7580650D02*
X10224944Y-7590174D01*
X10224944Y-7590174D02*
X10234467Y-7599698D01*
X10234467Y-7599698D02*
X10243991Y-7618746D01*
X10243991Y-7618746D02*
X10243991Y-7675888D01*
X10243991Y-7675888D02*
X10234467Y-7694936D01*
X10234467Y-7694936D02*
X10224944Y-7704460D01*
X10224944Y-7704460D02*
X10205896Y-7713984D01*
X10205896Y-7713984D02*
X10167801Y-7713984D01*
X10167801Y-7713984D02*
X10148753Y-7704460D01*
X10329705Y-7694936D02*
X10339229Y-7704460D01*
X10339229Y-7704460D02*
X10329705Y-7713984D01*
X10329705Y-7713984D02*
X10320182Y-7704460D01*
X10320182Y-7704460D02*
X10329705Y-7694936D01*
X10329705Y-7694936D02*
X10329705Y-7713984D01*
X10329705Y-7590174D02*
X10339229Y-7599698D01*
X10339229Y-7599698D02*
X10329705Y-7609222D01*
X10329705Y-7609222D02*
X10320182Y-7599698D01*
X10320182Y-7599698D02*
X10329705Y-7590174D01*
X10329705Y-7590174D02*
X10329705Y-7609222D01*
D12*
X8667500Y-8027500D02*
X8697500Y-8057500D01*
X8697500Y-8027500D02*
X8667500Y-8057500D01*
D11*
X8996372Y-7933984D02*
X9015420Y-7933984D01*
X9015420Y-7933984D02*
X9034467Y-7943508D01*
X9034467Y-7943508D02*
X9043991Y-7953031D01*
X9043991Y-7953031D02*
X9053515Y-7972079D01*
X9053515Y-7972079D02*
X9063039Y-8010174D01*
X9063039Y-8010174D02*
X9063039Y-8057793D01*
X9063039Y-8057793D02*
X9053515Y-8095888D01*
X9053515Y-8095888D02*
X9043991Y-8114936D01*
X9043991Y-8114936D02*
X9034467Y-8124460D01*
X9034467Y-8124460D02*
X9015420Y-8133984D01*
X9015420Y-8133984D02*
X8996372Y-8133984D01*
X8996372Y-8133984D02*
X8977324Y-8124460D01*
X8977324Y-8124460D02*
X8967801Y-8114936D01*
X8967801Y-8114936D02*
X8958277Y-8095888D01*
X8958277Y-8095888D02*
X8948753Y-8057793D01*
X8948753Y-8057793D02*
X8948753Y-8010174D01*
X8948753Y-8010174D02*
X8958277Y-7972079D01*
X8958277Y-7972079D02*
X8967801Y-7953031D01*
X8967801Y-7953031D02*
X8977324Y-7943508D01*
X8977324Y-7943508D02*
X8996372Y-7933984D01*
X9148753Y-8114936D02*
X9158277Y-8124460D01*
X9158277Y-8124460D02*
X9148753Y-8133984D01*
X9148753Y-8133984D02*
X9139229Y-8124460D01*
X9139229Y-8124460D02*
X9148753Y-8114936D01*
X9148753Y-8114936D02*
X9148753Y-8133984D01*
X9224944Y-7933984D02*
X9348753Y-7933984D01*
X9348753Y-7933984D02*
X9282086Y-8010174D01*
X9282086Y-8010174D02*
X9310658Y-8010174D01*
X9310658Y-8010174D02*
X9329705Y-8019698D01*
X9329705Y-8019698D02*
X9339229Y-8029222D01*
X9339229Y-8029222D02*
X9348753Y-8048269D01*
X9348753Y-8048269D02*
X9348753Y-8095888D01*
X9348753Y-8095888D02*
X9339229Y-8114936D01*
X9339229Y-8114936D02*
X9329705Y-8124460D01*
X9329705Y-8124460D02*
X9310658Y-8133984D01*
X9310658Y-8133984D02*
X9253515Y-8133984D01*
X9253515Y-8133984D02*
X9234467Y-8124460D01*
X9234467Y-8124460D02*
X9224944Y-8114936D01*
X9472563Y-7933984D02*
X9491610Y-7933984D01*
X9491610Y-7933984D02*
X9510658Y-7943508D01*
X9510658Y-7943508D02*
X9520182Y-7953031D01*
X9520182Y-7953031D02*
X9529705Y-7972079D01*
X9529705Y-7972079D02*
X9539229Y-8010174D01*
X9539229Y-8010174D02*
X9539229Y-8057793D01*
X9539229Y-8057793D02*
X9529705Y-8095888D01*
X9529705Y-8095888D02*
X9520182Y-8114936D01*
X9520182Y-8114936D02*
X9510658Y-8124460D01*
X9510658Y-8124460D02*
X9491610Y-8133984D01*
X9491610Y-8133984D02*
X9472563Y-8133984D01*
X9472563Y-8133984D02*
X9453515Y-8124460D01*
X9453515Y-8124460D02*
X9443991Y-8114936D01*
X9443991Y-8114936D02*
X9434467Y-8095888D01*
X9434467Y-8095888D02*
X9424944Y-8057793D01*
X9424944Y-8057793D02*
X9424944Y-8010174D01*
X9424944Y-8010174D02*
X9434467Y-7972079D01*
X9434467Y-7972079D02*
X9443991Y-7953031D01*
X9443991Y-7953031D02*
X9453515Y-7943508D01*
X9453515Y-7943508D02*
X9472563Y-7933984D01*
X9663039Y-7933984D02*
X9682086Y-7933984D01*
X9682086Y-7933984D02*
X9701134Y-7943508D01*
X9701134Y-7943508D02*
X9710658Y-7953031D01*
X9710658Y-7953031D02*
X9720182Y-7972079D01*
X9720182Y-7972079D02*
X9729705Y-8010174D01*
X9729705Y-8010174D02*
X9729705Y-8057793D01*
X9729705Y-8057793D02*
X9720182Y-8095888D01*
X9720182Y-8095888D02*
X9710658Y-8114936D01*
X9710658Y-8114936D02*
X9701134Y-8124460D01*
X9701134Y-8124460D02*
X9682086Y-8133984D01*
X9682086Y-8133984D02*
X9663039Y-8133984D01*
X9663039Y-8133984D02*
X9643991Y-8124460D01*
X9643991Y-8124460D02*
X9634467Y-8114936D01*
X9634467Y-8114936D02*
X9624944Y-8095888D01*
X9624944Y-8095888D02*
X9615420Y-8057793D01*
X9615420Y-8057793D02*
X9615420Y-8010174D01*
X9615420Y-8010174D02*
X9624944Y-7972079D01*
X9624944Y-7972079D02*
X9634467Y-7953031D01*
X9634467Y-7953031D02*
X9643991Y-7943508D01*
X9643991Y-7943508D02*
X9663039Y-7933984D01*
X9815420Y-8133984D02*
X9815420Y-8000650D01*
X9815420Y-8019698D02*
X9824944Y-8010174D01*
X9824944Y-8010174D02*
X9843991Y-8000650D01*
X9843991Y-8000650D02*
X9872563Y-8000650D01*
X9872563Y-8000650D02*
X9891610Y-8010174D01*
X9891610Y-8010174D02*
X9901134Y-8029222D01*
X9901134Y-8029222D02*
X9901134Y-8133984D01*
X9901134Y-8029222D02*
X9910658Y-8010174D01*
X9910658Y-8010174D02*
X9929705Y-8000650D01*
X9929705Y-8000650D02*
X9958277Y-8000650D01*
X9958277Y-8000650D02*
X9977325Y-8010174D01*
X9977325Y-8010174D02*
X9986848Y-8029222D01*
X9986848Y-8029222D02*
X9986848Y-8133984D01*
X10082086Y-8133984D02*
X10082086Y-8000650D01*
X10082086Y-8019698D02*
X10091610Y-8010174D01*
X10091610Y-8010174D02*
X10110658Y-8000650D01*
X10110658Y-8000650D02*
X10139229Y-8000650D01*
X10139229Y-8000650D02*
X10158277Y-8010174D01*
X10158277Y-8010174D02*
X10167801Y-8029222D01*
X10167801Y-8029222D02*
X10167801Y-8133984D01*
X10167801Y-8029222D02*
X10177325Y-8010174D01*
X10177325Y-8010174D02*
X10196372Y-8000650D01*
X10196372Y-8000650D02*
X10224944Y-8000650D01*
X10224944Y-8000650D02*
X10243991Y-8010174D01*
X10243991Y-8010174D02*
X10253515Y-8029222D01*
X10253515Y-8029222D02*
X10253515Y-8133984D01*
X10643991Y-7924460D02*
X10472563Y-8181603D01*
X10901134Y-7933984D02*
X10920182Y-7933984D01*
X10920182Y-7933984D02*
X10939229Y-7943508D01*
X10939229Y-7943508D02*
X10948753Y-7953031D01*
X10948753Y-7953031D02*
X10958277Y-7972079D01*
X10958277Y-7972079D02*
X10967801Y-8010174D01*
X10967801Y-8010174D02*
X10967801Y-8057793D01*
X10967801Y-8057793D02*
X10958277Y-8095888D01*
X10958277Y-8095888D02*
X10948753Y-8114936D01*
X10948753Y-8114936D02*
X10939229Y-8124460D01*
X10939229Y-8124460D02*
X10920182Y-8133984D01*
X10920182Y-8133984D02*
X10901134Y-8133984D01*
X10901134Y-8133984D02*
X10882087Y-8124460D01*
X10882087Y-8124460D02*
X10872563Y-8114936D01*
X10872563Y-8114936D02*
X10863039Y-8095888D01*
X10863039Y-8095888D02*
X10853515Y-8057793D01*
X10853515Y-8057793D02*
X10853515Y-8010174D01*
X10853515Y-8010174D02*
X10863039Y-7972079D01*
X10863039Y-7972079D02*
X10872563Y-7953031D01*
X10872563Y-7953031D02*
X10882087Y-7943508D01*
X10882087Y-7943508D02*
X10901134Y-7933984D01*
X11053515Y-8114936D02*
X11063039Y-8124460D01*
X11063039Y-8124460D02*
X11053515Y-8133984D01*
X11053515Y-8133984D02*
X11043991Y-8124460D01*
X11043991Y-8124460D02*
X11053515Y-8114936D01*
X11053515Y-8114936D02*
X11053515Y-8133984D01*
X11186848Y-7933984D02*
X11205896Y-7933984D01*
X11205896Y-7933984D02*
X11224944Y-7943508D01*
X11224944Y-7943508D02*
X11234467Y-7953031D01*
X11234467Y-7953031D02*
X11243991Y-7972079D01*
X11243991Y-7972079D02*
X11253515Y-8010174D01*
X11253515Y-8010174D02*
X11253515Y-8057793D01*
X11253515Y-8057793D02*
X11243991Y-8095888D01*
X11243991Y-8095888D02*
X11234467Y-8114936D01*
X11234467Y-8114936D02*
X11224944Y-8124460D01*
X11224944Y-8124460D02*
X11205896Y-8133984D01*
X11205896Y-8133984D02*
X11186848Y-8133984D01*
X11186848Y-8133984D02*
X11167801Y-8124460D01*
X11167801Y-8124460D02*
X11158277Y-8114936D01*
X11158277Y-8114936D02*
X11148753Y-8095888D01*
X11148753Y-8095888D02*
X11139229Y-8057793D01*
X11139229Y-8057793D02*
X11139229Y-8010174D01*
X11139229Y-8010174D02*
X11148753Y-7972079D01*
X11148753Y-7972079D02*
X11158277Y-7953031D01*
X11158277Y-7953031D02*
X11167801Y-7943508D01*
X11167801Y-7943508D02*
X11186848Y-7933984D01*
X11443991Y-8133984D02*
X11329706Y-8133984D01*
X11386848Y-8133984D02*
X11386848Y-7933984D01*
X11386848Y-7933984D02*
X11367801Y-7962555D01*
X11367801Y-7962555D02*
X11348753Y-7981603D01*
X11348753Y-7981603D02*
X11329706Y-7991127D01*
X11634467Y-8133984D02*
X11520182Y-8133984D01*
X11577325Y-8133984D02*
X11577325Y-7933984D01*
X11577325Y-7933984D02*
X11558277Y-7962555D01*
X11558277Y-7962555D02*
X11539229Y-7981603D01*
X11539229Y-7981603D02*
X11520182Y-7991127D01*
X11748753Y-8019698D02*
X11729706Y-8010174D01*
X11729706Y-8010174D02*
X11720182Y-8000650D01*
X11720182Y-8000650D02*
X11710658Y-7981603D01*
X11710658Y-7981603D02*
X11710658Y-7972079D01*
X11710658Y-7972079D02*
X11720182Y-7953031D01*
X11720182Y-7953031D02*
X11729706Y-7943508D01*
X11729706Y-7943508D02*
X11748753Y-7933984D01*
X11748753Y-7933984D02*
X11786848Y-7933984D01*
X11786848Y-7933984D02*
X11805896Y-7943508D01*
X11805896Y-7943508D02*
X11815420Y-7953031D01*
X11815420Y-7953031D02*
X11824944Y-7972079D01*
X11824944Y-7972079D02*
X11824944Y-7981603D01*
X11824944Y-7981603D02*
X11815420Y-8000650D01*
X11815420Y-8000650D02*
X11805896Y-8010174D01*
X11805896Y-8010174D02*
X11786848Y-8019698D01*
X11786848Y-8019698D02*
X11748753Y-8019698D01*
X11748753Y-8019698D02*
X11729706Y-8029222D01*
X11729706Y-8029222D02*
X11720182Y-8038746D01*
X11720182Y-8038746D02*
X11710658Y-8057793D01*
X11710658Y-8057793D02*
X11710658Y-8095888D01*
X11710658Y-8095888D02*
X11720182Y-8114936D01*
X11720182Y-8114936D02*
X11729706Y-8124460D01*
X11729706Y-8124460D02*
X11748753Y-8133984D01*
X11748753Y-8133984D02*
X11786848Y-8133984D01*
X11786848Y-8133984D02*
X11805896Y-8124460D01*
X11805896Y-8124460D02*
X11815420Y-8114936D01*
X11815420Y-8114936D02*
X11824944Y-8095888D01*
X11824944Y-8095888D02*
X11824944Y-8057793D01*
X11824944Y-8057793D02*
X11815420Y-8038746D01*
X11815420Y-8038746D02*
X11805896Y-8029222D01*
X11805896Y-8029222D02*
X11786848Y-8019698D01*
X11901134Y-7933984D02*
X11901134Y-7972079D01*
X11977325Y-7933984D02*
X11977325Y-7972079D01*
X12272563Y-8210174D02*
X12263039Y-8200650D01*
X12263039Y-8200650D02*
X12243991Y-8172079D01*
X12243991Y-8172079D02*
X12234468Y-8153031D01*
X12234468Y-8153031D02*
X12224944Y-8124460D01*
X12224944Y-8124460D02*
X12215420Y-8076841D01*
X12215420Y-8076841D02*
X12215420Y-8038746D01*
X12215420Y-8038746D02*
X12224944Y-7991127D01*
X12224944Y-7991127D02*
X12234468Y-7962555D01*
X12234468Y-7962555D02*
X12243991Y-7943508D01*
X12243991Y-7943508D02*
X12263039Y-7914936D01*
X12263039Y-7914936D02*
X12272563Y-7905412D01*
X12434468Y-8000650D02*
X12434468Y-8133984D01*
X12386848Y-7924460D02*
X12339229Y-8067317D01*
X12339229Y-8067317D02*
X12463039Y-8067317D01*
X12520182Y-7933984D02*
X12643991Y-7933984D01*
X12643991Y-7933984D02*
X12577325Y-8010174D01*
X12577325Y-8010174D02*
X12605896Y-8010174D01*
X12605896Y-8010174D02*
X12624944Y-8019698D01*
X12624944Y-8019698D02*
X12634468Y-8029222D01*
X12634468Y-8029222D02*
X12643991Y-8048269D01*
X12643991Y-8048269D02*
X12643991Y-8095888D01*
X12643991Y-8095888D02*
X12634468Y-8114936D01*
X12634468Y-8114936D02*
X12624944Y-8124460D01*
X12624944Y-8124460D02*
X12605896Y-8133984D01*
X12605896Y-8133984D02*
X12548753Y-8133984D01*
X12548753Y-8133984D02*
X12529706Y-8124460D01*
X12529706Y-8124460D02*
X12520182Y-8114936D01*
X12882087Y-8133984D02*
X12882087Y-7933984D01*
X12967801Y-8133984D02*
X12967801Y-8029222D01*
X12967801Y-8029222D02*
X12958277Y-8010174D01*
X12958277Y-8010174D02*
X12939230Y-8000650D01*
X12939230Y-8000650D02*
X12910658Y-8000650D01*
X12910658Y-8000650D02*
X12891610Y-8010174D01*
X12891610Y-8010174D02*
X12882087Y-8019698D01*
X13091610Y-8133984D02*
X13072563Y-8124460D01*
X13072563Y-8124460D02*
X13063039Y-8114936D01*
X13063039Y-8114936D02*
X13053515Y-8095888D01*
X13053515Y-8095888D02*
X13053515Y-8038746D01*
X13053515Y-8038746D02*
X13063039Y-8019698D01*
X13063039Y-8019698D02*
X13072563Y-8010174D01*
X13072563Y-8010174D02*
X13091610Y-8000650D01*
X13091610Y-8000650D02*
X13120182Y-8000650D01*
X13120182Y-8000650D02*
X13139230Y-8010174D01*
X13139230Y-8010174D02*
X13148753Y-8019698D01*
X13148753Y-8019698D02*
X13158277Y-8038746D01*
X13158277Y-8038746D02*
X13158277Y-8095888D01*
X13158277Y-8095888D02*
X13148753Y-8114936D01*
X13148753Y-8114936D02*
X13139230Y-8124460D01*
X13139230Y-8124460D02*
X13120182Y-8133984D01*
X13120182Y-8133984D02*
X13091610Y-8133984D01*
X13272563Y-8133984D02*
X13253515Y-8124460D01*
X13253515Y-8124460D02*
X13243991Y-8105412D01*
X13243991Y-8105412D02*
X13243991Y-7933984D01*
X13424944Y-8124460D02*
X13405896Y-8133984D01*
X13405896Y-8133984D02*
X13367801Y-8133984D01*
X13367801Y-8133984D02*
X13348753Y-8124460D01*
X13348753Y-8124460D02*
X13339230Y-8105412D01*
X13339230Y-8105412D02*
X13339230Y-8029222D01*
X13339230Y-8029222D02*
X13348753Y-8010174D01*
X13348753Y-8010174D02*
X13367801Y-8000650D01*
X13367801Y-8000650D02*
X13405896Y-8000650D01*
X13405896Y-8000650D02*
X13424944Y-8010174D01*
X13424944Y-8010174D02*
X13434468Y-8029222D01*
X13434468Y-8029222D02*
X13434468Y-8048269D01*
X13434468Y-8048269D02*
X13339230Y-8067317D01*
X13510658Y-8124460D02*
X13529706Y-8133984D01*
X13529706Y-8133984D02*
X13567801Y-8133984D01*
X13567801Y-8133984D02*
X13586849Y-8124460D01*
X13586849Y-8124460D02*
X13596372Y-8105412D01*
X13596372Y-8105412D02*
X13596372Y-8095888D01*
X13596372Y-8095888D02*
X13586849Y-8076841D01*
X13586849Y-8076841D02*
X13567801Y-8067317D01*
X13567801Y-8067317D02*
X13539230Y-8067317D01*
X13539230Y-8067317D02*
X13520182Y-8057793D01*
X13520182Y-8057793D02*
X13510658Y-8038746D01*
X13510658Y-8038746D02*
X13510658Y-8029222D01*
X13510658Y-8029222D02*
X13520182Y-8010174D01*
X13520182Y-8010174D02*
X13539230Y-8000650D01*
X13539230Y-8000650D02*
X13567801Y-8000650D01*
X13567801Y-8000650D02*
X13586849Y-8010174D01*
X13663039Y-8210174D02*
X13672563Y-8200650D01*
X13672563Y-8200650D02*
X13691611Y-8172079D01*
X13691611Y-8172079D02*
X13701134Y-8153031D01*
X13701134Y-8153031D02*
X13710658Y-8124460D01*
X13710658Y-8124460D02*
X13720182Y-8076841D01*
X13720182Y-8076841D02*
X13720182Y-8038746D01*
X13720182Y-8038746D02*
X13710658Y-7991127D01*
X13710658Y-7991127D02*
X13701134Y-7962555D01*
X13701134Y-7962555D02*
X13691611Y-7943508D01*
X13691611Y-7943508D02*
X13672563Y-7914936D01*
X13672563Y-7914936D02*
X13663039Y-7905412D01*
D13*
X8697500Y-8306500D02*
G75*
G02*
X8507500Y-8306500I-95000J0D01*
G01*
X8507500Y-8306500D02*
G75*
G02*
X8697500Y-8306500I95000J0D01*
G01*
D11*
X9063039Y-8397984D02*
X8948753Y-8397984D01*
X9005896Y-8397984D02*
X9005896Y-8197984D01*
X9005896Y-8197984D02*
X8986848Y-8226555D01*
X8986848Y-8226555D02*
X8967801Y-8245603D01*
X8967801Y-8245603D02*
X8948753Y-8255127D01*
X9148753Y-8378936D02*
X9158277Y-8388460D01*
X9158277Y-8388460D02*
X9148753Y-8397984D01*
X9148753Y-8397984D02*
X9139229Y-8388460D01*
X9139229Y-8388460D02*
X9148753Y-8378936D01*
X9148753Y-8378936D02*
X9148753Y-8397984D01*
X9253515Y-8397984D02*
X9291610Y-8397984D01*
X9291610Y-8397984D02*
X9310658Y-8388460D01*
X9310658Y-8388460D02*
X9320182Y-8378936D01*
X9320182Y-8378936D02*
X9339229Y-8350365D01*
X9339229Y-8350365D02*
X9348753Y-8312269D01*
X9348753Y-8312269D02*
X9348753Y-8236079D01*
X9348753Y-8236079D02*
X9339229Y-8217031D01*
X9339229Y-8217031D02*
X9329705Y-8207508D01*
X9329705Y-8207508D02*
X9310658Y-8197984D01*
X9310658Y-8197984D02*
X9272563Y-8197984D01*
X9272563Y-8197984D02*
X9253515Y-8207508D01*
X9253515Y-8207508D02*
X9243991Y-8217031D01*
X9243991Y-8217031D02*
X9234467Y-8236079D01*
X9234467Y-8236079D02*
X9234467Y-8283698D01*
X9234467Y-8283698D02*
X9243991Y-8302746D01*
X9243991Y-8302746D02*
X9253515Y-8312269D01*
X9253515Y-8312269D02*
X9272563Y-8321793D01*
X9272563Y-8321793D02*
X9310658Y-8321793D01*
X9310658Y-8321793D02*
X9329705Y-8312269D01*
X9329705Y-8312269D02*
X9339229Y-8302746D01*
X9339229Y-8302746D02*
X9348753Y-8283698D01*
X9472563Y-8197984D02*
X9491610Y-8197984D01*
X9491610Y-8197984D02*
X9510658Y-8207508D01*
X9510658Y-8207508D02*
X9520182Y-8217031D01*
X9520182Y-8217031D02*
X9529705Y-8236079D01*
X9529705Y-8236079D02*
X9539229Y-8274174D01*
X9539229Y-8274174D02*
X9539229Y-8321793D01*
X9539229Y-8321793D02*
X9529705Y-8359888D01*
X9529705Y-8359888D02*
X9520182Y-8378936D01*
X9520182Y-8378936D02*
X9510658Y-8388460D01*
X9510658Y-8388460D02*
X9491610Y-8397984D01*
X9491610Y-8397984D02*
X9472563Y-8397984D01*
X9472563Y-8397984D02*
X9453515Y-8388460D01*
X9453515Y-8388460D02*
X9443991Y-8378936D01*
X9443991Y-8378936D02*
X9434467Y-8359888D01*
X9434467Y-8359888D02*
X9424944Y-8321793D01*
X9424944Y-8321793D02*
X9424944Y-8274174D01*
X9424944Y-8274174D02*
X9434467Y-8236079D01*
X9434467Y-8236079D02*
X9443991Y-8217031D01*
X9443991Y-8217031D02*
X9453515Y-8207508D01*
X9453515Y-8207508D02*
X9472563Y-8197984D01*
X9663039Y-8197984D02*
X9682086Y-8197984D01*
X9682086Y-8197984D02*
X9701134Y-8207508D01*
X9701134Y-8207508D02*
X9710658Y-8217031D01*
X9710658Y-8217031D02*
X9720182Y-8236079D01*
X9720182Y-8236079D02*
X9729705Y-8274174D01*
X9729705Y-8274174D02*
X9729705Y-8321793D01*
X9729705Y-8321793D02*
X9720182Y-8359888D01*
X9720182Y-8359888D02*
X9710658Y-8378936D01*
X9710658Y-8378936D02*
X9701134Y-8388460D01*
X9701134Y-8388460D02*
X9682086Y-8397984D01*
X9682086Y-8397984D02*
X9663039Y-8397984D01*
X9663039Y-8397984D02*
X9643991Y-8388460D01*
X9643991Y-8388460D02*
X9634467Y-8378936D01*
X9634467Y-8378936D02*
X9624944Y-8359888D01*
X9624944Y-8359888D02*
X9615420Y-8321793D01*
X9615420Y-8321793D02*
X9615420Y-8274174D01*
X9615420Y-8274174D02*
X9624944Y-8236079D01*
X9624944Y-8236079D02*
X9634467Y-8217031D01*
X9634467Y-8217031D02*
X9643991Y-8207508D01*
X9643991Y-8207508D02*
X9663039Y-8197984D01*
X9815420Y-8397984D02*
X9815420Y-8264650D01*
X9815420Y-8283698D02*
X9824944Y-8274174D01*
X9824944Y-8274174D02*
X9843991Y-8264650D01*
X9843991Y-8264650D02*
X9872563Y-8264650D01*
X9872563Y-8264650D02*
X9891610Y-8274174D01*
X9891610Y-8274174D02*
X9901134Y-8293222D01*
X9901134Y-8293222D02*
X9901134Y-8397984D01*
X9901134Y-8293222D02*
X9910658Y-8274174D01*
X9910658Y-8274174D02*
X9929705Y-8264650D01*
X9929705Y-8264650D02*
X9958277Y-8264650D01*
X9958277Y-8264650D02*
X9977325Y-8274174D01*
X9977325Y-8274174D02*
X9986848Y-8293222D01*
X9986848Y-8293222D02*
X9986848Y-8397984D01*
X10082086Y-8397984D02*
X10082086Y-8264650D01*
X10082086Y-8283698D02*
X10091610Y-8274174D01*
X10091610Y-8274174D02*
X10110658Y-8264650D01*
X10110658Y-8264650D02*
X10139229Y-8264650D01*
X10139229Y-8264650D02*
X10158277Y-8274174D01*
X10158277Y-8274174D02*
X10167801Y-8293222D01*
X10167801Y-8293222D02*
X10167801Y-8397984D01*
X10167801Y-8293222D02*
X10177325Y-8274174D01*
X10177325Y-8274174D02*
X10196372Y-8264650D01*
X10196372Y-8264650D02*
X10224944Y-8264650D01*
X10224944Y-8264650D02*
X10243991Y-8274174D01*
X10243991Y-8274174D02*
X10253515Y-8293222D01*
X10253515Y-8293222D02*
X10253515Y-8397984D01*
X10643991Y-8188460D02*
X10472563Y-8445603D01*
X10901134Y-8197984D02*
X10920182Y-8197984D01*
X10920182Y-8197984D02*
X10939229Y-8207508D01*
X10939229Y-8207508D02*
X10948753Y-8217031D01*
X10948753Y-8217031D02*
X10958277Y-8236079D01*
X10958277Y-8236079D02*
X10967801Y-8274174D01*
X10967801Y-8274174D02*
X10967801Y-8321793D01*
X10967801Y-8321793D02*
X10958277Y-8359888D01*
X10958277Y-8359888D02*
X10948753Y-8378936D01*
X10948753Y-8378936D02*
X10939229Y-8388460D01*
X10939229Y-8388460D02*
X10920182Y-8397984D01*
X10920182Y-8397984D02*
X10901134Y-8397984D01*
X10901134Y-8397984D02*
X10882087Y-8388460D01*
X10882087Y-8388460D02*
X10872563Y-8378936D01*
X10872563Y-8378936D02*
X10863039Y-8359888D01*
X10863039Y-8359888D02*
X10853515Y-8321793D01*
X10853515Y-8321793D02*
X10853515Y-8274174D01*
X10853515Y-8274174D02*
X10863039Y-8236079D01*
X10863039Y-8236079D02*
X10872563Y-8217031D01*
X10872563Y-8217031D02*
X10882087Y-8207508D01*
X10882087Y-8207508D02*
X10901134Y-8197984D01*
X11053515Y-8378936D02*
X11063039Y-8388460D01*
X11063039Y-8388460D02*
X11053515Y-8397984D01*
X11053515Y-8397984D02*
X11043991Y-8388460D01*
X11043991Y-8388460D02*
X11053515Y-8378936D01*
X11053515Y-8378936D02*
X11053515Y-8397984D01*
X11186848Y-8197984D02*
X11205896Y-8197984D01*
X11205896Y-8197984D02*
X11224944Y-8207508D01*
X11224944Y-8207508D02*
X11234467Y-8217031D01*
X11234467Y-8217031D02*
X11243991Y-8236079D01*
X11243991Y-8236079D02*
X11253515Y-8274174D01*
X11253515Y-8274174D02*
X11253515Y-8321793D01*
X11253515Y-8321793D02*
X11243991Y-8359888D01*
X11243991Y-8359888D02*
X11234467Y-8378936D01*
X11234467Y-8378936D02*
X11224944Y-8388460D01*
X11224944Y-8388460D02*
X11205896Y-8397984D01*
X11205896Y-8397984D02*
X11186848Y-8397984D01*
X11186848Y-8397984D02*
X11167801Y-8388460D01*
X11167801Y-8388460D02*
X11158277Y-8378936D01*
X11158277Y-8378936D02*
X11148753Y-8359888D01*
X11148753Y-8359888D02*
X11139229Y-8321793D01*
X11139229Y-8321793D02*
X11139229Y-8274174D01*
X11139229Y-8274174D02*
X11148753Y-8236079D01*
X11148753Y-8236079D02*
X11158277Y-8217031D01*
X11158277Y-8217031D02*
X11167801Y-8207508D01*
X11167801Y-8207508D02*
X11186848Y-8197984D01*
X11320182Y-8197984D02*
X11453515Y-8197984D01*
X11453515Y-8197984D02*
X11367801Y-8397984D01*
X11615420Y-8264650D02*
X11615420Y-8397984D01*
X11567801Y-8188460D02*
X11520182Y-8331317D01*
X11520182Y-8331317D02*
X11643991Y-8331317D01*
X11748753Y-8283698D02*
X11729706Y-8274174D01*
X11729706Y-8274174D02*
X11720182Y-8264650D01*
X11720182Y-8264650D02*
X11710658Y-8245603D01*
X11710658Y-8245603D02*
X11710658Y-8236079D01*
X11710658Y-8236079D02*
X11720182Y-8217031D01*
X11720182Y-8217031D02*
X11729706Y-8207508D01*
X11729706Y-8207508D02*
X11748753Y-8197984D01*
X11748753Y-8197984D02*
X11786848Y-8197984D01*
X11786848Y-8197984D02*
X11805896Y-8207508D01*
X11805896Y-8207508D02*
X11815420Y-8217031D01*
X11815420Y-8217031D02*
X11824944Y-8236079D01*
X11824944Y-8236079D02*
X11824944Y-8245603D01*
X11824944Y-8245603D02*
X11815420Y-8264650D01*
X11815420Y-8264650D02*
X11805896Y-8274174D01*
X11805896Y-8274174D02*
X11786848Y-8283698D01*
X11786848Y-8283698D02*
X11748753Y-8283698D01*
X11748753Y-8283698D02*
X11729706Y-8293222D01*
X11729706Y-8293222D02*
X11720182Y-8302746D01*
X11720182Y-8302746D02*
X11710658Y-8321793D01*
X11710658Y-8321793D02*
X11710658Y-8359888D01*
X11710658Y-8359888D02*
X11720182Y-8378936D01*
X11720182Y-8378936D02*
X11729706Y-8388460D01*
X11729706Y-8388460D02*
X11748753Y-8397984D01*
X11748753Y-8397984D02*
X11786848Y-8397984D01*
X11786848Y-8397984D02*
X11805896Y-8388460D01*
X11805896Y-8388460D02*
X11815420Y-8378936D01*
X11815420Y-8378936D02*
X11824944Y-8359888D01*
X11824944Y-8359888D02*
X11824944Y-8321793D01*
X11824944Y-8321793D02*
X11815420Y-8302746D01*
X11815420Y-8302746D02*
X11805896Y-8293222D01*
X11805896Y-8293222D02*
X11786848Y-8283698D01*
X11901134Y-8197984D02*
X11901134Y-8236079D01*
X11977325Y-8197984D02*
X11977325Y-8236079D01*
X12272563Y-8474174D02*
X12263039Y-8464650D01*
X12263039Y-8464650D02*
X12243991Y-8436079D01*
X12243991Y-8436079D02*
X12234468Y-8417031D01*
X12234468Y-8417031D02*
X12224944Y-8388460D01*
X12224944Y-8388460D02*
X12215420Y-8340841D01*
X12215420Y-8340841D02*
X12215420Y-8302746D01*
X12215420Y-8302746D02*
X12224944Y-8255127D01*
X12224944Y-8255127D02*
X12234468Y-8226555D01*
X12234468Y-8226555D02*
X12243991Y-8207508D01*
X12243991Y-8207508D02*
X12263039Y-8178936D01*
X12263039Y-8178936D02*
X12272563Y-8169412D01*
X12329706Y-8197984D02*
X12453515Y-8197984D01*
X12453515Y-8197984D02*
X12386848Y-8274174D01*
X12386848Y-8274174D02*
X12415420Y-8274174D01*
X12415420Y-8274174D02*
X12434468Y-8283698D01*
X12434468Y-8283698D02*
X12443991Y-8293222D01*
X12443991Y-8293222D02*
X12453515Y-8312269D01*
X12453515Y-8312269D02*
X12453515Y-8359888D01*
X12453515Y-8359888D02*
X12443991Y-8378936D01*
X12443991Y-8378936D02*
X12434468Y-8388460D01*
X12434468Y-8388460D02*
X12415420Y-8397984D01*
X12415420Y-8397984D02*
X12358277Y-8397984D01*
X12358277Y-8397984D02*
X12339229Y-8388460D01*
X12339229Y-8388460D02*
X12329706Y-8378936D01*
X12691610Y-8397984D02*
X12691610Y-8197984D01*
X12777325Y-8397984D02*
X12777325Y-8293222D01*
X12777325Y-8293222D02*
X12767801Y-8274174D01*
X12767801Y-8274174D02*
X12748753Y-8264650D01*
X12748753Y-8264650D02*
X12720182Y-8264650D01*
X12720182Y-8264650D02*
X12701134Y-8274174D01*
X12701134Y-8274174D02*
X12691610Y-8283698D01*
X12901134Y-8397984D02*
X12882087Y-8388460D01*
X12882087Y-8388460D02*
X12872563Y-8378936D01*
X12872563Y-8378936D02*
X12863039Y-8359888D01*
X12863039Y-8359888D02*
X12863039Y-8302746D01*
X12863039Y-8302746D02*
X12872563Y-8283698D01*
X12872563Y-8283698D02*
X12882087Y-8274174D01*
X12882087Y-8274174D02*
X12901134Y-8264650D01*
X12901134Y-8264650D02*
X12929706Y-8264650D01*
X12929706Y-8264650D02*
X12948753Y-8274174D01*
X12948753Y-8274174D02*
X12958277Y-8283698D01*
X12958277Y-8283698D02*
X12967801Y-8302746D01*
X12967801Y-8302746D02*
X12967801Y-8359888D01*
X12967801Y-8359888D02*
X12958277Y-8378936D01*
X12958277Y-8378936D02*
X12948753Y-8388460D01*
X12948753Y-8388460D02*
X12929706Y-8397984D01*
X12929706Y-8397984D02*
X12901134Y-8397984D01*
X13082087Y-8397984D02*
X13063039Y-8388460D01*
X13063039Y-8388460D02*
X13053515Y-8369412D01*
X13053515Y-8369412D02*
X13053515Y-8197984D01*
X13234468Y-8388460D02*
X13215420Y-8397984D01*
X13215420Y-8397984D02*
X13177325Y-8397984D01*
X13177325Y-8397984D02*
X13158277Y-8388460D01*
X13158277Y-8388460D02*
X13148753Y-8369412D01*
X13148753Y-8369412D02*
X13148753Y-8293222D01*
X13148753Y-8293222D02*
X13158277Y-8274174D01*
X13158277Y-8274174D02*
X13177325Y-8264650D01*
X13177325Y-8264650D02*
X13215420Y-8264650D01*
X13215420Y-8264650D02*
X13234468Y-8274174D01*
X13234468Y-8274174D02*
X13243991Y-8293222D01*
X13243991Y-8293222D02*
X13243991Y-8312269D01*
X13243991Y-8312269D02*
X13148753Y-8331317D01*
X13320182Y-8388460D02*
X13339230Y-8397984D01*
X13339230Y-8397984D02*
X13377325Y-8397984D01*
X13377325Y-8397984D02*
X13396372Y-8388460D01*
X13396372Y-8388460D02*
X13405896Y-8369412D01*
X13405896Y-8369412D02*
X13405896Y-8359888D01*
X13405896Y-8359888D02*
X13396372Y-8340841D01*
X13396372Y-8340841D02*
X13377325Y-8331317D01*
X13377325Y-8331317D02*
X13348753Y-8331317D01*
X13348753Y-8331317D02*
X13329706Y-8321793D01*
X13329706Y-8321793D02*
X13320182Y-8302746D01*
X13320182Y-8302746D02*
X13320182Y-8293222D01*
X13320182Y-8293222D02*
X13329706Y-8274174D01*
X13329706Y-8274174D02*
X13348753Y-8264650D01*
X13348753Y-8264650D02*
X13377325Y-8264650D01*
X13377325Y-8264650D02*
X13396372Y-8274174D01*
X13472563Y-8474174D02*
X13482087Y-8464650D01*
X13482087Y-8464650D02*
X13501134Y-8436079D01*
X13501134Y-8436079D02*
X13510658Y-8417031D01*
X13510658Y-8417031D02*
X13520182Y-8388460D01*
X13520182Y-8388460D02*
X13529706Y-8340841D01*
X13529706Y-8340841D02*
X13529706Y-8302746D01*
X13529706Y-8302746D02*
X13520182Y-8255127D01*
X13520182Y-8255127D02*
X13510658Y-8226555D01*
X13510658Y-8226555D02*
X13501134Y-8207508D01*
X13501134Y-8207508D02*
X13482087Y-8178936D01*
X13482087Y-8178936D02*
X13472563Y-8169412D01*
X8597500Y-8516500D02*
X8597500Y-8716500D01*
X8497500Y-8616500D02*
X8697500Y-8616500D01*
X8948753Y-8527031D02*
X8958277Y-8517508D01*
X8958277Y-8517508D02*
X8977324Y-8507984D01*
X8977324Y-8507984D02*
X9024944Y-8507984D01*
X9024944Y-8507984D02*
X9043991Y-8517508D01*
X9043991Y-8517508D02*
X9053515Y-8527031D01*
X9053515Y-8527031D02*
X9063039Y-8546079D01*
X9063039Y-8546079D02*
X9063039Y-8565127D01*
X9063039Y-8565127D02*
X9053515Y-8593698D01*
X9053515Y-8593698D02*
X8939229Y-8707984D01*
X8939229Y-8707984D02*
X9063039Y-8707984D01*
X9148753Y-8688936D02*
X9158277Y-8698460D01*
X9158277Y-8698460D02*
X9148753Y-8707984D01*
X9148753Y-8707984D02*
X9139229Y-8698460D01*
X9139229Y-8698460D02*
X9148753Y-8688936D01*
X9148753Y-8688936D02*
X9148753Y-8707984D01*
X9224944Y-8507984D02*
X9358277Y-8507984D01*
X9358277Y-8507984D02*
X9272563Y-8707984D01*
X9472563Y-8507984D02*
X9491610Y-8507984D01*
X9491610Y-8507984D02*
X9510658Y-8517508D01*
X9510658Y-8517508D02*
X9520182Y-8527031D01*
X9520182Y-8527031D02*
X9529705Y-8546079D01*
X9529705Y-8546079D02*
X9539229Y-8584174D01*
X9539229Y-8584174D02*
X9539229Y-8631793D01*
X9539229Y-8631793D02*
X9529705Y-8669889D01*
X9529705Y-8669889D02*
X9520182Y-8688936D01*
X9520182Y-8688936D02*
X9510658Y-8698460D01*
X9510658Y-8698460D02*
X9491610Y-8707984D01*
X9491610Y-8707984D02*
X9472563Y-8707984D01*
X9472563Y-8707984D02*
X9453515Y-8698460D01*
X9453515Y-8698460D02*
X9443991Y-8688936D01*
X9443991Y-8688936D02*
X9434467Y-8669889D01*
X9434467Y-8669889D02*
X9424944Y-8631793D01*
X9424944Y-8631793D02*
X9424944Y-8584174D01*
X9424944Y-8584174D02*
X9434467Y-8546079D01*
X9434467Y-8546079D02*
X9443991Y-8527031D01*
X9443991Y-8527031D02*
X9453515Y-8517508D01*
X9453515Y-8517508D02*
X9472563Y-8507984D01*
X9663039Y-8507984D02*
X9682086Y-8507984D01*
X9682086Y-8507984D02*
X9701134Y-8517508D01*
X9701134Y-8517508D02*
X9710658Y-8527031D01*
X9710658Y-8527031D02*
X9720182Y-8546079D01*
X9720182Y-8546079D02*
X9729705Y-8584174D01*
X9729705Y-8584174D02*
X9729705Y-8631793D01*
X9729705Y-8631793D02*
X9720182Y-8669889D01*
X9720182Y-8669889D02*
X9710658Y-8688936D01*
X9710658Y-8688936D02*
X9701134Y-8698460D01*
X9701134Y-8698460D02*
X9682086Y-8707984D01*
X9682086Y-8707984D02*
X9663039Y-8707984D01*
X9663039Y-8707984D02*
X9643991Y-8698460D01*
X9643991Y-8698460D02*
X9634467Y-8688936D01*
X9634467Y-8688936D02*
X9624944Y-8669889D01*
X9624944Y-8669889D02*
X9615420Y-8631793D01*
X9615420Y-8631793D02*
X9615420Y-8584174D01*
X9615420Y-8584174D02*
X9624944Y-8546079D01*
X9624944Y-8546079D02*
X9634467Y-8527031D01*
X9634467Y-8527031D02*
X9643991Y-8517508D01*
X9643991Y-8517508D02*
X9663039Y-8507984D01*
X9815420Y-8707984D02*
X9815420Y-8574650D01*
X9815420Y-8593698D02*
X9824944Y-8584174D01*
X9824944Y-8584174D02*
X9843991Y-8574650D01*
X9843991Y-8574650D02*
X9872563Y-8574650D01*
X9872563Y-8574650D02*
X9891610Y-8584174D01*
X9891610Y-8584174D02*
X9901134Y-8603222D01*
X9901134Y-8603222D02*
X9901134Y-8707984D01*
X9901134Y-8603222D02*
X9910658Y-8584174D01*
X9910658Y-8584174D02*
X9929705Y-8574650D01*
X9929705Y-8574650D02*
X9958277Y-8574650D01*
X9958277Y-8574650D02*
X9977325Y-8584174D01*
X9977325Y-8584174D02*
X9986848Y-8603222D01*
X9986848Y-8603222D02*
X9986848Y-8707984D01*
X10082086Y-8707984D02*
X10082086Y-8574650D01*
X10082086Y-8593698D02*
X10091610Y-8584174D01*
X10091610Y-8584174D02*
X10110658Y-8574650D01*
X10110658Y-8574650D02*
X10139229Y-8574650D01*
X10139229Y-8574650D02*
X10158277Y-8584174D01*
X10158277Y-8584174D02*
X10167801Y-8603222D01*
X10167801Y-8603222D02*
X10167801Y-8707984D01*
X10167801Y-8603222D02*
X10177325Y-8584174D01*
X10177325Y-8584174D02*
X10196372Y-8574650D01*
X10196372Y-8574650D02*
X10224944Y-8574650D01*
X10224944Y-8574650D02*
X10243991Y-8584174D01*
X10243991Y-8584174D02*
X10253515Y-8603222D01*
X10253515Y-8603222D02*
X10253515Y-8707984D01*
X10643991Y-8498460D02*
X10472563Y-8755603D01*
X10901134Y-8507984D02*
X10920182Y-8507984D01*
X10920182Y-8507984D02*
X10939229Y-8517508D01*
X10939229Y-8517508D02*
X10948753Y-8527031D01*
X10948753Y-8527031D02*
X10958277Y-8546079D01*
X10958277Y-8546079D02*
X10967801Y-8584174D01*
X10967801Y-8584174D02*
X10967801Y-8631793D01*
X10967801Y-8631793D02*
X10958277Y-8669889D01*
X10958277Y-8669889D02*
X10948753Y-8688936D01*
X10948753Y-8688936D02*
X10939229Y-8698460D01*
X10939229Y-8698460D02*
X10920182Y-8707984D01*
X10920182Y-8707984D02*
X10901134Y-8707984D01*
X10901134Y-8707984D02*
X10882087Y-8698460D01*
X10882087Y-8698460D02*
X10872563Y-8688936D01*
X10872563Y-8688936D02*
X10863039Y-8669889D01*
X10863039Y-8669889D02*
X10853515Y-8631793D01*
X10853515Y-8631793D02*
X10853515Y-8584174D01*
X10853515Y-8584174D02*
X10863039Y-8546079D01*
X10863039Y-8546079D02*
X10872563Y-8527031D01*
X10872563Y-8527031D02*
X10882087Y-8517508D01*
X10882087Y-8517508D02*
X10901134Y-8507984D01*
X11053515Y-8688936D02*
X11063039Y-8698460D01*
X11063039Y-8698460D02*
X11053515Y-8707984D01*
X11053515Y-8707984D02*
X11043991Y-8698460D01*
X11043991Y-8698460D02*
X11053515Y-8688936D01*
X11053515Y-8688936D02*
X11053515Y-8707984D01*
X11253515Y-8707984D02*
X11139229Y-8707984D01*
X11196372Y-8707984D02*
X11196372Y-8507984D01*
X11196372Y-8507984D02*
X11177325Y-8536555D01*
X11177325Y-8536555D02*
X11158277Y-8555603D01*
X11158277Y-8555603D02*
X11139229Y-8565127D01*
X11377325Y-8507984D02*
X11396372Y-8507984D01*
X11396372Y-8507984D02*
X11415420Y-8517508D01*
X11415420Y-8517508D02*
X11424944Y-8527031D01*
X11424944Y-8527031D02*
X11434467Y-8546079D01*
X11434467Y-8546079D02*
X11443991Y-8584174D01*
X11443991Y-8584174D02*
X11443991Y-8631793D01*
X11443991Y-8631793D02*
X11434467Y-8669889D01*
X11434467Y-8669889D02*
X11424944Y-8688936D01*
X11424944Y-8688936D02*
X11415420Y-8698460D01*
X11415420Y-8698460D02*
X11396372Y-8707984D01*
X11396372Y-8707984D02*
X11377325Y-8707984D01*
X11377325Y-8707984D02*
X11358277Y-8698460D01*
X11358277Y-8698460D02*
X11348753Y-8688936D01*
X11348753Y-8688936D02*
X11339229Y-8669889D01*
X11339229Y-8669889D02*
X11329706Y-8631793D01*
X11329706Y-8631793D02*
X11329706Y-8584174D01*
X11329706Y-8584174D02*
X11339229Y-8546079D01*
X11339229Y-8546079D02*
X11348753Y-8527031D01*
X11348753Y-8527031D02*
X11358277Y-8517508D01*
X11358277Y-8517508D02*
X11377325Y-8507984D01*
X11615420Y-8507984D02*
X11577325Y-8507984D01*
X11577325Y-8507984D02*
X11558277Y-8517508D01*
X11558277Y-8517508D02*
X11548753Y-8527031D01*
X11548753Y-8527031D02*
X11529706Y-8555603D01*
X11529706Y-8555603D02*
X11520182Y-8593698D01*
X11520182Y-8593698D02*
X11520182Y-8669889D01*
X11520182Y-8669889D02*
X11529706Y-8688936D01*
X11529706Y-8688936D02*
X11539229Y-8698460D01*
X11539229Y-8698460D02*
X11558277Y-8707984D01*
X11558277Y-8707984D02*
X11596372Y-8707984D01*
X11596372Y-8707984D02*
X11615420Y-8698460D01*
X11615420Y-8698460D02*
X11624944Y-8688936D01*
X11624944Y-8688936D02*
X11634467Y-8669889D01*
X11634467Y-8669889D02*
X11634467Y-8622270D01*
X11634467Y-8622270D02*
X11624944Y-8603222D01*
X11624944Y-8603222D02*
X11615420Y-8593698D01*
X11615420Y-8593698D02*
X11596372Y-8584174D01*
X11596372Y-8584174D02*
X11558277Y-8584174D01*
X11558277Y-8584174D02*
X11539229Y-8593698D01*
X11539229Y-8593698D02*
X11529706Y-8603222D01*
X11529706Y-8603222D02*
X11520182Y-8622270D01*
X11701134Y-8507984D02*
X11824944Y-8507984D01*
X11824944Y-8507984D02*
X11758277Y-8584174D01*
X11758277Y-8584174D02*
X11786848Y-8584174D01*
X11786848Y-8584174D02*
X11805896Y-8593698D01*
X11805896Y-8593698D02*
X11815420Y-8603222D01*
X11815420Y-8603222D02*
X11824944Y-8622270D01*
X11824944Y-8622270D02*
X11824944Y-8669889D01*
X11824944Y-8669889D02*
X11815420Y-8688936D01*
X11815420Y-8688936D02*
X11805896Y-8698460D01*
X11805896Y-8698460D02*
X11786848Y-8707984D01*
X11786848Y-8707984D02*
X11729706Y-8707984D01*
X11729706Y-8707984D02*
X11710658Y-8698460D01*
X11710658Y-8698460D02*
X11701134Y-8688936D01*
X11901134Y-8507984D02*
X11901134Y-8546079D01*
X11977325Y-8507984D02*
X11977325Y-8546079D01*
X12272563Y-8784174D02*
X12263039Y-8774650D01*
X12263039Y-8774650D02*
X12243991Y-8746079D01*
X12243991Y-8746079D02*
X12234468Y-8727031D01*
X12234468Y-8727031D02*
X12224944Y-8698460D01*
X12224944Y-8698460D02*
X12215420Y-8650841D01*
X12215420Y-8650841D02*
X12215420Y-8612746D01*
X12215420Y-8612746D02*
X12224944Y-8565127D01*
X12224944Y-8565127D02*
X12234468Y-8536555D01*
X12234468Y-8536555D02*
X12243991Y-8517508D01*
X12243991Y-8517508D02*
X12263039Y-8488936D01*
X12263039Y-8488936D02*
X12272563Y-8479412D01*
X12339229Y-8527031D02*
X12348753Y-8517508D01*
X12348753Y-8517508D02*
X12367801Y-8507984D01*
X12367801Y-8507984D02*
X12415420Y-8507984D01*
X12415420Y-8507984D02*
X12434468Y-8517508D01*
X12434468Y-8517508D02*
X12443991Y-8527031D01*
X12443991Y-8527031D02*
X12453515Y-8546079D01*
X12453515Y-8546079D02*
X12453515Y-8565127D01*
X12453515Y-8565127D02*
X12443991Y-8593698D01*
X12443991Y-8593698D02*
X12329706Y-8707984D01*
X12329706Y-8707984D02*
X12453515Y-8707984D01*
X12691610Y-8707984D02*
X12691610Y-8507984D01*
X12777325Y-8707984D02*
X12777325Y-8603222D01*
X12777325Y-8603222D02*
X12767801Y-8584174D01*
X12767801Y-8584174D02*
X12748753Y-8574650D01*
X12748753Y-8574650D02*
X12720182Y-8574650D01*
X12720182Y-8574650D02*
X12701134Y-8584174D01*
X12701134Y-8584174D02*
X12691610Y-8593698D01*
X12901134Y-8707984D02*
X12882087Y-8698460D01*
X12882087Y-8698460D02*
X12872563Y-8688936D01*
X12872563Y-8688936D02*
X12863039Y-8669889D01*
X12863039Y-8669889D02*
X12863039Y-8612746D01*
X12863039Y-8612746D02*
X12872563Y-8593698D01*
X12872563Y-8593698D02*
X12882087Y-8584174D01*
X12882087Y-8584174D02*
X12901134Y-8574650D01*
X12901134Y-8574650D02*
X12929706Y-8574650D01*
X12929706Y-8574650D02*
X12948753Y-8584174D01*
X12948753Y-8584174D02*
X12958277Y-8593698D01*
X12958277Y-8593698D02*
X12967801Y-8612746D01*
X12967801Y-8612746D02*
X12967801Y-8669889D01*
X12967801Y-8669889D02*
X12958277Y-8688936D01*
X12958277Y-8688936D02*
X12948753Y-8698460D01*
X12948753Y-8698460D02*
X12929706Y-8707984D01*
X12929706Y-8707984D02*
X12901134Y-8707984D01*
X13082087Y-8707984D02*
X13063039Y-8698460D01*
X13063039Y-8698460D02*
X13053515Y-8679412D01*
X13053515Y-8679412D02*
X13053515Y-8507984D01*
X13234468Y-8698460D02*
X13215420Y-8707984D01*
X13215420Y-8707984D02*
X13177325Y-8707984D01*
X13177325Y-8707984D02*
X13158277Y-8698460D01*
X13158277Y-8698460D02*
X13148753Y-8679412D01*
X13148753Y-8679412D02*
X13148753Y-8603222D01*
X13148753Y-8603222D02*
X13158277Y-8584174D01*
X13158277Y-8584174D02*
X13177325Y-8574650D01*
X13177325Y-8574650D02*
X13215420Y-8574650D01*
X13215420Y-8574650D02*
X13234468Y-8584174D01*
X13234468Y-8584174D02*
X13243991Y-8603222D01*
X13243991Y-8603222D02*
X13243991Y-8622270D01*
X13243991Y-8622270D02*
X13148753Y-8641317D01*
X13320182Y-8698460D02*
X13339230Y-8707984D01*
X13339230Y-8707984D02*
X13377325Y-8707984D01*
X13377325Y-8707984D02*
X13396372Y-8698460D01*
X13396372Y-8698460D02*
X13405896Y-8679412D01*
X13405896Y-8679412D02*
X13405896Y-8669889D01*
X13405896Y-8669889D02*
X13396372Y-8650841D01*
X13396372Y-8650841D02*
X13377325Y-8641317D01*
X13377325Y-8641317D02*
X13348753Y-8641317D01*
X13348753Y-8641317D02*
X13329706Y-8631793D01*
X13329706Y-8631793D02*
X13320182Y-8612746D01*
X13320182Y-8612746D02*
X13320182Y-8603222D01*
X13320182Y-8603222D02*
X13329706Y-8584174D01*
X13329706Y-8584174D02*
X13348753Y-8574650D01*
X13348753Y-8574650D02*
X13377325Y-8574650D01*
X13377325Y-8574650D02*
X13396372Y-8584174D01*
X13472563Y-8784174D02*
X13482087Y-8774650D01*
X13482087Y-8774650D02*
X13501134Y-8746079D01*
X13501134Y-8746079D02*
X13510658Y-8727031D01*
X13510658Y-8727031D02*
X13520182Y-8698460D01*
X13520182Y-8698460D02*
X13529706Y-8650841D01*
X13529706Y-8650841D02*
X13529706Y-8612746D01*
X13529706Y-8612746D02*
X13520182Y-8565127D01*
X13520182Y-8565127D02*
X13510658Y-8536555D01*
X13510658Y-8536555D02*
X13501134Y-8517508D01*
X13501134Y-8517508D02*
X13482087Y-8488936D01*
X13482087Y-8488936D02*
X13472563Y-8479412D01*
M02*
