%TF.GenerationSoftware,KiCad,Pcbnew,9.0.2-9.0.2-0~ubuntu24.04.1*%
%TF.CreationDate,2025-06-12T12:11:49+02:00*%
%TF.ProjectId,PCB_Affichage,5043425f-4166-4666-9963-686167652e6b,rev?*%
%TF.SameCoordinates,Original*%
%TF.FileFunction,Drillmap*%
%TF.FilePolarity,Positive*%
%FSLAX45Y45*%
G04 Gerber Fmt 4.5, Leading zero omitted, Abs format (unit mm)*
G04 Created by KiCad (PCBNEW 9.0.2-9.0.2-0~ubuntu24.04.1) date 2025-06-12 12:11:49*
%MOMM*%
%LPD*%
G01*
G04 APERTURE LIST*
%ADD10C,0.050000*%
%ADD11C,0.200000*%
%ADD12C,0.100000*%
%ADD13C,0.190000*%
%ADD14C,0.270000*%
G04 APERTURE END LIST*
D10*
X12600000Y-4600000D02*
G75*
G02*
X12800000Y-4800000I0J-200000D01*
G01*
X8700000Y-7200000D02*
X8700000Y-4800000D01*
X8900000Y-4600000D02*
X12600000Y-4600000D01*
X8900000Y-7400000D02*
G75*
G02*
X8700000Y-7200000I0J200000D01*
G01*
X12800000Y-7200000D02*
G75*
G02*
X12600000Y-7400000I-200000J0D01*
G01*
X8700000Y-4800000D02*
G75*
G02*
X8900000Y-4600000I200000J0D01*
G01*
X12800000Y-4800000D02*
X12800000Y-7200000D01*
X12600000Y-7400000D02*
X8900000Y-7400000D01*
D11*
D12*
X8784000Y-5094000D02*
X8814000Y-5124000D01*
X8814000Y-5094000D02*
X8784000Y-5124000D01*
X8784000Y-5494000D02*
X8814000Y-5524000D01*
X8814000Y-5494000D02*
X8784000Y-5524000D01*
X8784000Y-5894000D02*
X8814000Y-5924000D01*
X8814000Y-5894000D02*
X8784000Y-5924000D01*
X8784000Y-6294000D02*
X8814000Y-6324000D01*
X8814000Y-6294000D02*
X8784000Y-6324000D01*
X8784000Y-6694000D02*
X8814000Y-6724000D01*
X8814000Y-6694000D02*
X8784000Y-6724000D01*
X8784000Y-7094000D02*
X8814000Y-7124000D01*
X8814000Y-7094000D02*
X8784000Y-7124000D01*
X8833000Y-4735000D02*
X8863000Y-4765000D01*
X8863000Y-4735000D02*
X8833000Y-4765000D01*
X9193000Y-7095000D02*
X9223000Y-7125000D01*
X9223000Y-7095000D02*
X9193000Y-7125000D01*
X9214000Y-4694000D02*
X9244000Y-4724000D01*
X9244000Y-4694000D02*
X9214000Y-4724000D01*
X9214000Y-5094000D02*
X9244000Y-5124000D01*
X9244000Y-5094000D02*
X9214000Y-5124000D01*
X9215000Y-5497000D02*
X9245000Y-5527000D01*
X9245000Y-5497000D02*
X9215000Y-5527000D01*
X9437000Y-6196000D02*
X9467000Y-6226000D01*
X9467000Y-6196000D02*
X9437000Y-6226000D01*
X9437000Y-6838000D02*
X9467000Y-6868000D01*
X9467000Y-6838000D02*
X9437000Y-6868000D01*
X9448000Y-5679000D02*
X9478000Y-5709000D01*
X9478000Y-5679000D02*
X9448000Y-5709000D01*
X9644000Y-4694000D02*
X9674000Y-4724000D01*
X9674000Y-4694000D02*
X9644000Y-4724000D01*
X9644000Y-7094000D02*
X9674000Y-7124000D01*
X9674000Y-7094000D02*
X9644000Y-7124000D01*
X9654000Y-6197000D02*
X9684000Y-6227000D01*
X9684000Y-6197000D02*
X9654000Y-6227000D01*
X9654000Y-6839000D02*
X9684000Y-6869000D01*
X9684000Y-6839000D02*
X9654000Y-6869000D01*
X9655000Y-5857000D02*
X9685000Y-5887000D01*
X9685000Y-5857000D02*
X9655000Y-5887000D01*
X9867000Y-5689000D02*
X9897000Y-5719000D01*
X9897000Y-5689000D02*
X9867000Y-5719000D01*
X10074000Y-4694000D02*
X10104000Y-4724000D01*
X10104000Y-4694000D02*
X10074000Y-4724000D01*
X10074000Y-7094000D02*
X10104000Y-7124000D01*
X10104000Y-7094000D02*
X10074000Y-7124000D01*
X10316000Y-6902000D02*
X10346000Y-6932000D01*
X10346000Y-6902000D02*
X10316000Y-6932000D01*
X10317000Y-6103000D02*
X10347000Y-6133000D01*
X10347000Y-6103000D02*
X10317000Y-6133000D01*
X10319000Y-5854000D02*
X10349000Y-5884000D01*
X10349000Y-5854000D02*
X10319000Y-5884000D01*
X10490000Y-6634000D02*
X10520000Y-6664000D01*
X10520000Y-6634000D02*
X10490000Y-6664000D01*
X10504000Y-4694000D02*
X10534000Y-4724000D01*
X10534000Y-4694000D02*
X10504000Y-4724000D01*
X10504000Y-5494000D02*
X10534000Y-5524000D01*
X10534000Y-5494000D02*
X10504000Y-5524000D01*
X10504000Y-7094000D02*
X10534000Y-7124000D01*
X10534000Y-7094000D02*
X10504000Y-7124000D01*
X10589000Y-6638000D02*
X10619000Y-6668000D01*
X10619000Y-6638000D02*
X10589000Y-6668000D01*
X10623000Y-6489000D02*
X10653000Y-6519000D01*
X10653000Y-6489000D02*
X10623000Y-6519000D01*
X10643000Y-5854000D02*
X10673000Y-5884000D01*
X10673000Y-5854000D02*
X10643000Y-5884000D01*
X10732000Y-6489000D02*
X10762000Y-6519000D01*
X10762000Y-6489000D02*
X10732000Y-6519000D01*
X10819000Y-6489000D02*
X10849000Y-6519000D01*
X10849000Y-6489000D02*
X10819000Y-6519000D01*
X10934000Y-5494000D02*
X10964000Y-5524000D01*
X10964000Y-5494000D02*
X10934000Y-5524000D01*
X10934000Y-7094000D02*
X10964000Y-7124000D01*
X10964000Y-7094000D02*
X10934000Y-7124000D01*
X10947000Y-6695000D02*
X10977000Y-6725000D01*
X10977000Y-6695000D02*
X10947000Y-6725000D01*
X10948000Y-6276000D02*
X10978000Y-6306000D01*
X10978000Y-6276000D02*
X10948000Y-6306000D01*
X11364000Y-5494000D02*
X11394000Y-5524000D01*
X11394000Y-5494000D02*
X11364000Y-5524000D01*
X11364000Y-5894000D02*
X11394000Y-5924000D01*
X11394000Y-5894000D02*
X11364000Y-5924000D01*
X11364000Y-6294000D02*
X11394000Y-6324000D01*
X11394000Y-6294000D02*
X11364000Y-6324000D01*
X11364000Y-6694000D02*
X11394000Y-6724000D01*
X11394000Y-6694000D02*
X11364000Y-6724000D01*
X11364000Y-7094000D02*
X11394000Y-7124000D01*
X11394000Y-7094000D02*
X11364000Y-7124000D01*
X11794000Y-5494000D02*
X11824000Y-5524000D01*
X11824000Y-5494000D02*
X11794000Y-5524000D01*
X11794000Y-5894000D02*
X11824000Y-5924000D01*
X11824000Y-5894000D02*
X11794000Y-5924000D01*
X11794000Y-6294000D02*
X11824000Y-6324000D01*
X11824000Y-6294000D02*
X11794000Y-6324000D01*
X11794000Y-6694000D02*
X11824000Y-6724000D01*
X11824000Y-6694000D02*
X11794000Y-6724000D01*
X11794000Y-7094000D02*
X11824000Y-7124000D01*
X11824000Y-7094000D02*
X11794000Y-7124000D01*
X12224000Y-5894000D02*
X12254000Y-5924000D01*
X12254000Y-5894000D02*
X12224000Y-5924000D01*
X12224000Y-6294000D02*
X12254000Y-6324000D01*
X12254000Y-6294000D02*
X12224000Y-6324000D01*
X12224000Y-7094000D02*
X12254000Y-7124000D01*
X12254000Y-7094000D02*
X12224000Y-7124000D01*
X12225000Y-5490000D02*
X12255000Y-5520000D01*
X12255000Y-5490000D02*
X12225000Y-5520000D01*
X12654000Y-5494000D02*
X12684000Y-5524000D01*
X12684000Y-5494000D02*
X12654000Y-5524000D01*
X12654000Y-6694000D02*
X12684000Y-6724000D01*
X12684000Y-6694000D02*
X12654000Y-6724000D01*
X12654000Y-7094000D02*
X12684000Y-7124000D01*
X12684000Y-7094000D02*
X12654000Y-7124000D01*
X9642000Y-4892000D02*
G75*
G02*
X9542000Y-4892000I-50000J0D01*
G01*
X9542000Y-4892000D02*
G75*
G02*
X9642000Y-4892000I50000J0D01*
G01*
X9642000Y-5146000D02*
G75*
G02*
X9542000Y-5146000I-50000J0D01*
G01*
X9542000Y-5146000D02*
G75*
G02*
X9642000Y-5146000I50000J0D01*
G01*
X9642000Y-5400000D02*
G75*
G02*
X9542000Y-5400000I-50000J0D01*
G01*
X9542000Y-5400000D02*
G75*
G02*
X9642000Y-5400000I50000J0D01*
G01*
X9896000Y-4892000D02*
G75*
G02*
X9796000Y-4892000I-50000J0D01*
G01*
X9796000Y-4892000D02*
G75*
G02*
X9896000Y-4892000I50000J0D01*
G01*
X9896000Y-5146000D02*
G75*
G02*
X9796000Y-5146000I-50000J0D01*
G01*
X9796000Y-5146000D02*
G75*
G02*
X9896000Y-5146000I50000J0D01*
G01*
X9896000Y-5400000D02*
G75*
G02*
X9796000Y-5400000I-50000J0D01*
G01*
X9796000Y-5400000D02*
G75*
G02*
X9896000Y-5400000I50000J0D01*
G01*
X10150000Y-4892000D02*
G75*
G02*
X10050000Y-4892000I-50000J0D01*
G01*
X10050000Y-4892000D02*
G75*
G02*
X10150000Y-4892000I50000J0D01*
G01*
X10150000Y-5146000D02*
G75*
G02*
X10050000Y-5146000I-50000J0D01*
G01*
X10050000Y-5146000D02*
G75*
G02*
X10150000Y-5146000I50000J0D01*
G01*
X10150000Y-5400000D02*
G75*
G02*
X10050000Y-5400000I-50000J0D01*
G01*
X10050000Y-5400000D02*
G75*
G02*
X10150000Y-5400000I50000J0D01*
G01*
D13*
X9961000Y-6031000D02*
X9961000Y-6221000D01*
X9866000Y-6126000D02*
X10056000Y-6126000D01*
X9961000Y-6381000D02*
X9961000Y-6571000D01*
X9866000Y-6476000D02*
X10056000Y-6476000D01*
X9961000Y-6731000D02*
X9961000Y-6921000D01*
X9866000Y-6826000D02*
X10056000Y-6826000D01*
D14*
X9263460Y-6142460D02*
X9263460Y-5951540D01*
X9072540Y-5951540D01*
X9072540Y-6142460D01*
X9263460Y-6142460D01*
X9263460Y-6642460D02*
X9263460Y-6451540D01*
X9072540Y-6451540D01*
X9072540Y-6642460D01*
X9263460Y-6642460D01*
D11*
X8958277Y-7713984D02*
X8958277Y-7513984D01*
X8958277Y-7513984D02*
X9005896Y-7513984D01*
X9005896Y-7513984D02*
X9034467Y-7523508D01*
X9034467Y-7523508D02*
X9053515Y-7542555D01*
X9053515Y-7542555D02*
X9063039Y-7561603D01*
X9063039Y-7561603D02*
X9072563Y-7599698D01*
X9072563Y-7599698D02*
X9072563Y-7628269D01*
X9072563Y-7628269D02*
X9063039Y-7666365D01*
X9063039Y-7666365D02*
X9053515Y-7685412D01*
X9053515Y-7685412D02*
X9034467Y-7704460D01*
X9034467Y-7704460D02*
X9005896Y-7713984D01*
X9005896Y-7713984D02*
X8958277Y-7713984D01*
X9158277Y-7713984D02*
X9158277Y-7580650D01*
X9158277Y-7618746D02*
X9167801Y-7599698D01*
X9167801Y-7599698D02*
X9177324Y-7590174D01*
X9177324Y-7590174D02*
X9196372Y-7580650D01*
X9196372Y-7580650D02*
X9215420Y-7580650D01*
X9282086Y-7713984D02*
X9282086Y-7580650D01*
X9282086Y-7513984D02*
X9272563Y-7523508D01*
X9272563Y-7523508D02*
X9282086Y-7533031D01*
X9282086Y-7533031D02*
X9291610Y-7523508D01*
X9291610Y-7523508D02*
X9282086Y-7513984D01*
X9282086Y-7513984D02*
X9282086Y-7533031D01*
X9405896Y-7713984D02*
X9386848Y-7704460D01*
X9386848Y-7704460D02*
X9377324Y-7685412D01*
X9377324Y-7685412D02*
X9377324Y-7513984D01*
X9510658Y-7713984D02*
X9491610Y-7704460D01*
X9491610Y-7704460D02*
X9482086Y-7685412D01*
X9482086Y-7685412D02*
X9482086Y-7513984D01*
X9739229Y-7713984D02*
X9739229Y-7513984D01*
X9739229Y-7513984D02*
X9805896Y-7656841D01*
X9805896Y-7656841D02*
X9872563Y-7513984D01*
X9872563Y-7513984D02*
X9872563Y-7713984D01*
X10053515Y-7713984D02*
X10053515Y-7609222D01*
X10053515Y-7609222D02*
X10043991Y-7590174D01*
X10043991Y-7590174D02*
X10024944Y-7580650D01*
X10024944Y-7580650D02*
X9986848Y-7580650D01*
X9986848Y-7580650D02*
X9967801Y-7590174D01*
X10053515Y-7704460D02*
X10034467Y-7713984D01*
X10034467Y-7713984D02*
X9986848Y-7713984D01*
X9986848Y-7713984D02*
X9967801Y-7704460D01*
X9967801Y-7704460D02*
X9958277Y-7685412D01*
X9958277Y-7685412D02*
X9958277Y-7666365D01*
X9958277Y-7666365D02*
X9967801Y-7647317D01*
X9967801Y-7647317D02*
X9986848Y-7637793D01*
X9986848Y-7637793D02*
X10034467Y-7637793D01*
X10034467Y-7637793D02*
X10053515Y-7628269D01*
X10148753Y-7580650D02*
X10148753Y-7780650D01*
X10148753Y-7590174D02*
X10167801Y-7580650D01*
X10167801Y-7580650D02*
X10205896Y-7580650D01*
X10205896Y-7580650D02*
X10224944Y-7590174D01*
X10224944Y-7590174D02*
X10234467Y-7599698D01*
X10234467Y-7599698D02*
X10243991Y-7618746D01*
X10243991Y-7618746D02*
X10243991Y-7675888D01*
X10243991Y-7675888D02*
X10234467Y-7694936D01*
X10234467Y-7694936D02*
X10224944Y-7704460D01*
X10224944Y-7704460D02*
X10205896Y-7713984D01*
X10205896Y-7713984D02*
X10167801Y-7713984D01*
X10167801Y-7713984D02*
X10148753Y-7704460D01*
X10329705Y-7694936D02*
X10339229Y-7704460D01*
X10339229Y-7704460D02*
X10329705Y-7713984D01*
X10329705Y-7713984D02*
X10320182Y-7704460D01*
X10320182Y-7704460D02*
X10329705Y-7694936D01*
X10329705Y-7694936D02*
X10329705Y-7713984D01*
X10329705Y-7590174D02*
X10339229Y-7599698D01*
X10339229Y-7599698D02*
X10329705Y-7609222D01*
X10329705Y-7609222D02*
X10320182Y-7599698D01*
X10320182Y-7599698D02*
X10329705Y-7590174D01*
X10329705Y-7590174D02*
X10329705Y-7609222D01*
D12*
X8667500Y-8027500D02*
X8697500Y-8057500D01*
X8697500Y-8027500D02*
X8667500Y-8057500D01*
D11*
X8996372Y-7933984D02*
X9015420Y-7933984D01*
X9015420Y-7933984D02*
X9034467Y-7943508D01*
X9034467Y-7943508D02*
X9043991Y-7953031D01*
X9043991Y-7953031D02*
X9053515Y-7972079D01*
X9053515Y-7972079D02*
X9063039Y-8010174D01*
X9063039Y-8010174D02*
X9063039Y-8057793D01*
X9063039Y-8057793D02*
X9053515Y-8095888D01*
X9053515Y-8095888D02*
X9043991Y-8114936D01*
X9043991Y-8114936D02*
X9034467Y-8124460D01*
X9034467Y-8124460D02*
X9015420Y-8133984D01*
X9015420Y-8133984D02*
X8996372Y-8133984D01*
X8996372Y-8133984D02*
X8977324Y-8124460D01*
X8977324Y-8124460D02*
X8967801Y-8114936D01*
X8967801Y-8114936D02*
X8958277Y-8095888D01*
X8958277Y-8095888D02*
X8948753Y-8057793D01*
X8948753Y-8057793D02*
X8948753Y-8010174D01*
X8948753Y-8010174D02*
X8958277Y-7972079D01*
X8958277Y-7972079D02*
X8967801Y-7953031D01*
X8967801Y-7953031D02*
X8977324Y-7943508D01*
X8977324Y-7943508D02*
X8996372Y-7933984D01*
X9148753Y-8114936D02*
X9158277Y-8124460D01*
X9158277Y-8124460D02*
X9148753Y-8133984D01*
X9148753Y-8133984D02*
X9139229Y-8124460D01*
X9139229Y-8124460D02*
X9148753Y-8114936D01*
X9148753Y-8114936D02*
X9148753Y-8133984D01*
X9224944Y-7933984D02*
X9348753Y-7933984D01*
X9348753Y-7933984D02*
X9282086Y-8010174D01*
X9282086Y-8010174D02*
X9310658Y-8010174D01*
X9310658Y-8010174D02*
X9329705Y-8019698D01*
X9329705Y-8019698D02*
X9339229Y-8029222D01*
X9339229Y-8029222D02*
X9348753Y-8048269D01*
X9348753Y-8048269D02*
X9348753Y-8095888D01*
X9348753Y-8095888D02*
X9339229Y-8114936D01*
X9339229Y-8114936D02*
X9329705Y-8124460D01*
X9329705Y-8124460D02*
X9310658Y-8133984D01*
X9310658Y-8133984D02*
X9253515Y-8133984D01*
X9253515Y-8133984D02*
X9234467Y-8124460D01*
X9234467Y-8124460D02*
X9224944Y-8114936D01*
X9472563Y-7933984D02*
X9491610Y-7933984D01*
X9491610Y-7933984D02*
X9510658Y-7943508D01*
X9510658Y-7943508D02*
X9520182Y-7953031D01*
X9520182Y-7953031D02*
X9529705Y-7972079D01*
X9529705Y-7972079D02*
X9539229Y-8010174D01*
X9539229Y-8010174D02*
X9539229Y-8057793D01*
X9539229Y-8057793D02*
X9529705Y-8095888D01*
X9529705Y-8095888D02*
X9520182Y-8114936D01*
X9520182Y-8114936D02*
X9510658Y-8124460D01*
X9510658Y-8124460D02*
X9491610Y-8133984D01*
X9491610Y-8133984D02*
X9472563Y-8133984D01*
X9472563Y-8133984D02*
X9453515Y-8124460D01*
X9453515Y-8124460D02*
X9443991Y-8114936D01*
X9443991Y-8114936D02*
X9434467Y-8095888D01*
X9434467Y-8095888D02*
X9424944Y-8057793D01*
X9424944Y-8057793D02*
X9424944Y-8010174D01*
X9424944Y-8010174D02*
X9434467Y-7972079D01*
X9434467Y-7972079D02*
X9443991Y-7953031D01*
X9443991Y-7953031D02*
X9453515Y-7943508D01*
X9453515Y-7943508D02*
X9472563Y-7933984D01*
X9663039Y-7933984D02*
X9682086Y-7933984D01*
X9682086Y-7933984D02*
X9701134Y-7943508D01*
X9701134Y-7943508D02*
X9710658Y-7953031D01*
X9710658Y-7953031D02*
X9720182Y-7972079D01*
X9720182Y-7972079D02*
X9729705Y-8010174D01*
X9729705Y-8010174D02*
X9729705Y-8057793D01*
X9729705Y-8057793D02*
X9720182Y-8095888D01*
X9720182Y-8095888D02*
X9710658Y-8114936D01*
X9710658Y-8114936D02*
X9701134Y-8124460D01*
X9701134Y-8124460D02*
X9682086Y-8133984D01*
X9682086Y-8133984D02*
X9663039Y-8133984D01*
X9663039Y-8133984D02*
X9643991Y-8124460D01*
X9643991Y-8124460D02*
X9634467Y-8114936D01*
X9634467Y-8114936D02*
X9624944Y-8095888D01*
X9624944Y-8095888D02*
X9615420Y-8057793D01*
X9615420Y-8057793D02*
X9615420Y-8010174D01*
X9615420Y-8010174D02*
X9624944Y-7972079D01*
X9624944Y-7972079D02*
X9634467Y-7953031D01*
X9634467Y-7953031D02*
X9643991Y-7943508D01*
X9643991Y-7943508D02*
X9663039Y-7933984D01*
X9815420Y-8133984D02*
X9815420Y-8000650D01*
X9815420Y-8019698D02*
X9824944Y-8010174D01*
X9824944Y-8010174D02*
X9843991Y-8000650D01*
X9843991Y-8000650D02*
X9872563Y-8000650D01*
X9872563Y-8000650D02*
X9891610Y-8010174D01*
X9891610Y-8010174D02*
X9901134Y-8029222D01*
X9901134Y-8029222D02*
X9901134Y-8133984D01*
X9901134Y-8029222D02*
X9910658Y-8010174D01*
X9910658Y-8010174D02*
X9929705Y-8000650D01*
X9929705Y-8000650D02*
X9958277Y-8000650D01*
X9958277Y-8000650D02*
X9977325Y-8010174D01*
X9977325Y-8010174D02*
X9986848Y-8029222D01*
X9986848Y-8029222D02*
X9986848Y-8133984D01*
X10082086Y-8133984D02*
X10082086Y-8000650D01*
X10082086Y-8019698D02*
X10091610Y-8010174D01*
X10091610Y-8010174D02*
X10110658Y-8000650D01*
X10110658Y-8000650D02*
X10139229Y-8000650D01*
X10139229Y-8000650D02*
X10158277Y-8010174D01*
X10158277Y-8010174D02*
X10167801Y-8029222D01*
X10167801Y-8029222D02*
X10167801Y-8133984D01*
X10167801Y-8029222D02*
X10177325Y-8010174D01*
X10177325Y-8010174D02*
X10196372Y-8000650D01*
X10196372Y-8000650D02*
X10224944Y-8000650D01*
X10224944Y-8000650D02*
X10243991Y-8010174D01*
X10243991Y-8010174D02*
X10253515Y-8029222D01*
X10253515Y-8029222D02*
X10253515Y-8133984D01*
X10643991Y-7924460D02*
X10472563Y-8181603D01*
X10901134Y-7933984D02*
X10920182Y-7933984D01*
X10920182Y-7933984D02*
X10939229Y-7943508D01*
X10939229Y-7943508D02*
X10948753Y-7953031D01*
X10948753Y-7953031D02*
X10958277Y-7972079D01*
X10958277Y-7972079D02*
X10967801Y-8010174D01*
X10967801Y-8010174D02*
X10967801Y-8057793D01*
X10967801Y-8057793D02*
X10958277Y-8095888D01*
X10958277Y-8095888D02*
X10948753Y-8114936D01*
X10948753Y-8114936D02*
X10939229Y-8124460D01*
X10939229Y-8124460D02*
X10920182Y-8133984D01*
X10920182Y-8133984D02*
X10901134Y-8133984D01*
X10901134Y-8133984D02*
X10882087Y-8124460D01*
X10882087Y-8124460D02*
X10872563Y-8114936D01*
X10872563Y-8114936D02*
X10863039Y-8095888D01*
X10863039Y-8095888D02*
X10853515Y-8057793D01*
X10853515Y-8057793D02*
X10853515Y-8010174D01*
X10853515Y-8010174D02*
X10863039Y-7972079D01*
X10863039Y-7972079D02*
X10872563Y-7953031D01*
X10872563Y-7953031D02*
X10882087Y-7943508D01*
X10882087Y-7943508D02*
X10901134Y-7933984D01*
X11053515Y-8114936D02*
X11063039Y-8124460D01*
X11063039Y-8124460D02*
X11053515Y-8133984D01*
X11053515Y-8133984D02*
X11043991Y-8124460D01*
X11043991Y-8124460D02*
X11053515Y-8114936D01*
X11053515Y-8114936D02*
X11053515Y-8133984D01*
X11186848Y-7933984D02*
X11205896Y-7933984D01*
X11205896Y-7933984D02*
X11224944Y-7943508D01*
X11224944Y-7943508D02*
X11234467Y-7953031D01*
X11234467Y-7953031D02*
X11243991Y-7972079D01*
X11243991Y-7972079D02*
X11253515Y-8010174D01*
X11253515Y-8010174D02*
X11253515Y-8057793D01*
X11253515Y-8057793D02*
X11243991Y-8095888D01*
X11243991Y-8095888D02*
X11234467Y-8114936D01*
X11234467Y-8114936D02*
X11224944Y-8124460D01*
X11224944Y-8124460D02*
X11205896Y-8133984D01*
X11205896Y-8133984D02*
X11186848Y-8133984D01*
X11186848Y-8133984D02*
X11167801Y-8124460D01*
X11167801Y-8124460D02*
X11158277Y-8114936D01*
X11158277Y-8114936D02*
X11148753Y-8095888D01*
X11148753Y-8095888D02*
X11139229Y-8057793D01*
X11139229Y-8057793D02*
X11139229Y-8010174D01*
X11139229Y-8010174D02*
X11148753Y-7972079D01*
X11148753Y-7972079D02*
X11158277Y-7953031D01*
X11158277Y-7953031D02*
X11167801Y-7943508D01*
X11167801Y-7943508D02*
X11186848Y-7933984D01*
X11443991Y-8133984D02*
X11329706Y-8133984D01*
X11386848Y-8133984D02*
X11386848Y-7933984D01*
X11386848Y-7933984D02*
X11367801Y-7962555D01*
X11367801Y-7962555D02*
X11348753Y-7981603D01*
X11348753Y-7981603D02*
X11329706Y-7991127D01*
X11634467Y-8133984D02*
X11520182Y-8133984D01*
X11577325Y-8133984D02*
X11577325Y-7933984D01*
X11577325Y-7933984D02*
X11558277Y-7962555D01*
X11558277Y-7962555D02*
X11539229Y-7981603D01*
X11539229Y-7981603D02*
X11520182Y-7991127D01*
X11748753Y-8019698D02*
X11729706Y-8010174D01*
X11729706Y-8010174D02*
X11720182Y-8000650D01*
X11720182Y-8000650D02*
X11710658Y-7981603D01*
X11710658Y-7981603D02*
X11710658Y-7972079D01*
X11710658Y-7972079D02*
X11720182Y-7953031D01*
X11720182Y-7953031D02*
X11729706Y-7943508D01*
X11729706Y-7943508D02*
X11748753Y-7933984D01*
X11748753Y-7933984D02*
X11786848Y-7933984D01*
X11786848Y-7933984D02*
X11805896Y-7943508D01*
X11805896Y-7943508D02*
X11815420Y-7953031D01*
X11815420Y-7953031D02*
X11824944Y-7972079D01*
X11824944Y-7972079D02*
X11824944Y-7981603D01*
X11824944Y-7981603D02*
X11815420Y-8000650D01*
X11815420Y-8000650D02*
X11805896Y-8010174D01*
X11805896Y-8010174D02*
X11786848Y-8019698D01*
X11786848Y-8019698D02*
X11748753Y-8019698D01*
X11748753Y-8019698D02*
X11729706Y-8029222D01*
X11729706Y-8029222D02*
X11720182Y-8038746D01*
X11720182Y-8038746D02*
X11710658Y-8057793D01*
X11710658Y-8057793D02*
X11710658Y-8095888D01*
X11710658Y-8095888D02*
X11720182Y-8114936D01*
X11720182Y-8114936D02*
X11729706Y-8124460D01*
X11729706Y-8124460D02*
X11748753Y-8133984D01*
X11748753Y-8133984D02*
X11786848Y-8133984D01*
X11786848Y-8133984D02*
X11805896Y-8124460D01*
X11805896Y-8124460D02*
X11815420Y-8114936D01*
X11815420Y-8114936D02*
X11824944Y-8095888D01*
X11824944Y-8095888D02*
X11824944Y-8057793D01*
X11824944Y-8057793D02*
X11815420Y-8038746D01*
X11815420Y-8038746D02*
X11805896Y-8029222D01*
X11805896Y-8029222D02*
X11786848Y-8019698D01*
X11901134Y-7933984D02*
X11901134Y-7972079D01*
X11977325Y-7933984D02*
X11977325Y-7972079D01*
X12272563Y-8210174D02*
X12263039Y-8200650D01*
X12263039Y-8200650D02*
X12243991Y-8172079D01*
X12243991Y-8172079D02*
X12234468Y-8153031D01*
X12234468Y-8153031D02*
X12224944Y-8124460D01*
X12224944Y-8124460D02*
X12215420Y-8076841D01*
X12215420Y-8076841D02*
X12215420Y-8038746D01*
X12215420Y-8038746D02*
X12224944Y-7991127D01*
X12224944Y-7991127D02*
X12234468Y-7962555D01*
X12234468Y-7962555D02*
X12243991Y-7943508D01*
X12243991Y-7943508D02*
X12263039Y-7914936D01*
X12263039Y-7914936D02*
X12272563Y-7905412D01*
X12443991Y-7933984D02*
X12348753Y-7933984D01*
X12348753Y-7933984D02*
X12339229Y-8029222D01*
X12339229Y-8029222D02*
X12348753Y-8019698D01*
X12348753Y-8019698D02*
X12367801Y-8010174D01*
X12367801Y-8010174D02*
X12415420Y-8010174D01*
X12415420Y-8010174D02*
X12434468Y-8019698D01*
X12434468Y-8019698D02*
X12443991Y-8029222D01*
X12443991Y-8029222D02*
X12453515Y-8048269D01*
X12453515Y-8048269D02*
X12453515Y-8095888D01*
X12453515Y-8095888D02*
X12443991Y-8114936D01*
X12443991Y-8114936D02*
X12434468Y-8124460D01*
X12434468Y-8124460D02*
X12415420Y-8133984D01*
X12415420Y-8133984D02*
X12367801Y-8133984D01*
X12367801Y-8133984D02*
X12348753Y-8124460D01*
X12348753Y-8124460D02*
X12339229Y-8114936D01*
X12634468Y-7933984D02*
X12539229Y-7933984D01*
X12539229Y-7933984D02*
X12529706Y-8029222D01*
X12529706Y-8029222D02*
X12539229Y-8019698D01*
X12539229Y-8019698D02*
X12558277Y-8010174D01*
X12558277Y-8010174D02*
X12605896Y-8010174D01*
X12605896Y-8010174D02*
X12624944Y-8019698D01*
X12624944Y-8019698D02*
X12634468Y-8029222D01*
X12634468Y-8029222D02*
X12643991Y-8048269D01*
X12643991Y-8048269D02*
X12643991Y-8095888D01*
X12643991Y-8095888D02*
X12634468Y-8114936D01*
X12634468Y-8114936D02*
X12624944Y-8124460D01*
X12624944Y-8124460D02*
X12605896Y-8133984D01*
X12605896Y-8133984D02*
X12558277Y-8133984D01*
X12558277Y-8133984D02*
X12539229Y-8124460D01*
X12539229Y-8124460D02*
X12529706Y-8114936D01*
X12882087Y-8133984D02*
X12882087Y-7933984D01*
X12967801Y-8133984D02*
X12967801Y-8029222D01*
X12967801Y-8029222D02*
X12958277Y-8010174D01*
X12958277Y-8010174D02*
X12939230Y-8000650D01*
X12939230Y-8000650D02*
X12910658Y-8000650D01*
X12910658Y-8000650D02*
X12891610Y-8010174D01*
X12891610Y-8010174D02*
X12882087Y-8019698D01*
X13091610Y-8133984D02*
X13072563Y-8124460D01*
X13072563Y-8124460D02*
X13063039Y-8114936D01*
X13063039Y-8114936D02*
X13053515Y-8095888D01*
X13053515Y-8095888D02*
X13053515Y-8038746D01*
X13053515Y-8038746D02*
X13063039Y-8019698D01*
X13063039Y-8019698D02*
X13072563Y-8010174D01*
X13072563Y-8010174D02*
X13091610Y-8000650D01*
X13091610Y-8000650D02*
X13120182Y-8000650D01*
X13120182Y-8000650D02*
X13139230Y-8010174D01*
X13139230Y-8010174D02*
X13148753Y-8019698D01*
X13148753Y-8019698D02*
X13158277Y-8038746D01*
X13158277Y-8038746D02*
X13158277Y-8095888D01*
X13158277Y-8095888D02*
X13148753Y-8114936D01*
X13148753Y-8114936D02*
X13139230Y-8124460D01*
X13139230Y-8124460D02*
X13120182Y-8133984D01*
X13120182Y-8133984D02*
X13091610Y-8133984D01*
X13272563Y-8133984D02*
X13253515Y-8124460D01*
X13253515Y-8124460D02*
X13243991Y-8105412D01*
X13243991Y-8105412D02*
X13243991Y-7933984D01*
X13424944Y-8124460D02*
X13405896Y-8133984D01*
X13405896Y-8133984D02*
X13367801Y-8133984D01*
X13367801Y-8133984D02*
X13348753Y-8124460D01*
X13348753Y-8124460D02*
X13339230Y-8105412D01*
X13339230Y-8105412D02*
X13339230Y-8029222D01*
X13339230Y-8029222D02*
X13348753Y-8010174D01*
X13348753Y-8010174D02*
X13367801Y-8000650D01*
X13367801Y-8000650D02*
X13405896Y-8000650D01*
X13405896Y-8000650D02*
X13424944Y-8010174D01*
X13424944Y-8010174D02*
X13434468Y-8029222D01*
X13434468Y-8029222D02*
X13434468Y-8048269D01*
X13434468Y-8048269D02*
X13339230Y-8067317D01*
X13510658Y-8124460D02*
X13529706Y-8133984D01*
X13529706Y-8133984D02*
X13567801Y-8133984D01*
X13567801Y-8133984D02*
X13586849Y-8124460D01*
X13586849Y-8124460D02*
X13596372Y-8105412D01*
X13596372Y-8105412D02*
X13596372Y-8095888D01*
X13596372Y-8095888D02*
X13586849Y-8076841D01*
X13586849Y-8076841D02*
X13567801Y-8067317D01*
X13567801Y-8067317D02*
X13539230Y-8067317D01*
X13539230Y-8067317D02*
X13520182Y-8057793D01*
X13520182Y-8057793D02*
X13510658Y-8038746D01*
X13510658Y-8038746D02*
X13510658Y-8029222D01*
X13510658Y-8029222D02*
X13520182Y-8010174D01*
X13520182Y-8010174D02*
X13539230Y-8000650D01*
X13539230Y-8000650D02*
X13567801Y-8000650D01*
X13567801Y-8000650D02*
X13586849Y-8010174D01*
X13663039Y-8210174D02*
X13672563Y-8200650D01*
X13672563Y-8200650D02*
X13691611Y-8172079D01*
X13691611Y-8172079D02*
X13701134Y-8153031D01*
X13701134Y-8153031D02*
X13710658Y-8124460D01*
X13710658Y-8124460D02*
X13720182Y-8076841D01*
X13720182Y-8076841D02*
X13720182Y-8038746D01*
X13720182Y-8038746D02*
X13710658Y-7991127D01*
X13710658Y-7991127D02*
X13701134Y-7962555D01*
X13701134Y-7962555D02*
X13691611Y-7943508D01*
X13691611Y-7943508D02*
X13672563Y-7914936D01*
X13672563Y-7914936D02*
X13663039Y-7905412D01*
D12*
X8697500Y-8306500D02*
G75*
G02*
X8597500Y-8306500I-50000J0D01*
G01*
X8597500Y-8306500D02*
G75*
G02*
X8697500Y-8306500I50000J0D01*
G01*
D11*
X9063039Y-8397984D02*
X8948753Y-8397984D01*
X9005896Y-8397984D02*
X9005896Y-8197984D01*
X9005896Y-8197984D02*
X8986848Y-8226555D01*
X8986848Y-8226555D02*
X8967801Y-8245603D01*
X8967801Y-8245603D02*
X8948753Y-8255127D01*
X9148753Y-8378936D02*
X9158277Y-8388460D01*
X9158277Y-8388460D02*
X9148753Y-8397984D01*
X9148753Y-8397984D02*
X9139229Y-8388460D01*
X9139229Y-8388460D02*
X9148753Y-8378936D01*
X9148753Y-8378936D02*
X9148753Y-8397984D01*
X9282086Y-8197984D02*
X9301134Y-8197984D01*
X9301134Y-8197984D02*
X9320182Y-8207508D01*
X9320182Y-8207508D02*
X9329705Y-8217031D01*
X9329705Y-8217031D02*
X9339229Y-8236079D01*
X9339229Y-8236079D02*
X9348753Y-8274174D01*
X9348753Y-8274174D02*
X9348753Y-8321793D01*
X9348753Y-8321793D02*
X9339229Y-8359888D01*
X9339229Y-8359888D02*
X9329705Y-8378936D01*
X9329705Y-8378936D02*
X9320182Y-8388460D01*
X9320182Y-8388460D02*
X9301134Y-8397984D01*
X9301134Y-8397984D02*
X9282086Y-8397984D01*
X9282086Y-8397984D02*
X9263039Y-8388460D01*
X9263039Y-8388460D02*
X9253515Y-8378936D01*
X9253515Y-8378936D02*
X9243991Y-8359888D01*
X9243991Y-8359888D02*
X9234467Y-8321793D01*
X9234467Y-8321793D02*
X9234467Y-8274174D01*
X9234467Y-8274174D02*
X9243991Y-8236079D01*
X9243991Y-8236079D02*
X9253515Y-8217031D01*
X9253515Y-8217031D02*
X9263039Y-8207508D01*
X9263039Y-8207508D02*
X9282086Y-8197984D01*
X9472563Y-8197984D02*
X9491610Y-8197984D01*
X9491610Y-8197984D02*
X9510658Y-8207508D01*
X9510658Y-8207508D02*
X9520182Y-8217031D01*
X9520182Y-8217031D02*
X9529705Y-8236079D01*
X9529705Y-8236079D02*
X9539229Y-8274174D01*
X9539229Y-8274174D02*
X9539229Y-8321793D01*
X9539229Y-8321793D02*
X9529705Y-8359888D01*
X9529705Y-8359888D02*
X9520182Y-8378936D01*
X9520182Y-8378936D02*
X9510658Y-8388460D01*
X9510658Y-8388460D02*
X9491610Y-8397984D01*
X9491610Y-8397984D02*
X9472563Y-8397984D01*
X9472563Y-8397984D02*
X9453515Y-8388460D01*
X9453515Y-8388460D02*
X9443991Y-8378936D01*
X9443991Y-8378936D02*
X9434467Y-8359888D01*
X9434467Y-8359888D02*
X9424944Y-8321793D01*
X9424944Y-8321793D02*
X9424944Y-8274174D01*
X9424944Y-8274174D02*
X9434467Y-8236079D01*
X9434467Y-8236079D02*
X9443991Y-8217031D01*
X9443991Y-8217031D02*
X9453515Y-8207508D01*
X9453515Y-8207508D02*
X9472563Y-8197984D01*
X9663039Y-8197984D02*
X9682086Y-8197984D01*
X9682086Y-8197984D02*
X9701134Y-8207508D01*
X9701134Y-8207508D02*
X9710658Y-8217031D01*
X9710658Y-8217031D02*
X9720182Y-8236079D01*
X9720182Y-8236079D02*
X9729705Y-8274174D01*
X9729705Y-8274174D02*
X9729705Y-8321793D01*
X9729705Y-8321793D02*
X9720182Y-8359888D01*
X9720182Y-8359888D02*
X9710658Y-8378936D01*
X9710658Y-8378936D02*
X9701134Y-8388460D01*
X9701134Y-8388460D02*
X9682086Y-8397984D01*
X9682086Y-8397984D02*
X9663039Y-8397984D01*
X9663039Y-8397984D02*
X9643991Y-8388460D01*
X9643991Y-8388460D02*
X9634467Y-8378936D01*
X9634467Y-8378936D02*
X9624944Y-8359888D01*
X9624944Y-8359888D02*
X9615420Y-8321793D01*
X9615420Y-8321793D02*
X9615420Y-8274174D01*
X9615420Y-8274174D02*
X9624944Y-8236079D01*
X9624944Y-8236079D02*
X9634467Y-8217031D01*
X9634467Y-8217031D02*
X9643991Y-8207508D01*
X9643991Y-8207508D02*
X9663039Y-8197984D01*
X9815420Y-8397984D02*
X9815420Y-8264650D01*
X9815420Y-8283698D02*
X9824944Y-8274174D01*
X9824944Y-8274174D02*
X9843991Y-8264650D01*
X9843991Y-8264650D02*
X9872563Y-8264650D01*
X9872563Y-8264650D02*
X9891610Y-8274174D01*
X9891610Y-8274174D02*
X9901134Y-8293222D01*
X9901134Y-8293222D02*
X9901134Y-8397984D01*
X9901134Y-8293222D02*
X9910658Y-8274174D01*
X9910658Y-8274174D02*
X9929705Y-8264650D01*
X9929705Y-8264650D02*
X9958277Y-8264650D01*
X9958277Y-8264650D02*
X9977325Y-8274174D01*
X9977325Y-8274174D02*
X9986848Y-8293222D01*
X9986848Y-8293222D02*
X9986848Y-8397984D01*
X10082086Y-8397984D02*
X10082086Y-8264650D01*
X10082086Y-8283698D02*
X10091610Y-8274174D01*
X10091610Y-8274174D02*
X10110658Y-8264650D01*
X10110658Y-8264650D02*
X10139229Y-8264650D01*
X10139229Y-8264650D02*
X10158277Y-8274174D01*
X10158277Y-8274174D02*
X10167801Y-8293222D01*
X10167801Y-8293222D02*
X10167801Y-8397984D01*
X10167801Y-8293222D02*
X10177325Y-8274174D01*
X10177325Y-8274174D02*
X10196372Y-8264650D01*
X10196372Y-8264650D02*
X10224944Y-8264650D01*
X10224944Y-8264650D02*
X10243991Y-8274174D01*
X10243991Y-8274174D02*
X10253515Y-8293222D01*
X10253515Y-8293222D02*
X10253515Y-8397984D01*
X10643991Y-8188460D02*
X10472563Y-8445603D01*
X10901134Y-8197984D02*
X10920182Y-8197984D01*
X10920182Y-8197984D02*
X10939229Y-8207508D01*
X10939229Y-8207508D02*
X10948753Y-8217031D01*
X10948753Y-8217031D02*
X10958277Y-8236079D01*
X10958277Y-8236079D02*
X10967801Y-8274174D01*
X10967801Y-8274174D02*
X10967801Y-8321793D01*
X10967801Y-8321793D02*
X10958277Y-8359888D01*
X10958277Y-8359888D02*
X10948753Y-8378936D01*
X10948753Y-8378936D02*
X10939229Y-8388460D01*
X10939229Y-8388460D02*
X10920182Y-8397984D01*
X10920182Y-8397984D02*
X10901134Y-8397984D01*
X10901134Y-8397984D02*
X10882087Y-8388460D01*
X10882087Y-8388460D02*
X10872563Y-8378936D01*
X10872563Y-8378936D02*
X10863039Y-8359888D01*
X10863039Y-8359888D02*
X10853515Y-8321793D01*
X10853515Y-8321793D02*
X10853515Y-8274174D01*
X10853515Y-8274174D02*
X10863039Y-8236079D01*
X10863039Y-8236079D02*
X10872563Y-8217031D01*
X10872563Y-8217031D02*
X10882087Y-8207508D01*
X10882087Y-8207508D02*
X10901134Y-8197984D01*
X11053515Y-8378936D02*
X11063039Y-8388460D01*
X11063039Y-8388460D02*
X11053515Y-8397984D01*
X11053515Y-8397984D02*
X11043991Y-8388460D01*
X11043991Y-8388460D02*
X11053515Y-8378936D01*
X11053515Y-8378936D02*
X11053515Y-8397984D01*
X11186848Y-8197984D02*
X11205896Y-8197984D01*
X11205896Y-8197984D02*
X11224944Y-8207508D01*
X11224944Y-8207508D02*
X11234467Y-8217031D01*
X11234467Y-8217031D02*
X11243991Y-8236079D01*
X11243991Y-8236079D02*
X11253515Y-8274174D01*
X11253515Y-8274174D02*
X11253515Y-8321793D01*
X11253515Y-8321793D02*
X11243991Y-8359888D01*
X11243991Y-8359888D02*
X11234467Y-8378936D01*
X11234467Y-8378936D02*
X11224944Y-8388460D01*
X11224944Y-8388460D02*
X11205896Y-8397984D01*
X11205896Y-8397984D02*
X11186848Y-8397984D01*
X11186848Y-8397984D02*
X11167801Y-8388460D01*
X11167801Y-8388460D02*
X11158277Y-8378936D01*
X11158277Y-8378936D02*
X11148753Y-8359888D01*
X11148753Y-8359888D02*
X11139229Y-8321793D01*
X11139229Y-8321793D02*
X11139229Y-8274174D01*
X11139229Y-8274174D02*
X11148753Y-8236079D01*
X11148753Y-8236079D02*
X11158277Y-8217031D01*
X11158277Y-8217031D02*
X11167801Y-8207508D01*
X11167801Y-8207508D02*
X11186848Y-8197984D01*
X11320182Y-8197984D02*
X11443991Y-8197984D01*
X11443991Y-8197984D02*
X11377325Y-8274174D01*
X11377325Y-8274174D02*
X11405896Y-8274174D01*
X11405896Y-8274174D02*
X11424944Y-8283698D01*
X11424944Y-8283698D02*
X11434467Y-8293222D01*
X11434467Y-8293222D02*
X11443991Y-8312269D01*
X11443991Y-8312269D02*
X11443991Y-8359888D01*
X11443991Y-8359888D02*
X11434467Y-8378936D01*
X11434467Y-8378936D02*
X11424944Y-8388460D01*
X11424944Y-8388460D02*
X11405896Y-8397984D01*
X11405896Y-8397984D02*
X11348753Y-8397984D01*
X11348753Y-8397984D02*
X11329706Y-8388460D01*
X11329706Y-8388460D02*
X11320182Y-8378936D01*
X11539229Y-8397984D02*
X11577325Y-8397984D01*
X11577325Y-8397984D02*
X11596372Y-8388460D01*
X11596372Y-8388460D02*
X11605896Y-8378936D01*
X11605896Y-8378936D02*
X11624944Y-8350365D01*
X11624944Y-8350365D02*
X11634467Y-8312269D01*
X11634467Y-8312269D02*
X11634467Y-8236079D01*
X11634467Y-8236079D02*
X11624944Y-8217031D01*
X11624944Y-8217031D02*
X11615420Y-8207508D01*
X11615420Y-8207508D02*
X11596372Y-8197984D01*
X11596372Y-8197984D02*
X11558277Y-8197984D01*
X11558277Y-8197984D02*
X11539229Y-8207508D01*
X11539229Y-8207508D02*
X11529706Y-8217031D01*
X11529706Y-8217031D02*
X11520182Y-8236079D01*
X11520182Y-8236079D02*
X11520182Y-8283698D01*
X11520182Y-8283698D02*
X11529706Y-8302746D01*
X11529706Y-8302746D02*
X11539229Y-8312269D01*
X11539229Y-8312269D02*
X11558277Y-8321793D01*
X11558277Y-8321793D02*
X11596372Y-8321793D01*
X11596372Y-8321793D02*
X11615420Y-8312269D01*
X11615420Y-8312269D02*
X11624944Y-8302746D01*
X11624944Y-8302746D02*
X11634467Y-8283698D01*
X11805896Y-8264650D02*
X11805896Y-8397984D01*
X11758277Y-8188460D02*
X11710658Y-8331317D01*
X11710658Y-8331317D02*
X11834467Y-8331317D01*
X11901134Y-8197984D02*
X11901134Y-8236079D01*
X11977325Y-8197984D02*
X11977325Y-8236079D01*
X12272563Y-8474174D02*
X12263039Y-8464650D01*
X12263039Y-8464650D02*
X12243991Y-8436079D01*
X12243991Y-8436079D02*
X12234468Y-8417031D01*
X12234468Y-8417031D02*
X12224944Y-8388460D01*
X12224944Y-8388460D02*
X12215420Y-8340841D01*
X12215420Y-8340841D02*
X12215420Y-8302746D01*
X12215420Y-8302746D02*
X12224944Y-8255127D01*
X12224944Y-8255127D02*
X12234468Y-8226555D01*
X12234468Y-8226555D02*
X12243991Y-8207508D01*
X12243991Y-8207508D02*
X12263039Y-8178936D01*
X12263039Y-8178936D02*
X12272563Y-8169412D01*
X12358277Y-8397984D02*
X12396372Y-8397984D01*
X12396372Y-8397984D02*
X12415420Y-8388460D01*
X12415420Y-8388460D02*
X12424944Y-8378936D01*
X12424944Y-8378936D02*
X12443991Y-8350365D01*
X12443991Y-8350365D02*
X12453515Y-8312269D01*
X12453515Y-8312269D02*
X12453515Y-8236079D01*
X12453515Y-8236079D02*
X12443991Y-8217031D01*
X12443991Y-8217031D02*
X12434468Y-8207508D01*
X12434468Y-8207508D02*
X12415420Y-8197984D01*
X12415420Y-8197984D02*
X12377325Y-8197984D01*
X12377325Y-8197984D02*
X12358277Y-8207508D01*
X12358277Y-8207508D02*
X12348753Y-8217031D01*
X12348753Y-8217031D02*
X12339229Y-8236079D01*
X12339229Y-8236079D02*
X12339229Y-8283698D01*
X12339229Y-8283698D02*
X12348753Y-8302746D01*
X12348753Y-8302746D02*
X12358277Y-8312269D01*
X12358277Y-8312269D02*
X12377325Y-8321793D01*
X12377325Y-8321793D02*
X12415420Y-8321793D01*
X12415420Y-8321793D02*
X12434468Y-8312269D01*
X12434468Y-8312269D02*
X12443991Y-8302746D01*
X12443991Y-8302746D02*
X12453515Y-8283698D01*
X12691610Y-8397984D02*
X12691610Y-8197984D01*
X12777325Y-8397984D02*
X12777325Y-8293222D01*
X12777325Y-8293222D02*
X12767801Y-8274174D01*
X12767801Y-8274174D02*
X12748753Y-8264650D01*
X12748753Y-8264650D02*
X12720182Y-8264650D01*
X12720182Y-8264650D02*
X12701134Y-8274174D01*
X12701134Y-8274174D02*
X12691610Y-8283698D01*
X12901134Y-8397984D02*
X12882087Y-8388460D01*
X12882087Y-8388460D02*
X12872563Y-8378936D01*
X12872563Y-8378936D02*
X12863039Y-8359888D01*
X12863039Y-8359888D02*
X12863039Y-8302746D01*
X12863039Y-8302746D02*
X12872563Y-8283698D01*
X12872563Y-8283698D02*
X12882087Y-8274174D01*
X12882087Y-8274174D02*
X12901134Y-8264650D01*
X12901134Y-8264650D02*
X12929706Y-8264650D01*
X12929706Y-8264650D02*
X12948753Y-8274174D01*
X12948753Y-8274174D02*
X12958277Y-8283698D01*
X12958277Y-8283698D02*
X12967801Y-8302746D01*
X12967801Y-8302746D02*
X12967801Y-8359888D01*
X12967801Y-8359888D02*
X12958277Y-8378936D01*
X12958277Y-8378936D02*
X12948753Y-8388460D01*
X12948753Y-8388460D02*
X12929706Y-8397984D01*
X12929706Y-8397984D02*
X12901134Y-8397984D01*
X13082087Y-8397984D02*
X13063039Y-8388460D01*
X13063039Y-8388460D02*
X13053515Y-8369412D01*
X13053515Y-8369412D02*
X13053515Y-8197984D01*
X13234468Y-8388460D02*
X13215420Y-8397984D01*
X13215420Y-8397984D02*
X13177325Y-8397984D01*
X13177325Y-8397984D02*
X13158277Y-8388460D01*
X13158277Y-8388460D02*
X13148753Y-8369412D01*
X13148753Y-8369412D02*
X13148753Y-8293222D01*
X13148753Y-8293222D02*
X13158277Y-8274174D01*
X13158277Y-8274174D02*
X13177325Y-8264650D01*
X13177325Y-8264650D02*
X13215420Y-8264650D01*
X13215420Y-8264650D02*
X13234468Y-8274174D01*
X13234468Y-8274174D02*
X13243991Y-8293222D01*
X13243991Y-8293222D02*
X13243991Y-8312269D01*
X13243991Y-8312269D02*
X13148753Y-8331317D01*
X13320182Y-8388460D02*
X13339230Y-8397984D01*
X13339230Y-8397984D02*
X13377325Y-8397984D01*
X13377325Y-8397984D02*
X13396372Y-8388460D01*
X13396372Y-8388460D02*
X13405896Y-8369412D01*
X13405896Y-8369412D02*
X13405896Y-8359888D01*
X13405896Y-8359888D02*
X13396372Y-8340841D01*
X13396372Y-8340841D02*
X13377325Y-8331317D01*
X13377325Y-8331317D02*
X13348753Y-8331317D01*
X13348753Y-8331317D02*
X13329706Y-8321793D01*
X13329706Y-8321793D02*
X13320182Y-8302746D01*
X13320182Y-8302746D02*
X13320182Y-8293222D01*
X13320182Y-8293222D02*
X13329706Y-8274174D01*
X13329706Y-8274174D02*
X13348753Y-8264650D01*
X13348753Y-8264650D02*
X13377325Y-8264650D01*
X13377325Y-8264650D02*
X13396372Y-8274174D01*
X13472563Y-8474174D02*
X13482087Y-8464650D01*
X13482087Y-8464650D02*
X13501134Y-8436079D01*
X13501134Y-8436079D02*
X13510658Y-8417031D01*
X13510658Y-8417031D02*
X13520182Y-8388460D01*
X13520182Y-8388460D02*
X13529706Y-8340841D01*
X13529706Y-8340841D02*
X13529706Y-8302746D01*
X13529706Y-8302746D02*
X13520182Y-8255127D01*
X13520182Y-8255127D02*
X13510658Y-8226555D01*
X13510658Y-8226555D02*
X13501134Y-8207508D01*
X13501134Y-8207508D02*
X13482087Y-8178936D01*
X13482087Y-8178936D02*
X13472563Y-8169412D01*
D13*
X8602500Y-8475500D02*
X8602500Y-8665500D01*
X8507500Y-8570500D02*
X8697500Y-8570500D01*
D11*
X9063039Y-8661984D02*
X8948753Y-8661984D01*
X9005896Y-8661984D02*
X9005896Y-8461984D01*
X9005896Y-8461984D02*
X8986848Y-8490555D01*
X8986848Y-8490555D02*
X8967801Y-8509603D01*
X8967801Y-8509603D02*
X8948753Y-8519127D01*
X9148753Y-8642936D02*
X9158277Y-8652460D01*
X9158277Y-8652460D02*
X9148753Y-8661984D01*
X9148753Y-8661984D02*
X9139229Y-8652460D01*
X9139229Y-8652460D02*
X9148753Y-8642936D01*
X9148753Y-8642936D02*
X9148753Y-8661984D01*
X9253515Y-8661984D02*
X9291610Y-8661984D01*
X9291610Y-8661984D02*
X9310658Y-8652460D01*
X9310658Y-8652460D02*
X9320182Y-8642936D01*
X9320182Y-8642936D02*
X9339229Y-8614365D01*
X9339229Y-8614365D02*
X9348753Y-8576270D01*
X9348753Y-8576270D02*
X9348753Y-8500079D01*
X9348753Y-8500079D02*
X9339229Y-8481031D01*
X9339229Y-8481031D02*
X9329705Y-8471508D01*
X9329705Y-8471508D02*
X9310658Y-8461984D01*
X9310658Y-8461984D02*
X9272563Y-8461984D01*
X9272563Y-8461984D02*
X9253515Y-8471508D01*
X9253515Y-8471508D02*
X9243991Y-8481031D01*
X9243991Y-8481031D02*
X9234467Y-8500079D01*
X9234467Y-8500079D02*
X9234467Y-8547698D01*
X9234467Y-8547698D02*
X9243991Y-8566746D01*
X9243991Y-8566746D02*
X9253515Y-8576270D01*
X9253515Y-8576270D02*
X9272563Y-8585793D01*
X9272563Y-8585793D02*
X9310658Y-8585793D01*
X9310658Y-8585793D02*
X9329705Y-8576270D01*
X9329705Y-8576270D02*
X9339229Y-8566746D01*
X9339229Y-8566746D02*
X9348753Y-8547698D01*
X9472563Y-8461984D02*
X9491610Y-8461984D01*
X9491610Y-8461984D02*
X9510658Y-8471508D01*
X9510658Y-8471508D02*
X9520182Y-8481031D01*
X9520182Y-8481031D02*
X9529705Y-8500079D01*
X9529705Y-8500079D02*
X9539229Y-8538174D01*
X9539229Y-8538174D02*
X9539229Y-8585793D01*
X9539229Y-8585793D02*
X9529705Y-8623889D01*
X9529705Y-8623889D02*
X9520182Y-8642936D01*
X9520182Y-8642936D02*
X9510658Y-8652460D01*
X9510658Y-8652460D02*
X9491610Y-8661984D01*
X9491610Y-8661984D02*
X9472563Y-8661984D01*
X9472563Y-8661984D02*
X9453515Y-8652460D01*
X9453515Y-8652460D02*
X9443991Y-8642936D01*
X9443991Y-8642936D02*
X9434467Y-8623889D01*
X9434467Y-8623889D02*
X9424944Y-8585793D01*
X9424944Y-8585793D02*
X9424944Y-8538174D01*
X9424944Y-8538174D02*
X9434467Y-8500079D01*
X9434467Y-8500079D02*
X9443991Y-8481031D01*
X9443991Y-8481031D02*
X9453515Y-8471508D01*
X9453515Y-8471508D02*
X9472563Y-8461984D01*
X9663039Y-8461984D02*
X9682086Y-8461984D01*
X9682086Y-8461984D02*
X9701134Y-8471508D01*
X9701134Y-8471508D02*
X9710658Y-8481031D01*
X9710658Y-8481031D02*
X9720182Y-8500079D01*
X9720182Y-8500079D02*
X9729705Y-8538174D01*
X9729705Y-8538174D02*
X9729705Y-8585793D01*
X9729705Y-8585793D02*
X9720182Y-8623889D01*
X9720182Y-8623889D02*
X9710658Y-8642936D01*
X9710658Y-8642936D02*
X9701134Y-8652460D01*
X9701134Y-8652460D02*
X9682086Y-8661984D01*
X9682086Y-8661984D02*
X9663039Y-8661984D01*
X9663039Y-8661984D02*
X9643991Y-8652460D01*
X9643991Y-8652460D02*
X9634467Y-8642936D01*
X9634467Y-8642936D02*
X9624944Y-8623889D01*
X9624944Y-8623889D02*
X9615420Y-8585793D01*
X9615420Y-8585793D02*
X9615420Y-8538174D01*
X9615420Y-8538174D02*
X9624944Y-8500079D01*
X9624944Y-8500079D02*
X9634467Y-8481031D01*
X9634467Y-8481031D02*
X9643991Y-8471508D01*
X9643991Y-8471508D02*
X9663039Y-8461984D01*
X9815420Y-8661984D02*
X9815420Y-8528650D01*
X9815420Y-8547698D02*
X9824944Y-8538174D01*
X9824944Y-8538174D02*
X9843991Y-8528650D01*
X9843991Y-8528650D02*
X9872563Y-8528650D01*
X9872563Y-8528650D02*
X9891610Y-8538174D01*
X9891610Y-8538174D02*
X9901134Y-8557222D01*
X9901134Y-8557222D02*
X9901134Y-8661984D01*
X9901134Y-8557222D02*
X9910658Y-8538174D01*
X9910658Y-8538174D02*
X9929705Y-8528650D01*
X9929705Y-8528650D02*
X9958277Y-8528650D01*
X9958277Y-8528650D02*
X9977325Y-8538174D01*
X9977325Y-8538174D02*
X9986848Y-8557222D01*
X9986848Y-8557222D02*
X9986848Y-8661984D01*
X10082086Y-8661984D02*
X10082086Y-8528650D01*
X10082086Y-8547698D02*
X10091610Y-8538174D01*
X10091610Y-8538174D02*
X10110658Y-8528650D01*
X10110658Y-8528650D02*
X10139229Y-8528650D01*
X10139229Y-8528650D02*
X10158277Y-8538174D01*
X10158277Y-8538174D02*
X10167801Y-8557222D01*
X10167801Y-8557222D02*
X10167801Y-8661984D01*
X10167801Y-8557222D02*
X10177325Y-8538174D01*
X10177325Y-8538174D02*
X10196372Y-8528650D01*
X10196372Y-8528650D02*
X10224944Y-8528650D01*
X10224944Y-8528650D02*
X10243991Y-8538174D01*
X10243991Y-8538174D02*
X10253515Y-8557222D01*
X10253515Y-8557222D02*
X10253515Y-8661984D01*
X10643991Y-8452460D02*
X10472563Y-8709603D01*
X10901134Y-8461984D02*
X10920182Y-8461984D01*
X10920182Y-8461984D02*
X10939229Y-8471508D01*
X10939229Y-8471508D02*
X10948753Y-8481031D01*
X10948753Y-8481031D02*
X10958277Y-8500079D01*
X10958277Y-8500079D02*
X10967801Y-8538174D01*
X10967801Y-8538174D02*
X10967801Y-8585793D01*
X10967801Y-8585793D02*
X10958277Y-8623889D01*
X10958277Y-8623889D02*
X10948753Y-8642936D01*
X10948753Y-8642936D02*
X10939229Y-8652460D01*
X10939229Y-8652460D02*
X10920182Y-8661984D01*
X10920182Y-8661984D02*
X10901134Y-8661984D01*
X10901134Y-8661984D02*
X10882087Y-8652460D01*
X10882087Y-8652460D02*
X10872563Y-8642936D01*
X10872563Y-8642936D02*
X10863039Y-8623889D01*
X10863039Y-8623889D02*
X10853515Y-8585793D01*
X10853515Y-8585793D02*
X10853515Y-8538174D01*
X10853515Y-8538174D02*
X10863039Y-8500079D01*
X10863039Y-8500079D02*
X10872563Y-8481031D01*
X10872563Y-8481031D02*
X10882087Y-8471508D01*
X10882087Y-8471508D02*
X10901134Y-8461984D01*
X11053515Y-8642936D02*
X11063039Y-8652460D01*
X11063039Y-8652460D02*
X11053515Y-8661984D01*
X11053515Y-8661984D02*
X11043991Y-8652460D01*
X11043991Y-8652460D02*
X11053515Y-8642936D01*
X11053515Y-8642936D02*
X11053515Y-8661984D01*
X11186848Y-8461984D02*
X11205896Y-8461984D01*
X11205896Y-8461984D02*
X11224944Y-8471508D01*
X11224944Y-8471508D02*
X11234467Y-8481031D01*
X11234467Y-8481031D02*
X11243991Y-8500079D01*
X11243991Y-8500079D02*
X11253515Y-8538174D01*
X11253515Y-8538174D02*
X11253515Y-8585793D01*
X11253515Y-8585793D02*
X11243991Y-8623889D01*
X11243991Y-8623889D02*
X11234467Y-8642936D01*
X11234467Y-8642936D02*
X11224944Y-8652460D01*
X11224944Y-8652460D02*
X11205896Y-8661984D01*
X11205896Y-8661984D02*
X11186848Y-8661984D01*
X11186848Y-8661984D02*
X11167801Y-8652460D01*
X11167801Y-8652460D02*
X11158277Y-8642936D01*
X11158277Y-8642936D02*
X11148753Y-8623889D01*
X11148753Y-8623889D02*
X11139229Y-8585793D01*
X11139229Y-8585793D02*
X11139229Y-8538174D01*
X11139229Y-8538174D02*
X11148753Y-8500079D01*
X11148753Y-8500079D02*
X11158277Y-8481031D01*
X11158277Y-8481031D02*
X11167801Y-8471508D01*
X11167801Y-8471508D02*
X11186848Y-8461984D01*
X11320182Y-8461984D02*
X11453515Y-8461984D01*
X11453515Y-8461984D02*
X11367801Y-8661984D01*
X11615420Y-8528650D02*
X11615420Y-8661984D01*
X11567801Y-8452460D02*
X11520182Y-8595317D01*
X11520182Y-8595317D02*
X11643991Y-8595317D01*
X11748753Y-8547698D02*
X11729706Y-8538174D01*
X11729706Y-8538174D02*
X11720182Y-8528650D01*
X11720182Y-8528650D02*
X11710658Y-8509603D01*
X11710658Y-8509603D02*
X11710658Y-8500079D01*
X11710658Y-8500079D02*
X11720182Y-8481031D01*
X11720182Y-8481031D02*
X11729706Y-8471508D01*
X11729706Y-8471508D02*
X11748753Y-8461984D01*
X11748753Y-8461984D02*
X11786848Y-8461984D01*
X11786848Y-8461984D02*
X11805896Y-8471508D01*
X11805896Y-8471508D02*
X11815420Y-8481031D01*
X11815420Y-8481031D02*
X11824944Y-8500079D01*
X11824944Y-8500079D02*
X11824944Y-8509603D01*
X11824944Y-8509603D02*
X11815420Y-8528650D01*
X11815420Y-8528650D02*
X11805896Y-8538174D01*
X11805896Y-8538174D02*
X11786848Y-8547698D01*
X11786848Y-8547698D02*
X11748753Y-8547698D01*
X11748753Y-8547698D02*
X11729706Y-8557222D01*
X11729706Y-8557222D02*
X11720182Y-8566746D01*
X11720182Y-8566746D02*
X11710658Y-8585793D01*
X11710658Y-8585793D02*
X11710658Y-8623889D01*
X11710658Y-8623889D02*
X11720182Y-8642936D01*
X11720182Y-8642936D02*
X11729706Y-8652460D01*
X11729706Y-8652460D02*
X11748753Y-8661984D01*
X11748753Y-8661984D02*
X11786848Y-8661984D01*
X11786848Y-8661984D02*
X11805896Y-8652460D01*
X11805896Y-8652460D02*
X11815420Y-8642936D01*
X11815420Y-8642936D02*
X11824944Y-8623889D01*
X11824944Y-8623889D02*
X11824944Y-8585793D01*
X11824944Y-8585793D02*
X11815420Y-8566746D01*
X11815420Y-8566746D02*
X11805896Y-8557222D01*
X11805896Y-8557222D02*
X11786848Y-8547698D01*
X11901134Y-8461984D02*
X11901134Y-8500079D01*
X11977325Y-8461984D02*
X11977325Y-8500079D01*
X12272563Y-8738174D02*
X12263039Y-8728650D01*
X12263039Y-8728650D02*
X12243991Y-8700079D01*
X12243991Y-8700079D02*
X12234468Y-8681031D01*
X12234468Y-8681031D02*
X12224944Y-8652460D01*
X12224944Y-8652460D02*
X12215420Y-8604841D01*
X12215420Y-8604841D02*
X12215420Y-8566746D01*
X12215420Y-8566746D02*
X12224944Y-8519127D01*
X12224944Y-8519127D02*
X12234468Y-8490555D01*
X12234468Y-8490555D02*
X12243991Y-8471508D01*
X12243991Y-8471508D02*
X12263039Y-8442936D01*
X12263039Y-8442936D02*
X12272563Y-8433412D01*
X12329706Y-8461984D02*
X12453515Y-8461984D01*
X12453515Y-8461984D02*
X12386848Y-8538174D01*
X12386848Y-8538174D02*
X12415420Y-8538174D01*
X12415420Y-8538174D02*
X12434468Y-8547698D01*
X12434468Y-8547698D02*
X12443991Y-8557222D01*
X12443991Y-8557222D02*
X12453515Y-8576270D01*
X12453515Y-8576270D02*
X12453515Y-8623889D01*
X12453515Y-8623889D02*
X12443991Y-8642936D01*
X12443991Y-8642936D02*
X12434468Y-8652460D01*
X12434468Y-8652460D02*
X12415420Y-8661984D01*
X12415420Y-8661984D02*
X12358277Y-8661984D01*
X12358277Y-8661984D02*
X12339229Y-8652460D01*
X12339229Y-8652460D02*
X12329706Y-8642936D01*
X12691610Y-8661984D02*
X12691610Y-8461984D01*
X12777325Y-8661984D02*
X12777325Y-8557222D01*
X12777325Y-8557222D02*
X12767801Y-8538174D01*
X12767801Y-8538174D02*
X12748753Y-8528650D01*
X12748753Y-8528650D02*
X12720182Y-8528650D01*
X12720182Y-8528650D02*
X12701134Y-8538174D01*
X12701134Y-8538174D02*
X12691610Y-8547698D01*
X12901134Y-8661984D02*
X12882087Y-8652460D01*
X12882087Y-8652460D02*
X12872563Y-8642936D01*
X12872563Y-8642936D02*
X12863039Y-8623889D01*
X12863039Y-8623889D02*
X12863039Y-8566746D01*
X12863039Y-8566746D02*
X12872563Y-8547698D01*
X12872563Y-8547698D02*
X12882087Y-8538174D01*
X12882087Y-8538174D02*
X12901134Y-8528650D01*
X12901134Y-8528650D02*
X12929706Y-8528650D01*
X12929706Y-8528650D02*
X12948753Y-8538174D01*
X12948753Y-8538174D02*
X12958277Y-8547698D01*
X12958277Y-8547698D02*
X12967801Y-8566746D01*
X12967801Y-8566746D02*
X12967801Y-8623889D01*
X12967801Y-8623889D02*
X12958277Y-8642936D01*
X12958277Y-8642936D02*
X12948753Y-8652460D01*
X12948753Y-8652460D02*
X12929706Y-8661984D01*
X12929706Y-8661984D02*
X12901134Y-8661984D01*
X13082087Y-8661984D02*
X13063039Y-8652460D01*
X13063039Y-8652460D02*
X13053515Y-8633412D01*
X13053515Y-8633412D02*
X13053515Y-8461984D01*
X13234468Y-8652460D02*
X13215420Y-8661984D01*
X13215420Y-8661984D02*
X13177325Y-8661984D01*
X13177325Y-8661984D02*
X13158277Y-8652460D01*
X13158277Y-8652460D02*
X13148753Y-8633412D01*
X13148753Y-8633412D02*
X13148753Y-8557222D01*
X13148753Y-8557222D02*
X13158277Y-8538174D01*
X13158277Y-8538174D02*
X13177325Y-8528650D01*
X13177325Y-8528650D02*
X13215420Y-8528650D01*
X13215420Y-8528650D02*
X13234468Y-8538174D01*
X13234468Y-8538174D02*
X13243991Y-8557222D01*
X13243991Y-8557222D02*
X13243991Y-8576270D01*
X13243991Y-8576270D02*
X13148753Y-8595317D01*
X13320182Y-8652460D02*
X13339230Y-8661984D01*
X13339230Y-8661984D02*
X13377325Y-8661984D01*
X13377325Y-8661984D02*
X13396372Y-8652460D01*
X13396372Y-8652460D02*
X13405896Y-8633412D01*
X13405896Y-8633412D02*
X13405896Y-8623889D01*
X13405896Y-8623889D02*
X13396372Y-8604841D01*
X13396372Y-8604841D02*
X13377325Y-8595317D01*
X13377325Y-8595317D02*
X13348753Y-8595317D01*
X13348753Y-8595317D02*
X13329706Y-8585793D01*
X13329706Y-8585793D02*
X13320182Y-8566746D01*
X13320182Y-8566746D02*
X13320182Y-8557222D01*
X13320182Y-8557222D02*
X13329706Y-8538174D01*
X13329706Y-8538174D02*
X13348753Y-8528650D01*
X13348753Y-8528650D02*
X13377325Y-8528650D01*
X13377325Y-8528650D02*
X13396372Y-8538174D01*
X13472563Y-8738174D02*
X13482087Y-8728650D01*
X13482087Y-8728650D02*
X13501134Y-8700079D01*
X13501134Y-8700079D02*
X13510658Y-8681031D01*
X13510658Y-8681031D02*
X13520182Y-8652460D01*
X13520182Y-8652460D02*
X13529706Y-8604841D01*
X13529706Y-8604841D02*
X13529706Y-8566746D01*
X13529706Y-8566746D02*
X13520182Y-8519127D01*
X13520182Y-8519127D02*
X13510658Y-8490555D01*
X13510658Y-8490555D02*
X13501134Y-8471508D01*
X13501134Y-8471508D02*
X13482087Y-8442936D01*
X13482087Y-8442936D02*
X13472563Y-8433412D01*
X8668211Y-8951211D02*
X8668211Y-8809789D01*
X8526789Y-8809789D01*
X8526789Y-8951211D01*
X8668211Y-8951211D01*
X8948753Y-8791031D02*
X8958277Y-8781508D01*
X8958277Y-8781508D02*
X8977324Y-8771984D01*
X8977324Y-8771984D02*
X9024944Y-8771984D01*
X9024944Y-8771984D02*
X9043991Y-8781508D01*
X9043991Y-8781508D02*
X9053515Y-8791031D01*
X9053515Y-8791031D02*
X9063039Y-8810079D01*
X9063039Y-8810079D02*
X9063039Y-8829127D01*
X9063039Y-8829127D02*
X9053515Y-8857698D01*
X9053515Y-8857698D02*
X8939229Y-8971984D01*
X8939229Y-8971984D02*
X9063039Y-8971984D01*
X9148753Y-8952936D02*
X9158277Y-8962460D01*
X9158277Y-8962460D02*
X9148753Y-8971984D01*
X9148753Y-8971984D02*
X9139229Y-8962460D01*
X9139229Y-8962460D02*
X9148753Y-8952936D01*
X9148753Y-8952936D02*
X9148753Y-8971984D01*
X9224944Y-8771984D02*
X9358277Y-8771984D01*
X9358277Y-8771984D02*
X9272563Y-8971984D01*
X9472563Y-8771984D02*
X9491610Y-8771984D01*
X9491610Y-8771984D02*
X9510658Y-8781508D01*
X9510658Y-8781508D02*
X9520182Y-8791031D01*
X9520182Y-8791031D02*
X9529705Y-8810079D01*
X9529705Y-8810079D02*
X9539229Y-8848174D01*
X9539229Y-8848174D02*
X9539229Y-8895793D01*
X9539229Y-8895793D02*
X9529705Y-8933889D01*
X9529705Y-8933889D02*
X9520182Y-8952936D01*
X9520182Y-8952936D02*
X9510658Y-8962460D01*
X9510658Y-8962460D02*
X9491610Y-8971984D01*
X9491610Y-8971984D02*
X9472563Y-8971984D01*
X9472563Y-8971984D02*
X9453515Y-8962460D01*
X9453515Y-8962460D02*
X9443991Y-8952936D01*
X9443991Y-8952936D02*
X9434467Y-8933889D01*
X9434467Y-8933889D02*
X9424944Y-8895793D01*
X9424944Y-8895793D02*
X9424944Y-8848174D01*
X9424944Y-8848174D02*
X9434467Y-8810079D01*
X9434467Y-8810079D02*
X9443991Y-8791031D01*
X9443991Y-8791031D02*
X9453515Y-8781508D01*
X9453515Y-8781508D02*
X9472563Y-8771984D01*
X9663039Y-8771984D02*
X9682086Y-8771984D01*
X9682086Y-8771984D02*
X9701134Y-8781508D01*
X9701134Y-8781508D02*
X9710658Y-8791031D01*
X9710658Y-8791031D02*
X9720182Y-8810079D01*
X9720182Y-8810079D02*
X9729705Y-8848174D01*
X9729705Y-8848174D02*
X9729705Y-8895793D01*
X9729705Y-8895793D02*
X9720182Y-8933889D01*
X9720182Y-8933889D02*
X9710658Y-8952936D01*
X9710658Y-8952936D02*
X9701134Y-8962460D01*
X9701134Y-8962460D02*
X9682086Y-8971984D01*
X9682086Y-8971984D02*
X9663039Y-8971984D01*
X9663039Y-8971984D02*
X9643991Y-8962460D01*
X9643991Y-8962460D02*
X9634467Y-8952936D01*
X9634467Y-8952936D02*
X9624944Y-8933889D01*
X9624944Y-8933889D02*
X9615420Y-8895793D01*
X9615420Y-8895793D02*
X9615420Y-8848174D01*
X9615420Y-8848174D02*
X9624944Y-8810079D01*
X9624944Y-8810079D02*
X9634467Y-8791031D01*
X9634467Y-8791031D02*
X9643991Y-8781508D01*
X9643991Y-8781508D02*
X9663039Y-8771984D01*
X9815420Y-8971984D02*
X9815420Y-8838650D01*
X9815420Y-8857698D02*
X9824944Y-8848174D01*
X9824944Y-8848174D02*
X9843991Y-8838650D01*
X9843991Y-8838650D02*
X9872563Y-8838650D01*
X9872563Y-8838650D02*
X9891610Y-8848174D01*
X9891610Y-8848174D02*
X9901134Y-8867222D01*
X9901134Y-8867222D02*
X9901134Y-8971984D01*
X9901134Y-8867222D02*
X9910658Y-8848174D01*
X9910658Y-8848174D02*
X9929705Y-8838650D01*
X9929705Y-8838650D02*
X9958277Y-8838650D01*
X9958277Y-8838650D02*
X9977325Y-8848174D01*
X9977325Y-8848174D02*
X9986848Y-8867222D01*
X9986848Y-8867222D02*
X9986848Y-8971984D01*
X10082086Y-8971984D02*
X10082086Y-8838650D01*
X10082086Y-8857698D02*
X10091610Y-8848174D01*
X10091610Y-8848174D02*
X10110658Y-8838650D01*
X10110658Y-8838650D02*
X10139229Y-8838650D01*
X10139229Y-8838650D02*
X10158277Y-8848174D01*
X10158277Y-8848174D02*
X10167801Y-8867222D01*
X10167801Y-8867222D02*
X10167801Y-8971984D01*
X10167801Y-8867222D02*
X10177325Y-8848174D01*
X10177325Y-8848174D02*
X10196372Y-8838650D01*
X10196372Y-8838650D02*
X10224944Y-8838650D01*
X10224944Y-8838650D02*
X10243991Y-8848174D01*
X10243991Y-8848174D02*
X10253515Y-8867222D01*
X10253515Y-8867222D02*
X10253515Y-8971984D01*
X10643991Y-8762460D02*
X10472563Y-9019603D01*
X10901134Y-8771984D02*
X10920182Y-8771984D01*
X10920182Y-8771984D02*
X10939229Y-8781508D01*
X10939229Y-8781508D02*
X10948753Y-8791031D01*
X10948753Y-8791031D02*
X10958277Y-8810079D01*
X10958277Y-8810079D02*
X10967801Y-8848174D01*
X10967801Y-8848174D02*
X10967801Y-8895793D01*
X10967801Y-8895793D02*
X10958277Y-8933889D01*
X10958277Y-8933889D02*
X10948753Y-8952936D01*
X10948753Y-8952936D02*
X10939229Y-8962460D01*
X10939229Y-8962460D02*
X10920182Y-8971984D01*
X10920182Y-8971984D02*
X10901134Y-8971984D01*
X10901134Y-8971984D02*
X10882087Y-8962460D01*
X10882087Y-8962460D02*
X10872563Y-8952936D01*
X10872563Y-8952936D02*
X10863039Y-8933889D01*
X10863039Y-8933889D02*
X10853515Y-8895793D01*
X10853515Y-8895793D02*
X10853515Y-8848174D01*
X10853515Y-8848174D02*
X10863039Y-8810079D01*
X10863039Y-8810079D02*
X10872563Y-8791031D01*
X10872563Y-8791031D02*
X10882087Y-8781508D01*
X10882087Y-8781508D02*
X10901134Y-8771984D01*
X11053515Y-8952936D02*
X11063039Y-8962460D01*
X11063039Y-8962460D02*
X11053515Y-8971984D01*
X11053515Y-8971984D02*
X11043991Y-8962460D01*
X11043991Y-8962460D02*
X11053515Y-8952936D01*
X11053515Y-8952936D02*
X11053515Y-8971984D01*
X11253515Y-8971984D02*
X11139229Y-8971984D01*
X11196372Y-8971984D02*
X11196372Y-8771984D01*
X11196372Y-8771984D02*
X11177325Y-8800555D01*
X11177325Y-8800555D02*
X11158277Y-8819603D01*
X11158277Y-8819603D02*
X11139229Y-8829127D01*
X11377325Y-8771984D02*
X11396372Y-8771984D01*
X11396372Y-8771984D02*
X11415420Y-8781508D01*
X11415420Y-8781508D02*
X11424944Y-8791031D01*
X11424944Y-8791031D02*
X11434467Y-8810079D01*
X11434467Y-8810079D02*
X11443991Y-8848174D01*
X11443991Y-8848174D02*
X11443991Y-8895793D01*
X11443991Y-8895793D02*
X11434467Y-8933889D01*
X11434467Y-8933889D02*
X11424944Y-8952936D01*
X11424944Y-8952936D02*
X11415420Y-8962460D01*
X11415420Y-8962460D02*
X11396372Y-8971984D01*
X11396372Y-8971984D02*
X11377325Y-8971984D01*
X11377325Y-8971984D02*
X11358277Y-8962460D01*
X11358277Y-8962460D02*
X11348753Y-8952936D01*
X11348753Y-8952936D02*
X11339229Y-8933889D01*
X11339229Y-8933889D02*
X11329706Y-8895793D01*
X11329706Y-8895793D02*
X11329706Y-8848174D01*
X11329706Y-8848174D02*
X11339229Y-8810079D01*
X11339229Y-8810079D02*
X11348753Y-8791031D01*
X11348753Y-8791031D02*
X11358277Y-8781508D01*
X11358277Y-8781508D02*
X11377325Y-8771984D01*
X11615420Y-8771984D02*
X11577325Y-8771984D01*
X11577325Y-8771984D02*
X11558277Y-8781508D01*
X11558277Y-8781508D02*
X11548753Y-8791031D01*
X11548753Y-8791031D02*
X11529706Y-8819603D01*
X11529706Y-8819603D02*
X11520182Y-8857698D01*
X11520182Y-8857698D02*
X11520182Y-8933889D01*
X11520182Y-8933889D02*
X11529706Y-8952936D01*
X11529706Y-8952936D02*
X11539229Y-8962460D01*
X11539229Y-8962460D02*
X11558277Y-8971984D01*
X11558277Y-8971984D02*
X11596372Y-8971984D01*
X11596372Y-8971984D02*
X11615420Y-8962460D01*
X11615420Y-8962460D02*
X11624944Y-8952936D01*
X11624944Y-8952936D02*
X11634467Y-8933889D01*
X11634467Y-8933889D02*
X11634467Y-8886270D01*
X11634467Y-8886270D02*
X11624944Y-8867222D01*
X11624944Y-8867222D02*
X11615420Y-8857698D01*
X11615420Y-8857698D02*
X11596372Y-8848174D01*
X11596372Y-8848174D02*
X11558277Y-8848174D01*
X11558277Y-8848174D02*
X11539229Y-8857698D01*
X11539229Y-8857698D02*
X11529706Y-8867222D01*
X11529706Y-8867222D02*
X11520182Y-8886270D01*
X11701134Y-8771984D02*
X11824944Y-8771984D01*
X11824944Y-8771984D02*
X11758277Y-8848174D01*
X11758277Y-8848174D02*
X11786848Y-8848174D01*
X11786848Y-8848174D02*
X11805896Y-8857698D01*
X11805896Y-8857698D02*
X11815420Y-8867222D01*
X11815420Y-8867222D02*
X11824944Y-8886270D01*
X11824944Y-8886270D02*
X11824944Y-8933889D01*
X11824944Y-8933889D02*
X11815420Y-8952936D01*
X11815420Y-8952936D02*
X11805896Y-8962460D01*
X11805896Y-8962460D02*
X11786848Y-8971984D01*
X11786848Y-8971984D02*
X11729706Y-8971984D01*
X11729706Y-8971984D02*
X11710658Y-8962460D01*
X11710658Y-8962460D02*
X11701134Y-8952936D01*
X11901134Y-8771984D02*
X11901134Y-8810079D01*
X11977325Y-8771984D02*
X11977325Y-8810079D01*
X12272563Y-9048174D02*
X12263039Y-9038650D01*
X12263039Y-9038650D02*
X12243991Y-9010079D01*
X12243991Y-9010079D02*
X12234468Y-8991031D01*
X12234468Y-8991031D02*
X12224944Y-8962460D01*
X12224944Y-8962460D02*
X12215420Y-8914841D01*
X12215420Y-8914841D02*
X12215420Y-8876746D01*
X12215420Y-8876746D02*
X12224944Y-8829127D01*
X12224944Y-8829127D02*
X12234468Y-8800555D01*
X12234468Y-8800555D02*
X12243991Y-8781508D01*
X12243991Y-8781508D02*
X12263039Y-8752936D01*
X12263039Y-8752936D02*
X12272563Y-8743412D01*
X12339229Y-8791031D02*
X12348753Y-8781508D01*
X12348753Y-8781508D02*
X12367801Y-8771984D01*
X12367801Y-8771984D02*
X12415420Y-8771984D01*
X12415420Y-8771984D02*
X12434468Y-8781508D01*
X12434468Y-8781508D02*
X12443991Y-8791031D01*
X12443991Y-8791031D02*
X12453515Y-8810079D01*
X12453515Y-8810079D02*
X12453515Y-8829127D01*
X12453515Y-8829127D02*
X12443991Y-8857698D01*
X12443991Y-8857698D02*
X12329706Y-8971984D01*
X12329706Y-8971984D02*
X12453515Y-8971984D01*
X12691610Y-8971984D02*
X12691610Y-8771984D01*
X12777325Y-8971984D02*
X12777325Y-8867222D01*
X12777325Y-8867222D02*
X12767801Y-8848174D01*
X12767801Y-8848174D02*
X12748753Y-8838650D01*
X12748753Y-8838650D02*
X12720182Y-8838650D01*
X12720182Y-8838650D02*
X12701134Y-8848174D01*
X12701134Y-8848174D02*
X12691610Y-8857698D01*
X12901134Y-8971984D02*
X12882087Y-8962460D01*
X12882087Y-8962460D02*
X12872563Y-8952936D01*
X12872563Y-8952936D02*
X12863039Y-8933889D01*
X12863039Y-8933889D02*
X12863039Y-8876746D01*
X12863039Y-8876746D02*
X12872563Y-8857698D01*
X12872563Y-8857698D02*
X12882087Y-8848174D01*
X12882087Y-8848174D02*
X12901134Y-8838650D01*
X12901134Y-8838650D02*
X12929706Y-8838650D01*
X12929706Y-8838650D02*
X12948753Y-8848174D01*
X12948753Y-8848174D02*
X12958277Y-8857698D01*
X12958277Y-8857698D02*
X12967801Y-8876746D01*
X12967801Y-8876746D02*
X12967801Y-8933889D01*
X12967801Y-8933889D02*
X12958277Y-8952936D01*
X12958277Y-8952936D02*
X12948753Y-8962460D01*
X12948753Y-8962460D02*
X12929706Y-8971984D01*
X12929706Y-8971984D02*
X12901134Y-8971984D01*
X13082087Y-8971984D02*
X13063039Y-8962460D01*
X13063039Y-8962460D02*
X13053515Y-8943412D01*
X13053515Y-8943412D02*
X13053515Y-8771984D01*
X13234468Y-8962460D02*
X13215420Y-8971984D01*
X13215420Y-8971984D02*
X13177325Y-8971984D01*
X13177325Y-8971984D02*
X13158277Y-8962460D01*
X13158277Y-8962460D02*
X13148753Y-8943412D01*
X13148753Y-8943412D02*
X13148753Y-8867222D01*
X13148753Y-8867222D02*
X13158277Y-8848174D01*
X13158277Y-8848174D02*
X13177325Y-8838650D01*
X13177325Y-8838650D02*
X13215420Y-8838650D01*
X13215420Y-8838650D02*
X13234468Y-8848174D01*
X13234468Y-8848174D02*
X13243991Y-8867222D01*
X13243991Y-8867222D02*
X13243991Y-8886270D01*
X13243991Y-8886270D02*
X13148753Y-8905317D01*
X13320182Y-8962460D02*
X13339230Y-8971984D01*
X13339230Y-8971984D02*
X13377325Y-8971984D01*
X13377325Y-8971984D02*
X13396372Y-8962460D01*
X13396372Y-8962460D02*
X13405896Y-8943412D01*
X13405896Y-8943412D02*
X13405896Y-8933889D01*
X13405896Y-8933889D02*
X13396372Y-8914841D01*
X13396372Y-8914841D02*
X13377325Y-8905317D01*
X13377325Y-8905317D02*
X13348753Y-8905317D01*
X13348753Y-8905317D02*
X13329706Y-8895793D01*
X13329706Y-8895793D02*
X13320182Y-8876746D01*
X13320182Y-8876746D02*
X13320182Y-8867222D01*
X13320182Y-8867222D02*
X13329706Y-8848174D01*
X13329706Y-8848174D02*
X13348753Y-8838650D01*
X13348753Y-8838650D02*
X13377325Y-8838650D01*
X13377325Y-8838650D02*
X13396372Y-8848174D01*
X13472563Y-9048174D02*
X13482087Y-9038650D01*
X13482087Y-9038650D02*
X13501134Y-9010079D01*
X13501134Y-9010079D02*
X13510658Y-8991031D01*
X13510658Y-8991031D02*
X13520182Y-8962460D01*
X13520182Y-8962460D02*
X13529706Y-8914841D01*
X13529706Y-8914841D02*
X13529706Y-8876746D01*
X13529706Y-8876746D02*
X13520182Y-8829127D01*
X13520182Y-8829127D02*
X13510658Y-8800555D01*
X13510658Y-8800555D02*
X13501134Y-8781508D01*
X13501134Y-8781508D02*
X13482087Y-8752936D01*
X13482087Y-8752936D02*
X13472563Y-8743412D01*
M02*
