G04 #@! TF.GenerationSoftware,KiCad,Pcbnew,9.0.2-9.0.2-0~ubuntu24.04.1*
G04 #@! TF.CreationDate,2025-06-11T11:10:21+02:00*
G04 #@! TF.ProjectId,PCB_Affichage,5043425f-4166-4666-9963-686167652e6b,rev?*
G04 #@! TF.SameCoordinates,Original*
G04 #@! TF.FileFunction,Legend,Bot*
G04 #@! TF.FilePolarity,Positive*
%FSLAX46Y46*%
G04 Gerber Fmt 4.6, Leading zero omitted, Abs format (unit mm)*
G04 Created by KiCad (PCBNEW 9.0.2-9.0.2-0~ubuntu24.04.1) date 2025-06-11 11:10:21*
%MOMM*%
%LPD*%
G01*
G04 APERTURE LIST*
G04 Aperture macros list*
%AMRoundRect*
0 Rectangle with rounded corners*
0 $1 Rounding radius*
0 $2 $3 $4 $5 $6 $7 $8 $9 X,Y pos of 4 corners*
0 Add a 4 corners polygon primitive as box body*
4,1,4,$2,$3,$4,$5,$6,$7,$8,$9,$2,$3,0*
0 Add four circle primitives for the rounded corners*
1,1,$1+$1,$2,$3*
1,1,$1+$1,$4,$5*
1,1,$1+$1,$6,$7*
1,1,$1+$1,$8,$9*
0 Add four rect primitives between the rounded corners*
20,1,$1+$1,$2,$3,$4,$5,0*
20,1,$1+$1,$4,$5,$6,$7,0*
20,1,$1+$1,$6,$7,$8,$9,0*
20,1,$1+$1,$8,$9,$2,$3,0*%
G04 Aperture macros list end*
%ADD10C,0.100000*%
%ADD11C,0.150000*%
%ADD12C,0.120000*%
%ADD13R,1.900000X1.000000*%
%ADD14C,3.000000*%
%ADD15RoundRect,0.760000X1.140000X-1.140000X1.140000X1.140000X-1.140000X1.140000X-1.140000X-1.140000X0*%
%ADD16C,4.000000*%
%ADD17RoundRect,0.237500X0.237500X-0.300000X0.237500X0.300000X-0.237500X0.300000X-0.237500X-0.300000X0*%
G04 APERTURE END LIST*
D10*
X126612782Y-72328609D02*
X126469925Y-72376228D01*
X126469925Y-72376228D02*
X126422306Y-72423847D01*
X126422306Y-72423847D02*
X126374687Y-72519085D01*
X126374687Y-72519085D02*
X126374687Y-72661942D01*
X126374687Y-72661942D02*
X126422306Y-72757180D01*
X126422306Y-72757180D02*
X126469925Y-72804800D01*
X126469925Y-72804800D02*
X126565163Y-72852419D01*
X126565163Y-72852419D02*
X126946115Y-72852419D01*
X126946115Y-72852419D02*
X126946115Y-71852419D01*
X126946115Y-71852419D02*
X126612782Y-71852419D01*
X126612782Y-71852419D02*
X126517544Y-71900038D01*
X126517544Y-71900038D02*
X126469925Y-71947657D01*
X126469925Y-71947657D02*
X126422306Y-72042895D01*
X126422306Y-72042895D02*
X126422306Y-72138133D01*
X126422306Y-72138133D02*
X126469925Y-72233371D01*
X126469925Y-72233371D02*
X126517544Y-72280990D01*
X126517544Y-72280990D02*
X126612782Y-72328609D01*
X126612782Y-72328609D02*
X126946115Y-72328609D01*
X126041353Y-72185752D02*
X125803258Y-72852419D01*
X125565163Y-72185752D02*
X125803258Y-72852419D01*
X125803258Y-72852419D02*
X125898496Y-73090514D01*
X125898496Y-73090514D02*
X125946115Y-73138133D01*
X125946115Y-73138133D02*
X126041353Y-73185752D01*
X123850877Y-72757180D02*
X123898496Y-72804800D01*
X123898496Y-72804800D02*
X124041353Y-72852419D01*
X124041353Y-72852419D02*
X124136591Y-72852419D01*
X124136591Y-72852419D02*
X124279448Y-72804800D01*
X124279448Y-72804800D02*
X124374686Y-72709561D01*
X124374686Y-72709561D02*
X124422305Y-72614323D01*
X124422305Y-72614323D02*
X124469924Y-72423847D01*
X124469924Y-72423847D02*
X124469924Y-72280990D01*
X124469924Y-72280990D02*
X124422305Y-72090514D01*
X124422305Y-72090514D02*
X124374686Y-71995276D01*
X124374686Y-71995276D02*
X124279448Y-71900038D01*
X124279448Y-71900038D02*
X124136591Y-71852419D01*
X124136591Y-71852419D02*
X124041353Y-71852419D01*
X124041353Y-71852419D02*
X123898496Y-71900038D01*
X123898496Y-71900038D02*
X123850877Y-71947657D01*
X122993734Y-72852419D02*
X122993734Y-72328609D01*
X122993734Y-72328609D02*
X123041353Y-72233371D01*
X123041353Y-72233371D02*
X123136591Y-72185752D01*
X123136591Y-72185752D02*
X123327067Y-72185752D01*
X123327067Y-72185752D02*
X123422305Y-72233371D01*
X122993734Y-72804800D02*
X123088972Y-72852419D01*
X123088972Y-72852419D02*
X123327067Y-72852419D01*
X123327067Y-72852419D02*
X123422305Y-72804800D01*
X123422305Y-72804800D02*
X123469924Y-72709561D01*
X123469924Y-72709561D02*
X123469924Y-72614323D01*
X123469924Y-72614323D02*
X123422305Y-72519085D01*
X123422305Y-72519085D02*
X123327067Y-72471466D01*
X123327067Y-72471466D02*
X123088972Y-72471466D01*
X123088972Y-72471466D02*
X122993734Y-72423847D01*
X122517543Y-72185752D02*
X122517543Y-73185752D01*
X122517543Y-72233371D02*
X122422305Y-72185752D01*
X122422305Y-72185752D02*
X122231829Y-72185752D01*
X122231829Y-72185752D02*
X122136591Y-72233371D01*
X122136591Y-72233371D02*
X122088972Y-72280990D01*
X122088972Y-72280990D02*
X122041353Y-72376228D01*
X122041353Y-72376228D02*
X122041353Y-72661942D01*
X122041353Y-72661942D02*
X122088972Y-72757180D01*
X122088972Y-72757180D02*
X122136591Y-72804800D01*
X122136591Y-72804800D02*
X122231829Y-72852419D01*
X122231829Y-72852419D02*
X122422305Y-72852419D01*
X122422305Y-72852419D02*
X122517543Y-72804800D01*
X121469924Y-72852419D02*
X121565162Y-72804800D01*
X121565162Y-72804800D02*
X121612781Y-72757180D01*
X121612781Y-72757180D02*
X121660400Y-72661942D01*
X121660400Y-72661942D02*
X121660400Y-72376228D01*
X121660400Y-72376228D02*
X121612781Y-72280990D01*
X121612781Y-72280990D02*
X121565162Y-72233371D01*
X121565162Y-72233371D02*
X121469924Y-72185752D01*
X121469924Y-72185752D02*
X121327067Y-72185752D01*
X121327067Y-72185752D02*
X121231829Y-72233371D01*
X121231829Y-72233371D02*
X121184210Y-72280990D01*
X121184210Y-72280990D02*
X121136591Y-72376228D01*
X121136591Y-72376228D02*
X121136591Y-72661942D01*
X121136591Y-72661942D02*
X121184210Y-72757180D01*
X121184210Y-72757180D02*
X121231829Y-72804800D01*
X121231829Y-72804800D02*
X121327067Y-72852419D01*
X121327067Y-72852419D02*
X121469924Y-72852419D01*
X120279448Y-72852419D02*
X120279448Y-71852419D01*
X120279448Y-72804800D02*
X120374686Y-72852419D01*
X120374686Y-72852419D02*
X120565162Y-72852419D01*
X120565162Y-72852419D02*
X120660400Y-72804800D01*
X120660400Y-72804800D02*
X120708019Y-72757180D01*
X120708019Y-72757180D02*
X120755638Y-72661942D01*
X120755638Y-72661942D02*
X120755638Y-72376228D01*
X120755638Y-72376228D02*
X120708019Y-72280990D01*
X120708019Y-72280990D02*
X120660400Y-72233371D01*
X120660400Y-72233371D02*
X120565162Y-72185752D01*
X120565162Y-72185752D02*
X120374686Y-72185752D01*
X120374686Y-72185752D02*
X120279448Y-72233371D01*
X119374686Y-72852419D02*
X119374686Y-72328609D01*
X119374686Y-72328609D02*
X119422305Y-72233371D01*
X119422305Y-72233371D02*
X119517543Y-72185752D01*
X119517543Y-72185752D02*
X119708019Y-72185752D01*
X119708019Y-72185752D02*
X119803257Y-72233371D01*
X119374686Y-72804800D02*
X119469924Y-72852419D01*
X119469924Y-72852419D02*
X119708019Y-72852419D01*
X119708019Y-72852419D02*
X119803257Y-72804800D01*
X119803257Y-72804800D02*
X119850876Y-72709561D01*
X119850876Y-72709561D02*
X119850876Y-72614323D01*
X119850876Y-72614323D02*
X119803257Y-72519085D01*
X119803257Y-72519085D02*
X119708019Y-72471466D01*
X119708019Y-72471466D02*
X119469924Y-72471466D01*
X119469924Y-72471466D02*
X119374686Y-72423847D01*
X118469924Y-72185752D02*
X118469924Y-72995276D01*
X118469924Y-72995276D02*
X118517543Y-73090514D01*
X118517543Y-73090514D02*
X118565162Y-73138133D01*
X118565162Y-73138133D02*
X118660400Y-73185752D01*
X118660400Y-73185752D02*
X118803257Y-73185752D01*
X118803257Y-73185752D02*
X118898495Y-73138133D01*
X118469924Y-72804800D02*
X118565162Y-72852419D01*
X118565162Y-72852419D02*
X118755638Y-72852419D01*
X118755638Y-72852419D02*
X118850876Y-72804800D01*
X118850876Y-72804800D02*
X118898495Y-72757180D01*
X118898495Y-72757180D02*
X118946114Y-72661942D01*
X118946114Y-72661942D02*
X118946114Y-72376228D01*
X118946114Y-72376228D02*
X118898495Y-72280990D01*
X118898495Y-72280990D02*
X118850876Y-72233371D01*
X118850876Y-72233371D02*
X118755638Y-72185752D01*
X118755638Y-72185752D02*
X118565162Y-72185752D01*
X118565162Y-72185752D02*
X118469924Y-72233371D01*
X117850876Y-72852419D02*
X117946114Y-72804800D01*
X117946114Y-72804800D02*
X117993733Y-72709561D01*
X117993733Y-72709561D02*
X117993733Y-71852419D01*
X117469923Y-72852419D02*
X117469923Y-72185752D01*
X117469923Y-71852419D02*
X117517542Y-71900038D01*
X117517542Y-71900038D02*
X117469923Y-71947657D01*
X117469923Y-71947657D02*
X117422304Y-71900038D01*
X117422304Y-71900038D02*
X117469923Y-71852419D01*
X117469923Y-71852419D02*
X117469923Y-71947657D01*
X115946114Y-71852419D02*
X115946114Y-72566704D01*
X115946114Y-72566704D02*
X115993733Y-72709561D01*
X115993733Y-72709561D02*
X116088971Y-72804800D01*
X116088971Y-72804800D02*
X116231828Y-72852419D01*
X116231828Y-72852419D02*
X116327066Y-72852419D01*
X115041352Y-72852419D02*
X115041352Y-72328609D01*
X115041352Y-72328609D02*
X115088971Y-72233371D01*
X115088971Y-72233371D02*
X115184209Y-72185752D01*
X115184209Y-72185752D02*
X115374685Y-72185752D01*
X115374685Y-72185752D02*
X115469923Y-72233371D01*
X115041352Y-72804800D02*
X115136590Y-72852419D01*
X115136590Y-72852419D02*
X115374685Y-72852419D01*
X115374685Y-72852419D02*
X115469923Y-72804800D01*
X115469923Y-72804800D02*
X115517542Y-72709561D01*
X115517542Y-72709561D02*
X115517542Y-72614323D01*
X115517542Y-72614323D02*
X115469923Y-72519085D01*
X115469923Y-72519085D02*
X115374685Y-72471466D01*
X115374685Y-72471466D02*
X115136590Y-72471466D01*
X115136590Y-72471466D02*
X115041352Y-72423847D01*
X114565161Y-72185752D02*
X114565161Y-72852419D01*
X114565161Y-72280990D02*
X114517542Y-72233371D01*
X114517542Y-72233371D02*
X114422304Y-72185752D01*
X114422304Y-72185752D02*
X114279447Y-72185752D01*
X114279447Y-72185752D02*
X114184209Y-72233371D01*
X114184209Y-72233371D02*
X114136590Y-72328609D01*
X114136590Y-72328609D02*
X114136590Y-72852419D01*
X113231828Y-72185752D02*
X113231828Y-72852419D01*
X113660399Y-72185752D02*
X113660399Y-72709561D01*
X113660399Y-72709561D02*
X113612780Y-72804800D01*
X113612780Y-72804800D02*
X113517542Y-72852419D01*
X113517542Y-72852419D02*
X113374685Y-72852419D01*
X113374685Y-72852419D02*
X113279447Y-72804800D01*
X113279447Y-72804800D02*
X113231828Y-72757180D01*
X112803256Y-72804800D02*
X112708018Y-72852419D01*
X112708018Y-72852419D02*
X112517542Y-72852419D01*
X112517542Y-72852419D02*
X112422304Y-72804800D01*
X112422304Y-72804800D02*
X112374685Y-72709561D01*
X112374685Y-72709561D02*
X112374685Y-72661942D01*
X112374685Y-72661942D02*
X112422304Y-72566704D01*
X112422304Y-72566704D02*
X112517542Y-72519085D01*
X112517542Y-72519085D02*
X112660399Y-72519085D01*
X112660399Y-72519085D02*
X112755637Y-72471466D01*
X112755637Y-72471466D02*
X112803256Y-72376228D01*
X112803256Y-72376228D02*
X112803256Y-72328609D01*
X112803256Y-72328609D02*
X112755637Y-72233371D01*
X112755637Y-72233371D02*
X112660399Y-72185752D01*
X112660399Y-72185752D02*
X112517542Y-72185752D01*
X112517542Y-72185752D02*
X112422304Y-72233371D01*
X117801904Y-47227419D02*
X117801904Y-48036942D01*
X117801904Y-48036942D02*
X117754285Y-48132180D01*
X117754285Y-48132180D02*
X117706666Y-48179800D01*
X117706666Y-48179800D02*
X117611428Y-48227419D01*
X117611428Y-48227419D02*
X117420952Y-48227419D01*
X117420952Y-48227419D02*
X117325714Y-48179800D01*
X117325714Y-48179800D02*
X117278095Y-48132180D01*
X117278095Y-48132180D02*
X117230476Y-48036942D01*
X117230476Y-48036942D02*
X117230476Y-47227419D01*
X116801904Y-47322657D02*
X116754285Y-47275038D01*
X116754285Y-47275038D02*
X116659047Y-47227419D01*
X116659047Y-47227419D02*
X116420952Y-47227419D01*
X116420952Y-47227419D02*
X116325714Y-47275038D01*
X116325714Y-47275038D02*
X116278095Y-47322657D01*
X116278095Y-47322657D02*
X116230476Y-47417895D01*
X116230476Y-47417895D02*
X116230476Y-47513133D01*
X116230476Y-47513133D02*
X116278095Y-47655990D01*
X116278095Y-47655990D02*
X116849523Y-48227419D01*
X116849523Y-48227419D02*
X116230476Y-48227419D01*
X112359925Y-65812419D02*
X112836115Y-65812419D01*
X112836115Y-65812419D02*
X112883734Y-66288609D01*
X112883734Y-66288609D02*
X112836115Y-66240990D01*
X112836115Y-66240990D02*
X112740877Y-66193371D01*
X112740877Y-66193371D02*
X112502782Y-66193371D01*
X112502782Y-66193371D02*
X112407544Y-66240990D01*
X112407544Y-66240990D02*
X112359925Y-66288609D01*
X112359925Y-66288609D02*
X112312306Y-66383847D01*
X112312306Y-66383847D02*
X112312306Y-66621942D01*
X112312306Y-66621942D02*
X112359925Y-66717180D01*
X112359925Y-66717180D02*
X112407544Y-66764800D01*
X112407544Y-66764800D02*
X112502782Y-66812419D01*
X112502782Y-66812419D02*
X112740877Y-66812419D01*
X112740877Y-66812419D02*
X112836115Y-66764800D01*
X112836115Y-66764800D02*
X112883734Y-66717180D01*
X112026591Y-65812419D02*
X111693258Y-66812419D01*
X111693258Y-66812419D02*
X111359925Y-65812419D01*
X104403333Y-70107419D02*
X104403333Y-70821704D01*
X104403333Y-70821704D02*
X104450952Y-70964561D01*
X104450952Y-70964561D02*
X104546190Y-71059800D01*
X104546190Y-71059800D02*
X104689047Y-71107419D01*
X104689047Y-71107419D02*
X104784285Y-71107419D01*
X103974761Y-70202657D02*
X103927142Y-70155038D01*
X103927142Y-70155038D02*
X103831904Y-70107419D01*
X103831904Y-70107419D02*
X103593809Y-70107419D01*
X103593809Y-70107419D02*
X103498571Y-70155038D01*
X103498571Y-70155038D02*
X103450952Y-70202657D01*
X103450952Y-70202657D02*
X103403333Y-70297895D01*
X103403333Y-70297895D02*
X103403333Y-70393133D01*
X103403333Y-70393133D02*
X103450952Y-70535990D01*
X103450952Y-70535990D02*
X104022380Y-71107419D01*
X104022380Y-71107419D02*
X103403333Y-71107419D01*
D11*
X94243333Y-64274819D02*
X94243333Y-64989104D01*
X94243333Y-64989104D02*
X94290952Y-65131961D01*
X94290952Y-65131961D02*
X94386190Y-65227200D01*
X94386190Y-65227200D02*
X94529047Y-65274819D01*
X94529047Y-65274819D02*
X94624285Y-65274819D01*
X93243333Y-65274819D02*
X93814761Y-65274819D01*
X93529047Y-65274819D02*
X93529047Y-64274819D01*
X93529047Y-64274819D02*
X93624285Y-64417676D01*
X93624285Y-64417676D02*
X93719523Y-64512914D01*
X93719523Y-64512914D02*
X93814761Y-64560533D01*
X91214700Y-65258571D02*
X91214700Y-66401429D01*
X88174700Y-63838571D02*
X88174700Y-64981429D01*
X88746128Y-64410000D02*
X87603271Y-64410000D01*
X105449580Y-61493333D02*
X105497200Y-61445714D01*
X105497200Y-61445714D02*
X105544819Y-61302857D01*
X105544819Y-61302857D02*
X105544819Y-61207619D01*
X105544819Y-61207619D02*
X105497200Y-61064762D01*
X105497200Y-61064762D02*
X105401961Y-60969524D01*
X105401961Y-60969524D02*
X105306723Y-60921905D01*
X105306723Y-60921905D02*
X105116247Y-60874286D01*
X105116247Y-60874286D02*
X104973390Y-60874286D01*
X104973390Y-60874286D02*
X104782914Y-60921905D01*
X104782914Y-60921905D02*
X104687676Y-60969524D01*
X104687676Y-60969524D02*
X104592438Y-61064762D01*
X104592438Y-61064762D02*
X104544819Y-61207619D01*
X104544819Y-61207619D02*
X104544819Y-61302857D01*
X104544819Y-61302857D02*
X104592438Y-61445714D01*
X104592438Y-61445714D02*
X104640057Y-61493333D01*
X105544819Y-62445714D02*
X105544819Y-61874286D01*
X105544819Y-62160000D02*
X104544819Y-62160000D01*
X104544819Y-62160000D02*
X104687676Y-62064762D01*
X104687676Y-62064762D02*
X104782914Y-61969524D01*
X104782914Y-61969524D02*
X104830533Y-61874286D01*
D12*
X106775000Y-67135000D02*
X107985000Y-67135000D01*
X107985000Y-47165000D02*
X110645000Y-47165000D01*
X107985000Y-50375000D02*
X107985000Y-47165000D01*
X107985000Y-55455000D02*
X107985000Y-51895000D01*
X107985000Y-60535000D02*
X107985000Y-56975000D01*
X107985000Y-65615000D02*
X107985000Y-62055000D01*
X107985000Y-67805000D02*
X107985000Y-67135000D01*
X107985000Y-67805000D02*
X110645000Y-67805000D01*
X110645000Y-47835000D02*
X110645000Y-47165000D01*
X110645000Y-52915000D02*
X110645000Y-49355000D01*
X110645000Y-57995000D02*
X110645000Y-54435000D01*
X110645000Y-63075000D02*
X110645000Y-59515000D01*
X110645000Y-67805000D02*
X110645000Y-64595000D01*
X122015000Y-67140000D02*
X123225000Y-67140000D01*
X123225000Y-47170000D02*
X125885000Y-47170000D01*
X123225000Y-50380000D02*
X123225000Y-47170000D01*
X123225000Y-55460000D02*
X123225000Y-51900000D01*
X123225000Y-60540000D02*
X123225000Y-56980000D01*
X123225000Y-65620000D02*
X123225000Y-62060000D01*
X123225000Y-67810000D02*
X123225000Y-67140000D01*
X123225000Y-67810000D02*
X125885000Y-67810000D01*
X125885000Y-47840000D02*
X125885000Y-47170000D01*
X125885000Y-52920000D02*
X125885000Y-49360000D01*
X125885000Y-58000000D02*
X125885000Y-54440000D01*
X125885000Y-63080000D02*
X125885000Y-59520000D01*
X125885000Y-67810000D02*
X125885000Y-64600000D01*
D10*
X107165000Y-48470000D02*
G75*
G02*
X107065000Y-48470000I-50000J0D01*
G01*
X107065000Y-48470000D02*
G75*
G02*
X107165000Y-48470000I50000J0D01*
G01*
X107265000Y-48470000D02*
G75*
G02*
X106965000Y-48470000I-150000J0D01*
G01*
X106965000Y-48470000D02*
G75*
G02*
X107265000Y-48470000I150000J0D01*
G01*
X102840000Y-71490000D02*
X96380000Y-71490000D01*
X96380000Y-58130000D01*
X102840000Y-58130000D01*
X102840000Y-71490000D01*
D12*
X88390000Y-62840000D02*
X88390000Y-54120000D01*
X89690000Y-64540000D02*
X88390000Y-62840000D01*
X92510000Y-64540000D02*
X89690000Y-64540000D01*
X92510000Y-64540000D02*
X93810000Y-62840000D01*
X93810000Y-54120000D02*
X88390000Y-54120000D01*
X93810000Y-62840000D02*
X93810000Y-54120000D01*
X104580000Y-64486267D02*
X104580000Y-64193733D01*
X105600000Y-64486267D02*
X105600000Y-64193733D01*
%LPC*%
D13*
X110965000Y-48595000D03*
X107665000Y-51135000D03*
X110965000Y-53675000D03*
X107665000Y-56215000D03*
X110965000Y-58755000D03*
X107665000Y-61295000D03*
X110965000Y-63835000D03*
X107665000Y-66375000D03*
X122905000Y-66380000D03*
X126205000Y-63840000D03*
X122905000Y-61300000D03*
X126205000Y-58760000D03*
X122905000Y-56220000D03*
X126205000Y-53680000D03*
X122905000Y-51140000D03*
X126205000Y-48600000D03*
D14*
X99610000Y-68260000D03*
X99610000Y-64760000D03*
X99610000Y-61260000D03*
D15*
X91100000Y-61830000D03*
D16*
X91100000Y-56830000D03*
D17*
X105090000Y-65202500D03*
X105090000Y-63477500D03*
%LPD*%
M02*
