G04 #@! TF.GenerationSoftware,KiCad,Pcbnew,9.0.2-9.0.2-0~ubuntu24.04.1*
G04 #@! TF.CreationDate,2025-06-11T11:14:10+02:00*
G04 #@! TF.ProjectId,Conn_Ruban_Pixels,436f6e6e-5f52-4756-9261-6e5f50697865,rev?*
G04 #@! TF.SameCoordinates,Original*
G04 #@! TF.FileFunction,Copper,L2,Bot*
G04 #@! TF.FilePolarity,Positive*
%FSLAX46Y46*%
G04 Gerber Fmt 4.6, Leading zero omitted, Abs format (unit mm)*
G04 Created by KiCad (PCBNEW 9.0.2-9.0.2-0~ubuntu24.04.1) date 2025-06-11 11:14:10*
%MOMM*%
%LPD*%
G01*
G04 APERTURE LIST*
G04 #@! TA.AperFunction,ComponentPad*
%ADD10C,3.000000*%
G04 #@! TD*
G04 #@! TA.AperFunction,ComponentPad*
%ADD11C,3.600000*%
G04 #@! TD*
G04 #@! TA.AperFunction,ConnectorPad*
%ADD12C,5.600000*%
G04 #@! TD*
G04 #@! TA.AperFunction,ViaPad*
%ADD13C,0.600000*%
G04 #@! TD*
G04 APERTURE END LIST*
D10*
X139500000Y-105000000D03*
X145000000Y-105000000D03*
X150500000Y-105000000D03*
D11*
X156000000Y-94000000D03*
D12*
X156000000Y-94000000D03*
D11*
X134000000Y-94000000D03*
D12*
X134000000Y-94000000D03*
D10*
X141500000Y-94000000D03*
X145000000Y-94000000D03*
X148500000Y-94000000D03*
D13*
X137000000Y-106000000D03*
X143000000Y-108000000D03*
X133000000Y-102000000D03*
X149000000Y-90000000D03*
X151000000Y-94000000D03*
X141000000Y-100000000D03*
X133000000Y-100000000D03*
X133000000Y-106000000D03*
X149000000Y-102000000D03*
X157000000Y-104000000D03*
X131000000Y-92000000D03*
X153000000Y-100000000D03*
X139000000Y-94000000D03*
X151000000Y-90000000D03*
X155000000Y-98000000D03*
X135000000Y-104000000D03*
X137000000Y-100000000D03*
X147000000Y-90000000D03*
X157000000Y-98000000D03*
X149000000Y-96000000D03*
X135000000Y-90000000D03*
X135000000Y-102000000D03*
X151000000Y-102000000D03*
X131000000Y-104000000D03*
X155000000Y-106000000D03*
X137000000Y-92000000D03*
X139000000Y-90000000D03*
X137000000Y-104000000D03*
X149000000Y-98000000D03*
X155000000Y-90000000D03*
X153000000Y-90000000D03*
X159000000Y-102000000D03*
X139000000Y-108000000D03*
X155000000Y-100000000D03*
X159000000Y-104000000D03*
X157000000Y-100000000D03*
X137000000Y-102000000D03*
X157000000Y-108000000D03*
X153000000Y-102000000D03*
X143000000Y-90000000D03*
X159000000Y-92000000D03*
X159000000Y-98000000D03*
X131000000Y-96000000D03*
X157000000Y-90000000D03*
X145000000Y-90000000D03*
X157000000Y-102000000D03*
X135000000Y-98000000D03*
X151000000Y-100000000D03*
X159000000Y-96000000D03*
X155000000Y-102000000D03*
X159000000Y-106000000D03*
X137000000Y-96000000D03*
X159000000Y-100000000D03*
X153000000Y-98000000D03*
X131000000Y-106000000D03*
X131000000Y-100000000D03*
X153000000Y-106000000D03*
X149000000Y-108000000D03*
X153000000Y-108000000D03*
X151000000Y-92000000D03*
X155000000Y-108000000D03*
X141000000Y-108000000D03*
X155000000Y-104000000D03*
X135000000Y-100000000D03*
X145000000Y-108000000D03*
X133000000Y-90000000D03*
X141000000Y-90000000D03*
X149000000Y-92000000D03*
X135000000Y-108000000D03*
X153000000Y-96000000D03*
X137000000Y-90000000D03*
X151000000Y-98000000D03*
X133000000Y-104000000D03*
X137000000Y-98000000D03*
X153000000Y-104000000D03*
X135000000Y-106000000D03*
X131000000Y-102000000D03*
X151000000Y-108000000D03*
X133000000Y-98000000D03*
X149000000Y-100000000D03*
X137000000Y-108000000D03*
X147000000Y-108000000D03*
X157000000Y-106000000D03*
X153000000Y-92000000D03*
X141000000Y-102000000D03*
X133000000Y-108000000D03*
X131000000Y-98000000D03*
X139000000Y-92000000D03*
X141000000Y-98000000D03*
X151000000Y-96000000D03*
G04 #@! TA.AperFunction,Conductor*
G36*
X158004418Y-89500816D02*
G01*
X158204561Y-89515130D01*
X158222063Y-89517647D01*
X158413797Y-89559355D01*
X158430755Y-89564334D01*
X158614609Y-89632909D01*
X158630701Y-89640259D01*
X158802904Y-89734288D01*
X158817784Y-89743849D01*
X158974867Y-89861441D01*
X158988237Y-89873027D01*
X159126972Y-90011762D01*
X159138558Y-90025132D01*
X159256146Y-90182210D01*
X159265711Y-90197095D01*
X159359740Y-90369298D01*
X159367090Y-90385390D01*
X159435662Y-90569236D01*
X159440646Y-90586212D01*
X159482351Y-90777931D01*
X159484869Y-90795442D01*
X159499184Y-90995580D01*
X159499500Y-91004427D01*
X159499500Y-106995572D01*
X159499184Y-107004419D01*
X159484869Y-107204557D01*
X159482351Y-107222068D01*
X159440646Y-107413787D01*
X159435662Y-107430763D01*
X159367090Y-107614609D01*
X159359740Y-107630701D01*
X159265711Y-107802904D01*
X159256146Y-107817789D01*
X159138558Y-107974867D01*
X159126972Y-107988237D01*
X158988237Y-108126972D01*
X158974867Y-108138558D01*
X158817789Y-108256146D01*
X158802904Y-108265711D01*
X158630701Y-108359740D01*
X158614609Y-108367090D01*
X158430763Y-108435662D01*
X158413787Y-108440646D01*
X158222068Y-108482351D01*
X158204557Y-108484869D01*
X158023779Y-108497799D01*
X158004417Y-108499184D01*
X157995572Y-108499500D01*
X132004428Y-108499500D01*
X131995582Y-108499184D01*
X131973622Y-108497613D01*
X131795442Y-108484869D01*
X131777931Y-108482351D01*
X131586212Y-108440646D01*
X131569236Y-108435662D01*
X131385390Y-108367090D01*
X131369298Y-108359740D01*
X131197095Y-108265711D01*
X131182210Y-108256146D01*
X131025132Y-108138558D01*
X131011762Y-108126972D01*
X130873027Y-107988237D01*
X130861441Y-107974867D01*
X130743849Y-107817784D01*
X130734288Y-107802904D01*
X130640259Y-107630701D01*
X130632909Y-107614609D01*
X130572091Y-107451551D01*
X130564334Y-107430755D01*
X130559355Y-107413797D01*
X130517647Y-107222063D01*
X130515130Y-107204556D01*
X130500816Y-107004418D01*
X130500500Y-106995572D01*
X130500500Y-104888549D01*
X137799500Y-104888549D01*
X137799500Y-105111450D01*
X137799501Y-105111466D01*
X137828594Y-105332452D01*
X137828595Y-105332457D01*
X137828596Y-105332463D01*
X137828597Y-105332465D01*
X137886290Y-105547780D01*
X137886293Y-105547790D01*
X137971593Y-105753722D01*
X137971595Y-105753726D01*
X138083052Y-105946774D01*
X138083057Y-105946780D01*
X138083058Y-105946782D01*
X138218751Y-106123622D01*
X138218757Y-106123629D01*
X138376370Y-106281242D01*
X138376376Y-106281247D01*
X138553226Y-106416948D01*
X138746274Y-106528405D01*
X138952219Y-106613710D01*
X139167537Y-106671404D01*
X139388543Y-106700500D01*
X139388550Y-106700500D01*
X139611450Y-106700500D01*
X139611457Y-106700500D01*
X139832463Y-106671404D01*
X140047781Y-106613710D01*
X140253726Y-106528405D01*
X140446774Y-106416948D01*
X140623624Y-106281247D01*
X140781247Y-106123624D01*
X140916948Y-105946774D01*
X141028405Y-105753726D01*
X141113710Y-105547781D01*
X141171404Y-105332463D01*
X141200500Y-105111457D01*
X141200500Y-104888549D01*
X143299500Y-104888549D01*
X143299500Y-105111450D01*
X143299501Y-105111466D01*
X143328594Y-105332452D01*
X143328595Y-105332457D01*
X143328596Y-105332463D01*
X143328597Y-105332465D01*
X143386290Y-105547780D01*
X143386293Y-105547790D01*
X143471593Y-105753722D01*
X143471595Y-105753726D01*
X143583052Y-105946774D01*
X143583057Y-105946780D01*
X143583058Y-105946782D01*
X143718751Y-106123622D01*
X143718757Y-106123629D01*
X143876370Y-106281242D01*
X143876376Y-106281247D01*
X144053226Y-106416948D01*
X144246274Y-106528405D01*
X144452219Y-106613710D01*
X144667537Y-106671404D01*
X144888543Y-106700500D01*
X144888550Y-106700500D01*
X145111450Y-106700500D01*
X145111457Y-106700500D01*
X145332463Y-106671404D01*
X145547781Y-106613710D01*
X145753726Y-106528405D01*
X145946774Y-106416948D01*
X146123624Y-106281247D01*
X146281247Y-106123624D01*
X146416948Y-105946774D01*
X146528405Y-105753726D01*
X146613710Y-105547781D01*
X146671404Y-105332463D01*
X146700500Y-105111457D01*
X146700500Y-104888543D01*
X146671404Y-104667537D01*
X146613710Y-104452219D01*
X146528405Y-104246274D01*
X146416948Y-104053226D01*
X146281247Y-103876376D01*
X146281242Y-103876370D01*
X146123629Y-103718757D01*
X146123622Y-103718751D01*
X145946782Y-103583058D01*
X145946780Y-103583057D01*
X145946774Y-103583052D01*
X145753726Y-103471595D01*
X145753722Y-103471593D01*
X145547790Y-103386293D01*
X145547783Y-103386291D01*
X145547781Y-103386290D01*
X145332463Y-103328596D01*
X145332457Y-103328595D01*
X145332452Y-103328594D01*
X145111466Y-103299501D01*
X145111463Y-103299500D01*
X145111457Y-103299500D01*
X144888543Y-103299500D01*
X144888537Y-103299500D01*
X144888533Y-103299501D01*
X144667547Y-103328594D01*
X144667540Y-103328595D01*
X144667537Y-103328596D01*
X144452219Y-103386290D01*
X144452209Y-103386293D01*
X144246277Y-103471593D01*
X144246273Y-103471595D01*
X144053226Y-103583052D01*
X144053217Y-103583058D01*
X143876377Y-103718751D01*
X143876370Y-103718757D01*
X143718757Y-103876370D01*
X143718751Y-103876377D01*
X143583058Y-104053217D01*
X143583052Y-104053226D01*
X143471595Y-104246273D01*
X143471593Y-104246277D01*
X143386293Y-104452209D01*
X143386290Y-104452219D01*
X143328597Y-104667534D01*
X143328594Y-104667547D01*
X143299501Y-104888533D01*
X143299500Y-104888549D01*
X141200500Y-104888549D01*
X141200500Y-104888543D01*
X141171404Y-104667537D01*
X141113710Y-104452219D01*
X141028405Y-104246274D01*
X140916948Y-104053226D01*
X140781247Y-103876376D01*
X140781242Y-103876370D01*
X140623629Y-103718757D01*
X140623622Y-103718751D01*
X140446782Y-103583058D01*
X140446780Y-103583057D01*
X140446774Y-103583052D01*
X140253726Y-103471595D01*
X140253722Y-103471593D01*
X140047790Y-103386293D01*
X140047783Y-103386291D01*
X140047781Y-103386290D01*
X139832463Y-103328596D01*
X139832457Y-103328595D01*
X139832452Y-103328594D01*
X139611466Y-103299501D01*
X139611463Y-103299500D01*
X139611457Y-103299500D01*
X139388543Y-103299500D01*
X139388537Y-103299500D01*
X139388533Y-103299501D01*
X139167547Y-103328594D01*
X139167540Y-103328595D01*
X139167537Y-103328596D01*
X138952219Y-103386290D01*
X138952209Y-103386293D01*
X138746277Y-103471593D01*
X138746273Y-103471595D01*
X138553226Y-103583052D01*
X138553217Y-103583058D01*
X138376377Y-103718751D01*
X138376370Y-103718757D01*
X138218757Y-103876370D01*
X138218751Y-103876377D01*
X138083058Y-104053217D01*
X138083052Y-104053226D01*
X137971595Y-104246273D01*
X137971593Y-104246277D01*
X137886293Y-104452209D01*
X137886290Y-104452219D01*
X137828597Y-104667534D01*
X137828594Y-104667547D01*
X137799501Y-104888533D01*
X137799500Y-104888549D01*
X130500500Y-104888549D01*
X130500500Y-93888549D01*
X139799500Y-93888549D01*
X139799500Y-94111450D01*
X139799501Y-94111466D01*
X139828594Y-94332452D01*
X139828595Y-94332457D01*
X139828596Y-94332463D01*
X139886290Y-94547780D01*
X139886293Y-94547790D01*
X139971593Y-94753722D01*
X139971595Y-94753726D01*
X140083052Y-94946774D01*
X140083057Y-94946780D01*
X140083058Y-94946782D01*
X140218751Y-95123622D01*
X140218757Y-95123629D01*
X140376370Y-95281242D01*
X140376376Y-95281247D01*
X140553226Y-95416948D01*
X140746274Y-95528405D01*
X140952219Y-95613710D01*
X141167537Y-95671404D01*
X141388543Y-95700500D01*
X141388550Y-95700500D01*
X141611450Y-95700500D01*
X141611457Y-95700500D01*
X141832463Y-95671404D01*
X142047781Y-95613710D01*
X142253726Y-95528405D01*
X142446774Y-95416948D01*
X142623624Y-95281247D01*
X142781247Y-95123624D01*
X142916948Y-94946774D01*
X143028405Y-94753726D01*
X143113710Y-94547781D01*
X143130225Y-94486142D01*
X143166590Y-94426483D01*
X143229437Y-94395954D01*
X143298812Y-94404249D01*
X143352690Y-94448734D01*
X143369773Y-94486141D01*
X143386290Y-94547780D01*
X143386293Y-94547790D01*
X143471593Y-94753722D01*
X143471595Y-94753726D01*
X143583052Y-94946774D01*
X143583057Y-94946780D01*
X143583058Y-94946782D01*
X143718751Y-95123622D01*
X143718757Y-95123629D01*
X143876370Y-95281242D01*
X143876376Y-95281247D01*
X144053226Y-95416948D01*
X144246274Y-95528405D01*
X144452219Y-95613710D01*
X144667537Y-95671404D01*
X144888543Y-95700500D01*
X144888550Y-95700500D01*
X145111450Y-95700500D01*
X145111457Y-95700500D01*
X145332463Y-95671404D01*
X145547781Y-95613710D01*
X145753726Y-95528405D01*
X145946774Y-95416948D01*
X146123624Y-95281247D01*
X146281247Y-95123624D01*
X146416948Y-94946774D01*
X146528405Y-94753726D01*
X146613710Y-94547781D01*
X146671404Y-94332463D01*
X146700500Y-94111457D01*
X146700500Y-93888543D01*
X146671404Y-93667537D01*
X146613710Y-93452219D01*
X146528405Y-93246274D01*
X146416948Y-93053226D01*
X146281247Y-92876376D01*
X146281242Y-92876370D01*
X146123629Y-92718757D01*
X146123622Y-92718751D01*
X145946782Y-92583058D01*
X145946780Y-92583057D01*
X145946774Y-92583052D01*
X145753726Y-92471595D01*
X145753722Y-92471593D01*
X145547790Y-92386293D01*
X145547783Y-92386291D01*
X145547781Y-92386290D01*
X145332463Y-92328596D01*
X145332457Y-92328595D01*
X145332452Y-92328594D01*
X145111466Y-92299501D01*
X145111463Y-92299500D01*
X145111457Y-92299500D01*
X144888543Y-92299500D01*
X144888537Y-92299500D01*
X144888533Y-92299501D01*
X144667547Y-92328594D01*
X144667540Y-92328595D01*
X144667537Y-92328596D01*
X144452219Y-92386290D01*
X144452209Y-92386293D01*
X144246277Y-92471593D01*
X144246273Y-92471595D01*
X144053226Y-92583052D01*
X144053217Y-92583058D01*
X143876377Y-92718751D01*
X143876370Y-92718757D01*
X143718757Y-92876370D01*
X143718751Y-92876377D01*
X143583058Y-93053217D01*
X143583052Y-93053226D01*
X143471595Y-93246273D01*
X143471593Y-93246277D01*
X143386293Y-93452209D01*
X143386291Y-93452216D01*
X143386290Y-93452219D01*
X143369774Y-93513857D01*
X143333410Y-93573516D01*
X143270563Y-93604045D01*
X143201187Y-93595750D01*
X143147309Y-93551265D01*
X143130226Y-93513858D01*
X143113710Y-93452219D01*
X143028405Y-93246274D01*
X142916948Y-93053226D01*
X142781247Y-92876376D01*
X142781242Y-92876370D01*
X142623629Y-92718757D01*
X142623622Y-92718751D01*
X142446782Y-92583058D01*
X142446780Y-92583057D01*
X142446774Y-92583052D01*
X142253726Y-92471595D01*
X142253722Y-92471593D01*
X142047790Y-92386293D01*
X142047783Y-92386291D01*
X142047781Y-92386290D01*
X141832463Y-92328596D01*
X141832457Y-92328595D01*
X141832452Y-92328594D01*
X141611466Y-92299501D01*
X141611463Y-92299500D01*
X141611457Y-92299500D01*
X141388543Y-92299500D01*
X141388537Y-92299500D01*
X141388533Y-92299501D01*
X141167547Y-92328594D01*
X141167540Y-92328595D01*
X141167537Y-92328596D01*
X140952219Y-92386290D01*
X140952209Y-92386293D01*
X140746277Y-92471593D01*
X140746273Y-92471595D01*
X140553226Y-92583052D01*
X140553217Y-92583058D01*
X140376377Y-92718751D01*
X140376370Y-92718757D01*
X140218757Y-92876370D01*
X140218751Y-92876377D01*
X140083058Y-93053217D01*
X140083052Y-93053226D01*
X139971595Y-93246273D01*
X139971593Y-93246277D01*
X139886293Y-93452209D01*
X139886291Y-93452216D01*
X139886290Y-93452219D01*
X139869775Y-93513856D01*
X139828597Y-93667534D01*
X139828594Y-93667547D01*
X139799501Y-93888533D01*
X139799500Y-93888549D01*
X130500500Y-93888549D01*
X130500500Y-91004427D01*
X130500816Y-90995581D01*
X130515130Y-90795443D01*
X130515131Y-90795434D01*
X130517646Y-90777938D01*
X130559356Y-90586199D01*
X130564333Y-90569248D01*
X130632911Y-90385385D01*
X130640259Y-90369298D01*
X130702815Y-90254734D01*
X130734291Y-90197089D01*
X130743845Y-90182221D01*
X130861448Y-90025123D01*
X130873020Y-90011769D01*
X131011769Y-89873020D01*
X131025123Y-89861448D01*
X131182221Y-89743845D01*
X131197089Y-89734291D01*
X131369298Y-89640258D01*
X131385385Y-89632911D01*
X131569248Y-89564333D01*
X131586199Y-89559356D01*
X131777938Y-89517646D01*
X131795436Y-89515130D01*
X131995582Y-89500816D01*
X132004428Y-89500500D01*
X132065892Y-89500500D01*
X157934108Y-89500500D01*
X157995572Y-89500500D01*
X158004418Y-89500816D01*
G37*
G04 #@! TD.AperFunction*
M02*
