%TF.GenerationSoftware,KiCad,Pcbnew,9.0.2-9.0.2-0~ubuntu24.04.1*%
%TF.CreationDate,2025-06-11T11:14:06+02:00*%
%TF.ProjectId,Conn_Ruban_Pixels,436f6e6e-5f52-4756-9261-6e5f50697865,rev?*%
%TF.SameCoordinates,Original*%
%TF.FileFunction,Drillmap*%
%TF.FilePolarity,Positive*%
%FSLAX45Y45*%
G04 Gerber Fmt 4.5, Leading zero omitted, Abs format (unit mm)*
G04 Created by KiCad (PCBNEW 9.0.2-9.0.2-0~ubuntu24.04.1) date 2025-06-11 11:14:06*
%MOMM*%
%LPD*%
G01*
G04 APERTURE LIST*
%ADD10C,0.050000*%
%ADD11C,0.200000*%
G04 APERTURE END LIST*
D10*
X13200000Y-10900000D02*
X15800000Y-10900000D01*
X13000000Y-9100000D02*
G75*
G02*
X13200000Y-8900000I200000J0D01*
G01*
X13200000Y-10900000D02*
G75*
G02*
X13000000Y-10700000I0J200000D01*
G01*
X13000000Y-9100000D02*
X13000000Y-10700000D01*
X15800000Y-8900000D02*
G75*
G02*
X16000000Y-9100000I0J-200000D01*
G01*
X16000000Y-10700000D02*
G75*
G02*
X15800000Y-10900000I-200000J0D01*
G01*
X16000000Y-10700000D02*
X16000000Y-9100000D01*
X15800000Y-8900000D02*
X13200000Y-8900000D01*
D11*
X13258277Y-11213984D02*
X13258277Y-11013984D01*
X13258277Y-11013984D02*
X13305896Y-11013984D01*
X13305896Y-11013984D02*
X13334467Y-11023508D01*
X13334467Y-11023508D02*
X13353515Y-11042555D01*
X13353515Y-11042555D02*
X13363039Y-11061603D01*
X13363039Y-11061603D02*
X13372562Y-11099698D01*
X13372562Y-11099698D02*
X13372562Y-11128270D01*
X13372562Y-11128270D02*
X13363039Y-11166365D01*
X13363039Y-11166365D02*
X13353515Y-11185412D01*
X13353515Y-11185412D02*
X13334467Y-11204460D01*
X13334467Y-11204460D02*
X13305896Y-11213984D01*
X13305896Y-11213984D02*
X13258277Y-11213984D01*
X13458277Y-11213984D02*
X13458277Y-11080650D01*
X13458277Y-11118746D02*
X13467801Y-11099698D01*
X13467801Y-11099698D02*
X13477324Y-11090174D01*
X13477324Y-11090174D02*
X13496372Y-11080650D01*
X13496372Y-11080650D02*
X13515420Y-11080650D01*
X13582086Y-11213984D02*
X13582086Y-11080650D01*
X13582086Y-11013984D02*
X13572562Y-11023508D01*
X13572562Y-11023508D02*
X13582086Y-11033031D01*
X13582086Y-11033031D02*
X13591610Y-11023508D01*
X13591610Y-11023508D02*
X13582086Y-11013984D01*
X13582086Y-11013984D02*
X13582086Y-11033031D01*
X13705896Y-11213984D02*
X13686848Y-11204460D01*
X13686848Y-11204460D02*
X13677324Y-11185412D01*
X13677324Y-11185412D02*
X13677324Y-11013984D01*
X13810658Y-11213984D02*
X13791610Y-11204460D01*
X13791610Y-11204460D02*
X13782086Y-11185412D01*
X13782086Y-11185412D02*
X13782086Y-11013984D01*
X14039229Y-11213984D02*
X14039229Y-11013984D01*
X14039229Y-11013984D02*
X14105896Y-11156841D01*
X14105896Y-11156841D02*
X14172562Y-11013984D01*
X14172562Y-11013984D02*
X14172562Y-11213984D01*
X14353515Y-11213984D02*
X14353515Y-11109222D01*
X14353515Y-11109222D02*
X14343991Y-11090174D01*
X14343991Y-11090174D02*
X14324943Y-11080650D01*
X14324943Y-11080650D02*
X14286848Y-11080650D01*
X14286848Y-11080650D02*
X14267801Y-11090174D01*
X14353515Y-11204460D02*
X14334467Y-11213984D01*
X14334467Y-11213984D02*
X14286848Y-11213984D01*
X14286848Y-11213984D02*
X14267801Y-11204460D01*
X14267801Y-11204460D02*
X14258277Y-11185412D01*
X14258277Y-11185412D02*
X14258277Y-11166365D01*
X14258277Y-11166365D02*
X14267801Y-11147317D01*
X14267801Y-11147317D02*
X14286848Y-11137793D01*
X14286848Y-11137793D02*
X14334467Y-11137793D01*
X14334467Y-11137793D02*
X14353515Y-11128270D01*
X14448753Y-11080650D02*
X14448753Y-11280650D01*
X14448753Y-11090174D02*
X14467801Y-11080650D01*
X14467801Y-11080650D02*
X14505896Y-11080650D01*
X14505896Y-11080650D02*
X14524943Y-11090174D01*
X14524943Y-11090174D02*
X14534467Y-11099698D01*
X14534467Y-11099698D02*
X14543991Y-11118746D01*
X14543991Y-11118746D02*
X14543991Y-11175889D01*
X14543991Y-11175889D02*
X14534467Y-11194936D01*
X14534467Y-11194936D02*
X14524943Y-11204460D01*
X14524943Y-11204460D02*
X14505896Y-11213984D01*
X14505896Y-11213984D02*
X14467801Y-11213984D01*
X14467801Y-11213984D02*
X14448753Y-11204460D01*
X14629705Y-11194936D02*
X14639229Y-11204460D01*
X14639229Y-11204460D02*
X14629705Y-11213984D01*
X14629705Y-11213984D02*
X14620182Y-11204460D01*
X14620182Y-11204460D02*
X14629705Y-11194936D01*
X14629705Y-11194936D02*
X14629705Y-11213984D01*
X14629705Y-11090174D02*
X14639229Y-11099698D01*
X14639229Y-11099698D02*
X14629705Y-11109222D01*
X14629705Y-11109222D02*
X14620182Y-11099698D01*
X14620182Y-11099698D02*
X14629705Y-11090174D01*
X14629705Y-11090174D02*
X14629705Y-11109222D01*
M02*
