G04 #@! TF.GenerationSoftware,KiCad,Pcbnew,9.0.2-9.0.2-0~ubuntu24.04.1*
G04 #@! TF.CreationDate,2025-06-11T11:14:10+02:00*
G04 #@! TF.ProjectId,Conn_Ruban_Pixels,436f6e6e-5f52-4756-9261-6e5f50697865,rev?*
G04 #@! TF.SameCoordinates,Original*
G04 #@! TF.FileFunction,Legend,Bot*
G04 #@! TF.FilePolarity,Positive*
%FSLAX46Y46*%
G04 Gerber Fmt 4.6, Leading zero omitted, Abs format (unit mm)*
G04 Created by KiCad (PCBNEW 9.0.2-9.0.2-0~ubuntu24.04.1) date 2025-06-11 11:14:10*
%MOMM*%
%LPD*%
G01*
G04 APERTURE LIST*
%ADD10C,0.100000*%
%ADD11C,0.000000*%
%ADD12C,3.000000*%
%ADD13C,3.600000*%
%ADD14C,5.600000*%
G04 APERTURE END LIST*
D10*
X138002580Y-91683333D02*
X137288295Y-91683333D01*
X137288295Y-91683333D02*
X137145438Y-91730952D01*
X137145438Y-91730952D02*
X137050200Y-91826190D01*
X137050200Y-91826190D02*
X137002580Y-91969047D01*
X137002580Y-91969047D02*
X137002580Y-92064285D01*
X137907342Y-91254761D02*
X137954961Y-91207142D01*
X137954961Y-91207142D02*
X138002580Y-91111904D01*
X138002580Y-91111904D02*
X138002580Y-90873809D01*
X138002580Y-90873809D02*
X137954961Y-90778571D01*
X137954961Y-90778571D02*
X137907342Y-90730952D01*
X137907342Y-90730952D02*
X137812104Y-90683333D01*
X137812104Y-90683333D02*
X137716866Y-90683333D01*
X137716866Y-90683333D02*
X137574009Y-90730952D01*
X137574009Y-90730952D02*
X137002580Y-91302380D01*
X137002580Y-91302380D02*
X137002580Y-90683333D01*
D11*
G36*
X131458681Y-101068998D02*
G01*
X131448681Y-101078998D01*
X131438681Y-101068998D01*
X131448681Y-101058998D01*
X131458681Y-101068998D01*
G37*
G36*
X131509837Y-101059897D02*
G01*
X131528681Y-101078998D01*
X131532407Y-101086079D01*
X131531042Y-101098998D01*
X131527526Y-101098098D01*
X131508681Y-101078998D01*
X131504956Y-101071916D01*
X131506321Y-101058998D01*
X131509837Y-101059897D01*
G37*
G36*
X133829837Y-101459897D02*
G01*
X133848681Y-101478998D01*
X133852407Y-101486079D01*
X133851042Y-101498998D01*
X133847526Y-101498098D01*
X133828681Y-101478998D01*
X133824956Y-101471916D01*
X133826321Y-101458998D01*
X133829837Y-101459897D01*
G37*
G36*
X134543681Y-101216446D02*
G01*
X134565014Y-101234752D01*
X134578681Y-101251446D01*
X134578353Y-101254956D01*
X134565323Y-101255091D01*
X134536130Y-101223998D01*
X134524958Y-101209506D01*
X134519992Y-101199149D01*
X134543681Y-101216446D01*
G37*
G36*
X131557150Y-101270685D02*
G01*
X131590582Y-101301908D01*
X131614903Y-101330166D01*
X131614470Y-101336408D01*
X131584795Y-101321800D01*
X131575186Y-101316471D01*
X131539760Y-101290437D01*
X131523800Y-101268331D01*
X131534401Y-101258998D01*
X131557150Y-101270685D01*
G37*
G36*
X134844516Y-102001443D02*
G01*
X134871906Y-102027291D01*
X134871081Y-102069955D01*
X134862566Y-102085928D01*
X134834848Y-102096850D01*
X134799409Y-102069874D01*
X134786935Y-102046279D01*
X134793658Y-102013188D01*
X134828681Y-101998998D01*
X134844516Y-102001443D01*
G37*
G36*
X131936054Y-102147798D02*
G01*
X131936240Y-102147985D01*
X131954694Y-102177407D01*
X131939515Y-102207994D01*
X131920380Y-102227832D01*
X131890426Y-102235712D01*
X131856885Y-102206833D01*
X131849939Y-102197941D01*
X131842852Y-102172394D01*
X131868527Y-102146638D01*
X131878815Y-102139423D01*
X131908454Y-102129040D01*
X131936054Y-102147798D01*
G37*
G36*
X134173277Y-101227647D02*
G01*
X134217573Y-101260672D01*
X134254647Y-101292069D01*
X134295303Y-101331045D01*
X134314240Y-101355672D01*
X134316959Y-101368899D01*
X134306127Y-101378479D01*
X134277157Y-101362647D01*
X134236423Y-101323998D01*
X134207876Y-101291879D01*
X134168626Y-101243914D01*
X134157027Y-101222282D01*
X134173277Y-101227647D01*
G37*
G36*
X133560566Y-100839000D02*
G01*
X133571027Y-100856736D01*
X133577067Y-100899211D01*
X133578322Y-100951517D01*
X133574426Y-100998748D01*
X133565015Y-101025998D01*
X133558230Y-101029858D01*
X133532933Y-101021249D01*
X133525061Y-100996929D01*
X133525294Y-100950623D01*
X133532797Y-100898737D01*
X133545276Y-100856464D01*
X133560439Y-100838998D01*
X133560566Y-100839000D01*
G37*
G36*
X135467882Y-100939245D02*
G01*
X135485908Y-100957936D01*
X135514199Y-100997338D01*
X135544557Y-101044730D01*
X135568784Y-101087391D01*
X135578681Y-101112600D01*
X135578652Y-101113735D01*
X135568946Y-101114692D01*
X135542498Y-101081051D01*
X135500251Y-101013998D01*
X135487773Y-100992306D01*
X135469005Y-100954116D01*
X135466799Y-100938998D01*
X135467882Y-100939245D01*
G37*
G36*
X134263975Y-101227610D02*
G01*
X134300436Y-101257219D01*
X134346050Y-101298907D01*
X134390904Y-101343185D01*
X134425085Y-101380561D01*
X134438681Y-101401545D01*
X134435618Y-101415329D01*
X134417117Y-101413857D01*
X134380109Y-101382222D01*
X134322572Y-101318988D01*
X134322405Y-101318793D01*
X134280699Y-101268518D01*
X134253977Y-101232669D01*
X134248019Y-101218998D01*
X134263975Y-101227610D01*
G37*
G36*
X135404961Y-102873237D02*
G01*
X135430784Y-102907822D01*
X135461023Y-102953873D01*
X135490143Y-103003998D01*
X135492157Y-103007833D01*
X135505392Y-103044095D01*
X135499834Y-103058998D01*
X135499287Y-103058978D01*
X135476125Y-103042348D01*
X135448590Y-103003998D01*
X135448028Y-103003013D01*
X135427418Y-102968111D01*
X135422741Y-102967099D01*
X135430435Y-102998998D01*
X135435194Y-103029356D01*
X135427958Y-103034123D01*
X135416373Y-103010022D01*
X135407950Y-102964123D01*
X135401934Y-102920310D01*
X135389048Y-102868998D01*
X135388701Y-102868029D01*
X135389088Y-102857509D01*
X135404961Y-102873237D01*
G37*
G36*
X133357701Y-102109021D02*
G01*
X133477967Y-102110606D01*
X133564425Y-102115677D01*
X133622401Y-102125627D01*
X133657218Y-102141848D01*
X133674203Y-102165733D01*
X133678681Y-102198675D01*
X133677036Y-102219460D01*
X133655337Y-102263826D01*
X133604301Y-102296466D01*
X133518681Y-102321406D01*
X133469869Y-102327167D01*
X133395088Y-102329218D01*
X133307809Y-102327479D01*
X133218531Y-102322544D01*
X133137753Y-102315008D01*
X133075970Y-102305465D01*
X133043681Y-102294509D01*
X133040802Y-102291998D01*
X133020296Y-102249140D01*
X133027542Y-102195790D01*
X133060781Y-102147097D01*
X133082989Y-102131069D01*
X133114247Y-102119748D01*
X133161460Y-102113036D01*
X133232635Y-102109822D01*
X133335781Y-102108998D01*
X133357701Y-102109021D01*
G37*
G36*
X133032025Y-100819465D02*
G01*
X133090837Y-100838513D01*
X133141430Y-100878996D01*
X133178908Y-100932018D01*
X133198374Y-100988688D01*
X133194931Y-101040112D01*
X133163681Y-101077396D01*
X133126914Y-101092137D01*
X133052065Y-101094908D01*
X132983132Y-101067863D01*
X132947585Y-101031943D01*
X132943347Y-100992800D01*
X132977367Y-100959701D01*
X133023510Y-100941181D01*
X133050677Y-100949948D01*
X133058681Y-100990464D01*
X133066255Y-101028655D01*
X133092024Y-101035464D01*
X133108999Y-101029649D01*
X133132563Y-101007380D01*
X133132928Y-101006172D01*
X133124936Y-100970486D01*
X133092607Y-100928268D01*
X133046772Y-100890685D01*
X132998263Y-100868906D01*
X132965529Y-100858091D01*
X132950555Y-100840382D01*
X132970108Y-100825346D01*
X133021400Y-100818998D01*
X133032025Y-100819465D01*
G37*
G36*
X133277051Y-100842675D02*
G01*
X133307944Y-100890268D01*
X133314014Y-100902760D01*
X133335947Y-100942838D01*
X133349106Y-100958998D01*
X133350392Y-100958532D01*
X133366299Y-100938080D01*
X133389870Y-100896699D01*
X133409961Y-100864533D01*
X133433369Y-100852331D01*
X133452734Y-100878562D01*
X133469351Y-100943998D01*
X133474894Y-100981717D01*
X133471392Y-101011289D01*
X133452088Y-101018998D01*
X133437463Y-101016905D01*
X133407774Y-100997529D01*
X133392356Y-100991920D01*
X133365459Y-101017529D01*
X133340518Y-101047163D01*
X133315605Y-101054179D01*
X133290485Y-101028167D01*
X133259617Y-100966455D01*
X133257019Y-100960572D01*
X133230940Y-100898482D01*
X133221157Y-100862577D01*
X133226802Y-100843630D01*
X133247006Y-100832408D01*
X133248095Y-100832024D01*
X133277051Y-100842675D01*
G37*
G36*
X133926446Y-102234705D02*
G01*
X133924449Y-102326436D01*
X133920348Y-102432313D01*
X133914942Y-102516854D01*
X133908652Y-102573836D01*
X133901900Y-102597039D01*
X133878631Y-102599946D01*
X133820529Y-102602254D01*
X133733164Y-102603812D01*
X133621977Y-102604557D01*
X133492409Y-102604426D01*
X133349902Y-102603357D01*
X132817205Y-102597717D01*
X132797943Y-102547055D01*
X132793333Y-102528998D01*
X132828681Y-102528998D01*
X133343674Y-102528998D01*
X133858666Y-102528998D01*
X133859394Y-102408998D01*
X133859854Y-102386699D01*
X133864707Y-102301100D01*
X133873646Y-102199374D01*
X133885214Y-102098998D01*
X133910307Y-101908998D01*
X133380205Y-101914953D01*
X133242184Y-101916647D01*
X133114466Y-101918499D01*
X133005724Y-101920371D01*
X132921213Y-101922162D01*
X132866189Y-101923773D01*
X132845908Y-101925104D01*
X132845064Y-101930568D01*
X132842914Y-101968032D01*
X132840388Y-102034979D01*
X132837733Y-102124365D01*
X132835197Y-102229148D01*
X132828681Y-102528998D01*
X132793333Y-102528998D01*
X132792273Y-102524848D01*
X132784811Y-102462629D01*
X132780118Y-102377621D01*
X132778101Y-102278785D01*
X132778665Y-102175083D01*
X132781715Y-102075478D01*
X132787159Y-101988931D01*
X132794901Y-101924404D01*
X132804846Y-101890860D01*
X132809167Y-101885522D01*
X132821210Y-101876195D01*
X132841053Y-101869305D01*
X132873293Y-101864684D01*
X132922527Y-101862163D01*
X132993353Y-101861573D01*
X133090368Y-101862746D01*
X133218168Y-101865512D01*
X133381352Y-101869703D01*
X133931692Y-101884329D01*
X133931323Y-101908998D01*
X133926446Y-102234705D01*
G37*
G36*
X131247086Y-98031912D02*
G01*
X131380178Y-98070267D01*
X131421431Y-98083726D01*
X131525651Y-98108826D01*
X131602453Y-98112335D01*
X131614544Y-98111015D01*
X131671352Y-98114589D01*
X131710553Y-98141065D01*
X131714100Y-98144958D01*
X131725665Y-98158839D01*
X131730961Y-98172666D01*
X131726966Y-98189687D01*
X131710657Y-98213151D01*
X131679010Y-98246307D01*
X131629004Y-98292405D01*
X131557614Y-98354692D01*
X131461818Y-98436418D01*
X131338594Y-98540831D01*
X131000951Y-98826813D01*
X131057045Y-98860926D01*
X131116543Y-98910090D01*
X131179633Y-98996982D01*
X131222728Y-99099096D01*
X131238681Y-99202975D01*
X131228320Y-99267816D01*
X131190589Y-99347819D01*
X131134346Y-99407783D01*
X131092993Y-99429276D01*
X131015030Y-99439000D01*
X130934424Y-99417447D01*
X130857261Y-99368935D01*
X130789628Y-99297781D01*
X130737609Y-99208303D01*
X130707293Y-99104819D01*
X130701319Y-99055766D01*
X130702487Y-99006736D01*
X130715238Y-98960211D01*
X130742868Y-98911631D01*
X130788670Y-98856439D01*
X130855937Y-98790075D01*
X130947965Y-98707983D01*
X131068047Y-98605604D01*
X131395133Y-98329718D01*
X131274473Y-98284358D01*
X131226745Y-98267720D01*
X131115406Y-98243079D01*
X131019335Y-98246787D01*
X130929275Y-98278695D01*
X130907592Y-98289200D01*
X130863742Y-98306466D01*
X130841916Y-98308899D01*
X130840998Y-98307787D01*
X130842320Y-98279824D01*
X130862197Y-98232231D01*
X130894600Y-98175642D01*
X130933498Y-98120691D01*
X130972859Y-98078012D01*
X130983101Y-98069470D01*
X131053619Y-98031418D01*
X131139923Y-98018930D01*
X131247086Y-98031912D01*
G37*
G36*
X134002360Y-100861840D02*
G01*
X134010136Y-100927480D01*
X134012034Y-100960774D01*
X134012857Y-100975214D01*
X134010819Y-101020123D01*
X133998717Y-101044132D01*
X133973402Y-101058478D01*
X133959079Y-101064135D01*
X133917774Y-101075262D01*
X133886891Y-101065266D01*
X133847772Y-101029907D01*
X133840889Y-101023211D01*
X133809951Y-101000467D01*
X133798681Y-101007806D01*
X133790269Y-101020024D01*
X133754133Y-101035065D01*
X133702993Y-101044452D01*
X133651726Y-101045832D01*
X133615206Y-101036849D01*
X133605344Y-101028425D01*
X133604824Y-101005824D01*
X133632378Y-100986919D01*
X133679862Y-100978998D01*
X133691789Y-100978881D01*
X133723452Y-100973122D01*
X133728582Y-100963998D01*
X133863581Y-100963998D01*
X133869051Y-100974214D01*
X133900811Y-100992606D01*
X133939750Y-100991623D01*
X133965508Y-100970055D01*
X133968145Y-100960774D01*
X133958306Y-100943690D01*
X133916387Y-100938998D01*
X133873964Y-100944936D01*
X133863581Y-100963998D01*
X133728582Y-100963998D01*
X133736277Y-100950311D01*
X133738681Y-100898998D01*
X133742881Y-100848141D01*
X133755579Y-100821907D01*
X133772427Y-100832061D01*
X133788960Y-100880266D01*
X133798767Y-100917839D01*
X133810228Y-100926658D01*
X133829913Y-100905266D01*
X133845830Y-100878096D01*
X133855243Y-100844409D01*
X133902975Y-100844409D01*
X133918681Y-100858998D01*
X133929664Y-100865695D01*
X133966091Y-100877608D01*
X133978681Y-100858998D01*
X133968796Y-100846593D01*
X133933681Y-100839304D01*
X133922839Y-100839526D01*
X133902975Y-100844409D01*
X133855243Y-100844409D01*
X133858045Y-100834379D01*
X133867828Y-100812279D01*
X133902971Y-100789820D01*
X133946955Y-100781856D01*
X133981880Y-100794196D01*
X133990760Y-100812094D01*
X134001697Y-100858998D01*
X134002360Y-100861840D01*
G37*
G36*
X134468681Y-97667396D02*
G01*
X134471502Y-97669351D01*
X134502665Y-97713228D01*
X134520402Y-97791319D01*
X134521327Y-97798196D01*
X134536794Y-97868417D01*
X134563202Y-97955537D01*
X134595402Y-98042329D01*
X134613172Y-98087322D01*
X134648446Y-98204489D01*
X134655671Y-98299466D01*
X134633601Y-98378159D01*
X134580989Y-98446475D01*
X134496588Y-98510319D01*
X134490523Y-98514130D01*
X134431650Y-98547574D01*
X134400602Y-98555127D01*
X134394310Y-98536060D01*
X134409702Y-98489640D01*
X134411356Y-98485619D01*
X134436391Y-98379508D01*
X134426530Y-98266574D01*
X134381321Y-98141301D01*
X134374953Y-98127534D01*
X134357680Y-98088553D01*
X134343317Y-98060919D01*
X134328503Y-98047216D01*
X134309880Y-98050029D01*
X134284087Y-98071943D01*
X134247763Y-98115541D01*
X134197550Y-98183408D01*
X134130086Y-98278129D01*
X134042012Y-98402288D01*
X133991738Y-98472209D01*
X133908790Y-98583313D01*
X133844190Y-98663020D01*
X133796383Y-98713197D01*
X133763811Y-98735709D01*
X133692389Y-98754246D01*
X133595276Y-98757175D01*
X133503228Y-98737590D01*
X133419788Y-98699689D01*
X133348500Y-98647674D01*
X133292910Y-98585744D01*
X133256562Y-98518099D01*
X133243000Y-98448940D01*
X133255769Y-98382466D01*
X133298413Y-98322877D01*
X133374476Y-98274374D01*
X133400394Y-98263626D01*
X133475233Y-98245120D01*
X133555935Y-98249039D01*
X133615060Y-98259717D01*
X133674953Y-98279419D01*
X133729767Y-98312932D01*
X133795451Y-98368189D01*
X133868681Y-98434078D01*
X134148681Y-98037615D01*
X134234439Y-97916544D01*
X134302913Y-97821215D01*
X134354602Y-97751715D01*
X134392575Y-97704494D01*
X134419901Y-97676001D01*
X134439649Y-97662687D01*
X134454886Y-97661002D01*
X134468681Y-97667396D01*
G37*
G36*
X135619136Y-98439042D02*
G01*
X135622117Y-98443949D01*
X135643025Y-98479507D01*
X135680328Y-98543576D01*
X135731394Y-98631612D01*
X135793588Y-98739073D01*
X135864280Y-98861419D01*
X135940836Y-98994105D01*
X136243596Y-99519212D01*
X136323347Y-99447162D01*
X136347247Y-99426386D01*
X136445701Y-99360398D01*
X136551756Y-99324433D01*
X136678987Y-99313384D01*
X136781447Y-99322271D01*
X136888127Y-99356785D01*
X136969164Y-99414522D01*
X137020651Y-99492500D01*
X137038681Y-99587741D01*
X137023803Y-99677790D01*
X136974238Y-99772933D01*
X136895348Y-99855168D01*
X136792773Y-99918793D01*
X136672153Y-99958110D01*
X136654215Y-99961568D01*
X136595972Y-99971668D01*
X136556860Y-99976806D01*
X136545358Y-99976907D01*
X136482641Y-99966005D01*
X136407328Y-99941636D01*
X136336495Y-99910083D01*
X136287222Y-99877626D01*
X136266713Y-99851272D01*
X136228942Y-99794208D01*
X136177722Y-99712157D01*
X136116178Y-99610223D01*
X136047434Y-99493510D01*
X135974617Y-99367119D01*
X135973561Y-99365267D01*
X135902953Y-99241988D01*
X135838713Y-99130982D01*
X135783502Y-99036759D01*
X135739984Y-98963828D01*
X135710823Y-98916700D01*
X135698681Y-98899883D01*
X135686750Y-98910406D01*
X135666395Y-98944154D01*
X135664952Y-98947041D01*
X135643088Y-98989509D01*
X135609696Y-99053189D01*
X135571395Y-99125451D01*
X135563499Y-99140446D01*
X135521073Y-99234368D01*
X135502482Y-99315018D01*
X135506036Y-99397606D01*
X135530042Y-99497340D01*
X135542083Y-99540940D01*
X135552571Y-99589041D01*
X135553343Y-99611003D01*
X135547507Y-99612612D01*
X135516793Y-99599459D01*
X135469830Y-99567082D01*
X135414827Y-99522400D01*
X135359996Y-99472332D01*
X135313544Y-99423798D01*
X135283681Y-99383718D01*
X135256227Y-99326735D01*
X135239381Y-99261357D01*
X135240315Y-99191095D01*
X135260115Y-99108839D01*
X135299868Y-99007479D01*
X135360661Y-98879905D01*
X135409450Y-98780428D01*
X135444937Y-98701397D01*
X135465973Y-98642970D01*
X135475184Y-98597773D01*
X135475200Y-98558431D01*
X135474886Y-98555089D01*
X135474239Y-98503361D01*
X135490907Y-98472439D01*
X135533977Y-98444747D01*
X135576292Y-98424200D01*
X135602048Y-98421660D01*
X135619136Y-98439042D01*
G37*
G36*
X132457592Y-101895649D02*
G01*
X132487724Y-102023780D01*
X132489600Y-102045664D01*
X132498681Y-102151603D01*
X132498165Y-102170931D01*
X132497238Y-102205634D01*
X132487807Y-102272700D01*
X132465730Y-102340083D01*
X132443051Y-102388998D01*
X132426592Y-102424497D01*
X132394124Y-102485962D01*
X132317176Y-102601669D01*
X132232149Y-102685376D01*
X132132531Y-102742651D01*
X132011807Y-102779062D01*
X131943801Y-102788840D01*
X131811730Y-102787518D01*
X131678289Y-102763861D01*
X131553471Y-102720833D01*
X131447270Y-102661401D01*
X131369680Y-102588529D01*
X131356283Y-102570494D01*
X131274531Y-102427532D01*
X131263499Y-102388998D01*
X131478681Y-102388998D01*
X131488681Y-102398998D01*
X131498681Y-102388998D01*
X131488681Y-102378998D01*
X131478681Y-102388998D01*
X131263499Y-102388998D01*
X131231525Y-102277315D01*
X131231285Y-102268998D01*
X131678681Y-102268998D01*
X131688681Y-102278998D01*
X131698681Y-102268998D01*
X131688681Y-102258998D01*
X131678681Y-102268998D01*
X131231285Y-102268998D01*
X131228158Y-102160711D01*
X131779257Y-102160711D01*
X131788570Y-102220619D01*
X131815256Y-102265898D01*
X131819290Y-102268998D01*
X131830100Y-102277305D01*
X131888034Y-102294756D01*
X131947502Y-102280798D01*
X131998011Y-102239831D01*
X132029071Y-102176254D01*
X132030292Y-102170931D01*
X132028934Y-102126060D01*
X131995833Y-102091254D01*
X131971058Y-102077570D01*
X131908732Y-102061421D01*
X131846827Y-102062983D01*
X131802682Y-102082998D01*
X131788628Y-102105212D01*
X131779257Y-102160711D01*
X131228158Y-102160711D01*
X131226919Y-102117813D01*
X131239868Y-102051680D01*
X131422219Y-102051680D01*
X131438681Y-102058998D01*
X131449269Y-102057554D01*
X131452015Y-102045664D01*
X131449083Y-102043271D01*
X131425348Y-102045664D01*
X131422219Y-102051680D01*
X131239868Y-102051680D01*
X131260366Y-101946994D01*
X131283111Y-101875641D01*
X131285962Y-101868998D01*
X132298681Y-101868998D01*
X132308681Y-101878998D01*
X132318681Y-101868998D01*
X132308681Y-101858998D01*
X132298681Y-101868998D01*
X131285962Y-101868998D01*
X131312335Y-101807543D01*
X131349155Y-101752656D01*
X131401881Y-101696261D01*
X131446108Y-101654877D01*
X131539359Y-101583919D01*
X131634462Y-101539124D01*
X131743533Y-101515736D01*
X131878681Y-101508998D01*
X131926367Y-101509244D01*
X132007788Y-101512381D01*
X132068804Y-101521112D01*
X132122828Y-101537915D01*
X132183273Y-101565269D01*
X132234876Y-101594373D01*
X132306188Y-101645290D01*
X132358866Y-101695269D01*
X132412399Y-101780635D01*
X132447120Y-101868998D01*
X132457592Y-101895649D01*
G37*
G36*
X135487626Y-101851407D02*
G01*
X135513191Y-101969378D01*
X135513082Y-102048998D01*
X135512998Y-102110481D01*
X135510431Y-102139347D01*
X135496837Y-102208998D01*
X135489030Y-102248998D01*
X135481828Y-102285897D01*
X135480452Y-102288998D01*
X135467135Y-102318998D01*
X135431623Y-102398998D01*
X135426105Y-102411428D01*
X135382450Y-102468998D01*
X135367284Y-102488998D01*
X135338834Y-102526516D01*
X135312893Y-102548998D01*
X135231416Y-102619609D01*
X135181147Y-102645664D01*
X135099052Y-102688215D01*
X134938681Y-102732371D01*
X134839250Y-102745051D01*
X134678069Y-102738965D01*
X134530973Y-102698945D01*
X134448040Y-102651680D01*
X134842219Y-102651680D01*
X134858681Y-102658998D01*
X134869269Y-102657554D01*
X134872015Y-102645664D01*
X134869083Y-102643271D01*
X134845348Y-102645664D01*
X134842219Y-102651680D01*
X134448040Y-102651680D01*
X134402951Y-102625983D01*
X134402804Y-102625871D01*
X134327120Y-102548998D01*
X135098681Y-102548998D01*
X135108681Y-102558998D01*
X135118681Y-102548998D01*
X135108681Y-102538998D01*
X135098681Y-102548998D01*
X134327120Y-102548998D01*
X134318481Y-102540223D01*
X134285969Y-102488998D01*
X134918681Y-102488998D01*
X134928681Y-102498998D01*
X134938681Y-102488998D01*
X134928681Y-102478998D01*
X134918681Y-102488998D01*
X134285969Y-102488998D01*
X134273275Y-102468998D01*
X134618681Y-102468998D01*
X134628681Y-102478998D01*
X134638681Y-102468998D01*
X134628681Y-102458998D01*
X134618681Y-102468998D01*
X134273275Y-102468998D01*
X134245317Y-102424948D01*
X134234213Y-102398998D01*
X135038681Y-102398998D01*
X135039495Y-102404479D01*
X135059862Y-102418998D01*
X135067096Y-102417427D01*
X135068681Y-102398998D01*
X135064577Y-102393012D01*
X135047501Y-102378998D01*
X135045505Y-102379517D01*
X135038681Y-102398998D01*
X134234213Y-102398998D01*
X134195531Y-102308596D01*
X135342955Y-102308596D01*
X135345348Y-102332331D01*
X135351364Y-102335460D01*
X135358681Y-102318998D01*
X135357238Y-102308410D01*
X135345348Y-102305664D01*
X135342955Y-102308596D01*
X134195531Y-102308596D01*
X134187483Y-102289787D01*
X134187275Y-102288998D01*
X135218681Y-102288998D01*
X135228681Y-102298998D01*
X135238681Y-102288998D01*
X135228681Y-102278998D01*
X135218681Y-102288998D01*
X134187275Y-102288998D01*
X134176722Y-102248998D01*
X135118681Y-102248998D01*
X135128681Y-102258998D01*
X135138681Y-102248998D01*
X135128681Y-102238998D01*
X135118681Y-102248998D01*
X134176722Y-102248998D01*
X134166169Y-102208998D01*
X135318681Y-102208998D01*
X135328681Y-102218998D01*
X135338681Y-102208998D01*
X135328681Y-102198998D01*
X135318681Y-102208998D01*
X134166169Y-102208998D01*
X134149148Y-102144481D01*
X134141829Y-102071768D01*
X134721689Y-102071768D01*
X134742681Y-102114998D01*
X134781106Y-102135112D01*
X134834738Y-102134883D01*
X134877678Y-102110207D01*
X134885690Y-102097641D01*
X134894980Y-102048998D01*
X135438681Y-102048998D01*
X135448681Y-102058998D01*
X135458681Y-102048998D01*
X135448681Y-102038998D01*
X135441841Y-102045838D01*
X135438681Y-102048998D01*
X134894980Y-102048998D01*
X134895584Y-102045838D01*
X134884652Y-101990699D01*
X134855701Y-101952391D01*
X134837109Y-101944314D01*
X134792655Y-101948770D01*
X134753830Y-101978360D01*
X134727790Y-102022790D01*
X134721689Y-102071768D01*
X134141829Y-102071768D01*
X134134482Y-101998774D01*
X134135940Y-101950018D01*
X134163399Y-101816916D01*
X134188447Y-101768998D01*
X135018681Y-101768998D01*
X135028681Y-101778998D01*
X135038681Y-101768998D01*
X135028681Y-101758998D01*
X135018681Y-101768998D01*
X134188447Y-101768998D01*
X134226916Y-101695406D01*
X134328389Y-101581403D01*
X134364825Y-101549473D01*
X134496312Y-101461563D01*
X134637885Y-101409932D01*
X134796681Y-101391690D01*
X134802802Y-101391604D01*
X134886168Y-101392745D01*
X134949380Y-101401582D01*
X135010636Y-101422331D01*
X135088133Y-101459209D01*
X135167498Y-101505730D01*
X135260686Y-101571929D01*
X135339267Y-101638998D01*
X135344046Y-101643674D01*
X135432509Y-101746272D01*
X135444423Y-101768998D01*
X135487626Y-101851407D01*
G37*
G36*
X133633901Y-102778998D02*
G01*
X133634259Y-102784500D01*
X133634130Y-102788998D01*
X133632727Y-102837797D01*
X133632410Y-102838998D01*
X133623517Y-102872709D01*
X133605997Y-102881801D01*
X133552019Y-102893677D01*
X133467653Y-102904972D01*
X133358297Y-102914830D01*
X133353644Y-102915174D01*
X133255405Y-102922444D01*
X133169981Y-102928808D01*
X133106398Y-102933591D01*
X133073681Y-102936119D01*
X133054968Y-102934354D01*
X133038681Y-102917817D01*
X133036904Y-102910357D01*
X133017959Y-102909444D01*
X133011990Y-102910610D01*
X133004150Y-102886900D01*
X133006754Y-102825625D01*
X133008382Y-102808998D01*
X133098681Y-102808998D01*
X133108681Y-102818998D01*
X133118681Y-102808998D01*
X133108681Y-102798998D01*
X133098681Y-102808998D01*
X133008382Y-102808998D01*
X133009881Y-102793696D01*
X133012259Y-102768998D01*
X133078681Y-102768998D01*
X133088681Y-102778998D01*
X133098681Y-102768998D01*
X133118681Y-102768998D01*
X133128681Y-102778998D01*
X133130556Y-102777123D01*
X133169853Y-102777123D01*
X133187446Y-102808998D01*
X133188252Y-102810458D01*
X133207815Y-102831054D01*
X133217739Y-102828998D01*
X133258681Y-102828998D01*
X133268681Y-102838998D01*
X133278681Y-102828998D01*
X133268681Y-102818998D01*
X133258681Y-102828998D01*
X133217739Y-102828998D01*
X133217483Y-102823744D01*
X133206360Y-102791508D01*
X133186836Y-102765358D01*
X133169976Y-102761037D01*
X133169915Y-102768998D01*
X133169853Y-102777123D01*
X133130556Y-102777123D01*
X133138681Y-102768998D01*
X133129983Y-102760300D01*
X133223585Y-102760300D01*
X133228681Y-102778998D01*
X133232790Y-102784918D01*
X133251042Y-102798998D01*
X133253778Y-102797695D01*
X133251407Y-102788998D01*
X133298681Y-102788998D01*
X133307378Y-102797695D01*
X133308681Y-102798998D01*
X133318681Y-102788998D01*
X133308681Y-102778998D01*
X133298681Y-102788998D01*
X133251407Y-102788998D01*
X133248681Y-102778998D01*
X133244573Y-102773077D01*
X133238088Y-102768075D01*
X133385807Y-102768075D01*
X133394518Y-102788998D01*
X133398681Y-102798998D01*
X133414026Y-102823666D01*
X133419612Y-102828998D01*
X133430089Y-102838998D01*
X133431556Y-102829920D01*
X133418681Y-102798998D01*
X133403337Y-102774329D01*
X133396784Y-102768075D01*
X133445807Y-102768075D01*
X133458681Y-102798998D01*
X133474026Y-102823666D01*
X133480578Y-102829920D01*
X133490089Y-102838998D01*
X133491556Y-102829920D01*
X133478681Y-102798998D01*
X133463337Y-102774329D01*
X133447274Y-102758998D01*
X133445807Y-102768075D01*
X133396784Y-102768075D01*
X133387274Y-102758998D01*
X133385807Y-102768075D01*
X133238088Y-102768075D01*
X133226321Y-102758998D01*
X133223585Y-102760300D01*
X133129983Y-102760300D01*
X133128681Y-102758998D01*
X133118681Y-102768998D01*
X133098681Y-102768998D01*
X133088681Y-102758998D01*
X133078681Y-102768998D01*
X133012259Y-102768998D01*
X133013675Y-102754289D01*
X133492641Y-102754289D01*
X133510521Y-102788998D01*
X133535729Y-102824229D01*
X133541441Y-102829920D01*
X133550553Y-102838998D01*
X133549260Y-102825171D01*
X133535042Y-102788998D01*
X133558681Y-102788998D01*
X133568681Y-102798998D01*
X133578681Y-102788998D01*
X133568681Y-102778998D01*
X133558681Y-102788998D01*
X133535042Y-102788998D01*
X133515037Y-102755147D01*
X133507411Y-102748998D01*
X133538681Y-102748998D01*
X133548681Y-102758998D01*
X133558681Y-102748998D01*
X133548681Y-102738998D01*
X133538681Y-102748998D01*
X133507411Y-102748998D01*
X133495010Y-102738998D01*
X133494407Y-102739030D01*
X133492641Y-102754289D01*
X133013675Y-102754289D01*
X133014946Y-102741095D01*
X133016091Y-102728596D01*
X133582955Y-102728596D01*
X133585012Y-102748998D01*
X133585348Y-102752331D01*
X133591364Y-102755460D01*
X133598681Y-102738998D01*
X133597238Y-102728410D01*
X133585348Y-102725664D01*
X133582955Y-102728596D01*
X133016091Y-102728596D01*
X133017477Y-102713477D01*
X133023285Y-102710624D01*
X133061173Y-102706328D01*
X133128460Y-102703555D01*
X133218259Y-102702530D01*
X133323681Y-102703477D01*
X133628681Y-102708998D01*
X133630918Y-102738998D01*
X133633901Y-102778998D01*
G37*
G36*
X133276508Y-101374707D02*
G01*
X133281357Y-101450153D01*
X133281360Y-101450250D01*
X133284219Y-101558998D01*
X133284306Y-101562690D01*
X133287320Y-101691025D01*
X133287432Y-101695814D01*
X133287922Y-101716662D01*
X133288681Y-101748998D01*
X133068681Y-101770813D01*
X132993054Y-101777991D01*
X132913492Y-101784745D01*
X132855699Y-101788713D01*
X132828681Y-101789204D01*
X132820624Y-101774781D01*
X132809602Y-101727655D01*
X132803547Y-101688596D01*
X132862955Y-101688596D01*
X132865348Y-101712331D01*
X132871364Y-101715460D01*
X132878681Y-101698998D01*
X132877238Y-101688410D01*
X132865348Y-101685664D01*
X132862955Y-101688596D01*
X132803547Y-101688596D01*
X132798459Y-101655778D01*
X132790680Y-101585455D01*
X132862443Y-101585455D01*
X132867520Y-101621378D01*
X132889744Y-101667812D01*
X132916832Y-101698998D01*
X132920918Y-101703702D01*
X132949807Y-101718998D01*
X132956413Y-101716662D01*
X132953305Y-101690823D01*
X132922506Y-101636641D01*
X132903239Y-101608800D01*
X132875223Y-101579088D01*
X132862443Y-101585455D01*
X132790680Y-101585455D01*
X132788681Y-101567388D01*
X132781117Y-101494459D01*
X132777908Y-101470211D01*
X132860972Y-101470211D01*
X132864104Y-101487776D01*
X132884156Y-101523373D01*
X132893315Y-101536251D01*
X132932091Y-101585621D01*
X132977705Y-101638998D01*
X132999749Y-101662638D01*
X133007654Y-101667054D01*
X132992759Y-101641867D01*
X132954521Y-101585836D01*
X132946242Y-101574043D01*
X132905574Y-101518755D01*
X132875129Y-101481646D01*
X132860972Y-101470211D01*
X132777908Y-101470211D01*
X132770219Y-101412107D01*
X132762452Y-101368252D01*
X132858681Y-101368252D01*
X132862223Y-101380210D01*
X132886325Y-101421234D01*
X132928212Y-101479020D01*
X132981970Y-101545085D01*
X133038324Y-101609256D01*
X133086868Y-101660953D01*
X133093405Y-101667054D01*
X133118459Y-101690436D01*
X133130657Y-101695814D01*
X133121027Y-101675195D01*
X133087130Y-101626687D01*
X133020504Y-101538480D01*
X132952023Y-101452213D01*
X132901196Y-101393922D01*
X132869568Y-101365352D01*
X132858681Y-101368252D01*
X132762452Y-101368252D01*
X132759293Y-101350415D01*
X132749842Y-101318998D01*
X132745660Y-101312208D01*
X132741000Y-101299228D01*
X132762399Y-101314419D01*
X132768448Y-101319147D01*
X132791381Y-101326977D01*
X132792199Y-101325242D01*
X132925770Y-101325242D01*
X132928209Y-101335025D01*
X132949935Y-101370743D01*
X132988961Y-101425504D01*
X133040436Y-101492245D01*
X133051583Y-101506219D01*
X133127419Y-101600292D01*
X133179305Y-101662446D01*
X133207369Y-101692687D01*
X133211741Y-101691025D01*
X133192551Y-101657465D01*
X133149928Y-101592015D01*
X133084002Y-101494683D01*
X133052363Y-101448969D01*
X133001379Y-101379207D01*
X132965696Y-101337913D01*
X132944421Y-101323110D01*
X133017454Y-101323110D01*
X133019005Y-101339936D01*
X133042223Y-101375045D01*
X133089836Y-101433998D01*
X133095927Y-101441292D01*
X133144035Y-101498810D01*
X133182071Y-101544133D01*
X133202265Y-101567998D01*
X133210557Y-101574882D01*
X133218681Y-101562690D01*
X133212026Y-101536530D01*
X133185629Y-101486347D01*
X133146550Y-101428954D01*
X133102810Y-101374899D01*
X133062955Y-101335256D01*
X133118681Y-101335256D01*
X133120687Y-101341213D01*
X133142744Y-101370610D01*
X133181314Y-101410256D01*
X133216845Y-101442358D01*
X133232275Y-101450250D01*
X133226126Y-101428398D01*
X133199829Y-101373998D01*
X133185362Y-101351358D01*
X133171713Y-101338998D01*
X133208681Y-101338998D01*
X133212786Y-101344983D01*
X133229862Y-101358998D01*
X133231858Y-101358478D01*
X133238681Y-101338998D01*
X133237868Y-101333516D01*
X133217501Y-101318998D01*
X133210267Y-101320568D01*
X133208681Y-101338998D01*
X133171713Y-101338998D01*
X133155818Y-101324604D01*
X133129841Y-101317446D01*
X133118681Y-101335256D01*
X133062955Y-101335256D01*
X133062427Y-101334731D01*
X133033420Y-101318998D01*
X133017454Y-101323110D01*
X132944421Y-101323110D01*
X132941698Y-101321215D01*
X132925770Y-101325242D01*
X132792199Y-101325242D01*
X132804366Y-101299419D01*
X132805360Y-101295875D01*
X132819926Y-101272704D01*
X132852463Y-101261753D01*
X132913875Y-101258998D01*
X132959465Y-101259923D01*
X133048896Y-101264594D01*
X133136091Y-101271882D01*
X133169398Y-101275399D01*
X133216118Y-101283007D01*
X133247282Y-101297710D01*
X133266281Y-101326085D01*
X133268997Y-101338998D01*
X133276508Y-101374707D01*
G37*
G36*
X133941398Y-101373323D02*
G01*
X133947704Y-101475124D01*
X133950596Y-101528444D01*
X133951435Y-101562510D01*
X133952998Y-101626019D01*
X133950067Y-101693110D01*
X133941909Y-101725124D01*
X133927460Y-101731863D01*
X133879209Y-101739505D01*
X133808287Y-101744172D01*
X133725036Y-101745894D01*
X133639797Y-101744698D01*
X133562910Y-101740611D01*
X133504717Y-101733661D01*
X133475559Y-101723875D01*
X133469399Y-101702094D01*
X133464533Y-101647588D01*
X133463988Y-101628998D01*
X133518681Y-101628998D01*
X133520864Y-101642789D01*
X133538054Y-101658998D01*
X133546330Y-101654751D01*
X133545914Y-101628998D01*
X133539438Y-101614637D01*
X133526542Y-101598998D01*
X133522961Y-101602313D01*
X133518681Y-101628998D01*
X133463988Y-101628998D01*
X133462249Y-101569734D01*
X133462645Y-101520679D01*
X133522256Y-101520679D01*
X133533449Y-101553855D01*
X133562057Y-101597766D01*
X133570241Y-101607960D01*
X133607303Y-101648083D01*
X133622884Y-101654751D01*
X133623424Y-101654982D01*
X133616581Y-101630541D01*
X133586914Y-101580308D01*
X133638833Y-101580308D01*
X133656130Y-101603998D01*
X133662365Y-101611741D01*
X133688953Y-101637433D01*
X133698681Y-101631446D01*
X133691381Y-101621118D01*
X133663681Y-101596446D01*
X133649190Y-101585274D01*
X133638833Y-101580308D01*
X133586914Y-101580308D01*
X133584750Y-101576644D01*
X133564003Y-101547691D01*
X133536659Y-101518488D01*
X133522841Y-101516518D01*
X133522256Y-101520679D01*
X133462645Y-101520679D01*
X133462995Y-101477311D01*
X133464360Y-101422508D01*
X133521278Y-101422508D01*
X133521940Y-101431252D01*
X133541487Y-101464301D01*
X133579225Y-101506209D01*
X133644577Y-101568998D01*
X133586629Y-101485297D01*
X133563729Y-101454673D01*
X133535404Y-101425230D01*
X133521278Y-101422508D01*
X133464360Y-101422508D01*
X133467055Y-101314300D01*
X133519314Y-101314300D01*
X133519768Y-101316435D01*
X133535066Y-101343542D01*
X133567461Y-101391848D01*
X133610672Y-101452777D01*
X133658418Y-101517752D01*
X133697417Y-101568998D01*
X133704416Y-101578195D01*
X133742386Y-101625532D01*
X133747841Y-101631446D01*
X133766045Y-101651184D01*
X133778472Y-101654982D01*
X133782006Y-101656062D01*
X133821677Y-101666062D01*
X133842869Y-101670476D01*
X133865293Y-101667127D01*
X133876042Y-101642106D01*
X133882028Y-101586279D01*
X133883494Y-101562510D01*
X133880017Y-101508485D01*
X133861087Y-101458845D01*
X133821197Y-101396401D01*
X133789243Y-101353481D01*
X133754997Y-101314163D01*
X133741107Y-101303894D01*
X133815966Y-101303894D01*
X133819018Y-101324215D01*
X133847492Y-101357880D01*
X133866594Y-101374471D01*
X133893235Y-101388602D01*
X133895058Y-101373323D01*
X133869313Y-101331908D01*
X133846906Y-101310456D01*
X133841871Y-101308998D01*
X133878681Y-101308998D01*
X133888681Y-101318998D01*
X133898681Y-101308998D01*
X133888681Y-101298998D01*
X133878681Y-101308998D01*
X133841871Y-101308998D01*
X133818760Y-101302305D01*
X133815966Y-101303894D01*
X133741107Y-101303894D01*
X133734484Y-101298998D01*
X133731965Y-101299819D01*
X133734970Y-101319464D01*
X133757320Y-101357085D01*
X133762224Y-101364017D01*
X133791637Y-101409457D01*
X133795521Y-101424710D01*
X133774770Y-101409556D01*
X133730280Y-101363772D01*
X133710861Y-101343230D01*
X133670974Y-101307313D01*
X133652588Y-101300534D01*
X133655848Y-101319415D01*
X133680903Y-101360480D01*
X133727899Y-101420252D01*
X133728557Y-101421024D01*
X133764698Y-101465890D01*
X133776211Y-101480182D01*
X133806891Y-101524665D01*
X133818660Y-101550279D01*
X133809583Y-101552831D01*
X133777722Y-101528129D01*
X133743318Y-101502775D01*
X133705629Y-101486492D01*
X133678788Y-101473670D01*
X133644689Y-101439366D01*
X133640941Y-101434053D01*
X133597526Y-101377443D01*
X133558581Y-101334422D01*
X133530408Y-101311278D01*
X133519314Y-101314300D01*
X133467055Y-101314300D01*
X133467359Y-101302105D01*
X133578979Y-101302105D01*
X133584635Y-101314215D01*
X133609925Y-101350335D01*
X133648681Y-101398998D01*
X133678101Y-101432712D01*
X133707035Y-101461536D01*
X133717931Y-101465890D01*
X133709923Y-101449355D01*
X133685001Y-101414614D01*
X133651179Y-101372774D01*
X133616725Y-101333581D01*
X133589903Y-101306777D01*
X133578979Y-101302105D01*
X133467359Y-101302105D01*
X133468681Y-101248998D01*
X133701189Y-101248998D01*
X133933697Y-101248998D01*
X133937414Y-101308998D01*
X133941398Y-101373323D01*
G37*
G36*
X135138681Y-100293998D02*
G01*
X135201181Y-100306497D01*
X135232117Y-100311076D01*
X135302282Y-100316772D01*
X135378733Y-100318997D01*
X135420410Y-100320328D01*
X135481296Y-100328971D01*
X135512823Y-100343998D01*
X135512987Y-100344219D01*
X135520960Y-100377087D01*
X135523025Y-100438862D01*
X135518820Y-100518998D01*
X135518682Y-100520628D01*
X135517926Y-100529569D01*
X135513047Y-100603949D01*
X135511556Y-100662206D01*
X135513797Y-100692504D01*
X135516434Y-100696885D01*
X135547062Y-100715039D01*
X135598041Y-100728889D01*
X135674268Y-100741768D01*
X135682231Y-100986648D01*
X135690320Y-101235383D01*
X135693212Y-101331864D01*
X135697537Y-101513598D01*
X135700824Y-101704266D01*
X135703095Y-101899422D01*
X135704371Y-102094617D01*
X135704673Y-102285403D01*
X135704023Y-102467332D01*
X135702441Y-102635957D01*
X135699948Y-102786830D01*
X135697882Y-102865451D01*
X135696567Y-102915502D01*
X135694458Y-102966153D01*
X135692318Y-103017526D01*
X135687223Y-103088454D01*
X135681302Y-103123838D01*
X135659793Y-103178678D01*
X135134237Y-103177695D01*
X134988917Y-103178180D01*
X134798125Y-103180327D01*
X134589825Y-103183937D01*
X134375896Y-103188770D01*
X134168222Y-103194584D01*
X133978681Y-103201137D01*
X133906130Y-103203928D01*
X133752702Y-103209679D01*
X133612296Y-103214743D01*
X133490302Y-103218938D01*
X133392109Y-103222080D01*
X133323106Y-103223989D01*
X133288681Y-103224482D01*
X133283239Y-103224452D01*
X133229548Y-103226794D01*
X133153140Y-103232706D01*
X133068681Y-103241082D01*
X133019179Y-103246268D01*
X132963226Y-103251356D01*
X132900394Y-103256141D01*
X132826544Y-103260832D01*
X132737540Y-103265634D01*
X132629245Y-103270756D01*
X132497521Y-103276404D01*
X132338232Y-103282786D01*
X132147240Y-103290108D01*
X131920408Y-103298578D01*
X131909598Y-103298980D01*
X131766392Y-103304670D01*
X131636986Y-103310461D01*
X131526615Y-103316068D01*
X131440516Y-103321206D01*
X131383924Y-103325591D01*
X131362074Y-103328938D01*
X131357416Y-103331286D01*
X131322721Y-103336796D01*
X131268558Y-103338998D01*
X131267780Y-103338997D01*
X131213500Y-103332494D01*
X131176376Y-103309410D01*
X131153487Y-103263982D01*
X131141910Y-103190451D01*
X131138722Y-103083056D01*
X131137659Y-103019700D01*
X131134411Y-102919802D01*
X131129283Y-102791857D01*
X131122585Y-102641956D01*
X131114627Y-102476191D01*
X131105718Y-102300654D01*
X131096168Y-102121435D01*
X131086286Y-101944627D01*
X131076382Y-101776320D01*
X131066765Y-101622607D01*
X131057746Y-101489578D01*
X131056864Y-101477198D01*
X131049259Y-101364490D01*
X131045269Y-101284625D01*
X131045221Y-101263845D01*
X131138466Y-101263845D01*
X131156623Y-101287725D01*
X131160255Y-101290567D01*
X131186936Y-101317432D01*
X131229840Y-101364560D01*
X131281585Y-101423906D01*
X131293511Y-101437938D01*
X131336316Y-101491117D01*
X131351349Y-101515991D01*
X131338996Y-101512584D01*
X131299645Y-101480918D01*
X131233681Y-101421018D01*
X131192588Y-101383247D01*
X131168797Y-101366263D01*
X131159972Y-101372846D01*
X131158681Y-101401015D01*
X131158932Y-101406405D01*
X131179820Y-101459589D01*
X131230323Y-101520074D01*
X131252619Y-101542438D01*
X131296088Y-101591421D01*
X131322724Y-101628998D01*
X131323264Y-101630071D01*
X131320004Y-101636727D01*
X131294179Y-101618770D01*
X131251083Y-101579833D01*
X131238775Y-101568067D01*
X131191811Y-101526949D01*
X131166347Y-101513699D01*
X131158681Y-101526168D01*
X131160028Y-101535921D01*
X131178277Y-101579494D01*
X131211055Y-101630332D01*
X131234721Y-101665875D01*
X131245054Y-101694646D01*
X131234024Y-101699552D01*
X131202682Y-101674998D01*
X131198896Y-101671388D01*
X131180881Y-101663319D01*
X131178361Y-101679931D01*
X131189804Y-101711195D01*
X131213681Y-101747078D01*
X131233703Y-101771075D01*
X131236765Y-101778244D01*
X131213681Y-101761204D01*
X131210422Y-101758653D01*
X131199496Y-101750608D01*
X131191028Y-101748190D01*
X131184977Y-101755212D01*
X131181300Y-101775487D01*
X131179955Y-101812829D01*
X131180899Y-101871050D01*
X131184090Y-101953964D01*
X131189486Y-102065385D01*
X131197044Y-102209125D01*
X131206724Y-102388998D01*
X131212630Y-102500931D01*
X131219970Y-102646593D01*
X131226392Y-102781456D01*
X131231563Y-102898235D01*
X131235152Y-102989647D01*
X131236824Y-103048407D01*
X131239971Y-103113227D01*
X131249490Y-103176715D01*
X131263805Y-103209037D01*
X131291173Y-103218274D01*
X131357809Y-103221710D01*
X131458681Y-103216613D01*
X131480405Y-103214966D01*
X131589500Y-103208516D01*
X131710787Y-103203533D01*
X131821809Y-103200983D01*
X131849871Y-103200681D01*
X131928918Y-103199124D01*
X131976970Y-103195481D01*
X132001092Y-103187948D01*
X132008350Y-103174722D01*
X132005809Y-103153998D01*
X131996681Y-103108998D01*
X132030121Y-103153998D01*
X132058207Y-103186394D01*
X132080451Y-103198485D01*
X132081281Y-103179667D01*
X132055541Y-103133998D01*
X132009678Y-103068998D01*
X132075714Y-103123998D01*
X132091825Y-103136752D01*
X132138255Y-103166932D01*
X132170920Y-103178998D01*
X132174691Y-103178922D01*
X132187794Y-103174157D01*
X132185583Y-103157101D01*
X132165450Y-103120975D01*
X132124789Y-103058998D01*
X132123227Y-103056610D01*
X132121110Y-103045875D01*
X132142902Y-103060468D01*
X132184535Y-103097750D01*
X132231207Y-103139903D01*
X132269006Y-103169543D01*
X132286818Y-103177527D01*
X132287213Y-103176776D01*
X132279057Y-103153949D01*
X132253526Y-103108296D01*
X132215576Y-103048775D01*
X132135357Y-102928998D01*
X132259693Y-103054773D01*
X132295107Y-103089692D01*
X132352649Y-103141222D01*
X132390494Y-103167597D01*
X132406433Y-103168099D01*
X132398255Y-103142009D01*
X132363751Y-103088609D01*
X132362299Y-103086589D01*
X132316566Y-103020925D01*
X132296104Y-102986257D01*
X132301018Y-102982491D01*
X132331413Y-103009532D01*
X132387394Y-103067285D01*
X132403528Y-103084231D01*
X132460054Y-103139648D01*
X132496030Y-103168126D01*
X132509663Y-103169192D01*
X132501754Y-103148998D01*
X132558681Y-103148998D01*
X132568681Y-103158998D01*
X132578681Y-103148998D01*
X132568681Y-103138998D01*
X132558681Y-103148998D01*
X132501754Y-103148998D01*
X132499159Y-103142371D01*
X132462724Y-103087191D01*
X132425997Y-103035242D01*
X132397381Y-102990863D01*
X132393392Y-102975826D01*
X132413953Y-102988936D01*
X132458987Y-103028998D01*
X132545170Y-103108998D01*
X132455456Y-102988998D01*
X132420798Y-102942295D01*
X132375486Y-102878904D01*
X132354810Y-102845002D01*
X132358525Y-102839467D01*
X132386390Y-102861173D01*
X132438160Y-102908998D01*
X132543340Y-103008998D01*
X132518971Y-102968998D01*
X132558681Y-102968998D01*
X132568681Y-102978998D01*
X132578681Y-102968998D01*
X132568681Y-102958998D01*
X132558681Y-102968998D01*
X132518971Y-102968998D01*
X132494603Y-102928998D01*
X132462564Y-102875794D01*
X132437115Y-102830420D01*
X132432957Y-102815417D01*
X132449871Y-102828904D01*
X132487640Y-102868998D01*
X132560594Y-102948998D01*
X132512790Y-102868998D01*
X132501102Y-102849158D01*
X132466557Y-102787745D01*
X132441269Y-102738998D01*
X132439652Y-102735580D01*
X132428438Y-102709284D01*
X132435274Y-102712793D01*
X132463116Y-102747218D01*
X132508818Y-102803112D01*
X132555962Y-102857218D01*
X132603242Y-102908998D01*
X132567895Y-102848998D01*
X132535079Y-102795129D01*
X132505615Y-102749547D01*
X132487795Y-102720450D01*
X132478895Y-102692398D01*
X132493569Y-102694100D01*
X132528062Y-102728998D01*
X132530375Y-102731796D01*
X132562419Y-102763169D01*
X132576373Y-102761705D01*
X132571221Y-102730588D01*
X132545945Y-102673004D01*
X132513209Y-102608998D01*
X132557044Y-102648091D01*
X132600878Y-102687185D01*
X132587871Y-101978092D01*
X132585360Y-101850060D01*
X132584414Y-101810562D01*
X132661048Y-101810562D01*
X132661291Y-101980390D01*
X132661914Y-102186450D01*
X132662182Y-102258546D01*
X132663324Y-102464536D01*
X132664974Y-102634715D01*
X132667236Y-102772272D01*
X132670217Y-102880400D01*
X132671545Y-102908998D01*
X132674021Y-102962288D01*
X132674561Y-102968998D01*
X132678754Y-103021129D01*
X132684520Y-103060113D01*
X132691424Y-103082430D01*
X132698345Y-103096943D01*
X132707356Y-103130034D01*
X132693384Y-103144692D01*
X132683149Y-103148744D01*
X132682922Y-103148998D01*
X132674118Y-103158870D01*
X132702949Y-103163608D01*
X132768263Y-103162862D01*
X132868681Y-103156542D01*
X132897060Y-103154464D01*
X132985279Y-103148753D01*
X133101054Y-103141939D01*
X133235827Y-103134498D01*
X133381038Y-103126911D01*
X133528129Y-103119655D01*
X133620791Y-103115093D01*
X133746147Y-103108441D01*
X133853860Y-103102154D01*
X133938351Y-103096584D01*
X133994040Y-103092082D01*
X134015347Y-103088998D01*
X134016773Y-103083714D01*
X134019447Y-103045081D01*
X134021359Y-102973421D01*
X134022559Y-102873578D01*
X134023096Y-102750394D01*
X134023021Y-102608710D01*
X134022383Y-102453369D01*
X134021232Y-102289213D01*
X134019619Y-102121083D01*
X134017593Y-101953822D01*
X134015203Y-101792271D01*
X134012500Y-101641274D01*
X134009534Y-101505671D01*
X134006355Y-101390306D01*
X134003012Y-101300019D01*
X134001393Y-101271743D01*
X134081692Y-101271743D01*
X134091496Y-101294346D01*
X134123842Y-101340876D01*
X134178681Y-101408998D01*
X134189018Y-101421314D01*
X134234571Y-101478028D01*
X134266589Y-101521910D01*
X134278681Y-101544312D01*
X134276615Y-101552671D01*
X134257490Y-101546980D01*
X134218002Y-101508025D01*
X134157767Y-101435456D01*
X134110943Y-101378883D01*
X134085140Y-101353117D01*
X134082205Y-101358442D01*
X134102750Y-101393575D01*
X134147386Y-101457233D01*
X134176694Y-101499951D01*
X134200312Y-101549026D01*
X134197843Y-101579913D01*
X134189637Y-101602197D01*
X134190195Y-101648998D01*
X134194748Y-101670903D01*
X134187106Y-101671317D01*
X134159846Y-101641914D01*
X134158786Y-101640685D01*
X134133917Y-101602853D01*
X134129947Y-101576949D01*
X134129305Y-101553458D01*
X134110005Y-101514818D01*
X134102329Y-101506610D01*
X134096058Y-101508280D01*
X134091109Y-101523211D01*
X134087366Y-101554746D01*
X134084715Y-101606226D01*
X134083042Y-101680994D01*
X134082233Y-101782392D01*
X134082174Y-101913761D01*
X134082750Y-102078444D01*
X134083847Y-102279783D01*
X134086658Y-102750394D01*
X134088681Y-103088998D01*
X134208681Y-103087457D01*
X134315175Y-103086018D01*
X134490912Y-103083335D01*
X134657528Y-103080424D01*
X134810613Y-103077388D01*
X134945755Y-103074330D01*
X135058544Y-103071353D01*
X135144569Y-103068559D01*
X135199418Y-103066051D01*
X135218681Y-103063931D01*
X135216809Y-103058324D01*
X135202009Y-103026024D01*
X135177286Y-102976263D01*
X135157269Y-102934796D01*
X135143466Y-102897125D01*
X135149005Y-102892072D01*
X135171821Y-102919457D01*
X135209849Y-102979100D01*
X135237174Y-103020907D01*
X135271510Y-103062388D01*
X135295657Y-103078601D01*
X135304863Y-103076017D01*
X135304379Y-103054326D01*
X135279844Y-103006477D01*
X135267085Y-102984118D01*
X135246528Y-102940431D01*
X135248115Y-102928201D01*
X135269229Y-102948007D01*
X135307253Y-103000426D01*
X135314702Y-103011440D01*
X135348996Y-103054852D01*
X135370630Y-103070852D01*
X135375437Y-103058213D01*
X135359245Y-103015710D01*
X135349766Y-102992931D01*
X135357730Y-102995712D01*
X135387525Y-103028998D01*
X135400166Y-103043055D01*
X135427747Y-103065765D01*
X135438582Y-103060898D01*
X135438862Y-103054715D01*
X135447889Y-103045596D01*
X135475256Y-103065898D01*
X135504540Y-103086326D01*
X135543100Y-103098998D01*
X135545454Y-103098970D01*
X135561175Y-103093306D01*
X135558381Y-103071432D01*
X135536231Y-103024190D01*
X135528009Y-103006902D01*
X135514829Y-102968998D01*
X135538681Y-102968998D01*
X135548681Y-102978998D01*
X135558681Y-102968998D01*
X135548681Y-102958998D01*
X135538681Y-102968998D01*
X135514829Y-102968998D01*
X135510361Y-102956148D01*
X135508632Y-102928998D01*
X135518681Y-102928998D01*
X135528681Y-102938998D01*
X135538681Y-102928998D01*
X135528681Y-102918998D01*
X135518681Y-102928998D01*
X135508632Y-102928998D01*
X135508245Y-102922923D01*
X135509131Y-102919787D01*
X135505292Y-102885790D01*
X135545233Y-102885790D01*
X135560287Y-102918998D01*
X135565319Y-102928998D01*
X135581183Y-102960527D01*
X135587501Y-102968998D01*
X135594774Y-102978750D01*
X135598681Y-102966153D01*
X135591626Y-102945008D01*
X135567578Y-102907820D01*
X135549501Y-102885914D01*
X135545233Y-102885790D01*
X135505292Y-102885790D01*
X135504900Y-102882317D01*
X135491830Y-102848998D01*
X135518681Y-102848998D01*
X135528681Y-102858998D01*
X135538681Y-102848998D01*
X135528681Y-102838998D01*
X135518681Y-102848998D01*
X135491830Y-102848998D01*
X135485449Y-102832731D01*
X135479848Y-102821869D01*
X135463332Y-102787377D01*
X135466322Y-102781597D01*
X135489479Y-102798998D01*
X135490444Y-102799771D01*
X135503476Y-102803491D01*
X135494277Y-102776039D01*
X135462569Y-102716563D01*
X135426608Y-102651284D01*
X135404129Y-102605006D01*
X135402070Y-102591112D01*
X135419458Y-102609128D01*
X135455319Y-102658581D01*
X135508681Y-102738998D01*
X135523349Y-102761365D01*
X135573227Y-102830465D01*
X135591025Y-102848998D01*
X135606070Y-102864664D01*
X135620874Y-102865451D01*
X135616632Y-102834318D01*
X135592339Y-102772753D01*
X135546990Y-102682247D01*
X135527709Y-102645664D01*
X135506389Y-102600445D01*
X135506162Y-102589212D01*
X135526906Y-102612038D01*
X135568503Y-102668998D01*
X135579304Y-102683829D01*
X135593677Y-102695604D01*
X135597632Y-102675178D01*
X135595677Y-102657467D01*
X135578681Y-102628998D01*
X135573337Y-102624918D01*
X135558681Y-102595368D01*
X135563766Y-102586336D01*
X135588681Y-102598998D01*
X135595566Y-102602320D01*
X135602386Y-102596586D01*
X135607740Y-102576713D01*
X135611799Y-102539006D01*
X135614734Y-102479770D01*
X135616719Y-102395312D01*
X135617924Y-102281938D01*
X135618521Y-102135952D01*
X135618681Y-101953662D01*
X135618681Y-101947122D01*
X135618518Y-101765382D01*
X135617906Y-101619296D01*
X135616639Y-101504655D01*
X135614509Y-101417248D01*
X135611309Y-101352868D01*
X135606834Y-101307304D01*
X135600875Y-101276348D01*
X135593227Y-101255790D01*
X135583681Y-101241422D01*
X135575890Y-101232774D01*
X135561869Y-101222078D01*
X135540871Y-101213760D01*
X135508178Y-101207409D01*
X135459072Y-101202610D01*
X135388837Y-101198952D01*
X135292757Y-101196020D01*
X135166114Y-101193403D01*
X135004190Y-101190686D01*
X134459699Y-101181958D01*
X134493035Y-101235478D01*
X134526371Y-101288998D01*
X134466432Y-101233998D01*
X134454182Y-101223268D01*
X134409850Y-101191717D01*
X134377587Y-101179052D01*
X134374637Y-101188293D01*
X134396119Y-101216492D01*
X134438681Y-101257026D01*
X134477897Y-101293797D01*
X134508528Y-101329706D01*
X134514990Y-101348997D01*
X134514872Y-101349111D01*
X134494288Y-101343282D01*
X134454108Y-101315262D01*
X134402916Y-101271023D01*
X134365663Y-101237299D01*
X134316421Y-101200522D01*
X134273090Y-101183282D01*
X134222788Y-101178998D01*
X134165915Y-101183358D01*
X134131828Y-101201212D01*
X134134183Y-101234682D01*
X134172052Y-101285726D01*
X134189269Y-101304627D01*
X134246731Y-101369803D01*
X134280309Y-101413032D01*
X134293594Y-101439432D01*
X134290175Y-101454120D01*
X134288666Y-101454960D01*
X134266032Y-101444246D01*
X134226500Y-101410137D01*
X134177600Y-101358998D01*
X134129915Y-101307659D01*
X134094482Y-101275402D01*
X134081692Y-101271743D01*
X134001393Y-101271743D01*
X133999555Y-101239653D01*
X133996034Y-101214051D01*
X133986767Y-101199983D01*
X133968279Y-101187637D01*
X133935298Y-101182086D01*
X133879371Y-101182201D01*
X133792045Y-101186857D01*
X133781469Y-101187507D01*
X133698672Y-101192432D01*
X133586954Y-101198889D01*
X133455725Y-101206341D01*
X133314399Y-101214254D01*
X133172387Y-101222092D01*
X133043371Y-101229261D01*
X132931583Y-101236067D01*
X132849564Y-101242356D01*
X132791929Y-101248953D01*
X132753296Y-101256684D01*
X132728282Y-101266375D01*
X132711504Y-101278852D01*
X132697579Y-101294941D01*
X132690839Y-101304206D01*
X132682623Y-101319803D01*
X132675992Y-101341494D01*
X132670795Y-101373044D01*
X132666881Y-101418223D01*
X132664100Y-101480796D01*
X132662302Y-101564533D01*
X132661334Y-101673199D01*
X132661048Y-101810562D01*
X132584414Y-101810562D01*
X132580908Y-101664271D01*
X132576120Y-101515543D01*
X132570905Y-101402029D01*
X132565171Y-101321882D01*
X132558824Y-101273256D01*
X132551773Y-101254305D01*
X132536784Y-101250809D01*
X132486225Y-101246312D01*
X132407881Y-101242693D01*
X132308947Y-101240255D01*
X132196615Y-101239304D01*
X132132068Y-101239046D01*
X132009643Y-101237564D01*
X131895986Y-101235005D01*
X131801506Y-101231630D01*
X131736615Y-101227703D01*
X131608681Y-101216408D01*
X131677926Y-101277703D01*
X131712219Y-101310461D01*
X131729043Y-101333724D01*
X131718817Y-101335872D01*
X131685396Y-101316961D01*
X131632638Y-101277047D01*
X131598317Y-101250677D01*
X131558195Y-101230391D01*
X131532041Y-101236210D01*
X131505081Y-101247097D01*
X131457641Y-101246653D01*
X131443063Y-101243846D01*
X131429142Y-101245744D01*
X131441884Y-101262654D01*
X131483681Y-101299430D01*
X131534553Y-101345718D01*
X131555892Y-101372900D01*
X131546180Y-101377778D01*
X131506929Y-101359710D01*
X131439653Y-101318058D01*
X131365130Y-101270043D01*
X131321860Y-101245850D01*
X131310195Y-101245808D01*
X131329992Y-101269917D01*
X131381109Y-101318177D01*
X131433133Y-101367223D01*
X131454187Y-101391842D01*
X131444986Y-101392020D01*
X131406246Y-101367743D01*
X131338681Y-101318998D01*
X131281916Y-101280858D01*
X131224597Y-101250596D01*
X131185069Y-101238998D01*
X131154201Y-101244540D01*
X131138466Y-101263845D01*
X131045221Y-101263845D01*
X131045145Y-101231183D01*
X131049140Y-101197745D01*
X131057506Y-101177890D01*
X131070496Y-101165198D01*
X131078969Y-101157972D01*
X131091524Y-101137017D01*
X131097518Y-101101453D01*
X131097859Y-101042877D01*
X131093455Y-100952888D01*
X131092938Y-100942670D01*
X131201447Y-100942670D01*
X131202230Y-101014254D01*
X131208973Y-101079153D01*
X131221782Y-101123998D01*
X131240233Y-101151602D01*
X131258092Y-101159144D01*
X131262545Y-101137835D01*
X131248055Y-101093998D01*
X131216401Y-101028998D01*
X131272541Y-101094178D01*
X131290664Y-101114581D01*
X131329051Y-101150798D01*
X131345634Y-101153808D01*
X131339272Y-101124558D01*
X131308826Y-101063998D01*
X131255170Y-100968998D01*
X131326175Y-101048998D01*
X131353449Y-101080814D01*
X131385234Y-101121762D01*
X131397931Y-101143998D01*
X131398675Y-101147521D01*
X131418932Y-101158998D01*
X131422709Y-101152890D01*
X131412989Y-101122076D01*
X131387109Y-101073998D01*
X131335034Y-100988998D01*
X131418205Y-101078998D01*
X131457105Y-101119330D01*
X131482234Y-101141633D01*
X131486189Y-101138998D01*
X131485936Y-101138497D01*
X131480124Y-101119556D01*
X131499842Y-101130344D01*
X131503464Y-101131871D01*
X131540334Y-101136966D01*
X131610600Y-101141427D01*
X131709095Y-101145231D01*
X131830657Y-101148356D01*
X131970119Y-101150782D01*
X132122319Y-101152485D01*
X132282090Y-101153444D01*
X132444269Y-101153637D01*
X132603690Y-101153042D01*
X132755190Y-101151637D01*
X132893604Y-101149400D01*
X133013767Y-101146309D01*
X133110514Y-101142342D01*
X133178681Y-101137477D01*
X133225596Y-101134136D01*
X133311876Y-101130184D01*
X133429025Y-101126141D01*
X133572209Y-101122129D01*
X133736598Y-101118270D01*
X133917361Y-101114688D01*
X134109666Y-101111504D01*
X134308681Y-101108841D01*
X134351895Y-101108320D01*
X134588097Y-101104986D01*
X134791572Y-101101227D01*
X134961109Y-101097083D01*
X135095495Y-101092592D01*
X135193518Y-101087795D01*
X135253966Y-101082730D01*
X135275626Y-101077438D01*
X135285316Y-101069641D01*
X135314466Y-101083163D01*
X135322114Y-101089265D01*
X135337809Y-101098342D01*
X135329083Y-101078998D01*
X135326230Y-101073802D01*
X135326250Y-101064486D01*
X135351818Y-101083998D01*
X135372119Y-101100799D01*
X135401657Y-101117011D01*
X135406923Y-101101448D01*
X135388055Y-101053998D01*
X135356401Y-100988998D01*
X135417003Y-101058998D01*
X135425455Y-101068626D01*
X135461770Y-101104868D01*
X135476105Y-101108432D01*
X135467955Y-101080276D01*
X135436817Y-101021358D01*
X135394952Y-100948998D01*
X135444916Y-101002903D01*
X135446521Y-101004640D01*
X135490164Y-101055013D01*
X135525895Y-101101088D01*
X135535185Y-101113647D01*
X135560146Y-101132794D01*
X135586407Y-101120885D01*
X135598699Y-101105642D01*
X135598791Y-101081341D01*
X135581870Y-101041111D01*
X135545458Y-100976203D01*
X135539199Y-100965440D01*
X135503713Y-100899616D01*
X135487056Y-100859623D01*
X135489090Y-100847897D01*
X135509677Y-100866876D01*
X135548681Y-100918998D01*
X135564739Y-100941530D01*
X135597990Y-100981487D01*
X135612176Y-100986648D01*
X135606195Y-100957851D01*
X135578946Y-100895936D01*
X135536419Y-100808998D01*
X135578893Y-100858998D01*
X135603670Y-100887188D01*
X135611202Y-100890829D01*
X135599916Y-100865111D01*
X135582954Y-100835514D01*
X135562216Y-100811182D01*
X135554235Y-100809422D01*
X135510553Y-100805628D01*
X135433041Y-100801398D01*
X135325764Y-100796825D01*
X135192786Y-100792002D01*
X135038173Y-100787023D01*
X134865988Y-100781980D01*
X134680296Y-100776967D01*
X134485162Y-100772077D01*
X134284651Y-100767402D01*
X134082825Y-100763036D01*
X133883751Y-100759073D01*
X133691492Y-100755604D01*
X133510114Y-100752723D01*
X133343680Y-100750524D01*
X133196256Y-100749099D01*
X133071905Y-100748542D01*
X132974692Y-100748945D01*
X132908681Y-100750402D01*
X132859155Y-100752304D01*
X132761231Y-100755746D01*
X132634518Y-100759962D01*
X132485490Y-100764745D01*
X132320623Y-100769889D01*
X132146392Y-100775185D01*
X131969272Y-100780428D01*
X131904642Y-100782370D01*
X131712906Y-100788885D01*
X131549352Y-100795662D01*
X131416345Y-100802565D01*
X131316247Y-100809460D01*
X131251421Y-100816214D01*
X131224230Y-100822692D01*
X131217323Y-100832932D01*
X131206514Y-100877773D01*
X131201447Y-100942670D01*
X131092938Y-100942670D01*
X131091183Y-100907958D01*
X131089382Y-100830977D01*
X131090847Y-100774121D01*
X131095480Y-100747268D01*
X131106101Y-100740620D01*
X131148448Y-100729731D01*
X131208681Y-100722722D01*
X131255453Y-100719768D01*
X131317324Y-100712799D01*
X131354017Y-100697166D01*
X131372097Y-100665040D01*
X131376188Y-100626757D01*
X131458176Y-100626757D01*
X131464013Y-100680274D01*
X131476624Y-100707726D01*
X131497911Y-100711346D01*
X131549272Y-100711118D01*
X131577485Y-100708998D01*
X134998681Y-100708998D01*
X135008681Y-100718998D01*
X135018681Y-100708998D01*
X135008681Y-100698998D01*
X134998681Y-100708998D01*
X131577485Y-100708998D01*
X131616624Y-100706057D01*
X131738681Y-100693299D01*
X131738681Y-100645664D01*
X131778681Y-100645664D01*
X131784647Y-100681541D01*
X131809385Y-100698998D01*
X131818675Y-100698482D01*
X131829968Y-100687427D01*
X131816676Y-100653998D01*
X131808180Y-100637844D01*
X131788734Y-100605916D01*
X131780430Y-100608858D01*
X131778681Y-100645664D01*
X131738681Y-100645664D01*
X131738681Y-100577329D01*
X131739814Y-100540112D01*
X131798922Y-100540112D01*
X131800020Y-100548297D01*
X131817210Y-100589257D01*
X131848681Y-100638998D01*
X131860578Y-100654884D01*
X131887673Y-100687427D01*
X131888896Y-100688896D01*
X131896396Y-100689853D01*
X131883073Y-100658614D01*
X131877825Y-100648998D01*
X131938681Y-100648998D01*
X131948681Y-100658998D01*
X131958681Y-100648998D01*
X131948681Y-100638998D01*
X131938681Y-100648998D01*
X131877825Y-100648998D01*
X131848922Y-100596039D01*
X131829345Y-100564345D01*
X131807513Y-100537606D01*
X131798922Y-100540112D01*
X131739814Y-100540112D01*
X131740224Y-100526655D01*
X131741801Y-100512608D01*
X131851598Y-100512608D01*
X131858224Y-100538142D01*
X131873783Y-100561376D01*
X131910864Y-100600642D01*
X131927633Y-100613944D01*
X131936199Y-100614986D01*
X131921956Y-100585312D01*
X131907412Y-100553996D01*
X131899432Y-100525312D01*
X131905961Y-100525672D01*
X131932008Y-100547778D01*
X131971013Y-100588998D01*
X132024135Y-100648998D01*
X132041843Y-100668998D01*
X131989259Y-100586498D01*
X131971973Y-100561013D01*
X131930016Y-100517261D01*
X131898377Y-100507199D01*
X131983996Y-100507199D01*
X132001233Y-100533998D01*
X132019523Y-100556614D01*
X132039371Y-100578998D01*
X132041692Y-100581376D01*
X132063916Y-100607557D01*
X132097085Y-100648998D01*
X132103176Y-100656715D01*
X132113735Y-100668998D01*
X132129311Y-100687118D01*
X132134034Y-100685488D01*
X132125909Y-100668998D01*
X132198681Y-100668998D01*
X132208681Y-100678998D01*
X132218681Y-100668998D01*
X132208681Y-100658998D01*
X132198681Y-100668998D01*
X132125909Y-100668998D01*
X132117204Y-100651331D01*
X132078681Y-100584152D01*
X132060435Y-100555856D01*
X132026609Y-100515196D01*
X132001233Y-100499152D01*
X131994389Y-100499332D01*
X131983996Y-100507199D01*
X131898377Y-100507199D01*
X131888312Y-100503998D01*
X131875595Y-100504295D01*
X131851598Y-100512608D01*
X131741801Y-100512608D01*
X131743329Y-100498998D01*
X132050835Y-100498998D01*
X132118681Y-100568998D01*
X132164002Y-100614459D01*
X132188967Y-100634998D01*
X132192368Y-100627806D01*
X132176793Y-100593998D01*
X132173400Y-100587308D01*
X132167005Y-100568771D01*
X132180886Y-100575521D01*
X132219106Y-100608998D01*
X132284715Y-100668998D01*
X132338681Y-100668998D01*
X132348681Y-100678998D01*
X132358681Y-100668998D01*
X132348681Y-100658998D01*
X132338681Y-100668998D01*
X132284715Y-100668998D01*
X132238016Y-100583998D01*
X132228855Y-100567637D01*
X132198289Y-100523114D01*
X132174963Y-100508552D01*
X132228135Y-100508552D01*
X132238085Y-100537884D01*
X132253941Y-100562562D01*
X132280784Y-100590297D01*
X132290538Y-100588238D01*
X132277963Y-100556411D01*
X132253253Y-100508998D01*
X132305623Y-100557161D01*
X132308780Y-100560110D01*
X132347306Y-100603683D01*
X132369686Y-100642161D01*
X132379246Y-100662602D01*
X132387161Y-100668998D01*
X132399537Y-100678998D01*
X132402247Y-100671519D01*
X132390379Y-100638836D01*
X132363335Y-100588998D01*
X132341921Y-100555992D01*
X132301760Y-100512319D01*
X132286637Y-100507105D01*
X132338681Y-100507105D01*
X132344576Y-100517408D01*
X132369999Y-100551337D01*
X132408681Y-100598998D01*
X132431552Y-100625829D01*
X132465638Y-100661848D01*
X132476332Y-100665679D01*
X132463254Y-100637770D01*
X132426024Y-100578569D01*
X132409308Y-100554685D01*
X132377954Y-100518118D01*
X132418681Y-100518118D01*
X132423400Y-100527142D01*
X132449916Y-100558138D01*
X132491995Y-100600074D01*
X132561779Y-100665679D01*
X132565309Y-100668998D01*
X132521995Y-100605910D01*
X132489179Y-100553625D01*
X132481159Y-100528948D01*
X132498606Y-100534233D01*
X132541106Y-100570256D01*
X132603531Y-100628998D01*
X132571282Y-100565330D01*
X132557734Y-100541208D01*
X132525669Y-100510240D01*
X132478857Y-100503374D01*
X132478090Y-100503397D01*
X132436106Y-100508473D01*
X132418681Y-100518118D01*
X132377954Y-100518118D01*
X132374173Y-100513709D01*
X132348580Y-100496171D01*
X132338681Y-100507105D01*
X132286637Y-100507105D01*
X132263123Y-100498998D01*
X132248732Y-100499387D01*
X132228135Y-100508552D01*
X132174963Y-100508552D01*
X132166757Y-100503429D01*
X132121075Y-100498998D01*
X132050835Y-100498998D01*
X131743329Y-100498998D01*
X131745987Y-100475311D01*
X131754555Y-100451548D01*
X131758856Y-100450449D01*
X131795641Y-100447328D01*
X131864172Y-100444261D01*
X131958381Y-100441441D01*
X132072198Y-100439064D01*
X132199555Y-100437321D01*
X132628681Y-100432905D01*
X132639591Y-100525861D01*
X132643629Y-100553463D01*
X132656834Y-100608560D01*
X132666565Y-100628998D01*
X132671911Y-100640227D01*
X132696370Y-100646656D01*
X132760482Y-100652867D01*
X132863210Y-100658442D01*
X133003845Y-100663350D01*
X133181679Y-100667561D01*
X133396002Y-100671045D01*
X133431405Y-100671519D01*
X134098681Y-100680453D01*
X134098681Y-100660300D01*
X134523585Y-100660300D01*
X134528681Y-100678998D01*
X134532790Y-100684918D01*
X134533529Y-100685488D01*
X134539187Y-100689853D01*
X134551042Y-100698998D01*
X134553778Y-100697695D01*
X134551407Y-100688998D01*
X134578681Y-100688998D01*
X134587378Y-100697695D01*
X134588681Y-100698998D01*
X134598681Y-100688998D01*
X134588681Y-100678998D01*
X134578681Y-100688998D01*
X134551407Y-100688998D01*
X134548681Y-100678998D01*
X134544573Y-100673077D01*
X134538764Y-100668596D01*
X134642955Y-100668596D01*
X134645012Y-100688998D01*
X134645348Y-100692331D01*
X134651364Y-100695460D01*
X134658681Y-100678998D01*
X134657238Y-100668410D01*
X134645348Y-100665664D01*
X134642955Y-100668596D01*
X134538764Y-100668596D01*
X134526321Y-100658998D01*
X134523585Y-100660300D01*
X134098681Y-100660300D01*
X134098681Y-100608998D01*
X134158681Y-100608998D01*
X134168681Y-100618998D01*
X134178681Y-100608998D01*
X134168681Y-100598998D01*
X134158681Y-100608998D01*
X134098681Y-100608998D01*
X134098681Y-100549725D01*
X134100272Y-100489794D01*
X134158681Y-100489794D01*
X134158817Y-100491617D01*
X134168978Y-100520083D01*
X134190271Y-100563289D01*
X134215618Y-100608517D01*
X134215929Y-100608998D01*
X134237942Y-100643052D01*
X134250167Y-100654179D01*
X134250899Y-100653046D01*
X134249266Y-100626783D01*
X134236459Y-100581220D01*
X134234424Y-100575199D01*
X134223517Y-100530328D01*
X134224992Y-100506021D01*
X134234342Y-100510340D01*
X134257950Y-100540958D01*
X134288269Y-100592042D01*
X134307443Y-100626938D01*
X134327147Y-100658312D01*
X134333987Y-100658111D01*
X134333067Y-100648998D01*
X134698681Y-100648998D01*
X134708681Y-100658998D01*
X134718681Y-100648998D01*
X134708681Y-100638998D01*
X134698681Y-100648998D01*
X134333067Y-100648998D01*
X134331047Y-100628998D01*
X134327181Y-100608998D01*
X134498681Y-100608998D01*
X134508681Y-100618998D01*
X134518681Y-100608998D01*
X134618681Y-100608998D01*
X134628681Y-100618998D01*
X134638681Y-100608998D01*
X134628681Y-100598998D01*
X134618681Y-100608998D01*
X134518681Y-100608998D01*
X134508681Y-100598998D01*
X134498681Y-100608998D01*
X134327181Y-100608998D01*
X134323315Y-100588998D01*
X134358681Y-100588998D01*
X134368681Y-100598998D01*
X134378681Y-100588998D01*
X134418681Y-100588998D01*
X134428681Y-100598998D01*
X134438681Y-100588998D01*
X134428681Y-100578998D01*
X134418681Y-100588998D01*
X134378681Y-100588998D01*
X134368681Y-100578998D01*
X134358681Y-100588998D01*
X134323315Y-100588998D01*
X134321347Y-100578820D01*
X134308449Y-100528998D01*
X134295416Y-100488998D01*
X134329739Y-100528998D01*
X134346529Y-100547999D01*
X134357493Y-100555194D01*
X134351372Y-100532362D01*
X134344413Y-100510893D01*
X134341059Y-100497123D01*
X134369853Y-100497123D01*
X134388252Y-100530458D01*
X134407815Y-100551054D01*
X134417739Y-100548998D01*
X134417483Y-100543744D01*
X134408297Y-100517123D01*
X134449853Y-100517123D01*
X134467446Y-100548998D01*
X134468252Y-100550458D01*
X134472750Y-100555194D01*
X134487815Y-100571054D01*
X134497739Y-100568998D01*
X134538681Y-100568998D01*
X134548681Y-100578998D01*
X134558681Y-100568998D01*
X134548681Y-100558998D01*
X134538681Y-100568998D01*
X134497739Y-100568998D01*
X134497483Y-100563744D01*
X134486360Y-100531508D01*
X134469254Y-100508596D01*
X134522955Y-100508596D01*
X134525348Y-100532331D01*
X134531364Y-100535460D01*
X134538681Y-100518998D01*
X134537238Y-100508410D01*
X134525348Y-100505664D01*
X134522955Y-100508596D01*
X134469254Y-100508596D01*
X134466836Y-100505358D01*
X134449976Y-100501037D01*
X134449853Y-100517123D01*
X134408297Y-100517123D01*
X134406360Y-100511508D01*
X134397475Y-100499608D01*
X134571404Y-100499608D01*
X134571985Y-100514752D01*
X134574337Y-100518998D01*
X134590317Y-100547852D01*
X134609124Y-100568871D01*
X134618375Y-100567820D01*
X134617991Y-100563042D01*
X134606487Y-100531678D01*
X134602798Y-100526590D01*
X134637342Y-100526590D01*
X134659141Y-100567820D01*
X134659764Y-100568998D01*
X134673271Y-100588998D01*
X134686778Y-100608998D01*
X134700285Y-100628998D01*
X134686670Y-100568998D01*
X134683696Y-100556033D01*
X134671985Y-100513998D01*
X134699585Y-100513998D01*
X134703875Y-100527555D01*
X134720759Y-100564408D01*
X134744749Y-100611346D01*
X134754422Y-100628998D01*
X134765381Y-100648998D01*
X134769687Y-100656857D01*
X134783096Y-100678998D01*
X134789415Y-100689432D01*
X134797778Y-100697560D01*
X134797843Y-100695177D01*
X134796563Y-100688998D01*
X134858681Y-100688998D01*
X134864860Y-100695177D01*
X134868681Y-100698998D01*
X134878681Y-100688998D01*
X134938681Y-100688998D01*
X134948681Y-100698998D01*
X134958681Y-100688998D01*
X134948681Y-100678998D01*
X134938681Y-100688998D01*
X134878681Y-100688998D01*
X134868681Y-100678998D01*
X134858681Y-100688998D01*
X134796563Y-100688998D01*
X134790659Y-100660503D01*
X134773465Y-100610066D01*
X134751759Y-100557349D01*
X134731038Y-100515832D01*
X134720921Y-100503870D01*
X134771443Y-100503870D01*
X134774743Y-100526458D01*
X134800523Y-100573998D01*
X134823728Y-100611986D01*
X134849927Y-100651398D01*
X134858896Y-100657681D01*
X134856478Y-100648998D01*
X134918681Y-100648998D01*
X134927364Y-100657681D01*
X134928681Y-100658998D01*
X134938681Y-100648998D01*
X134978681Y-100648998D01*
X134988681Y-100658998D01*
X134998681Y-100648998D01*
X134988681Y-100638998D01*
X134978681Y-100648998D01*
X134938681Y-100648998D01*
X134928681Y-100638998D01*
X134918681Y-100648998D01*
X134856478Y-100648998D01*
X134851783Y-100632139D01*
X134841653Y-100601199D01*
X134826428Y-100547139D01*
X134811588Y-100516018D01*
X134789748Y-100502099D01*
X134851068Y-100502099D01*
X134859280Y-100527326D01*
X134882927Y-100568998D01*
X134885758Y-100573372D01*
X134908772Y-100607141D01*
X134914903Y-100608511D01*
X134907948Y-100578998D01*
X134890711Y-100533760D01*
X134878845Y-100516728D01*
X134919390Y-100516728D01*
X134928020Y-100538997D01*
X134949553Y-100578998D01*
X134966939Y-100608511D01*
X134979007Y-100628998D01*
X134966469Y-100568998D01*
X134959300Y-100529733D01*
X134964646Y-100523931D01*
X134987106Y-100548998D01*
X135020281Y-100588998D01*
X135014213Y-100548998D01*
X135003405Y-100524219D01*
X134968604Y-100508998D01*
X135038681Y-100508998D01*
X135048681Y-100518998D01*
X135058681Y-100508998D01*
X135048681Y-100498998D01*
X135038681Y-100508998D01*
X134968604Y-100508998D01*
X134963414Y-100506728D01*
X134935703Y-100508004D01*
X134919390Y-100516728D01*
X134878845Y-100516728D01*
X134869232Y-100502930D01*
X134851746Y-100500331D01*
X134851068Y-100502099D01*
X134789748Y-100502099D01*
X134784882Y-100498998D01*
X134771443Y-100503870D01*
X134720921Y-100503870D01*
X134716801Y-100498998D01*
X134713656Y-100499227D01*
X134699585Y-100513998D01*
X134671985Y-100513998D01*
X134671918Y-100513756D01*
X134659677Y-100498970D01*
X134640212Y-100501914D01*
X134637771Y-100503255D01*
X134637342Y-100526590D01*
X134602798Y-100526590D01*
X134587236Y-100505128D01*
X134571404Y-100499608D01*
X134397475Y-100499608D01*
X134386836Y-100485358D01*
X134369976Y-100481037D01*
X134369853Y-100497123D01*
X134341059Y-100497123D01*
X134338681Y-100487362D01*
X134334569Y-100484867D01*
X134302378Y-100480660D01*
X134248681Y-100478998D01*
X134221832Y-100479491D01*
X134176572Y-100483353D01*
X134158681Y-100489794D01*
X134100272Y-100489794D01*
X134100275Y-100489663D01*
X134108359Y-100435208D01*
X134123681Y-100416134D01*
X134127317Y-100415800D01*
X134168827Y-100414472D01*
X134240491Y-100414057D01*
X134335295Y-100414438D01*
X134446223Y-100415497D01*
X134566259Y-100417119D01*
X134688387Y-100419186D01*
X134805594Y-100421582D01*
X134910863Y-100424190D01*
X134997179Y-100426894D01*
X135057527Y-100429576D01*
X135084890Y-100432121D01*
X135099095Y-100437780D01*
X135112491Y-100459705D01*
X135106595Y-100505729D01*
X135106018Y-100508998D01*
X135097046Y-100559794D01*
X135095091Y-100588998D01*
X135094113Y-100603604D01*
X135092651Y-100622224D01*
X135077844Y-100648998D01*
X135077409Y-100649784D01*
X135070047Y-100656667D01*
X135059081Y-100688998D01*
X135058681Y-100690178D01*
X135058970Y-100695818D01*
X135064811Y-100707359D01*
X135069728Y-100708998D01*
X135083391Y-100713552D01*
X135121484Y-100714824D01*
X135185864Y-100711602D01*
X135283304Y-100704312D01*
X135310116Y-100701527D01*
X135371319Y-100685129D01*
X135408304Y-100653467D01*
X135412827Y-100646390D01*
X135432852Y-100588818D01*
X135438198Y-100520628D01*
X135429050Y-100457833D01*
X135405589Y-100416446D01*
X135388193Y-100412680D01*
X135333130Y-100408395D01*
X135244136Y-100404542D01*
X135124572Y-100401117D01*
X134977798Y-100398119D01*
X134807175Y-100395546D01*
X134616063Y-100393394D01*
X134407822Y-100391662D01*
X134185813Y-100390348D01*
X133953396Y-100389448D01*
X133713932Y-100388961D01*
X133470780Y-100388885D01*
X133227301Y-100389217D01*
X132986855Y-100389954D01*
X132752803Y-100391095D01*
X132528505Y-100392638D01*
X132317322Y-100394579D01*
X132122613Y-100396916D01*
X131947739Y-100399648D01*
X131796061Y-100402772D01*
X131670939Y-100406286D01*
X131575732Y-100410187D01*
X131513802Y-100414472D01*
X131488509Y-100419141D01*
X131475845Y-100442401D01*
X131464638Y-100494561D01*
X131458567Y-100560433D01*
X131458176Y-100626757D01*
X131376188Y-100626757D01*
X131378130Y-100608588D01*
X131378681Y-100519982D01*
X131378678Y-100511047D01*
X131379548Y-100428691D01*
X131386766Y-100374154D01*
X131407060Y-100341690D01*
X131447158Y-100325553D01*
X131513789Y-100319995D01*
X131613681Y-100319271D01*
X131758681Y-100318998D01*
X131758681Y-100200618D01*
X131838681Y-100200618D01*
X131838681Y-100318998D01*
X132183681Y-100314962D01*
X132229955Y-100314379D01*
X132366387Y-100312356D01*
X132526821Y-100309649D01*
X132699911Y-100306463D01*
X132874313Y-100303003D01*
X133038681Y-100299475D01*
X133110884Y-100298031D01*
X133275403Y-100295615D01*
X133465492Y-100293722D01*
X133671655Y-100292406D01*
X133884396Y-100291720D01*
X134094218Y-100291718D01*
X134291626Y-100292453D01*
X135034570Y-100296881D01*
X135046353Y-100252939D01*
X135047074Y-100250144D01*
X135054964Y-100197542D01*
X135058053Y-100132116D01*
X135056603Y-100067027D01*
X135050875Y-100015439D01*
X135041131Y-99990512D01*
X135037475Y-99989550D01*
X135001671Y-99986340D01*
X134932643Y-99982820D01*
X134835483Y-99979167D01*
X134715283Y-99975559D01*
X134577135Y-99972172D01*
X134426131Y-99969182D01*
X134377807Y-99968305D01*
X134193371Y-99964572D01*
X133983332Y-99959838D01*
X133758767Y-99954376D01*
X133530753Y-99948464D01*
X133310365Y-99942377D01*
X133108681Y-99936390D01*
X133084077Y-99935634D01*
X132831267Y-99928808D01*
X132614889Y-99924918D01*
X132431766Y-99924006D01*
X132278719Y-99926110D01*
X132152572Y-99931273D01*
X132050145Y-99939535D01*
X131968263Y-99950935D01*
X131934509Y-99961678D01*
X131881687Y-100008733D01*
X131849537Y-100088780D01*
X131838681Y-100200618D01*
X131758681Y-100200618D01*
X131758681Y-100052820D01*
X131758683Y-100048438D01*
X131760232Y-99925679D01*
X131764985Y-99838046D01*
X131773355Y-99780903D01*
X131785757Y-99749615D01*
X131791115Y-99743248D01*
X131801246Y-99735994D01*
X131817827Y-99730144D01*
X131844212Y-99725636D01*
X131883755Y-99722406D01*
X131939812Y-99720391D01*
X132015735Y-99719527D01*
X132114880Y-99719751D01*
X132240600Y-99721000D01*
X132396250Y-99723211D01*
X132585185Y-99726320D01*
X132810757Y-99730264D01*
X133009062Y-99733596D01*
X133213147Y-99736661D01*
X133408945Y-99739252D01*
X133591171Y-99741312D01*
X133754542Y-99742789D01*
X133893774Y-99743629D01*
X134003582Y-99743777D01*
X134078681Y-99743180D01*
X134155544Y-99742692D01*
X134269169Y-99743949D01*
X134396502Y-99746981D01*
X134530832Y-99751471D01*
X134665444Y-99757106D01*
X134793627Y-99763571D01*
X134908668Y-99770550D01*
X135003854Y-99777730D01*
X135072472Y-99784795D01*
X135107810Y-99791431D01*
X135119638Y-99800723D01*
X135129121Y-99825120D01*
X135134944Y-99870308D01*
X135137875Y-99942682D01*
X135138681Y-100048637D01*
X135138681Y-100132116D01*
X135138681Y-100293998D01*
G37*
D10*
X138270000Y-97230000D02*
X151630000Y-97230000D01*
X151630000Y-90770000D01*
X138270000Y-90770000D01*
X138270000Y-97230000D01*
D11*
G36*
X153810000Y-101180000D02*
G01*
X153800000Y-101190000D01*
X153790000Y-101180000D01*
X153800000Y-101170000D01*
X153810000Y-101180000D01*
G37*
G36*
X153861156Y-101170899D02*
G01*
X153880000Y-101190000D01*
X153883726Y-101197081D01*
X153882361Y-101210000D01*
X153878845Y-101209100D01*
X153860000Y-101190000D01*
X153856275Y-101182918D01*
X153857640Y-101170000D01*
X153861156Y-101170899D01*
G37*
G36*
X156181156Y-101570899D02*
G01*
X156200000Y-101590000D01*
X156203726Y-101597081D01*
X156202361Y-101610000D01*
X156198845Y-101609100D01*
X156180000Y-101590000D01*
X156176275Y-101582918D01*
X156177640Y-101570000D01*
X156181156Y-101570899D01*
G37*
G36*
X156895000Y-101327448D02*
G01*
X156916333Y-101345754D01*
X156930000Y-101362448D01*
X156929672Y-101365958D01*
X156916642Y-101366093D01*
X156887449Y-101335000D01*
X156876277Y-101320508D01*
X156871311Y-101310151D01*
X156895000Y-101327448D01*
G37*
G36*
X153908469Y-101381687D02*
G01*
X153941901Y-101412910D01*
X153966222Y-101441168D01*
X153965789Y-101447410D01*
X153936114Y-101432802D01*
X153926505Y-101427473D01*
X153891079Y-101401439D01*
X153875119Y-101379333D01*
X153885720Y-101370000D01*
X153908469Y-101381687D01*
G37*
G36*
X157195835Y-102112445D02*
G01*
X157223225Y-102138293D01*
X157222400Y-102180957D01*
X157213885Y-102196930D01*
X157186167Y-102207852D01*
X157150728Y-102180876D01*
X157138254Y-102157281D01*
X157144977Y-102124190D01*
X157180000Y-102110000D01*
X157195835Y-102112445D01*
G37*
G36*
X154287373Y-102258800D02*
G01*
X154287559Y-102258987D01*
X154306013Y-102288409D01*
X154290834Y-102318996D01*
X154271699Y-102338834D01*
X154241745Y-102346714D01*
X154208204Y-102317835D01*
X154201258Y-102308943D01*
X154194171Y-102283396D01*
X154219846Y-102257640D01*
X154230134Y-102250425D01*
X154259773Y-102240042D01*
X154287373Y-102258800D01*
G37*
G36*
X156524596Y-101338649D02*
G01*
X156568892Y-101371674D01*
X156605966Y-101403071D01*
X156646622Y-101442047D01*
X156665559Y-101466674D01*
X156668278Y-101479901D01*
X156657446Y-101489481D01*
X156628476Y-101473649D01*
X156587742Y-101435000D01*
X156559195Y-101402881D01*
X156519945Y-101354916D01*
X156508346Y-101333284D01*
X156524596Y-101338649D01*
G37*
G36*
X155911885Y-100950002D02*
G01*
X155922346Y-100967738D01*
X155928386Y-101010213D01*
X155929641Y-101062519D01*
X155925745Y-101109750D01*
X155916334Y-101137000D01*
X155909549Y-101140860D01*
X155884252Y-101132251D01*
X155876380Y-101107931D01*
X155876613Y-101061625D01*
X155884116Y-101009739D01*
X155896595Y-100967466D01*
X155911758Y-100950000D01*
X155911885Y-100950002D01*
G37*
G36*
X157819201Y-101050247D02*
G01*
X157837227Y-101068938D01*
X157865518Y-101108340D01*
X157895876Y-101155732D01*
X157920103Y-101198393D01*
X157930000Y-101223602D01*
X157929971Y-101224737D01*
X157920265Y-101225694D01*
X157893817Y-101192053D01*
X157851570Y-101125000D01*
X157839092Y-101103308D01*
X157820324Y-101065118D01*
X157818118Y-101050000D01*
X157819201Y-101050247D01*
G37*
G36*
X156615294Y-101338612D02*
G01*
X156651755Y-101368221D01*
X156697369Y-101409909D01*
X156742223Y-101454187D01*
X156776404Y-101491563D01*
X156790000Y-101512547D01*
X156786937Y-101526331D01*
X156768436Y-101524859D01*
X156731428Y-101493224D01*
X156673891Y-101429990D01*
X156673724Y-101429795D01*
X156632018Y-101379520D01*
X156605296Y-101343671D01*
X156599338Y-101330000D01*
X156615294Y-101338612D01*
G37*
G36*
X157756280Y-102984239D02*
G01*
X157782103Y-103018824D01*
X157812342Y-103064875D01*
X157841462Y-103115000D01*
X157843476Y-103118835D01*
X157856711Y-103155097D01*
X157851153Y-103170000D01*
X157850606Y-103169980D01*
X157827444Y-103153350D01*
X157799909Y-103115000D01*
X157799347Y-103114015D01*
X157778737Y-103079113D01*
X157774060Y-103078101D01*
X157781754Y-103110000D01*
X157786513Y-103140358D01*
X157779277Y-103145125D01*
X157767692Y-103121024D01*
X157759269Y-103075125D01*
X157753253Y-103031312D01*
X157740367Y-102980000D01*
X157740020Y-102979031D01*
X157740407Y-102968511D01*
X157756280Y-102984239D01*
G37*
G36*
X155709020Y-102220023D02*
G01*
X155829286Y-102221608D01*
X155915744Y-102226679D01*
X155973720Y-102236629D01*
X156008537Y-102252850D01*
X156025522Y-102276735D01*
X156030000Y-102309677D01*
X156028355Y-102330462D01*
X156006656Y-102374828D01*
X155955620Y-102407468D01*
X155870000Y-102432408D01*
X155821188Y-102438169D01*
X155746407Y-102440220D01*
X155659128Y-102438481D01*
X155569850Y-102433546D01*
X155489072Y-102426010D01*
X155427289Y-102416467D01*
X155395000Y-102405511D01*
X155392121Y-102403000D01*
X155371615Y-102360142D01*
X155378861Y-102306792D01*
X155412100Y-102258099D01*
X155434308Y-102242071D01*
X155465566Y-102230750D01*
X155512779Y-102224038D01*
X155583954Y-102220824D01*
X155687100Y-102220000D01*
X155709020Y-102220023D01*
G37*
G36*
X155383344Y-100930467D02*
G01*
X155442156Y-100949515D01*
X155492749Y-100989998D01*
X155530227Y-101043020D01*
X155549693Y-101099690D01*
X155546250Y-101151114D01*
X155515000Y-101188398D01*
X155478233Y-101203139D01*
X155403384Y-101205910D01*
X155334451Y-101178865D01*
X155298904Y-101142945D01*
X155294666Y-101103802D01*
X155328686Y-101070703D01*
X155374829Y-101052183D01*
X155401996Y-101060950D01*
X155410000Y-101101466D01*
X155417574Y-101139657D01*
X155443343Y-101146466D01*
X155460318Y-101140651D01*
X155483882Y-101118382D01*
X155484247Y-101117174D01*
X155476255Y-101081488D01*
X155443926Y-101039270D01*
X155398091Y-101001687D01*
X155349582Y-100979908D01*
X155316848Y-100969093D01*
X155301874Y-100951384D01*
X155321427Y-100936348D01*
X155372719Y-100930000D01*
X155383344Y-100930467D01*
G37*
G36*
X155628370Y-100953677D02*
G01*
X155659263Y-101001270D01*
X155665333Y-101013762D01*
X155687266Y-101053840D01*
X155700425Y-101070000D01*
X155701711Y-101069534D01*
X155717618Y-101049082D01*
X155741189Y-101007701D01*
X155761280Y-100975535D01*
X155784688Y-100963333D01*
X155804053Y-100989564D01*
X155820670Y-101055000D01*
X155826213Y-101092719D01*
X155822711Y-101122291D01*
X155803407Y-101130000D01*
X155788782Y-101127907D01*
X155759093Y-101108531D01*
X155743675Y-101102922D01*
X155716778Y-101128531D01*
X155691837Y-101158165D01*
X155666924Y-101165181D01*
X155641804Y-101139169D01*
X155610936Y-101077457D01*
X155608338Y-101071574D01*
X155582259Y-101009484D01*
X155572476Y-100973579D01*
X155578121Y-100954632D01*
X155598325Y-100943410D01*
X155599414Y-100943026D01*
X155628370Y-100953677D01*
G37*
G36*
X156277765Y-102345707D02*
G01*
X156275768Y-102437438D01*
X156271667Y-102543315D01*
X156266261Y-102627856D01*
X156259971Y-102684838D01*
X156253219Y-102708041D01*
X156229950Y-102710948D01*
X156171848Y-102713256D01*
X156084483Y-102714814D01*
X155973296Y-102715559D01*
X155843728Y-102715428D01*
X155701221Y-102714359D01*
X155168524Y-102708719D01*
X155149262Y-102658057D01*
X155144652Y-102640000D01*
X155180000Y-102640000D01*
X155694993Y-102640000D01*
X156209985Y-102640000D01*
X156210713Y-102520000D01*
X156211173Y-102497701D01*
X156216026Y-102412102D01*
X156224965Y-102310376D01*
X156236533Y-102210000D01*
X156261626Y-102020000D01*
X155731524Y-102025955D01*
X155593503Y-102027649D01*
X155465785Y-102029501D01*
X155357043Y-102031373D01*
X155272532Y-102033164D01*
X155217508Y-102034775D01*
X155197227Y-102036106D01*
X155196383Y-102041570D01*
X155194233Y-102079034D01*
X155191707Y-102145981D01*
X155189052Y-102235367D01*
X155186516Y-102340150D01*
X155180000Y-102640000D01*
X155144652Y-102640000D01*
X155143592Y-102635850D01*
X155136130Y-102573631D01*
X155131437Y-102488623D01*
X155129420Y-102389787D01*
X155129984Y-102286085D01*
X155133034Y-102186480D01*
X155138478Y-102099933D01*
X155146220Y-102035406D01*
X155156165Y-102001862D01*
X155160486Y-101996524D01*
X155172529Y-101987197D01*
X155192372Y-101980307D01*
X155224612Y-101975686D01*
X155273846Y-101973165D01*
X155344672Y-101972575D01*
X155441687Y-101973748D01*
X155569487Y-101976514D01*
X155732671Y-101980705D01*
X156283011Y-101995331D01*
X156282642Y-102020000D01*
X156277765Y-102345707D01*
G37*
G36*
X153598405Y-98142914D02*
G01*
X153731497Y-98181269D01*
X153772750Y-98194728D01*
X153876970Y-98219828D01*
X153953772Y-98223337D01*
X153965863Y-98222017D01*
X154022671Y-98225591D01*
X154061872Y-98252067D01*
X154065419Y-98255960D01*
X154076984Y-98269841D01*
X154082280Y-98283668D01*
X154078285Y-98300689D01*
X154061976Y-98324153D01*
X154030329Y-98357309D01*
X153980323Y-98403407D01*
X153908933Y-98465694D01*
X153813137Y-98547420D01*
X153689913Y-98651833D01*
X153352270Y-98937815D01*
X153408364Y-98971928D01*
X153467862Y-99021092D01*
X153530952Y-99107984D01*
X153574047Y-99210098D01*
X153590000Y-99313977D01*
X153579639Y-99378818D01*
X153541908Y-99458821D01*
X153485665Y-99518785D01*
X153444312Y-99540278D01*
X153366349Y-99550002D01*
X153285743Y-99528449D01*
X153208580Y-99479937D01*
X153140947Y-99408783D01*
X153088928Y-99319305D01*
X153058612Y-99215821D01*
X153052638Y-99166768D01*
X153053806Y-99117738D01*
X153066557Y-99071213D01*
X153094187Y-99022633D01*
X153139989Y-98967441D01*
X153207256Y-98901077D01*
X153299284Y-98818985D01*
X153419366Y-98716606D01*
X153746452Y-98440720D01*
X153625792Y-98395360D01*
X153578064Y-98378722D01*
X153466725Y-98354081D01*
X153370654Y-98357789D01*
X153280594Y-98389697D01*
X153258911Y-98400202D01*
X153215061Y-98417468D01*
X153193235Y-98419901D01*
X153192317Y-98418789D01*
X153193639Y-98390826D01*
X153213516Y-98343233D01*
X153245919Y-98286644D01*
X153284817Y-98231693D01*
X153324178Y-98189014D01*
X153334420Y-98180472D01*
X153404938Y-98142420D01*
X153491242Y-98129932D01*
X153598405Y-98142914D01*
G37*
G36*
X156353679Y-100972842D02*
G01*
X156361455Y-101038482D01*
X156363353Y-101071776D01*
X156364176Y-101086216D01*
X156362138Y-101131125D01*
X156350036Y-101155134D01*
X156324721Y-101169480D01*
X156310398Y-101175137D01*
X156269093Y-101186264D01*
X156238210Y-101176268D01*
X156199091Y-101140909D01*
X156192208Y-101134213D01*
X156161270Y-101111469D01*
X156150000Y-101118808D01*
X156141588Y-101131026D01*
X156105452Y-101146067D01*
X156054312Y-101155454D01*
X156003045Y-101156834D01*
X155966525Y-101147851D01*
X155956663Y-101139427D01*
X155956143Y-101116826D01*
X155983697Y-101097921D01*
X156031181Y-101090000D01*
X156043108Y-101089883D01*
X156074771Y-101084124D01*
X156079901Y-101075000D01*
X156214900Y-101075000D01*
X156220370Y-101085216D01*
X156252130Y-101103608D01*
X156291069Y-101102625D01*
X156316827Y-101081057D01*
X156319464Y-101071776D01*
X156309625Y-101054692D01*
X156267706Y-101050000D01*
X156225283Y-101055938D01*
X156214900Y-101075000D01*
X156079901Y-101075000D01*
X156087596Y-101061313D01*
X156090000Y-101010000D01*
X156094200Y-100959143D01*
X156106898Y-100932909D01*
X156123746Y-100943063D01*
X156140279Y-100991268D01*
X156150086Y-101028841D01*
X156161547Y-101037660D01*
X156181232Y-101016268D01*
X156197149Y-100989098D01*
X156206562Y-100955411D01*
X156254294Y-100955411D01*
X156270000Y-100970000D01*
X156280983Y-100976697D01*
X156317410Y-100988610D01*
X156330000Y-100970000D01*
X156320115Y-100957595D01*
X156285000Y-100950306D01*
X156274158Y-100950528D01*
X156254294Y-100955411D01*
X156206562Y-100955411D01*
X156209364Y-100945381D01*
X156219147Y-100923281D01*
X156254290Y-100900822D01*
X156298274Y-100892858D01*
X156333199Y-100905198D01*
X156342079Y-100923096D01*
X156353016Y-100970000D01*
X156353679Y-100972842D01*
G37*
G36*
X156820000Y-97778398D02*
G01*
X156822821Y-97780353D01*
X156853984Y-97824230D01*
X156871721Y-97902321D01*
X156872646Y-97909198D01*
X156888113Y-97979419D01*
X156914521Y-98066539D01*
X156946721Y-98153331D01*
X156964491Y-98198324D01*
X156999765Y-98315491D01*
X157006990Y-98410468D01*
X156984920Y-98489161D01*
X156932308Y-98557477D01*
X156847907Y-98621321D01*
X156841842Y-98625132D01*
X156782969Y-98658576D01*
X156751921Y-98666129D01*
X156745629Y-98647062D01*
X156761021Y-98600642D01*
X156762675Y-98596621D01*
X156787710Y-98490510D01*
X156777849Y-98377576D01*
X156732640Y-98252303D01*
X156726272Y-98238536D01*
X156708999Y-98199555D01*
X156694636Y-98171921D01*
X156679822Y-98158218D01*
X156661199Y-98161031D01*
X156635406Y-98182945D01*
X156599082Y-98226543D01*
X156548869Y-98294410D01*
X156481405Y-98389131D01*
X156393331Y-98513290D01*
X156343057Y-98583211D01*
X156260109Y-98694315D01*
X156195509Y-98774022D01*
X156147702Y-98824199D01*
X156115130Y-98846711D01*
X156043708Y-98865248D01*
X155946595Y-98868177D01*
X155854547Y-98848592D01*
X155771107Y-98810691D01*
X155699819Y-98758676D01*
X155644229Y-98696746D01*
X155607881Y-98629101D01*
X155594319Y-98559942D01*
X155607088Y-98493468D01*
X155649732Y-98433879D01*
X155725795Y-98385376D01*
X155751713Y-98374628D01*
X155826552Y-98356122D01*
X155907254Y-98360041D01*
X155966379Y-98370719D01*
X156026272Y-98390421D01*
X156081086Y-98423934D01*
X156146770Y-98479191D01*
X156220000Y-98545080D01*
X156500000Y-98148617D01*
X156585758Y-98027546D01*
X156654232Y-97932217D01*
X156705921Y-97862717D01*
X156743894Y-97815496D01*
X156771220Y-97787003D01*
X156790968Y-97773689D01*
X156806205Y-97772004D01*
X156820000Y-97778398D01*
G37*
G36*
X157970455Y-98550044D02*
G01*
X157973436Y-98554951D01*
X157994344Y-98590509D01*
X158031647Y-98654578D01*
X158082713Y-98742614D01*
X158144907Y-98850075D01*
X158215599Y-98972421D01*
X158292155Y-99105107D01*
X158594915Y-99630214D01*
X158674666Y-99558164D01*
X158698566Y-99537388D01*
X158797020Y-99471400D01*
X158903075Y-99435435D01*
X159030306Y-99424386D01*
X159132766Y-99433273D01*
X159239446Y-99467787D01*
X159320483Y-99525524D01*
X159371970Y-99603502D01*
X159390000Y-99698743D01*
X159375122Y-99788792D01*
X159325557Y-99883935D01*
X159246667Y-99966170D01*
X159144092Y-100029795D01*
X159023472Y-100069112D01*
X159005534Y-100072570D01*
X158947291Y-100082670D01*
X158908179Y-100087808D01*
X158896677Y-100087909D01*
X158833960Y-100077007D01*
X158758647Y-100052638D01*
X158687814Y-100021085D01*
X158638541Y-99988628D01*
X158618032Y-99962274D01*
X158580261Y-99905210D01*
X158529041Y-99823159D01*
X158467497Y-99721225D01*
X158398753Y-99604512D01*
X158325936Y-99478121D01*
X158324880Y-99476269D01*
X158254272Y-99352990D01*
X158190032Y-99241984D01*
X158134821Y-99147761D01*
X158091303Y-99074830D01*
X158062142Y-99027702D01*
X158050000Y-99010885D01*
X158038069Y-99021408D01*
X158017714Y-99055156D01*
X158016271Y-99058043D01*
X157994407Y-99100511D01*
X157961015Y-99164191D01*
X157922714Y-99236453D01*
X157914818Y-99251448D01*
X157872392Y-99345370D01*
X157853801Y-99426020D01*
X157857355Y-99508608D01*
X157881361Y-99608342D01*
X157893402Y-99651942D01*
X157903890Y-99700043D01*
X157904662Y-99722005D01*
X157898826Y-99723614D01*
X157868112Y-99710461D01*
X157821149Y-99678084D01*
X157766146Y-99633402D01*
X157711315Y-99583334D01*
X157664863Y-99534800D01*
X157635000Y-99494720D01*
X157607546Y-99437737D01*
X157590700Y-99372359D01*
X157591634Y-99302097D01*
X157611434Y-99219841D01*
X157651187Y-99118481D01*
X157711980Y-98990907D01*
X157760769Y-98891430D01*
X157796256Y-98812399D01*
X157817292Y-98753972D01*
X157826503Y-98708775D01*
X157826519Y-98669433D01*
X157826205Y-98666091D01*
X157825558Y-98614363D01*
X157842226Y-98583441D01*
X157885296Y-98555749D01*
X157927611Y-98535202D01*
X157953367Y-98532662D01*
X157970455Y-98550044D01*
G37*
G36*
X154808911Y-102006651D02*
G01*
X154839043Y-102134782D01*
X154840919Y-102156666D01*
X154850000Y-102262605D01*
X154849484Y-102281933D01*
X154848557Y-102316636D01*
X154839126Y-102383702D01*
X154817049Y-102451085D01*
X154794370Y-102500000D01*
X154777911Y-102535499D01*
X154745443Y-102596964D01*
X154668495Y-102712671D01*
X154583468Y-102796378D01*
X154483850Y-102853653D01*
X154363126Y-102890064D01*
X154295120Y-102899842D01*
X154163049Y-102898520D01*
X154029608Y-102874863D01*
X153904790Y-102831835D01*
X153798589Y-102772403D01*
X153720999Y-102699531D01*
X153707602Y-102681496D01*
X153625850Y-102538534D01*
X153614818Y-102500000D01*
X153830000Y-102500000D01*
X153840000Y-102510000D01*
X153850000Y-102500000D01*
X153840000Y-102490000D01*
X153830000Y-102500000D01*
X153614818Y-102500000D01*
X153582844Y-102388317D01*
X153582604Y-102380000D01*
X154030000Y-102380000D01*
X154040000Y-102390000D01*
X154050000Y-102380000D01*
X154040000Y-102370000D01*
X154030000Y-102380000D01*
X153582604Y-102380000D01*
X153579477Y-102271713D01*
X154130576Y-102271713D01*
X154139889Y-102331621D01*
X154166575Y-102376900D01*
X154170609Y-102380000D01*
X154181419Y-102388307D01*
X154239353Y-102405758D01*
X154298821Y-102391800D01*
X154349330Y-102350833D01*
X154380390Y-102287256D01*
X154381611Y-102281933D01*
X154380253Y-102237062D01*
X154347152Y-102202256D01*
X154322377Y-102188572D01*
X154260051Y-102172423D01*
X154198146Y-102173985D01*
X154154001Y-102194000D01*
X154139947Y-102216214D01*
X154130576Y-102271713D01*
X153579477Y-102271713D01*
X153578238Y-102228815D01*
X153591187Y-102162682D01*
X153773538Y-102162682D01*
X153790000Y-102170000D01*
X153800588Y-102168556D01*
X153803334Y-102156666D01*
X153800402Y-102154273D01*
X153776667Y-102156666D01*
X153773538Y-102162682D01*
X153591187Y-102162682D01*
X153611685Y-102057996D01*
X153634430Y-101986643D01*
X153637281Y-101980000D01*
X154650000Y-101980000D01*
X154660000Y-101990000D01*
X154670000Y-101980000D01*
X154660000Y-101970000D01*
X154650000Y-101980000D01*
X153637281Y-101980000D01*
X153663654Y-101918545D01*
X153700474Y-101863658D01*
X153753200Y-101807263D01*
X153797427Y-101765879D01*
X153890678Y-101694921D01*
X153985781Y-101650126D01*
X154094852Y-101626738D01*
X154230000Y-101620000D01*
X154277686Y-101620246D01*
X154359107Y-101623383D01*
X154420123Y-101632114D01*
X154474147Y-101648917D01*
X154534592Y-101676271D01*
X154586195Y-101705375D01*
X154657507Y-101756292D01*
X154710185Y-101806271D01*
X154763718Y-101891637D01*
X154798439Y-101980000D01*
X154808911Y-102006651D01*
G37*
G36*
X157838945Y-101962409D02*
G01*
X157864510Y-102080380D01*
X157864401Y-102160000D01*
X157864317Y-102221483D01*
X157861750Y-102250349D01*
X157848156Y-102320000D01*
X157840349Y-102360000D01*
X157833147Y-102396899D01*
X157831771Y-102400000D01*
X157818454Y-102430000D01*
X157782942Y-102510000D01*
X157777424Y-102522430D01*
X157733769Y-102580000D01*
X157718603Y-102600000D01*
X157690153Y-102637518D01*
X157664212Y-102660000D01*
X157582735Y-102730611D01*
X157532466Y-102756666D01*
X157450371Y-102799217D01*
X157290000Y-102843373D01*
X157190569Y-102856053D01*
X157029388Y-102849967D01*
X156882292Y-102809947D01*
X156799359Y-102762682D01*
X157193538Y-102762682D01*
X157210000Y-102770000D01*
X157220588Y-102768556D01*
X157223334Y-102756666D01*
X157220402Y-102754273D01*
X157196667Y-102756666D01*
X157193538Y-102762682D01*
X156799359Y-102762682D01*
X156754270Y-102736985D01*
X156754123Y-102736873D01*
X156678439Y-102660000D01*
X157450000Y-102660000D01*
X157460000Y-102670000D01*
X157470000Y-102660000D01*
X157460000Y-102650000D01*
X157450000Y-102660000D01*
X156678439Y-102660000D01*
X156669800Y-102651225D01*
X156637288Y-102600000D01*
X157270000Y-102600000D01*
X157280000Y-102610000D01*
X157290000Y-102600000D01*
X157280000Y-102590000D01*
X157270000Y-102600000D01*
X156637288Y-102600000D01*
X156624594Y-102580000D01*
X156970000Y-102580000D01*
X156980000Y-102590000D01*
X156990000Y-102580000D01*
X156980000Y-102570000D01*
X156970000Y-102580000D01*
X156624594Y-102580000D01*
X156596636Y-102535950D01*
X156585532Y-102510000D01*
X157390000Y-102510000D01*
X157390814Y-102515481D01*
X157411181Y-102530000D01*
X157418415Y-102528429D01*
X157420000Y-102510000D01*
X157415896Y-102504014D01*
X157398820Y-102490000D01*
X157396824Y-102490519D01*
X157390000Y-102510000D01*
X156585532Y-102510000D01*
X156546850Y-102419598D01*
X157694274Y-102419598D01*
X157696667Y-102443333D01*
X157702683Y-102446462D01*
X157710000Y-102430000D01*
X157708557Y-102419412D01*
X157696667Y-102416666D01*
X157694274Y-102419598D01*
X156546850Y-102419598D01*
X156538802Y-102400789D01*
X156538594Y-102400000D01*
X157570000Y-102400000D01*
X157580000Y-102410000D01*
X157590000Y-102400000D01*
X157580000Y-102390000D01*
X157570000Y-102400000D01*
X156538594Y-102400000D01*
X156528041Y-102360000D01*
X157470000Y-102360000D01*
X157480000Y-102370000D01*
X157490000Y-102360000D01*
X157480000Y-102350000D01*
X157470000Y-102360000D01*
X156528041Y-102360000D01*
X156517488Y-102320000D01*
X157670000Y-102320000D01*
X157680000Y-102330000D01*
X157690000Y-102320000D01*
X157680000Y-102310000D01*
X157670000Y-102320000D01*
X156517488Y-102320000D01*
X156500467Y-102255483D01*
X156493148Y-102182770D01*
X157073008Y-102182770D01*
X157094000Y-102226000D01*
X157132425Y-102246114D01*
X157186057Y-102245885D01*
X157228997Y-102221209D01*
X157237009Y-102208643D01*
X157246299Y-102160000D01*
X157790000Y-102160000D01*
X157800000Y-102170000D01*
X157810000Y-102160000D01*
X157800000Y-102150000D01*
X157793160Y-102156840D01*
X157790000Y-102160000D01*
X157246299Y-102160000D01*
X157246903Y-102156840D01*
X157235971Y-102101701D01*
X157207020Y-102063393D01*
X157188428Y-102055316D01*
X157143974Y-102059772D01*
X157105149Y-102089362D01*
X157079109Y-102133792D01*
X157073008Y-102182770D01*
X156493148Y-102182770D01*
X156485801Y-102109776D01*
X156487259Y-102061020D01*
X156514718Y-101927918D01*
X156539766Y-101880000D01*
X157370000Y-101880000D01*
X157380000Y-101890000D01*
X157390000Y-101880000D01*
X157380000Y-101870000D01*
X157370000Y-101880000D01*
X156539766Y-101880000D01*
X156578235Y-101806408D01*
X156679708Y-101692405D01*
X156716144Y-101660475D01*
X156847631Y-101572565D01*
X156989204Y-101520934D01*
X157148000Y-101502692D01*
X157154121Y-101502606D01*
X157237487Y-101503747D01*
X157300699Y-101512584D01*
X157361955Y-101533333D01*
X157439452Y-101570211D01*
X157518817Y-101616732D01*
X157612005Y-101682931D01*
X157690586Y-101750000D01*
X157695365Y-101754676D01*
X157783828Y-101857274D01*
X157795742Y-101880000D01*
X157838945Y-101962409D01*
G37*
G36*
X155985220Y-102890000D02*
G01*
X155985578Y-102895502D01*
X155985449Y-102900000D01*
X155984046Y-102948799D01*
X155983729Y-102950000D01*
X155974836Y-102983711D01*
X155957316Y-102992803D01*
X155903338Y-103004679D01*
X155818972Y-103015974D01*
X155709616Y-103025832D01*
X155704963Y-103026176D01*
X155606724Y-103033446D01*
X155521300Y-103039810D01*
X155457717Y-103044593D01*
X155425000Y-103047121D01*
X155406287Y-103045356D01*
X155390000Y-103028819D01*
X155388223Y-103021359D01*
X155369278Y-103020446D01*
X155363309Y-103021612D01*
X155355469Y-102997902D01*
X155358073Y-102936627D01*
X155359701Y-102920000D01*
X155450000Y-102920000D01*
X155460000Y-102930000D01*
X155470000Y-102920000D01*
X155460000Y-102910000D01*
X155450000Y-102920000D01*
X155359701Y-102920000D01*
X155361200Y-102904698D01*
X155363578Y-102880000D01*
X155430000Y-102880000D01*
X155440000Y-102890000D01*
X155450000Y-102880000D01*
X155470000Y-102880000D01*
X155480000Y-102890000D01*
X155481875Y-102888125D01*
X155521172Y-102888125D01*
X155538765Y-102920000D01*
X155539571Y-102921460D01*
X155559134Y-102942056D01*
X155569058Y-102940000D01*
X155610000Y-102940000D01*
X155620000Y-102950000D01*
X155630000Y-102940000D01*
X155620000Y-102930000D01*
X155610000Y-102940000D01*
X155569058Y-102940000D01*
X155568802Y-102934746D01*
X155557679Y-102902510D01*
X155538155Y-102876360D01*
X155521295Y-102872039D01*
X155521234Y-102880000D01*
X155521172Y-102888125D01*
X155481875Y-102888125D01*
X155490000Y-102880000D01*
X155481302Y-102871302D01*
X155574904Y-102871302D01*
X155580000Y-102890000D01*
X155584109Y-102895920D01*
X155602361Y-102910000D01*
X155605097Y-102908697D01*
X155602726Y-102900000D01*
X155650000Y-102900000D01*
X155658697Y-102908697D01*
X155660000Y-102910000D01*
X155670000Y-102900000D01*
X155660000Y-102890000D01*
X155650000Y-102900000D01*
X155602726Y-102900000D01*
X155600000Y-102890000D01*
X155595892Y-102884079D01*
X155589407Y-102879077D01*
X155737126Y-102879077D01*
X155745837Y-102900000D01*
X155750000Y-102910000D01*
X155765345Y-102934668D01*
X155770931Y-102940000D01*
X155781408Y-102950000D01*
X155782875Y-102940922D01*
X155770000Y-102910000D01*
X155754656Y-102885331D01*
X155748103Y-102879077D01*
X155797126Y-102879077D01*
X155810000Y-102910000D01*
X155825345Y-102934668D01*
X155831897Y-102940922D01*
X155841408Y-102950000D01*
X155842875Y-102940922D01*
X155830000Y-102910000D01*
X155814656Y-102885331D01*
X155798593Y-102870000D01*
X155797126Y-102879077D01*
X155748103Y-102879077D01*
X155738593Y-102870000D01*
X155737126Y-102879077D01*
X155589407Y-102879077D01*
X155577640Y-102870000D01*
X155574904Y-102871302D01*
X155481302Y-102871302D01*
X155480000Y-102870000D01*
X155470000Y-102880000D01*
X155450000Y-102880000D01*
X155440000Y-102870000D01*
X155430000Y-102880000D01*
X155363578Y-102880000D01*
X155364994Y-102865291D01*
X155843960Y-102865291D01*
X155861840Y-102900000D01*
X155887048Y-102935231D01*
X155892760Y-102940922D01*
X155901872Y-102950000D01*
X155900579Y-102936173D01*
X155886361Y-102900000D01*
X155910000Y-102900000D01*
X155920000Y-102910000D01*
X155930000Y-102900000D01*
X155920000Y-102890000D01*
X155910000Y-102900000D01*
X155886361Y-102900000D01*
X155866356Y-102866149D01*
X155858730Y-102860000D01*
X155890000Y-102860000D01*
X155900000Y-102870000D01*
X155910000Y-102860000D01*
X155900000Y-102850000D01*
X155890000Y-102860000D01*
X155858730Y-102860000D01*
X155846329Y-102850000D01*
X155845726Y-102850032D01*
X155843960Y-102865291D01*
X155364994Y-102865291D01*
X155366265Y-102852097D01*
X155367410Y-102839598D01*
X155934274Y-102839598D01*
X155936331Y-102860000D01*
X155936667Y-102863333D01*
X155942683Y-102866462D01*
X155950000Y-102850000D01*
X155948557Y-102839412D01*
X155936667Y-102836666D01*
X155934274Y-102839598D01*
X155367410Y-102839598D01*
X155368796Y-102824479D01*
X155374604Y-102821626D01*
X155412492Y-102817330D01*
X155479779Y-102814557D01*
X155569578Y-102813532D01*
X155675000Y-102814479D01*
X155980000Y-102820000D01*
X155982237Y-102850000D01*
X155985220Y-102890000D01*
G37*
G36*
X155627827Y-101485709D02*
G01*
X155632676Y-101561155D01*
X155632679Y-101561252D01*
X155635538Y-101670000D01*
X155635625Y-101673692D01*
X155638639Y-101802027D01*
X155638751Y-101806816D01*
X155639241Y-101827664D01*
X155640000Y-101860000D01*
X155420000Y-101881815D01*
X155344373Y-101888993D01*
X155264811Y-101895747D01*
X155207018Y-101899715D01*
X155180000Y-101900206D01*
X155171943Y-101885783D01*
X155160921Y-101838657D01*
X155154866Y-101799598D01*
X155214274Y-101799598D01*
X155216667Y-101823333D01*
X155222683Y-101826462D01*
X155230000Y-101810000D01*
X155228557Y-101799412D01*
X155216667Y-101796666D01*
X155214274Y-101799598D01*
X155154866Y-101799598D01*
X155149778Y-101766780D01*
X155141999Y-101696457D01*
X155213762Y-101696457D01*
X155218839Y-101732380D01*
X155241063Y-101778814D01*
X155268151Y-101810000D01*
X155272237Y-101814704D01*
X155301126Y-101830000D01*
X155307732Y-101827664D01*
X155304624Y-101801825D01*
X155273825Y-101747643D01*
X155254558Y-101719802D01*
X155226542Y-101690090D01*
X155213762Y-101696457D01*
X155141999Y-101696457D01*
X155140000Y-101678390D01*
X155132436Y-101605461D01*
X155129227Y-101581213D01*
X155212291Y-101581213D01*
X155215423Y-101598778D01*
X155235475Y-101634375D01*
X155244634Y-101647253D01*
X155283410Y-101696623D01*
X155329024Y-101750000D01*
X155351068Y-101773640D01*
X155358973Y-101778056D01*
X155344078Y-101752869D01*
X155305840Y-101696838D01*
X155297561Y-101685045D01*
X155256893Y-101629757D01*
X155226448Y-101592648D01*
X155212291Y-101581213D01*
X155129227Y-101581213D01*
X155121538Y-101523109D01*
X155113771Y-101479254D01*
X155210000Y-101479254D01*
X155213542Y-101491212D01*
X155237644Y-101532236D01*
X155279531Y-101590022D01*
X155333289Y-101656087D01*
X155389643Y-101720258D01*
X155438187Y-101771955D01*
X155444724Y-101778056D01*
X155469778Y-101801438D01*
X155481976Y-101806816D01*
X155472346Y-101786197D01*
X155438449Y-101737689D01*
X155371823Y-101649482D01*
X155303342Y-101563215D01*
X155252515Y-101504924D01*
X155220887Y-101476354D01*
X155210000Y-101479254D01*
X155113771Y-101479254D01*
X155110612Y-101461417D01*
X155101161Y-101430000D01*
X155096979Y-101423210D01*
X155092319Y-101410230D01*
X155113718Y-101425421D01*
X155119767Y-101430149D01*
X155142700Y-101437979D01*
X155143518Y-101436244D01*
X155277089Y-101436244D01*
X155279528Y-101446027D01*
X155301254Y-101481745D01*
X155340280Y-101536506D01*
X155391755Y-101603247D01*
X155402902Y-101617221D01*
X155478738Y-101711294D01*
X155530624Y-101773448D01*
X155558688Y-101803689D01*
X155563060Y-101802027D01*
X155543870Y-101768467D01*
X155501247Y-101703017D01*
X155435321Y-101605685D01*
X155403682Y-101559971D01*
X155352698Y-101490209D01*
X155317015Y-101448915D01*
X155295740Y-101434112D01*
X155368773Y-101434112D01*
X155370324Y-101450938D01*
X155393542Y-101486047D01*
X155441155Y-101545000D01*
X155447246Y-101552294D01*
X155495354Y-101609812D01*
X155533390Y-101655135D01*
X155553584Y-101679000D01*
X155561876Y-101685884D01*
X155570000Y-101673692D01*
X155563345Y-101647532D01*
X155536948Y-101597349D01*
X155497869Y-101539956D01*
X155454129Y-101485901D01*
X155414274Y-101446258D01*
X155470000Y-101446258D01*
X155472006Y-101452215D01*
X155494063Y-101481612D01*
X155532633Y-101521258D01*
X155568164Y-101553360D01*
X155583594Y-101561252D01*
X155577445Y-101539400D01*
X155551148Y-101485000D01*
X155536681Y-101462360D01*
X155523032Y-101450000D01*
X155560000Y-101450000D01*
X155564105Y-101455985D01*
X155581181Y-101470000D01*
X155583177Y-101469480D01*
X155590000Y-101450000D01*
X155589187Y-101444518D01*
X155568820Y-101430000D01*
X155561586Y-101431570D01*
X155560000Y-101450000D01*
X155523032Y-101450000D01*
X155507137Y-101435606D01*
X155481160Y-101428448D01*
X155470000Y-101446258D01*
X155414274Y-101446258D01*
X155413746Y-101445733D01*
X155384739Y-101430000D01*
X155368773Y-101434112D01*
X155295740Y-101434112D01*
X155293017Y-101432217D01*
X155277089Y-101436244D01*
X155143518Y-101436244D01*
X155155685Y-101410421D01*
X155156679Y-101406877D01*
X155171245Y-101383706D01*
X155203782Y-101372755D01*
X155265194Y-101370000D01*
X155310784Y-101370925D01*
X155400215Y-101375596D01*
X155487410Y-101382884D01*
X155520717Y-101386401D01*
X155567437Y-101394009D01*
X155598601Y-101408712D01*
X155617600Y-101437087D01*
X155620316Y-101450000D01*
X155627827Y-101485709D01*
G37*
G36*
X156292717Y-101484325D02*
G01*
X156299023Y-101586126D01*
X156301915Y-101639446D01*
X156302754Y-101673512D01*
X156304317Y-101737021D01*
X156301386Y-101804112D01*
X156293228Y-101836126D01*
X156278779Y-101842865D01*
X156230528Y-101850507D01*
X156159606Y-101855174D01*
X156076355Y-101856896D01*
X155991116Y-101855700D01*
X155914229Y-101851613D01*
X155856036Y-101844663D01*
X155826878Y-101834877D01*
X155820718Y-101813096D01*
X155815852Y-101758590D01*
X155815307Y-101740000D01*
X155870000Y-101740000D01*
X155872183Y-101753791D01*
X155889373Y-101770000D01*
X155897649Y-101765753D01*
X155897233Y-101740000D01*
X155890757Y-101725639D01*
X155877861Y-101710000D01*
X155874280Y-101713315D01*
X155870000Y-101740000D01*
X155815307Y-101740000D01*
X155813568Y-101680736D01*
X155813964Y-101631681D01*
X155873575Y-101631681D01*
X155884768Y-101664857D01*
X155913376Y-101708768D01*
X155921560Y-101718962D01*
X155958622Y-101759085D01*
X155974203Y-101765753D01*
X155974743Y-101765984D01*
X155967900Y-101741543D01*
X155938233Y-101691310D01*
X155990152Y-101691310D01*
X156007449Y-101715000D01*
X156013684Y-101722743D01*
X156040272Y-101748435D01*
X156050000Y-101742448D01*
X156042700Y-101732120D01*
X156015000Y-101707448D01*
X156000509Y-101696276D01*
X155990152Y-101691310D01*
X155938233Y-101691310D01*
X155936069Y-101687646D01*
X155915322Y-101658693D01*
X155887978Y-101629490D01*
X155874160Y-101627520D01*
X155873575Y-101631681D01*
X155813964Y-101631681D01*
X155814314Y-101588313D01*
X155815679Y-101533510D01*
X155872597Y-101533510D01*
X155873259Y-101542254D01*
X155892806Y-101575303D01*
X155930544Y-101617211D01*
X155995896Y-101680000D01*
X155937948Y-101596299D01*
X155915048Y-101565675D01*
X155886723Y-101536232D01*
X155872597Y-101533510D01*
X155815679Y-101533510D01*
X155818374Y-101425302D01*
X155870633Y-101425302D01*
X155871087Y-101427437D01*
X155886385Y-101454544D01*
X155918780Y-101502850D01*
X155961991Y-101563779D01*
X156009737Y-101628754D01*
X156048736Y-101680000D01*
X156055735Y-101689197D01*
X156093705Y-101736534D01*
X156099160Y-101742448D01*
X156117364Y-101762186D01*
X156129791Y-101765984D01*
X156133325Y-101767064D01*
X156172996Y-101777064D01*
X156194188Y-101781478D01*
X156216612Y-101778129D01*
X156227361Y-101753108D01*
X156233347Y-101697281D01*
X156234813Y-101673512D01*
X156231336Y-101619487D01*
X156212406Y-101569847D01*
X156172516Y-101507403D01*
X156140562Y-101464483D01*
X156106316Y-101425165D01*
X156092426Y-101414896D01*
X156167285Y-101414896D01*
X156170337Y-101435217D01*
X156198811Y-101468882D01*
X156217913Y-101485473D01*
X156244554Y-101499604D01*
X156246377Y-101484325D01*
X156220632Y-101442910D01*
X156198225Y-101421458D01*
X156193190Y-101420000D01*
X156230000Y-101420000D01*
X156240000Y-101430000D01*
X156250000Y-101420000D01*
X156240000Y-101410000D01*
X156230000Y-101420000D01*
X156193190Y-101420000D01*
X156170079Y-101413307D01*
X156167285Y-101414896D01*
X156092426Y-101414896D01*
X156085803Y-101410000D01*
X156083284Y-101410821D01*
X156086289Y-101430466D01*
X156108639Y-101468087D01*
X156113543Y-101475019D01*
X156142956Y-101520459D01*
X156146840Y-101535712D01*
X156126089Y-101520558D01*
X156081599Y-101474774D01*
X156062180Y-101454232D01*
X156022293Y-101418315D01*
X156003907Y-101411536D01*
X156007167Y-101430417D01*
X156032222Y-101471482D01*
X156079218Y-101531254D01*
X156079876Y-101532026D01*
X156116017Y-101576892D01*
X156127530Y-101591184D01*
X156158210Y-101635667D01*
X156169979Y-101661281D01*
X156160902Y-101663833D01*
X156129041Y-101639131D01*
X156094637Y-101613777D01*
X156056948Y-101597494D01*
X156030107Y-101584672D01*
X155996008Y-101550368D01*
X155992260Y-101545055D01*
X155948845Y-101488445D01*
X155909900Y-101445424D01*
X155881727Y-101422280D01*
X155870633Y-101425302D01*
X155818374Y-101425302D01*
X155818678Y-101413107D01*
X155930298Y-101413107D01*
X155935954Y-101425217D01*
X155961244Y-101461337D01*
X156000000Y-101510000D01*
X156029420Y-101543714D01*
X156058354Y-101572538D01*
X156069250Y-101576892D01*
X156061242Y-101560357D01*
X156036320Y-101525616D01*
X156002498Y-101483776D01*
X155968044Y-101444583D01*
X155941222Y-101417779D01*
X155930298Y-101413107D01*
X155818678Y-101413107D01*
X155820000Y-101360000D01*
X156052508Y-101360000D01*
X156285016Y-101360000D01*
X156288733Y-101420000D01*
X156292717Y-101484325D01*
G37*
G36*
X157490000Y-100405000D02*
G01*
X157552500Y-100417499D01*
X157583436Y-100422078D01*
X157653601Y-100427774D01*
X157730052Y-100429999D01*
X157771729Y-100431330D01*
X157832615Y-100439973D01*
X157864142Y-100455000D01*
X157864306Y-100455221D01*
X157872279Y-100488089D01*
X157874344Y-100549864D01*
X157870139Y-100630000D01*
X157870001Y-100631630D01*
X157869245Y-100640571D01*
X157864366Y-100714951D01*
X157862875Y-100773208D01*
X157865116Y-100803506D01*
X157867753Y-100807887D01*
X157898381Y-100826041D01*
X157949360Y-100839891D01*
X158025587Y-100852770D01*
X158033550Y-101097650D01*
X158041639Y-101346385D01*
X158044531Y-101442866D01*
X158048856Y-101624600D01*
X158052143Y-101815268D01*
X158054414Y-102010424D01*
X158055690Y-102205619D01*
X158055992Y-102396405D01*
X158055342Y-102578334D01*
X158053760Y-102746959D01*
X158051267Y-102897832D01*
X158049201Y-102976453D01*
X158047886Y-103026504D01*
X158045777Y-103077155D01*
X158043637Y-103128528D01*
X158038542Y-103199456D01*
X158032621Y-103234840D01*
X158011112Y-103289680D01*
X157485556Y-103288697D01*
X157340236Y-103289182D01*
X157149444Y-103291329D01*
X156941144Y-103294939D01*
X156727215Y-103299772D01*
X156519541Y-103305586D01*
X156330000Y-103312139D01*
X156257449Y-103314930D01*
X156104021Y-103320681D01*
X155963615Y-103325745D01*
X155841621Y-103329940D01*
X155743428Y-103333082D01*
X155674425Y-103334991D01*
X155640000Y-103335484D01*
X155634558Y-103335454D01*
X155580867Y-103337796D01*
X155504459Y-103343708D01*
X155420000Y-103352084D01*
X155370498Y-103357270D01*
X155314545Y-103362358D01*
X155251713Y-103367143D01*
X155177863Y-103371834D01*
X155088859Y-103376636D01*
X154980564Y-103381758D01*
X154848840Y-103387406D01*
X154689551Y-103393788D01*
X154498559Y-103401110D01*
X154271727Y-103409580D01*
X154260917Y-103409982D01*
X154117711Y-103415672D01*
X153988305Y-103421463D01*
X153877934Y-103427070D01*
X153791835Y-103432208D01*
X153735243Y-103436593D01*
X153713393Y-103439940D01*
X153708735Y-103442288D01*
X153674040Y-103447798D01*
X153619877Y-103450000D01*
X153619099Y-103449999D01*
X153564819Y-103443496D01*
X153527695Y-103420412D01*
X153504806Y-103374984D01*
X153493229Y-103301453D01*
X153490041Y-103194058D01*
X153488978Y-103130702D01*
X153485730Y-103030804D01*
X153480602Y-102902859D01*
X153473904Y-102752958D01*
X153465946Y-102587193D01*
X153457037Y-102411656D01*
X153447487Y-102232437D01*
X153437605Y-102055629D01*
X153427701Y-101887322D01*
X153418084Y-101733609D01*
X153409065Y-101600580D01*
X153408183Y-101588200D01*
X153400578Y-101475492D01*
X153396588Y-101395627D01*
X153396540Y-101374847D01*
X153489785Y-101374847D01*
X153507942Y-101398727D01*
X153511574Y-101401569D01*
X153538255Y-101428434D01*
X153581159Y-101475562D01*
X153632904Y-101534908D01*
X153644830Y-101548940D01*
X153687635Y-101602119D01*
X153702668Y-101626993D01*
X153690315Y-101623586D01*
X153650964Y-101591920D01*
X153585000Y-101532020D01*
X153543907Y-101494249D01*
X153520116Y-101477265D01*
X153511291Y-101483848D01*
X153510000Y-101512017D01*
X153510251Y-101517407D01*
X153531139Y-101570591D01*
X153581642Y-101631076D01*
X153603938Y-101653440D01*
X153647407Y-101702423D01*
X153674043Y-101740000D01*
X153674583Y-101741073D01*
X153671323Y-101747729D01*
X153645498Y-101729772D01*
X153602402Y-101690835D01*
X153590094Y-101679069D01*
X153543130Y-101637951D01*
X153517666Y-101624701D01*
X153510000Y-101637170D01*
X153511347Y-101646923D01*
X153529596Y-101690496D01*
X153562374Y-101741334D01*
X153586040Y-101776877D01*
X153596373Y-101805648D01*
X153585343Y-101810554D01*
X153554001Y-101786000D01*
X153550215Y-101782390D01*
X153532200Y-101774321D01*
X153529680Y-101790933D01*
X153541123Y-101822197D01*
X153565000Y-101858080D01*
X153585022Y-101882077D01*
X153588084Y-101889246D01*
X153565000Y-101872206D01*
X153561741Y-101869655D01*
X153550815Y-101861610D01*
X153542347Y-101859192D01*
X153536296Y-101866214D01*
X153532619Y-101886489D01*
X153531274Y-101923831D01*
X153532218Y-101982052D01*
X153535409Y-102064966D01*
X153540805Y-102176387D01*
X153548363Y-102320127D01*
X153558043Y-102500000D01*
X153563949Y-102611933D01*
X153571289Y-102757595D01*
X153577711Y-102892458D01*
X153582882Y-103009237D01*
X153586471Y-103100649D01*
X153588143Y-103159409D01*
X153591290Y-103224229D01*
X153600809Y-103287717D01*
X153615124Y-103320039D01*
X153642492Y-103329276D01*
X153709128Y-103332712D01*
X153810000Y-103327615D01*
X153831724Y-103325968D01*
X153940819Y-103319518D01*
X154062106Y-103314535D01*
X154173128Y-103311985D01*
X154201190Y-103311683D01*
X154280237Y-103310126D01*
X154328289Y-103306483D01*
X154352411Y-103298950D01*
X154359669Y-103285724D01*
X154357128Y-103265000D01*
X154348000Y-103220000D01*
X154381440Y-103265000D01*
X154409526Y-103297396D01*
X154431770Y-103309487D01*
X154432600Y-103290669D01*
X154406860Y-103245000D01*
X154360997Y-103180000D01*
X154427033Y-103235000D01*
X154443144Y-103247754D01*
X154489574Y-103277934D01*
X154522239Y-103290000D01*
X154526010Y-103289924D01*
X154539113Y-103285159D01*
X154536902Y-103268103D01*
X154516769Y-103231977D01*
X154476108Y-103170000D01*
X154474546Y-103167612D01*
X154472429Y-103156877D01*
X154494221Y-103171470D01*
X154535854Y-103208752D01*
X154582526Y-103250905D01*
X154620325Y-103280545D01*
X154638137Y-103288529D01*
X154638532Y-103287778D01*
X154630376Y-103264951D01*
X154604845Y-103219298D01*
X154566895Y-103159777D01*
X154486676Y-103040000D01*
X154611012Y-103165775D01*
X154646426Y-103200694D01*
X154703968Y-103252224D01*
X154741813Y-103278599D01*
X154757752Y-103279101D01*
X154749574Y-103253011D01*
X154715070Y-103199611D01*
X154713618Y-103197591D01*
X154667885Y-103131927D01*
X154647423Y-103097259D01*
X154652337Y-103093493D01*
X154682732Y-103120534D01*
X154738713Y-103178287D01*
X154754847Y-103195233D01*
X154811373Y-103250650D01*
X154847349Y-103279128D01*
X154860982Y-103280194D01*
X154853073Y-103260000D01*
X154910000Y-103260000D01*
X154920000Y-103270000D01*
X154930000Y-103260000D01*
X154920000Y-103250000D01*
X154910000Y-103260000D01*
X154853073Y-103260000D01*
X154850478Y-103253373D01*
X154814043Y-103198193D01*
X154777316Y-103146244D01*
X154748700Y-103101865D01*
X154744711Y-103086828D01*
X154765272Y-103099938D01*
X154810306Y-103140000D01*
X154896489Y-103220000D01*
X154806775Y-103100000D01*
X154772117Y-103053297D01*
X154726805Y-102989906D01*
X154706129Y-102956004D01*
X154709844Y-102950469D01*
X154737709Y-102972175D01*
X154789479Y-103020000D01*
X154894659Y-103120000D01*
X154870290Y-103080000D01*
X154910000Y-103080000D01*
X154920000Y-103090000D01*
X154930000Y-103080000D01*
X154920000Y-103070000D01*
X154910000Y-103080000D01*
X154870290Y-103080000D01*
X154845922Y-103040000D01*
X154813883Y-102986796D01*
X154788434Y-102941422D01*
X154784276Y-102926419D01*
X154801190Y-102939906D01*
X154838959Y-102980000D01*
X154911913Y-103060000D01*
X154864109Y-102980000D01*
X154852421Y-102960160D01*
X154817876Y-102898747D01*
X154792588Y-102850000D01*
X154790971Y-102846582D01*
X154779757Y-102820286D01*
X154786593Y-102823795D01*
X154814435Y-102858220D01*
X154860137Y-102914114D01*
X154907281Y-102968220D01*
X154954561Y-103020000D01*
X154919214Y-102960000D01*
X154886398Y-102906131D01*
X154856934Y-102860549D01*
X154839114Y-102831452D01*
X154830214Y-102803400D01*
X154844888Y-102805102D01*
X154879381Y-102840000D01*
X154881694Y-102842798D01*
X154913738Y-102874171D01*
X154927692Y-102872707D01*
X154922540Y-102841590D01*
X154897264Y-102784006D01*
X154864528Y-102720000D01*
X154908363Y-102759093D01*
X154952197Y-102798187D01*
X154939190Y-102089094D01*
X154936679Y-101961062D01*
X154935733Y-101921564D01*
X155012367Y-101921564D01*
X155012610Y-102091392D01*
X155013233Y-102297452D01*
X155013501Y-102369548D01*
X155014643Y-102575538D01*
X155016293Y-102745717D01*
X155018555Y-102883274D01*
X155021536Y-102991402D01*
X155022864Y-103020000D01*
X155025340Y-103073290D01*
X155025880Y-103080000D01*
X155030073Y-103132131D01*
X155035839Y-103171115D01*
X155042743Y-103193432D01*
X155049664Y-103207945D01*
X155058675Y-103241036D01*
X155044703Y-103255694D01*
X155034468Y-103259746D01*
X155034241Y-103260000D01*
X155025437Y-103269872D01*
X155054268Y-103274610D01*
X155119582Y-103273864D01*
X155220000Y-103267544D01*
X155248379Y-103265466D01*
X155336598Y-103259755D01*
X155452373Y-103252941D01*
X155587146Y-103245500D01*
X155732357Y-103237913D01*
X155879448Y-103230657D01*
X155972110Y-103226095D01*
X156097466Y-103219443D01*
X156205179Y-103213156D01*
X156289670Y-103207586D01*
X156345359Y-103203084D01*
X156366666Y-103200000D01*
X156368092Y-103194716D01*
X156370766Y-103156083D01*
X156372678Y-103084423D01*
X156373878Y-102984580D01*
X156374415Y-102861396D01*
X156374340Y-102719712D01*
X156373702Y-102564371D01*
X156372551Y-102400215D01*
X156370938Y-102232085D01*
X156368912Y-102064824D01*
X156366522Y-101903273D01*
X156363819Y-101752276D01*
X156360853Y-101616673D01*
X156357674Y-101501308D01*
X156354331Y-101411021D01*
X156352712Y-101382745D01*
X156433011Y-101382745D01*
X156442815Y-101405348D01*
X156475161Y-101451878D01*
X156530000Y-101520000D01*
X156540337Y-101532316D01*
X156585890Y-101589030D01*
X156617908Y-101632912D01*
X156630000Y-101655314D01*
X156627934Y-101663673D01*
X156608809Y-101657982D01*
X156569321Y-101619027D01*
X156509086Y-101546458D01*
X156462262Y-101489885D01*
X156436459Y-101464119D01*
X156433524Y-101469444D01*
X156454069Y-101504577D01*
X156498705Y-101568235D01*
X156528013Y-101610953D01*
X156551631Y-101660028D01*
X156549162Y-101690915D01*
X156540956Y-101713199D01*
X156541514Y-101760000D01*
X156546067Y-101781905D01*
X156538425Y-101782319D01*
X156511165Y-101752916D01*
X156510105Y-101751687D01*
X156485236Y-101713855D01*
X156481266Y-101687951D01*
X156480624Y-101664460D01*
X156461324Y-101625820D01*
X156453648Y-101617612D01*
X156447377Y-101619282D01*
X156442428Y-101634213D01*
X156438685Y-101665748D01*
X156436034Y-101717228D01*
X156434361Y-101791996D01*
X156433552Y-101893394D01*
X156433493Y-102024763D01*
X156434069Y-102189446D01*
X156435166Y-102390785D01*
X156437977Y-102861396D01*
X156440000Y-103200000D01*
X156560000Y-103198459D01*
X156666494Y-103197020D01*
X156842231Y-103194337D01*
X157008847Y-103191426D01*
X157161932Y-103188390D01*
X157297074Y-103185332D01*
X157409863Y-103182355D01*
X157495888Y-103179561D01*
X157550737Y-103177053D01*
X157570000Y-103174933D01*
X157568128Y-103169326D01*
X157553328Y-103137026D01*
X157528605Y-103087265D01*
X157508588Y-103045798D01*
X157494785Y-103008127D01*
X157500324Y-103003074D01*
X157523140Y-103030459D01*
X157561168Y-103090102D01*
X157588493Y-103131909D01*
X157622829Y-103173390D01*
X157646976Y-103189603D01*
X157656182Y-103187019D01*
X157655698Y-103165328D01*
X157631163Y-103117479D01*
X157618404Y-103095120D01*
X157597847Y-103051433D01*
X157599434Y-103039203D01*
X157620548Y-103059009D01*
X157658572Y-103111428D01*
X157666021Y-103122442D01*
X157700315Y-103165854D01*
X157721949Y-103181854D01*
X157726756Y-103169215D01*
X157710564Y-103126712D01*
X157701085Y-103103933D01*
X157709049Y-103106714D01*
X157738844Y-103140000D01*
X157751485Y-103154057D01*
X157779066Y-103176767D01*
X157789901Y-103171900D01*
X157790181Y-103165717D01*
X157799208Y-103156598D01*
X157826575Y-103176900D01*
X157855859Y-103197328D01*
X157894419Y-103210000D01*
X157896773Y-103209972D01*
X157912494Y-103204308D01*
X157909700Y-103182434D01*
X157887550Y-103135192D01*
X157879328Y-103117904D01*
X157866148Y-103080000D01*
X157890000Y-103080000D01*
X157900000Y-103090000D01*
X157910000Y-103080000D01*
X157900000Y-103070000D01*
X157890000Y-103080000D01*
X157866148Y-103080000D01*
X157861680Y-103067150D01*
X157859951Y-103040000D01*
X157870000Y-103040000D01*
X157880000Y-103050000D01*
X157890000Y-103040000D01*
X157880000Y-103030000D01*
X157870000Y-103040000D01*
X157859951Y-103040000D01*
X157859564Y-103033925D01*
X157860450Y-103030789D01*
X157856611Y-102996792D01*
X157896552Y-102996792D01*
X157911606Y-103030000D01*
X157916638Y-103040000D01*
X157932502Y-103071529D01*
X157938820Y-103080000D01*
X157946093Y-103089752D01*
X157950000Y-103077155D01*
X157942945Y-103056010D01*
X157918897Y-103018822D01*
X157900820Y-102996916D01*
X157896552Y-102996792D01*
X157856611Y-102996792D01*
X157856219Y-102993319D01*
X157843149Y-102960000D01*
X157870000Y-102960000D01*
X157880000Y-102970000D01*
X157890000Y-102960000D01*
X157880000Y-102950000D01*
X157870000Y-102960000D01*
X157843149Y-102960000D01*
X157836768Y-102943733D01*
X157831167Y-102932871D01*
X157814651Y-102898379D01*
X157817641Y-102892599D01*
X157840798Y-102910000D01*
X157841763Y-102910773D01*
X157854795Y-102914493D01*
X157845596Y-102887041D01*
X157813888Y-102827565D01*
X157777927Y-102762286D01*
X157755448Y-102716008D01*
X157753389Y-102702114D01*
X157770777Y-102720130D01*
X157806638Y-102769583D01*
X157860000Y-102850000D01*
X157874668Y-102872367D01*
X157924546Y-102941467D01*
X157942344Y-102960000D01*
X157957389Y-102975666D01*
X157972193Y-102976453D01*
X157967951Y-102945320D01*
X157943658Y-102883755D01*
X157898309Y-102793249D01*
X157879028Y-102756666D01*
X157857708Y-102711447D01*
X157857481Y-102700214D01*
X157878225Y-102723040D01*
X157919822Y-102780000D01*
X157930623Y-102794831D01*
X157944996Y-102806606D01*
X157948951Y-102786180D01*
X157946996Y-102768469D01*
X157930000Y-102740000D01*
X157924656Y-102735920D01*
X157910000Y-102706370D01*
X157915085Y-102697338D01*
X157940000Y-102710000D01*
X157946885Y-102713322D01*
X157953705Y-102707588D01*
X157959059Y-102687715D01*
X157963118Y-102650008D01*
X157966053Y-102590772D01*
X157968038Y-102506314D01*
X157969243Y-102392940D01*
X157969840Y-102246954D01*
X157970000Y-102064664D01*
X157970000Y-102058124D01*
X157969837Y-101876384D01*
X157969225Y-101730298D01*
X157967958Y-101615657D01*
X157965828Y-101528250D01*
X157962628Y-101463870D01*
X157958153Y-101418306D01*
X157952194Y-101387350D01*
X157944546Y-101366792D01*
X157935000Y-101352424D01*
X157927209Y-101343776D01*
X157913188Y-101333080D01*
X157892190Y-101324762D01*
X157859497Y-101318411D01*
X157810391Y-101313612D01*
X157740156Y-101309954D01*
X157644076Y-101307022D01*
X157517433Y-101304405D01*
X157355509Y-101301688D01*
X156811018Y-101292960D01*
X156844354Y-101346480D01*
X156877690Y-101400000D01*
X156817751Y-101345000D01*
X156805501Y-101334270D01*
X156761169Y-101302719D01*
X156728906Y-101290054D01*
X156725956Y-101299295D01*
X156747438Y-101327494D01*
X156790000Y-101368028D01*
X156829216Y-101404799D01*
X156859847Y-101440708D01*
X156866309Y-101459999D01*
X156866191Y-101460113D01*
X156845607Y-101454284D01*
X156805427Y-101426264D01*
X156754235Y-101382025D01*
X156716982Y-101348301D01*
X156667740Y-101311524D01*
X156624409Y-101294284D01*
X156574107Y-101290000D01*
X156517234Y-101294360D01*
X156483147Y-101312214D01*
X156485502Y-101345684D01*
X156523371Y-101396728D01*
X156540588Y-101415629D01*
X156598050Y-101480805D01*
X156631628Y-101524034D01*
X156644913Y-101550434D01*
X156641494Y-101565122D01*
X156639985Y-101565962D01*
X156617351Y-101555248D01*
X156577819Y-101521139D01*
X156528919Y-101470000D01*
X156481234Y-101418661D01*
X156445801Y-101386404D01*
X156433011Y-101382745D01*
X156352712Y-101382745D01*
X156350874Y-101350655D01*
X156347353Y-101325053D01*
X156338086Y-101310985D01*
X156319598Y-101298639D01*
X156286617Y-101293088D01*
X156230690Y-101293203D01*
X156143364Y-101297859D01*
X156132788Y-101298509D01*
X156049991Y-101303434D01*
X155938273Y-101309891D01*
X155807044Y-101317343D01*
X155665718Y-101325256D01*
X155523706Y-101333094D01*
X155394690Y-101340263D01*
X155282902Y-101347069D01*
X155200883Y-101353358D01*
X155143248Y-101359955D01*
X155104615Y-101367686D01*
X155079601Y-101377377D01*
X155062823Y-101389854D01*
X155048898Y-101405943D01*
X155042158Y-101415208D01*
X155033942Y-101430805D01*
X155027311Y-101452496D01*
X155022114Y-101484046D01*
X155018200Y-101529225D01*
X155015419Y-101591798D01*
X155013621Y-101675535D01*
X155012653Y-101784201D01*
X155012367Y-101921564D01*
X154935733Y-101921564D01*
X154932227Y-101775273D01*
X154927439Y-101626545D01*
X154922224Y-101513031D01*
X154916490Y-101432884D01*
X154910143Y-101384258D01*
X154903092Y-101365307D01*
X154888103Y-101361811D01*
X154837544Y-101357314D01*
X154759200Y-101353695D01*
X154660266Y-101351257D01*
X154547934Y-101350306D01*
X154483387Y-101350048D01*
X154360962Y-101348566D01*
X154247305Y-101346007D01*
X154152825Y-101342632D01*
X154087934Y-101338705D01*
X153960000Y-101327410D01*
X154029245Y-101388705D01*
X154063538Y-101421463D01*
X154080362Y-101444726D01*
X154070136Y-101446874D01*
X154036715Y-101427963D01*
X153983957Y-101388049D01*
X153949636Y-101361679D01*
X153909514Y-101341393D01*
X153883360Y-101347212D01*
X153856400Y-101358099D01*
X153808960Y-101357655D01*
X153794382Y-101354848D01*
X153780461Y-101356746D01*
X153793203Y-101373656D01*
X153835000Y-101410432D01*
X153885872Y-101456720D01*
X153907211Y-101483902D01*
X153897499Y-101488780D01*
X153858248Y-101470712D01*
X153790972Y-101429060D01*
X153716449Y-101381045D01*
X153673179Y-101356852D01*
X153661514Y-101356810D01*
X153681311Y-101380919D01*
X153732428Y-101429179D01*
X153784452Y-101478225D01*
X153805506Y-101502844D01*
X153796305Y-101503022D01*
X153757565Y-101478745D01*
X153690000Y-101430000D01*
X153633235Y-101391860D01*
X153575916Y-101361598D01*
X153536388Y-101350000D01*
X153505520Y-101355542D01*
X153489785Y-101374847D01*
X153396540Y-101374847D01*
X153396464Y-101342185D01*
X153400459Y-101308747D01*
X153408825Y-101288892D01*
X153421815Y-101276200D01*
X153430288Y-101268974D01*
X153442843Y-101248019D01*
X153448837Y-101212455D01*
X153449178Y-101153879D01*
X153444774Y-101063890D01*
X153444257Y-101053672D01*
X153552766Y-101053672D01*
X153553549Y-101125256D01*
X153560292Y-101190155D01*
X153573101Y-101235000D01*
X153591552Y-101262604D01*
X153609411Y-101270146D01*
X153613864Y-101248837D01*
X153599374Y-101205000D01*
X153567720Y-101140000D01*
X153623860Y-101205180D01*
X153641983Y-101225583D01*
X153680370Y-101261800D01*
X153696953Y-101264810D01*
X153690591Y-101235560D01*
X153660145Y-101175000D01*
X153606489Y-101080000D01*
X153677494Y-101160000D01*
X153704768Y-101191816D01*
X153736553Y-101232764D01*
X153749250Y-101255000D01*
X153749994Y-101258523D01*
X153770251Y-101270000D01*
X153774028Y-101263892D01*
X153764308Y-101233078D01*
X153738428Y-101185000D01*
X153686353Y-101100000D01*
X153769524Y-101190000D01*
X153808424Y-101230332D01*
X153833553Y-101252635D01*
X153837508Y-101250000D01*
X153837255Y-101249499D01*
X153831443Y-101230558D01*
X153851161Y-101241346D01*
X153854783Y-101242873D01*
X153891653Y-101247968D01*
X153961919Y-101252429D01*
X154060414Y-101256233D01*
X154181976Y-101259358D01*
X154321438Y-101261784D01*
X154473638Y-101263487D01*
X154633409Y-101264446D01*
X154795588Y-101264639D01*
X154955009Y-101264044D01*
X155106509Y-101262639D01*
X155244923Y-101260402D01*
X155365086Y-101257311D01*
X155461833Y-101253344D01*
X155530000Y-101248479D01*
X155576915Y-101245138D01*
X155663195Y-101241186D01*
X155780344Y-101237143D01*
X155923528Y-101233131D01*
X156087917Y-101229272D01*
X156268680Y-101225690D01*
X156460985Y-101222506D01*
X156660000Y-101219843D01*
X156703214Y-101219322D01*
X156939416Y-101215988D01*
X157142891Y-101212229D01*
X157312428Y-101208085D01*
X157446814Y-101203594D01*
X157544837Y-101198797D01*
X157605285Y-101193732D01*
X157626945Y-101188440D01*
X157636635Y-101180643D01*
X157665785Y-101194165D01*
X157673433Y-101200267D01*
X157689128Y-101209344D01*
X157680402Y-101190000D01*
X157677549Y-101184804D01*
X157677569Y-101175488D01*
X157703137Y-101195000D01*
X157723438Y-101211801D01*
X157752976Y-101228013D01*
X157758242Y-101212450D01*
X157739374Y-101165000D01*
X157707720Y-101100000D01*
X157768322Y-101170000D01*
X157776774Y-101179628D01*
X157813089Y-101215870D01*
X157827424Y-101219434D01*
X157819274Y-101191278D01*
X157788136Y-101132360D01*
X157746271Y-101060000D01*
X157796235Y-101113905D01*
X157797840Y-101115642D01*
X157841483Y-101166015D01*
X157877214Y-101212090D01*
X157886504Y-101224649D01*
X157911465Y-101243796D01*
X157937726Y-101231887D01*
X157950018Y-101216644D01*
X157950110Y-101192343D01*
X157933189Y-101152113D01*
X157896777Y-101087205D01*
X157890518Y-101076442D01*
X157855032Y-101010618D01*
X157838375Y-100970625D01*
X157840409Y-100958899D01*
X157860996Y-100977878D01*
X157900000Y-101030000D01*
X157916058Y-101052532D01*
X157949309Y-101092489D01*
X157963495Y-101097650D01*
X157957514Y-101068853D01*
X157930265Y-101006938D01*
X157887738Y-100920000D01*
X157930212Y-100970000D01*
X157954989Y-100998190D01*
X157962521Y-101001831D01*
X157951235Y-100976113D01*
X157934273Y-100946516D01*
X157913535Y-100922184D01*
X157905554Y-100920424D01*
X157861872Y-100916630D01*
X157784360Y-100912400D01*
X157677083Y-100907827D01*
X157544105Y-100903004D01*
X157389492Y-100898025D01*
X157217307Y-100892982D01*
X157031615Y-100887969D01*
X156836481Y-100883079D01*
X156635970Y-100878404D01*
X156434144Y-100874038D01*
X156235070Y-100870075D01*
X156042811Y-100866606D01*
X155861433Y-100863725D01*
X155694999Y-100861526D01*
X155547575Y-100860101D01*
X155423224Y-100859544D01*
X155326011Y-100859947D01*
X155260000Y-100861404D01*
X155210474Y-100863306D01*
X155112550Y-100866748D01*
X154985837Y-100870964D01*
X154836809Y-100875747D01*
X154671942Y-100880891D01*
X154497711Y-100886187D01*
X154320591Y-100891430D01*
X154255961Y-100893372D01*
X154064225Y-100899887D01*
X153900671Y-100906664D01*
X153767664Y-100913567D01*
X153667566Y-100920462D01*
X153602740Y-100927216D01*
X153575549Y-100933694D01*
X153568642Y-100943934D01*
X153557833Y-100988775D01*
X153552766Y-101053672D01*
X153444257Y-101053672D01*
X153442502Y-101018960D01*
X153440701Y-100941979D01*
X153442166Y-100885123D01*
X153446799Y-100858270D01*
X153457420Y-100851622D01*
X153499767Y-100840733D01*
X153560000Y-100833724D01*
X153606772Y-100830770D01*
X153668643Y-100823801D01*
X153705336Y-100808168D01*
X153723416Y-100776042D01*
X153727507Y-100737759D01*
X153809495Y-100737759D01*
X153815332Y-100791276D01*
X153827943Y-100818728D01*
X153849230Y-100822348D01*
X153900591Y-100822120D01*
X153928804Y-100820000D01*
X157350000Y-100820000D01*
X157360000Y-100830000D01*
X157370000Y-100820000D01*
X157360000Y-100810000D01*
X157350000Y-100820000D01*
X153928804Y-100820000D01*
X153967943Y-100817059D01*
X154090000Y-100804301D01*
X154090000Y-100756666D01*
X154130000Y-100756666D01*
X154135966Y-100792543D01*
X154160704Y-100810000D01*
X154169994Y-100809484D01*
X154181287Y-100798429D01*
X154167995Y-100765000D01*
X154159499Y-100748846D01*
X154140053Y-100716918D01*
X154131749Y-100719860D01*
X154130000Y-100756666D01*
X154090000Y-100756666D01*
X154090000Y-100688331D01*
X154091133Y-100651114D01*
X154150241Y-100651114D01*
X154151339Y-100659299D01*
X154168529Y-100700259D01*
X154200000Y-100750000D01*
X154211897Y-100765886D01*
X154238992Y-100798429D01*
X154240215Y-100799898D01*
X154247715Y-100800855D01*
X154234392Y-100769616D01*
X154229144Y-100760000D01*
X154290000Y-100760000D01*
X154300000Y-100770000D01*
X154310000Y-100760000D01*
X154300000Y-100750000D01*
X154290000Y-100760000D01*
X154229144Y-100760000D01*
X154200241Y-100707041D01*
X154180664Y-100675347D01*
X154158832Y-100648608D01*
X154150241Y-100651114D01*
X154091133Y-100651114D01*
X154091543Y-100637657D01*
X154093120Y-100623610D01*
X154202917Y-100623610D01*
X154209543Y-100649144D01*
X154225102Y-100672378D01*
X154262183Y-100711644D01*
X154278952Y-100724946D01*
X154287518Y-100725988D01*
X154273275Y-100696314D01*
X154258731Y-100664998D01*
X154250751Y-100636314D01*
X154257280Y-100636674D01*
X154283327Y-100658780D01*
X154322332Y-100700000D01*
X154375454Y-100760000D01*
X154393162Y-100780000D01*
X154340578Y-100697500D01*
X154323292Y-100672015D01*
X154281335Y-100628263D01*
X154249696Y-100618201D01*
X154335315Y-100618201D01*
X154352552Y-100645000D01*
X154370842Y-100667616D01*
X154390690Y-100690000D01*
X154393011Y-100692378D01*
X154415235Y-100718559D01*
X154448404Y-100760000D01*
X154454495Y-100767717D01*
X154465054Y-100780000D01*
X154480630Y-100798120D01*
X154485353Y-100796490D01*
X154477228Y-100780000D01*
X154550000Y-100780000D01*
X154560000Y-100790000D01*
X154570000Y-100780000D01*
X154560000Y-100770000D01*
X154550000Y-100780000D01*
X154477228Y-100780000D01*
X154468523Y-100762333D01*
X154430000Y-100695154D01*
X154411754Y-100666858D01*
X154377928Y-100626198D01*
X154352552Y-100610154D01*
X154345708Y-100610334D01*
X154335315Y-100618201D01*
X154249696Y-100618201D01*
X154239631Y-100615000D01*
X154226914Y-100615297D01*
X154202917Y-100623610D01*
X154093120Y-100623610D01*
X154094648Y-100610000D01*
X154402154Y-100610000D01*
X154470000Y-100680000D01*
X154515321Y-100725461D01*
X154540286Y-100746000D01*
X154543687Y-100738808D01*
X154528112Y-100705000D01*
X154524719Y-100698310D01*
X154518324Y-100679773D01*
X154532205Y-100686523D01*
X154570425Y-100720000D01*
X154636034Y-100780000D01*
X154690000Y-100780000D01*
X154700000Y-100790000D01*
X154710000Y-100780000D01*
X154700000Y-100770000D01*
X154690000Y-100780000D01*
X154636034Y-100780000D01*
X154589335Y-100695000D01*
X154580174Y-100678639D01*
X154549608Y-100634116D01*
X154526282Y-100619554D01*
X154579454Y-100619554D01*
X154589404Y-100648886D01*
X154605260Y-100673564D01*
X154632103Y-100701299D01*
X154641857Y-100699240D01*
X154629282Y-100667413D01*
X154604572Y-100620000D01*
X154656942Y-100668163D01*
X154660099Y-100671112D01*
X154698625Y-100714685D01*
X154721005Y-100753163D01*
X154730565Y-100773604D01*
X154738480Y-100780000D01*
X154750856Y-100790000D01*
X154753566Y-100782521D01*
X154741698Y-100749838D01*
X154714654Y-100700000D01*
X154693240Y-100666994D01*
X154653079Y-100623321D01*
X154637956Y-100618107D01*
X154690000Y-100618107D01*
X154695895Y-100628410D01*
X154721318Y-100662339D01*
X154760000Y-100710000D01*
X154782871Y-100736831D01*
X154816957Y-100772850D01*
X154827651Y-100776681D01*
X154814573Y-100748772D01*
X154777343Y-100689571D01*
X154760627Y-100665687D01*
X154729273Y-100629120D01*
X154770000Y-100629120D01*
X154774719Y-100638144D01*
X154801235Y-100669140D01*
X154843314Y-100711076D01*
X154913098Y-100776681D01*
X154916628Y-100780000D01*
X154873314Y-100716912D01*
X154840498Y-100664627D01*
X154832478Y-100639950D01*
X154849925Y-100645235D01*
X154892425Y-100681258D01*
X154954850Y-100740000D01*
X154922601Y-100676332D01*
X154909053Y-100652210D01*
X154876988Y-100621242D01*
X154830176Y-100614376D01*
X154829409Y-100614399D01*
X154787425Y-100619475D01*
X154770000Y-100629120D01*
X154729273Y-100629120D01*
X154725492Y-100624711D01*
X154699899Y-100607173D01*
X154690000Y-100618107D01*
X154637956Y-100618107D01*
X154614442Y-100610000D01*
X154600051Y-100610389D01*
X154579454Y-100619554D01*
X154526282Y-100619554D01*
X154518076Y-100614431D01*
X154472394Y-100610000D01*
X154402154Y-100610000D01*
X154094648Y-100610000D01*
X154097306Y-100586313D01*
X154105874Y-100562550D01*
X154110175Y-100561451D01*
X154146960Y-100558330D01*
X154215491Y-100555263D01*
X154309700Y-100552443D01*
X154423517Y-100550066D01*
X154550874Y-100548323D01*
X154980000Y-100543907D01*
X154990910Y-100636863D01*
X154994948Y-100664465D01*
X155008153Y-100719562D01*
X155017884Y-100740000D01*
X155023230Y-100751229D01*
X155047689Y-100757658D01*
X155111801Y-100763869D01*
X155214529Y-100769444D01*
X155355164Y-100774352D01*
X155532998Y-100778563D01*
X155747321Y-100782047D01*
X155782724Y-100782521D01*
X156450000Y-100791455D01*
X156450000Y-100771302D01*
X156874904Y-100771302D01*
X156880000Y-100790000D01*
X156884109Y-100795920D01*
X156884848Y-100796490D01*
X156890506Y-100800855D01*
X156902361Y-100810000D01*
X156905097Y-100808697D01*
X156902726Y-100800000D01*
X156930000Y-100800000D01*
X156938697Y-100808697D01*
X156940000Y-100810000D01*
X156950000Y-100800000D01*
X156940000Y-100790000D01*
X156930000Y-100800000D01*
X156902726Y-100800000D01*
X156900000Y-100790000D01*
X156895892Y-100784079D01*
X156890083Y-100779598D01*
X156994274Y-100779598D01*
X156996331Y-100800000D01*
X156996667Y-100803333D01*
X157002683Y-100806462D01*
X157010000Y-100790000D01*
X157008557Y-100779412D01*
X156996667Y-100776666D01*
X156994274Y-100779598D01*
X156890083Y-100779598D01*
X156877640Y-100770000D01*
X156874904Y-100771302D01*
X156450000Y-100771302D01*
X156450000Y-100720000D01*
X156510000Y-100720000D01*
X156520000Y-100730000D01*
X156530000Y-100720000D01*
X156520000Y-100710000D01*
X156510000Y-100720000D01*
X156450000Y-100720000D01*
X156450000Y-100660727D01*
X156451591Y-100600796D01*
X156510000Y-100600796D01*
X156510136Y-100602619D01*
X156520297Y-100631085D01*
X156541590Y-100674291D01*
X156566937Y-100719519D01*
X156567248Y-100720000D01*
X156589261Y-100754054D01*
X156601486Y-100765181D01*
X156602218Y-100764048D01*
X156600585Y-100737785D01*
X156587778Y-100692222D01*
X156585743Y-100686201D01*
X156574836Y-100641330D01*
X156576311Y-100617023D01*
X156585661Y-100621342D01*
X156609269Y-100651960D01*
X156639588Y-100703044D01*
X156658762Y-100737940D01*
X156678466Y-100769314D01*
X156685306Y-100769113D01*
X156684386Y-100760000D01*
X157050000Y-100760000D01*
X157060000Y-100770000D01*
X157070000Y-100760000D01*
X157060000Y-100750000D01*
X157050000Y-100760000D01*
X156684386Y-100760000D01*
X156682366Y-100740000D01*
X156678500Y-100720000D01*
X156850000Y-100720000D01*
X156860000Y-100730000D01*
X156870000Y-100720000D01*
X156970000Y-100720000D01*
X156980000Y-100730000D01*
X156990000Y-100720000D01*
X156980000Y-100710000D01*
X156970000Y-100720000D01*
X156870000Y-100720000D01*
X156860000Y-100710000D01*
X156850000Y-100720000D01*
X156678500Y-100720000D01*
X156674634Y-100700000D01*
X156710000Y-100700000D01*
X156720000Y-100710000D01*
X156730000Y-100700000D01*
X156770000Y-100700000D01*
X156780000Y-100710000D01*
X156790000Y-100700000D01*
X156780000Y-100690000D01*
X156770000Y-100700000D01*
X156730000Y-100700000D01*
X156720000Y-100690000D01*
X156710000Y-100700000D01*
X156674634Y-100700000D01*
X156672666Y-100689822D01*
X156659768Y-100640000D01*
X156646735Y-100600000D01*
X156681058Y-100640000D01*
X156697848Y-100659001D01*
X156708812Y-100666196D01*
X156702691Y-100643364D01*
X156695732Y-100621895D01*
X156692378Y-100608125D01*
X156721172Y-100608125D01*
X156739571Y-100641460D01*
X156759134Y-100662056D01*
X156769058Y-100660000D01*
X156768802Y-100654746D01*
X156759616Y-100628125D01*
X156801172Y-100628125D01*
X156818765Y-100660000D01*
X156819571Y-100661460D01*
X156824069Y-100666196D01*
X156839134Y-100682056D01*
X156849058Y-100680000D01*
X156890000Y-100680000D01*
X156900000Y-100690000D01*
X156910000Y-100680000D01*
X156900000Y-100670000D01*
X156890000Y-100680000D01*
X156849058Y-100680000D01*
X156848802Y-100674746D01*
X156837679Y-100642510D01*
X156820573Y-100619598D01*
X156874274Y-100619598D01*
X156876667Y-100643333D01*
X156882683Y-100646462D01*
X156890000Y-100630000D01*
X156888557Y-100619412D01*
X156876667Y-100616666D01*
X156874274Y-100619598D01*
X156820573Y-100619598D01*
X156818155Y-100616360D01*
X156801295Y-100612039D01*
X156801172Y-100628125D01*
X156759616Y-100628125D01*
X156757679Y-100622510D01*
X156748794Y-100610610D01*
X156922723Y-100610610D01*
X156923304Y-100625754D01*
X156925656Y-100630000D01*
X156941636Y-100658854D01*
X156960443Y-100679873D01*
X156969694Y-100678822D01*
X156969310Y-100674044D01*
X156957806Y-100642680D01*
X156954117Y-100637592D01*
X156988661Y-100637592D01*
X157010460Y-100678822D01*
X157011083Y-100680000D01*
X157024590Y-100700000D01*
X157038097Y-100720000D01*
X157051604Y-100740000D01*
X157037989Y-100680000D01*
X157035015Y-100667035D01*
X157023304Y-100625000D01*
X157050904Y-100625000D01*
X157055194Y-100638557D01*
X157072078Y-100675410D01*
X157096068Y-100722348D01*
X157105741Y-100740000D01*
X157116700Y-100760000D01*
X157121006Y-100767859D01*
X157134415Y-100790000D01*
X157140734Y-100800434D01*
X157149097Y-100808562D01*
X157149162Y-100806179D01*
X157147882Y-100800000D01*
X157210000Y-100800000D01*
X157216179Y-100806179D01*
X157220000Y-100810000D01*
X157230000Y-100800000D01*
X157290000Y-100800000D01*
X157300000Y-100810000D01*
X157310000Y-100800000D01*
X157300000Y-100790000D01*
X157290000Y-100800000D01*
X157230000Y-100800000D01*
X157220000Y-100790000D01*
X157210000Y-100800000D01*
X157147882Y-100800000D01*
X157141978Y-100771505D01*
X157124784Y-100721068D01*
X157103078Y-100668351D01*
X157082357Y-100626834D01*
X157072240Y-100614872D01*
X157122762Y-100614872D01*
X157126062Y-100637460D01*
X157151842Y-100685000D01*
X157175047Y-100722988D01*
X157201246Y-100762400D01*
X157210215Y-100768683D01*
X157207797Y-100760000D01*
X157270000Y-100760000D01*
X157278683Y-100768683D01*
X157280000Y-100770000D01*
X157290000Y-100760000D01*
X157330000Y-100760000D01*
X157340000Y-100770000D01*
X157350000Y-100760000D01*
X157340000Y-100750000D01*
X157330000Y-100760000D01*
X157290000Y-100760000D01*
X157280000Y-100750000D01*
X157270000Y-100760000D01*
X157207797Y-100760000D01*
X157203102Y-100743141D01*
X157192972Y-100712201D01*
X157177747Y-100658141D01*
X157162907Y-100627020D01*
X157141067Y-100613101D01*
X157202387Y-100613101D01*
X157210599Y-100638328D01*
X157234246Y-100680000D01*
X157237077Y-100684374D01*
X157260091Y-100718143D01*
X157266222Y-100719513D01*
X157259267Y-100690000D01*
X157242030Y-100644762D01*
X157230164Y-100627730D01*
X157270709Y-100627730D01*
X157279339Y-100649999D01*
X157300872Y-100690000D01*
X157318258Y-100719513D01*
X157330326Y-100740000D01*
X157317788Y-100680000D01*
X157310619Y-100640735D01*
X157315965Y-100634933D01*
X157338425Y-100660000D01*
X157371600Y-100700000D01*
X157365532Y-100660000D01*
X157354724Y-100635221D01*
X157319923Y-100620000D01*
X157390000Y-100620000D01*
X157400000Y-100630000D01*
X157410000Y-100620000D01*
X157400000Y-100610000D01*
X157390000Y-100620000D01*
X157319923Y-100620000D01*
X157314733Y-100617730D01*
X157287022Y-100619006D01*
X157270709Y-100627730D01*
X157230164Y-100627730D01*
X157220551Y-100613932D01*
X157203065Y-100611333D01*
X157202387Y-100613101D01*
X157141067Y-100613101D01*
X157136201Y-100610000D01*
X157122762Y-100614872D01*
X157072240Y-100614872D01*
X157068120Y-100610000D01*
X157064975Y-100610229D01*
X157050904Y-100625000D01*
X157023304Y-100625000D01*
X157023237Y-100624758D01*
X157010996Y-100609972D01*
X156991531Y-100612916D01*
X156989090Y-100614257D01*
X156988661Y-100637592D01*
X156954117Y-100637592D01*
X156938555Y-100616130D01*
X156922723Y-100610610D01*
X156748794Y-100610610D01*
X156738155Y-100596360D01*
X156721295Y-100592039D01*
X156721172Y-100608125D01*
X156692378Y-100608125D01*
X156690000Y-100598364D01*
X156685888Y-100595869D01*
X156653697Y-100591662D01*
X156600000Y-100590000D01*
X156573151Y-100590493D01*
X156527891Y-100594355D01*
X156510000Y-100600796D01*
X156451591Y-100600796D01*
X156451594Y-100600665D01*
X156459678Y-100546210D01*
X156475000Y-100527136D01*
X156478636Y-100526802D01*
X156520146Y-100525474D01*
X156591810Y-100525059D01*
X156686614Y-100525440D01*
X156797542Y-100526499D01*
X156917578Y-100528121D01*
X157039706Y-100530188D01*
X157156913Y-100532584D01*
X157262182Y-100535192D01*
X157348498Y-100537896D01*
X157408846Y-100540578D01*
X157436209Y-100543123D01*
X157450414Y-100548782D01*
X157463810Y-100570707D01*
X157457914Y-100616731D01*
X157457337Y-100620000D01*
X157448365Y-100670796D01*
X157446410Y-100700000D01*
X157445432Y-100714606D01*
X157443970Y-100733226D01*
X157429163Y-100760000D01*
X157428728Y-100760786D01*
X157421366Y-100767669D01*
X157410400Y-100800000D01*
X157410000Y-100801180D01*
X157410289Y-100806820D01*
X157416130Y-100818361D01*
X157421047Y-100820000D01*
X157434710Y-100824554D01*
X157472803Y-100825826D01*
X157537183Y-100822604D01*
X157634623Y-100815314D01*
X157661435Y-100812529D01*
X157722638Y-100796131D01*
X157759623Y-100764469D01*
X157764146Y-100757392D01*
X157784171Y-100699820D01*
X157789517Y-100631630D01*
X157780369Y-100568835D01*
X157756908Y-100527448D01*
X157739512Y-100523682D01*
X157684449Y-100519397D01*
X157595455Y-100515544D01*
X157475891Y-100512119D01*
X157329117Y-100509121D01*
X157158494Y-100506548D01*
X156967382Y-100504396D01*
X156759141Y-100502664D01*
X156537132Y-100501350D01*
X156304715Y-100500450D01*
X156065251Y-100499963D01*
X155822099Y-100499887D01*
X155578620Y-100500219D01*
X155338174Y-100500956D01*
X155104122Y-100502097D01*
X154879824Y-100503640D01*
X154668641Y-100505581D01*
X154473932Y-100507918D01*
X154299058Y-100510650D01*
X154147380Y-100513774D01*
X154022258Y-100517288D01*
X153927051Y-100521189D01*
X153865121Y-100525474D01*
X153839828Y-100530143D01*
X153827164Y-100553403D01*
X153815957Y-100605563D01*
X153809886Y-100671435D01*
X153809495Y-100737759D01*
X153727507Y-100737759D01*
X153729449Y-100719590D01*
X153730000Y-100630984D01*
X153729997Y-100622049D01*
X153730867Y-100539693D01*
X153738085Y-100485156D01*
X153758379Y-100452692D01*
X153798477Y-100436555D01*
X153865108Y-100430997D01*
X153965000Y-100430273D01*
X154110000Y-100430000D01*
X154110000Y-100311620D01*
X154190000Y-100311620D01*
X154190000Y-100430000D01*
X154535000Y-100425964D01*
X154581274Y-100425381D01*
X154717706Y-100423358D01*
X154878140Y-100420651D01*
X155051230Y-100417465D01*
X155225632Y-100414005D01*
X155390000Y-100410477D01*
X155462203Y-100409033D01*
X155626722Y-100406617D01*
X155816811Y-100404724D01*
X156022974Y-100403408D01*
X156235715Y-100402722D01*
X156445537Y-100402720D01*
X156642945Y-100403455D01*
X157385889Y-100407883D01*
X157397672Y-100363941D01*
X157398393Y-100361146D01*
X157406283Y-100308544D01*
X157409372Y-100243118D01*
X157407922Y-100178029D01*
X157402194Y-100126441D01*
X157392450Y-100101514D01*
X157388794Y-100100552D01*
X157352990Y-100097342D01*
X157283962Y-100093822D01*
X157186802Y-100090169D01*
X157066602Y-100086561D01*
X156928454Y-100083174D01*
X156777450Y-100080184D01*
X156729126Y-100079307D01*
X156544690Y-100075574D01*
X156334651Y-100070840D01*
X156110086Y-100065378D01*
X155882072Y-100059466D01*
X155661684Y-100053379D01*
X155460000Y-100047392D01*
X155435396Y-100046636D01*
X155182586Y-100039810D01*
X154966208Y-100035920D01*
X154783085Y-100035008D01*
X154630038Y-100037112D01*
X154503891Y-100042275D01*
X154401464Y-100050537D01*
X154319582Y-100061937D01*
X154285828Y-100072680D01*
X154233006Y-100119735D01*
X154200856Y-100199782D01*
X154190000Y-100311620D01*
X154110000Y-100311620D01*
X154110000Y-100163822D01*
X154110002Y-100159440D01*
X154111551Y-100036681D01*
X154116304Y-99949048D01*
X154124674Y-99891905D01*
X154137076Y-99860617D01*
X154142434Y-99854250D01*
X154152565Y-99846996D01*
X154169146Y-99841146D01*
X154195531Y-99836638D01*
X154235074Y-99833408D01*
X154291131Y-99831393D01*
X154367054Y-99830529D01*
X154466199Y-99830753D01*
X154591919Y-99832002D01*
X154747569Y-99834213D01*
X154936504Y-99837322D01*
X155162076Y-99841266D01*
X155360381Y-99844598D01*
X155564466Y-99847663D01*
X155760264Y-99850254D01*
X155942490Y-99852314D01*
X156105861Y-99853791D01*
X156245093Y-99854631D01*
X156354901Y-99854779D01*
X156430000Y-99854182D01*
X156506863Y-99853694D01*
X156620488Y-99854951D01*
X156747821Y-99857983D01*
X156882151Y-99862473D01*
X157016763Y-99868108D01*
X157144946Y-99874573D01*
X157259987Y-99881552D01*
X157355173Y-99888732D01*
X157423791Y-99895797D01*
X157459129Y-99902433D01*
X157470957Y-99911725D01*
X157480440Y-99936122D01*
X157486263Y-99981310D01*
X157489194Y-100053684D01*
X157490000Y-100159639D01*
X157490000Y-100243118D01*
X157490000Y-100405000D01*
G37*
%LPC*%
D12*
X139500000Y-105000000D03*
X145000000Y-105000000D03*
X150500000Y-105000000D03*
D13*
X156000000Y-94000000D03*
D14*
X156000000Y-94000000D03*
D13*
X134000000Y-94000000D03*
D14*
X134000000Y-94000000D03*
D12*
X141500000Y-94000000D03*
X145000000Y-94000000D03*
X148500000Y-94000000D03*
%LPD*%
M02*
