M48
; DRILL file {KiCad 9.0.2-9.0.2-0~ubuntu24.04.1} date 2025-06-11T11:14:06+0200
; FORMAT={-:-/ absolute / metric / decimal}
; #@! TF.CreationDate,2025-06-11T11:14:06+02:00
; #@! TF.GenerationSoftware,Kicad,Pcbnew,9.0.2-9.0.2-0~ubuntu24.04.1
; #@! TF.FileFunction,Plated,1,2,PTH
FMAT,2
METRIC
; #@! TA.AperFunction,Plated,PTH,ViaDrill
T1C0.300
; #@! TA.AperFunction,Plated,PTH,ComponentDrill
T2C1.900
; #@! TA.AperFunction,Plated,PTH,ComponentDrill
T3C3.200
%
G90
G05
T1
X131.0Y-92.0
X131.0Y-96.0
X131.0Y-98.0
X131.0Y-100.0
X131.0Y-102.0
X131.0Y-104.0
X131.0Y-106.0
X133.0Y-90.0
X133.0Y-98.0
X133.0Y-100.0
X133.0Y-102.0
X133.0Y-104.0
X133.0Y-106.0
X133.0Y-108.0
X135.0Y-90.0
X135.0Y-98.0
X135.0Y-100.0
X135.0Y-102.0
X135.0Y-104.0
X135.0Y-106.0
X135.0Y-108.0
X137.0Y-90.0
X137.0Y-92.0
X137.0Y-96.0
X137.0Y-98.0
X137.0Y-100.0
X137.0Y-102.0
X137.0Y-104.0
X137.0Y-106.0
X137.0Y-108.0
X139.0Y-90.0
X139.0Y-92.0
X139.0Y-94.0
X139.0Y-108.0
X141.0Y-90.0
X141.0Y-98.0
X141.0Y-100.0
X141.0Y-102.0
X141.0Y-108.0
X143.0Y-90.0
X143.0Y-108.0
X145.0Y-90.0
X145.0Y-108.0
X147.0Y-90.0
X147.0Y-108.0
X149.0Y-90.0
X149.0Y-92.0
X149.0Y-96.0
X149.0Y-98.0
X149.0Y-100.0
X149.0Y-102.0
X149.0Y-108.0
X151.0Y-90.0
X151.0Y-92.0
X151.0Y-94.0
X151.0Y-96.0
X151.0Y-98.0
X151.0Y-100.0
X151.0Y-102.0
X151.0Y-108.0
X153.0Y-90.0
X153.0Y-92.0
X153.0Y-96.0
X153.0Y-98.0
X153.0Y-100.0
X153.0Y-102.0
X153.0Y-104.0
X153.0Y-106.0
X153.0Y-108.0
X155.0Y-90.0
X155.0Y-98.0
X155.0Y-100.0
X155.0Y-102.0
X155.0Y-104.0
X155.0Y-106.0
X155.0Y-108.0
X157.0Y-90.0
X157.0Y-98.0
X157.0Y-100.0
X157.0Y-102.0
X157.0Y-104.0
X157.0Y-106.0
X157.0Y-108.0
X159.0Y-92.0
X159.0Y-96.0
X159.0Y-98.0
X159.0Y-100.0
X159.0Y-102.0
X159.0Y-104.0
X159.0Y-106.0
T2
X139.5Y-105.0
X141.5Y-94.0
X145.0Y-94.0
X145.0Y-105.0
X148.5Y-94.0
X150.5Y-105.0
T3
X134.0Y-94.0
X156.0Y-94.0
M30
