G04 #@! TF.GenerationSoftware,KiCad,Pcbnew,9.0.2-9.0.2-0~ubuntu24.04.1*
G04 #@! TF.CreationDate,2025-06-12T12:16:46+02:00*
G04 #@! TF.ProjectId,PCB_Rack,5043425f-5261-4636-9b2e-6b696361645f,rev?*
G04 #@! TF.SameCoordinates,Original*
G04 #@! TF.FileFunction,Legend,Top*
G04 #@! TF.FilePolarity,Positive*
%FSLAX46Y46*%
G04 Gerber Fmt 4.6, Leading zero omitted, Abs format (unit mm)*
G04 Created by KiCad (PCBNEW 9.0.2-9.0.2-0~ubuntu24.04.1) date 2025-06-12 12:16:46*
%MOMM*%
%LPD*%
G01*
G04 APERTURE LIST*
G04 Aperture macros list*
%AMRoundRect*
0 Rectangle with rounded corners*
0 $1 Rounding radius*
0 $2 $3 $4 $5 $6 $7 $8 $9 X,Y pos of 4 corners*
0 Add a 4 corners polygon primitive as box body*
4,1,4,$2,$3,$4,$5,$6,$7,$8,$9,$2,$3,0*
0 Add four circle primitives for the rounded corners*
1,1,$1+$1,$2,$3*
1,1,$1+$1,$4,$5*
1,1,$1+$1,$6,$7*
1,1,$1+$1,$8,$9*
0 Add four rect primitives between the rounded corners*
20,1,$1+$1,$2,$3,$4,$5,0*
20,1,$1+$1,$4,$5,$6,$7,0*
20,1,$1+$1,$6,$7,$8,$9,0*
20,1,$1+$1,$8,$9,$2,$3,0*%
G04 Aperture macros list end*
%ADD10C,0.100000*%
%ADD11C,0.150000*%
%ADD12C,0.120000*%
%ADD13RoundRect,0.237500X0.300000X0.237500X-0.300000X0.237500X-0.300000X-0.237500X0.300000X-0.237500X0*%
%ADD14RoundRect,0.090000X0.660000X0.360000X-0.660000X0.360000X-0.660000X-0.360000X0.660000X-0.360000X0*%
%ADD15RoundRect,0.237500X-0.300000X-0.237500X0.300000X-0.237500X0.300000X0.237500X-0.300000X0.237500X0*%
%ADD16R,1.700000X1.700000*%
%ADD17C,1.700000*%
%ADD18RoundRect,0.237500X-0.237500X0.287500X-0.237500X-0.287500X0.237500X-0.287500X0.237500X0.287500X0*%
%ADD19RoundRect,0.237500X-0.250000X-0.237500X0.250000X-0.237500X0.250000X0.237500X-0.250000X0.237500X0*%
%ADD20RoundRect,0.237500X0.250000X0.237500X-0.250000X0.237500X-0.250000X-0.237500X0.250000X-0.237500X0*%
%ADD21RoundRect,0.090000X0.360000X-0.660000X0.360000X0.660000X-0.360000X0.660000X-0.360000X-0.660000X0*%
%ADD22C,2.300000*%
%ADD23C,2.600000*%
%ADD24C,3.800000*%
%ADD25RoundRect,0.100000X-0.100000X0.217500X-0.100000X-0.217500X0.100000X-0.217500X0.100000X0.217500X0*%
%ADD26RoundRect,0.237500X0.237500X-0.250000X0.237500X0.250000X-0.237500X0.250000X-0.237500X-0.250000X0*%
%ADD27RoundRect,0.075000X-0.390000X-0.275000X0.390000X-0.275000X0.390000X0.275000X-0.390000X0.275000X0*%
%ADD28RoundRect,0.075000X-0.075000X-0.275000X0.075000X-0.275000X0.075000X0.275000X-0.075000X0.275000X0*%
%ADD29R,1.750000X0.450000*%
%ADD30RoundRect,0.240000X0.560000X-1.510000X0.560000X1.510000X-0.560000X1.510000X-0.560000X-1.510000X0*%
%ADD31RoundRect,0.237500X-0.237500X0.300000X-0.237500X-0.300000X0.237500X-0.300000X0.237500X0.300000X0*%
%ADD32C,2.100000*%
%ADD33RoundRect,0.315000X-0.735000X3.085000X-0.735000X-3.085000X0.735000X-3.085000X0.735000X3.085000X0*%
%ADD34RoundRect,0.300000X-3.100000X-0.700000X3.100000X-0.700000X3.100000X0.700000X-3.100000X0.700000X0*%
G04 APERTURE END LIST*
D10*
X164192419Y-195878972D02*
X165192419Y-195545639D01*
X165192419Y-195545639D02*
X164192419Y-195212306D01*
X165144800Y-194450401D02*
X165192419Y-194545639D01*
X165192419Y-194545639D02*
X165192419Y-194736115D01*
X165192419Y-194736115D02*
X165144800Y-194831353D01*
X165144800Y-194831353D02*
X165097180Y-194878972D01*
X165097180Y-194878972D02*
X165001942Y-194926591D01*
X165001942Y-194926591D02*
X164716228Y-194926591D01*
X164716228Y-194926591D02*
X164620990Y-194878972D01*
X164620990Y-194878972D02*
X164573371Y-194831353D01*
X164573371Y-194831353D02*
X164525752Y-194736115D01*
X164525752Y-194736115D02*
X164525752Y-194545639D01*
X164525752Y-194545639D02*
X164573371Y-194450401D01*
X165144800Y-193593258D02*
X165192419Y-193688496D01*
X165192419Y-193688496D02*
X165192419Y-193878972D01*
X165192419Y-193878972D02*
X165144800Y-193974210D01*
X165144800Y-193974210D02*
X165097180Y-194021829D01*
X165097180Y-194021829D02*
X165001942Y-194069448D01*
X165001942Y-194069448D02*
X164716228Y-194069448D01*
X164716228Y-194069448D02*
X164620990Y-194021829D01*
X164620990Y-194021829D02*
X164573371Y-193974210D01*
X164573371Y-193974210D02*
X164525752Y-193878972D01*
X164525752Y-193878972D02*
X164525752Y-193688496D01*
X164525752Y-193688496D02*
X164573371Y-193593258D01*
X161410038Y-195242306D02*
X161362419Y-195337544D01*
X161362419Y-195337544D02*
X161362419Y-195480401D01*
X161362419Y-195480401D02*
X161410038Y-195623258D01*
X161410038Y-195623258D02*
X161505276Y-195718496D01*
X161505276Y-195718496D02*
X161600514Y-195766115D01*
X161600514Y-195766115D02*
X161790990Y-195813734D01*
X161790990Y-195813734D02*
X161933847Y-195813734D01*
X161933847Y-195813734D02*
X162124323Y-195766115D01*
X162124323Y-195766115D02*
X162219561Y-195718496D01*
X162219561Y-195718496D02*
X162314800Y-195623258D01*
X162314800Y-195623258D02*
X162362419Y-195480401D01*
X162362419Y-195480401D02*
X162362419Y-195385163D01*
X162362419Y-195385163D02*
X162314800Y-195242306D01*
X162314800Y-195242306D02*
X162267180Y-195194687D01*
X162267180Y-195194687D02*
X161933847Y-195194687D01*
X161933847Y-195194687D02*
X161933847Y-195385163D01*
X161695752Y-194766115D02*
X162362419Y-194766115D01*
X161790990Y-194766115D02*
X161743371Y-194718496D01*
X161743371Y-194718496D02*
X161695752Y-194623258D01*
X161695752Y-194623258D02*
X161695752Y-194480401D01*
X161695752Y-194480401D02*
X161743371Y-194385163D01*
X161743371Y-194385163D02*
X161838609Y-194337544D01*
X161838609Y-194337544D02*
X162362419Y-194337544D01*
X162362419Y-193432782D02*
X161362419Y-193432782D01*
X162314800Y-193432782D02*
X162362419Y-193528020D01*
X162362419Y-193528020D02*
X162362419Y-193718496D01*
X162362419Y-193718496D02*
X162314800Y-193813734D01*
X162314800Y-193813734D02*
X162267180Y-193861353D01*
X162267180Y-193861353D02*
X162171942Y-193908972D01*
X162171942Y-193908972D02*
X161886228Y-193908972D01*
X161886228Y-193908972D02*
X161790990Y-193861353D01*
X161790990Y-193861353D02*
X161743371Y-193813734D01*
X161743371Y-193813734D02*
X161695752Y-193718496D01*
X161695752Y-193718496D02*
X161695752Y-193528020D01*
X161695752Y-193528020D02*
X161743371Y-193432782D01*
X116479122Y-168878323D02*
X116812455Y-168878323D01*
X116412455Y-169106895D02*
X116645789Y-168306895D01*
X116645789Y-168306895D02*
X116879122Y-169106895D01*
X117212455Y-169106895D02*
X117145789Y-169068800D01*
X117145789Y-169068800D02*
X117112455Y-168992609D01*
X117112455Y-168992609D02*
X117112455Y-168306895D01*
X117479122Y-169106895D02*
X117479122Y-168573561D01*
X117479122Y-168306895D02*
X117445789Y-168344990D01*
X117445789Y-168344990D02*
X117479122Y-168383085D01*
X117479122Y-168383085D02*
X117512456Y-168344990D01*
X117512456Y-168344990D02*
X117479122Y-168306895D01*
X117479122Y-168306895D02*
X117479122Y-168383085D01*
X117812455Y-169106895D02*
X117812455Y-168573561D01*
X117812455Y-168649752D02*
X117845789Y-168611657D01*
X117845789Y-168611657D02*
X117912455Y-168573561D01*
X117912455Y-168573561D02*
X118012455Y-168573561D01*
X118012455Y-168573561D02*
X118079122Y-168611657D01*
X118079122Y-168611657D02*
X118112455Y-168687847D01*
X118112455Y-168687847D02*
X118112455Y-169106895D01*
X118112455Y-168687847D02*
X118145789Y-168611657D01*
X118145789Y-168611657D02*
X118212455Y-168573561D01*
X118212455Y-168573561D02*
X118312455Y-168573561D01*
X118312455Y-168573561D02*
X118379122Y-168611657D01*
X118379122Y-168611657D02*
X118412455Y-168687847D01*
X118412455Y-168687847D02*
X118412455Y-169106895D01*
X118579122Y-169183085D02*
X119112455Y-169183085D01*
X119612455Y-168306895D02*
X119279121Y-168306895D01*
X119279121Y-168306895D02*
X119245788Y-168687847D01*
X119245788Y-168687847D02*
X119279121Y-168649752D01*
X119279121Y-168649752D02*
X119345788Y-168611657D01*
X119345788Y-168611657D02*
X119512455Y-168611657D01*
X119512455Y-168611657D02*
X119579121Y-168649752D01*
X119579121Y-168649752D02*
X119612455Y-168687847D01*
X119612455Y-168687847D02*
X119645788Y-168764038D01*
X119645788Y-168764038D02*
X119645788Y-168954514D01*
X119645788Y-168954514D02*
X119612455Y-169030704D01*
X119612455Y-169030704D02*
X119579121Y-169068800D01*
X119579121Y-169068800D02*
X119512455Y-169106895D01*
X119512455Y-169106895D02*
X119345788Y-169106895D01*
X119345788Y-169106895D02*
X119279121Y-169068800D01*
X119279121Y-169068800D02*
X119245788Y-169030704D01*
X119845788Y-168306895D02*
X120079122Y-169106895D01*
X120079122Y-169106895D02*
X120312455Y-168306895D01*
X168282419Y-195706115D02*
X167282419Y-195706115D01*
X167282419Y-195039449D02*
X167282419Y-194848973D01*
X167282419Y-194848973D02*
X167330038Y-194753735D01*
X167330038Y-194753735D02*
X167425276Y-194658497D01*
X167425276Y-194658497D02*
X167615752Y-194610878D01*
X167615752Y-194610878D02*
X167949085Y-194610878D01*
X167949085Y-194610878D02*
X168139561Y-194658497D01*
X168139561Y-194658497D02*
X168234800Y-194753735D01*
X168234800Y-194753735D02*
X168282419Y-194848973D01*
X168282419Y-194848973D02*
X168282419Y-195039449D01*
X168282419Y-195039449D02*
X168234800Y-195134687D01*
X168234800Y-195134687D02*
X168139561Y-195229925D01*
X168139561Y-195229925D02*
X167949085Y-195277544D01*
X167949085Y-195277544D02*
X167615752Y-195277544D01*
X167615752Y-195277544D02*
X167425276Y-195229925D01*
X167425276Y-195229925D02*
X167330038Y-195134687D01*
X167330038Y-195134687D02*
X167282419Y-195039449D01*
D11*
X437347142Y-173359580D02*
X437299523Y-173407200D01*
X437299523Y-173407200D02*
X437156666Y-173454819D01*
X437156666Y-173454819D02*
X437061428Y-173454819D01*
X437061428Y-173454819D02*
X436918571Y-173407200D01*
X436918571Y-173407200D02*
X436823333Y-173311961D01*
X436823333Y-173311961D02*
X436775714Y-173216723D01*
X436775714Y-173216723D02*
X436728095Y-173026247D01*
X436728095Y-173026247D02*
X436728095Y-172883390D01*
X436728095Y-172883390D02*
X436775714Y-172692914D01*
X436775714Y-172692914D02*
X436823333Y-172597676D01*
X436823333Y-172597676D02*
X436918571Y-172502438D01*
X436918571Y-172502438D02*
X437061428Y-172454819D01*
X437061428Y-172454819D02*
X437156666Y-172454819D01*
X437156666Y-172454819D02*
X437299523Y-172502438D01*
X437299523Y-172502438D02*
X437347142Y-172550057D01*
X438299523Y-173454819D02*
X437728095Y-173454819D01*
X438013809Y-173454819D02*
X438013809Y-172454819D01*
X438013809Y-172454819D02*
X437918571Y-172597676D01*
X437918571Y-172597676D02*
X437823333Y-172692914D01*
X437823333Y-172692914D02*
X437728095Y-172740533D01*
X439251904Y-173454819D02*
X438680476Y-173454819D01*
X438966190Y-173454819D02*
X438966190Y-172454819D01*
X438966190Y-172454819D02*
X438870952Y-172597676D01*
X438870952Y-172597676D02*
X438775714Y-172692914D01*
X438775714Y-172692914D02*
X438680476Y-172740533D01*
X291401905Y-168654819D02*
X291401905Y-167654819D01*
X291401905Y-167654819D02*
X291640000Y-167654819D01*
X291640000Y-167654819D02*
X291782857Y-167702438D01*
X291782857Y-167702438D02*
X291878095Y-167797676D01*
X291878095Y-167797676D02*
X291925714Y-167892914D01*
X291925714Y-167892914D02*
X291973333Y-168083390D01*
X291973333Y-168083390D02*
X291973333Y-168226247D01*
X291973333Y-168226247D02*
X291925714Y-168416723D01*
X291925714Y-168416723D02*
X291878095Y-168511961D01*
X291878095Y-168511961D02*
X291782857Y-168607200D01*
X291782857Y-168607200D02*
X291640000Y-168654819D01*
X291640000Y-168654819D02*
X291401905Y-168654819D01*
X292878095Y-167654819D02*
X292401905Y-167654819D01*
X292401905Y-167654819D02*
X292354286Y-168131009D01*
X292354286Y-168131009D02*
X292401905Y-168083390D01*
X292401905Y-168083390D02*
X292497143Y-168035771D01*
X292497143Y-168035771D02*
X292735238Y-168035771D01*
X292735238Y-168035771D02*
X292830476Y-168083390D01*
X292830476Y-168083390D02*
X292878095Y-168131009D01*
X292878095Y-168131009D02*
X292925714Y-168226247D01*
X292925714Y-168226247D02*
X292925714Y-168464342D01*
X292925714Y-168464342D02*
X292878095Y-168559580D01*
X292878095Y-168559580D02*
X292830476Y-168607200D01*
X292830476Y-168607200D02*
X292735238Y-168654819D01*
X292735238Y-168654819D02*
X292497143Y-168654819D01*
X292497143Y-168654819D02*
X292401905Y-168607200D01*
X292401905Y-168607200D02*
X292354286Y-168559580D01*
X292378571Y-172052295D02*
X291921428Y-172052295D01*
X292150000Y-172052295D02*
X292150000Y-171252295D01*
X292150000Y-171252295D02*
X292073809Y-171366580D01*
X292073809Y-171366580D02*
X291997619Y-171442771D01*
X291997619Y-171442771D02*
X291921428Y-171480866D01*
X395807142Y-172449580D02*
X395759523Y-172497200D01*
X395759523Y-172497200D02*
X395616666Y-172544819D01*
X395616666Y-172544819D02*
X395521428Y-172544819D01*
X395521428Y-172544819D02*
X395378571Y-172497200D01*
X395378571Y-172497200D02*
X395283333Y-172401961D01*
X395283333Y-172401961D02*
X395235714Y-172306723D01*
X395235714Y-172306723D02*
X395188095Y-172116247D01*
X395188095Y-172116247D02*
X395188095Y-171973390D01*
X395188095Y-171973390D02*
X395235714Y-171782914D01*
X395235714Y-171782914D02*
X395283333Y-171687676D01*
X395283333Y-171687676D02*
X395378571Y-171592438D01*
X395378571Y-171592438D02*
X395521428Y-171544819D01*
X395521428Y-171544819D02*
X395616666Y-171544819D01*
X395616666Y-171544819D02*
X395759523Y-171592438D01*
X395759523Y-171592438D02*
X395807142Y-171640057D01*
X396759523Y-172544819D02*
X396188095Y-172544819D01*
X396473809Y-172544819D02*
X396473809Y-171544819D01*
X396473809Y-171544819D02*
X396378571Y-171687676D01*
X396378571Y-171687676D02*
X396283333Y-171782914D01*
X396283333Y-171782914D02*
X396188095Y-171830533D01*
X397378571Y-171544819D02*
X397473809Y-171544819D01*
X397473809Y-171544819D02*
X397569047Y-171592438D01*
X397569047Y-171592438D02*
X397616666Y-171640057D01*
X397616666Y-171640057D02*
X397664285Y-171735295D01*
X397664285Y-171735295D02*
X397711904Y-171925771D01*
X397711904Y-171925771D02*
X397711904Y-172163866D01*
X397711904Y-172163866D02*
X397664285Y-172354342D01*
X397664285Y-172354342D02*
X397616666Y-172449580D01*
X397616666Y-172449580D02*
X397569047Y-172497200D01*
X397569047Y-172497200D02*
X397473809Y-172544819D01*
X397473809Y-172544819D02*
X397378571Y-172544819D01*
X397378571Y-172544819D02*
X397283333Y-172497200D01*
X397283333Y-172497200D02*
X397235714Y-172449580D01*
X397235714Y-172449580D02*
X397188095Y-172354342D01*
X397188095Y-172354342D02*
X397140476Y-172163866D01*
X397140476Y-172163866D02*
X397140476Y-171925771D01*
X397140476Y-171925771D02*
X397188095Y-171735295D01*
X397188095Y-171735295D02*
X397235714Y-171640057D01*
X397235714Y-171640057D02*
X397283333Y-171592438D01*
X397283333Y-171592438D02*
X397378571Y-171544819D01*
X164636666Y-180744819D02*
X164636666Y-181459104D01*
X164636666Y-181459104D02*
X164589047Y-181601961D01*
X164589047Y-181601961D02*
X164493809Y-181697200D01*
X164493809Y-181697200D02*
X164350952Y-181744819D01*
X164350952Y-181744819D02*
X164255714Y-181744819D01*
X165255714Y-181173390D02*
X165160476Y-181125771D01*
X165160476Y-181125771D02*
X165112857Y-181078152D01*
X165112857Y-181078152D02*
X165065238Y-180982914D01*
X165065238Y-180982914D02*
X165065238Y-180935295D01*
X165065238Y-180935295D02*
X165112857Y-180840057D01*
X165112857Y-180840057D02*
X165160476Y-180792438D01*
X165160476Y-180792438D02*
X165255714Y-180744819D01*
X165255714Y-180744819D02*
X165446190Y-180744819D01*
X165446190Y-180744819D02*
X165541428Y-180792438D01*
X165541428Y-180792438D02*
X165589047Y-180840057D01*
X165589047Y-180840057D02*
X165636666Y-180935295D01*
X165636666Y-180935295D02*
X165636666Y-180982914D01*
X165636666Y-180982914D02*
X165589047Y-181078152D01*
X165589047Y-181078152D02*
X165541428Y-181125771D01*
X165541428Y-181125771D02*
X165446190Y-181173390D01*
X165446190Y-181173390D02*
X165255714Y-181173390D01*
X165255714Y-181173390D02*
X165160476Y-181221009D01*
X165160476Y-181221009D02*
X165112857Y-181268628D01*
X165112857Y-181268628D02*
X165065238Y-181363866D01*
X165065238Y-181363866D02*
X165065238Y-181554342D01*
X165065238Y-181554342D02*
X165112857Y-181649580D01*
X165112857Y-181649580D02*
X165160476Y-181697200D01*
X165160476Y-181697200D02*
X165255714Y-181744819D01*
X165255714Y-181744819D02*
X165446190Y-181744819D01*
X165446190Y-181744819D02*
X165541428Y-181697200D01*
X165541428Y-181697200D02*
X165589047Y-181649580D01*
X165589047Y-181649580D02*
X165636666Y-181554342D01*
X165636666Y-181554342D02*
X165636666Y-181363866D01*
X165636666Y-181363866D02*
X165589047Y-181268628D01*
X165589047Y-181268628D02*
X165541428Y-181221009D01*
X165541428Y-181221009D02*
X165446190Y-181173390D01*
X120554819Y-172138094D02*
X119554819Y-172138094D01*
X119554819Y-172138094D02*
X119554819Y-171899999D01*
X119554819Y-171899999D02*
X119602438Y-171757142D01*
X119602438Y-171757142D02*
X119697676Y-171661904D01*
X119697676Y-171661904D02*
X119792914Y-171614285D01*
X119792914Y-171614285D02*
X119983390Y-171566666D01*
X119983390Y-171566666D02*
X120126247Y-171566666D01*
X120126247Y-171566666D02*
X120316723Y-171614285D01*
X120316723Y-171614285D02*
X120411961Y-171661904D01*
X120411961Y-171661904D02*
X120507200Y-171757142D01*
X120507200Y-171757142D02*
X120554819Y-171899999D01*
X120554819Y-171899999D02*
X120554819Y-172138094D01*
X119650057Y-171185713D02*
X119602438Y-171138094D01*
X119602438Y-171138094D02*
X119554819Y-171042856D01*
X119554819Y-171042856D02*
X119554819Y-170804761D01*
X119554819Y-170804761D02*
X119602438Y-170709523D01*
X119602438Y-170709523D02*
X119650057Y-170661904D01*
X119650057Y-170661904D02*
X119745295Y-170614285D01*
X119745295Y-170614285D02*
X119840533Y-170614285D01*
X119840533Y-170614285D02*
X119983390Y-170661904D01*
X119983390Y-170661904D02*
X120554819Y-171233332D01*
X120554819Y-171233332D02*
X120554819Y-170614285D01*
X297223333Y-172379580D02*
X297175714Y-172427200D01*
X297175714Y-172427200D02*
X297032857Y-172474819D01*
X297032857Y-172474819D02*
X296937619Y-172474819D01*
X296937619Y-172474819D02*
X296794762Y-172427200D01*
X296794762Y-172427200D02*
X296699524Y-172331961D01*
X296699524Y-172331961D02*
X296651905Y-172236723D01*
X296651905Y-172236723D02*
X296604286Y-172046247D01*
X296604286Y-172046247D02*
X296604286Y-171903390D01*
X296604286Y-171903390D02*
X296651905Y-171712914D01*
X296651905Y-171712914D02*
X296699524Y-171617676D01*
X296699524Y-171617676D02*
X296794762Y-171522438D01*
X296794762Y-171522438D02*
X296937619Y-171474819D01*
X296937619Y-171474819D02*
X297032857Y-171474819D01*
X297032857Y-171474819D02*
X297175714Y-171522438D01*
X297175714Y-171522438D02*
X297223333Y-171570057D01*
X297794762Y-171903390D02*
X297699524Y-171855771D01*
X297699524Y-171855771D02*
X297651905Y-171808152D01*
X297651905Y-171808152D02*
X297604286Y-171712914D01*
X297604286Y-171712914D02*
X297604286Y-171665295D01*
X297604286Y-171665295D02*
X297651905Y-171570057D01*
X297651905Y-171570057D02*
X297699524Y-171522438D01*
X297699524Y-171522438D02*
X297794762Y-171474819D01*
X297794762Y-171474819D02*
X297985238Y-171474819D01*
X297985238Y-171474819D02*
X298080476Y-171522438D01*
X298080476Y-171522438D02*
X298128095Y-171570057D01*
X298128095Y-171570057D02*
X298175714Y-171665295D01*
X298175714Y-171665295D02*
X298175714Y-171712914D01*
X298175714Y-171712914D02*
X298128095Y-171808152D01*
X298128095Y-171808152D02*
X298080476Y-171855771D01*
X298080476Y-171855771D02*
X297985238Y-171903390D01*
X297985238Y-171903390D02*
X297794762Y-171903390D01*
X297794762Y-171903390D02*
X297699524Y-171951009D01*
X297699524Y-171951009D02*
X297651905Y-171998628D01*
X297651905Y-171998628D02*
X297604286Y-172093866D01*
X297604286Y-172093866D02*
X297604286Y-172284342D01*
X297604286Y-172284342D02*
X297651905Y-172379580D01*
X297651905Y-172379580D02*
X297699524Y-172427200D01*
X297699524Y-172427200D02*
X297794762Y-172474819D01*
X297794762Y-172474819D02*
X297985238Y-172474819D01*
X297985238Y-172474819D02*
X298080476Y-172427200D01*
X298080476Y-172427200D02*
X298128095Y-172379580D01*
X298128095Y-172379580D02*
X298175714Y-172284342D01*
X298175714Y-172284342D02*
X298175714Y-172093866D01*
X298175714Y-172093866D02*
X298128095Y-171998628D01*
X298128095Y-171998628D02*
X298080476Y-171951009D01*
X298080476Y-171951009D02*
X297985238Y-171903390D01*
X142273333Y-177799819D02*
X141940000Y-177323628D01*
X141701905Y-177799819D02*
X141701905Y-176799819D01*
X141701905Y-176799819D02*
X142082857Y-176799819D01*
X142082857Y-176799819D02*
X142178095Y-176847438D01*
X142178095Y-176847438D02*
X142225714Y-176895057D01*
X142225714Y-176895057D02*
X142273333Y-176990295D01*
X142273333Y-176990295D02*
X142273333Y-177133152D01*
X142273333Y-177133152D02*
X142225714Y-177228390D01*
X142225714Y-177228390D02*
X142178095Y-177276009D01*
X142178095Y-177276009D02*
X142082857Y-177323628D01*
X142082857Y-177323628D02*
X141701905Y-177323628D01*
X142654286Y-176895057D02*
X142701905Y-176847438D01*
X142701905Y-176847438D02*
X142797143Y-176799819D01*
X142797143Y-176799819D02*
X143035238Y-176799819D01*
X143035238Y-176799819D02*
X143130476Y-176847438D01*
X143130476Y-176847438D02*
X143178095Y-176895057D01*
X143178095Y-176895057D02*
X143225714Y-176990295D01*
X143225714Y-176990295D02*
X143225714Y-177085533D01*
X143225714Y-177085533D02*
X143178095Y-177228390D01*
X143178095Y-177228390D02*
X142606667Y-177799819D01*
X142606667Y-177799819D02*
X143225714Y-177799819D01*
X165873333Y-174434819D02*
X165540000Y-173958628D01*
X165301905Y-174434819D02*
X165301905Y-173434819D01*
X165301905Y-173434819D02*
X165682857Y-173434819D01*
X165682857Y-173434819D02*
X165778095Y-173482438D01*
X165778095Y-173482438D02*
X165825714Y-173530057D01*
X165825714Y-173530057D02*
X165873333Y-173625295D01*
X165873333Y-173625295D02*
X165873333Y-173768152D01*
X165873333Y-173768152D02*
X165825714Y-173863390D01*
X165825714Y-173863390D02*
X165778095Y-173911009D01*
X165778095Y-173911009D02*
X165682857Y-173958628D01*
X165682857Y-173958628D02*
X165301905Y-173958628D01*
X166730476Y-173434819D02*
X166540000Y-173434819D01*
X166540000Y-173434819D02*
X166444762Y-173482438D01*
X166444762Y-173482438D02*
X166397143Y-173530057D01*
X166397143Y-173530057D02*
X166301905Y-173672914D01*
X166301905Y-173672914D02*
X166254286Y-173863390D01*
X166254286Y-173863390D02*
X166254286Y-174244342D01*
X166254286Y-174244342D02*
X166301905Y-174339580D01*
X166301905Y-174339580D02*
X166349524Y-174387200D01*
X166349524Y-174387200D02*
X166444762Y-174434819D01*
X166444762Y-174434819D02*
X166635238Y-174434819D01*
X166635238Y-174434819D02*
X166730476Y-174387200D01*
X166730476Y-174387200D02*
X166778095Y-174339580D01*
X166778095Y-174339580D02*
X166825714Y-174244342D01*
X166825714Y-174244342D02*
X166825714Y-174006247D01*
X166825714Y-174006247D02*
X166778095Y-173911009D01*
X166778095Y-173911009D02*
X166730476Y-173863390D01*
X166730476Y-173863390D02*
X166635238Y-173815771D01*
X166635238Y-173815771D02*
X166444762Y-173815771D01*
X166444762Y-173815771D02*
X166349524Y-173863390D01*
X166349524Y-173863390D02*
X166301905Y-173911009D01*
X166301905Y-173911009D02*
X166254286Y-174006247D01*
X242781905Y-167404819D02*
X242781905Y-166404819D01*
X242781905Y-166404819D02*
X243020000Y-166404819D01*
X243020000Y-166404819D02*
X243162857Y-166452438D01*
X243162857Y-166452438D02*
X243258095Y-166547676D01*
X243258095Y-166547676D02*
X243305714Y-166642914D01*
X243305714Y-166642914D02*
X243353333Y-166833390D01*
X243353333Y-166833390D02*
X243353333Y-166976247D01*
X243353333Y-166976247D02*
X243305714Y-167166723D01*
X243305714Y-167166723D02*
X243258095Y-167261961D01*
X243258095Y-167261961D02*
X243162857Y-167357200D01*
X243162857Y-167357200D02*
X243020000Y-167404819D01*
X243020000Y-167404819D02*
X242781905Y-167404819D01*
X244210476Y-166738152D02*
X244210476Y-167404819D01*
X243972381Y-166357200D02*
X243734286Y-167071485D01*
X243734286Y-167071485D02*
X244353333Y-167071485D01*
X243778571Y-171672295D02*
X243321428Y-171672295D01*
X243550000Y-171672295D02*
X243550000Y-170872295D01*
X243550000Y-170872295D02*
X243473809Y-170986580D01*
X243473809Y-170986580D02*
X243397619Y-171062771D01*
X243397619Y-171062771D02*
X243321428Y-171100866D01*
X162096666Y-180744819D02*
X162096666Y-181459104D01*
X162096666Y-181459104D02*
X162049047Y-181601961D01*
X162049047Y-181601961D02*
X161953809Y-181697200D01*
X161953809Y-181697200D02*
X161810952Y-181744819D01*
X161810952Y-181744819D02*
X161715714Y-181744819D01*
X162620476Y-181744819D02*
X162810952Y-181744819D01*
X162810952Y-181744819D02*
X162906190Y-181697200D01*
X162906190Y-181697200D02*
X162953809Y-181649580D01*
X162953809Y-181649580D02*
X163049047Y-181506723D01*
X163049047Y-181506723D02*
X163096666Y-181316247D01*
X163096666Y-181316247D02*
X163096666Y-180935295D01*
X163096666Y-180935295D02*
X163049047Y-180840057D01*
X163049047Y-180840057D02*
X163001428Y-180792438D01*
X163001428Y-180792438D02*
X162906190Y-180744819D01*
X162906190Y-180744819D02*
X162715714Y-180744819D01*
X162715714Y-180744819D02*
X162620476Y-180792438D01*
X162620476Y-180792438D02*
X162572857Y-180840057D01*
X162572857Y-180840057D02*
X162525238Y-180935295D01*
X162525238Y-180935295D02*
X162525238Y-181173390D01*
X162525238Y-181173390D02*
X162572857Y-181268628D01*
X162572857Y-181268628D02*
X162620476Y-181316247D01*
X162620476Y-181316247D02*
X162715714Y-181363866D01*
X162715714Y-181363866D02*
X162906190Y-181363866D01*
X162906190Y-181363866D02*
X163001428Y-181316247D01*
X163001428Y-181316247D02*
X163049047Y-181268628D01*
X163049047Y-181268628D02*
X163096666Y-181173390D01*
D10*
X80419800Y-205633332D02*
X80467419Y-205490475D01*
X80467419Y-205490475D02*
X80467419Y-205252380D01*
X80467419Y-205252380D02*
X80419800Y-205157142D01*
X80419800Y-205157142D02*
X80372180Y-205109523D01*
X80372180Y-205109523D02*
X80276942Y-205061904D01*
X80276942Y-205061904D02*
X80181704Y-205061904D01*
X80181704Y-205061904D02*
X80086466Y-205109523D01*
X80086466Y-205109523D02*
X80038847Y-205157142D01*
X80038847Y-205157142D02*
X79991228Y-205252380D01*
X79991228Y-205252380D02*
X79943609Y-205442856D01*
X79943609Y-205442856D02*
X79895990Y-205538094D01*
X79895990Y-205538094D02*
X79848371Y-205585713D01*
X79848371Y-205585713D02*
X79753133Y-205633332D01*
X79753133Y-205633332D02*
X79657895Y-205633332D01*
X79657895Y-205633332D02*
X79562657Y-205585713D01*
X79562657Y-205585713D02*
X79515038Y-205538094D01*
X79515038Y-205538094D02*
X79467419Y-205442856D01*
X79467419Y-205442856D02*
X79467419Y-205204761D01*
X79467419Y-205204761D02*
X79515038Y-205061904D01*
X79467419Y-204728570D02*
X80467419Y-204490475D01*
X80467419Y-204490475D02*
X79753133Y-204299999D01*
X79753133Y-204299999D02*
X80467419Y-204109523D01*
X80467419Y-204109523D02*
X79467419Y-203871428D01*
X80467419Y-202966666D02*
X80467419Y-203538094D01*
X80467419Y-203252380D02*
X79467419Y-203252380D01*
X79467419Y-203252380D02*
X79610276Y-203347618D01*
X79610276Y-203347618D02*
X79705514Y-203442856D01*
X79705514Y-203442856D02*
X79753133Y-203538094D01*
D11*
X166700476Y-180744819D02*
X166700476Y-181459104D01*
X166700476Y-181459104D02*
X166652857Y-181601961D01*
X166652857Y-181601961D02*
X166557619Y-181697200D01*
X166557619Y-181697200D02*
X166414762Y-181744819D01*
X166414762Y-181744819D02*
X166319524Y-181744819D01*
X167700476Y-181744819D02*
X167129048Y-181744819D01*
X167414762Y-181744819D02*
X167414762Y-180744819D01*
X167414762Y-180744819D02*
X167319524Y-180887676D01*
X167319524Y-180887676D02*
X167224286Y-180982914D01*
X167224286Y-180982914D02*
X167129048Y-181030533D01*
X168319524Y-180744819D02*
X168414762Y-180744819D01*
X168414762Y-180744819D02*
X168510000Y-180792438D01*
X168510000Y-180792438D02*
X168557619Y-180840057D01*
X168557619Y-180840057D02*
X168605238Y-180935295D01*
X168605238Y-180935295D02*
X168652857Y-181125771D01*
X168652857Y-181125771D02*
X168652857Y-181363866D01*
X168652857Y-181363866D02*
X168605238Y-181554342D01*
X168605238Y-181554342D02*
X168557619Y-181649580D01*
X168557619Y-181649580D02*
X168510000Y-181697200D01*
X168510000Y-181697200D02*
X168414762Y-181744819D01*
X168414762Y-181744819D02*
X168319524Y-181744819D01*
X168319524Y-181744819D02*
X168224286Y-181697200D01*
X168224286Y-181697200D02*
X168176667Y-181649580D01*
X168176667Y-181649580D02*
X168129048Y-181554342D01*
X168129048Y-181554342D02*
X168081429Y-181363866D01*
X168081429Y-181363866D02*
X168081429Y-181125771D01*
X168081429Y-181125771D02*
X168129048Y-180935295D01*
X168129048Y-180935295D02*
X168176667Y-180840057D01*
X168176667Y-180840057D02*
X168224286Y-180792438D01*
X168224286Y-180792438D02*
X168319524Y-180744819D01*
X340811922Y-173094580D02*
X340764303Y-173142200D01*
X340764303Y-173142200D02*
X340621446Y-173189819D01*
X340621446Y-173189819D02*
X340526208Y-173189819D01*
X340526208Y-173189819D02*
X340383351Y-173142200D01*
X340383351Y-173142200D02*
X340288113Y-173046961D01*
X340288113Y-173046961D02*
X340240494Y-172951723D01*
X340240494Y-172951723D02*
X340192875Y-172761247D01*
X340192875Y-172761247D02*
X340192875Y-172618390D01*
X340192875Y-172618390D02*
X340240494Y-172427914D01*
X340240494Y-172427914D02*
X340288113Y-172332676D01*
X340288113Y-172332676D02*
X340383351Y-172237438D01*
X340383351Y-172237438D02*
X340526208Y-172189819D01*
X340526208Y-172189819D02*
X340621446Y-172189819D01*
X340621446Y-172189819D02*
X340764303Y-172237438D01*
X340764303Y-172237438D02*
X340811922Y-172285057D01*
X341288113Y-173189819D02*
X341478589Y-173189819D01*
X341478589Y-173189819D02*
X341573827Y-173142200D01*
X341573827Y-173142200D02*
X341621446Y-173094580D01*
X341621446Y-173094580D02*
X341716684Y-172951723D01*
X341716684Y-172951723D02*
X341764303Y-172761247D01*
X341764303Y-172761247D02*
X341764303Y-172380295D01*
X341764303Y-172380295D02*
X341716684Y-172285057D01*
X341716684Y-172285057D02*
X341669065Y-172237438D01*
X341669065Y-172237438D02*
X341573827Y-172189819D01*
X341573827Y-172189819D02*
X341383351Y-172189819D01*
X341383351Y-172189819D02*
X341288113Y-172237438D01*
X341288113Y-172237438D02*
X341240494Y-172285057D01*
X341240494Y-172285057D02*
X341192875Y-172380295D01*
X341192875Y-172380295D02*
X341192875Y-172618390D01*
X341192875Y-172618390D02*
X341240494Y-172713628D01*
X341240494Y-172713628D02*
X341288113Y-172761247D01*
X341288113Y-172761247D02*
X341383351Y-172808866D01*
X341383351Y-172808866D02*
X341573827Y-172808866D01*
X341573827Y-172808866D02*
X341669065Y-172761247D01*
X341669065Y-172761247D02*
X341716684Y-172713628D01*
X341716684Y-172713628D02*
X341764303Y-172618390D01*
X477238095Y-203844819D02*
X477238095Y-202844819D01*
X477238095Y-203321009D02*
X477809523Y-203321009D01*
X477809523Y-203844819D02*
X477809523Y-202844819D01*
X478761904Y-202844819D02*
X478285714Y-202844819D01*
X478285714Y-202844819D02*
X478238095Y-203321009D01*
X478238095Y-203321009D02*
X478285714Y-203273390D01*
X478285714Y-203273390D02*
X478380952Y-203225771D01*
X478380952Y-203225771D02*
X478619047Y-203225771D01*
X478619047Y-203225771D02*
X478714285Y-203273390D01*
X478714285Y-203273390D02*
X478761904Y-203321009D01*
X478761904Y-203321009D02*
X478809523Y-203416247D01*
X478809523Y-203416247D02*
X478809523Y-203654342D01*
X478809523Y-203654342D02*
X478761904Y-203749580D01*
X478761904Y-203749580D02*
X478714285Y-203797200D01*
X478714285Y-203797200D02*
X478619047Y-203844819D01*
X478619047Y-203844819D02*
X478380952Y-203844819D01*
X478380952Y-203844819D02*
X478285714Y-203797200D01*
X478285714Y-203797200D02*
X478238095Y-203749580D01*
X191361905Y-168579819D02*
X191361905Y-167579819D01*
X191361905Y-167579819D02*
X191600000Y-167579819D01*
X191600000Y-167579819D02*
X191742857Y-167627438D01*
X191742857Y-167627438D02*
X191838095Y-167722676D01*
X191838095Y-167722676D02*
X191885714Y-167817914D01*
X191885714Y-167817914D02*
X191933333Y-168008390D01*
X191933333Y-168008390D02*
X191933333Y-168151247D01*
X191933333Y-168151247D02*
X191885714Y-168341723D01*
X191885714Y-168341723D02*
X191838095Y-168436961D01*
X191838095Y-168436961D02*
X191742857Y-168532200D01*
X191742857Y-168532200D02*
X191600000Y-168579819D01*
X191600000Y-168579819D02*
X191361905Y-168579819D01*
X192266667Y-167579819D02*
X192885714Y-167579819D01*
X192885714Y-167579819D02*
X192552381Y-167960771D01*
X192552381Y-167960771D02*
X192695238Y-167960771D01*
X192695238Y-167960771D02*
X192790476Y-168008390D01*
X192790476Y-168008390D02*
X192838095Y-168056009D01*
X192838095Y-168056009D02*
X192885714Y-168151247D01*
X192885714Y-168151247D02*
X192885714Y-168389342D01*
X192885714Y-168389342D02*
X192838095Y-168484580D01*
X192838095Y-168484580D02*
X192790476Y-168532200D01*
X192790476Y-168532200D02*
X192695238Y-168579819D01*
X192695238Y-168579819D02*
X192409524Y-168579819D01*
X192409524Y-168579819D02*
X192314286Y-168532200D01*
X192314286Y-168532200D02*
X192266667Y-168484580D01*
X192328571Y-172112295D02*
X191871428Y-172112295D01*
X192100000Y-172112295D02*
X192100000Y-171312295D01*
X192100000Y-171312295D02*
X192023809Y-171426580D01*
X192023809Y-171426580D02*
X191947619Y-171502771D01*
X191947619Y-171502771D02*
X191871428Y-171540866D01*
X442381905Y-167814819D02*
X442381905Y-166814819D01*
X442381905Y-166814819D02*
X442620000Y-166814819D01*
X442620000Y-166814819D02*
X442762857Y-166862438D01*
X442762857Y-166862438D02*
X442858095Y-166957676D01*
X442858095Y-166957676D02*
X442905714Y-167052914D01*
X442905714Y-167052914D02*
X442953333Y-167243390D01*
X442953333Y-167243390D02*
X442953333Y-167386247D01*
X442953333Y-167386247D02*
X442905714Y-167576723D01*
X442905714Y-167576723D02*
X442858095Y-167671961D01*
X442858095Y-167671961D02*
X442762857Y-167767200D01*
X442762857Y-167767200D02*
X442620000Y-167814819D01*
X442620000Y-167814819D02*
X442381905Y-167814819D01*
X443524762Y-167243390D02*
X443429524Y-167195771D01*
X443429524Y-167195771D02*
X443381905Y-167148152D01*
X443381905Y-167148152D02*
X443334286Y-167052914D01*
X443334286Y-167052914D02*
X443334286Y-167005295D01*
X443334286Y-167005295D02*
X443381905Y-166910057D01*
X443381905Y-166910057D02*
X443429524Y-166862438D01*
X443429524Y-166862438D02*
X443524762Y-166814819D01*
X443524762Y-166814819D02*
X443715238Y-166814819D01*
X443715238Y-166814819D02*
X443810476Y-166862438D01*
X443810476Y-166862438D02*
X443858095Y-166910057D01*
X443858095Y-166910057D02*
X443905714Y-167005295D01*
X443905714Y-167005295D02*
X443905714Y-167052914D01*
X443905714Y-167052914D02*
X443858095Y-167148152D01*
X443858095Y-167148152D02*
X443810476Y-167195771D01*
X443810476Y-167195771D02*
X443715238Y-167243390D01*
X443715238Y-167243390D02*
X443524762Y-167243390D01*
X443524762Y-167243390D02*
X443429524Y-167291009D01*
X443429524Y-167291009D02*
X443381905Y-167338628D01*
X443381905Y-167338628D02*
X443334286Y-167433866D01*
X443334286Y-167433866D02*
X443334286Y-167624342D01*
X443334286Y-167624342D02*
X443381905Y-167719580D01*
X443381905Y-167719580D02*
X443429524Y-167767200D01*
X443429524Y-167767200D02*
X443524762Y-167814819D01*
X443524762Y-167814819D02*
X443715238Y-167814819D01*
X443715238Y-167814819D02*
X443810476Y-167767200D01*
X443810476Y-167767200D02*
X443858095Y-167719580D01*
X443858095Y-167719580D02*
X443905714Y-167624342D01*
X443905714Y-167624342D02*
X443905714Y-167433866D01*
X443905714Y-167433866D02*
X443858095Y-167338628D01*
X443858095Y-167338628D02*
X443810476Y-167291009D01*
X443810476Y-167291009D02*
X443715238Y-167243390D01*
X443328571Y-172112295D02*
X442871428Y-172112295D01*
X443100000Y-172112295D02*
X443100000Y-171312295D01*
X443100000Y-171312295D02*
X443023809Y-171426580D01*
X443023809Y-171426580D02*
X442947619Y-171502771D01*
X442947619Y-171502771D02*
X442871428Y-171540866D01*
X477238095Y-167404819D02*
X477238095Y-166404819D01*
X477238095Y-166881009D02*
X477809523Y-166881009D01*
X477809523Y-167404819D02*
X477809523Y-166404819D01*
X478714285Y-166404819D02*
X478523809Y-166404819D01*
X478523809Y-166404819D02*
X478428571Y-166452438D01*
X478428571Y-166452438D02*
X478380952Y-166500057D01*
X478380952Y-166500057D02*
X478285714Y-166642914D01*
X478285714Y-166642914D02*
X478238095Y-166833390D01*
X478238095Y-166833390D02*
X478238095Y-167214342D01*
X478238095Y-167214342D02*
X478285714Y-167309580D01*
X478285714Y-167309580D02*
X478333333Y-167357200D01*
X478333333Y-167357200D02*
X478428571Y-167404819D01*
X478428571Y-167404819D02*
X478619047Y-167404819D01*
X478619047Y-167404819D02*
X478714285Y-167357200D01*
X478714285Y-167357200D02*
X478761904Y-167309580D01*
X478761904Y-167309580D02*
X478809523Y-167214342D01*
X478809523Y-167214342D02*
X478809523Y-166976247D01*
X478809523Y-166976247D02*
X478761904Y-166881009D01*
X478761904Y-166881009D02*
X478714285Y-166833390D01*
X478714285Y-166833390D02*
X478619047Y-166785771D01*
X478619047Y-166785771D02*
X478428571Y-166785771D01*
X478428571Y-166785771D02*
X478333333Y-166833390D01*
X478333333Y-166833390D02*
X478285714Y-166881009D01*
X478285714Y-166881009D02*
X478238095Y-166976247D01*
X186543333Y-172894819D02*
X186210000Y-172418628D01*
X185971905Y-172894819D02*
X185971905Y-171894819D01*
X185971905Y-171894819D02*
X186352857Y-171894819D01*
X186352857Y-171894819D02*
X186448095Y-171942438D01*
X186448095Y-171942438D02*
X186495714Y-171990057D01*
X186495714Y-171990057D02*
X186543333Y-172085295D01*
X186543333Y-172085295D02*
X186543333Y-172228152D01*
X186543333Y-172228152D02*
X186495714Y-172323390D01*
X186495714Y-172323390D02*
X186448095Y-172371009D01*
X186448095Y-172371009D02*
X186352857Y-172418628D01*
X186352857Y-172418628D02*
X185971905Y-172418628D01*
X187400476Y-172228152D02*
X187400476Y-172894819D01*
X187162381Y-171847200D02*
X186924286Y-172561485D01*
X186924286Y-172561485D02*
X187543333Y-172561485D01*
X238303333Y-173059580D02*
X238255714Y-173107200D01*
X238255714Y-173107200D02*
X238112857Y-173154819D01*
X238112857Y-173154819D02*
X238017619Y-173154819D01*
X238017619Y-173154819D02*
X237874762Y-173107200D01*
X237874762Y-173107200D02*
X237779524Y-173011961D01*
X237779524Y-173011961D02*
X237731905Y-172916723D01*
X237731905Y-172916723D02*
X237684286Y-172726247D01*
X237684286Y-172726247D02*
X237684286Y-172583390D01*
X237684286Y-172583390D02*
X237731905Y-172392914D01*
X237731905Y-172392914D02*
X237779524Y-172297676D01*
X237779524Y-172297676D02*
X237874762Y-172202438D01*
X237874762Y-172202438D02*
X238017619Y-172154819D01*
X238017619Y-172154819D02*
X238112857Y-172154819D01*
X238112857Y-172154819D02*
X238255714Y-172202438D01*
X238255714Y-172202438D02*
X238303333Y-172250057D01*
X238636667Y-172154819D02*
X239303333Y-172154819D01*
X239303333Y-172154819D02*
X238874762Y-173154819D01*
X401258095Y-186684819D02*
X401258095Y-185684819D01*
X401258095Y-186161009D02*
X401829523Y-186161009D01*
X401829523Y-186684819D02*
X401829523Y-185684819D01*
X402210476Y-185684819D02*
X402877142Y-185684819D01*
X402877142Y-185684819D02*
X402448571Y-186684819D01*
X163013333Y-172694819D02*
X162680000Y-172218628D01*
X162441905Y-172694819D02*
X162441905Y-171694819D01*
X162441905Y-171694819D02*
X162822857Y-171694819D01*
X162822857Y-171694819D02*
X162918095Y-171742438D01*
X162918095Y-171742438D02*
X162965714Y-171790057D01*
X162965714Y-171790057D02*
X163013333Y-171885295D01*
X163013333Y-171885295D02*
X163013333Y-172028152D01*
X163013333Y-172028152D02*
X162965714Y-172123390D01*
X162965714Y-172123390D02*
X162918095Y-172171009D01*
X162918095Y-172171009D02*
X162822857Y-172218628D01*
X162822857Y-172218628D02*
X162441905Y-172218628D01*
X163918095Y-171694819D02*
X163441905Y-171694819D01*
X163441905Y-171694819D02*
X163394286Y-172171009D01*
X163394286Y-172171009D02*
X163441905Y-172123390D01*
X163441905Y-172123390D02*
X163537143Y-172075771D01*
X163537143Y-172075771D02*
X163775238Y-172075771D01*
X163775238Y-172075771D02*
X163870476Y-172123390D01*
X163870476Y-172123390D02*
X163918095Y-172171009D01*
X163918095Y-172171009D02*
X163965714Y-172266247D01*
X163965714Y-172266247D02*
X163965714Y-172504342D01*
X163965714Y-172504342D02*
X163918095Y-172599580D01*
X163918095Y-172599580D02*
X163870476Y-172647200D01*
X163870476Y-172647200D02*
X163775238Y-172694819D01*
X163775238Y-172694819D02*
X163537143Y-172694819D01*
X163537143Y-172694819D02*
X163441905Y-172647200D01*
X163441905Y-172647200D02*
X163394286Y-172599580D01*
X145769580Y-185016666D02*
X145817200Y-185064285D01*
X145817200Y-185064285D02*
X145864819Y-185207142D01*
X145864819Y-185207142D02*
X145864819Y-185302380D01*
X145864819Y-185302380D02*
X145817200Y-185445237D01*
X145817200Y-185445237D02*
X145721961Y-185540475D01*
X145721961Y-185540475D02*
X145626723Y-185588094D01*
X145626723Y-185588094D02*
X145436247Y-185635713D01*
X145436247Y-185635713D02*
X145293390Y-185635713D01*
X145293390Y-185635713D02*
X145102914Y-185588094D01*
X145102914Y-185588094D02*
X145007676Y-185540475D01*
X145007676Y-185540475D02*
X144912438Y-185445237D01*
X144912438Y-185445237D02*
X144864819Y-185302380D01*
X144864819Y-185302380D02*
X144864819Y-185207142D01*
X144864819Y-185207142D02*
X144912438Y-185064285D01*
X144912438Y-185064285D02*
X144960057Y-185016666D01*
X144960057Y-184635713D02*
X144912438Y-184588094D01*
X144912438Y-184588094D02*
X144864819Y-184492856D01*
X144864819Y-184492856D02*
X144864819Y-184254761D01*
X144864819Y-184254761D02*
X144912438Y-184159523D01*
X144912438Y-184159523D02*
X144960057Y-184111904D01*
X144960057Y-184111904D02*
X145055295Y-184064285D01*
X145055295Y-184064285D02*
X145150533Y-184064285D01*
X145150533Y-184064285D02*
X145293390Y-184111904D01*
X145293390Y-184111904D02*
X145864819Y-184683332D01*
X145864819Y-184683332D02*
X145864819Y-184064285D01*
X88588095Y-168344819D02*
X88588095Y-167344819D01*
X88588095Y-167821009D02*
X89159523Y-167821009D01*
X89159523Y-168344819D02*
X89159523Y-167344819D01*
X89588095Y-167440057D02*
X89635714Y-167392438D01*
X89635714Y-167392438D02*
X89730952Y-167344819D01*
X89730952Y-167344819D02*
X89969047Y-167344819D01*
X89969047Y-167344819D02*
X90064285Y-167392438D01*
X90064285Y-167392438D02*
X90111904Y-167440057D01*
X90111904Y-167440057D02*
X90159523Y-167535295D01*
X90159523Y-167535295D02*
X90159523Y-167630533D01*
X90159523Y-167630533D02*
X90111904Y-167773390D01*
X90111904Y-167773390D02*
X89540476Y-168344819D01*
X89540476Y-168344819D02*
X90159523Y-168344819D01*
X120604819Y-175406666D02*
X120128628Y-175739999D01*
X120604819Y-175978094D02*
X119604819Y-175978094D01*
X119604819Y-175978094D02*
X119604819Y-175597142D01*
X119604819Y-175597142D02*
X119652438Y-175501904D01*
X119652438Y-175501904D02*
X119700057Y-175454285D01*
X119700057Y-175454285D02*
X119795295Y-175406666D01*
X119795295Y-175406666D02*
X119938152Y-175406666D01*
X119938152Y-175406666D02*
X120033390Y-175454285D01*
X120033390Y-175454285D02*
X120081009Y-175501904D01*
X120081009Y-175501904D02*
X120128628Y-175597142D01*
X120128628Y-175597142D02*
X120128628Y-175978094D01*
X119604819Y-175073332D02*
X119604819Y-174454285D01*
X119604819Y-174454285D02*
X119985771Y-174787618D01*
X119985771Y-174787618D02*
X119985771Y-174644761D01*
X119985771Y-174644761D02*
X120033390Y-174549523D01*
X120033390Y-174549523D02*
X120081009Y-174501904D01*
X120081009Y-174501904D02*
X120176247Y-174454285D01*
X120176247Y-174454285D02*
X120414342Y-174454285D01*
X120414342Y-174454285D02*
X120509580Y-174501904D01*
X120509580Y-174501904D02*
X120557200Y-174549523D01*
X120557200Y-174549523D02*
X120604819Y-174644761D01*
X120604819Y-174644761D02*
X120604819Y-174930475D01*
X120604819Y-174930475D02*
X120557200Y-175025713D01*
X120557200Y-175025713D02*
X120509580Y-175073332D01*
X230538095Y-186604819D02*
X230538095Y-185604819D01*
X230538095Y-186081009D02*
X231109523Y-186081009D01*
X231109523Y-186604819D02*
X231109523Y-185604819D01*
X231490476Y-185604819D02*
X232109523Y-185604819D01*
X232109523Y-185604819D02*
X231776190Y-185985771D01*
X231776190Y-185985771D02*
X231919047Y-185985771D01*
X231919047Y-185985771D02*
X232014285Y-186033390D01*
X232014285Y-186033390D02*
X232061904Y-186081009D01*
X232061904Y-186081009D02*
X232109523Y-186176247D01*
X232109523Y-186176247D02*
X232109523Y-186414342D01*
X232109523Y-186414342D02*
X232061904Y-186509580D01*
X232061904Y-186509580D02*
X232014285Y-186557200D01*
X232014285Y-186557200D02*
X231919047Y-186604819D01*
X231919047Y-186604819D02*
X231633333Y-186604819D01*
X231633333Y-186604819D02*
X231538095Y-186557200D01*
X231538095Y-186557200D02*
X231490476Y-186509580D01*
X153941905Y-184074819D02*
X153941905Y-183074819D01*
X153941905Y-183074819D02*
X154180000Y-183074819D01*
X154180000Y-183074819D02*
X154322857Y-183122438D01*
X154322857Y-183122438D02*
X154418095Y-183217676D01*
X154418095Y-183217676D02*
X154465714Y-183312914D01*
X154465714Y-183312914D02*
X154513333Y-183503390D01*
X154513333Y-183503390D02*
X154513333Y-183646247D01*
X154513333Y-183646247D02*
X154465714Y-183836723D01*
X154465714Y-183836723D02*
X154418095Y-183931961D01*
X154418095Y-183931961D02*
X154322857Y-184027200D01*
X154322857Y-184027200D02*
X154180000Y-184074819D01*
X154180000Y-184074819D02*
X153941905Y-184074819D01*
X155465714Y-184074819D02*
X154894286Y-184074819D01*
X155180000Y-184074819D02*
X155180000Y-183074819D01*
X155180000Y-183074819D02*
X155084762Y-183217676D01*
X155084762Y-183217676D02*
X154989524Y-183312914D01*
X154989524Y-183312914D02*
X154894286Y-183360533D01*
X150883333Y-177854580D02*
X150835714Y-177902200D01*
X150835714Y-177902200D02*
X150692857Y-177949819D01*
X150692857Y-177949819D02*
X150597619Y-177949819D01*
X150597619Y-177949819D02*
X150454762Y-177902200D01*
X150454762Y-177902200D02*
X150359524Y-177806961D01*
X150359524Y-177806961D02*
X150311905Y-177711723D01*
X150311905Y-177711723D02*
X150264286Y-177521247D01*
X150264286Y-177521247D02*
X150264286Y-177378390D01*
X150264286Y-177378390D02*
X150311905Y-177187914D01*
X150311905Y-177187914D02*
X150359524Y-177092676D01*
X150359524Y-177092676D02*
X150454762Y-176997438D01*
X150454762Y-176997438D02*
X150597619Y-176949819D01*
X150597619Y-176949819D02*
X150692857Y-176949819D01*
X150692857Y-176949819D02*
X150835714Y-176997438D01*
X150835714Y-176997438D02*
X150883333Y-177045057D01*
X151740476Y-177283152D02*
X151740476Y-177949819D01*
X151502381Y-176902200D02*
X151264286Y-177616485D01*
X151264286Y-177616485D02*
X151883333Y-177616485D01*
X132268095Y-166534819D02*
X132268095Y-167344342D01*
X132268095Y-167344342D02*
X132315714Y-167439580D01*
X132315714Y-167439580D02*
X132363333Y-167487200D01*
X132363333Y-167487200D02*
X132458571Y-167534819D01*
X132458571Y-167534819D02*
X132649047Y-167534819D01*
X132649047Y-167534819D02*
X132744285Y-167487200D01*
X132744285Y-167487200D02*
X132791904Y-167439580D01*
X132791904Y-167439580D02*
X132839523Y-167344342D01*
X132839523Y-167344342D02*
X132839523Y-166534819D01*
X133220476Y-166534819D02*
X133839523Y-166534819D01*
X133839523Y-166534819D02*
X133506190Y-166915771D01*
X133506190Y-166915771D02*
X133649047Y-166915771D01*
X133649047Y-166915771D02*
X133744285Y-166963390D01*
X133744285Y-166963390D02*
X133791904Y-167011009D01*
X133791904Y-167011009D02*
X133839523Y-167106247D01*
X133839523Y-167106247D02*
X133839523Y-167344342D01*
X133839523Y-167344342D02*
X133791904Y-167439580D01*
X133791904Y-167439580D02*
X133744285Y-167487200D01*
X133744285Y-167487200D02*
X133649047Y-167534819D01*
X133649047Y-167534819D02*
X133363333Y-167534819D01*
X133363333Y-167534819D02*
X133268095Y-167487200D01*
X133268095Y-167487200D02*
X133220476Y-167439580D01*
X345371905Y-167974819D02*
X345371905Y-166974819D01*
X345371905Y-166974819D02*
X345610000Y-166974819D01*
X345610000Y-166974819D02*
X345752857Y-167022438D01*
X345752857Y-167022438D02*
X345848095Y-167117676D01*
X345848095Y-167117676D02*
X345895714Y-167212914D01*
X345895714Y-167212914D02*
X345943333Y-167403390D01*
X345943333Y-167403390D02*
X345943333Y-167546247D01*
X345943333Y-167546247D02*
X345895714Y-167736723D01*
X345895714Y-167736723D02*
X345848095Y-167831961D01*
X345848095Y-167831961D02*
X345752857Y-167927200D01*
X345752857Y-167927200D02*
X345610000Y-167974819D01*
X345610000Y-167974819D02*
X345371905Y-167974819D01*
X346800476Y-166974819D02*
X346610000Y-166974819D01*
X346610000Y-166974819D02*
X346514762Y-167022438D01*
X346514762Y-167022438D02*
X346467143Y-167070057D01*
X346467143Y-167070057D02*
X346371905Y-167212914D01*
X346371905Y-167212914D02*
X346324286Y-167403390D01*
X346324286Y-167403390D02*
X346324286Y-167784342D01*
X346324286Y-167784342D02*
X346371905Y-167879580D01*
X346371905Y-167879580D02*
X346419524Y-167927200D01*
X346419524Y-167927200D02*
X346514762Y-167974819D01*
X346514762Y-167974819D02*
X346705238Y-167974819D01*
X346705238Y-167974819D02*
X346800476Y-167927200D01*
X346800476Y-167927200D02*
X346848095Y-167879580D01*
X346848095Y-167879580D02*
X346895714Y-167784342D01*
X346895714Y-167784342D02*
X346895714Y-167546247D01*
X346895714Y-167546247D02*
X346848095Y-167451009D01*
X346848095Y-167451009D02*
X346800476Y-167403390D01*
X346800476Y-167403390D02*
X346705238Y-167355771D01*
X346705238Y-167355771D02*
X346514762Y-167355771D01*
X346514762Y-167355771D02*
X346419524Y-167403390D01*
X346419524Y-167403390D02*
X346371905Y-167451009D01*
X346371905Y-167451009D02*
X346324286Y-167546247D01*
X346338571Y-172172295D02*
X345881428Y-172172295D01*
X346110000Y-172172295D02*
X346110000Y-171372295D01*
X346110000Y-171372295D02*
X346033809Y-171486580D01*
X346033809Y-171486580D02*
X345957619Y-171562771D01*
X345957619Y-171562771D02*
X345881428Y-171600866D01*
D10*
X106603094Y-179757419D02*
X106603094Y-180566942D01*
X106603094Y-180566942D02*
X106650713Y-180662180D01*
X106650713Y-180662180D02*
X106698332Y-180709800D01*
X106698332Y-180709800D02*
X106793570Y-180757419D01*
X106793570Y-180757419D02*
X106984046Y-180757419D01*
X106984046Y-180757419D02*
X107079284Y-180709800D01*
X107079284Y-180709800D02*
X107126903Y-180662180D01*
X107126903Y-180662180D02*
X107174522Y-180566942D01*
X107174522Y-180566942D02*
X107174522Y-179757419D01*
X107603094Y-179852657D02*
X107650713Y-179805038D01*
X107650713Y-179805038D02*
X107745951Y-179757419D01*
X107745951Y-179757419D02*
X107984046Y-179757419D01*
X107984046Y-179757419D02*
X108079284Y-179805038D01*
X108079284Y-179805038D02*
X108126903Y-179852657D01*
X108126903Y-179852657D02*
X108174522Y-179947895D01*
X108174522Y-179947895D02*
X108174522Y-180043133D01*
X108174522Y-180043133D02*
X108126903Y-180185990D01*
X108126903Y-180185990D02*
X107555475Y-180757419D01*
X107555475Y-180757419D02*
X108174522Y-180757419D01*
D11*
X146583333Y-177649819D02*
X146250000Y-177173628D01*
X146011905Y-177649819D02*
X146011905Y-176649819D01*
X146011905Y-176649819D02*
X146392857Y-176649819D01*
X146392857Y-176649819D02*
X146488095Y-176697438D01*
X146488095Y-176697438D02*
X146535714Y-176745057D01*
X146535714Y-176745057D02*
X146583333Y-176840295D01*
X146583333Y-176840295D02*
X146583333Y-176983152D01*
X146583333Y-176983152D02*
X146535714Y-177078390D01*
X146535714Y-177078390D02*
X146488095Y-177126009D01*
X146488095Y-177126009D02*
X146392857Y-177173628D01*
X146392857Y-177173628D02*
X146011905Y-177173628D01*
X147535714Y-177649819D02*
X146964286Y-177649819D01*
X147250000Y-177649819D02*
X147250000Y-176649819D01*
X147250000Y-176649819D02*
X147154762Y-176792676D01*
X147154762Y-176792676D02*
X147059524Y-176887914D01*
X147059524Y-176887914D02*
X146964286Y-176935533D01*
X88588095Y-189874819D02*
X88588095Y-188874819D01*
X88588095Y-189351009D02*
X89159523Y-189351009D01*
X89159523Y-189874819D02*
X89159523Y-188874819D01*
X90159523Y-189874819D02*
X89588095Y-189874819D01*
X89873809Y-189874819D02*
X89873809Y-188874819D01*
X89873809Y-188874819D02*
X89778571Y-189017676D01*
X89778571Y-189017676D02*
X89683333Y-189112914D01*
X89683333Y-189112914D02*
X89588095Y-189160533D01*
D10*
X153570200Y-168836667D02*
X153522580Y-168979524D01*
X153522580Y-168979524D02*
X153522580Y-169217619D01*
X153522580Y-169217619D02*
X153570200Y-169312857D01*
X153570200Y-169312857D02*
X153617819Y-169360476D01*
X153617819Y-169360476D02*
X153713057Y-169408095D01*
X153713057Y-169408095D02*
X153808295Y-169408095D01*
X153808295Y-169408095D02*
X153903533Y-169360476D01*
X153903533Y-169360476D02*
X153951152Y-169312857D01*
X153951152Y-169312857D02*
X153998771Y-169217619D01*
X153998771Y-169217619D02*
X154046390Y-169027143D01*
X154046390Y-169027143D02*
X154094009Y-168931905D01*
X154094009Y-168931905D02*
X154141628Y-168884286D01*
X154141628Y-168884286D02*
X154236866Y-168836667D01*
X154236866Y-168836667D02*
X154332104Y-168836667D01*
X154332104Y-168836667D02*
X154427342Y-168884286D01*
X154427342Y-168884286D02*
X154474961Y-168931905D01*
X154474961Y-168931905D02*
X154522580Y-169027143D01*
X154522580Y-169027143D02*
X154522580Y-169265238D01*
X154522580Y-169265238D02*
X154474961Y-169408095D01*
X154522580Y-169741429D02*
X153522580Y-169979524D01*
X153522580Y-169979524D02*
X154236866Y-170170000D01*
X154236866Y-170170000D02*
X153522580Y-170360476D01*
X153522580Y-170360476D02*
X154522580Y-170598572D01*
X154427342Y-170931905D02*
X154474961Y-170979524D01*
X154474961Y-170979524D02*
X154522580Y-171074762D01*
X154522580Y-171074762D02*
X154522580Y-171312857D01*
X154522580Y-171312857D02*
X154474961Y-171408095D01*
X154474961Y-171408095D02*
X154427342Y-171455714D01*
X154427342Y-171455714D02*
X154332104Y-171503333D01*
X154332104Y-171503333D02*
X154236866Y-171503333D01*
X154236866Y-171503333D02*
X154094009Y-171455714D01*
X154094009Y-171455714D02*
X153522580Y-170884286D01*
X153522580Y-170884286D02*
X153522580Y-171503333D01*
X149583333Y-182112180D02*
X149535714Y-182159800D01*
X149535714Y-182159800D02*
X149392857Y-182207419D01*
X149392857Y-182207419D02*
X149297619Y-182207419D01*
X149297619Y-182207419D02*
X149154762Y-182159800D01*
X149154762Y-182159800D02*
X149059524Y-182064561D01*
X149059524Y-182064561D02*
X149011905Y-181969323D01*
X149011905Y-181969323D02*
X148964286Y-181778847D01*
X148964286Y-181778847D02*
X148964286Y-181635990D01*
X148964286Y-181635990D02*
X149011905Y-181445514D01*
X149011905Y-181445514D02*
X149059524Y-181350276D01*
X149059524Y-181350276D02*
X149154762Y-181255038D01*
X149154762Y-181255038D02*
X149297619Y-181207419D01*
X149297619Y-181207419D02*
X149392857Y-181207419D01*
X149392857Y-181207419D02*
X149535714Y-181255038D01*
X149535714Y-181255038D02*
X149583333Y-181302657D01*
X149916667Y-181207419D02*
X150535714Y-181207419D01*
X150535714Y-181207419D02*
X150202381Y-181588371D01*
X150202381Y-181588371D02*
X150345238Y-181588371D01*
X150345238Y-181588371D02*
X150440476Y-181635990D01*
X150440476Y-181635990D02*
X150488095Y-181683609D01*
X150488095Y-181683609D02*
X150535714Y-181778847D01*
X150535714Y-181778847D02*
X150535714Y-182016942D01*
X150535714Y-182016942D02*
X150488095Y-182112180D01*
X150488095Y-182112180D02*
X150440476Y-182159800D01*
X150440476Y-182159800D02*
X150345238Y-182207419D01*
X150345238Y-182207419D02*
X150059524Y-182207419D01*
X150059524Y-182207419D02*
X149964286Y-182159800D01*
X149964286Y-182159800D02*
X149916667Y-182112180D01*
X151491466Y-184946115D02*
X151491466Y-184184211D01*
X151872419Y-184565163D02*
X151110514Y-184565163D01*
D11*
X390281905Y-168584819D02*
X390281905Y-167584819D01*
X390281905Y-167584819D02*
X390520000Y-167584819D01*
X390520000Y-167584819D02*
X390662857Y-167632438D01*
X390662857Y-167632438D02*
X390758095Y-167727676D01*
X390758095Y-167727676D02*
X390805714Y-167822914D01*
X390805714Y-167822914D02*
X390853333Y-168013390D01*
X390853333Y-168013390D02*
X390853333Y-168156247D01*
X390853333Y-168156247D02*
X390805714Y-168346723D01*
X390805714Y-168346723D02*
X390758095Y-168441961D01*
X390758095Y-168441961D02*
X390662857Y-168537200D01*
X390662857Y-168537200D02*
X390520000Y-168584819D01*
X390520000Y-168584819D02*
X390281905Y-168584819D01*
X391186667Y-167584819D02*
X391853333Y-167584819D01*
X391853333Y-167584819D02*
X391424762Y-168584819D01*
X391278571Y-172072295D02*
X390821428Y-172072295D01*
X391050000Y-172072295D02*
X391050000Y-171272295D01*
X391050000Y-171272295D02*
X390973809Y-171386580D01*
X390973809Y-171386580D02*
X390897619Y-171462771D01*
X390897619Y-171462771D02*
X390821428Y-171500866D01*
X197353333Y-172599580D02*
X197305714Y-172647200D01*
X197305714Y-172647200D02*
X197162857Y-172694819D01*
X197162857Y-172694819D02*
X197067619Y-172694819D01*
X197067619Y-172694819D02*
X196924762Y-172647200D01*
X196924762Y-172647200D02*
X196829524Y-172551961D01*
X196829524Y-172551961D02*
X196781905Y-172456723D01*
X196781905Y-172456723D02*
X196734286Y-172266247D01*
X196734286Y-172266247D02*
X196734286Y-172123390D01*
X196734286Y-172123390D02*
X196781905Y-171932914D01*
X196781905Y-171932914D02*
X196829524Y-171837676D01*
X196829524Y-171837676D02*
X196924762Y-171742438D01*
X196924762Y-171742438D02*
X197067619Y-171694819D01*
X197067619Y-171694819D02*
X197162857Y-171694819D01*
X197162857Y-171694819D02*
X197305714Y-171742438D01*
X197305714Y-171742438D02*
X197353333Y-171790057D01*
X198210476Y-171694819D02*
X198020000Y-171694819D01*
X198020000Y-171694819D02*
X197924762Y-171742438D01*
X197924762Y-171742438D02*
X197877143Y-171790057D01*
X197877143Y-171790057D02*
X197781905Y-171932914D01*
X197781905Y-171932914D02*
X197734286Y-172123390D01*
X197734286Y-172123390D02*
X197734286Y-172504342D01*
X197734286Y-172504342D02*
X197781905Y-172599580D01*
X197781905Y-172599580D02*
X197829524Y-172647200D01*
X197829524Y-172647200D02*
X197924762Y-172694819D01*
X197924762Y-172694819D02*
X198115238Y-172694819D01*
X198115238Y-172694819D02*
X198210476Y-172647200D01*
X198210476Y-172647200D02*
X198258095Y-172599580D01*
X198258095Y-172599580D02*
X198305714Y-172504342D01*
X198305714Y-172504342D02*
X198305714Y-172266247D01*
X198305714Y-172266247D02*
X198258095Y-172171009D01*
X198258095Y-172171009D02*
X198210476Y-172123390D01*
X198210476Y-172123390D02*
X198115238Y-172075771D01*
X198115238Y-172075771D02*
X197924762Y-172075771D01*
X197924762Y-172075771D02*
X197829524Y-172123390D01*
X197829524Y-172123390D02*
X197781905Y-172171009D01*
X197781905Y-172171009D02*
X197734286Y-172266247D01*
X302438095Y-186704819D02*
X302438095Y-185704819D01*
X302438095Y-186181009D02*
X303009523Y-186181009D01*
X303009523Y-186704819D02*
X303009523Y-185704819D01*
X303914285Y-186038152D02*
X303914285Y-186704819D01*
X303676190Y-185657200D02*
X303438095Y-186371485D01*
X303438095Y-186371485D02*
X304057142Y-186371485D01*
X126009580Y-175186666D02*
X126057200Y-175234285D01*
X126057200Y-175234285D02*
X126104819Y-175377142D01*
X126104819Y-175377142D02*
X126104819Y-175472380D01*
X126104819Y-175472380D02*
X126057200Y-175615237D01*
X126057200Y-175615237D02*
X125961961Y-175710475D01*
X125961961Y-175710475D02*
X125866723Y-175758094D01*
X125866723Y-175758094D02*
X125676247Y-175805713D01*
X125676247Y-175805713D02*
X125533390Y-175805713D01*
X125533390Y-175805713D02*
X125342914Y-175758094D01*
X125342914Y-175758094D02*
X125247676Y-175710475D01*
X125247676Y-175710475D02*
X125152438Y-175615237D01*
X125152438Y-175615237D02*
X125104819Y-175472380D01*
X125104819Y-175472380D02*
X125104819Y-175377142D01*
X125104819Y-175377142D02*
X125152438Y-175234285D01*
X125152438Y-175234285D02*
X125200057Y-175186666D01*
X125104819Y-174281904D02*
X125104819Y-174758094D01*
X125104819Y-174758094D02*
X125581009Y-174805713D01*
X125581009Y-174805713D02*
X125533390Y-174758094D01*
X125533390Y-174758094D02*
X125485771Y-174662856D01*
X125485771Y-174662856D02*
X125485771Y-174424761D01*
X125485771Y-174424761D02*
X125533390Y-174329523D01*
X125533390Y-174329523D02*
X125581009Y-174281904D01*
X125581009Y-174281904D02*
X125676247Y-174234285D01*
X125676247Y-174234285D02*
X125914342Y-174234285D01*
X125914342Y-174234285D02*
X126009580Y-174281904D01*
X126009580Y-174281904D02*
X126057200Y-174329523D01*
X126057200Y-174329523D02*
X126104819Y-174424761D01*
X126104819Y-174424761D02*
X126104819Y-174662856D01*
X126104819Y-174662856D02*
X126057200Y-174758094D01*
X126057200Y-174758094D02*
X126009580Y-174805713D01*
D12*
X438141267Y-174075000D02*
X437848733Y-174075000D01*
X438141267Y-175095000D02*
X437848733Y-175095000D01*
X288625000Y-169490000D02*
X288625000Y-174540000D01*
X289075000Y-169040000D02*
X288625000Y-169490000D01*
X289425000Y-170890000D02*
X289425000Y-172690000D01*
X294825000Y-170890000D02*
X294825000Y-172690000D01*
X295625000Y-169040000D02*
X289075000Y-169040000D01*
X295625000Y-174540000D02*
X288625000Y-174540000D01*
X295625000Y-174540000D02*
X295625000Y-169040000D01*
X396303733Y-172980000D02*
X396596267Y-172980000D01*
X396303733Y-174000000D02*
X396596267Y-174000000D01*
X163590000Y-182290000D02*
X164970000Y-182290000D01*
X163590000Y-183670000D02*
X163590000Y-182290000D01*
X163590000Y-184940000D02*
X163590000Y-192670000D01*
X163590000Y-184940000D02*
X166350000Y-184940000D01*
X163590000Y-192670000D02*
X166350000Y-192670000D01*
X166350000Y-184940000D02*
X166350000Y-192670000D01*
X117550000Y-169757500D02*
X117550000Y-172217500D01*
X119020000Y-169757500D02*
X117550000Y-169757500D01*
X119020000Y-172217500D02*
X119020000Y-169757500D01*
X297343733Y-173060000D02*
X297636267Y-173060000D01*
X297343733Y-174080000D02*
X297636267Y-174080000D01*
X142045276Y-175242500D02*
X142554724Y-175242500D01*
X142045276Y-176287500D02*
X142554724Y-176287500D01*
X165164724Y-174897500D02*
X164655276Y-174897500D01*
X165164724Y-175942500D02*
X164655276Y-175942500D01*
X240765000Y-174810000D02*
X240765000Y-167810000D01*
X240765000Y-174810000D02*
X246265000Y-174810000D01*
X244415000Y-168610000D02*
X242615000Y-168610000D01*
X244415000Y-174010000D02*
X242615000Y-174010000D01*
X245815000Y-167810000D02*
X240765000Y-167810000D01*
X246265000Y-168260000D02*
X245815000Y-167810000D01*
X246265000Y-174810000D02*
X246265000Y-168260000D01*
X161050000Y-182290000D02*
X162430000Y-182290000D01*
X161050000Y-183670000D02*
X161050000Y-182290000D01*
X161050000Y-184940000D02*
X161050000Y-192670000D01*
X161050000Y-184940000D02*
X163810000Y-184940000D01*
X161050000Y-192670000D02*
X163810000Y-192670000D01*
X163810000Y-184940000D02*
X163810000Y-192670000D01*
D10*
X93170000Y-200300000D02*
X81170000Y-200300000D01*
X81170000Y-208800000D01*
X93170000Y-208800000D01*
X93170000Y-200300000D01*
D12*
X166130000Y-182290000D02*
X167510000Y-182290000D01*
X166130000Y-183670000D02*
X166130000Y-182290000D01*
X166130000Y-184940000D02*
X166130000Y-192670000D01*
X166130000Y-184940000D02*
X168890000Y-184940000D01*
X166130000Y-192670000D02*
X168890000Y-192670000D01*
X168890000Y-184940000D02*
X168890000Y-192670000D01*
X341106267Y-173690000D02*
X340813733Y-173690000D01*
X341106267Y-174710000D02*
X340813733Y-174710000D01*
X188620000Y-169490000D02*
X188620000Y-174540000D01*
X189070000Y-169040000D02*
X188620000Y-169490000D01*
X189420000Y-170890000D02*
X189420000Y-172690000D01*
X194820000Y-170890000D02*
X194820000Y-172690000D01*
X195620000Y-169040000D02*
X189070000Y-169040000D01*
X195620000Y-174540000D02*
X188620000Y-174540000D01*
X195620000Y-174540000D02*
X195620000Y-169040000D01*
X440407500Y-175340000D02*
X440407500Y-168340000D01*
X440407500Y-175340000D02*
X445907500Y-175340000D01*
X444057500Y-169140000D02*
X442257500Y-169140000D01*
X444057500Y-174540000D02*
X442257500Y-174540000D01*
X445457500Y-168340000D02*
X440407500Y-168340000D01*
X445907500Y-168790000D02*
X445457500Y-168340000D01*
X445907500Y-175340000D02*
X445907500Y-168790000D01*
X186445276Y-173297500D02*
X186954724Y-173297500D01*
X186445276Y-174342500D02*
X186954724Y-174342500D01*
X238611267Y-173650000D02*
X238318733Y-173650000D01*
X238611267Y-174670000D02*
X238318733Y-174670000D01*
X163434724Y-173217500D02*
X162925276Y-173217500D01*
X163434724Y-174262500D02*
X162925276Y-174262500D01*
X117737500Y-175484724D02*
X117737500Y-174975276D01*
X118782500Y-175484724D02*
X118782500Y-174975276D01*
X153685000Y-184390000D02*
X153685000Y-185610000D01*
X153685000Y-185610000D02*
X155500000Y-185610000D01*
X155500000Y-184390000D02*
X153685000Y-184390000D01*
X150903733Y-175255000D02*
X151196267Y-175255000D01*
X150903733Y-176275000D02*
X151196267Y-176275000D01*
D11*
X130125000Y-168175000D02*
X130125000Y-168400000D01*
X130125000Y-176825000D02*
X130125000Y-176600000D01*
X135875000Y-168175000D02*
X130125000Y-168175000D01*
X135875000Y-168175000D02*
X135875000Y-168400000D01*
X135875000Y-176825000D02*
X130125000Y-176825000D01*
X135875000Y-176825000D02*
X135875000Y-176600000D01*
D12*
X136615000Y-176905000D02*
X136135000Y-176905000D01*
X136375000Y-176575000D01*
X136615000Y-176905000D01*
G36*
X136615000Y-176905000D02*
G01*
X136135000Y-176905000D01*
X136375000Y-176575000D01*
X136615000Y-176905000D01*
G37*
X343346411Y-175290000D02*
X343346411Y-168290000D01*
X343346411Y-175290000D02*
X348846411Y-175290000D01*
X346996411Y-169090000D02*
X345196411Y-169090000D01*
X346996411Y-174490000D02*
X345196411Y-174490000D01*
X348396411Y-168290000D02*
X343346411Y-168290000D01*
X348846411Y-168740000D02*
X348396411Y-168290000D01*
X348846411Y-175290000D02*
X348846411Y-168740000D01*
D10*
X92850000Y-180600000D02*
X92850000Y-183850000D01*
X96100000Y-180600000D02*
X92850000Y-180600000D01*
X93560000Y-181240000D02*
X144360000Y-181240000D01*
X144360000Y-206640000D01*
X93560000Y-206640000D01*
X93560000Y-181240000D01*
D12*
X147004724Y-175242500D02*
X146495276Y-175242500D01*
X147004724Y-176287500D02*
X146495276Y-176287500D01*
D10*
X140650000Y-174490000D02*
X152650000Y-174490000D01*
X152650000Y-165990000D01*
X140650000Y-165990000D01*
X140650000Y-174490000D01*
X146500000Y-184750000D02*
X146500000Y-190250000D01*
X146500000Y-190250000D02*
X148850000Y-190250000D01*
X148000000Y-183500000D02*
X146500000Y-184750000D01*
X148000000Y-183500000D02*
X148850000Y-183500000D01*
X150650000Y-183500000D02*
X151500000Y-183500000D01*
X150650000Y-190250000D02*
X153000000Y-190250000D01*
X153000000Y-184750000D02*
X151500000Y-183500000D01*
X153000000Y-190250000D02*
X153000000Y-184750000D01*
D12*
X387525000Y-169490000D02*
X387525000Y-174540000D01*
X387975000Y-169040000D02*
X387525000Y-169490000D01*
X388325000Y-170890000D02*
X388325000Y-172690000D01*
X393725000Y-170890000D02*
X393725000Y-172690000D01*
X394525000Y-169040000D02*
X387975000Y-169040000D01*
X394525000Y-174540000D02*
X387525000Y-174540000D01*
X394525000Y-174540000D02*
X394525000Y-169040000D01*
X197523733Y-173140000D02*
X197816267Y-173140000D01*
X197523733Y-174160000D02*
X197816267Y-174160000D01*
X126640000Y-174803733D02*
X126640000Y-175096267D01*
X127660000Y-174803733D02*
X127660000Y-175096267D01*
%LPC*%
D13*
X438857500Y-174585000D03*
X437132500Y-174585000D03*
D14*
X294575000Y-173440000D03*
X294575000Y-170140000D03*
X289675000Y-170140000D03*
X289675000Y-173440000D03*
D15*
X395587500Y-173490000D03*
X397312500Y-173490000D03*
D16*
X164970000Y-183670000D03*
D17*
X164970000Y-186210000D03*
X164970000Y-188750000D03*
X164970000Y-191290000D03*
D18*
X118285000Y-170542500D03*
X118285000Y-172292500D03*
D15*
X296627500Y-173570000D03*
X298352500Y-173570000D03*
D19*
X141387500Y-175765000D03*
X143212500Y-175765000D03*
D20*
X165822500Y-175420000D03*
X163997500Y-175420000D03*
D21*
X241865000Y-173760000D03*
X245165000Y-173760000D03*
X245165000Y-168860000D03*
X241865000Y-168860000D03*
D16*
X162430000Y-183670000D03*
D17*
X162430000Y-186210000D03*
X162430000Y-188750000D03*
X162430000Y-191290000D03*
D22*
X89670000Y-204550000D03*
X84670000Y-204550000D03*
D16*
X167510000Y-183670000D03*
D17*
X167510000Y-186210000D03*
X167510000Y-188750000D03*
X167510000Y-191290000D03*
D13*
X341822500Y-174200000D03*
X340097500Y-174200000D03*
D23*
X478000000Y-206240000D03*
D24*
X478000000Y-206240000D03*
D14*
X194570000Y-173440000D03*
X194570000Y-170140000D03*
X189670000Y-170140000D03*
X189670000Y-173440000D03*
D21*
X441507500Y-174290000D03*
X444807500Y-174290000D03*
X444807500Y-169390000D03*
X441507500Y-169390000D03*
D23*
X478000000Y-169800000D03*
D24*
X478000000Y-169800000D03*
D19*
X185787500Y-173820000D03*
X187612500Y-173820000D03*
D13*
X239327500Y-174160000D03*
X237602500Y-174160000D03*
D23*
X402000000Y-189100000D03*
D24*
X402000000Y-189100000D03*
D20*
X164092500Y-173740000D03*
X162267500Y-173740000D03*
D25*
X145410000Y-186412500D03*
X145410000Y-187227500D03*
D23*
X89350000Y-170740000D03*
D24*
X89350000Y-170740000D03*
D26*
X118260000Y-176142500D03*
X118260000Y-174317500D03*
D23*
X231300000Y-189000000D03*
D24*
X231300000Y-189000000D03*
D27*
X154415000Y-185000000D03*
D28*
X155300000Y-185000000D03*
D15*
X150187500Y-175765000D03*
X151912500Y-175765000D03*
D29*
X136600000Y-176075000D03*
X136600000Y-175425000D03*
X136600000Y-174775000D03*
X136600000Y-174125000D03*
X136600000Y-173475000D03*
X136600000Y-172825000D03*
X136600000Y-172175000D03*
X136600000Y-171525000D03*
X136600000Y-170875000D03*
X136600000Y-170225000D03*
X136600000Y-169575000D03*
X136600000Y-168925000D03*
X129400000Y-168925000D03*
X129400000Y-169575000D03*
X129400000Y-170225000D03*
X129400000Y-170875000D03*
X129400000Y-171525000D03*
X129400000Y-172175000D03*
X129400000Y-172825000D03*
X129400000Y-173475000D03*
X129400000Y-174125000D03*
X129400000Y-174775000D03*
X129400000Y-175425000D03*
X129400000Y-176075000D03*
D21*
X344446411Y-174240000D03*
X347746411Y-174240000D03*
X347746411Y-169340000D03*
X344446411Y-169340000D03*
D17*
X96100000Y-183780000D03*
X96100000Y-204100000D03*
X141820000Y-193940000D03*
X141820000Y-183780000D03*
D20*
X147662500Y-175765000D03*
X145837500Y-175765000D03*
D23*
X89350000Y-192270000D03*
D24*
X89350000Y-192270000D03*
D22*
X144150000Y-170240000D03*
X149150000Y-170240000D03*
D30*
X149750000Y-184650000D03*
X149750000Y-190250000D03*
D14*
X393475000Y-173440000D03*
X393475000Y-170140000D03*
X388575000Y-170140000D03*
X388575000Y-173440000D03*
D15*
X196807500Y-173650000D03*
X198532500Y-173650000D03*
D23*
X303200000Y-189100000D03*
D24*
X303200000Y-189100000D03*
D31*
X127150000Y-174087500D03*
X127150000Y-175812500D03*
D32*
X288280000Y-178530000D03*
X295780000Y-178530000D03*
X292000000Y-178530000D03*
X288280000Y-198830000D03*
X295780000Y-198830000D03*
X288280000Y-193790000D03*
X295780000Y-193790000D03*
X288280000Y-203870000D03*
X295780000Y-203870000D03*
X188130000Y-178530000D03*
X195630000Y-178530000D03*
X191850000Y-178530000D03*
X188130000Y-198830000D03*
X195630000Y-198830000D03*
X188130000Y-193790000D03*
X195630000Y-193790000D03*
X188130000Y-203870000D03*
X195630000Y-203870000D03*
D33*
X272190000Y-194850000D03*
X272190000Y-181150000D03*
X263585000Y-188000000D03*
D32*
X339840000Y-178530000D03*
X347340000Y-178530000D03*
X343560000Y-178530000D03*
X339840000Y-198830000D03*
X347340000Y-198830000D03*
X339840000Y-193790000D03*
X347340000Y-193790000D03*
X339840000Y-203870000D03*
X347340000Y-203870000D03*
D33*
X324110000Y-194850000D03*
X324110000Y-181150000D03*
X315505000Y-188000000D03*
X371770000Y-194850000D03*
X371770000Y-181150000D03*
X363165000Y-188000000D03*
X220110000Y-195055000D03*
X220110000Y-181355000D03*
X211505000Y-188205000D03*
X422470000Y-194850000D03*
X422470000Y-181150000D03*
X413865000Y-188000000D03*
D32*
X238310000Y-178530000D03*
X245810000Y-178530000D03*
X242030000Y-178530000D03*
X238310000Y-198830000D03*
X245810000Y-198830000D03*
X238310000Y-193790000D03*
X245810000Y-193790000D03*
X238310000Y-203870000D03*
X245810000Y-203870000D03*
X437860000Y-178530000D03*
X445360000Y-178530000D03*
X441580000Y-178530000D03*
X437860000Y-198830000D03*
X445360000Y-198830000D03*
X437860000Y-193790000D03*
X445360000Y-193790000D03*
X437860000Y-203870000D03*
X445360000Y-203870000D03*
D34*
X70540000Y-195150000D03*
X70540000Y-180850000D03*
X75280000Y-187980000D03*
D32*
X387840000Y-178530000D03*
X395340000Y-178530000D03*
X391560000Y-178530000D03*
X387840000Y-198830000D03*
X395340000Y-198830000D03*
X387840000Y-193790000D03*
X395340000Y-193790000D03*
X387840000Y-203870000D03*
X395340000Y-203870000D03*
D33*
X470560000Y-195175000D03*
X470560000Y-181475000D03*
X461955000Y-188325000D03*
%LPD*%
M02*
