G04 #@! TF.GenerationSoftware,KiCad,Pcbnew,9.0.2-9.0.2-0~ubuntu24.04.1*
G04 #@! TF.CreationDate,2025-06-16T10:31:29+02:00*
G04 #@! TF.ProjectId,PCB_Rack,5043425f-5261-4636-9b2e-6b696361645f,rev?*
G04 #@! TF.SameCoordinates,Original*
G04 #@! TF.FileFunction,Soldermask,Bot*
G04 #@! TF.FilePolarity,Negative*
%FSLAX46Y46*%
G04 Gerber Fmt 4.6, Leading zero omitted, Abs format (unit mm)*
G04 Created by KiCad (PCBNEW 9.0.2-9.0.2-0~ubuntu24.04.1) date 2025-06-16 10:31:29*
%MOMM*%
%LPD*%
G01*
G04 APERTURE LIST*
G04 Aperture macros list*
%AMRoundRect*
0 Rectangle with rounded corners*
0 $1 Rounding radius*
0 $2 $3 $4 $5 $6 $7 $8 $9 X,Y pos of 4 corners*
0 Add a 4 corners polygon primitive as box body*
4,1,4,$2,$3,$4,$5,$6,$7,$8,$9,$2,$3,0*
0 Add four circle primitives for the rounded corners*
1,1,$1+$1,$2,$3*
1,1,$1+$1,$4,$5*
1,1,$1+$1,$6,$7*
1,1,$1+$1,$8,$9*
0 Add four rect primitives between the rounded corners*
20,1,$1+$1,$2,$3,$4,$5,0*
20,1,$1+$1,$4,$5,$6,$7,0*
20,1,$1+$1,$6,$7,$8,$9,0*
20,1,$1+$1,$8,$9,$2,$3,0*%
G04 Aperture macros list end*
%ADD10R,1.700000X1.700000*%
%ADD11C,1.700000*%
%ADD12C,2.300000*%
%ADD13C,2.600000*%
%ADD14C,3.800000*%
%ADD15RoundRect,0.150000X0.587500X0.150000X-0.587500X0.150000X-0.587500X-0.150000X0.587500X-0.150000X0*%
%ADD16RoundRect,0.237500X0.237500X-0.250000X0.237500X0.250000X-0.237500X0.250000X-0.237500X-0.250000X0*%
%ADD17C,2.100000*%
%ADD18RoundRect,0.315000X0.735000X-3.085000X0.735000X3.085000X-0.735000X3.085000X-0.735000X-3.085000X0*%
%ADD19RoundRect,0.237500X-0.250000X-0.237500X0.250000X-0.237500X0.250000X0.237500X-0.250000X0.237500X0*%
%ADD20RoundRect,0.237500X-0.237500X0.250000X-0.237500X-0.250000X0.237500X-0.250000X0.237500X0.250000X0*%
%ADD21RoundRect,0.237500X0.250000X0.237500X-0.250000X0.237500X-0.250000X-0.237500X0.250000X-0.237500X0*%
%ADD22R,1.900000X1.000000*%
%ADD23RoundRect,0.300000X-3.100000X-0.700000X3.100000X-0.700000X3.100000X0.700000X-3.100000X0.700000X0*%
%ADD24RoundRect,0.237500X-0.300000X-0.237500X0.300000X-0.237500X0.300000X0.237500X-0.300000X0.237500X0*%
%ADD25RoundRect,0.237500X0.237500X-0.300000X0.237500X0.300000X-0.237500X0.300000X-0.237500X-0.300000X0*%
G04 APERTURE END LIST*
D10*
X164970000Y-183670000D03*
D11*
X164970000Y-186210000D03*
X164970000Y-188750000D03*
X164970000Y-191290000D03*
D10*
X162430000Y-183670000D03*
D11*
X162430000Y-186210000D03*
X162430000Y-188750000D03*
X162430000Y-191290000D03*
D12*
X89670000Y-204550000D03*
X84670000Y-204550000D03*
D10*
X167510000Y-183670000D03*
D11*
X167510000Y-186210000D03*
X167510000Y-188750000D03*
X167510000Y-191290000D03*
D13*
X478000000Y-206240000D03*
D14*
X478000000Y-206240000D03*
D13*
X478000000Y-169800000D03*
D14*
X478000000Y-169800000D03*
D13*
X402000000Y-189100000D03*
D14*
X402000000Y-189100000D03*
D13*
X89350000Y-170740000D03*
D14*
X89350000Y-170740000D03*
D13*
X231300000Y-189000000D03*
D14*
X231300000Y-189000000D03*
D11*
X96100000Y-183780000D03*
X96100000Y-204100000D03*
X141820000Y-193940000D03*
X141820000Y-183780000D03*
D13*
X89350000Y-192270000D03*
D14*
X89350000Y-192270000D03*
D12*
X144150000Y-170240000D03*
X149150000Y-170240000D03*
D13*
X303200000Y-189100000D03*
D14*
X303200000Y-189100000D03*
D15*
X302637500Y-179050000D03*
X302637500Y-180950000D03*
X300762500Y-180000000D03*
D16*
X452160000Y-175092500D03*
X452160000Y-173267500D03*
D15*
X252557500Y-179050000D03*
X252557500Y-180950000D03*
X250682500Y-180000000D03*
D17*
X288280000Y-178530000D03*
X295780000Y-178530000D03*
X292000000Y-178530000D03*
X288280000Y-198830000D03*
X295780000Y-198830000D03*
X288280000Y-193790000D03*
X295780000Y-193790000D03*
X288280000Y-203870000D03*
X295780000Y-203870000D03*
X188130000Y-178530000D03*
X195630000Y-178530000D03*
X191850000Y-178530000D03*
X188130000Y-198830000D03*
X195630000Y-198830000D03*
X188130000Y-193790000D03*
X195630000Y-193790000D03*
X188130000Y-203870000D03*
X195630000Y-203870000D03*
D18*
X262160000Y-194750000D03*
X262160000Y-181050000D03*
X270765000Y-187900000D03*
D19*
X333717500Y-177030000D03*
X335542500Y-177030000D03*
X351507500Y-176650000D03*
X353332500Y-176650000D03*
D17*
X339840000Y-178530000D03*
X347340000Y-178530000D03*
X343560000Y-178530000D03*
X339840000Y-198830000D03*
X347340000Y-198830000D03*
X339840000Y-193790000D03*
X347340000Y-193790000D03*
X339840000Y-203870000D03*
X347340000Y-203870000D03*
D20*
X229390000Y-179197500D03*
X229390000Y-181022500D03*
D18*
X314500000Y-194750000D03*
X314500000Y-181050000D03*
X323105000Y-187900000D03*
D15*
X401952500Y-179050000D03*
X401952500Y-180950000D03*
X400077500Y-180000000D03*
D21*
X180312500Y-178260000D03*
X178487500Y-178260000D03*
D18*
X362690000Y-194750000D03*
X362690000Y-181050000D03*
X371295000Y-187900000D03*
D15*
X433910000Y-179100000D03*
X433910000Y-181000000D03*
X432035000Y-180050000D03*
D19*
X301077500Y-177000000D03*
X302902500Y-177000000D03*
X182087500Y-177000000D03*
X183912500Y-177000000D03*
X199567500Y-177460000D03*
X201392500Y-177460000D03*
X282457500Y-177260000D03*
X284282500Y-177260000D03*
D15*
X382940000Y-179050000D03*
X382940000Y-180950000D03*
X381065000Y-180000000D03*
D18*
X210900000Y-194750000D03*
X210900000Y-181050000D03*
X219505000Y-187900000D03*
X413670000Y-194750000D03*
X413670000Y-181050000D03*
X422275000Y-187900000D03*
D17*
X238310000Y-178530000D03*
X245810000Y-178530000D03*
X242030000Y-178530000D03*
X238310000Y-198830000D03*
X245810000Y-198830000D03*
X238310000Y-193790000D03*
X245810000Y-193790000D03*
X238310000Y-203870000D03*
X245810000Y-203870000D03*
D15*
X353057500Y-178490000D03*
X353057500Y-180390000D03*
X351182500Y-179440000D03*
X335217500Y-179110000D03*
X335217500Y-181010000D03*
X333342500Y-180060000D03*
X201167500Y-179050000D03*
X201167500Y-180950000D03*
X199292500Y-180000000D03*
D21*
X201442500Y-175160000D03*
X199617500Y-175160000D03*
D22*
X158460000Y-167435000D03*
X155160000Y-169975000D03*
X158460000Y-172515000D03*
X155160000Y-175055000D03*
X158460000Y-177595000D03*
X155160000Y-180135000D03*
X158460000Y-182675000D03*
X155160000Y-185215000D03*
X170400000Y-185220000D03*
X173700000Y-182680000D03*
X170400000Y-180140000D03*
X173700000Y-177600000D03*
X170400000Y-175060000D03*
X173700000Y-172520000D03*
X170400000Y-169980000D03*
X173700000Y-167440000D03*
D15*
X183467500Y-179050000D03*
X183467500Y-180950000D03*
X181592500Y-180000000D03*
D17*
X437860000Y-178530000D03*
X445360000Y-178530000D03*
X441580000Y-178530000D03*
X437860000Y-198830000D03*
X445360000Y-198830000D03*
X437860000Y-193790000D03*
X445360000Y-193790000D03*
X437860000Y-203870000D03*
X445360000Y-203870000D03*
D15*
X233350000Y-179050000D03*
X233350000Y-180950000D03*
X231475000Y-180000000D03*
D16*
X384020000Y-175282500D03*
X384020000Y-173457500D03*
D23*
X70540000Y-195150000D03*
X70540000Y-180850000D03*
X75280000Y-187980000D03*
D19*
X381392500Y-177000000D03*
X383217500Y-177000000D03*
X400297500Y-177000000D03*
X402122500Y-177000000D03*
D24*
X155767500Y-188340000D03*
X157492500Y-188340000D03*
D16*
X434100000Y-175332500D03*
X434100000Y-173507500D03*
D19*
X450027500Y-177150000D03*
X451852500Y-177150000D03*
X250987500Y-177000000D03*
X252812500Y-177000000D03*
D25*
X152580000Y-184752500D03*
X152580000Y-183027500D03*
D15*
X284020000Y-179050000D03*
X284020000Y-180950000D03*
X282145000Y-180000000D03*
D20*
X404220000Y-179617500D03*
X404220000Y-181442500D03*
D19*
X231777500Y-177000000D03*
X233602500Y-177000000D03*
D21*
X353332500Y-175020000D03*
X351507500Y-175020000D03*
D15*
X451657500Y-179090000D03*
X451657500Y-180990000D03*
X449782500Y-180040000D03*
D21*
X335542500Y-175170000D03*
X333717500Y-175170000D03*
D16*
X280750000Y-178342500D03*
X280750000Y-176517500D03*
D17*
X387840000Y-178530000D03*
X395340000Y-178530000D03*
X391560000Y-178530000D03*
X387840000Y-198830000D03*
X395340000Y-198830000D03*
X387840000Y-193790000D03*
X395340000Y-193790000D03*
X387840000Y-203870000D03*
X395340000Y-203870000D03*
D20*
X305490000Y-179087500D03*
X305490000Y-180912500D03*
D18*
X462500000Y-194750000D03*
X462500000Y-181050000D03*
X471105000Y-187900000D03*
D19*
X432110000Y-177050000D03*
X433935000Y-177050000D03*
D21*
X252782500Y-175280000D03*
X250957500Y-175280000D03*
M02*
