M48
; DRILL file {KiCad 9.0.2-9.0.2-0~ubuntu24.04.1} date 2025-06-16T10:31:26+0200
; FORMAT={-:-/ absolute / metric / decimal}
; #@! TF.CreationDate,2025-06-16T10:31:26+02:00
; #@! TF.GenerationSoftware,Kicad,Pcbnew,9.0.2-9.0.2-0~ubuntu24.04.1
; #@! TF.FileFunction,Plated,1,2,PTH
FMAT,2
METRIC
; #@! TA.AperFunction,Plated,PTH,ViaDrill
T1C0.300
; #@! TA.AperFunction,Plated,PTH,ComponentDrill
T2C1.000
; #@! TA.AperFunction,Plated,PTH,ComponentDrill
T3C1.030
; #@! TA.AperFunction,Plated,PTH,ComponentDrill
T4C1.200
; #@! TA.AperFunction,Plated,PTH,ComponentDrill
T5C1.300
; #@! TA.AperFunction,Plated,PTH,ComponentDrill
T6C1.400
; #@! TA.AperFunction,Plated,PTH,ComponentDrill
T7C1.600
; #@! TA.AperFunction,Plated,PTH,ComponentDrill
T8C2.200
%
G90
G05
T1
X109.19Y-166.28
X109.19Y-168.82
X109.19Y-171.36
X109.19Y-173.9
X109.19Y-176.44
X109.19Y-178.98
X109.19Y-181.52
X109.19Y-184.06
X109.19Y-186.6
X109.19Y-189.14
X109.19Y-191.68
X109.19Y-194.22
X111.73Y-166.28
X111.73Y-194.22
X113.05Y-178.85
X113.14Y-174.67
X113.15Y-177.15
X114.27Y-166.28
X114.27Y-194.22
X116.81Y-166.28
X116.81Y-194.22
X119.35Y-166.28
X119.35Y-194.22
X121.89Y-166.28
X121.89Y-194.22
X124.43Y-166.28
X124.43Y-194.22
X126.92Y-177.588
X126.92Y-179.5
X126.97Y-166.28
X126.97Y-194.22
X129.46Y-177.588
X129.46Y-179.5
X129.51Y-166.28
X129.51Y-194.22
X132.0Y-177.588
X132.0Y-179.5
X132.05Y-166.28
X132.05Y-194.22
X134.06Y-175.0
X134.59Y-166.28
X134.59Y-194.22
X135.32Y-176.5
X136.6Y-175.0
X137.13Y-166.28
X137.13Y-194.22
X137.86Y-176.5
X139.14Y-175.0
X139.67Y-166.28
X139.67Y-194.22
X140.03Y-184.78
X140.4Y-176.5
X141.02Y-174.68
X141.02Y-178.64
X141.02Y-181.36
X141.41Y-187.45
X141.44Y-189.8
X141.44Y-192.0
X142.21Y-166.28
X142.78Y-176.95
X143.56Y-178.64
X143.59Y-181.36
X143.95Y-187.45
X143.98Y-189.8
X143.98Y-192.0
X144.01Y-172.42
X144.02Y-173.72
X144.19Y-194.23
X144.57Y-175.01
X144.75Y-166.28
X145.25Y-171.66
X146.09Y-174.71
X146.1Y-178.64
X146.13Y-181.36
X146.7Y-173.23
X146.73Y-194.23
X146.92Y-167.83
X147.17Y-187.45
X147.2Y-189.8
X147.2Y-192.0
X147.29Y-166.28
X148.63Y-174.71
X148.64Y-178.64
X148.67Y-181.36
X149.27Y-194.23
X149.71Y-187.45
X149.83Y-166.28
X150.52Y-173.82
X151.18Y-178.64
X151.21Y-181.36
X151.74Y-172.35
X151.81Y-191.58
X151.81Y-194.23
X151.89Y-189.59
X151.94Y-174.73
X152.37Y-166.28
X152.39Y-185.95
X152.39Y-186.95
X152.39Y-187.95
X153.39Y-185.95
X153.39Y-186.95
X153.39Y-187.95
X153.72Y-178.64
X153.75Y-181.36
X153.97Y-173.84
X154.06Y-172.35
X154.39Y-185.95
X154.39Y-186.95
X154.39Y-187.95
X154.68Y-166.3
X155.34Y-182.67
X156.26Y-178.64
X156.28Y-189.38
X156.51Y-173.84
X156.6Y-172.35
X156.6Y-175.05
X156.61Y-180.84
X156.92Y-186.77
X156.95Y-169.83
X156.95Y-185.2
X156.96Y-166.31
X156.96Y-167.51
X156.96Y-168.71
X157.52Y-189.48
X157.84Y-175.59
X158.07Y-169.82
X159.27Y-169.82
X159.62Y-190.19
X159.64Y-192.33
X159.92Y-177.68
X160.11Y-180.22
X160.12Y-182.67
X160.12Y-187.56
X160.13Y-185.07
X160.19Y-172.24
X160.22Y-173.82
X160.47Y-169.82
X161.67Y-169.82
X162.12Y-176.76
X162.12Y-178.29
X162.46Y-179.94
X162.46Y-181.84
X162.73Y-172.24
X162.76Y-173.82
X162.87Y-169.82
X164.07Y-169.82
X164.76Y-181.78
X165.27Y-169.82
X165.27Y-172.24
X165.3Y-173.82
X166.47Y-169.82
X166.48Y-187.6
X166.54Y-190.05
X166.54Y-192.27
X166.56Y-176.22
X167.2Y-181.79
X167.67Y-169.82
X167.7Y-177.35
X167.85Y-180.05
X168.1Y-172.1
X168.1Y-172.8
X168.1Y-173.4
X168.1Y-174.0
X168.87Y-169.82
X168.91Y-192.26
X169.44Y-182.04
X169.44Y-183.99
X169.46Y-181.2
X169.74Y-188.45
X169.74Y-190.99
X169.75Y-186.28
X171.06Y-192.25
X171.25Y-177.35
X171.75Y-175.05
X171.77Y-182.07
X171.77Y-184.02
X171.82Y-169.81
X171.83Y-166.29
X171.83Y-167.49
X171.83Y-168.69
X172.02Y-173.83
X172.35Y-172.55
X172.9Y-181.02
X173.06Y-192.26
X173.25Y-185.46
X173.25Y-187.46
X174.51Y-176.32
X174.51Y-178.86
X174.56Y-173.83
X174.76Y-166.25
X175.14Y-192.28
X175.3Y-172.17
X175.31Y-185.46
X175.31Y-187.46
X175.44Y-181.02
X176.7Y-171.17
X177.77Y-166.28
X177.77Y-168.53
X178.4Y-172.45
X178.4Y-173.08
X178.4Y-173.68
X178.4Y-174.28
X178.4Y-174.88
X178.4Y-175.48
X178.4Y-176.109
X178.4Y-176.709
X178.4Y-177.35
X178.47Y-179.58
X180.25Y-179.61
X180.31Y-166.28
X180.31Y-168.53
X180.31Y-172.0
X180.68Y-187.08
X181.45Y-175.95
X181.55Y-180.96
X182.35Y-185.57
X182.85Y-166.28
X182.85Y-168.53
X182.85Y-172.0
X182.99Y-175.3
X183.02Y-178.01
X183.89Y-183.99
X184.95Y-178.05
X185.2Y-182.64
X185.39Y-166.28
X185.39Y-168.53
X185.39Y-172.0
X186.45Y-175.3
X186.85Y-181.24
X187.12Y-179.78
X187.93Y-166.28
X187.93Y-168.53
X187.93Y-172.0
X189.36Y-179.61
X189.95Y-175.3
X190.47Y-166.28
X190.47Y-168.53
X190.47Y-172.0
X193.01Y-166.28
X193.01Y-168.53
X193.01Y-172.0
X193.58Y-177.65
X193.59Y-179.55
X195.444Y-175.317
X195.55Y-166.28
X195.55Y-168.53
X195.55Y-172.0
X196.62Y-179.83
X197.03Y-176.2
X197.51Y-178.8
X198.09Y-166.28
X198.09Y-168.53
X198.09Y-172.0
X198.4Y-175.35
X199.54Y-178.65
X199.66Y-176.43
X200.57Y-176.44
X200.63Y-166.28
X200.63Y-168.53
X200.63Y-172.0
X201.17Y-179.84
X202.49Y-174.72
X202.57Y-177.52
X203.17Y-166.28
X203.17Y-168.53
X203.17Y-172.0
X205.7Y-174.8
X205.7Y-176.89
X205.7Y-179.19
X205.71Y-166.28
X205.71Y-168.53
X205.71Y-172.0
X208.25Y-166.28
X208.25Y-168.53
X208.25Y-172.0
X210.79Y-166.28
X210.79Y-168.53
X210.79Y-172.0
X213.33Y-166.28
X213.33Y-168.53
X213.33Y-172.0
X215.87Y-166.28
X215.87Y-168.53
X215.87Y-172.0
X217.25Y-174.85
X217.25Y-177.15
X217.25Y-179.45
X218.41Y-166.28
X218.41Y-168.53
X218.41Y-172.0
X219.75Y-174.85
X219.75Y-177.15
X219.75Y-179.45
X220.95Y-166.28
X220.95Y-168.53
X220.95Y-172.0
X222.25Y-174.85
X222.25Y-177.15
X222.25Y-179.45
X223.49Y-166.28
X223.49Y-168.53
X223.49Y-172.0
X224.75Y-174.85
X224.75Y-177.15
X224.75Y-179.45
X226.03Y-166.28
X226.03Y-168.53
X226.03Y-172.0
X227.25Y-174.85
X227.25Y-177.15
X227.25Y-179.45
X228.57Y-166.28
X228.57Y-168.53
X228.57Y-172.0
X229.75Y-178.05
X230.24Y-179.87
X230.41Y-174.66
X231.11Y-166.28
X231.11Y-168.53
X231.11Y-172.0
X232.68Y-178.02
X232.71Y-176.16
X232.77Y-174.37
X233.65Y-166.28
X233.65Y-168.53
X233.65Y-172.0
X235.58Y-179.42
X235.59Y-178.03
X235.62Y-176.17
X235.63Y-174.38
X236.19Y-166.28
X236.19Y-168.53
X236.19Y-172.0
X237.27Y-179.8
X237.61Y-176.16
X238.73Y-166.28
X238.73Y-168.53
X239.26Y-172.01
X239.9Y-178.42
X239.9Y-179.79
X241.27Y-166.28
X241.8Y-172.01
X243.5Y-168.53
X243.81Y-166.28
X243.96Y-174.32
X243.97Y-175.93
X243.99Y-178.2
X244.0Y-171.98
X244.0Y-179.77
X246.35Y-166.28
X246.8Y-179.77
X247.4Y-174.35
X248.88Y-175.82
X248.89Y-166.28
X248.89Y-168.49
X248.9Y-178.09
X248.91Y-170.64
X248.91Y-171.99
X248.91Y-174.07
X251.43Y-166.28
X251.43Y-168.49
X251.43Y-178.1
X251.45Y-170.64
X251.45Y-171.99
X251.45Y-174.07
X252.53Y-179.89
X253.85Y-179.85
X253.97Y-166.28
X253.97Y-168.49
X253.99Y-170.64
X253.99Y-171.99
X253.99Y-174.07
X254.65Y-177.1
X256.51Y-166.28
X256.51Y-168.49
X256.53Y-170.64
X256.53Y-171.99
X256.53Y-174.07
X256.55Y-177.1
X256.56Y-179.6
X259.05Y-166.28
X259.05Y-168.49
X259.07Y-170.64
X259.07Y-171.99
X259.07Y-174.07
X261.59Y-166.28
X261.59Y-168.49
X261.61Y-170.64
X261.61Y-171.99
X261.61Y-174.07
X264.13Y-166.28
X264.13Y-168.49
X264.15Y-170.64
X264.15Y-171.99
X264.15Y-174.07
X266.67Y-166.28
X266.67Y-168.49
X266.68Y-177.05
X266.68Y-179.8
X266.69Y-170.64
X266.69Y-171.99
X266.69Y-174.07
X269.21Y-166.28
X269.21Y-168.49
X269.22Y-177.05
X269.22Y-179.8
X269.23Y-170.64
X269.23Y-171.99
X269.23Y-174.07
X271.75Y-166.28
X271.75Y-168.49
X271.76Y-177.05
X271.76Y-179.8
X271.77Y-170.64
X271.77Y-171.99
X271.77Y-174.07
X274.29Y-166.28
X274.29Y-168.49
X274.3Y-177.05
X274.3Y-179.8
X274.31Y-170.64
X274.31Y-171.99
X274.31Y-174.07
X276.83Y-166.28
X276.83Y-168.49
X276.85Y-170.64
X276.85Y-171.99
X276.85Y-174.07
X276.85Y-177.05
X276.85Y-179.8
X279.36Y-175.98
X279.37Y-166.28
X279.37Y-168.49
X279.37Y-177.75
X279.38Y-174.09
X279.39Y-170.64
X279.39Y-171.99
X280.72Y-179.54
X281.91Y-166.28
X281.91Y-168.49
X281.92Y-174.09
X281.93Y-170.64
X281.93Y-171.99
X283.33Y-175.93
X284.45Y-166.28
X284.45Y-168.49
X284.47Y-170.64
X284.47Y-171.99
X285.3Y-173.95
X285.32Y-175.95
X285.33Y-177.61
X285.33Y-179.22
X286.99Y-166.28
X286.99Y-168.49
X287.01Y-170.64
X287.01Y-171.99
X287.67Y-179.96
X287.85Y-174.0
X289.53Y-166.28
X289.53Y-168.49
X289.55Y-171.99
X289.97Y-179.85
X289.98Y-175.97
X291.25Y-174.0
X292.07Y-166.28
X292.07Y-168.49
X292.09Y-171.99
X293.81Y-175.97
X293.91Y-179.71
X294.61Y-166.28
X294.61Y-168.49
X294.63Y-171.99
X295.73Y-174.8
X296.38Y-179.98
X297.15Y-166.28
X297.15Y-168.49
X297.17Y-171.99
X298.43Y-175.5
X298.55Y-179.05
X299.69Y-166.28
X299.69Y-168.49
X299.7Y-173.63
X299.71Y-171.99
X300.42Y-175.47
X301.09Y-179.05
X301.97Y-176.0
X301.97Y-177.81
X302.23Y-166.28
X302.23Y-168.49
X302.24Y-173.63
X302.25Y-171.99
X304.16Y-177.17
X304.17Y-179.95
X304.18Y-178.45
X304.77Y-166.28
X304.77Y-168.49
X304.78Y-173.63
X304.79Y-171.99
X306.64Y-179.95
X307.31Y-166.28
X307.31Y-168.49
X307.32Y-173.63
X307.33Y-171.99
X308.59Y-175.95
X308.6Y-178.45
X309.85Y-166.28
X309.85Y-168.49
X309.86Y-173.63
X309.87Y-171.99
X312.39Y-166.28
X312.39Y-168.49
X312.4Y-173.63
X312.41Y-171.99
X314.93Y-166.28
X314.93Y-168.49
X314.94Y-173.63
X314.95Y-171.99
X317.47Y-166.28
X317.47Y-168.49
X317.48Y-173.63
X317.49Y-171.99
X320.01Y-166.28
X320.01Y-168.49
X320.02Y-173.63
X320.03Y-171.99
X320.03Y-176.35
X320.08Y-179.5
X322.55Y-166.28
X322.55Y-168.49
X322.56Y-173.63
X322.57Y-171.99
X322.57Y-176.35
X322.62Y-179.5
X325.09Y-166.28
X325.09Y-168.49
X325.1Y-173.63
X325.11Y-171.99
X325.11Y-176.35
X325.16Y-179.5
X327.63Y-166.28
X327.63Y-168.49
X327.64Y-173.63
X327.65Y-171.99
X327.65Y-176.35
X327.7Y-179.5
X330.1Y-174.95
X330.17Y-166.28
X330.17Y-168.49
X330.19Y-171.99
X330.99Y-173.44
X331.96Y-177.05
X331.96Y-179.73
X332.61Y-175.15
X332.71Y-166.28
X332.71Y-168.49
X332.73Y-171.99
X333.69Y-173.94
X334.56Y-178.01
X335.25Y-166.28
X335.25Y-168.49
X335.27Y-171.99
X336.95Y-177.05
X336.95Y-179.26
X337.79Y-166.28
X337.79Y-168.49
X337.81Y-171.99
X337.85Y-173.36
X338.79Y-179.86
X340.11Y-175.42
X340.33Y-166.28
X340.33Y-168.49
X340.35Y-171.99
X341.76Y-177.81
X341.77Y-179.83
X342.87Y-166.28
X342.87Y-168.49
X342.89Y-171.99
X345.41Y-166.28
X345.61Y-177.85
X345.61Y-179.93
X345.62Y-175.68
X345.64Y-173.33
X345.66Y-171.87
X346.77Y-174.24
X347.95Y-166.28
X348.05Y-172.63
X348.44Y-179.99
X348.78Y-175.52
X349.76Y-176.25
X349.96Y-179.99
X349.99Y-178.78
X350.26Y-175.0
X350.49Y-166.28
X350.51Y-168.55
X350.51Y-172.62
X351.54Y-178.21
X353.03Y-166.28
X353.05Y-168.55
X353.05Y-172.62
X353.12Y-179.35
X354.65Y-174.9
X354.65Y-179.3
X355.57Y-166.28
X355.59Y-168.55
X355.59Y-172.62
X356.6Y-174.9
X356.6Y-177.44
X356.6Y-179.98
X358.11Y-166.28
X358.13Y-168.55
X358.13Y-172.62
X360.65Y-166.28
X360.67Y-168.55
X360.67Y-172.62
X363.19Y-166.28
X363.21Y-168.55
X363.21Y-172.62
X365.73Y-166.28
X365.75Y-168.55
X365.75Y-172.62
X368.27Y-166.28
X368.29Y-168.55
X368.29Y-172.62
X368.55Y-175.22
X368.55Y-177.76
X368.55Y-180.3
X370.81Y-166.28
X370.83Y-168.55
X370.83Y-172.62
X371.4Y-175.22
X371.4Y-177.76
X371.4Y-180.3
X373.35Y-166.28
X373.37Y-168.55
X373.37Y-172.62
X374.25Y-175.22
X374.25Y-177.76
X374.25Y-180.3
X375.89Y-166.28
X375.91Y-168.55
X375.91Y-172.62
X376.95Y-175.2
X376.95Y-177.74
X376.95Y-180.28
X378.43Y-166.28
X378.45Y-168.55
X378.45Y-172.62
X379.25Y-175.27
X379.25Y-177.81
X379.25Y-180.35
X380.7Y-169.6
X380.7Y-171.6
X380.7Y-173.4
X380.7Y-175.61
X380.97Y-166.28
X381.27Y-180.76
X381.49Y-178.28
X382.1Y-169.59
X382.1Y-171.59
X382.1Y-173.39
X382.1Y-175.6
X383.51Y-166.28
X383.52Y-168.56
X383.52Y-172.03
X384.41Y-179.4
X384.55Y-180.7
X385.76Y-173.42
X385.77Y-178.13
X385.78Y-175.93
X386.05Y-166.28
X386.06Y-168.56
X386.06Y-172.03
X386.96Y-180.69
X388.59Y-166.28
X388.6Y-168.56
X388.6Y-172.03
X389.34Y-180.66
X389.38Y-178.25
X389.86Y-176.59
X390.31Y-174.87
X391.13Y-166.28
X391.14Y-168.56
X391.14Y-172.03
X393.47Y-176.59
X393.67Y-166.28
X393.68Y-168.56
X393.68Y-172.03
X393.7Y-174.92
X393.78Y-178.26
X393.79Y-180.48
X396.2Y-174.89
X396.2Y-180.45
X396.21Y-166.28
X396.22Y-168.56
X396.22Y-172.03
X397.77Y-176.34
X397.79Y-178.61
X398.64Y-180.69
X398.75Y-166.28
X399.6Y-169.5
X399.6Y-171.5
X399.6Y-173.3
X399.6Y-175.51
X401.0Y-169.49
X401.0Y-171.49
X401.0Y-173.29
X401.0Y-175.5
X401.14Y-178.08
X401.29Y-166.28
X401.93Y-179.928
X403.83Y-166.28
X403.84Y-168.58
X404.08Y-172.14
X404.15Y-174.32
X404.19Y-176.37
X406.31Y-180.64
X406.34Y-178.63
X406.35Y-176.41
X406.36Y-174.32
X406.37Y-166.28
X406.37Y-172.1
X406.38Y-168.58
X408.9Y-174.32
X408.91Y-166.28
X408.91Y-172.1
X408.92Y-168.58
X411.44Y-174.32
X411.45Y-166.28
X411.45Y-172.1
X411.46Y-168.58
X413.98Y-174.32
X413.99Y-166.28
X413.99Y-172.1
X414.0Y-168.58
X416.52Y-174.32
X416.53Y-166.28
X416.53Y-172.1
X416.54Y-168.58
X419.06Y-174.32
X419.07Y-166.28
X419.07Y-172.1
X419.08Y-168.58
X421.6Y-174.32
X421.61Y-166.28
X421.61Y-172.1
X421.62Y-168.58
X421.62Y-176.95
X421.67Y-179.95
X424.14Y-174.32
X424.15Y-166.28
X424.15Y-172.1
X424.16Y-168.58
X424.16Y-176.95
X424.21Y-179.95
X426.68Y-174.32
X426.69Y-166.28
X426.69Y-172.1
X426.7Y-168.58
X426.7Y-176.95
X426.75Y-179.95
X429.22Y-174.32
X429.23Y-166.28
X429.23Y-172.1
X429.24Y-168.58
X429.6Y-180.43
X431.4Y-169.3
X431.4Y-171.3
X431.4Y-173.1
X431.4Y-175.31
X431.77Y-166.28
X432.46Y-180.9
X432.57Y-178.51
X432.78Y-167.6
X432.8Y-169.29
X432.8Y-171.29
X432.8Y-173.09
X432.8Y-175.3
X434.31Y-166.28
X434.33Y-172.12
X435.32Y-167.6
X435.48Y-180.89
X435.78Y-173.54
X435.8Y-175.66
X435.83Y-177.96
X435.83Y-179.44
X436.85Y-166.28
X436.87Y-172.12
X437.3Y-180.1
X437.86Y-167.6
X439.29Y-180.77
X439.32Y-176.08
X439.34Y-177.94
X439.39Y-166.28
X439.41Y-172.12
X440.31Y-167.62
X441.93Y-166.28
X441.95Y-172.12
X442.85Y-167.62
X443.5Y-174.0
X443.51Y-176.11
X443.52Y-178.22
X443.54Y-180.8
X444.47Y-166.28
X444.49Y-172.12
X445.39Y-167.62
X446.99Y-178.48
X447.01Y-166.28
X447.01Y-176.13
X447.03Y-172.12
X447.6Y-181.03
X448.27Y-167.61
X449.2Y-178.18
X449.45Y-169.45
X449.45Y-171.45
X449.45Y-173.25
X449.45Y-175.46
X449.55Y-166.28
X450.14Y-181.03
X450.8Y-167.4
X450.85Y-169.44
X450.85Y-171.44
X450.85Y-173.24
X450.85Y-175.45
X450.87Y-178.17
X451.69Y-179.93
X452.09Y-166.28
X452.11Y-172.12
X452.92Y-176.13
X452.92Y-178.06
X454.63Y-166.28
X454.63Y-168.6
X454.63Y-171.03
X454.63Y-173.57
X454.63Y-176.11
X454.63Y-178.65
X454.63Y-181.19
T2
X162.43Y-183.67
X162.43Y-186.21
X162.43Y-188.75
X162.43Y-191.29
X164.97Y-183.67
X164.97Y-186.21
X164.97Y-188.75
X164.97Y-191.29
X167.51Y-183.67
X167.51Y-186.21
X167.51Y-188.75
X167.51Y-191.29
T3
X96.1Y-183.78
X96.1Y-204.1
X141.82Y-183.78
X141.82Y-193.94
T6
X188.13Y-178.53
X188.13Y-193.79
X188.13Y-198.83
X188.13Y-203.87
X191.85Y-178.53
X195.63Y-178.53
X195.63Y-193.79
X195.63Y-198.83
X195.63Y-203.87
X238.31Y-178.53
X238.31Y-193.79
X238.31Y-198.83
X238.31Y-203.87
X242.03Y-178.53
X245.81Y-178.53
X245.81Y-193.79
X245.81Y-198.83
X245.81Y-203.87
X288.28Y-178.53
X288.28Y-193.79
X288.28Y-198.83
X288.28Y-203.87
X292.0Y-178.53
X295.78Y-178.53
X295.78Y-193.79
X295.78Y-198.83
X295.78Y-203.87
X339.84Y-178.53
X339.84Y-193.79
X339.84Y-198.83
X339.84Y-203.87
X343.56Y-178.53
X347.34Y-178.53
X347.34Y-193.79
X347.34Y-198.83
X347.34Y-203.87
X387.84Y-178.53
X387.84Y-193.79
X387.84Y-198.83
X387.84Y-203.87
X391.56Y-178.53
X395.34Y-178.53
X395.34Y-193.79
X395.34Y-198.83
X395.34Y-203.87
X437.86Y-178.53
X437.86Y-193.79
X437.86Y-198.83
X437.86Y-203.87
X441.58Y-178.53
X445.36Y-178.53
X445.36Y-193.79
X445.36Y-198.83
X445.36Y-203.87
T7
X84.67Y-204.55
X89.67Y-204.55
X144.15Y-170.24
X149.15Y-170.24
T8
X89.35Y-170.74
X89.35Y-192.27
X231.3Y-189.0
X303.2Y-189.1
X402.0Y-189.1
X478.0Y-169.8
X478.0Y-206.24
T4
X68.14Y-180.85G85X72.94Y-180.85
G05
X68.14Y-195.15G85X72.94Y-195.15
G05
X72.88Y-187.98G85X77.68Y-187.98
G05
T5
X210.9Y-183.4G85X210.9Y-178.7
G05
X210.9Y-197.1G85X210.9Y-192.4
G05
X219.505Y-190.25G85X219.505Y-185.55
G05
X262.16Y-183.4G85X262.16Y-178.7
G05
X262.16Y-197.1G85X262.16Y-192.4
G05
X270.765Y-190.25G85X270.765Y-185.55
G05
X314.5Y-183.4G85X314.5Y-178.7
G05
X314.5Y-197.1G85X314.5Y-192.4
G05
X323.105Y-190.25G85X323.105Y-185.55
G05
X362.69Y-183.4G85X362.69Y-178.7
G05
X362.69Y-197.1G85X362.69Y-192.4
G05
X371.295Y-190.25G85X371.295Y-185.55
G05
X413.67Y-183.4G85X413.67Y-178.7
G05
X413.67Y-197.1G85X413.67Y-192.4
G05
X422.275Y-190.25G85X422.275Y-185.55
G05
X462.5Y-183.4G85X462.5Y-178.7
G05
X462.5Y-197.1G85X462.5Y-192.4
G05
X471.105Y-190.25G85X471.105Y-185.55
G05
M30
