M48
; DRILL file {KiCad 9.0.2-9.0.2-0~ubuntu24.04.1} date 2025-06-12T12:16:41+0200
; FORMAT={-:-/ absolute / metric / decimal}
; #@! TF.CreationDate,2025-06-12T12:16:41+02:00
; #@! TF.GenerationSoftware,Kicad,Pcbnew,9.0.2-9.0.2-0~ubuntu24.04.1
; #@! TF.FileFunction,Plated,1,2,PTH
FMAT,2
METRIC
; #@! TA.AperFunction,Plated,PTH,ViaDrill
T1C0.300
; #@! TA.AperFunction,Plated,PTH,ComponentDrill
T2C1.000
; #@! TA.AperFunction,Plated,PTH,ComponentDrill
T3C1.030
; #@! TA.AperFunction,Plated,PTH,ComponentDrill
T4C1.200
; #@! TA.AperFunction,Plated,PTH,ComponentDrill
T5C1.300
; #@! TA.AperFunction,Plated,PTH,ComponentDrill
T6C1.400
; #@! TA.AperFunction,Plated,PTH,ComponentDrill
T7C1.600
; #@! TA.AperFunction,Plated,PTH,ComponentDrill
T8C2.200
%
G90
G05
T1
X109.19Y-166.28
X109.19Y-168.82
X109.19Y-171.36
X109.19Y-173.9
X109.19Y-176.44
X109.19Y-178.98
X109.19Y-181.52
X109.19Y-184.06
X109.19Y-186.6
X109.19Y-189.14
X109.19Y-191.68
X109.19Y-194.22
X111.73Y-166.28
X111.73Y-194.22
X114.27Y-166.28
X114.27Y-194.22
X116.81Y-166.28
X116.81Y-194.22
X116.82Y-169.7
X116.82Y-172.24
X116.82Y-174.78
X116.83Y-177.26
X119.35Y-166.28
X119.35Y-194.22
X119.37Y-177.26
X120.37Y-169.0
X120.37Y-171.54
X120.37Y-174.08
X121.89Y-166.28
X121.89Y-194.22
X121.91Y-177.26
X122.91Y-169.0
X122.91Y-171.54
X122.91Y-174.08
X124.43Y-166.28
X124.43Y-194.22
X124.45Y-177.26
X125.45Y-169.0
X125.45Y-171.54
X125.45Y-174.08
X126.97Y-166.28
X126.97Y-194.22
X126.99Y-177.26
X127.79Y-172.19
X128.2Y-168.6
X128.2Y-169.4
X128.2Y-170.2
X128.2Y-170.9
X129.51Y-166.28
X129.51Y-194.22
X129.8Y-178.61
X131.17Y-177.05
X131.99Y-180.79
X132.05Y-166.28
X132.05Y-194.22
X132.07Y-168.74
X132.07Y-170.43
X132.07Y-174.15
X132.1Y-172.21
X133.36Y-179.23
X134.57Y-182.92
X134.59Y-166.28
X134.59Y-194.22
X134.61Y-168.75
X134.61Y-170.44
X134.61Y-174.15
X134.64Y-172.21
X134.64Y-175.93
X135.94Y-178.64
X135.94Y-181.36
X137.13Y-166.28
X137.13Y-194.22
X137.49Y-184.78
X138.48Y-174.68
X138.48Y-178.64
X138.48Y-181.36
X138.49Y-168.94
X139.67Y-166.28
X139.67Y-194.22
X140.03Y-184.78
X140.3Y-169.7
X140.3Y-170.3
X140.3Y-170.9
X140.3Y-171.5
X140.3Y-172.2
X140.3Y-172.8
X140.3Y-173.5
X141.02Y-174.68
X141.02Y-178.64
X141.02Y-181.36
X141.41Y-187.45
X141.8Y-174.0
X141.8Y-176.58
X142.21Y-166.28
X142.78Y-176.95
X143.56Y-178.64
X143.59Y-181.36
X143.95Y-187.45
X144.01Y-172.42
X144.02Y-173.72
X144.19Y-194.23
X144.57Y-175.01
X144.75Y-166.28
X145.25Y-171.66
X146.09Y-174.71
X146.1Y-178.64
X146.13Y-181.36
X146.7Y-173.23
X146.73Y-194.23
X146.92Y-167.83
X147.17Y-187.45
X147.29Y-166.28
X148.63Y-174.71
X148.64Y-178.64
X148.67Y-181.36
X149.27Y-194.23
X149.71Y-187.45
X149.83Y-166.28
X150.83Y-171.83
X151.18Y-178.64
X151.21Y-181.36
X151.81Y-191.58
X151.81Y-194.23
X151.89Y-189.59
X151.94Y-174.73
X152.37Y-166.28
X152.39Y-185.95
X152.39Y-186.95
X152.39Y-187.95
X152.4Y-171.93
X153.39Y-185.95
X153.39Y-186.95
X153.39Y-187.95
X153.69Y-174.71
X153.72Y-178.64
X153.75Y-181.36
X154.39Y-185.95
X154.39Y-186.95
X154.39Y-187.95
X154.68Y-166.3
X155.33Y-171.12
X155.34Y-182.67
X156.26Y-178.64
X156.28Y-189.38
X156.61Y-180.84
X156.92Y-186.77
X156.95Y-185.2
X156.99Y-173.09
X157.52Y-189.48
X158.59Y-178.64
X159.48Y-180.82
X159.62Y-190.19
X159.64Y-192.33
X159.92Y-177.68
X160.25Y-182.68
X160.83Y-179.32
X161.06Y-187.4
X161.07Y-185.16
X161.16Y-190.13
X161.18Y-192.3
X162.12Y-178.29
X162.15Y-175.16
X162.46Y-181.84
X162.81Y-175.16
X163.42Y-192.27
X163.5Y-190.03
X163.57Y-187.47
X164.76Y-180.07
X164.76Y-181.78
X164.78Y-178.26
X166.46Y-185.17
X166.46Y-187.44
X166.54Y-190.05
X166.54Y-192.27
X167.2Y-178.29
X167.2Y-180.07
X167.2Y-181.79
X168.91Y-192.26
X169.44Y-182.04
X169.46Y-181.2
X169.47Y-179.05
X169.5Y-177.97
X169.74Y-183.65
X169.74Y-188.45
X169.74Y-190.99
X169.75Y-186.28
X172.09Y-182.04
X172.1Y-177.97
X172.11Y-180.99
X172.28Y-188.45
X172.28Y-190.99
X172.33Y-183.68
X172.33Y-186.05
X173.92Y-176.39
X174.82Y-188.45
X174.82Y-190.99
X174.87Y-186.05
X174.93Y-183.67
X174.99Y-178.74
X174.99Y-181.0
X175.3Y-172.17
X176.46Y-176.39
X176.89Y-190.74
X176.9Y-183.67
X176.93Y-181.73
X176.93Y-185.44
X177.59Y-175.49
X177.77Y-166.28
X177.77Y-168.53
X177.77Y-172.16
X178.22Y-189.42
X179.42Y-176.96
X179.44Y-179.95
X179.44Y-183.67
X179.47Y-181.73
X179.47Y-185.44
X179.53Y-188.19
X180.13Y-175.49
X180.31Y-166.28
X180.31Y-168.53
X180.31Y-172.16
X180.68Y-187.08
X181.19Y-175.1
X182.85Y-166.28
X182.85Y-168.53
X182.85Y-172.16
X182.99Y-176.24
X183.02Y-178.01
X183.06Y-184.9
X184.39Y-183.58
X185.39Y-166.28
X185.39Y-168.53
X185.39Y-172.16
X185.7Y-182.35
X186.34Y-176.23
X186.85Y-181.24
X187.12Y-179.78
X187.93Y-166.28
X187.93Y-168.53
X187.93Y-172.16
X189.36Y-179.61
X189.84Y-176.23
X190.47Y-166.28
X190.47Y-168.53
X190.47Y-172.16
X193.01Y-166.28
X193.01Y-168.53
X193.01Y-172.16
X193.58Y-177.65
X193.59Y-179.55
X195.444Y-175.317
X195.55Y-166.28
X195.55Y-168.53
X195.55Y-172.16
X196.62Y-179.83
X197.03Y-176.2
X197.51Y-178.8
X198.09Y-166.28
X198.09Y-168.53
X198.09Y-172.16
X198.16Y-175.17
X199.54Y-178.65
X199.66Y-176.43
X200.57Y-176.44
X200.63Y-166.28
X200.63Y-168.53
X200.63Y-172.16
X201.17Y-179.84
X202.49Y-174.72
X202.57Y-177.52
X203.17Y-166.28
X203.17Y-168.53
X203.17Y-172.16
X205.69Y-179.02
X205.71Y-166.28
X205.71Y-168.53
X205.71Y-172.16
X205.81Y-174.76
X208.23Y-176.48
X208.23Y-179.02
X208.25Y-166.28
X208.25Y-168.53
X208.25Y-172.16
X208.35Y-174.76
X210.77Y-176.48
X210.77Y-179.02
X210.79Y-166.28
X210.79Y-168.53
X210.79Y-172.16
X210.89Y-174.76
X213.31Y-176.48
X213.31Y-179.02
X213.33Y-166.28
X213.33Y-168.53
X213.33Y-172.16
X213.43Y-174.76
X215.87Y-166.28
X215.87Y-168.53
X215.87Y-172.16
X215.97Y-174.76
X218.41Y-166.28
X218.41Y-168.53
X218.41Y-172.16
X220.95Y-166.28
X220.95Y-168.53
X220.95Y-172.16
X223.49Y-166.28
X223.49Y-168.53
X223.49Y-172.16
X225.75Y-177.78
X225.76Y-179.57
X225.79Y-174.75
X225.79Y-176.19
X226.03Y-166.28
X226.03Y-168.53
X226.03Y-172.16
X228.57Y-166.28
X228.57Y-168.53
X228.57Y-172.16
X228.66Y-174.64
X228.78Y-177.77
X228.82Y-176.18
X230.24Y-179.87
X230.41Y-174.66
X231.11Y-166.28
X231.11Y-168.53
X231.11Y-172.16
X232.68Y-178.02
X232.71Y-176.16
X232.77Y-174.37
X233.65Y-166.28
X233.65Y-168.53
X233.65Y-172.16
X235.58Y-179.42
X235.59Y-178.03
X235.62Y-176.17
X235.63Y-174.38
X236.19Y-166.28
X236.19Y-168.53
X236.19Y-172.16
X237.27Y-179.8
X237.61Y-176.16
X238.73Y-166.28
X238.73Y-168.53
X239.26Y-172.17
X239.9Y-178.42
X239.9Y-179.79
X241.27Y-166.28
X241.8Y-172.17
X243.5Y-168.53
X243.81Y-166.28
X243.96Y-174.32
X243.97Y-175.93
X243.99Y-178.2
X244.0Y-172.14
X244.0Y-179.77
X246.35Y-166.28
X246.8Y-179.77
X248.88Y-175.82
X248.89Y-166.28
X248.89Y-168.49
X248.9Y-171.01
X248.9Y-178.09
X248.91Y-172.15
X248.91Y-174.07
X251.43Y-166.28
X251.43Y-168.49
X251.43Y-178.1
X251.44Y-171.01
X251.45Y-172.15
X251.45Y-174.07
X252.53Y-179.89
X253.97Y-166.28
X253.97Y-168.49
X253.98Y-171.01
X253.99Y-172.15
X253.99Y-174.07
X255.18Y-177.14
X255.19Y-179.64
X256.51Y-166.28
X256.51Y-168.49
X256.52Y-171.01
X256.53Y-172.15
X256.53Y-174.07
X257.97Y-177.09
X257.97Y-179.63
X259.05Y-166.28
X259.05Y-168.49
X259.06Y-171.01
X259.07Y-172.15
X259.07Y-174.07
X260.51Y-177.09
X260.51Y-179.63
X261.59Y-166.28
X261.59Y-168.49
X261.6Y-171.01
X261.61Y-172.15
X261.61Y-174.07
X263.05Y-177.09
X263.05Y-179.63
X264.13Y-166.28
X264.13Y-168.49
X264.14Y-171.01
X264.15Y-172.15
X264.15Y-174.07
X265.59Y-177.09
X265.59Y-179.63
X266.67Y-166.28
X266.67Y-168.49
X266.68Y-171.01
X266.69Y-172.15
X266.69Y-174.07
X269.21Y-166.28
X269.21Y-168.49
X269.22Y-171.01
X269.23Y-172.15
X269.23Y-174.07
X271.75Y-166.28
X271.75Y-168.49
X271.76Y-171.01
X271.77Y-172.15
X271.77Y-174.07
X274.29Y-166.28
X274.29Y-168.49
X274.3Y-171.01
X274.31Y-172.15
X274.31Y-174.07
X276.83Y-166.28
X276.83Y-168.49
X276.84Y-171.01
X276.85Y-172.15
X276.85Y-174.07
X279.36Y-175.98
X279.37Y-166.28
X279.37Y-168.49
X279.37Y-177.75
X279.38Y-171.01
X279.38Y-174.09
X279.39Y-172.15
X280.72Y-179.54
X281.91Y-166.28
X281.91Y-168.49
X281.92Y-171.01
X281.92Y-174.09
X281.93Y-172.15
X283.33Y-175.93
X284.45Y-166.28
X284.45Y-168.49
X284.46Y-171.01
X284.47Y-172.15
X285.32Y-175.95
X285.33Y-177.61
X285.33Y-179.22
X286.99Y-166.28
X286.99Y-168.49
X287.0Y-171.01
X287.01Y-172.15
X287.67Y-179.96
X289.53Y-166.28
X289.53Y-168.49
X289.55Y-172.15
X289.97Y-179.85
X289.98Y-175.97
X292.07Y-166.28
X292.07Y-168.49
X292.09Y-172.15
X293.81Y-175.97
X293.91Y-179.71
X294.61Y-166.28
X294.61Y-168.49
X294.63Y-172.15
X295.73Y-174.8
X296.38Y-179.98
X297.15Y-166.28
X297.15Y-168.49
X297.17Y-172.15
X298.43Y-175.5
X298.55Y-179.05
X299.69Y-166.28
X299.69Y-168.49
X299.7Y-173.63
X299.71Y-172.15
X300.42Y-175.47
X301.09Y-179.05
X301.97Y-176.0
X301.97Y-177.81
X302.23Y-166.28
X302.23Y-168.49
X302.24Y-173.63
X302.25Y-172.15
X304.16Y-177.17
X304.17Y-179.95
X304.18Y-178.45
X304.77Y-166.28
X304.77Y-168.49
X304.78Y-173.63
X304.79Y-172.15
X306.64Y-179.95
X307.31Y-166.28
X307.31Y-168.49
X307.32Y-173.63
X307.33Y-172.15
X307.62Y-177.21
X309.85Y-166.28
X309.85Y-168.49
X309.86Y-173.63
X309.87Y-172.15
X310.16Y-177.21
X310.16Y-179.42
X312.39Y-166.28
X312.39Y-168.49
X312.4Y-173.63
X312.41Y-172.15
X312.7Y-177.21
X312.7Y-179.42
X314.93Y-166.28
X314.93Y-168.49
X314.94Y-173.63
X314.95Y-172.15
X315.24Y-177.21
X315.24Y-179.42
X317.47Y-166.28
X317.47Y-168.49
X317.48Y-173.63
X317.49Y-172.15
X317.88Y-177.2
X317.88Y-179.41
X320.01Y-166.28
X320.01Y-168.49
X320.02Y-173.63
X320.03Y-172.15
X322.55Y-166.28
X322.55Y-168.49
X322.56Y-173.63
X322.57Y-172.15
X325.09Y-166.28
X325.09Y-168.49
X325.1Y-173.63
X325.11Y-172.15
X327.63Y-166.28
X327.63Y-168.49
X327.64Y-173.63
X327.65Y-172.15
X329.27Y-177.04
X329.27Y-179.72
X330.17Y-166.28
X330.17Y-168.49
X330.19Y-172.15
X330.99Y-173.44
X331.96Y-177.05
X331.96Y-179.73
X332.61Y-175.15
X332.71Y-166.28
X332.71Y-168.49
X332.73Y-172.15
X333.69Y-173.94
X334.56Y-178.01
X335.25Y-166.28
X335.25Y-168.49
X335.27Y-172.15
X336.95Y-177.05
X336.95Y-179.26
X337.79Y-166.28
X337.79Y-168.49
X337.81Y-172.15
X337.85Y-173.36
X338.79Y-179.86
X340.11Y-175.42
X340.33Y-166.28
X340.33Y-168.49
X340.35Y-172.15
X341.76Y-177.81
X341.77Y-179.83
X342.87Y-166.28
X342.87Y-168.49
X342.89Y-172.15
X345.41Y-166.28
X345.61Y-177.85
X345.61Y-179.93
X345.62Y-175.68
X345.64Y-173.33
X345.66Y-172.03
X346.77Y-174.24
X347.95Y-166.28
X348.05Y-172.63
X348.44Y-179.99
X348.78Y-175.52
X349.76Y-176.25
X349.96Y-179.99
X349.99Y-178.78
X350.26Y-175.0
X350.49Y-166.28
X350.51Y-168.55
X350.51Y-172.62
X351.54Y-178.21
X353.03Y-166.28
X353.05Y-168.55
X353.05Y-172.62
X353.12Y-179.35
X355.57Y-166.28
X355.59Y-168.55
X355.59Y-172.62
X356.82Y-174.86
X356.82Y-177.4
X356.82Y-179.94
X358.11Y-166.28
X358.13Y-168.55
X358.13Y-172.62
X359.36Y-174.86
X359.36Y-177.4
X359.36Y-179.94
X360.65Y-166.28
X360.67Y-168.55
X360.67Y-172.62
X361.9Y-174.86
X361.9Y-177.4
X361.9Y-179.94
X363.19Y-166.28
X363.21Y-168.55
X363.21Y-172.62
X364.44Y-174.86
X364.44Y-177.4
X364.44Y-179.94
X365.73Y-166.28
X365.75Y-168.55
X365.75Y-172.62
X368.27Y-166.28
X368.29Y-168.55
X368.29Y-172.62
X370.81Y-166.28
X370.83Y-168.55
X370.83Y-172.62
X373.35Y-166.28
X373.37Y-168.55
X373.37Y-172.62
X375.89Y-166.28
X375.91Y-168.55
X375.91Y-172.62
X376.96Y-175.05
X376.96Y-177.59
X376.96Y-180.13
X378.43Y-166.28
X378.45Y-168.55
X378.45Y-172.62
X378.9Y-180.71
X380.7Y-175.61
X380.97Y-166.28
X381.27Y-180.76
X381.49Y-178.28
X382.57Y-175.62
X382.58Y-173.42
X383.51Y-166.28
X383.52Y-168.56
X383.52Y-172.03
X384.41Y-179.4
X384.55Y-180.7
X385.76Y-173.42
X385.77Y-178.13
X385.78Y-175.93
X386.05Y-166.28
X386.06Y-168.56
X386.06Y-172.03
X386.96Y-180.69
X388.59Y-166.28
X388.6Y-168.56
X388.6Y-172.03
X389.34Y-180.66
X389.38Y-178.25
X389.86Y-176.59
X390.31Y-174.87
X391.13Y-166.28
X391.14Y-168.56
X391.14Y-172.03
X393.47Y-176.59
X393.67Y-166.28
X393.68Y-168.56
X393.68Y-172.03
X393.7Y-174.92
X393.78Y-178.26
X393.79Y-180.48
X396.2Y-174.89
X396.21Y-166.28
X396.22Y-168.56
X396.22Y-172.03
X397.77Y-176.34
X397.79Y-178.61
X398.64Y-180.69
X398.75Y-166.28
X399.31Y-174.34
X401.14Y-178.08
X401.28Y-174.32
X401.29Y-166.28
X401.29Y-172.1
X401.3Y-168.58
X401.93Y-179.928
X403.83Y-166.28
X403.84Y-168.58
X404.08Y-172.14
X404.15Y-174.32
X404.19Y-176.37
X406.31Y-180.64
X406.34Y-178.63
X406.35Y-176.41
X406.36Y-174.32
X406.37Y-166.28
X406.37Y-172.1
X406.38Y-168.58
X408.85Y-180.64
X408.88Y-178.63
X408.89Y-176.41
X408.9Y-174.32
X408.91Y-166.28
X408.91Y-172.1
X408.92Y-168.58
X411.39Y-180.64
X411.42Y-178.63
X411.43Y-176.41
X411.44Y-174.32
X411.45Y-166.28
X411.45Y-172.1
X411.46Y-168.58
X413.93Y-180.64
X413.96Y-178.63
X413.97Y-176.41
X413.98Y-174.32
X413.99Y-166.28
X413.99Y-172.1
X414.0Y-168.58
X416.47Y-180.64
X416.5Y-178.63
X416.51Y-176.41
X416.52Y-174.32
X416.53Y-166.28
X416.53Y-172.1
X416.54Y-168.58
X419.06Y-174.32
X419.07Y-166.28
X419.07Y-172.1
X419.08Y-168.58
X421.6Y-174.32
X421.61Y-166.28
X421.61Y-172.1
X421.62Y-168.58
X424.14Y-174.32
X424.15Y-166.28
X424.15Y-172.1
X424.16Y-168.58
X426.68Y-174.32
X426.69Y-166.28
X426.69Y-172.1
X426.7Y-168.58
X427.43Y-176.07
X427.44Y-178.17
X429.22Y-174.32
X429.23Y-166.28
X429.23Y-172.1
X429.24Y-168.58
X429.6Y-180.43
X431.42Y-169.49
X431.42Y-170.78
X431.77Y-166.28
X432.46Y-180.9
X432.57Y-178.51
X432.74Y-175.66
X432.75Y-173.55
X432.78Y-167.6
X432.78Y-169.51
X432.78Y-170.76
X434.31Y-166.28
X434.33Y-172.12
X435.32Y-167.6
X435.48Y-180.89
X435.78Y-173.54
X435.8Y-175.66
X435.83Y-177.96
X435.83Y-179.44
X436.85Y-166.28
X436.87Y-172.12
X437.3Y-180.1
X437.86Y-167.6
X439.29Y-180.77
X439.32Y-176.08
X439.34Y-177.94
X439.39Y-166.28
X439.41Y-172.12
X440.31Y-167.62
X441.93Y-166.28
X441.95Y-172.12
X442.85Y-167.62
X443.51Y-176.11
X443.52Y-178.22
X443.54Y-180.8
X444.47Y-166.28
X444.49Y-172.12
X445.39Y-167.62
X446.99Y-178.48
X447.01Y-166.28
X447.01Y-176.13
X447.03Y-172.12
X447.6Y-181.03
X448.27Y-167.61
X449.2Y-178.18
X449.55Y-166.28
X449.55Y-176.13
X449.57Y-172.12
X449.58Y-169.8
X450.14Y-181.03
X450.81Y-167.61
X450.87Y-178.17
X450.89Y-176.12
X450.92Y-173.32
X451.69Y-179.93
X452.09Y-166.28
X452.09Y-168.6
X452.11Y-172.12
X452.92Y-176.13
X452.92Y-178.06
X454.63Y-166.28
X454.63Y-168.6
X454.63Y-171.03
X454.63Y-173.57
X454.63Y-176.11
X454.63Y-178.65
X454.63Y-181.19
T2
X162.43Y-183.67
X162.43Y-186.21
X162.43Y-188.75
X162.43Y-191.29
X164.97Y-183.67
X164.97Y-186.21
X164.97Y-188.75
X164.97Y-191.29
X167.51Y-183.67
X167.51Y-186.21
X167.51Y-188.75
X167.51Y-191.29
T3
X96.1Y-183.78
X96.1Y-204.1
X141.82Y-183.78
X141.82Y-193.94
T6
X188.13Y-178.53
X188.13Y-193.79
X188.13Y-198.83
X188.13Y-203.87
X191.85Y-178.53
X195.63Y-178.53
X195.63Y-193.79
X195.63Y-198.83
X195.63Y-203.87
X238.31Y-178.53
X238.31Y-193.79
X238.31Y-198.83
X238.31Y-203.87
X242.03Y-178.53
X245.81Y-178.53
X245.81Y-193.79
X245.81Y-198.83
X245.81Y-203.87
X288.28Y-178.53
X288.28Y-193.79
X288.28Y-198.83
X288.28Y-203.87
X292.0Y-178.53
X295.78Y-178.53
X295.78Y-193.79
X295.78Y-198.83
X295.78Y-203.87
X339.84Y-178.53
X339.84Y-193.79
X339.84Y-198.83
X339.84Y-203.87
X343.56Y-178.53
X347.34Y-178.53
X347.34Y-193.79
X347.34Y-198.83
X347.34Y-203.87
X387.84Y-178.53
X387.84Y-193.79
X387.84Y-198.83
X387.84Y-203.87
X391.56Y-178.53
X395.34Y-178.53
X395.34Y-193.79
X395.34Y-198.83
X395.34Y-203.87
X437.86Y-178.53
X437.86Y-193.79
X437.86Y-198.83
X437.86Y-203.87
X441.58Y-178.53
X445.36Y-178.53
X445.36Y-193.79
X445.36Y-198.83
X445.36Y-203.87
T7
X84.67Y-204.55
X89.67Y-204.55
X144.15Y-170.24
X149.15Y-170.24
T8
X89.35Y-170.74
X89.35Y-192.27
X231.3Y-189.0
X303.2Y-189.1
X402.0Y-189.1
X478.0Y-169.8
X478.0Y-206.24
T4
X68.14Y-180.85G85X72.94Y-180.85
G05
X68.14Y-195.15G85X72.94Y-195.15
G05
X72.88Y-187.98G85X77.68Y-187.98
G05
T5
X211.505Y-185.855G85X211.505Y-190.555
G05
X220.11Y-179.005G85X220.11Y-183.705
G05
X220.11Y-192.705G85X220.11Y-197.405
G05
X263.585Y-185.65G85X263.585Y-190.35
G05
X272.19Y-178.8G85X272.19Y-183.5
G05
X272.19Y-192.5G85X272.19Y-197.2
G05
X315.505Y-185.65G85X315.505Y-190.35
G05
X324.11Y-178.8G85X324.11Y-183.5
G05
X324.11Y-192.5G85X324.11Y-197.2
G05
X363.165Y-185.65G85X363.165Y-190.35
G05
X371.77Y-178.8G85X371.77Y-183.5
G05
X371.77Y-192.5G85X371.77Y-197.2
G05
X413.865Y-185.65G85X413.865Y-190.35
G05
X422.47Y-178.8G85X422.47Y-183.5
G05
X422.47Y-192.5G85X422.47Y-197.2
G05
X461.955Y-185.975G85X461.955Y-190.675
G05
X470.56Y-179.125G85X470.56Y-183.825
G05
X470.56Y-192.825G85X470.56Y-197.525
G05
M30
