G04 #@! TF.GenerationSoftware,KiCad,Pcbnew,9.0.2-9.0.2-0~ubuntu24.04.1*
G04 #@! TF.CreationDate,2025-06-12T12:16:46+02:00*
G04 #@! TF.ProjectId,PCB_Rack,5043425f-5261-4636-9b2e-6b696361645f,rev?*
G04 #@! TF.SameCoordinates,Original*
G04 #@! TF.FileFunction,Paste,Top*
G04 #@! TF.FilePolarity,Positive*
%FSLAX46Y46*%
G04 Gerber Fmt 4.6, Leading zero omitted, Abs format (unit mm)*
G04 Created by KiCad (PCBNEW 9.0.2-9.0.2-0~ubuntu24.04.1) date 2025-06-12 12:16:46*
%MOMM*%
%LPD*%
G01*
G04 APERTURE LIST*
G04 Aperture macros list*
%AMRoundRect*
0 Rectangle with rounded corners*
0 $1 Rounding radius*
0 $2 $3 $4 $5 $6 $7 $8 $9 X,Y pos of 4 corners*
0 Add a 4 corners polygon primitive as box body*
4,1,4,$2,$3,$4,$5,$6,$7,$8,$9,$2,$3,0*
0 Add four circle primitives for the rounded corners*
1,1,$1+$1,$2,$3*
1,1,$1+$1,$4,$5*
1,1,$1+$1,$6,$7*
1,1,$1+$1,$8,$9*
0 Add four rect primitives between the rounded corners*
20,1,$1+$1,$2,$3,$4,$5,0*
20,1,$1+$1,$4,$5,$6,$7,0*
20,1,$1+$1,$6,$7,$8,$9,0*
20,1,$1+$1,$8,$9,$2,$3,0*%
G04 Aperture macros list end*
%ADD10RoundRect,0.237500X0.300000X0.237500X-0.300000X0.237500X-0.300000X-0.237500X0.300000X-0.237500X0*%
%ADD11RoundRect,0.090000X0.660000X0.360000X-0.660000X0.360000X-0.660000X-0.360000X0.660000X-0.360000X0*%
%ADD12RoundRect,0.237500X-0.300000X-0.237500X0.300000X-0.237500X0.300000X0.237500X-0.300000X0.237500X0*%
%ADD13RoundRect,0.237500X-0.237500X0.287500X-0.237500X-0.287500X0.237500X-0.287500X0.237500X0.287500X0*%
%ADD14RoundRect,0.237500X-0.250000X-0.237500X0.250000X-0.237500X0.250000X0.237500X-0.250000X0.237500X0*%
%ADD15RoundRect,0.237500X0.250000X0.237500X-0.250000X0.237500X-0.250000X-0.237500X0.250000X-0.237500X0*%
%ADD16RoundRect,0.090000X0.360000X-0.660000X0.360000X0.660000X-0.360000X0.660000X-0.360000X-0.660000X0*%
%ADD17RoundRect,0.090000X-0.090000X0.139000X-0.090000X-0.139000X0.090000X-0.139000X0.090000X0.139000X0*%
%ADD18RoundRect,0.237500X0.237500X-0.250000X0.237500X0.250000X-0.237500X0.250000X-0.237500X-0.250000X0*%
%ADD19RoundRect,0.075000X-0.390000X-0.275000X0.390000X-0.275000X0.390000X0.275000X-0.390000X0.275000X0*%
%ADD20RoundRect,0.075000X-0.075000X-0.275000X0.075000X-0.275000X0.075000X0.275000X-0.075000X0.275000X0*%
%ADD21R,1.750000X0.450000*%
%ADD22RoundRect,0.240000X0.560000X-1.510000X0.560000X1.510000X-0.560000X1.510000X-0.560000X-1.510000X0*%
%ADD23RoundRect,0.237500X-0.237500X0.300000X-0.237500X-0.300000X0.237500X-0.300000X0.237500X0.300000X0*%
G04 APERTURE END LIST*
D10*
X438857500Y-174585000D03*
X437132500Y-174585000D03*
D11*
X294575000Y-173440000D03*
X294575000Y-170140000D03*
X289675000Y-170140000D03*
X289675000Y-173440000D03*
D12*
X395587500Y-173490000D03*
X397312500Y-173490000D03*
D13*
X118285000Y-170542500D03*
X118285000Y-172292500D03*
D12*
X296627500Y-173570000D03*
X298352500Y-173570000D03*
D14*
X141387500Y-175765000D03*
X143212500Y-175765000D03*
D15*
X165822500Y-175420000D03*
X163997500Y-175420000D03*
D16*
X241865000Y-173760000D03*
X245165000Y-173760000D03*
X245165000Y-168860000D03*
X241865000Y-168860000D03*
D10*
X341822500Y-174200000D03*
X340097500Y-174200000D03*
D11*
X194570000Y-173440000D03*
X194570000Y-170140000D03*
X189670000Y-170140000D03*
X189670000Y-173440000D03*
D16*
X441507500Y-174290000D03*
X444807500Y-174290000D03*
X444807500Y-169390000D03*
X441507500Y-169390000D03*
D14*
X185787500Y-173820000D03*
X187612500Y-173820000D03*
D10*
X239327500Y-174160000D03*
X237602500Y-174160000D03*
D15*
X164092500Y-173740000D03*
X162267500Y-173740000D03*
D17*
X145410000Y-186387500D03*
X145410000Y-187252500D03*
D18*
X118260000Y-176142500D03*
X118260000Y-174317500D03*
D19*
X154415000Y-185000000D03*
D20*
X155300000Y-185000000D03*
D12*
X150187500Y-175765000D03*
X151912500Y-175765000D03*
D21*
X136600000Y-176075000D03*
X136600000Y-175425000D03*
X136600000Y-174775000D03*
X136600000Y-174125000D03*
X136600000Y-173475000D03*
X136600000Y-172825000D03*
X136600000Y-172175000D03*
X136600000Y-171525000D03*
X136600000Y-170875000D03*
X136600000Y-170225000D03*
X136600000Y-169575000D03*
X136600000Y-168925000D03*
X129400000Y-168925000D03*
X129400000Y-169575000D03*
X129400000Y-170225000D03*
X129400000Y-170875000D03*
X129400000Y-171525000D03*
X129400000Y-172175000D03*
X129400000Y-172825000D03*
X129400000Y-173475000D03*
X129400000Y-174125000D03*
X129400000Y-174775000D03*
X129400000Y-175425000D03*
X129400000Y-176075000D03*
D16*
X344446411Y-174240000D03*
X347746411Y-174240000D03*
X347746411Y-169340000D03*
X344446411Y-169340000D03*
D15*
X147662500Y-175765000D03*
X145837500Y-175765000D03*
D22*
X149750000Y-184650000D03*
X149750000Y-190250000D03*
D11*
X393475000Y-173440000D03*
X393475000Y-170140000D03*
X388575000Y-170140000D03*
X388575000Y-173440000D03*
D12*
X196807500Y-173650000D03*
X198532500Y-173650000D03*
D23*
X127150000Y-174087500D03*
X127150000Y-175812500D03*
M02*
